<svg width="215" height="248" viewBox="0 0 215 248" fill="none" xmlns="http://www.w3.org/2000/svg">
<path fill-rule="evenodd" clip-rule="evenodd" d="M124.896 0C133.988 1.50207 142.846 4.17442 151.251 7.95033C148.254 10.8312 144.915 13.3338 141.308 15.4022C136.349 9.75473 130.853 4.60253 124.896 0.0184598V0ZM159.118 11.8947C172.28 19.1739 183.78 29.1116 192.885 41.0746C184.157 46.7968 174.733 51.3813 164.841 54.717C160.386 42.9907 154.272 31.9624 146.686 21.968C151.273 19.1956 155.456 15.8061 159.118 11.8947ZM197.604 47.782C207.843 63.555 213.72 81.7538 214.638 100.53H174.058C173.614 87.6363 171.432 74.8615 167.571 62.5504C178.17 58.9236 188.263 53.9607 197.604 47.782ZM214.737 108.443C214.276 128.16 208.345 147.362 197.604 163.911C188.264 157.73 178.171 152.767 167.571 149.142C171.703 135.967 173.913 122.266 174.132 108.462L214.737 108.443ZM192.885 170.594C183.778 182.557 172.276 192.495 159.112 199.773C155.451 195.864 151.27 192.475 146.686 189.7C154.274 179.707 160.388 168.678 164.841 156.951C174.733 160.287 184.157 164.871 192.885 170.594ZM151.251 203.724C142.845 207.504 133.984 210.178 124.889 211.681C130.849 207.097 136.347 201.944 141.308 196.297C144.913 198.365 148.252 200.865 151.251 203.742V203.724ZM89.7489 211.662C80.686 210.16 71.8561 207.492 63.4797 203.724C66.4618 200.86 69.7823 198.37 73.3676 196.309C78.3165 201.945 83.8028 207.087 89.7489 211.662ZM55.6125 199.773C42.453 192.491 30.9539 182.554 21.8458 170.594C30.5512 164.881 39.9528 160.304 49.8215 156.976C54.2784 168.708 60.3966 179.74 67.9893 189.737C63.4242 192.502 59.2599 195.879 55.6125 199.773ZM17.1329 163.899C6.39057 147.353 0.459266 128.152 0 108.437H40.5435C40.7622 122.25 42.9719 135.959 47.1046 149.142C36.5334 152.776 26.4681 157.739 17.1513 163.911L17.1329 163.899ZM0.0985685 100.517C1.02287 81.7464 6.89955 63.5531 17.1329 47.782C26.447 53.9586 36.5129 58.9215 47.0861 62.5504C43.2259 74.8638 41.0439 87.6406 40.5989 100.536L0.0985685 100.517ZM21.852 41.0685C30.9589 29.1073 42.4582 19.17 55.6187 11.8886C59.262 15.7882 63.4245 19.1693 67.9893 21.9372C60.3947 31.9338 54.2744 42.9665 49.8153 54.6985C39.9502 51.3661 30.5511 46.7899 21.8458 41.0808L21.852 41.0685ZM63.4859 7.95033C71.858 4.18228 80.6838 1.51405 89.7427 0.0123096C83.7971 4.59691 78.3129 9.74917 73.3676 15.3961C69.7945 13.3427 66.4845 10.8631 63.5105 8.01186L63.4859 7.95033ZM49.0699 100.524H103.382V72.3283C87.0457 72.0604 70.8159 69.6396 55.1135 65.1287C51.5249 76.6052 49.4842 88.5084 49.0452 100.524H49.0699ZM57.8981 57.2337C72.7128 61.3797 87.9994 63.607 103.382 63.8611V32.4413C93.777 32.0208 84.3348 29.8107 75.5423 25.9247C68.1418 35.4354 62.188 45.9855 57.8735 57.2337H57.8981ZM81.2594 19.2051C88.3418 21.9932 95.8341 23.6022 103.438 23.9679V0.849186C95.2256 5.90672 87.7607 12.085 81.2594 19.2051ZM103.382 210.85V187.713C95.779 188.081 88.2872 189.69 81.204 192.475C87.7021 199.604 95.1674 205.789 103.382 210.85ZM75.5423 185.78C84.3336 181.887 93.7756 179.669 103.382 179.239V147.819C87.9912 148.072 72.6962 150.299 57.8735 154.447C62.1904 165.694 68.1441 176.244 75.5423 185.756V185.78ZM55.1135 146.576C70.8144 142.056 87.0447 139.629 103.382 139.358V108.437H48.9898C49.2116 121.371 51.2862 134.206 55.1505 146.552L55.1135 146.576ZM111.299 0.923025V23.9679C118.87 23.5982 126.33 21.9978 133.385 19.2297C126.913 12.1223 119.479 5.95226 111.299 0.898411V0.923025ZM139.114 25.9493C130.34 29.8199 120.919 32.0216 111.336 32.4413V63.8611C126.701 63.6101 141.971 61.3911 156.771 57.2583C152.458 46.0118 146.509 35.462 139.114 25.9493ZM159.531 65.1471C143.852 69.6484 127.647 72.063 111.336 72.3283V100.524H165.605C165.168 88.5147 163.13 76.6176 159.543 65.1471H159.531ZM165.692 108.437H111.354V139.358C127.665 139.622 143.87 142.034 159.549 146.533C163.411 134.193 165.485 121.364 165.71 108.437H165.692ZM156.752 154.422C141.955 150.289 126.687 148.07 111.324 147.819V179.239C120.911 179.657 130.336 181.859 139.114 185.731C146.511 176.22 152.461 165.67 156.771 154.422H156.752ZM133.403 192.451C126.35 189.683 118.893 188.082 111.324 187.713V210.776C119.499 205.72 126.93 199.553 133.403 192.451Z" fill="#A5D1CD"/>
<path fill-rule="evenodd" clip-rule="evenodd" d="M107.368 229.329L89.9953 224.504L76.7807 228.387L35.2638 154.047L107.362 121.735L179.467 154.047L137.888 228.498L124.92 224.437L107.368 229.329Z" fill="white"/>
<path fill-rule="evenodd" clip-rule="evenodd" d="M151.658 93.6317V125.95H145.559V164.175H69.1722V125.95H63.0731V93.6317H151.658Z" fill="white"/>
<path fill-rule="evenodd" clip-rule="evenodd" d="M91.8619 69.3315H102.415V64.8395H112.315V69.3315H122.869V77.9403L112.315 82.3462V87.7797H116.234L120.823 138.411H93.9073L98.497 87.7797H102.415V82.3462L91.8619 77.9403V69.3315Z" fill="white"/>
<path fill-rule="evenodd" clip-rule="evenodd" d="M95.0039 72.4698H105.902L106.124 67.9839H108.588L108.81 72.4698H119.708V75.7435L109.198 80.4386L109.716 90.8995H113.338L117.361 135.242H97.3511L101.374 90.8995H104.997L105.508 80.4386L95.0039 75.7435V72.4698ZM108.927 74.6481L109.1 78.1679L116.979 74.6481H108.927ZM105.619 78.1679L105.791 74.6481H97.7454L105.625 78.1679H105.619Z" fill="#4AA29A"/>
<path fill-rule="evenodd" clip-rule="evenodd" d="M144.813 100.468V119.113H138.714V157.339H76.0167V119.113H69.9176V100.468H144.813Z" fill="#4AA29A"/>
<path fill-rule="evenodd" clip-rule="evenodd" d="M139.817 105.459V114.123H133.718V152.355H81.013V114.123H74.9139V105.459H139.817Z" fill="white"/>
<path fill-rule="evenodd" clip-rule="evenodd" d="M107.362 131.254V220.314L89.9275 215.471L80.9884 218.099L47.4742 158.09L107.362 131.254Z" fill="#4AA29A"/>
<path fill-rule="evenodd" clip-rule="evenodd" d="M107.362 131.254V220.314L125.068 215.379L133.742 218.099L167.25 158.09L107.362 131.254Z" fill="#4AA29A"/>
<path fill-rule="evenodd" clip-rule="evenodd" d="M93.9566 119.286V114.123H101.035V119.286H93.9566ZM103.814 119.286V114.123H110.892V119.286H103.814ZM113.671 119.286V114.123H120.749V119.286H113.671ZM123.528 119.286V114.123H130.613V119.286H123.528ZM84.0564 119.286V114.123H91.1412V119.286H84.0564Z" fill="#A5D1CD"/>
<path fill-rule="evenodd" clip-rule="evenodd" d="M72.6837 213.877L84.0009 210.481L90.3402 207.318L98.9467 212.068L110.72 212.973L124.76 206.862L139.934 214.326L133.594 237.396L74.9447 234.91L72.6837 213.877Z" fill="white"/>
<path fill-rule="evenodd" clip-rule="evenodd" d="M153.752 202.481V226.234H60.9785V202.487C61.3235 202.727 61.6747 202.967 62.0258 203.195C64.7613 204.949 67.8444 206.091 71.0636 206.542L72.807 206.635C74.6018 206.595 76.3834 206.317 78.1052 205.81C80.4224 205.016 82.6259 203.924 84.6602 202.561C86.5577 201.232 88.3196 199.767 90.1247 198.309C92.1863 200.044 94.335 201.672 96.5626 203.189C98.325 204.265 100.201 205.145 102.157 205.81C103.878 206.318 105.66 206.595 107.455 206.635C109.24 206.591 111.012 206.308 112.722 205.792C115.006 204.999 117.177 203.91 119.179 202.555C121.058 201.226 122.813 199.749 124.6 198.284C126.639 200.024 128.767 201.657 130.976 203.176C132.708 204.252 134.556 205.129 136.484 205.792C138.194 206.306 139.966 206.589 141.751 206.635C143.546 206.595 145.328 206.317 147.049 205.81C149.367 205.016 151.57 203.924 153.604 202.561L153.752 202.463V202.481Z" fill="white"/>
<path fill-rule="evenodd" clip-rule="evenodd" d="M107.362 218.086C95.9958 227.649 84.5061 227.735 72.8932 218.086C61.2742 227.735 49.7845 227.649 38.3934 218.086V225.101C49.8892 235.095 61.3789 235.562 72.8932 225.101C84.3829 235.562 95.8726 235.095 107.362 225.101C118.858 235.095 130.348 235.562 141.862 225.101C153.352 235.562 164.841 235.095 176.362 225.101V218.086C164.995 227.649 153.506 227.735 141.862 218.086C130.249 227.735 118.76 227.649 107.362 218.086ZM90.1123 232.812C78.7459 242.387 67.25 242.467 55.6125 232.812V239.833C67.1022 250.294 78.5919 249.82 90.1123 239.833C101.602 249.82 113.092 250.294 124.581 239.833C136.077 250.294 147.561 249.82 159.081 239.833V232.812C147.715 242.387 136.225 242.467 124.581 232.812C112.968 242.467 101.479 242.387 90.1123 232.812ZM55.6125 203.386C66.979 212.942 78.4686 213.034 90.1123 203.386C101.725 213.034 113.215 212.942 124.581 203.386C135.948 212.942 147.444 213.034 159.081 203.386C170.7 213.034 182.19 212.942 193.581 203.386V210.394C182.085 220.394 170.596 220.886 159.081 210.394C147.592 220.886 136.102 220.394 124.581 210.394C113.092 220.394 101.602 220.886 90.1123 210.394C78.6227 220.886 67.133 220.394 55.6125 210.394C44.1167 220.394 32.6332 220.886 21.1127 210.394V203.386C32.7317 213.034 44.2214 212.942 55.6125 203.386Z" fill="#A5D1CD"/>
<path fill-rule="evenodd" clip-rule="evenodd" d="M104.461 154.453L54.325 165.96L107.362 146.613L160.406 165.96L110.27 154.453L107.362 209.582L104.461 154.453Z" fill="white"/>
</svg>
