<svg width="768" height="695" viewBox="0 0 768 695" fill="none" xmlns="http://www.w3.org/2000/svg">
<g clip-path="url(#clip0)">
<path d="M768 0H0V695H768V0Z" fill="#93C7C3"/>
<path d="M-233.241 163H1001.24V615H-233.241V163Z" fill="url(#paint0_linear)"/>
<path d="M-233.241 163H1001.24V615H-233.241V163Z" fill="#93C7C3"/>
<g opacity="0.2">
<path opacity="0.2" d="M-233.241 268.149L-233.17 546.116L1001.24 548.64V272.944L928.062 309.732L794.474 229.333L600.422 320.823L489.001 281.23L388.003 318.605L351.427 334.338L236.673 281.55L167.472 330.9L111.638 302.086L-25.16 330.9L-110.657 302.97L-173.121 355.598L-233.241 268.149Z" fill="#138999"/>
</g>
<g opacity="0.2">
<path opacity="0.2" d="M-233.24 366.989L-233.214 543.809L1000.95 544.327V368.445L928.6 407.443L756.646 367.164L644.961 373.255L407.632 365.228L287.579 441.998L161.935 439.49L39.8094 371.395L-80.1204 416.24L-137.418 390.826L-189.504 430.274L-233.24 366.989Z" fill="#138999"/>
</g>
<g opacity="0.9">
<path opacity="0.9" d="M76.0226 325.841L188.839 326.509C194.278 319.849 184.657 311.279 177.2 315.443C176.472 310.06 170.267 306.689 164.192 305.451C158.802 304 154.413 303.729 150.323 307.385C149.215 304.546 146.054 305.185 142.133 304.88C137.06 304.522 131.626 305.46 127.888 310.403C121.977 305.61 111.624 312.168 103.8 317.116C98.8093 308.014 81.5964 321.034 76.0226 325.841Z" fill="white"/>
</g>
<g opacity="0.9">
<path opacity="0.9" d="M381.201 309.244L484.194 309.19C486.477 306.23 479.164 302.55 477.237 300.968C471.9 296.572 466.244 295.571 460.13 298.821C458.536 294.4 451.266 293.757 445.572 295.276C441.129 296.534 437.031 298.796 433.591 301.887C431.018 296.499 418.782 297.37 410.765 301.404C407.196 295.837 385.758 303.353 381.201 309.244Z" fill="white"/>
</g>
<path d="M-233 477H1001V695H-233V477Z" fill="#86949D"/>
<path d="M115.085 522.62C115.085 524.187 117.494 525.463 120.524 525.463H330.428C333.434 525.463 335.866 524.187 335.866 522.62V516.946C335.866 515.375 333.434 514.103 330.428 514.103H120.51C117.504 514.103 115.071 515.375 115.071 516.946L115.085 522.62Z" fill="#6A777F"/>
<path d="M134.799 473.098C134.783 473.396 134.885 473.688 135.082 473.911C135.28 474.134 135.557 474.269 135.854 474.288C136.15 474.269 136.427 474.134 136.623 473.911C136.82 473.688 136.921 473.396 136.904 473.098V444.64C136.921 444.343 136.82 444.05 136.624 443.826C136.427 443.602 136.15 443.466 135.854 443.446C135.556 443.464 135.278 443.601 135.081 443.825C134.883 444.048 134.782 444.342 134.799 444.64V473.098Z" fill="#907669"/>
<path d="M135.854 443.446V474.288C135.557 474.269 135.28 474.134 135.082 473.911C134.885 473.688 134.783 473.396 134.799 473.098V444.64C134.781 444.342 134.883 444.048 135.081 443.825C135.278 443.601 135.556 443.464 135.854 443.446Z" fill="#907669"/>
<path d="M121.83 448.855C121.83 460.946 134.211 464.08 134.211 464.08C134.211 464.08 146.592 460.941 146.592 448.855C146.592 436.768 134.211 420.295 134.211 420.295C134.211 420.295 121.83 436.764 121.83 448.855Z" fill="#BDCA6F"/>
<path d="M124.547 448.855C124.547 460.946 136.923 464.08 136.923 464.08C136.923 464.08 149.29 460.941 149.29 448.855C149.29 436.768 136.904 420.295 136.904 420.295C136.904 420.295 124.547 436.764 124.547 448.855Z" fill="#A1BA38"/>
<g opacity="0.1">
<path opacity="0.1" d="M136.923 420.295C136.923 420.295 109.401 454.634 136.923 464.08C136.923 464.099 124.215 449.426 136.923 420.295Z" fill="white"/>
</g>
<g opacity="0.1">
<path opacity="0.1" d="M136.923 420.295C136.923 420.295 165.105 454.354 136.923 464.08C136.923 464.099 149.473 444.695 136.923 420.295Z" fill="black"/>
</g>
<path d="M136.923 420.295H134.206L135.555 422.172L136.923 420.295Z" fill="#BDCA6F"/>
<path d="M136.923 464.087H134.206L135.555 463.642L136.923 464.087Z" fill="#BDCA6F"/>
<path d="M117.494 472.975C117.485 473.166 117.551 473.353 117.678 473.496C117.805 473.639 117.983 473.726 118.173 473.739C118.364 473.726 118.541 473.639 118.667 473.496C118.794 473.353 118.859 473.165 118.848 472.975V454.673C118.859 454.482 118.794 454.295 118.667 454.152C118.541 454.009 118.364 453.922 118.173 453.909C117.983 453.92 117.804 454.007 117.676 454.15C117.549 454.294 117.484 454.482 117.494 454.673V472.975Z" fill="#907669"/>
<path d="M118.188 453.909V473.739C117.998 473.726 117.82 473.639 117.693 473.496C117.566 473.353 117.5 473.166 117.509 472.975V454.673C117.498 454.482 117.564 454.294 117.691 454.15C117.819 454.007 117.997 453.92 118.188 453.909Z" fill="#907669"/>
<path d="M109.17 457.385C109.17 465.158 117.128 467.179 117.128 467.179C117.128 467.179 125.092 465.158 125.092 457.385C125.092 449.613 117.128 439.007 117.128 439.007C117.128 439.007 109.17 449.594 109.17 457.385Z" fill="#BDCA6F"/>
<path d="M110.918 457.385C110.918 465.158 118.877 467.179 118.877 467.179C118.877 467.179 126.845 465.158 126.845 457.385C126.845 449.613 118.877 439.007 118.877 439.007C118.877 439.007 110.918 449.594 110.918 457.385Z" fill="#A1BA38"/>
<g opacity="0.1">
<path opacity="0.1" d="M118.877 439.017C118.877 439.017 101.177 461.1 118.877 467.175C118.877 467.175 110.707 457.749 118.877 439.017Z" fill="white"/>
</g>
<g opacity="0.1">
<path opacity="0.1" d="M118.877 439.017C118.877 439.017 136.996 460.917 118.877 467.175C118.877 467.175 126.946 454.707 118.877 439.017Z" fill="black"/>
</g>
<path d="M118.877 439.017H117.128L118 440.226L118.877 439.017Z" fill="#BDCA6F"/>
<path d="M118.877 467.179H117.128L118 466.894L118.877 467.179Z" fill="#BDCA6F"/>
<path d="M74.9895 473.098C74.9737 473.396 75.0756 473.688 75.2732 473.911C75.4708 474.134 75.748 474.269 76.0445 474.288C76.3407 474.269 76.6175 474.134 76.8143 473.911C77.0111 473.688 77.1119 473.396 77.0948 473.098V444.64C77.112 444.343 77.0113 444.05 76.8146 443.826C76.6179 443.602 76.3411 443.466 76.0445 443.446C75.7475 443.466 75.4703 443.602 75.2729 443.826C75.0754 444.049 74.9736 444.342 74.9895 444.64V473.098Z" fill="#907669"/>
<path d="M76.0637 443.446V474.288C75.7671 474.269 75.4899 474.134 75.2923 473.911C75.0947 473.688 74.9928 473.396 75.0086 473.098V444.64C74.9927 444.342 75.0945 444.049 75.292 443.826C75.4895 443.602 75.7667 443.466 76.0637 443.446Z" fill="#907669"/>
<path d="M62.0162 448.855C62.0162 460.946 74.402 464.08 74.402 464.08C74.402 464.08 86.783 460.941 86.783 448.855C86.783 436.768 74.402 420.295 74.402 420.295C74.402 420.295 62.0162 436.764 62.0162 448.855Z" fill="#BDCA6F"/>
<path d="M64.7379 448.855C64.7379 460.946 77.1188 464.08 77.1188 464.08C77.1188 464.08 89.5046 460.941 89.5046 448.855C89.5046 436.768 77.1188 420.295 77.1188 420.295C77.1188 420.295 64.7379 436.764 64.7379 448.855Z" fill="#A1BA38"/>
<g opacity="0.1">
<path opacity="0.1" d="M77.1188 420.295C77.1188 420.295 49.5964 454.634 77.1188 464.08C77.1188 464.099 64.4102 449.426 77.1188 420.295Z" fill="white"/>
</g>
<g opacity="0.1">
<path opacity="0.1" d="M77.1189 420.295C77.1189 420.295 105.297 454.354 77.1189 464.08C77.1189 464.099 89.6686 444.695 77.1189 420.295Z" fill="black"/>
</g>
<path d="M77.1188 420.295H74.4017L75.7506 422.172L77.1188 420.295Z" fill="#BDCA6F"/>
<path d="M77.1188 464.087H74.4017L75.7506 463.642L77.1188 464.087Z" fill="#BDCA6F"/>
<path d="M57.6994 472.975C57.6902 473.167 57.7569 473.355 57.885 473.498C58.013 473.641 58.1922 473.728 58.3835 473.739C58.5732 473.726 58.7502 473.639 58.8757 473.496C59.0013 473.352 59.065 473.165 59.0532 472.975V454.673C59.065 454.483 59.0013 454.296 58.8757 454.152C58.7502 454.009 58.5732 453.922 58.3835 453.909C58.2886 453.914 58.1955 453.938 58.1097 453.979C58.0239 454.02 57.947 454.078 57.8835 454.149C57.8199 454.22 57.771 454.303 57.7394 454.393C57.7078 454.483 57.6942 454.578 57.6994 454.673V472.975Z" fill="#907669"/>
<path d="M58.3837 453.909V473.739C58.1924 473.728 58.0131 473.641 57.885 473.498C57.7569 473.355 57.6903 473.167 57.6995 472.975V454.673C57.6943 454.578 57.7079 454.483 57.7395 454.393C57.7711 454.303 57.82 454.22 57.8836 454.149C57.9471 454.078 58.024 454.02 58.1098 453.979C58.1956 453.938 58.2887 453.914 58.3837 453.909Z" fill="#907669"/>
<path d="M49.3605 457.385C49.3605 465.158 57.3238 467.179 57.3238 467.179C57.3238 467.179 65.2871 465.158 65.2871 457.385C65.2871 449.613 57.3238 439.007 57.3238 439.007C57.3238 439.007 49.3605 449.594 49.3605 457.385Z" fill="#BDCA6F"/>
<path d="M51.1092 457.385C51.1092 465.158 59.0677 467.179 59.0677 467.179C59.0677 467.179 67.0359 465.158 67.0359 457.385C67.0359 449.613 59.0677 439.007 59.0677 439.007C59.0677 439.007 51.1092 449.594 51.1092 457.385Z" fill="#A1BA38"/>
<g opacity="0.1">
<path opacity="0.1" d="M59.0675 439.017C59.0675 439.017 41.373 461.1 59.0675 467.175C59.0675 467.175 50.8971 457.749 59.0675 439.017Z" fill="white"/>
</g>
<g opacity="0.1">
<path opacity="0.1" d="M59.0675 439.017C59.0675 439.017 77.1911 460.917 59.0675 467.175C59.0675 467.175 67.1417 454.707 59.0675 439.017Z" fill="black"/>
</g>
<path d="M59.0675 439.017H57.3235L58.1907 440.226L59.0675 439.017Z" fill="#BDCA6F"/>
<path d="M59.0675 467.179H57.3235L58.1907 466.894L59.0675 467.179Z" fill="#BDCA6F"/>
<path d="M676.782 474.134C676.767 474.433 676.87 474.725 677.068 474.947C677.267 475.17 677.545 475.305 677.841 475.324C678.137 475.304 678.413 475.168 678.61 474.946C678.806 474.723 678.908 474.431 678.892 474.134V445.677C678.909 445.379 678.808 445.086 678.611 444.862C678.415 444.639 678.138 444.502 677.841 444.482C677.544 444.501 677.265 444.637 677.067 444.86C676.868 445.084 676.766 445.377 676.782 445.677V474.134Z" fill="#907669"/>
<path d="M677.841 444.482V475.324C677.544 475.305 677.267 475.17 677.068 474.947C676.87 474.725 676.767 474.433 676.781 474.134V445.677C676.766 445.377 676.868 445.084 677.067 444.86C677.265 444.637 677.543 444.501 677.841 444.482Z" fill="#907669"/>
<path d="M663.799 449.886C663.799 461.977 676.18 465.116 676.18 465.116C676.18 465.116 688.561 461.977 688.561 449.886C688.561 437.795 676.18 421.351 676.18 421.351C676.18 421.351 663.799 437.799 663.799 449.886Z" fill="#BDCA6F"/>
<path d="M666.535 449.886C666.535 461.977 678.911 465.116 678.911 465.116C678.911 465.116 691.297 461.977 691.297 449.886C691.297 437.795 678.911 421.351 678.911 421.351C678.911 421.351 666.535 437.799 666.535 449.886Z" fill="#A1BA38"/>
<g opacity="0.1">
<path opacity="0.1" d="M678.911 421.332C678.911 421.332 651.388 455.671 678.911 465.116C678.911 465.116 666.207 450.462 678.911 421.332Z" fill="white"/>
</g>
<g opacity="0.1">
<path opacity="0.1" d="M678.911 421.332C678.911 421.332 707.093 455.385 678.911 465.116C678.911 465.116 691.46 445.722 678.911 421.332Z" fill="black"/>
</g>
<path d="M678.911 421.332H676.194L677.543 423.208L678.911 421.332Z" fill="#BDCA6F"/>
<path d="M678.911 465.112H676.194L677.543 464.662L678.911 465.112Z" fill="#BDCA6F"/>
<path d="M659.496 474.011C659.485 474.202 659.551 474.39 659.678 474.534C659.806 474.677 659.984 474.764 660.175 474.775C660.365 474.762 660.543 474.675 660.669 474.532C660.795 474.389 660.86 474.202 660.85 474.011V455.709C660.86 455.519 660.795 455.331 660.669 455.188C660.543 455.045 660.365 454.958 660.175 454.945C659.984 454.957 659.806 455.043 659.678 455.186C659.551 455.33 659.485 455.518 659.496 455.709V474.011Z" fill="#907669"/>
<path d="M660.176 454.945V474.775C659.985 474.764 659.806 474.677 659.679 474.534C659.552 474.39 659.486 474.202 659.497 474.011V455.709C659.486 455.518 659.552 455.33 659.679 455.186C659.806 455.043 659.985 454.957 660.176 454.945Z" fill="#907669"/>
<path d="M651.157 458.422C651.157 466.194 659.115 468.211 659.115 468.211C659.115 468.211 667.079 466.194 667.079 458.422C667.079 450.649 659.115 440.043 659.115 440.043C659.115 440.043 651.157 450.645 651.157 458.422Z" fill="#BDCA6F"/>
<path d="M652.906 458.422C652.906 466.194 660.865 468.211 660.865 468.211C660.865 468.211 668.833 466.194 668.833 458.422C668.833 450.649 660.865 440.043 660.865 440.043C660.865 440.043 652.906 450.645 652.906 458.422Z" fill="#A1BA38"/>
<g opacity="0.1">
<path opacity="0.1" d="M660.864 440.053C660.864 440.053 643.165 462.132 660.864 468.206C660.864 468.206 652.694 458.78 660.864 440.053Z" fill="white"/>
</g>
<g opacity="0.1">
<path opacity="0.1" d="M660.864 440.053C660.864 440.053 678.983 461.953 660.864 468.206C660.864 468.206 668.934 455.743 660.864 440.053Z" fill="black"/>
</g>
<path d="M660.864 440.053H659.116L659.983 441.262L660.864 440.053Z" fill="#BDCA6F"/>
<path d="M660.864 468.211H659.116L659.983 467.93L660.864 468.211Z" fill="#BDCA6F"/>
<path d="M616.977 474.134C616.963 474.432 617.065 474.723 617.262 474.946C617.46 475.168 617.736 475.304 618.032 475.324C618.328 475.304 618.604 475.168 618.8 474.946C618.997 474.723 619.098 474.431 619.082 474.134V445.677C619.1 445.379 618.999 445.086 618.802 444.862C618.605 444.639 618.329 444.502 618.032 444.482C617.735 444.502 617.458 444.638 617.26 444.862C617.063 445.086 616.961 445.378 616.977 445.677V474.134Z" fill="#907669"/>
<path d="M618.032 444.482V475.324C617.736 475.304 617.46 475.168 617.262 474.946C617.065 474.723 616.963 474.432 616.977 474.134V445.677C616.961 445.378 617.063 445.086 617.261 444.862C617.458 444.638 617.735 444.502 618.032 444.482Z" fill="#907669"/>
<path d="M604.003 449.886C604.003 461.977 616.389 465.116 616.389 465.116C616.389 465.116 628.77 461.977 628.77 449.886C628.77 437.795 616.389 421.351 616.389 421.351C616.389 421.351 604.003 437.799 604.003 449.886Z" fill="#BDCA6F"/>
<path d="M606.726 449.886C606.726 461.977 619.107 465.116 619.107 465.116C619.107 465.116 631.492 461.977 631.492 449.886C631.492 437.795 619.107 421.351 619.107 421.351C619.107 421.351 606.726 437.799 606.726 449.886Z" fill="#A1BA38"/>
<g opacity="0.1">
<path opacity="0.1" d="M619.106 421.332C619.106 421.332 591.584 455.671 619.106 465.116C619.106 465.116 606.398 450.462 619.106 421.332Z" fill="white"/>
</g>
<g opacity="0.1">
<path opacity="0.1" d="M619.106 421.332C619.106 421.332 647.284 455.385 619.106 465.116C619.106 465.116 631.656 445.722 619.106 421.332Z" fill="black"/>
</g>
<path d="M619.102 421.332H616.39L617.734 423.208L619.102 421.332Z" fill="#BDCA6F"/>
<path d="M619.102 465.112H616.39L617.734 464.662L619.102 465.112Z" fill="#BDCA6F"/>
<path d="M599.687 474.011C599.678 474.203 599.745 474.391 599.873 474.534C600.001 474.677 600.18 474.764 600.371 474.775C600.561 474.762 600.738 474.675 600.863 474.532C600.989 474.388 601.053 474.201 601.041 474.011V455.709C601.053 455.519 600.989 455.332 600.863 455.188C600.738 455.045 600.561 454.958 600.371 454.945C600.276 454.95 600.183 454.974 600.097 455.015C600.012 455.056 599.935 455.114 599.871 455.185C599.808 455.256 599.759 455.339 599.727 455.429C599.695 455.519 599.682 455.614 599.687 455.709V474.011Z" fill="#907669"/>
<path d="M600.371 454.945V474.775C600.18 474.764 600.001 474.677 599.873 474.534C599.745 474.391 599.678 474.203 599.687 474.011V455.709C599.682 455.614 599.696 455.519 599.727 455.429C599.759 455.339 599.808 455.256 599.871 455.185C599.935 455.114 600.012 455.056 600.098 455.015C600.183 454.974 600.276 454.95 600.371 454.945Z" fill="#907669"/>
<path d="M591.348 458.422C591.348 466.194 599.311 468.211 599.311 468.211C599.311 468.211 607.27 466.194 607.27 458.422C607.27 450.649 599.311 440.043 599.311 440.043C599.311 440.043 591.348 450.645 591.348 458.422Z" fill="#BDCA6F"/>
<path d="M593.097 458.422C593.097 466.194 601.055 468.211 601.055 468.211C601.055 468.211 609.023 466.194 609.023 458.422C609.023 450.649 601.055 440.043 601.055 440.043C601.055 440.043 593.097 450.645 593.097 458.422Z" fill="#A1BA38"/>
<g opacity="0.1">
<path opacity="0.1" d="M601.055 440.053C601.055 440.053 583.36 462.132 601.055 468.206C601.055 468.206 592.885 458.78 601.055 440.053Z" fill="white"/>
</g>
<g opacity="0.1">
<path opacity="0.1" d="M601.055 440.053C601.055 440.053 619.179 461.953 601.055 468.206C601.055 468.206 609.129 455.743 601.055 440.053Z" fill="black"/>
</g>
<path d="M601.055 440.053H599.311L600.178 441.262L601.055 440.053Z" fill="#BDCA6F"/>
<path d="M601.055 468.211H599.311L600.178 467.93L601.055 468.211Z" fill="#BDCA6F"/>
<path d="M163.111 383.757H210.332V475.336H163.111V383.757Z" fill="#0E738E"/>
<g opacity="0.2">
<path opacity="0.2" d="M347.616 444.163L309.163 472.766H259.48L304.413 443.81L347.616 444.163Z" fill="white"/>
</g>
<path d="M270.011 383.158H463.728V473.479H270.011V383.158Z" fill="#5FAFB7"/>
<path d="M269.901 444.566H463.472V446.438H269.901V444.566Z" fill="#90D0D3"/>
<g opacity="0.8">
<path opacity="0.8" d="M269.871 460.595H298.097V455.763H317.56V461.668H338V454.152H367.199V459.25H380.5V456.034H399.963V461.934H420.399V454.418H449.598V459.521H463.544V474.011L269.871 473.208V460.595Z" fill="#5CAEB7"/>
</g>
<g opacity="0.8">
<path opacity="0.8" d="M270.18 421.715H298.362V418.107H317.791V422.522H338.198V416.902H367.349V420.713H380.631V418.31H400.064V422.721H420.471V417.101H449.617V420.912H463.544V431.741L270.18 431.141V421.715Z" fill="#5CAEB7"/>
</g>
<path d="M452.007 383.027H453.264V473.958H452.007V383.027Z" fill="#90D0D3"/>
<path d="M436.933 383.027H438.19V473.958H436.933V383.027Z" fill="#90D0D3"/>
<path d="M420.602 383.027H421.859V473.958H420.602V383.027Z" fill="#90D0D3"/>
<path d="M405.528 383.027H406.785V473.958H405.528V383.027Z" fill="#90D0D3"/>
<path d="M389.191 383.027H390.454V473.958H389.191V383.027Z" fill="#90D0D3"/>
<path d="M374.122 383.027H375.375V473.958H374.122V383.027Z" fill="#90D0D3"/>
<path d="M357.791 383.027H359.048V473.958H357.791V383.027Z" fill="#90D0D3"/>
<path d="M342.712 383.027H343.974V473.958H342.712V383.027Z" fill="#90D0D3"/>
<path d="M326.391 383.027H327.643V473.958H326.391V383.027Z" fill="#90D0D3"/>
<path d="M311.312 383.027H312.569V473.958H311.312V383.027Z" fill="#90D0D3"/>
<path d="M294.98 383.027H296.243V473.958H294.98V383.027Z" fill="#90D0D3"/>
<path d="M279.906 383.027H281.164V473.958H279.906V383.027Z" fill="#90D0D3"/>
<path d="M270.007 431.504H463.472V433.032H270.007V431.504Z" fill="#90D0D3"/>
<path d="M270.007 414.857H463.472V416.385H270.007V414.857Z" fill="#90D0D3"/>
<path d="M270.007 398.712H463.472V400.241H270.007V398.712Z" fill="#90D0D3"/>
<path d="M269.901 458.663H463.472V460.534H269.901V458.663Z" fill="#90D0D3"/>
<g opacity="0.2">
<path opacity="0.2" d="M456.834 383.374L368.014 473.482H307.911L399.409 383.717L456.834 383.374Z" fill="white"/>
</g>
<g opacity="0.1">
<path opacity="0.1" d="M371.766 383.495L269.804 473.71V442.389L332.865 383.495H371.766Z" fill="white"/>
</g>
<g opacity="0.1">
<path opacity="0.1" d="M320.431 383.495L269.804 434.133V416.552L301.113 383.495H320.431Z" fill="white"/>
</g>
<path d="M270.007 371.18H460.63V383.16H270.007V371.18Z" fill="#C8CBCC"/>
<g opacity="0.2">
<path opacity="0.2" d="M365.036 444.163L326.583 472.766H276.9L321.828 443.81L365.036 444.163Z" fill="white"/>
</g>
<path d="M287.427 383.158H481.143V473.479H287.427V383.158Z" fill="#81D0DE"/>
<path d="M287.326 444.566H480.893V446.438H287.326V444.566Z" fill="#AEE7ED"/>
<g opacity="0.8">
<path opacity="0.8" d="M287.292 460.595H315.518V455.763H334.98V461.668H355.421V454.152H384.615V459.25H397.916V456.034H417.384V461.934H437.819V454.418H467.013V459.521H480.965V474.011L287.292 473.208V460.595Z" fill="#5CAEB7"/>
</g>
<g opacity="0.8">
<path opacity="0.8" d="M287.292 421.715H315.518V418.107H334.98V422.522H355.421V416.902H384.615V420.713H397.916V418.31H417.384V422.721H437.819V417.101H467.013V420.912H480.965V431.741L287.292 431.141V421.715Z" fill="#5CAEB7"/>
</g>
<path d="M469.422 383.027H470.679V473.958H469.422V383.027Z" fill="#AEE7ED"/>
<path d="M454.353 383.027H455.606V473.958H454.353V383.027Z" fill="#AEE7ED"/>
<path d="M438.022 383.027H439.279V473.958H438.022V383.027Z" fill="#AEE7ED"/>
<path d="M422.948 383.027H424.205V473.958H422.948V383.027Z" fill="#AEE7ED"/>
<path d="M406.611 383.027H407.869V473.958H406.611V383.027Z" fill="#AEE7ED"/>
<path d="M391.543 383.027H392.795V473.958H391.543V383.027Z" fill="#AEE7ED"/>
<path d="M375.211 383.027H376.468V473.958H375.211V383.027Z" fill="#AEE7ED"/>
<path d="M360.132 383.027H361.395V473.958H360.132V383.027Z" fill="#AEE7ED"/>
<path d="M343.806 383.027H345.063V473.958H343.806V383.027Z" fill="#AEE7ED"/>
<path d="M328.732 383.027H329.989V473.958H328.732V383.027Z" fill="#AEE7ED"/>
<path d="M312.396 383.027H313.658V473.958H312.396V383.027Z" fill="#AEE7ED"/>
<path d="M297.327 383.027H298.584V473.958H297.327V383.027Z" fill="#AEE7ED"/>
<path d="M287.427 431.504H480.893V433.032H287.427V431.504Z" fill="#AEE7ED"/>
<path d="M287.427 414.857H480.893V416.385H287.427V414.857Z" fill="#AEE7ED"/>
<path d="M287.427 398.712H480.893V400.241H287.427V398.712Z" fill="#AEE7ED"/>
<path d="M287.326 458.663H480.893V460.534H287.326V458.663Z" fill="#AEE7ED"/>
<g opacity="0.2">
<path opacity="0.2" d="M474.254 383.374L385.434 473.482H325.326L416.829 383.717L474.254 383.374Z" fill="white"/>
</g>
<g opacity="0.2">
<path opacity="0.2" d="M389.644 383.269L287.427 473.484V442.163L350.647 383.269H389.644Z" fill="white"/>
</g>
<path d="M287.427 371.18H478.05V383.16H287.427V371.18Z" fill="#EAEAEA"/>
<g opacity="0.2">
<path opacity="0.2" d="M287.441 383.298H477.669V388.362H287.441V383.298Z" fill="black"/>
</g>
<path d="M583.713 431.618H587.682V474.566H583.713V431.618Z" fill="#EAEAEA"/>
<path d="M583.51 431.618H585.745V474.566H583.51V431.618Z" fill="#CECECE"/>
<path d="M477.766 353.514H528.128V473.802H477.766V353.514Z" fill="#0E738E"/>
<path d="M473.474 315.417H534.097L539.825 267.256H467.746L473.474 315.417Z" fill="#C5EDEF"/>
<path d="M473.473 315.417H501.516L500.798 267.256H467.745L473.473 315.417Z" fill="#95DBDB"/>
<path d="M525.502 315.417L531.351 267.256H477.173L481.827 315.417H525.502Z" fill="#AEE7ED"/>
<path d="M485.527 257.186H521.802V262.22H485.527V257.186Z" fill="#E6E8E8"/>
<path d="M485.527 257.186H515.598V262.22H485.527V257.186Z" fill="#B2B2B2"/>
<path d="M492.209 257.186H515.598V262.22H492.209V257.186Z" fill="#D4D6D6"/>
<path d="M496.024 228.194H512.018V257.189H496.024V228.194Z" fill="#D1D3D3"/>
<path d="M496.024 228.194H508.198V257.189H496.024V228.194Z" fill="#8D8E8E"/>
<path d="M500.558 228.194H508.198V257.189H500.558V228.194Z" fill="#B2B2B2"/>
<path d="M491.255 224.84H516.316V229.333H491.255V224.84Z" fill="#8D8E8E"/>
<path d="M468.531 274.206H539.16L539.098 274.742H468.593L468.531 274.206Z" fill="#83C4C2"/>
<path d="M469.557 282.821H538.134L538.067 283.363H469.624L469.557 282.821Z" fill="#83C4C2"/>
<path d="M470.583 291.452H537.108L537.04 291.989H470.651L470.583 291.452Z" fill="#83C4C2"/>
<path d="M471.609 300.076H536.082L536.019 300.618H471.672L471.609 300.076Z" fill="#83C4C2"/>
<path d="M472.635 308.708H535.056L534.993 309.244H472.703L472.635 308.708Z" fill="#83C4C2"/>
<path d="M521.548 266.839L522.084 266.9L516.269 318.145L515.732 318.084L521.548 266.839Z" fill="#83C4C2"/>
<path d="M486.846 266.31L492.413 317.583L491.876 317.641L486.31 266.369L486.846 266.31Z" fill="#83C4C2"/>
<path d="M476.687 266.863L482.511 318.106L481.975 318.168L476.151 266.924L476.687 266.863Z" fill="#83C4C2"/>
<path d="M525.334 318.826L525.868 318.884L531.461 267.613L530.922 267.555L525.334 318.826Z" fill="#83C4C2"/>
<path d="M504.498 265.994H505.216V317.933H504.498V265.994Z" fill="#83C4C2"/>
<path d="M462.971 262.221H545.312V267.971H462.971V262.221Z" fill="#2EABBF"/>
<path d="M462.971 262.221H531.351V267.971H462.971V262.221Z" fill="#16707F"/>
<path d="M477.11 262.221H531.351V267.971H477.11V262.221Z" fill="#1C8BA5"/>
<path d="M473.474 315.415H534.218V323.323H473.474V315.415Z" fill="#62B9D3"/>
<path d="M473.474 315.415H525.503V323.323H473.474V315.415Z" fill="#2D819B"/>
<path d="M481.827 315.415H525.503V323.323H481.827V315.415Z" fill="#479DBE"/>
<g opacity="0.2">
<path opacity="0.2" d="M531.351 267.969L481.827 315.415L479.799 295.406L509.392 267.853L531.351 267.969Z" fill="white"/>
</g>
<g opacity="0.2">
<path opacity="0.2" d="M529.564 283.063L496.145 315.289L512.736 315.531L527.651 300.073L529.564 283.063Z" fill="white"/>
</g>
<path d="M491.144 353.514H529.8V473.802H491.144V353.514Z" fill="#2EA8BC"/>
<path d="M490.639 353.514H516.663V473.802H490.639V353.514Z" fill="#1C8BA5"/>
<path d="M464.759 322.964H543.525V365.351H464.759V322.964Z" fill="#D4D6D6"/>
<path d="M525.623 322.964H543.525V365.25H525.623V322.964Z" fill="#E6E8E8"/>
<path d="M464.046 322.964H481.943V365.351H464.046V322.964Z" fill="#C1C1C1"/>
<path d="M465.443 418.427H575.455V473.882H465.443V418.427Z" fill="#19A8C6"/>
<path d="M449.477 418.427H465.9V473.896H449.477V418.427Z" fill="#1B8F9E"/>
<path d="M444.786 445.649H463.121V447.603H444.786V445.649Z" fill="#D4D6D6"/>
<path d="M435.613 445.649H453.948V447.603H435.613V445.649Z" fill="#9E9E9E"/>
<path d="M449.463 447.612H463.034V470.89H449.463V447.612Z" fill="#13858E"/>
<g opacity="0.2">
<path opacity="0.2" d="M451.125 447.612H463.034V470.89H451.125V447.612Z" fill="black"/>
</g>
<path d="M454.237 468.838H463.077V471.488H454.237V468.838Z" fill="#393F42"/>
<path d="M447.016 468.838H454.256V471.488H447.016V468.838Z" fill="#1A2428"/>
<path d="M450.378 471.435H463.077V473.936H450.378V471.435Z" fill="#393F42"/>
<path d="M443.041 471.435H451.236V473.936H443.041V471.435Z" fill="#1A2428"/>
<path d="M465.751 417.817H587.682V432.545H465.751V417.817Z" fill="#EAEAEA"/>
<path d="M465.751 427.937H587.682V432.536H465.751V427.937Z" fill="#CECECE"/>
<path d="M448.562 417.817H465.751V432.545H448.562V417.817Z" fill="#CECECE"/>
<path d="M448.562 427.937H465.751V432.536H448.562V427.937Z" fill="#B5B5B5"/>
<g opacity="0.2">
<path opacity="0.2" d="M449.405 432.382H575.46V436.527H449.405V432.382Z" fill="black"/>
</g>
<path d="M495.027 445.78H551.565V473.788H495.027V445.78Z" fill="#34C3D6"/>
<path d="M539.777 445.78H540.683V473.643H539.777V445.78Z" fill="#19A8C6"/>
<path d="M523.45 445.78H524.356V473.643H523.45V445.78Z" fill="#19A8C6"/>
<path d="M506.218 445.78H507.124V473.643H506.218V445.78Z" fill="#19A8C6"/>
<path d="M492.628 440.951H557.293V446.518H492.628V440.951Z" fill="#EAEAEA"/>
<path d="M488.196 440.951H497.802V446.518H488.196V440.951Z" fill="#CECECE"/>
<g opacity="0.2">
<path opacity="0.2" d="M494.936 446.612H551.565V449.577H494.936V446.612Z" fill="black"/>
</g>
<g opacity="0.1">
<path opacity="0.1" d="M551.565 473.783L494.941 446.612L519.235 446.331L551.565 459.873V473.783Z" fill="white"/>
</g>
<g opacity="0.2">
<path opacity="0.2" d="M538.452 473.786L495.032 455.702V465.53L512.953 473.878L538.452 473.786Z" fill="white"/>
</g>
<path d="M277.815 404.776H284.083V448.953H277.815V404.776Z" fill="#1C8BA5"/>
<path d="M271.938 404.776H277.821V448.958H271.938V404.776Z" fill="#157382"/>
<path d="M212.177 408.307H275.065V444.818H212.177V408.307Z" fill="#EAEAEA"/>
<path d="M174.081 383.757H215.511V475.336H174.081V383.757Z" fill="#1C8BA5"/>
<path d="M174.075 383.298H219.577V388.362H174.075V383.298Z" fill="#19A8C6"/>
<path d="M160.052 383.298H174.052V388.362H160.052V383.298Z" fill="#1B8F9E"/>
<path d="M269.886 408.373H270.628V444.729H269.886V408.373Z" fill="#C8CBCC"/>
<path d="M263.965 408.373H264.707V444.729H263.965V408.373Z" fill="#C8CBCC"/>
<path d="M257.308 408.373H258.05V444.729H257.308V408.373Z" fill="#C8CBCC"/>
<path d="M250.65 408.373H251.392V444.729H250.65V408.373Z" fill="#C8CBCC"/>
<path d="M244.729 408.373H245.471V444.729H244.729V408.373Z" fill="#C8CBCC"/>
<path d="M238.071 408.373H238.813V444.729H238.071V408.373Z" fill="#C8CBCC"/>
<path d="M230.677 408.373H231.414V444.729H230.677V408.373Z" fill="#C8CBCC"/>
<path d="M224.756 408.373H225.498V444.729H224.756V408.373Z" fill="#C8CBCC"/>
<path d="M218.103 408.373H218.84V444.729H218.103V408.373Z" fill="#C8CBCC"/>
<path d="M215.602 441.624H275.065V444.729H215.602V441.624Z" fill="#C8CBCC"/>
<path d="M215.602 408.373H275.065V410.167H215.602V408.373Z" fill="#C8CBCC"/>
<g opacity="0.1">
<path opacity="0.1" d="M215.511 408.373L215.602 444.729H241.776L215.511 408.373Z" fill="black"/>
</g>
<path d="M174.061 399.49H210.014V409.835H174.061V399.49Z" fill="#81D0DE"/>
<g opacity="0.2">
<path opacity="0.2" d="M192.223 409.841H207.639L210.034 399.404H194.618L192.223 409.841Z" fill="white"/>
</g>
<g opacity="0.2">
<path opacity="0.2" d="M210.034 399.404L189.203 409.75L174.167 409.841L190.894 399.491L210.034 399.404Z" fill="white"/>
</g>
<g opacity="0.2">
<path opacity="0.2" d="M183.59 399.489L174.095 405.075L174.11 399.494L183.59 399.489Z" fill="white"/>
</g>
<g opacity="0.1">
<path opacity="0.1" d="M174.076 409.841H210.014V412.366H174.076V409.841Z" fill="black"/>
</g>
<path d="M164.325 399.49H174.085V409.835H164.325V399.49Z" fill="#61B3BC"/>
<g opacity="0.1">
<path opacity="0.1" d="M164.315 409.841H174.085V412.366H164.315V409.841Z" fill="black"/>
</g>
<path d="M164.325 416.978H174.085V427.323H164.325V416.978Z" fill="#61B3BC"/>
<g opacity="0.1">
<path opacity="0.1" d="M164.315 427.321H174.085V429.846H164.315V427.321Z" fill="black"/>
</g>
<path d="M164.325 434.467H174.085V444.812H164.325V434.467Z" fill="#61B3BC"/>
<g opacity="0.1">
<path opacity="0.1" d="M164.315 444.81H174.085V447.334H164.315V444.81Z" fill="black"/>
</g>
<path d="M174.061 416.978H210.014V427.323H174.061V416.978Z" fill="#81D0DE"/>
<g opacity="0.2">
<path opacity="0.2" d="M192.223 427.325H207.639L210.034 416.893H194.618L192.223 427.325Z" fill="white"/>
</g>
<g opacity="0.2">
<path opacity="0.2" d="M210.034 416.893L189.203 427.234L174.167 427.325L190.894 416.98L210.034 416.893Z" fill="white"/>
</g>
<g opacity="0.2">
<path opacity="0.2" d="M183.59 416.978L174.225 422.429L174.11 416.978H183.59Z" fill="white"/>
</g>
<g opacity="0.1">
<path opacity="0.1" d="M174.138 427.321H210.014V429.846H174.138V427.321Z" fill="black"/>
</g>
<path d="M174.061 434.467H210.014V444.812H174.061V434.467Z" fill="#81D0DE"/>
<g opacity="0.2">
<path opacity="0.2" d="M192.223 444.818H207.639L210.034 434.381H194.618L192.223 444.818Z" fill="white"/>
</g>
<g opacity="0.2">
<path opacity="0.2" d="M210.034 434.381L189.203 444.727L174.167 444.818L190.894 434.473L210.034 434.381Z" fill="white"/>
</g>
<g opacity="0.2">
<path opacity="0.2" d="M183.59 434.467L174.225 439.918L174.11 434.467H183.59Z" fill="white"/>
</g>
<g opacity="0.1">
<path opacity="0.1" d="M174.138 444.81H210.014V447.334H174.138V444.81Z" fill="black"/>
</g>
<path d="M180.777 459.309H208.699V473.141H180.777V459.309Z" fill="#34C3D6"/>
<path d="M202.875 459.309H203.318V473.068H202.875V459.309Z" fill="#19A8C6"/>
<path d="M194.81 459.309H195.258V473.068H194.81V459.309Z" fill="#19A8C6"/>
<path d="M186.302 459.309H186.75V473.068H186.302V459.309Z" fill="#19A8C6"/>
<path d="M179.587 456.926H211.527V459.673H179.587V456.926Z" fill="#EAEAEA"/>
<path d="M177.4 456.926H182.145V459.673H177.4V456.926Z" fill="#CECECE"/>
<g opacity="0.2">
<path opacity="0.2" d="M180.728 459.728H208.699V461.193H180.728V459.728Z" fill="black"/>
</g>
<g opacity="0.1">
<path opacity="0.1" d="M208.699 473.144L180.728 459.728L192.729 459.587L208.699 466.276V473.144Z" fill="white"/>
</g>
<g opacity="0.2">
<path opacity="0.2" d="M202.219 473.145L180.772 464.212V469.068L189.626 473.189L202.219 473.145Z" fill="white"/>
</g>
<path d="M27.4071 472.565H701.857V478.853H27.4071V472.565Z" fill="#546470"/>
<path d="M58.1909 491.811L98.4073 500.464L190.59 501.818L201.767 495.956L188.307 491.811H58.1909Z" fill="#19A8C6"/>
<path d="M201.767 495.956L58.1909 491.811L98.4073 500.464L190.59 501.818L201.767 495.956Z" fill="#128B9B"/>
<path d="M80.3995 496.341L144.116 497.517L138.701 501.047L97.5209 500.752L80.3995 496.341Z" fill="#0C7077"/>
<path d="M177.14 501.789L177.74 502.013L173.313 513.983L172.713 513.759L177.14 501.789Z" fill="#4D4D4D"/>
<path d="M177.132 501.751L177.434 501.863L173.01 513.834L172.707 513.721L177.132 501.751Z" fill="#646464"/>
<path d="M169.704 507.435L176.625 518.147L175.502 518.879L168.58 508.167L169.704 507.435Z" fill="#4D4D4D"/>
<path d="M176.075 518.484L175.511 518.851L168.593 508.134L169.162 507.766L176.075 518.484Z" fill="#646464"/>
<path d="M176.142 515.641C176.716 516.024 177.163 516.568 177.427 517.206C177.692 517.844 177.762 518.547 177.629 519.225C177.496 519.902 177.165 520.526 176.679 521.015C176.193 521.504 175.574 521.838 174.899 521.973C174.224 522.109 173.524 522.04 172.888 521.776C172.252 521.512 171.708 521.065 171.325 520.49C170.943 519.916 170.739 519.24 170.738 518.549C170.738 517.858 170.943 517.183 171.325 516.608C171.578 516.227 171.903 515.9 172.282 515.645C172.661 515.39 173.087 515.213 173.534 515.123C173.981 515.033 174.442 515.033 174.89 515.122C175.337 515.21 175.763 515.387 176.142 515.641Z" fill="#646464"/>
<path d="M177.024 515.64C177.597 516.022 178.044 516.567 178.309 517.205C178.574 517.843 178.644 518.545 178.511 519.223C178.378 519.901 178.047 520.524 177.561 521.013C177.075 521.503 176.455 521.836 175.78 521.972C175.105 522.107 174.406 522.039 173.769 521.775C173.133 521.511 172.589 521.063 172.207 520.489C171.824 519.914 171.62 519.239 171.62 518.548C171.62 517.857 171.824 517.182 172.206 516.607C172.718 515.838 173.513 515.305 174.416 515.123C175.319 514.942 176.257 515.128 177.024 515.64Z" fill="#393838"/>
<path d="M175.911 517.303C176.177 517.48 176.384 517.731 176.507 518.026C176.63 518.32 176.663 518.645 176.602 518.959C176.541 519.272 176.389 519.561 176.165 519.787C175.94 520.014 175.654 520.169 175.342 520.233C175.031 520.296 174.707 520.265 174.412 520.144C174.118 520.023 173.866 519.817 173.688 519.552C173.51 519.288 173.414 518.976 173.413 518.656C173.412 518.337 173.505 518.024 173.681 517.758C173.797 517.581 173.948 517.429 174.123 517.31C174.298 517.191 174.495 517.109 174.702 517.066C174.909 517.024 175.123 517.023 175.33 517.064C175.538 517.105 175.735 517.186 175.911 517.303Z" fill="#D1D1D1"/>
<path d="M175.396 518.06C175.503 518.137 175.585 518.244 175.632 518.367C175.679 518.49 175.689 518.625 175.661 518.754C175.633 518.883 175.568 519.001 175.474 519.094C175.38 519.186 175.261 519.249 175.132 519.274C175.002 519.3 174.868 519.286 174.747 519.236C174.625 519.186 174.52 519.101 174.446 518.992C174.371 518.883 174.331 518.754 174.328 518.622C174.326 518.49 174.362 518.36 174.432 518.248C174.481 518.17 174.546 518.103 174.622 518.051C174.697 517.999 174.783 517.963 174.873 517.945C174.964 517.927 175.056 517.929 175.146 517.948C175.236 517.968 175.321 518.006 175.396 518.06Z" fill="#393838"/>
<path d="M272.596 500.74L273.198 500.965L268.747 512.967L268.145 512.742L272.596 500.74Z" fill="#4D4D4D"/>
<path d="M270.233 513.019L269.924 512.908L274.361 500.938L274.66 501.054L270.233 513.019Z" fill="#646464"/>
<path d="M266.938 506.618L273.854 517.334L272.73 518.065L265.814 507.349L266.938 506.618Z" fill="#4D4D4D"/>
<path d="M267.924 504.992L274.792 515.717L274.221 516.086L267.353 505.36L267.924 504.992Z" fill="#646464"/>
<path d="M273.374 514.836C273.947 515.219 274.394 515.763 274.659 516.401C274.924 517.039 274.994 517.742 274.861 518.42C274.727 519.098 274.397 519.721 273.911 520.21C273.425 520.699 272.805 521.033 272.13 521.168C271.455 521.304 270.755 521.235 270.119 520.971C269.483 520.707 268.939 520.26 268.557 519.685C268.174 519.111 267.97 518.435 267.97 517.744C267.97 517.053 268.174 516.378 268.556 515.803C269.068 515.035 269.863 514.501 270.766 514.32C271.669 514.138 272.607 514.324 273.374 514.836Z" fill="#646464"/>
<path d="M274.251 514.836C274.824 515.219 275.271 515.763 275.536 516.401C275.8 517.039 275.871 517.742 275.737 518.42C275.604 519.098 275.274 519.721 274.788 520.21C274.302 520.699 273.682 521.033 273.007 521.168C272.332 521.304 271.632 521.235 270.996 520.971C270.36 520.707 269.816 520.26 269.434 519.685C269.051 519.111 268.847 518.435 268.847 517.744C268.847 517.053 269.051 516.378 269.433 515.803C269.945 515.035 270.74 514.501 271.643 514.32C272.546 514.138 273.484 514.324 274.251 514.836Z" fill="#393838"/>
<path d="M273.138 516.475C273.403 516.652 273.61 516.904 273.732 517.199C273.854 517.494 273.887 517.818 273.826 518.132C273.764 518.445 273.611 518.734 273.387 518.96C273.162 519.186 272.876 519.341 272.564 519.404C272.252 519.467 271.928 519.435 271.634 519.313C271.34 519.192 271.088 518.985 270.911 518.72C270.733 518.454 270.638 518.142 270.638 517.823C270.637 517.503 270.731 517.191 270.907 516.925C271.144 516.568 271.512 516.321 271.93 516.236C272.348 516.152 272.783 516.238 273.138 516.475Z" fill="#D1D1D1"/>
<path d="M272.618 517.259C272.729 517.333 272.815 517.438 272.867 517.562C272.918 517.686 272.932 517.822 272.906 517.953C272.88 518.085 272.816 518.206 272.722 518.301C272.628 518.395 272.508 518.46 272.377 518.487C272.246 518.513 272.111 518.5 271.987 518.449C271.864 518.398 271.758 518.311 271.684 518.2C271.61 518.089 271.57 517.958 271.57 517.824C271.569 517.69 271.609 517.559 271.683 517.447C271.783 517.299 271.937 517.196 272.112 517.161C272.287 517.126 272.468 517.161 272.618 517.259Z" fill="#393838"/>
<path d="M287.988 500.761L288.588 500.985L284.153 512.952L283.553 512.728L287.988 500.761Z" fill="#4D4D4D"/>
<path d="M287.996 500.798L288.298 500.911L283.873 512.882L283.571 512.769L287.996 500.798Z" fill="#646464"/>
<path d="M280.57 506.493L287.482 517.211L286.358 517.942L279.446 507.224L280.57 506.493Z" fill="#4D4D4D"/>
<path d="M280.035 506.796L286.936 517.521L286.365 517.891L279.465 507.166L280.035 506.796Z" fill="#646464"/>
<path d="M287.007 514.684C287.582 515.067 288.031 515.612 288.297 516.251C288.563 516.89 288.634 517.594 288.501 518.273C288.368 518.952 288.037 519.577 287.55 520.067C287.063 520.558 286.442 520.892 285.766 521.028C285.09 521.164 284.389 521.095 283.751 520.83C283.114 520.565 282.569 520.117 282.186 519.541C281.803 518.965 281.599 518.288 281.6 517.596C281.601 516.903 281.806 516.227 282.19 515.652C282.703 514.884 283.497 514.351 284.4 514.17C285.303 513.989 286.24 514.174 287.007 514.684Z" fill="#646464"/>
<path d="M287.884 514.684C288.459 515.067 288.908 515.612 289.173 516.251C289.439 516.89 289.51 517.594 289.377 518.273C289.244 518.952 288.913 519.577 288.427 520.067C287.94 520.558 287.319 520.892 286.643 521.028C285.966 521.164 285.265 521.095 284.628 520.83C283.991 520.565 283.446 520.117 283.063 519.541C282.68 518.965 282.476 518.288 282.477 517.596C282.477 516.903 282.683 516.227 283.067 515.652C283.579 514.884 284.374 514.351 285.277 514.17C286.179 513.989 287.117 514.174 287.884 514.684Z" fill="#393838"/>
<path d="M286.772 516.333C287.037 516.509 287.244 516.761 287.367 517.056C287.49 517.35 287.523 517.675 287.462 517.988C287.401 518.302 287.249 518.59 287.025 518.817C286.801 519.044 286.515 519.199 286.203 519.262C285.891 519.326 285.567 519.295 285.273 519.174C284.978 519.053 284.726 518.847 284.549 518.582C284.371 518.317 284.275 518.005 284.274 517.686C284.272 517.367 284.366 517.054 284.541 516.787C284.658 516.611 284.808 516.458 284.983 516.34C285.159 516.221 285.355 516.138 285.563 516.096C285.77 516.054 285.983 516.053 286.191 516.094C286.398 516.134 286.595 516.216 286.772 516.333Z" fill="#D1D1D1"/>
<path d="M286.256 517.101C286.368 517.175 286.456 517.281 286.509 517.405C286.561 517.53 286.575 517.667 286.55 517.799C286.525 517.932 286.461 518.054 286.366 518.15C286.272 518.246 286.151 518.312 286.019 518.339C285.888 518.366 285.751 518.353 285.626 518.302C285.502 518.251 285.395 518.164 285.32 518.053C285.245 517.941 285.204 517.809 285.204 517.674C285.203 517.539 285.242 517.407 285.317 517.294C285.416 517.144 285.57 517.039 285.746 517.003C285.922 516.966 286.106 517.002 286.256 517.101Z" fill="#393838"/>
<path d="M142.17 502.088C142.17 502.088 161.998 502.925 163.535 508.535C163.535 508.535 164.094 516.104 142.17 516.104V502.088Z" fill="#19A8C6"/>
<path d="M146.081 509.077C146.081 512.946 144.328 516.085 142.169 516.085C140.011 516.085 138.262 512.946 138.262 509.077C138.262 505.208 140.011 502.069 142.169 502.069C144.328 502.069 146.081 505.208 146.081 509.077Z" fill="#0F777F"/>
<path d="M145.653 509.019C145.653 512.462 144.092 515.258 142.17 515.258C140.247 515.258 138.691 512.462 138.691 509.019C138.691 505.575 140.252 502.78 142.17 502.78C144.087 502.78 145.653 505.575 145.653 509.019Z" fill="#B5E7EA"/>
<path d="M144.193 509.029C144.193 511.607 143.186 513.696 141.943 513.696C140.7 513.696 139.698 511.607 139.698 509.029C139.698 506.451 140.7 504.367 141.943 504.367C143.186 504.367 144.193 506.456 144.193 509.029Z" fill="#8CD0D3"/>
<path opacity="0.1" d="M145.344 505.101C145.344 505.101 158.183 506.397 163.535 508.535C163.535 508.535 162.89 503.292 142.647 502.088C142.647 502.088 144.598 502.543 145.344 505.101Z" fill="black"/>
<path opacity="0.1" d="M145.797 511.798C145.797 511.798 158.934 513.699 163.535 508.533C163.535 508.533 164.161 515.933 142.574 516.083C142.574 516.083 144.954 515.483 145.797 511.798Z" fill="black"/>
<path opacity="0.3" d="M150.316 502.957C150.316 502.957 155.076 507.373 150.971 515.614C150.971 515.614 163.285 514.289 163.535 508.533C163.535 508.533 163.14 504.65 150.316 502.957Z" fill="#E8FCFB"/>
<path d="M272.767 479.266L311.572 437.735L322.893 439.975L310.474 490.675L272.767 479.266Z" fill="#E8FCFB"/>
<path d="M282.074 481.107L316.731 438.754L326.472 440.679L314.385 491.443L282.074 481.107Z" fill="#D1F2F2"/>
<path d="M322.893 439.971L307.448 477.424L317.169 478.842L326.472 440.677L322.893 439.971Z" fill="#AFE8E8"/>
<path d="M146.245 477.441C146.245 477.441 134.49 477.001 125.212 479.681C125.212 479.681 106.27 489.494 105.826 498.475C105.826 498.475 112.841 510.257 147.074 510.538L146.245 477.441Z" fill="#D1F2F2"/>
<path d="M310.502 477.442C310.502 477.442 344.162 481.65 344.861 498.476C344.861 498.476 338.902 510.258 309.799 510.538L310.502 477.442Z" fill="#E8FCFB"/>
<path d="M146.245 477.442H311.24V510.538H146.245V477.442Z" fill="#D1F2F2"/>
<path d="M169.109 477.44C169.109 477.44 158.645 476.144 150.99 479.679C145.291 482.31 134.664 489.492 134.288 498.474C134.288 498.474 140.329 510.255 169.822 510.536L169.109 477.44Z" fill="#E8FCFB"/>
<path d="M169.104 477.442H311.24V510.538H169.104V477.442Z" fill="#E8FCFB"/>
<path d="M146.761 510.53V498.613H106.535C107.44 499.924 115.5 510.085 146.761 510.53Z" fill="#A6A6A6"/>
<path d="M344.779 498.613H311.331V510.482C337.263 509.868 344.027 499.89 344.779 498.613Z" fill="#A6A6A6"/>
<path d="M146.761 510.535H311.331V510.482V498.613H146.761V510.521V510.535Z" fill="#A6A6A6"/>
<path d="M146.067 510.534V498.443H105.701C106.611 499.744 114.69 510.084 146.067 510.534Z" fill="#AFE8E8"/>
<path d="M344.779 498.407H311.21V510.498C337.239 509.855 344.022 499.723 344.779 498.407Z" fill="#AFE8E8"/>
<path d="M146.067 510.532H311.21V510.479V498.407H146.067V510.518V510.532Z" fill="#AFE8E8"/>
<path d="M124.239 480.059L149.159 480.543C149.159 480.543 139.756 485.461 135.993 492.856L108.403 492.455C108.403 492.455 114.7 484.306 124.239 480.059Z" fill="#46D2E0"/>
<g opacity="0.3">
<path opacity="0.3" d="M119.753 482.458L120.818 492.557L128.911 492.726L127.278 480.098L124.219 480.059L119.753 482.458Z" fill="white"/>
</g>
<g opacity="0.3">
<path opacity="0.3" d="M130.487 480.262L132.231 492.735L135.974 492.852L133.936 480.262H130.487Z" fill="white"/>
</g>
<path d="M149.603 488.481C144.559 493.187 144.202 498.1 144.188 498.308L147.473 498.526C147.473 498.362 147.83 494.526 152.05 490.71C156.073 487.078 164.474 482.837 181.721 483.248L331.545 483.47C328.68 482.143 325.72 481.034 322.69 480.152L181.76 479.939C166.883 479.577 156.063 482.479 149.603 488.481Z" fill="#19A8C6"/>
<path d="M184.8 492.31C184.8 492.634 184.116 492.9 183.268 492.9H179.091C178.243 492.9 177.559 492.634 177.559 492.31V486.347C177.559 486.023 178.243 485.757 179.091 485.757H183.268C184.116 485.757 184.8 486.023 184.8 486.347V492.31Z" fill="#36B8BF"/>
<path d="M183.792 492.31C183.792 492.634 183.205 492.9 182.477 492.9H178.879C178.151 492.9 177.559 492.634 177.559 492.31V486.347C177.559 486.023 178.151 485.757 178.879 485.757H182.477C183.205 485.757 183.792 486.023 183.792 486.347V492.31Z" fill="#46D2E0"/>
<path opacity="0.2" d="M183.195 492.961C184.038 492.961 184.723 492.695 184.723 492.366V487.8L182.314 485.832H179.019C178.176 485.832 177.491 486.098 177.491 486.422V488.497L182.964 492.961H183.195Z" fill="white"/>
<path d="M201.275 492.31C201.275 492.634 200.591 492.9 199.748 492.9H195.566C194.723 492.9 194.039 492.634 194.039 492.31V486.347C194.039 486.023 194.723 485.757 195.566 485.757H199.748C200.591 485.757 201.275 486.023 201.275 486.347V492.31Z" fill="#36B8BF"/>
<path d="M200.273 492.31C200.273 492.634 199.681 492.9 198.953 492.9H195.355C194.627 492.9 194.039 492.634 194.039 492.31V486.347C194.039 486.023 194.627 485.757 195.355 485.757H198.953C199.681 485.757 200.273 486.023 200.273 486.347V492.31Z" fill="#46D2E0"/>
<path opacity="0.2" d="M199.671 492.961C200.519 492.961 201.203 492.695 201.203 492.366V487.8L198.794 485.832H195.504C194.656 485.832 193.972 486.098 193.972 486.422V488.497L199.45 492.961H199.671Z" fill="white"/>
<path d="M217.756 492.31C217.756 492.634 217.072 492.9 216.224 492.9H212.042C211.199 492.9 210.515 492.634 210.515 492.31V486.347C210.515 486.023 211.199 485.757 212.042 485.757H216.224C217.072 485.757 217.756 486.023 217.756 486.347V492.31Z" fill="#36B8BF"/>
<path d="M216.734 492.31C216.734 492.634 216.142 492.9 215.415 492.9H211.816C211.088 492.9 210.501 492.634 210.501 492.31V486.347C210.501 486.023 211.088 485.757 211.816 485.757H215.415C216.142 485.757 216.734 486.023 216.734 486.347V492.31Z" fill="#46D2E0"/>
<path opacity="0.2" d="M216.151 492.961C216.994 492.961 217.679 492.695 217.679 492.366V487.8L215.27 485.832H211.975C211.132 485.832 210.443 486.098 210.443 486.422V488.497L215.92 492.961H216.151Z" fill="white"/>
<path d="M233.027 492.31C233.027 492.634 232.338 492.9 231.495 492.9H227.333C226.49 492.9 225.806 492.634 225.806 492.31V486.347C225.806 486.023 226.49 485.757 227.333 485.757H231.514C232.357 485.757 233.046 486.023 233.046 486.347L233.027 492.31Z" fill="#36B8BF"/>
<path d="M232.02 492.31C232.02 492.634 231.433 492.9 230.705 492.9H227.102C226.379 492.9 225.787 492.634 225.787 492.31V486.347C225.787 486.023 226.379 485.757 227.102 485.757H230.705C231.433 485.757 232.02 486.023 232.02 486.347V492.31Z" fill="#46D2E0"/>
<path opacity="0.2" d="M231.423 492.961C232.266 492.961 232.95 492.695 232.95 492.366V487.8L230.541 485.832H227.246C226.403 485.832 225.719 486.098 225.719 486.422V488.497L231.187 492.961H231.423Z" fill="white"/>
<path d="M249.103 492.31C249.103 492.634 248.414 492.9 247.571 492.9H243.39C242.547 492.9 241.862 492.634 241.862 492.31V486.347C241.862 486.023 242.547 485.757 243.39 485.757H247.566C248.409 485.757 249.098 486.023 249.098 486.347L249.103 492.31Z" fill="#36B8BF"/>
<path d="M248.096 492.31C248.096 492.634 247.509 492.9 246.781 492.9H243.178C242.45 492.9 241.862 492.634 241.862 492.31V486.347C241.862 486.023 242.45 485.757 243.178 485.757H246.781C247.509 485.757 248.096 486.023 248.096 486.347V492.31Z" fill="#46D2E0"/>
<path opacity="0.2" d="M247.499 492.961C248.342 492.961 249.026 492.695 249.026 492.366V487.8L246.617 485.832H243.322C242.479 485.832 241.795 486.098 241.795 486.422V488.497L247.268 492.961H247.499Z" fill="white"/>
<path d="M263.57 492.31C263.57 492.634 262.886 492.9 262.038 492.9H257.862C257.014 492.9 256.33 492.634 256.33 492.31V486.347C256.33 486.023 257.014 485.757 257.862 485.757H262.019C262.867 485.757 263.551 486.023 263.551 486.347L263.57 492.31Z" fill="#36B8BF"/>
<path d="M262.563 492.31C262.563 492.634 261.976 492.9 261.248 492.9H257.649C256.922 492.9 256.329 492.634 256.329 492.31V486.347C256.329 486.023 256.922 485.757 257.649 485.757H261.248C261.976 485.757 262.563 486.023 262.563 486.347V492.31Z" fill="#46D2E0"/>
<path opacity="0.2" d="M261.966 492.961C262.809 492.961 263.493 492.695 263.493 492.366V487.8L261.085 485.832H257.789C256.946 485.832 256.262 486.098 256.262 486.422V488.497L261.74 492.961H261.966Z" fill="white"/>
<path d="M278.842 492.31C278.842 492.634 278.158 492.9 277.315 492.9H273.133C272.29 492.9 271.606 492.634 271.606 492.31V486.347C271.606 486.023 272.29 485.757 273.133 485.757H277.315C278.158 485.757 278.842 486.023 278.842 486.347V492.31Z" fill="#36B8BF"/>
<path d="M277.84 492.31C277.84 492.634 277.247 492.9 276.52 492.9H272.921C272.194 492.9 271.606 492.634 271.606 492.31V486.347C271.606 486.023 272.194 485.757 272.921 485.757H276.52C277.247 485.757 277.84 486.023 277.84 486.347V492.31Z" fill="#46D2E0"/>
<path opacity="0.2" d="M277.238 492.961C278.085 492.961 278.77 492.695 278.77 492.366V487.8L276.361 485.832H273.066C272.223 485.832 271.538 486.098 271.538 486.422V488.497L277.016 492.961H277.238Z" fill="white"/>
<path d="M293.309 492.31C293.309 492.634 292.625 492.9 291.781 492.9H287.6C286.757 492.9 286.073 492.634 286.073 492.31V486.347C286.073 486.023 286.757 485.757 287.6 485.757H291.781C292.625 485.757 293.309 486.023 293.309 486.347V492.31Z" fill="#36B8BF"/>
<path d="M292.307 492.31C292.307 492.634 291.714 492.9 290.987 492.9H287.388C286.661 492.9 286.073 492.634 286.073 492.31V486.347C286.073 486.023 286.661 485.757 287.388 485.757H290.987C291.714 485.757 292.307 486.023 292.307 486.347V492.31Z" fill="#46D2E0"/>
<path opacity="0.2" d="M291.704 492.961C292.552 492.961 293.236 492.695 293.236 492.366V487.8L290.827 485.832H287.537C286.689 485.832 286.005 486.098 286.005 486.422V488.497L291.483 492.961H291.704Z" fill="white"/>
<path d="M154.15 490.856C158.192 487.224 166.676 482.978 184.019 483.389L332.094 483.645C330.264 482.939 329.127 482.431 327.147 481.711L184.944 481.57C169.966 481.222 159.074 484.09 152.575 490.111C149.063 493.362 147.811 496.713 147.367 498.541L149.545 498.686C149.555 498.508 149.897 494.672 154.15 490.856Z" fill="#128B9B"/>
<path d="M169.831 510.534V498.443H134.293C135.097 499.744 142.208 510.084 169.831 510.534Z" fill="#D1F2F2"/>
<path d="M344.779 498.407H315.228V510.498C338.135 509.855 344.114 499.723 344.779 498.407Z" fill="#D1F2F2"/>
<path d="M169.832 510.532H315.228V510.479V498.407H169.832V510.518V510.532Z" fill="#D1F2F2"/>
<g opacity="0.1">
<path opacity="0.1" d="M209.08 496.912L189.79 499.064L208.078 506.59L330.693 505.569L344.5 499.969L209.08 496.912Z" fill="#141414"/>
</g>
<path d="M129.129 479.636C129.129 479.636 118.357 485.745 113.081 494.146H114.122C114.122 494.146 121.16 484.729 130.54 479.636H129.129Z" fill="#E8FCFB"/>
<path d="M139.905 480C139.905 480 129.128 486.109 123.853 494.51L124.817 494.587C124.817 494.587 132.072 485.166 141.451 480.078L139.905 480Z" fill="#E8FCFB"/>
<path d="M382.996 494.502L328.597 503.16L203.891 504.509L188.769 498.647L206.979 494.502H382.996Z" fill="#19A8C6"/>
<path d="M188.769 498.647L382.996 494.502L328.597 503.16L203.891 504.509L188.769 498.647Z" fill="#128B9B"/>
<path d="M198.101 502.222L326.077 498.247L355.397 498.837L328.597 503.16L204.551 504.428L198.101 502.222Z" fill="#0C7077"/>
<path d="M200.808 503.406C200.808 503.406 220.632 504.247 222.173 509.858C222.173 509.858 222.727 517.427 200.808 517.427V503.406Z" fill="#19A8C6"/>
<path d="M204.72 510.419C204.72 514.288 202.966 517.427 200.808 517.427C198.65 517.427 196.901 514.288 196.901 510.419C196.901 506.549 198.65 503.406 200.808 503.406C202.966 503.406 204.72 506.549 204.72 510.419Z" fill="#0F777F"/>
<path d="M204.291 510.353C204.291 513.801 202.73 516.592 200.808 516.592C198.886 516.592 197.33 513.801 197.33 510.353C197.33 506.904 198.891 504.114 200.808 504.114C202.725 504.114 204.291 506.909 204.291 510.353Z" fill="#B5E7EA"/>
<path d="M202.831 510.352C202.831 512.93 201.824 515.019 200.581 515.019C199.339 515.019 198.332 512.93 198.332 510.352C198.332 507.774 199.339 505.685 200.581 505.685C201.824 505.685 202.831 507.774 202.831 510.352Z" fill="#8CD0D3"/>
<path opacity="0.1" d="M203.983 506.426C203.983 506.426 216.821 507.722 222.174 509.86C222.174 509.86 221.523 504.617 201.285 503.413C201.285 503.413 203.246 503.868 203.983 506.426Z" fill="black"/>
<path opacity="0.1" d="M204.435 513.12C204.435 513.12 217.573 515.026 222.173 509.86C222.173 509.86 222.8 517.26 201.212 517.41C201.212 517.41 203.607 516.82 204.435 513.12Z" fill="black"/>
<path opacity="0.3" d="M208.949 504.284C208.949 504.284 213.714 508.7 209.609 516.941C209.609 516.941 221.923 515.616 222.174 509.861C222.174 509.861 221.779 505.977 208.949 504.284Z" fill="#E8FCFB"/>
<path d="M433.956 529.16C433.956 530.727 436.389 532.003 439.395 532.003H649.313C652.319 532.003 654.751 530.727 654.751 529.16V523.477C654.751 521.905 652.343 520.633 649.313 520.633H439.395C436.389 520.633 433.956 521.905 433.956 523.477V529.16Z" fill="#6A777F"/>
<path d="M377.051 498.341L417.268 506.994L509.451 508.348L520.627 502.486L507.167 498.341H377.051Z" fill="#19A8C6"/>
<path d="M520.627 502.486L377.051 498.341L417.268 506.994L509.451 508.348L520.627 502.486Z" fill="#128B9B"/>
<path d="M399.26 502.871L462.976 504.046L457.561 507.577L416.381 507.282L399.26 502.871Z" fill="#0C7077"/>
<path d="M496.01 508.3L496.611 508.523L492.184 520.493L491.583 520.269L496.01 508.3Z" fill="#4D4D4D"/>
<path d="M495.993 508.279L496.296 508.392L491.871 520.363L491.568 520.25L495.993 508.279Z" fill="#646464"/>
<path d="M488.573 513.956L495.495 524.668L494.371 525.4L487.45 514.688L488.573 513.956Z" fill="#4D4D4D"/>
<path d="M494.936 525.007L494.367 525.375L487.454 514.657L488.022 514.29L494.936 525.007Z" fill="#646464"/>
<path d="M495.003 522.171C495.576 522.554 496.023 523.098 496.288 523.736C496.552 524.374 496.623 525.076 496.489 525.754C496.356 526.432 496.026 527.055 495.54 527.545C495.054 528.034 494.434 528.367 493.759 528.503C493.084 528.638 492.384 528.57 491.748 528.306C491.112 528.042 490.568 527.594 490.186 527.02C489.803 526.446 489.599 525.77 489.599 525.079C489.599 524.388 489.803 523.713 490.185 523.138C490.438 522.757 490.764 522.43 491.143 522.175C491.522 521.92 491.947 521.742 492.394 521.653C492.842 521.563 493.302 521.562 493.75 521.651C494.197 521.74 494.623 521.917 495.003 522.171Z" fill="#646464"/>
<path d="M495.885 522.17C496.458 522.553 496.905 523.097 497.17 523.735C497.434 524.373 497.504 525.075 497.371 525.753C497.238 526.431 496.908 527.054 496.422 527.544C495.936 528.033 495.316 528.366 494.641 528.502C493.966 528.637 493.266 528.569 492.63 528.305C491.994 528.041 491.45 527.594 491.068 527.019C490.685 526.445 490.481 525.769 490.481 525.078C490.48 524.387 490.685 523.712 491.067 523.137C491.579 522.369 492.374 521.835 493.277 521.654C494.18 521.472 495.118 521.658 495.885 522.17Z" fill="#393838"/>
<path d="M494.772 523.807C495.037 523.983 495.244 524.235 495.367 524.53C495.49 524.824 495.523 525.149 495.462 525.463C495.401 525.776 495.249 526.064 495.025 526.291C494.801 526.518 494.515 526.673 494.203 526.737C493.891 526.8 493.568 526.769 493.273 526.648C492.979 526.527 492.727 526.321 492.549 526.056C492.371 525.791 492.275 525.48 492.274 525.16C492.273 524.841 492.366 524.528 492.541 524.262C492.658 524.085 492.808 523.933 492.984 523.814C493.159 523.695 493.356 523.613 493.563 523.57C493.77 523.528 493.983 523.527 494.191 523.568C494.398 523.609 494.596 523.69 494.772 523.807Z" fill="#D1D1D1"/>
<path d="M494.256 524.589C494.367 524.664 494.453 524.77 494.503 524.893C494.554 525.017 494.567 525.153 494.541 525.284C494.515 525.415 494.451 525.535 494.357 525.63C494.262 525.724 494.143 525.789 494.012 525.815C493.881 525.841 493.746 525.828 493.623 525.777C493.5 525.726 493.395 525.64 493.32 525.529C493.246 525.418 493.206 525.288 493.205 525.154C493.205 525.02 493.244 524.89 493.317 524.778C493.366 524.703 493.429 524.638 493.503 524.588C493.576 524.538 493.66 524.503 493.747 524.485C493.835 524.468 493.925 524.468 494.012 524.486C494.1 524.504 494.183 524.539 494.256 524.589Z" fill="#393838"/>
<path d="M593.215 507.469L593.815 507.692L589.393 519.664L588.792 519.44L593.215 507.469Z" fill="#4D4D4D"/>
<path d="M589.093 519.549L588.785 519.438L593.217 507.467L593.521 507.583L589.093 519.549Z" fill="#646464"/>
<path d="M585.81 513.149L592.726 523.865L591.602 524.596L584.686 513.88L585.81 513.149Z" fill="#4D4D4D"/>
<path d="M585.24 513.472L592.163 524.183L591.593 524.554L584.67 513.843L585.24 513.472Z" fill="#646464"/>
<path d="M592.23 521.367C592.803 521.75 593.25 522.295 593.515 522.932C593.779 523.57 593.85 524.273 593.717 524.951C593.583 525.629 593.253 526.252 592.767 526.741C592.281 527.23 591.661 527.564 590.986 527.699C590.311 527.835 589.611 527.766 588.975 527.502C588.339 527.238 587.795 526.791 587.413 526.216C587.03 525.642 586.826 524.967 586.826 524.276C586.826 523.585 587.03 522.909 587.412 522.335C587.665 521.953 587.991 521.626 588.37 521.371C588.749 521.116 589.174 520.939 589.621 520.849C590.069 520.759 590.529 520.759 590.977 520.848C591.425 520.937 591.85 521.113 592.23 521.367Z" fill="#646464"/>
<path d="M593.111 521.366C593.685 521.749 594.132 522.294 594.396 522.932C594.661 523.569 594.731 524.272 594.598 524.95C594.465 525.628 594.134 526.251 593.648 526.74C593.162 527.229 592.543 527.563 591.868 527.698C591.193 527.834 590.493 527.765 589.857 527.501C589.221 527.237 588.677 526.79 588.294 526.215C587.912 525.641 587.707 524.966 587.707 524.275C587.707 523.584 587.911 522.908 588.294 522.334C588.806 521.565 589.6 521.031 590.503 520.85C591.407 520.669 592.344 520.854 593.111 521.366Z" fill="#393838"/>
<path d="M592.018 523.005C592.283 523.182 592.49 523.434 592.612 523.729C592.734 524.023 592.767 524.348 592.706 524.662C592.644 524.975 592.491 525.263 592.267 525.49C592.042 525.716 591.756 525.871 591.444 525.933C591.132 525.996 590.808 525.965 590.514 525.843C590.219 525.721 589.968 525.515 589.79 525.25C589.613 524.984 589.518 524.672 589.518 524.352C589.517 524.033 589.611 523.72 589.787 523.455C590.024 523.098 590.392 522.85 590.81 522.766C591.228 522.682 591.663 522.768 592.018 523.005Z" fill="#D1D1D1"/>
<path d="M591.483 523.789C591.594 523.863 591.681 523.968 591.732 524.092C591.783 524.215 591.797 524.352 591.771 524.483C591.746 524.614 591.682 524.735 591.587 524.83C591.493 524.925 591.373 524.99 591.242 525.016C591.112 525.043 590.976 525.03 590.853 524.979C590.729 524.928 590.624 524.841 590.549 524.73C590.475 524.618 590.435 524.488 590.435 524.354C590.435 524.22 590.474 524.089 590.548 523.977C590.648 523.829 590.802 523.726 590.977 523.691C591.152 523.655 591.333 523.691 591.483 523.789Z" fill="#393838"/>
<path d="M606.848 507.318L607.449 507.542L603.014 519.509L602.413 519.284L606.848 507.318Z" fill="#4D4D4D"/>
<path d="M606.853 507.318L607.155 507.431L602.73 519.402L602.428 519.289L606.853 507.318Z" fill="#646464"/>
<path d="M599.449 513.006L606.361 523.724L605.236 524.454L598.324 513.736L599.449 513.006Z" fill="#4D4D4D"/>
<path d="M598.885 513.316L605.786 524.041L605.215 524.411L598.315 513.686L598.885 513.316Z" fill="#646464"/>
<path d="M605.863 521.214C606.438 521.597 606.887 522.142 607.153 522.781C607.419 523.42 607.489 524.123 607.357 524.803C607.224 525.482 606.893 526.107 606.406 526.597C605.919 527.087 605.298 527.422 604.622 527.558C603.946 527.693 603.244 527.624 602.607 527.36C601.97 527.095 601.425 526.646 601.042 526.071C600.659 525.495 600.455 524.818 600.456 524.125C600.456 523.433 600.662 522.756 601.046 522.181C601.558 521.414 602.353 520.881 603.256 520.7C604.158 520.518 605.096 520.703 605.863 521.214Z" fill="#646464"/>
<path d="M606.745 521.213C607.32 521.596 607.769 522.141 608.035 522.78C608.3 523.419 608.371 524.122 608.238 524.802C608.105 525.481 607.775 526.106 607.288 526.596C606.801 527.086 606.18 527.421 605.504 527.556C604.827 527.692 604.126 527.623 603.489 527.359C602.852 527.094 602.307 526.645 601.924 526.07C601.541 525.494 601.337 524.817 601.338 524.124C601.338 523.432 601.544 522.756 601.928 522.18C602.441 521.414 603.236 520.882 604.138 520.701C605.04 520.52 605.977 520.704 606.745 521.213Z" fill="#393838"/>
<path d="M605.632 522.853C605.897 523.029 606.105 523.281 606.227 523.576C606.35 523.87 606.383 524.195 606.323 524.508C606.262 524.822 606.11 525.11 605.885 525.337C605.661 525.564 605.375 525.719 605.063 525.782C604.752 525.846 604.428 525.815 604.133 525.694C603.839 525.573 603.587 525.367 603.409 525.102C603.231 524.837 603.136 524.525 603.134 524.206C603.133 523.887 603.226 523.574 603.402 523.308C603.518 523.131 603.669 522.978 603.844 522.86C604.019 522.741 604.216 522.658 604.423 522.616C604.63 522.574 604.844 522.573 605.051 522.614C605.259 522.654 605.456 522.736 605.632 522.853Z" fill="#D1D1D1"/>
<path d="M605.116 523.632C605.229 523.707 605.317 523.813 605.369 523.937C605.421 524.061 605.436 524.198 605.41 524.331C605.385 524.463 605.321 524.586 605.227 524.682C605.132 524.778 605.012 524.843 604.88 524.871C604.748 524.898 604.611 524.885 604.487 524.834C604.362 524.783 604.256 524.696 604.181 524.584C604.105 524.472 604.065 524.341 604.064 524.206C604.064 524.071 604.103 523.939 604.177 523.826C604.226 523.751 604.289 523.686 604.362 523.636C604.436 523.586 604.519 523.55 604.606 523.532C604.694 523.514 604.784 523.514 604.871 523.531C604.959 523.548 605.042 523.583 605.116 523.632Z" fill="#393838"/>
<path d="M461.03 508.599C461.03 508.599 480.859 509.435 482.396 515.046C482.396 515.046 482.954 522.615 461.03 522.615V508.599Z" fill="#19A8C6"/>
<path d="M464.942 515.626C464.942 519.495 463.188 522.634 461.03 522.634C458.872 522.634 457.123 519.495 457.123 515.626C457.123 511.757 458.872 508.599 461.03 508.599C463.188 508.599 464.942 511.757 464.942 515.626Z" fill="#0F777F"/>
<path d="M464.513 515.549C464.513 518.993 462.952 521.788 461.03 521.788C459.108 521.788 457.552 518.993 457.552 515.549C457.552 512.106 459.113 509.31 461.03 509.31C462.947 509.31 464.513 512.106 464.513 515.549Z" fill="#B5E7EA"/>
<path d="M463.053 515.559C463.053 518.137 462.046 520.226 460.804 520.226C459.561 520.226 458.554 518.137 458.554 515.559C458.554 512.981 459.561 510.896 460.804 510.896C462.046 510.896 463.053 512.986 463.053 515.559Z" fill="#8CD0D3"/>
<path opacity="0.1" d="M464.205 511.631C464.205 511.631 477.043 512.927 482.396 515.065C482.396 515.065 481.745 509.822 461.507 508.618C461.507 508.598 463.458 509.082 464.205 511.631Z" fill="black"/>
<path opacity="0.1" d="M464.658 518.328C464.658 518.328 477.795 520.229 482.396 515.063C482.396 515.063 483.022 522.463 461.435 522.613C461.435 522.623 463.834 522.013 464.658 518.328Z" fill="black"/>
<path opacity="0.3" d="M469.172 509.487C469.172 509.487 473.936 513.917 469.832 522.139C469.832 522.139 482.145 520.814 482.396 515.058C482.396 515.063 482.001 511.18 469.172 509.487Z" fill="#E8FCFB"/>
<path d="M591.628 485.79L630.428 444.259L641.754 446.498L629.329 497.199L591.628 485.79Z" fill="#E8FCFB"/>
<path d="M600.935 487.638L635.592 445.285L645.333 447.21L633.246 497.973L600.935 487.638Z" fill="#D1F2F2"/>
<path d="M641.754 446.5L626.309 483.954L636.026 485.371L645.333 447.207L641.754 446.5Z" fill="#AFE8E8"/>
<path d="M465.106 483.971C465.106 483.971 453.351 483.531 444.072 486.211C444.072 486.211 425.125 496.024 424.682 505.005C424.682 505.005 431.696 516.787 465.934 517.067L465.106 483.971Z" fill="#D1F2F2"/>
<path d="M629.363 483.973C629.363 483.973 663.023 488.18 663.721 505.006C663.721 505.006 657.762 516.788 628.659 517.069L629.363 483.973Z" fill="#E8FCFB"/>
<path d="M465.105 483.973H630.1V517.069H465.105V483.973Z" fill="#D1F2F2"/>
<path d="M487.96 483.97C487.96 483.97 477.496 482.674 469.836 486.209C464.137 488.84 453.515 496.022 453.134 505.004C453.134 505.004 459.18 516.785 488.668 517.066L487.96 483.97Z" fill="#E8FCFB"/>
<path d="M487.964 483.973H630.1V517.069H487.964V483.973Z" fill="#E8FCFB"/>
<path d="M465.621 517.051V505.143H425.395C426.296 506.454 434.356 516.615 465.621 517.051Z" fill="#A6A6A6"/>
<path d="M663.639 505.143H630.187V517.012C656.124 516.398 662.888 506.434 663.639 505.143Z" fill="#A6A6A6"/>
<path d="M465.621 517.065H630.187V517.012V505.143H465.621V517.051V517.065Z" fill="#A6A6A6"/>
<path d="M464.927 517.048V504.957H424.557C425.467 506.267 433.551 516.608 464.927 517.048Z" fill="#AFE8E8"/>
<path d="M663.639 504.938H630.076V517.029C656.09 516.385 662.883 506.253 663.639 504.938Z" fill="#AFE8E8"/>
<path d="M464.927 517.063H630.071V517.009V504.938H464.927V517.048V517.063Z" fill="#AFE8E8"/>
<path d="M443.08 486.589L468.001 487.073C468.001 487.073 458.597 491.991 454.835 499.386L427.259 498.97C427.259 498.97 433.56 490.835 443.08 486.589Z" fill="#46D2E0"/>
<g opacity="0.3">
<path opacity="0.3" d="M438.651 491.295L439.715 501.394L447.809 501.563L446.171 488.935L443.116 488.896L438.651 491.295Z" fill="white"/>
</g>
<g opacity="0.3">
<path opacity="0.3" d="M449.348 486.785L451.092 499.258L454.835 499.374L452.797 486.785H449.348Z" fill="white"/>
</g>
<path d="M468.464 495.009C463.42 499.715 463.063 504.629 463.049 504.837L466.334 505.054C466.334 504.89 466.686 501.055 470.911 497.239C474.929 493.606 483.335 489.365 500.582 489.776L650.406 489.998C647.542 488.671 644.582 487.562 641.551 486.681L500.62 486.468C485.744 486.12 474.924 488.988 468.464 495.009Z" fill="#19A8C6"/>
<path d="M503.66 498.845C503.66 499.169 502.971 499.435 502.128 499.435H497.947C497.104 499.435 496.419 499.169 496.419 498.845V492.896C496.419 492.572 497.104 492.306 497.947 492.306H502.128C502.971 492.306 503.66 492.572 503.66 492.896V498.845Z" fill="#36B8BF"/>
<path d="M502.653 498.845C502.653 499.169 502.065 499.435 501.338 499.435H497.734C497.007 499.435 496.419 499.169 496.419 498.845V492.896C496.419 492.572 497.007 492.306 497.734 492.306H501.338C502.065 492.306 502.653 492.572 502.653 492.896V498.845Z" fill="#46D2E0"/>
<path opacity="0.2" d="M502.056 499.491C502.899 499.491 503.583 499.225 503.583 498.896V494.33L501.174 492.362H497.879C497.036 492.362 496.352 492.628 496.352 492.952V495.027L501.825 499.491H502.056Z" fill="white"/>
<path d="M520.136 498.845C520.136 499.169 519.452 499.435 518.609 499.435H514.427C513.584 499.435 512.9 499.169 512.9 498.845V492.896C512.9 492.572 513.584 492.306 514.427 492.306H518.609C519.452 492.306 520.136 492.572 520.136 492.896V498.845Z" fill="#36B8BF"/>
<path d="M519.129 498.845C519.129 499.169 518.541 499.435 517.814 499.435H514.215C513.488 499.435 512.9 499.169 512.9 498.845V492.896C512.9 492.572 513.488 492.306 514.215 492.306H517.828C518.556 492.306 519.144 492.572 519.144 492.896L519.129 498.845Z" fill="#46D2E0"/>
<path opacity="0.2" d="M518.532 499.491C519.375 499.491 520.064 499.225 520.064 498.896V494.33L517.655 492.362H514.36C513.517 492.362 512.833 492.628 512.833 492.952V495.027L518.31 499.491H518.532Z" fill="white"/>
<path d="M536.616 498.845C536.616 499.169 535.932 499.435 535.089 499.435H530.908C530.065 499.435 529.381 499.169 529.381 498.845V492.896C529.381 492.572 530.065 492.306 530.908 492.306H535.089C535.932 492.306 536.616 492.572 536.616 492.896V498.845Z" fill="#36B8BF"/>
<path d="M535.61 498.845C535.61 499.169 535.017 499.435 534.29 499.435H530.691C529.963 499.435 529.376 499.169 529.376 498.845V492.896C529.376 492.572 529.963 492.306 530.691 492.306H534.29C535.017 492.306 535.61 492.572 535.61 492.896V498.845Z" fill="#46D2E0"/>
<path opacity="0.2" d="M535.007 499.491C535.855 499.491 536.539 499.225 536.539 498.896V494.33L534.131 492.362H530.835C529.992 492.362 529.303 492.628 529.303 492.952V495.027L534.781 499.491H535.007Z" fill="white"/>
<path d="M551.888 498.845C551.888 499.169 551.199 499.435 550.356 499.435H546.175C545.332 499.435 544.648 499.169 544.648 498.845V492.896C544.648 492.572 545.332 492.306 546.175 492.306H550.356C551.199 492.306 551.888 492.572 551.888 492.896V498.845Z" fill="#36B8BF"/>
<path d="M550.881 498.845C550.881 499.169 550.293 499.435 549.566 499.435H545.962C545.235 499.435 544.647 499.169 544.647 498.845V492.896C544.647 492.572 545.235 492.306 545.962 492.306H549.566C550.293 492.306 550.881 492.572 550.881 492.896V498.845Z" fill="#46D2E0"/>
<path opacity="0.2" d="M550.283 499.491C551.126 499.491 551.811 499.225 551.811 498.896V494.33L549.402 492.362H546.111C545.268 492.362 544.579 492.628 544.579 492.952V495.027L550.057 499.491H550.283Z" fill="white"/>
<path d="M567.964 498.845C567.964 499.169 567.275 499.435 566.432 499.435H562.25C561.407 499.435 560.723 499.169 560.723 498.845V492.896C560.723 492.572 561.407 492.306 562.25 492.306H566.432C567.275 492.306 567.964 492.572 567.964 492.896V498.845Z" fill="#36B8BF"/>
<path d="M566.967 498.845C566.967 499.169 566.379 499.435 565.652 499.435H562.048C561.321 499.435 560.733 499.169 560.733 498.845V492.896C560.733 492.572 561.321 492.306 562.048 492.306H565.652C566.379 492.306 566.967 492.572 566.967 492.896V498.845Z" fill="#46D2E0"/>
<path opacity="0.2" d="M566.36 499.491C567.203 499.491 567.887 499.225 567.887 498.896V494.33L565.478 492.362H562.183C561.335 492.362 560.651 492.628 560.651 492.952V495.027L566.128 499.491H566.36Z" fill="white"/>
<path d="M582.431 498.845C582.431 499.169 581.747 499.435 580.899 499.435H576.722C575.874 499.435 575.19 499.169 575.19 498.845V492.896C575.19 492.572 575.874 492.306 576.722 492.306H580.899C581.747 492.306 582.431 492.572 582.431 492.896V498.845Z" fill="#36B8BF"/>
<path d="M581.419 498.845C581.419 499.169 580.831 499.435 580.104 499.435H576.505C575.773 499.435 575.185 499.169 575.185 498.845V492.896C575.185 492.572 575.773 492.306 576.505 492.306H580.104C580.831 492.306 581.419 492.572 581.419 492.896V498.845Z" fill="#46D2E0"/>
<path opacity="0.2" d="M580.827 499.491C581.67 499.491 582.354 499.225 582.354 498.896V494.33L579.945 492.362H576.65C575.807 492.362 575.123 492.628 575.123 492.952V495.027L580.596 499.491H580.827Z" fill="white"/>
<path d="M597.702 498.845C597.702 499.169 597.018 499.435 596.17 499.435H591.994C591.146 499.435 590.467 499.169 590.467 498.845V492.896C590.467 492.572 591.146 492.306 591.994 492.306H596.17C597.018 492.306 597.702 492.572 597.702 492.896V498.845Z" fill="#36B8BF"/>
<path d="M596.695 498.845C596.695 499.169 596.108 499.435 595.38 499.435H591.782C591.054 499.435 590.466 499.169 590.466 498.845V492.896C590.466 492.572 591.054 492.306 591.782 492.306H595.39C596.117 492.306 596.705 492.572 596.705 492.896L596.695 498.845Z" fill="#46D2E0"/>
<path opacity="0.2" d="M596.098 499.491C596.946 499.491 597.625 499.225 597.625 498.896V494.33L595.217 492.362H591.921C591.078 492.362 590.394 492.628 590.394 492.952V495.027L595.872 499.491H596.098Z" fill="white"/>
<path d="M612.17 498.845C612.17 499.169 611.485 499.435 610.642 499.435H606.47C605.627 499.435 604.938 499.169 604.938 498.845V492.896C604.938 492.572 605.627 492.306 606.47 492.306H610.652C611.495 492.306 612.179 492.572 612.179 492.896L612.17 498.845Z" fill="#36B8BF"/>
<path d="M611.167 498.845C611.167 499.169 610.575 499.435 609.847 499.435H606.249C605.521 499.435 604.929 499.169 604.929 498.845V492.896C604.929 492.572 605.521 492.306 606.249 492.306H609.842C610.57 492.306 611.162 492.572 611.162 492.896L611.167 498.845Z" fill="#46D2E0"/>
<path opacity="0.2" d="M610.565 499.491C611.413 499.491 612.097 499.225 612.097 498.896V494.33L609.688 492.362H606.393C605.55 492.362 604.866 492.628 604.866 492.952V495.027L610.324 499.491H610.565Z" fill="white"/>
<path d="M473.026 497.38C477.072 493.748 485.551 489.501 502.894 489.912L650.969 490.169C649.134 489.462 647.997 488.955 646.022 488.234L503.819 488.094C488.841 487.745 477.949 490.614 471.45 496.635C467.938 499.885 466.686 503.237 466.238 505.065L468.42 505.21C468.415 505.031 468.757 501.196 473.026 497.38Z" fill="#128B9B"/>
<path d="M488.692 517.048V504.957H453.153C453.958 506.267 461.068 516.608 488.692 517.048Z" fill="#D1F2F2"/>
<path d="M663.639 504.938H634.089V517.029C657.001 516.385 662.97 506.253 663.639 504.938Z" fill="#D1F2F2"/>
<path d="M488.692 517.063H634.089V517.009V504.938H488.692V517.048V517.063Z" fill="#D1F2F2"/>
<g opacity="0.1">
<path opacity="0.1" d="M527.935 503.442L508.646 505.594L526.938 513.12L649.553 512.099L663.36 506.499L527.935 503.442Z" fill="#141414"/>
</g>
<path d="M447.974 486.159C447.974 486.159 437.202 492.268 431.922 500.669H432.949C432.949 500.669 439.987 491.252 449.367 486.159H447.974Z" fill="#E8FCFB"/>
<path d="M458.766 486.524C458.766 486.524 447.989 492.632 442.714 501.033L443.677 501.111C443.677 501.111 450.932 491.689 460.312 486.601L458.766 486.524Z" fill="#E8FCFB"/>
<path d="M701.857 501.032L647.458 509.69L522.747 511.039L507.63 505.177L525.84 501.032H701.857Z" fill="#19A8C6"/>
<path d="M507.63 505.177L701.857 501.032L647.458 509.69L522.747 511.039L507.63 505.177Z" fill="#128B9B"/>
<path d="M516.961 508.752L644.938 504.777L674.257 505.367L647.458 509.691L523.412 510.958L516.961 508.752Z" fill="#0C7077"/>
<path d="M519.668 509.936C519.668 509.936 539.492 510.778 541.029 516.388C541.029 516.388 541.588 523.957 519.668 523.957V509.936Z" fill="#19A8C6"/>
<path d="M523.581 516.949C523.581 520.818 521.827 523.957 519.669 523.957C517.511 523.957 515.762 520.818 515.762 516.949C515.762 513.08 517.511 509.936 519.669 509.936C521.827 509.936 523.581 513.08 523.581 516.949Z" fill="#0F777F"/>
<path d="M523.127 516.883C523.127 520.332 521.571 523.122 519.649 523.122C517.727 523.122 516.166 520.332 516.166 516.883C516.166 513.435 517.727 510.644 519.649 510.644C521.571 510.644 523.127 513.44 523.127 516.883Z" fill="#B5E7EA"/>
<path d="M521.682 516.882C521.682 519.459 520.676 521.549 519.433 521.549C518.19 521.549 517.183 519.459 517.183 516.882C517.183 514.304 518.19 512.214 519.433 512.214C520.676 512.214 521.682 514.304 521.682 516.882Z" fill="#8CD0D3"/>
<path opacity="0.1" d="M522.843 512.949C522.843 512.949 535.682 514.245 541.029 516.383C541.029 516.383 540.384 511.14 520.145 509.936C520.145 509.941 522.092 510.395 522.843 512.949Z" fill="black"/>
<path opacity="0.1" d="M523.296 519.65C523.296 519.65 536.429 521.556 541.029 516.391C541.029 516.391 541.66 523.79 520.068 523.94C520.068 523.94 522.467 523.341 523.296 519.65Z" fill="black"/>
<path opacity="0.3" d="M527.81 510.814C527.81 510.814 532.575 515.23 528.47 523.471C528.47 523.471 540.784 522.146 541.029 516.39C541.029 516.39 540.639 512.507 527.81 510.814Z" fill="#E8FCFB"/>
<path d="M67.3055 524.809H69.3529V526.923H67.3055V524.809Z" fill="#B74D04"/>
<path d="M66.9107 525.212C66.9542 525.089 67.0348 524.982 67.1414 524.906C67.2479 524.831 67.3752 524.79 67.5057 524.79C67.6362 524.79 67.7634 524.831 67.87 524.906C67.9765 524.982 68.0571 525.089 68.1006 525.212L71.786 538.459H63.2253L66.9107 525.212Z" fill="#B74D04"/>
<path d="M61.7609 538.466H73.212C73.8335 538.466 74.3394 538.819 74.3394 539.249C74.3394 539.68 73.8335 540.033 73.212 540.033H61.7609C61.1394 540.033 60.6335 539.68 60.6335 539.249C60.6335 538.819 61.1298 538.466 61.7609 538.466Z" fill="#B74D04"/>
<path d="M71.2704 536.691H63.7021L64.5403 533.673H70.4321L71.2704 536.691Z" fill="#C6B3A7"/>
<path d="M66.0578 528.208H68.9098L69.7528 531.226H65.2196L66.0578 528.208Z" fill="#C6B3A7"/>
<path d="M68.6256 525.212C68.6692 525.089 68.7497 524.982 68.8563 524.906C68.9628 524.831 69.0901 524.79 69.2206 524.79C69.3511 524.79 69.4784 524.831 69.5849 524.906C69.6915 524.982 69.772 525.089 69.8156 525.212L73.501 538.459H64.945L68.6256 525.212Z" fill="#F66700"/>
<path d="M63.4949 538.466H74.9462C75.5677 538.466 76.0735 538.819 76.0735 539.249C76.0735 539.68 75.5918 540.033 74.9462 540.033H63.4949C62.8783 540.033 62.3676 539.68 62.3676 539.249C62.3676 538.819 62.8783 538.466 63.4949 538.466Z" fill="#F66700"/>
<path d="M73.0046 536.691H65.4363L66.2794 533.673H72.1664L73.0046 536.691Z" fill="#FFF6F0"/>
<path d="M67.7968 528.208H70.6488L71.4871 531.226H66.9586L67.7968 528.208Z" fill="#FFF6F0"/>
<path d="M677.957 528.563H680.005V530.676H677.957V528.563Z" fill="#B74D04"/>
<path d="M677.543 528.958C677.586 528.835 677.667 528.728 677.773 528.652C677.88 528.577 678.007 528.536 678.138 528.536C678.268 528.536 678.395 528.577 678.502 528.652C678.608 528.728 678.689 528.835 678.733 528.958L682.418 542.21H673.857L677.543 528.958Z" fill="#B74D04"/>
<path d="M672.412 542.212H683.863C684.485 542.212 684.99 542.565 684.99 542.996C684.99 543.426 684.485 543.775 683.863 543.775H672.412C671.795 543.775 671.285 543.426 671.285 542.996C671.285 542.565 671.795 542.212 672.412 542.212Z" fill="#B74D04"/>
<path d="M681.922 540.437H674.353L675.196 537.419H681.083L681.922 540.437Z" fill="#C6B3A7"/>
<path d="M676.714 531.955H679.566L680.405 534.973H675.871L676.714 531.955Z" fill="#C6B3A7"/>
<path d="M679.277 528.958C679.32 528.835 679.401 528.728 679.507 528.652C679.614 528.577 679.741 528.536 679.872 528.536C680.002 528.536 680.13 528.577 680.236 528.652C680.343 528.728 680.423 528.835 680.467 528.958L684.152 542.21H675.596L679.277 528.958Z" fill="#F66700"/>
<path d="M674.146 542.212H685.597C686.219 542.212 686.729 542.565 686.729 542.996C686.729 543.426 686.219 543.775 685.597 543.775H674.146C673.53 543.775 673.019 543.426 673.019 542.996C673.019 542.565 673.53 542.212 674.146 542.212Z" fill="#F66700"/>
<path d="M683.656 540.437H676.088L676.931 537.419H682.818L683.656 540.437Z" fill="#FFF6F0"/>
<path d="M678.449 531.955H681.301L682.139 534.973H677.61L678.449 531.955Z" fill="#FFF6F0"/>
<path d="M556.985 570.306H686.224V574.804H556.985V570.306Z" fill="#EDEDEF"/>
<path d="M526.283 570.306H556.985V574.804H526.283V570.306Z" fill="#CECECE"/>
<path d="M526.283 574.81H686.224V577.146H526.283V574.81Z" fill="#6A777F"/>
<path d="M272.656 571.034H303.358V575.532H272.656V571.034Z" fill="#CECECE"/>
<path d="M272.656 575.538H432.597V577.874H272.656V575.538Z" fill="#6A777F"/>
<path d="M68.5146 571.762H197.754V576.26H68.5146V571.762Z" fill="#EDEDEF"/>
<path d="M37.813 571.762H68.5149V576.26H37.813V571.762Z" fill="#CECECE"/>
<path d="M37.8127 576.266H197.754V578.602H37.8127V576.266Z" fill="#6A777F"/>
</g>
<defs>
<linearGradient id="paint0_linear" x1="382.254" y1="175.626" x2="383.398" y2="606.539" gradientUnits="userSpaceOnUse">
<stop stop-color="#91DEE9"/>
<stop offset="0.22" stop-color="#B0E6DC"/>
<stop offset="0.57" stop-color="#DBF1CA"/>
<stop offset="0.84" stop-color="#F5F7BE"/>
<stop offset="1" stop-color="#FFFABA"/>
</linearGradient>
<clipPath id="clip0">
<rect width="768" height="695" fill="white"/>
</clipPath>
</defs>
</svg>
