<svg width="1920" height="703" viewBox="0 0 1920 703" fill="none" xmlns="http://www.w3.org/2000/svg">
<path d="M0 0H1920V703H0V0Z" fill="url(#paint0_linear)"/>
<path d="M0 0H1920V703H0V0Z" fill="#93C7C3"/>
<g opacity="0.2">
<path opacity="0.2" d="M0 163.54L0.109619 595.865L1920 599.789V170.997L1806.19 228.214L1598.41 103.169L1296.6 245.464L1123.31 183.884L966.226 242.014L909.339 266.484L730.862 184.382L623.232 261.137L536.393 216.322L323.63 261.137L190.656 217.697L93.504 299.551L0 163.54Z" fill="#138999"/>
</g>
<g opacity="0.2">
<path opacity="0.2" d="M0.000244141 317.266L0.0413818 592.276L1919.55 593.082V319.531L1807.02 380.185L1539.58 317.539L1365.87 327.012L996.755 314.527L810.035 433.928L614.62 430.028L424.677 324.119L238.149 393.867L149.033 354.339L68.0231 415.694L0.000244141 317.266Z" fill="#138999"/>
</g>
<g opacity="0.9">
<path opacity="0.9" d="M481 253.268L656.464 254.306C664.923 243.948 649.96 230.619 638.361 237.095C637.23 228.723 627.579 223.48 618.131 221.554C609.747 219.298 602.921 218.876 596.56 224.563C594.836 220.148 589.921 221.141 583.822 220.667C575.932 220.11 567.48 221.569 561.666 229.257C552.473 221.803 536.371 232.003 524.203 239.698C516.44 225.541 489.669 245.791 481 253.268Z" fill="white"/>
</g>
<g opacity="0.9">
<path opacity="0.9" d="M955.646 227.454L1115.83 227.371C1119.38 222.768 1108.01 217.043 1105.01 214.583C1096.71 207.746 1087.91 206.189 1078.41 211.244C1075.93 204.368 1064.62 203.368 1055.76 205.73C1048.85 207.687 1042.48 211.204 1037.13 216.013C1033.13 207.633 1014.1 208.987 1001.63 215.26C996.076 206.602 962.734 218.292 955.646 227.454Z" fill="white"/>
</g>
<path d="M0 487.863H1920V702.999H0V487.863Z" fill="#86949D"/>
<path d="M541.754 559.32C541.754 561.757 545.501 563.743 550.213 563.743H876.678C881.354 563.743 885.137 561.757 885.137 559.32V550.496C885.137 548.052 881.354 546.073 876.678 546.073H550.191C545.515 546.073 541.732 548.052 541.732 550.496L541.754 559.32Z" fill="#6A777F"/>
<path d="M572.415 482.299C572.39 482.762 572.549 483.217 572.856 483.563C573.163 483.91 573.594 484.12 574.056 484.149C574.516 484.12 574.947 483.909 575.253 483.563C575.559 483.216 575.716 482.761 575.689 482.299V438.038C575.716 437.575 575.559 437.12 575.253 436.772C574.947 436.424 574.517 436.211 574.056 436.18C573.593 436.209 573.161 436.421 572.853 436.769C572.546 437.117 572.388 437.574 572.415 438.038V482.299Z" fill="#907669"/>
<path d="M574.055 436.18V484.149C573.594 484.12 573.163 483.91 572.856 483.563C572.549 483.217 572.39 482.762 572.415 482.299V438.038C572.388 437.574 572.546 437.117 572.853 436.769C573.161 436.421 573.593 436.209 574.055 436.18Z" fill="#907669"/>
<path d="M552.245 444.592C552.245 463.398 571.501 468.272 571.501 468.272C571.501 468.272 590.757 463.39 590.757 444.592C590.757 425.794 571.501 400.174 571.501 400.174C571.501 400.174 552.245 425.787 552.245 444.592Z" fill="#BDCA6F"/>
<path d="M556.47 444.592C556.47 463.398 575.719 468.272 575.719 468.272C575.719 468.272 594.953 463.39 594.953 444.592C594.953 425.794 575.689 400.174 575.689 400.174C575.689 400.174 556.47 425.787 556.47 444.592Z" fill="#A1BA38"/>
<g opacity="0.1">
<path opacity="0.1" d="M575.719 400.174C575.719 400.174 532.913 453.582 575.719 468.273C575.719 468.303 555.953 445.48 575.719 400.174Z" fill="white"/>
</g>
<g opacity="0.1">
<path opacity="0.1" d="M575.719 400.174C575.719 400.174 619.551 453.145 575.719 468.273C575.719 468.303 595.237 438.123 575.719 400.174Z" fill="black"/>
</g>
<path d="M575.719 400.174H571.493L573.591 403.092L575.719 400.174Z" fill="#BDCA6F"/>
<path d="M575.719 468.284H571.493L573.591 467.592L575.719 468.284Z" fill="#BDCA6F"/>
<path d="M545.501 482.107C545.486 482.404 545.589 482.696 545.787 482.918C545.984 483.14 546.261 483.276 546.557 483.295C546.853 483.276 547.129 483.14 547.325 482.918C547.522 482.695 547.623 482.404 547.607 482.107V453.643C547.623 453.346 547.522 453.054 547.325 452.832C547.129 452.609 546.853 452.473 546.557 452.454C546.26 452.472 545.983 452.606 545.784 452.829C545.586 453.052 545.484 453.345 545.501 453.643V482.107Z" fill="#907669"/>
<path d="M546.58 452.454V483.295C546.284 483.276 546.007 483.14 545.81 482.918C545.612 482.696 545.509 482.404 545.524 482.107V453.643C545.507 453.345 545.609 453.052 545.807 452.829C546.005 452.606 546.283 452.472 546.58 452.454Z" fill="#907669"/>
<path d="M532.554 457.861C532.554 469.949 544.932 473.093 544.932 473.093C544.932 473.093 557.317 469.949 557.317 457.861C557.317 445.773 544.932 429.276 544.932 429.276C544.932 429.276 532.554 445.743 532.554 457.861Z" fill="#BDCA6F"/>
<path d="M535.274 457.861C535.274 469.949 547.651 473.093 547.651 473.093C547.651 473.093 560.044 469.949 560.044 457.861C560.044 445.773 547.651 429.276 547.651 429.276C547.651 429.276 535.274 445.743 535.274 457.861Z" fill="#A1BA38"/>
<g opacity="0.1">
<path opacity="0.1" d="M547.652 429.292C547.652 429.292 520.123 463.638 547.652 473.086C547.652 473.086 534.944 458.426 547.652 429.292Z" fill="white"/>
</g>
<g opacity="0.1">
<path opacity="0.1" d="M547.652 429.292C547.652 429.292 575.832 463.353 547.652 473.086C547.652 473.086 560.202 453.694 547.652 429.292Z" fill="black"/>
</g>
<path d="M547.652 429.292H544.932L546.288 431.173L547.652 429.292Z" fill="#BDCA6F"/>
<path d="M547.652 473.093H544.932L546.288 472.649L547.652 473.093Z" fill="#BDCA6F"/>
<path d="M479.393 482.299C479.368 482.762 479.527 483.217 479.834 483.563C480.141 483.91 480.572 484.12 481.034 484.149C481.494 484.12 481.925 483.909 482.231 483.563C482.537 483.216 482.694 482.761 482.667 482.299V438.038C482.694 437.575 482.537 437.12 482.231 436.772C481.925 436.424 481.495 436.211 481.034 436.18C480.572 436.211 480.141 436.424 479.834 436.771C479.526 437.119 479.368 437.574 479.393 438.038V482.299Z" fill="#907669"/>
<path d="M481.064 436.18V484.149C480.602 484.12 480.171 483.91 479.864 483.563C479.557 483.217 479.398 482.762 479.423 482.299V438.038C479.398 437.574 479.556 437.119 479.863 436.771C480.171 436.424 480.602 436.211 481.064 436.18Z" fill="#907669"/>
<path d="M459.215 444.592C459.215 463.398 478.479 468.272 478.479 468.272C478.479 468.272 497.735 463.39 497.735 444.592C497.735 425.794 478.479 400.174 478.479 400.174C478.479 400.174 459.215 425.787 459.215 444.592Z" fill="#BDCA6F"/>
<path d="M463.448 444.592C463.448 463.398 482.705 468.272 482.705 468.272C482.705 468.272 501.968 463.39 501.968 444.592C501.968 425.794 482.705 400.174 482.705 400.174C482.705 400.174 463.448 425.787 463.448 444.592Z" fill="#A1BA38"/>
<g opacity="0.1">
<path opacity="0.1" d="M482.705 400.174C482.705 400.174 439.899 453.582 482.705 468.273C482.705 468.303 462.939 445.48 482.705 400.174Z" fill="white"/>
</g>
<g opacity="0.1">
<path opacity="0.1" d="M482.705 400.174C482.705 400.174 526.53 453.145 482.705 468.273C482.705 468.303 502.223 438.123 482.705 400.174Z" fill="black"/>
</g>
<path d="M482.705 400.174H478.479L480.577 403.092L482.705 400.174Z" fill="#BDCA6F"/>
<path d="M482.705 468.284H478.479L480.577 467.592L482.705 468.284Z" fill="#BDCA6F"/>
<path d="M452.502 482.107C452.487 482.406 452.591 482.698 452.79 482.921C452.989 483.143 453.268 483.278 453.566 483.295C453.861 483.276 454.136 483.14 454.331 482.917C454.526 482.694 454.626 482.403 454.607 482.107V453.643C454.626 453.346 454.526 453.055 454.331 452.832C454.136 452.609 453.861 452.473 453.566 452.454C453.418 452.462 453.273 452.499 453.14 452.563C453.006 452.627 452.887 452.716 452.788 452.827C452.689 452.937 452.613 453.066 452.564 453.206C452.515 453.346 452.493 453.494 452.502 453.643V482.107Z" fill="#907669"/>
<path d="M453.566 452.454V483.295C453.268 483.278 452.99 483.143 452.79 482.921C452.591 482.698 452.487 482.406 452.502 482.107V453.643C452.494 453.494 452.515 453.346 452.564 453.206C452.613 453.066 452.689 452.937 452.788 452.827C452.887 452.716 453.006 452.627 453.14 452.563C453.273 452.499 453.418 452.462 453.566 452.454Z" fill="#907669"/>
<path d="M439.532 457.861C439.532 469.949 451.917 473.093 451.917 473.093C451.917 473.093 464.303 469.949 464.303 457.861C464.303 445.773 451.917 429.276 451.917 429.276C451.917 429.276 439.532 445.743 439.532 457.861Z" fill="#BDCA6F"/>
<path d="M442.252 457.861C442.252 469.949 454.63 473.093 454.63 473.093C454.63 473.093 467.023 469.949 467.023 457.861C467.023 445.773 454.63 429.276 454.63 429.276C454.63 429.276 442.252 445.743 442.252 457.861Z" fill="#A1BA38"/>
<g opacity="0.1">
<path opacity="0.1" d="M454.629 429.292C454.629 429.292 427.109 463.638 454.629 473.086C454.629 473.086 441.922 458.426 454.629 429.292Z" fill="white"/>
</g>
<g opacity="0.1">
<path opacity="0.1" d="M454.629 429.292C454.629 429.292 482.817 463.353 454.629 473.086C454.629 473.086 467.187 453.694 454.629 429.292Z" fill="black"/>
</g>
<path d="M454.629 429.292H451.917L453.266 431.173L454.629 429.292Z" fill="#BDCA6F"/>
<path d="M454.629 473.093H451.917L453.266 472.649L454.629 473.093Z" fill="#BDCA6F"/>
<path d="M1415.37 483.91C1415.34 484.374 1415.5 484.829 1415.81 485.175C1416.12 485.521 1416.55 485.732 1417.01 485.761C1417.47 485.73 1417.9 485.518 1418.21 485.172C1418.51 484.826 1418.67 484.372 1418.65 483.91V439.649C1418.67 439.186 1418.52 438.731 1418.21 438.383C1417.91 438.035 1417.48 437.822 1417.01 437.792C1416.55 437.821 1416.12 438.032 1415.81 438.38C1415.5 438.728 1415.34 439.184 1415.37 439.649V483.91Z" fill="#907669"/>
<path d="M1417.01 437.792V485.761C1416.55 485.732 1416.12 485.521 1415.81 485.175C1415.5 484.829 1415.34 484.374 1415.37 483.91V439.649C1415.34 439.184 1415.5 438.728 1415.81 438.38C1416.12 438.032 1416.55 437.821 1417.01 437.792Z" fill="#907669"/>
<path d="M1395.17 446.197C1395.17 465.002 1414.43 469.884 1414.43 469.884C1414.43 469.884 1433.69 465.002 1433.69 446.197C1433.69 427.391 1414.43 401.815 1414.43 401.815C1414.43 401.815 1395.17 427.398 1395.17 446.197Z" fill="#BDCA6F"/>
<path d="M1399.43 446.197C1399.43 465.002 1418.68 469.884 1418.68 469.884C1418.68 469.884 1437.94 465.002 1437.94 446.197C1437.94 427.391 1418.68 401.815 1418.68 401.815C1418.68 401.815 1399.43 427.398 1399.43 446.197Z" fill="#A1BA38"/>
<g opacity="0.1">
<path opacity="0.1" d="M1418.68 401.786C1418.68 401.786 1375.87 455.193 1418.68 469.884C1418.68 469.884 1398.92 447.092 1418.68 401.786Z" fill="white"/>
</g>
<g opacity="0.1">
<path opacity="0.1" d="M1418.68 401.786C1418.68 401.786 1462.51 454.75 1418.68 469.884C1418.68 469.884 1438.2 439.72 1418.68 401.786Z" fill="black"/>
</g>
<path d="M1418.68 401.786H1414.45L1416.55 404.704L1418.68 401.786Z" fill="#BDCA6F"/>
<path d="M1418.68 469.878H1414.45L1416.55 469.178L1418.68 469.878Z" fill="#BDCA6F"/>
<path d="M1388.48 483.718C1388.47 484.016 1388.57 484.309 1388.77 484.531C1388.96 484.754 1389.24 484.889 1389.54 484.907C1389.83 484.887 1390.11 484.751 1390.31 484.529C1390.5 484.306 1390.6 484.015 1390.59 483.718V455.254C1390.6 454.957 1390.5 454.666 1390.31 454.443C1390.11 454.22 1389.83 454.085 1389.54 454.065C1389.24 454.083 1388.96 454.218 1388.77 454.441C1388.57 454.663 1388.47 454.956 1388.48 455.254V483.718Z" fill="#907669"/>
<path d="M1389.54 454.065V484.907C1389.24 484.889 1388.96 484.754 1388.77 484.531C1388.57 484.309 1388.47 484.016 1388.48 483.718V455.254C1388.47 454.956 1388.57 454.663 1388.77 454.441C1388.96 454.218 1389.24 454.083 1389.54 454.065Z" fill="#907669"/>
<path d="M1375.51 459.472C1375.51 471.56 1387.89 474.697 1387.89 474.697C1387.89 474.697 1400.28 471.56 1400.28 459.472C1400.28 447.384 1387.89 430.888 1387.89 430.888C1387.89 430.888 1375.51 447.376 1375.51 459.472Z" fill="#BDCA6F"/>
<path d="M1378.23 459.472C1378.23 471.56 1390.61 474.697 1390.61 474.697C1390.61 474.697 1403 471.56 1403 459.472C1403 447.384 1390.61 430.888 1390.61 430.888C1390.61 430.888 1378.23 447.376 1378.23 459.472Z" fill="#A1BA38"/>
<g opacity="0.1">
<path opacity="0.1" d="M1390.61 430.903C1390.61 430.903 1363.08 465.242 1390.61 474.69C1390.61 474.69 1377.9 460.029 1390.61 430.903Z" fill="white"/>
</g>
<g opacity="0.1">
<path opacity="0.1" d="M1390.61 430.903C1390.61 430.903 1418.79 464.964 1390.61 474.69C1390.61 474.69 1403.16 455.305 1390.61 430.903Z" fill="black"/>
</g>
<path d="M1390.61 430.903H1387.89L1389.24 432.784L1390.61 430.903Z" fill="#BDCA6F"/>
<path d="M1390.61 474.697H1387.89L1389.24 474.261L1390.61 474.697Z" fill="#BDCA6F"/>
<path d="M1322.35 483.91C1322.33 484.373 1322.49 484.826 1322.8 485.172C1323.1 485.518 1323.53 485.73 1323.99 485.761C1324.45 485.73 1324.88 485.518 1325.19 485.172C1325.49 484.826 1325.65 484.372 1325.63 483.91V439.649C1325.65 439.186 1325.5 438.731 1325.19 438.383C1324.88 438.035 1324.45 437.822 1323.99 437.792C1323.53 437.822 1323.1 438.035 1322.79 438.383C1322.49 438.73 1322.33 439.185 1322.35 439.649V483.91Z" fill="#907669"/>
<path d="M1323.99 437.792V485.761C1323.53 485.73 1323.1 485.518 1322.8 485.172C1322.49 484.826 1322.33 484.373 1322.35 483.91V439.649C1322.33 439.185 1322.49 438.73 1322.79 438.383C1323.1 438.035 1323.53 437.822 1323.99 437.792Z" fill="#907669"/>
<path d="M1302.17 446.197C1302.17 465.002 1321.44 469.884 1321.44 469.884C1321.44 469.884 1340.69 465.002 1340.69 446.197C1340.69 427.391 1321.44 401.815 1321.44 401.815C1321.44 401.815 1302.17 427.398 1302.17 446.197Z" fill="#BDCA6F"/>
<path d="M1306.41 446.197C1306.41 465.002 1325.66 469.884 1325.66 469.884C1325.66 469.884 1344.93 465.002 1344.93 446.197C1344.93 427.391 1325.66 401.815 1325.66 401.815C1325.66 401.815 1306.41 427.398 1306.41 446.197Z" fill="#A1BA38"/>
<g opacity="0.1">
<path opacity="0.1" d="M1325.66 401.786C1325.66 401.786 1282.86 455.193 1325.66 469.884C1325.66 469.884 1305.9 447.092 1325.66 401.786Z" fill="white"/>
</g>
<g opacity="0.1">
<path opacity="0.1" d="M1325.66 401.786C1325.66 401.786 1369.49 454.75 1325.66 469.884C1325.66 469.884 1345.18 439.72 1325.66 401.786Z" fill="black"/>
</g>
<path d="M1325.66 401.786H1321.44L1323.53 404.704L1325.66 401.786Z" fill="#BDCA6F"/>
<path d="M1325.66 469.878H1321.44L1323.53 469.178L1325.66 469.878Z" fill="#BDCA6F"/>
<path d="M1295.46 483.718C1295.45 484.017 1295.55 484.309 1295.75 484.532C1295.95 484.754 1296.23 484.889 1296.52 484.907C1296.82 484.887 1297.09 484.751 1297.29 484.528C1297.49 484.306 1297.58 484.014 1297.57 483.718V455.254C1297.58 454.958 1297.49 454.666 1297.29 454.444C1297.09 454.221 1296.82 454.085 1296.52 454.065C1296.38 454.073 1296.23 454.11 1296.1 454.174C1295.97 454.238 1295.85 454.328 1295.75 454.438C1295.65 454.548 1295.57 454.677 1295.52 454.817C1295.47 454.957 1295.45 455.106 1295.46 455.254V483.718Z" fill="#907669"/>
<path d="M1296.52 454.065V484.907C1296.23 484.889 1295.95 484.754 1295.75 484.532C1295.55 484.309 1295.45 484.017 1295.46 483.718V455.254C1295.45 455.106 1295.47 454.957 1295.52 454.817C1295.57 454.677 1295.65 454.548 1295.75 454.438C1295.85 454.328 1295.97 454.238 1296.1 454.174C1296.23 454.11 1296.38 454.073 1296.52 454.065Z" fill="#907669"/>
<path d="M1282.49 459.472C1282.49 471.56 1294.88 474.697 1294.88 474.697C1294.88 474.697 1307.25 471.56 1307.25 459.472C1307.25 447.384 1294.88 430.888 1294.88 430.888C1294.88 430.888 1282.49 447.376 1282.49 459.472Z" fill="#BDCA6F"/>
<path d="M1285.21 459.472C1285.21 471.56 1297.59 474.697 1297.59 474.697C1297.59 474.697 1309.98 471.56 1309.98 459.472C1309.98 447.384 1297.59 430.888 1297.59 430.888C1297.59 430.888 1285.21 447.376 1285.21 459.472Z" fill="#A1BA38"/>
<g opacity="0.1">
<path opacity="0.1" d="M1297.59 430.903C1297.59 430.903 1270.07 465.242 1297.59 474.69C1297.59 474.69 1284.88 460.029 1297.59 430.903Z" fill="white"/>
</g>
<g opacity="0.1">
<path opacity="0.1" d="M1297.59 430.903C1297.59 430.903 1325.78 464.964 1297.59 474.69C1297.59 474.69 1310.15 455.305 1297.59 430.903Z" fill="black"/>
</g>
<path d="M1297.59 430.903H1294.88L1296.22 432.784L1297.59 430.903Z" fill="#BDCA6F"/>
<path d="M1297.59 474.697H1294.88L1296.22 474.261L1297.59 474.697Z" fill="#BDCA6F"/>
<path d="M616.449 343.346H689.892V485.779H616.449V343.346Z" fill="#0E738E"/>
<g opacity="0.2">
<path opacity="0.2" d="M903.412 437.295L843.605 481.781H766.333L836.218 436.746L903.412 437.295Z" fill="white"/>
</g>
<path d="M782.712 342.414H1084V482.891H782.712V342.414Z" fill="#5FAFB7"/>
<path d="M782.54 437.923H1083.6V440.834H782.54V437.923Z" fill="#90D0D3"/>
<g opacity="0.8">
<path opacity="0.8" d="M782.495 462.852H826.394V455.337H856.665V464.522H888.456V452.832H933.87V460.76H954.557V455.758H984.828V464.935H1016.61V453.246H1062.02V461.182H1083.72V483.718L782.495 482.47V462.852Z" fill="#5CAEB7"/>
</g>
<g opacity="0.8">
<path opacity="0.8" d="M782.974 402.382H826.807V396.77H857.025V403.638H888.764V394.897H934.102V400.824H954.759V397.086H984.985V403.946H1016.72V395.205H1062.05V401.133H1083.72V417.975L782.974 417.042V402.382Z" fill="#5CAEB7"/>
</g>
<path d="M1065.77 342.21H1067.73V483.635H1065.77V342.21Z" fill="#90D0D3"/>
<path d="M1042.33 342.21H1044.28V483.635H1042.33V342.21Z" fill="#90D0D3"/>
<path d="M1016.93 342.21H1018.88V483.635H1016.93V342.21Z" fill="#90D0D3"/>
<path d="M993.482 342.21H995.438V483.635H993.482V342.21Z" fill="#90D0D3"/>
<path d="M968.074 342.21H970.037V483.635H968.074V342.21Z" fill="#90D0D3"/>
<path d="M944.637 342.21H946.585V483.635H944.637V342.21Z" fill="#90D0D3"/>
<path d="M919.237 342.21H921.193V483.635H919.237V342.21Z" fill="#90D0D3"/>
<path d="M895.785 342.21H897.748V483.635H895.785V342.21Z" fill="#90D0D3"/>
<path d="M870.4 342.21H872.348V483.635H870.4V342.21Z" fill="#90D0D3"/>
<path d="M846.947 342.21H848.903V483.635H846.947V342.21Z" fill="#90D0D3"/>
<path d="M821.547 342.21H823.51V483.635H821.547V342.21Z" fill="#90D0D3"/>
<path d="M798.102 342.21H800.057V483.635H798.102V342.21Z" fill="#90D0D3"/>
<path d="M782.705 417.607H1083.6V419.984H782.705V417.607Z" fill="#90D0D3"/>
<path d="M782.705 391.716H1083.6V394.093H782.705V391.716Z" fill="#90D0D3"/>
<path d="M782.705 366.606H1083.6V368.983H782.705V366.606Z" fill="#90D0D3"/>
<path d="M782.54 459.847H1083.6V462.758H782.54V459.847Z" fill="#90D0D3"/>
<g opacity="0.2">
<path opacity="0.2" d="M1073.28 342.749L935.137 482.895H841.658L983.967 343.283L1073.28 342.749Z" fill="white"/>
</g>
<g opacity="0.1">
<path opacity="0.1" d="M940.973 342.938L782.39 483.25V434.536L880.469 342.938H940.973Z" fill="white"/>
</g>
<g opacity="0.1">
<path opacity="0.1" d="M861.13 342.938L782.39 421.696V394.352L831.085 342.938H861.13Z" fill="white"/>
</g>
<path d="M782.705 323.784H1079.18V342.417H782.705V323.784Z" fill="#C8CBCC"/>
<g opacity="0.2">
<path opacity="0.2" d="M930.506 437.295L870.699 481.781H793.427L863.304 436.746L930.506 437.295Z" fill="white"/>
</g>
<path d="M809.799 342.414H1111.09V482.891H809.799V342.414Z" fill="#81D0DE"/>
<path d="M809.641 437.923H1110.7V440.834H809.641V437.923Z" fill="#AEE7ED"/>
<g opacity="0.8">
<path opacity="0.8" d="M809.589 462.852H853.489V455.337H883.759V464.522H915.551V452.832H960.957V460.76H981.644V455.758H1011.92V464.935H1043.71V453.246H1089.11V461.182H1110.81V483.718L809.589 482.47V462.852Z" fill="#5CAEB7"/>
</g>
<g opacity="0.8">
<path opacity="0.8" d="M809.589 402.382H853.489V396.77H883.759V403.638H915.551V394.897H960.957V400.824H981.644V397.086H1011.92V403.946H1043.71V395.205H1089.11V401.133H1110.81V417.975L809.589 417.042V402.382Z" fill="#5CAEB7"/>
</g>
<path d="M1092.86 342.21H1094.81V483.635H1092.86V342.21Z" fill="#AEE7ED"/>
<path d="M1069.42 342.21H1071.37V483.635H1069.42V342.21Z" fill="#AEE7ED"/>
<path d="M1044.02 342.21H1045.98V483.635H1044.02V342.21Z" fill="#AEE7ED"/>
<path d="M1020.58 342.21H1022.53V483.635H1020.58V342.21Z" fill="#AEE7ED"/>
<path d="M995.168 342.21H997.123V483.635H995.168V342.21Z" fill="#AEE7ED"/>
<path d="M971.731 342.21H973.679V483.635H971.731V342.21Z" fill="#AEE7ED"/>
<path d="M946.33 342.21H948.286V483.635H946.33V342.21Z" fill="#AEE7ED"/>
<path d="M922.878 342.21H924.842V483.635H922.878V342.21Z" fill="#AEE7ED"/>
<path d="M897.485 342.21H899.441V483.635H897.485V342.21Z" fill="#AEE7ED"/>
<path d="M874.04 342.21H875.996V483.635H874.04V342.21Z" fill="#AEE7ED"/>
<path d="M848.633 342.21H850.596V483.635H848.633V342.21Z" fill="#AEE7ED"/>
<path d="M825.196 342.21H827.152V483.635H825.196V342.21Z" fill="#AEE7ED"/>
<path d="M809.799 417.607H1110.7V419.984H809.799V417.607Z" fill="#AEE7ED"/>
<path d="M809.799 391.716H1110.7V394.093H809.799V391.716Z" fill="#AEE7ED"/>
<path d="M809.799 366.606H1110.7V368.983H809.799V366.606Z" fill="#AEE7ED"/>
<path d="M809.641 459.847H1110.7V462.758H809.641V459.847Z" fill="#AEE7ED"/>
<g opacity="0.2">
<path opacity="0.2" d="M1100.37 342.749L962.23 482.895H868.743L1011.06 343.283L1100.37 342.749Z" fill="white"/>
</g>
<g opacity="0.2">
<path opacity="0.2" d="M968.779 342.586L809.799 482.898V434.185L908.125 342.586H968.779Z" fill="white"/>
</g>
<path d="M809.799 323.784H1106.28V342.417H809.799V323.784Z" fill="#EAEAEA"/>
<g opacity="0.2">
<path opacity="0.2" d="M809.821 342.632H1105.69V350.508H809.821V342.632Z" fill="black"/>
</g>
<path d="M1270.61 417.784H1276.79V484.581H1270.61V417.784Z" fill="#EAEAEA"/>
<path d="M1270.3 417.784H1273.78V484.581H1270.3V417.784Z" fill="#CECECE"/>
<path d="M1105.84 296.308H1184.16V483.393H1105.84V296.308Z" fill="#0E738E"/>
<path d="M1099.16 237.056H1193.45L1202.36 162.15H1090.25L1099.16 237.056Z" fill="#C5EDEF"/>
<path d="M1099.16 237.056H1142.77L1141.66 162.15H1090.25L1099.16 237.056Z" fill="#95DBDB"/>
<path d="M1180.08 237.056L1189.18 162.15H1104.91L1112.15 237.056H1180.08Z" fill="#AEE7ED"/>
<path d="M1117.91 146.488H1174.33V154.318H1117.91V146.488Z" fill="#E6E8E8"/>
<path d="M1117.91 146.488H1164.68V154.318H1117.91V146.488Z" fill="#B2B2B2"/>
<path d="M1128.3 146.488H1164.68V154.318H1128.3V146.488Z" fill="#D4D6D6"/>
<path d="M1134.23 101.397H1159.11V146.493H1134.23V101.397Z" fill="#D1D3D3"/>
<path d="M1134.23 101.397H1153.17V146.493H1134.23V101.397Z" fill="#8D8E8E"/>
<path d="M1141.28 101.397H1153.17V146.493H1141.28V101.397Z" fill="#B2B2B2"/>
<path d="M1126.81 96.1812H1165.79V103.169H1126.81V96.1812Z" fill="#8D8E8E"/>
<path d="M1091.47 172.959H1201.32L1201.22 173.794H1091.57L1091.47 172.959Z" fill="#83C4C2"/>
<path d="M1093.07 186.359H1199.73L1199.62 187.201H1093.17L1093.07 186.359Z" fill="#83C4C2"/>
<path d="M1094.66 199.783H1198.13L1198.03 200.618H1094.77L1094.66 199.783Z" fill="#83C4C2"/>
<path d="M1096.26 213.196H1196.53L1196.44 214.039H1096.36L1096.26 213.196Z" fill="#83C4C2"/>
<path d="M1097.86 226.621H1194.94L1194.84 227.456H1097.96L1097.86 226.621Z" fill="#83C4C2"/>
<path d="M1173.93 161.502L1174.76 161.598L1165.72 241.299L1164.88 241.204L1173.93 161.502Z" fill="#83C4C2"/>
<path d="M1119.96 160.679L1128.61 240.423L1127.78 240.515L1119.12 160.77L1119.96 160.679Z" fill="#83C4C2"/>
<path d="M1104.16 161.539L1113.22 241.238L1112.38 241.334L1103.32 161.634L1104.16 161.539Z" fill="#83C4C2"/>
<path d="M1179.82 242.358L1180.65 242.448L1189.35 162.705L1188.51 162.615L1179.82 242.358Z" fill="#83C4C2"/>
<path d="M1147.41 160.188H1148.53V240.969H1147.41V160.188Z" fill="#83C4C2"/>
<path d="M1082.82 154.319H1210.89V163.263H1082.82V154.319Z" fill="#2EABBF"/>
<path d="M1082.82 154.319H1189.18V163.263H1082.82V154.319Z" fill="#16707F"/>
<path d="M1104.82 154.319H1189.18V163.263H1104.82V154.319Z" fill="#1C8BA5"/>
<path d="M1099.16 237.053H1193.63V249.352H1099.16V237.053Z" fill="#62B9D3"/>
<path d="M1099.16 237.053H1180.08V249.352H1099.16V237.053Z" fill="#2D819B"/>
<path d="M1112.15 237.053H1180.08V249.352H1112.15V237.053Z" fill="#479DBE"/>
<g opacity="0.2">
<path opacity="0.2" d="M1189.18 163.259L1112.15 237.052L1109 205.933L1155.02 163.079L1189.18 163.259Z" fill="white"/>
</g>
<g opacity="0.2">
<path opacity="0.2" d="M1186.4 186.736L1134.42 236.856L1160.22 237.233L1183.42 213.191L1186.4 186.736Z" fill="white"/>
</g>
<path d="M1126.64 296.308H1186.76V483.393H1126.64V296.308Z" fill="#2EA8BC"/>
<path d="M1125.86 296.308H1166.33V483.393H1125.86V296.308Z" fill="#1C8BA5"/>
<path d="M1085.61 248.794H1208.11V314.719H1085.61V248.794Z" fill="#D4D6D6"/>
<path d="M1180.27 248.794H1208.11V314.561H1180.27V248.794Z" fill="#E6E8E8"/>
<path d="M1084.5 248.794H1112.33V314.719H1084.5V248.794Z" fill="#C1C1C1"/>
<path d="M1086.67 397.268H1257.77V483.517H1086.67V397.268Z" fill="#19A8C6"/>
<path d="M1061.84 397.268H1087.38V483.54H1061.84V397.268Z" fill="#1B8F9E"/>
<path d="M1054.54 439.607H1083.06V442.646H1054.54V439.607Z" fill="#D4D6D6"/>
<path d="M1040.27 439.607H1068.79V442.646H1040.27V439.607Z" fill="#9E9E9E"/>
<path d="M1061.82 442.659H1082.92V478.864H1061.82V442.659Z" fill="#13858E"/>
<g opacity="0.2">
<path opacity="0.2" d="M1064.4 442.659H1082.92V478.864H1064.4V442.659Z" fill="black"/>
</g>
<path d="M1069.24 475.672H1082.99V479.795H1069.24V475.672Z" fill="#393F42"/>
<path d="M1058.01 475.672H1069.27V479.795H1058.01V475.672Z" fill="#1A2428"/>
<path d="M1063.24 479.712H1082.99V483.601H1063.24V479.712Z" fill="#393F42"/>
<path d="M1051.83 479.712H1064.57V483.601H1051.83V479.712Z" fill="#1A2428"/>
<path d="M1087.15 396.32H1276.79V419.225H1087.15V396.32Z" fill="#EAEAEA"/>
<path d="M1087.15 412.058H1276.79V419.212H1087.15V412.058Z" fill="#CECECE"/>
<path d="M1060.41 396.32H1087.15V419.225H1060.41V396.32Z" fill="#CECECE"/>
<path d="M1060.41 412.058H1087.15V419.212H1060.41V412.058Z" fill="#B5B5B5"/>
<g opacity="0.2">
<path opacity="0.2" d="M1061.73 418.973H1257.78V425.42H1061.73V418.973Z" fill="black"/>
</g>
<path d="M1132.68 439.81H1220.62V483.371H1132.68V439.81Z" fill="#34C3D6"/>
<path d="M1202.28 439.81H1203.69V483.146H1202.28V439.81Z" fill="#19A8C6"/>
<path d="M1176.89 439.81H1178.3V483.146H1176.89V439.81Z" fill="#19A8C6"/>
<path d="M1150.09 439.81H1151.5V483.146H1150.09V439.81Z" fill="#19A8C6"/>
<path d="M1128.95 432.3H1229.52V440.958H1128.95V432.3Z" fill="#EAEAEA"/>
<path d="M1122.06 432.3H1137V440.958H1122.06V432.3Z" fill="#CECECE"/>
<g opacity="0.2">
<path opacity="0.2" d="M1132.54 441.105H1220.62V445.716H1132.54V441.105Z" fill="black"/>
</g>
<g opacity="0.1">
<path opacity="0.1" d="M1220.62 483.364L1132.55 441.104L1170.33 440.667L1220.62 461.73V483.364Z" fill="white"/>
</g>
<g opacity="0.2">
<path opacity="0.2" d="M1200.22 483.368L1132.69 455.243V470.528L1160.56 483.511L1200.22 483.368Z" fill="white"/>
</g>
<path d="M794.85 376.037H804.598V444.745H794.85V376.037Z" fill="#1C8BA5"/>
<path d="M785.709 376.037H794.858V444.753H785.709V376.037Z" fill="#157382"/>
<path d="M692.762 381.529H790.572V438.314H692.762V381.529Z" fill="#EAEAEA"/>
<path d="M633.51 343.346H697.948V485.779H633.51V343.346Z" fill="#1C8BA5"/>
<path d="M633.502 342.632H704.271V350.508H633.502V342.632Z" fill="#19A8C6"/>
<path d="M611.692 342.632H633.465V350.508H611.692V342.632Z" fill="#1B8F9E"/>
<path d="M782.517 381.631H783.671V438.176H782.517V381.631Z" fill="#C8CBCC"/>
<path d="M773.309 381.631H774.463V438.176H773.309V381.631Z" fill="#C8CBCC"/>
<path d="M762.954 381.631H764.108V438.176H762.954V381.631Z" fill="#C8CBCC"/>
<path d="M752.599 381.631H753.753V438.176H752.599V381.631Z" fill="#C8CBCC"/>
<path d="M743.391 381.631H744.545V438.176H743.391V381.631Z" fill="#C8CBCC"/>
<path d="M733.036 381.631H734.189V438.176H733.036V381.631Z" fill="#C8CBCC"/>
<path d="M721.535 381.631H722.681V438.176H721.535V381.631Z" fill="#C8CBCC"/>
<path d="M712.326 381.631H713.48V438.176H712.326V381.631Z" fill="#C8CBCC"/>
<path d="M701.979 381.631H703.125V438.176H701.979V381.631Z" fill="#C8CBCC"/>
<path d="M698.089 433.346H790.572V438.175H698.089V433.346Z" fill="#C8CBCC"/>
<path d="M698.089 381.631H790.572V384.422H698.089V381.631Z" fill="#C8CBCC"/>
<g opacity="0.1">
<path opacity="0.1" d="M697.947 381.631L698.09 438.176H738.797L697.947 381.631Z" fill="black"/>
</g>
<path d="M633.48 367.814H689.398V383.904H633.48V367.814Z" fill="#81D0DE"/>
<g opacity="0.2">
<path opacity="0.2" d="M661.728 383.915H685.704L689.428 367.682H665.452L661.728 383.915Z" fill="white"/>
</g>
<g opacity="0.2">
<path opacity="0.2" d="M689.428 367.682L657.03 383.772L633.645 383.915L659.66 367.817L689.428 367.682Z" fill="white"/>
</g>
<g opacity="0.2">
<path opacity="0.2" d="M648.301 367.814L633.533 376.502L633.555 367.821L648.301 367.814Z" fill="white"/>
</g>
<g opacity="0.1">
<path opacity="0.1" d="M633.503 383.915H689.398V387.841H633.503V383.915Z" fill="black"/>
</g>
<path d="M618.337 367.814H633.517V383.904H618.337V367.814Z" fill="#61B3BC"/>
<g opacity="0.1">
<path opacity="0.1" d="M618.322 383.915H633.517V387.841H618.322V383.915Z" fill="black"/>
</g>
<path d="M618.337 395.015H633.517V411.104H618.337V395.015Z" fill="#61B3BC"/>
<g opacity="0.1">
<path opacity="0.1" d="M618.322 411.101H633.517V415.027H618.322V411.101Z" fill="black"/>
</g>
<path d="M618.337 422.215H633.517V438.305H618.337V422.215Z" fill="#61B3BC"/>
<g opacity="0.1">
<path opacity="0.1" d="M618.322 438.301H633.517V442.228H618.322V438.301Z" fill="black"/>
</g>
<path d="M633.48 395.015H689.398V411.104H633.48V395.015Z" fill="#81D0DE"/>
<g opacity="0.2">
<path opacity="0.2" d="M661.728 411.108H685.704L689.428 394.882H665.452L661.728 411.108Z" fill="white"/>
</g>
<g opacity="0.2">
<path opacity="0.2" d="M689.428 394.882L657.03 410.965L633.645 411.108L659.66 395.018L689.428 394.882Z" fill="white"/>
</g>
<g opacity="0.2">
<path opacity="0.2" d="M648.301 395.015L633.735 403.492L633.555 395.015H648.301Z" fill="white"/>
</g>
<g opacity="0.1">
<path opacity="0.1" d="M633.6 411.101H689.398V415.027H633.6V411.101Z" fill="black"/>
</g>
<path d="M633.48 422.215H689.398V438.305H633.48V422.215Z" fill="#81D0DE"/>
<g opacity="0.2">
<path opacity="0.2" d="M661.728 438.315H685.704L689.428 422.082H665.452L661.728 438.315Z" fill="white"/>
</g>
<g opacity="0.2">
<path opacity="0.2" d="M689.428 422.082L657.03 438.172L633.645 438.315L659.66 422.225L689.428 422.082Z" fill="white"/>
</g>
<g opacity="0.2">
<path opacity="0.2" d="M648.301 422.215L633.735 430.693L633.555 422.215H648.301Z" fill="white"/>
</g>
<g opacity="0.1">
<path opacity="0.1" d="M633.6 438.301H689.398V442.228H633.6V438.301Z" fill="black"/>
</g>
<path d="M643.925 460.852H687.352V482.365H643.925V460.852Z" fill="#34C3D6"/>
<path d="M678.294 460.852H678.984V482.252H678.294V460.852Z" fill="#19A8C6"/>
<path d="M665.751 460.852H666.448V482.252H665.751V460.852Z" fill="#19A8C6"/>
<path d="M652.519 460.852H653.216V482.252H652.519V460.852Z" fill="#19A8C6"/>
<path d="M642.074 457.146H691.75V461.418H642.074V457.146Z" fill="#EAEAEA"/>
<path d="M638.673 457.146H646.053V461.418H638.673V457.146Z" fill="#CECECE"/>
<g opacity="0.2">
<path opacity="0.2" d="M643.85 461.504H687.352V463.783H643.85V461.504Z" fill="black"/>
</g>
<g opacity="0.1">
<path opacity="0.1" d="M687.352 482.37L643.85 461.503L662.514 461.285L687.352 471.688V482.37Z" fill="white"/>
</g>
<g opacity="0.2">
<path opacity="0.2" d="M677.275 482.372L643.917 468.479V476.031L657.689 482.44L677.275 482.372Z" fill="white"/>
</g>
<path d="M405.387 481.47H1454.37V491.249H405.387V481.47Z" fill="#546470"/>
<path d="M453.266 511.403L515.815 524.861L659.188 526.967L676.571 517.85L655.636 511.403H453.266Z" fill="#19A8C6"/>
<path d="M676.571 517.85L453.266 511.403L515.815 524.861L659.188 526.967L676.571 517.85Z" fill="#128B9B"/>
<path d="M487.807 518.449L586.906 520.277L578.484 525.768L514.436 525.309L487.807 518.449Z" fill="#0C7077"/>
<path d="M638.268 526.922L639.202 527.271L632.317 545.888L631.383 545.539L638.268 526.922Z" fill="#4D4D4D"/>
<path d="M638.256 526.862L638.726 527.037L631.844 545.655L631.374 545.48L638.256 526.862Z" fill="#646464"/>
<path d="M626.703 535.703L637.468 552.364L635.72 553.502L624.956 536.841L626.703 535.703Z" fill="#4D4D4D"/>
<path d="M636.612 552.888L635.736 553.459L624.976 536.79L625.86 536.218L636.612 552.888Z" fill="#646464"/>
<path d="M636.717 548.466C637.608 549.061 638.304 549.908 638.716 550.9C639.127 551.892 639.236 552.985 639.029 554.039C638.822 555.094 638.308 556.063 637.552 556.824C636.796 557.585 635.832 558.103 634.783 558.314C633.733 558.525 632.645 558.418 631.655 558.008C630.666 557.597 629.82 556.901 629.225 556.008C628.63 555.115 628.312 554.064 628.312 552.989C628.312 551.915 628.63 550.864 629.224 549.97C629.618 549.378 630.124 548.869 630.713 548.472C631.303 548.076 631.965 547.8 632.66 547.66C633.356 547.52 634.072 547.52 634.768 547.658C635.465 547.796 636.127 548.071 636.717 548.466Z" fill="#646464"/>
<path d="M638.088 548.464C638.98 549.059 639.675 549.906 640.087 550.898C640.499 551.891 640.608 552.983 640.401 554.037C640.193 555.092 639.679 556.061 638.924 556.822C638.168 557.583 637.204 558.101 636.154 558.312C635.104 558.523 634.016 558.416 633.026 558.006C632.037 557.595 631.191 556.899 630.596 556.006C630.001 555.113 629.683 554.062 629.683 552.987C629.683 551.913 630 550.862 630.595 549.969C631.391 548.773 632.627 547.943 634.032 547.661C635.437 547.379 636.895 547.668 638.088 548.464Z" fill="#393838"/>
<path d="M636.358 551.051C636.77 551.326 637.092 551.717 637.284 552.175C637.475 552.633 637.526 553.138 637.431 553.626C637.337 554.114 637.1 554.562 636.752 554.915C636.403 555.267 635.958 555.509 635.473 555.607C634.988 555.706 634.484 555.658 634.026 555.47C633.568 555.282 633.176 554.961 632.9 554.549C632.623 554.137 632.474 553.652 632.472 553.156C632.47 552.659 632.615 552.172 632.888 551.758C633.07 551.483 633.303 551.246 633.576 551.062C633.849 550.877 634.155 550.749 634.477 550.683C634.799 550.617 635.131 550.616 635.454 550.679C635.776 550.742 636.084 550.869 636.358 551.051Z" fill="#D1D1D1"/>
<path d="M635.556 552.227C635.722 552.347 635.85 552.513 635.923 552.705C635.997 552.897 636.013 553.107 635.969 553.308C635.925 553.508 635.824 553.692 635.678 553.836C635.531 553.98 635.346 554.077 635.145 554.117C634.944 554.156 634.736 554.135 634.546 554.057C634.357 553.979 634.194 553.847 634.078 553.678C633.963 553.508 633.899 553.308 633.895 553.102C633.891 552.897 633.948 552.695 634.057 552.521C634.133 552.399 634.234 552.295 634.352 552.214C634.47 552.133 634.603 552.077 634.743 552.049C634.884 552.022 635.028 552.023 635.168 552.054C635.307 552.085 635.439 552.144 635.556 552.227Z" fill="#393838"/>
<path d="M786.733 525.291L787.669 525.641L780.746 544.308L779.809 543.958L786.733 525.291Z" fill="#4D4D4D"/>
<path d="M783.057 544.388L782.577 544.215L789.478 525.597L789.942 525.778L783.057 544.388Z" fill="#646464"/>
<path d="M777.932 534.433L788.688 551.099L786.94 552.236L776.184 535.57L777.932 534.433Z" fill="#4D4D4D"/>
<path d="M779.466 531.903L790.148 548.584L789.26 549.157L778.578 532.476L779.466 531.903Z" fill="#646464"/>
<path d="M787.942 547.214C788.834 547.809 789.529 548.656 789.941 549.649C790.352 550.641 790.461 551.733 790.254 552.788C790.047 553.842 789.533 554.811 788.777 555.572C788.021 556.333 787.057 556.852 786.008 557.062C784.958 557.273 783.87 557.167 782.88 556.756C781.891 556.346 781.045 555.65 780.45 554.756C779.855 553.863 779.537 552.812 779.537 551.737C779.537 550.663 779.855 549.612 780.449 548.719C781.245 547.523 782.481 546.693 783.886 546.411C785.291 546.129 786.749 546.418 787.942 547.214Z" fill="#646464"/>
<path d="M789.306 547.214C790.197 547.809 790.893 548.656 791.304 549.649C791.716 550.641 791.825 551.733 791.618 552.788C791.411 553.842 790.897 554.811 790.141 555.572C789.385 556.333 788.421 556.852 787.372 557.062C786.322 557.273 785.233 557.167 784.244 556.756C783.255 556.346 782.409 555.65 781.814 554.756C781.219 553.863 780.901 552.812 780.901 551.737C780.901 550.663 781.218 549.612 781.813 548.719C782.609 547.523 783.845 546.693 785.25 546.411C786.654 546.129 788.113 546.418 789.306 547.214Z" fill="#393838"/>
<path d="M787.575 549.763C787.987 550.038 788.309 550.43 788.499 550.888C788.69 551.347 788.74 551.852 788.645 552.34C788.549 552.827 788.312 553.276 787.962 553.628C787.613 553.98 787.167 554.22 786.682 554.318C786.197 554.416 785.693 554.367 785.236 554.177C784.778 553.988 784.387 553.667 784.111 553.254C783.835 552.841 783.688 552.356 783.687 551.859C783.686 551.362 783.832 550.876 784.106 550.462C784.474 549.908 785.046 549.523 785.696 549.391C786.347 549.26 787.023 549.394 787.575 549.763Z" fill="#D1D1D1"/>
<path d="M786.766 550.982C786.939 551.097 787.074 551.261 787.154 551.454C787.233 551.646 787.255 551.858 787.215 552.062C787.175 552.266 787.075 552.454 786.929 552.602C786.782 552.75 786.595 552.85 786.392 552.891C786.189 552.932 785.977 552.912 785.786 552.833C785.594 552.753 785.429 552.619 785.314 552.446C785.198 552.272 785.136 552.069 785.136 551.861C785.136 551.652 785.197 551.448 785.312 551.275C785.467 551.044 785.707 550.884 785.979 550.829C786.251 550.775 786.534 550.829 786.766 550.982Z" fill="#393838"/>
<path d="M810.671 525.323L811.605 525.672L804.707 544.284L803.773 543.935L810.671 525.323Z" fill="#4D4D4D"/>
<path d="M810.683 525.381L811.154 525.557L804.272 544.175L803.801 543.999L810.683 525.381Z" fill="#646464"/>
<path d="M799.134 534.239L809.884 550.909L808.136 552.045L797.386 535.375L799.134 534.239Z" fill="#4D4D4D"/>
<path d="M798.303 534.708L809.035 551.39L808.148 551.965L797.415 535.284L798.303 534.708Z" fill="#646464"/>
<path d="M809.147 546.978C810.041 547.573 810.739 548.421 811.152 549.415C811.566 550.408 811.676 551.503 811.469 552.559C811.262 553.616 810.748 554.587 809.99 555.35C809.233 556.113 808.268 556.633 807.216 556.844C806.164 557.055 805.073 556.948 804.082 556.536C803.091 556.125 802.244 555.427 801.648 554.531C801.053 553.636 800.735 552.583 800.736 551.506C800.737 550.429 801.057 549.377 801.654 548.482C802.451 547.288 803.687 546.46 805.091 546.178C806.495 545.896 807.953 546.184 809.147 546.978Z" fill="#646464"/>
<path d="M810.51 546.978C811.404 547.573 812.102 548.421 812.515 549.415C812.929 550.408 813.039 551.503 812.832 552.559C812.626 553.616 812.111 554.587 811.354 555.35C810.597 556.113 809.631 556.633 808.579 556.844C807.527 557.055 806.437 556.948 805.446 556.536C804.455 556.125 803.607 555.427 803.012 554.531C802.416 553.636 802.099 552.583 802.099 551.506C802.1 550.429 802.42 549.377 803.017 548.482C803.815 547.288 805.05 546.46 806.454 546.178C807.858 545.896 809.316 546.184 810.51 546.978Z" fill="#393838"/>
<path d="M808.78 549.542C809.192 549.816 809.514 550.207 809.706 550.666C809.897 551.124 809.948 551.629 809.853 552.117C809.759 552.604 809.522 553.053 809.174 553.406C808.825 553.758 808.38 553.999 807.895 554.098C807.41 554.197 806.907 554.149 806.449 553.961C805.991 553.773 805.599 553.452 805.322 553.04C805.046 552.628 804.897 552.143 804.895 551.646C804.893 551.149 805.037 550.663 805.311 550.249C805.492 549.974 805.726 549.737 805.998 549.553C806.271 549.368 806.577 549.239 806.899 549.174C807.221 549.108 807.553 549.107 807.876 549.17C808.199 549.233 808.506 549.359 808.78 549.542Z" fill="#D1D1D1"/>
<path d="M807.978 550.737C808.152 550.852 808.289 551.017 808.371 551.21C808.452 551.404 808.474 551.617 808.435 551.823C808.396 552.029 808.296 552.219 808.149 552.368C808.002 552.518 807.815 552.62 807.61 552.662C807.405 552.705 807.192 552.685 806.999 552.605C806.805 552.526 806.639 552.391 806.522 552.217C806.405 552.043 806.342 551.838 806.341 551.628C806.34 551.418 806.401 551.213 806.517 551.038C806.671 550.804 806.911 550.641 807.185 550.584C807.459 550.528 807.744 550.583 807.978 550.737Z" fill="#393838"/>
<path d="M583.879 527.387C583.879 527.387 614.719 528.688 617.109 537.414C617.109 537.414 617.978 549.186 583.879 549.186V527.387Z" fill="#19A8C6"/>
<path d="M589.963 538.257C589.963 544.275 587.235 549.157 583.878 549.157C580.522 549.157 577.802 544.275 577.802 538.257C577.802 532.239 580.522 527.357 583.878 527.357C587.235 527.357 589.963 532.239 589.963 538.257Z" fill="#0F777F"/>
<path d="M589.296 538.167C589.296 543.522 586.868 547.87 583.879 547.87C580.889 547.87 578.469 543.522 578.469 538.167C578.469 532.811 580.897 528.463 583.879 528.463C586.861 528.463 589.296 532.811 589.296 538.167Z" fill="#B5E7EA"/>
<path d="M587.026 538.182C587.026 542.191 585.46 545.441 583.526 545.441C581.593 545.441 580.035 542.191 580.035 538.182C580.035 534.173 581.593 530.931 583.526 530.931C585.46 530.931 587.026 534.18 587.026 538.182Z" fill="#8CD0D3"/>
<path opacity="0.1" d="M588.816 532.073C588.816 532.073 608.784 534.089 617.109 537.414C617.109 537.414 616.105 529.26 584.62 527.387C584.62 527.387 587.655 528.094 588.816 532.073Z" fill="black"/>
<path opacity="0.1" d="M589.521 542.489C589.521 542.489 609.953 545.445 617.109 537.411C617.109 537.411 618.083 548.92 584.508 549.153C584.508 549.153 588.209 548.221 589.521 542.489Z" fill="black"/>
<path opacity="0.3" d="M596.549 528.738C596.549 528.738 603.952 535.606 597.568 548.424C597.568 548.424 616.719 546.363 617.109 537.411C617.109 537.411 616.494 531.371 596.549 528.738Z" fill="#E8FCFB"/>
<path d="M786.998 491.892L847.352 427.299L864.96 430.782L845.644 509.637L786.998 491.892Z" fill="#E8FCFB"/>
<path d="M801.474 494.756L855.376 428.884L870.526 431.878L851.727 510.831L801.474 494.756Z" fill="#D1F2F2"/>
<path d="M864.959 430.775L840.938 489.027L856.058 491.231L870.526 431.873L864.959 430.775Z" fill="#AFE8E8"/>
<path d="M590.218 489.054C590.218 489.054 571.935 488.369 557.504 492.536C557.504 492.536 528.043 507.799 527.354 521.768C527.354 521.768 538.263 540.092 591.506 540.528L590.218 489.054Z" fill="#D1F2F2"/>
<path d="M845.688 489.056C845.688 489.056 898.04 495.6 899.127 521.77C899.127 521.77 889.858 540.094 844.594 540.53L845.688 489.056Z" fill="#E8FCFB"/>
<path d="M590.218 489.056H846.835V540.53H590.218V489.056Z" fill="#D1F2F2"/>
<path d="M625.778 489.051C625.778 489.051 609.504 487.035 597.598 492.534C588.734 496.626 572.205 507.797 571.621 521.765C571.621 521.765 581.017 540.089 626.887 540.526L625.778 489.051Z" fill="#E8FCFB"/>
<path d="M625.77 489.056H846.835V540.53H625.77V489.056Z" fill="#E8FCFB"/>
<path d="M591.019 540.517V521.982H528.455C529.864 524.021 542.399 539.825 591.019 540.517Z" fill="#A6A6A6"/>
<path d="M898.999 521.982H846.977V540.442C887.31 539.487 897.83 523.968 898.999 521.982Z" fill="#A6A6A6"/>
<path d="M591.019 540.525H846.978V540.442V521.982H591.019V540.502V540.525Z" fill="#A6A6A6"/>
<path d="M589.94 540.523V521.718H527.159C528.575 523.741 541.14 539.824 589.94 540.523Z" fill="#AFE8E8"/>
<path d="M898.999 521.662H846.789V540.468C887.272 539.467 897.822 523.708 898.999 521.662Z" fill="#AFE8E8"/>
<path d="M589.94 540.52H846.79V540.438V521.662H589.94V540.498V540.52Z" fill="#AFE8E8"/>
<path d="M555.991 493.125L594.75 493.877C594.75 493.877 580.125 501.527 574.273 513.029L531.362 512.404C531.362 512.404 541.155 499.73 555.991 493.125Z" fill="#46D2E0"/>
<g opacity="0.3">
<path opacity="0.3" d="M549.015 496.856L550.671 512.562L563.258 512.826L560.718 493.185L555.961 493.125L549.015 496.856Z" fill="white"/>
</g>
<g opacity="0.3">
<path opacity="0.3" d="M565.709 493.441L568.421 512.841L574.243 513.021L571.074 493.441H565.709Z" fill="white"/>
</g>
<path d="M595.44 506.223C587.595 513.542 587.04 521.185 587.018 521.508L592.128 521.847C592.128 521.591 592.682 515.626 599.246 509.691C605.502 504.041 618.57 497.444 645.393 498.084L878.416 498.43C873.961 496.366 869.357 494.641 864.645 493.27L645.453 492.939C622.316 492.374 605.487 496.888 595.44 506.223Z" fill="#19A8C6"/>
<path d="M650.182 512.179C650.182 512.683 649.118 513.097 647.799 513.097H641.303C639.984 513.097 638.92 512.683 638.92 512.179V502.905C638.92 502.401 639.984 501.987 641.303 501.987H647.799C649.118 501.987 650.182 502.401 650.182 502.905V512.179Z" fill="#36B8BF"/>
<path d="M648.615 512.179C648.615 512.683 647.701 513.097 646.57 513.097H640.973C639.841 513.097 638.92 512.683 638.92 512.179V502.905C638.92 502.401 639.841 501.987 640.973 501.987H646.57C647.701 501.987 648.615 502.401 648.615 502.905V512.179Z" fill="#46D2E0"/>
<path opacity="0.2" d="M647.687 513.191C648.998 513.191 650.062 512.778 650.062 512.266V505.165L646.315 502.104H641.19C639.879 502.104 638.815 502.517 638.815 503.021V506.248L647.327 513.191H647.687Z" fill="white"/>
<path d="M675.806 512.179C675.806 512.683 674.742 513.097 673.431 513.097H666.927C665.616 513.097 664.552 512.683 664.552 512.179V502.905C664.552 502.401 665.616 501.987 666.927 501.987H673.431C674.742 501.987 675.806 502.401 675.806 502.905V512.179Z" fill="#36B8BF"/>
<path d="M674.248 512.179C674.248 512.683 673.326 513.097 672.195 513.097H666.598C665.466 513.097 664.552 512.683 664.552 512.179V502.905C664.552 502.401 665.466 501.987 666.598 501.987H672.195C673.326 501.987 674.248 502.401 674.248 502.905V512.179Z" fill="#46D2E0"/>
<path opacity="0.2" d="M673.312 513.191C674.63 513.191 675.694 512.778 675.694 512.266V505.165L671.948 502.104H666.831C665.512 502.104 664.448 502.517 664.448 503.021V506.248L672.967 513.191H673.312Z" fill="white"/>
<path d="M701.439 512.179C701.439 512.683 700.375 513.097 699.056 513.097H692.552C691.241 513.097 690.177 512.683 690.177 512.179V502.905C690.177 502.401 691.241 501.987 692.552 501.987H699.056C700.375 501.987 701.439 502.401 701.439 502.905V512.179Z" fill="#36B8BF"/>
<path d="M699.85 512.179C699.85 512.683 698.929 513.097 697.797 513.097H692.2C691.069 513.097 690.155 512.683 690.155 512.179V502.905C690.155 502.401 691.069 501.987 692.2 501.987H697.797C698.929 501.987 699.85 502.401 699.85 502.905V512.179Z" fill="#46D2E0"/>
<path opacity="0.2" d="M698.944 513.191C700.255 513.191 701.319 512.778 701.319 512.266V505.165L697.572 502.104H692.448C691.136 502.104 690.065 502.517 690.065 503.021V506.248L698.584 513.191H698.944Z" fill="white"/>
<path d="M725.191 512.179C725.191 512.683 724.119 513.097 722.808 513.097H716.334C715.023 513.097 713.959 512.683 713.959 512.179V502.905C713.959 502.401 715.023 501.987 716.334 501.987H722.838C724.149 501.987 725.22 502.401 725.22 502.905L725.191 512.179Z" fill="#36B8BF"/>
<path d="M723.625 512.179C723.625 512.683 722.711 513.097 721.579 513.097H715.975C714.851 513.097 713.929 512.683 713.929 512.179V502.905C713.929 502.401 714.851 501.987 715.975 501.987H721.579C722.711 501.987 723.625 502.401 723.625 502.905V512.179Z" fill="#46D2E0"/>
<path opacity="0.2" d="M722.695 513.191C724.007 513.191 725.071 512.778 725.071 512.266V505.165L721.324 502.104H716.199C714.888 502.104 713.824 502.517 713.824 503.021V506.248L722.328 513.191H722.695Z" fill="white"/>
<path d="M750.194 512.179C750.194 512.683 749.122 513.097 747.811 513.097H741.307C739.996 513.097 738.932 512.683 738.932 512.179V502.905C738.932 502.401 739.996 501.987 741.307 501.987H747.803C749.115 501.987 750.186 502.401 750.186 502.905L750.194 512.179Z" fill="#36B8BF"/>
<path d="M748.628 512.179C748.628 512.683 747.714 513.097 746.582 513.097H740.978C739.846 513.097 738.932 512.683 738.932 512.179V502.905C738.932 502.401 739.846 501.987 740.978 501.987H746.582C747.714 501.987 748.628 502.401 748.628 502.905V512.179Z" fill="#46D2E0"/>
<path opacity="0.2" d="M747.699 513.191C749.01 513.191 750.074 512.778 750.074 512.266V505.165L746.327 502.104H741.202C739.891 502.104 738.827 502.517 738.827 503.021V506.248L747.339 513.191H747.699Z" fill="white"/>
<path d="M772.695 512.179C772.695 512.683 771.631 513.097 770.312 513.097H763.816C762.497 513.097 761.433 512.683 761.433 512.179V502.905C761.433 502.401 762.497 501.987 763.816 501.987H770.282C771.601 501.987 772.665 502.401 772.665 502.905L772.695 512.179Z" fill="#36B8BF"/>
<path d="M771.128 512.179C771.128 512.683 770.214 513.097 769.083 513.097H763.486C762.354 513.097 761.433 512.683 761.433 512.179V502.905C761.433 502.401 762.354 501.987 763.486 501.987H769.083C770.214 501.987 771.128 502.401 771.128 502.905V512.179Z" fill="#46D2E0"/>
<path opacity="0.2" d="M770.2 513.191C771.511 513.191 772.575 512.778 772.575 512.266V505.165L768.828 502.104H763.703C762.392 502.104 761.328 502.517 761.328 503.021V506.248L769.847 513.191H770.2Z" fill="white"/>
<path d="M796.447 512.179C796.447 512.683 795.383 513.097 794.071 513.097H787.568C786.257 513.097 785.193 512.683 785.193 512.179V502.905C785.193 502.401 786.257 501.987 787.568 501.987H794.071C795.383 501.987 796.447 502.401 796.447 502.905V512.179Z" fill="#36B8BF"/>
<path d="M794.888 512.179C794.888 512.683 793.967 513.097 792.835 513.097H787.238C786.107 513.097 785.193 512.683 785.193 512.179V502.905C785.193 502.401 786.107 501.987 787.238 501.987H792.835C793.967 501.987 794.888 502.401 794.888 502.905V512.179Z" fill="#46D2E0"/>
<path opacity="0.2" d="M793.951 513.191C795.27 513.191 796.334 512.778 796.334 512.266V505.165L792.588 502.104H787.463C786.151 502.104 785.087 502.517 785.087 503.021V506.248L793.607 513.191H793.951Z" fill="white"/>
<path d="M818.947 512.179C818.947 512.683 817.883 513.097 816.572 513.097H810.068C808.757 513.097 807.693 512.683 807.693 512.179V502.905C807.693 502.401 808.757 501.987 810.068 501.987H816.572C817.883 501.987 818.947 502.401 818.947 502.905V512.179Z" fill="#36B8BF"/>
<path d="M817.388 512.179C817.388 512.683 816.467 513.097 815.335 513.097H809.738C808.607 513.097 807.693 512.683 807.693 512.179V502.905C807.693 502.401 808.607 501.987 809.738 501.987H815.335C816.467 501.987 817.388 502.401 817.388 502.905V512.179Z" fill="#46D2E0"/>
<path opacity="0.2" d="M816.451 513.191C817.77 513.191 818.834 512.778 818.834 512.266V505.165L815.088 502.104H809.97C808.652 502.104 807.588 502.517 807.588 503.021V506.248L816.107 513.191H816.451Z" fill="white"/>
<path d="M602.513 509.918C608.799 504.269 621.994 497.665 648.967 498.304L879.271 498.703C876.424 497.604 874.655 496.815 871.576 495.694L650.406 495.476C627.111 494.934 610.17 499.395 600.062 508.76C594.6 513.815 592.652 519.028 591.963 521.871L595.35 522.097C595.365 521.818 595.897 515.853 602.513 509.918Z" fill="#128B9B"/>
<path d="M626.901 540.523V521.718H571.628C572.879 523.741 583.938 539.824 626.901 540.523Z" fill="#D1F2F2"/>
<path d="M898.999 521.662H853.038V540.468C888.666 539.467 897.965 523.708 898.999 521.662Z" fill="#D1F2F2"/>
<path d="M626.902 540.52H853.039V540.438V521.662H626.902V540.498V540.52Z" fill="#D1F2F2"/>
<g opacity="0.1">
<path opacity="0.1" d="M687.945 519.336L657.944 522.684L686.386 534.388L877.09 532.801L898.564 524.09L687.945 519.336Z" fill="#141414"/>
</g>
<path d="M563.596 492.467C563.596 492.467 546.842 501.968 538.638 515.034H540.256C540.256 515.034 551.203 500.388 565.791 492.467H563.596Z" fill="#E8FCFB"/>
<path d="M580.357 493.034C580.357 493.034 563.595 502.535 555.391 515.601L556.89 515.721C556.89 515.721 568.174 501.068 582.762 493.155L580.357 493.034Z" fill="#E8FCFB"/>
<path d="M958.439 515.589L873.831 529.054L679.875 531.152L656.355 522.035L684.678 515.589H958.439Z" fill="#19A8C6"/>
<path d="M656.355 522.035L958.439 515.589L873.831 529.054L679.875 531.152L656.355 522.035Z" fill="#128B9B"/>
<path d="M670.869 527.595L869.912 521.412L915.513 522.33L873.831 529.055L680.901 531.026L670.869 527.595Z" fill="#0C7077"/>
<path d="M675.079 529.437C675.079 529.437 705.912 530.745 708.31 539.471C708.31 539.471 709.171 551.243 675.079 551.243V529.437Z" fill="#19A8C6"/>
<path d="M681.164 540.344C681.164 546.362 678.437 551.243 675.08 551.243C671.723 551.243 669.003 546.362 669.003 540.344C669.003 534.326 671.723 529.437 675.08 529.437C678.437 529.437 681.164 534.326 681.164 540.344Z" fill="#0F777F"/>
<path d="M680.497 540.241C680.497 545.605 678.069 549.945 675.079 549.945C672.09 549.945 669.67 545.605 669.67 540.241C669.67 534.878 672.097 530.538 675.079 530.538C678.062 530.538 680.497 534.885 680.497 540.241Z" fill="#B5E7EA"/>
<path d="M678.226 540.239C678.226 544.249 676.66 547.498 674.727 547.498C672.794 547.498 671.228 544.249 671.228 540.239C671.228 536.23 672.794 532.98 674.727 532.98C676.66 532.98 678.226 536.23 678.226 540.239Z" fill="#8CD0D3"/>
<path opacity="0.1" d="M680.017 534.134C680.017 534.134 699.985 536.15 708.31 539.475C708.31 539.475 707.298 531.321 675.821 529.448C675.821 529.448 678.871 530.155 680.017 534.134Z" fill="black"/>
<path opacity="0.1" d="M680.721 544.546C680.721 544.546 701.154 547.509 708.309 539.476C708.309 539.476 709.284 550.984 675.709 551.218C675.709 551.218 679.433 550.3 680.721 544.546Z" fill="black"/>
<path opacity="0.3" d="M687.742 530.802C687.742 530.802 695.152 537.67 688.769 550.488C688.769 550.488 707.92 548.427 708.31 539.475C708.31 539.475 707.695 533.435 687.742 530.802Z" fill="#E8FCFB"/>
<path d="M1037.7 569.491C1037.7 571.928 1041.48 573.914 1046.16 573.914H1372.64C1377.32 573.914 1381.1 571.928 1381.1 569.491V560.653C1381.1 558.208 1377.36 556.229 1372.64 556.229H1046.16C1041.48 556.229 1037.7 558.208 1037.7 560.653V569.491Z" fill="#6A777F"/>
<path d="M949.193 521.56L1011.74 535.017L1155.11 537.123L1172.5 528.006L1151.56 521.56H949.193Z" fill="#19A8C6"/>
<path d="M1172.5 528.006L949.193 521.56L1011.74 535.017L1155.11 537.123L1172.5 528.006Z" fill="#128B9B"/>
<path d="M983.734 528.605L1082.83 530.433L1074.41 535.924L1010.36 535.465L983.734 528.605Z" fill="#0C7077"/>
<path d="M1134.21 537.048L1135.14 537.396L1128.26 556.013L1127.33 555.665L1134.21 537.048Z" fill="#4D4D4D"/>
<path d="M1134.18 537.017L1134.66 537.192L1127.77 555.81L1127.3 555.635L1134.18 537.017Z" fill="#646464"/>
<path d="M1122.64 545.846L1133.41 562.506L1131.66 563.644L1120.9 546.984L1122.64 545.846Z" fill="#4D4D4D"/>
<path d="M1132.54 563.034L1131.65 563.605L1120.9 546.936L1121.79 546.364L1132.54 563.034Z" fill="#646464"/>
<path d="M1132.64 558.622C1133.54 559.217 1134.23 560.065 1134.64 561.057C1135.05 562.049 1135.16 563.141 1134.96 564.196C1134.75 565.25 1134.23 566.219 1133.48 566.98C1132.72 567.741 1131.76 568.26 1130.71 568.47C1129.66 568.681 1128.57 568.575 1127.58 568.164C1126.59 567.753 1125.75 567.058 1125.15 566.164C1124.56 565.271 1124.24 564.22 1124.24 563.146C1124.24 562.071 1124.56 561.02 1125.15 560.127C1125.54 559.534 1126.05 559.025 1126.64 558.628C1127.23 558.232 1127.89 557.956 1128.59 557.816C1129.28 557.677 1130 557.676 1130.7 557.814C1131.39 557.952 1132.05 558.227 1132.64 558.622Z" fill="#646464"/>
<path d="M1134.02 558.62C1134.91 559.215 1135.6 560.063 1136.01 561.055C1136.43 562.047 1136.53 563.139 1136.33 564.194C1136.12 565.248 1135.61 566.217 1134.85 566.978C1134.09 567.739 1133.13 568.258 1132.08 568.469C1131.03 568.679 1129.94 568.573 1128.95 568.162C1127.96 567.752 1127.12 567.056 1126.52 566.162C1125.93 565.269 1125.61 564.218 1125.61 563.144C1125.61 562.069 1125.93 561.018 1126.52 560.125C1127.32 558.929 1128.55 558.099 1129.96 557.817C1131.36 557.535 1132.82 557.824 1134.02 558.62Z" fill="#393838"/>
<path d="M1132.28 561.166C1132.7 561.441 1133.02 561.832 1133.21 562.29C1133.4 562.749 1133.45 563.253 1133.36 563.741C1133.26 564.229 1133.03 564.677 1132.68 565.03C1132.33 565.383 1131.88 565.624 1131.4 565.723C1130.91 565.822 1130.41 565.774 1129.95 565.585C1129.5 565.397 1129.1 565.077 1128.83 564.665C1128.55 564.253 1128.4 563.768 1128.4 563.271C1128.4 562.774 1128.54 562.288 1128.82 561.873C1129 561.598 1129.23 561.362 1129.5 561.177C1129.78 560.993 1130.08 560.864 1130.4 560.798C1130.73 560.733 1131.06 560.731 1131.38 560.794C1131.7 560.858 1132.01 560.984 1132.28 561.166Z" fill="#D1D1D1"/>
<path d="M1131.48 562.384C1131.65 562.5 1131.79 562.664 1131.87 562.856C1131.95 563.049 1131.97 563.26 1131.93 563.464C1131.89 563.668 1131.79 563.855 1131.64 564.002C1131.49 564.149 1131.31 564.249 1131.1 564.29C1130.9 564.331 1130.69 564.31 1130.5 564.231C1130.31 564.152 1130.14 564.018 1130.03 563.845C1129.91 563.673 1129.85 563.47 1129.85 563.262C1129.85 563.054 1129.91 562.85 1130.02 562.677C1130.1 562.56 1130.2 562.46 1130.31 562.381C1130.43 562.303 1130.55 562.249 1130.69 562.221C1130.83 562.194 1130.97 562.194 1131.1 562.222C1131.24 562.25 1131.37 562.305 1131.48 562.384Z" fill="#393838"/>
<path d="M1285.39 535.755L1286.33 536.103L1279.45 554.722L1278.51 554.374L1285.39 535.755Z" fill="#4D4D4D"/>
<path d="M1278.98 554.544L1278.5 554.371L1285.4 535.753L1285.87 535.934L1278.98 554.544Z" fill="#646464"/>
<path d="M1273.88 544.59L1284.63 561.256L1282.89 562.393L1272.13 545.727L1273.88 544.59Z" fill="#4D4D4D"/>
<path d="M1272.99 545.093L1283.76 561.752L1282.87 562.329L1272.1 545.671L1272.99 545.093Z" fill="#646464"/>
<path d="M1283.86 557.372C1284.75 557.967 1285.45 558.815 1285.86 559.807C1286.27 560.799 1286.38 561.891 1286.17 562.946C1285.97 564 1285.45 564.969 1284.7 565.73C1283.94 566.491 1282.98 567.01 1281.93 567.221C1280.88 567.431 1279.79 567.325 1278.8 566.914C1277.81 566.504 1276.96 565.808 1276.37 564.914C1275.77 564.021 1275.46 562.97 1275.46 561.896C1275.46 560.821 1275.77 559.77 1276.37 558.877C1276.76 558.284 1277.27 557.775 1277.86 557.378C1278.45 556.982 1279.11 556.706 1279.8 556.566C1280.5 556.427 1281.22 556.426 1281.91 556.564C1282.61 556.702 1283.27 556.977 1283.86 557.372Z" fill="#646464"/>
<path d="M1285.23 557.37C1286.12 557.965 1286.82 558.813 1287.23 559.805C1287.64 560.797 1287.75 561.889 1287.55 562.944C1287.34 563.998 1286.82 564.967 1286.07 565.728C1285.31 566.489 1284.35 567.008 1283.3 567.219C1282.25 567.429 1281.16 567.323 1280.17 566.912C1279.18 566.502 1278.34 565.806 1277.74 564.912C1277.15 564.019 1276.83 562.968 1276.83 561.894C1276.83 560.819 1277.15 559.768 1277.74 558.875C1278.54 557.679 1279.77 556.849 1281.18 556.567C1282.58 556.285 1284.04 556.574 1285.23 557.37Z" fill="#393838"/>
<path d="M1283.53 559.919C1283.94 560.194 1284.27 560.586 1284.46 561.045C1284.65 561.503 1284.7 562.009 1284.6 562.496C1284.51 562.984 1284.27 563.432 1283.92 563.784C1283.57 564.136 1283.12 564.376 1282.64 564.474C1282.15 564.572 1281.65 564.523 1281.19 564.334C1280.73 564.144 1280.34 563.823 1280.07 563.41C1279.79 562.998 1279.64 562.512 1279.64 562.015C1279.64 561.518 1279.79 561.032 1280.06 560.619C1280.43 560.064 1281 559.679 1281.65 559.548C1282.3 559.417 1282.98 559.55 1283.53 559.919Z" fill="#D1D1D1"/>
<path d="M1282.7 561.138C1282.87 561.253 1283.01 561.417 1283.09 561.61C1283.17 561.802 1283.19 562.014 1283.15 562.218C1283.11 562.423 1283.01 562.61 1282.86 562.758C1282.72 562.906 1282.53 563.006 1282.33 563.048C1282.12 563.089 1281.91 563.068 1281.72 562.989C1281.53 562.909 1281.36 562.775 1281.25 562.602C1281.13 562.429 1281.07 562.225 1281.07 562.017C1281.07 561.808 1281.13 561.605 1281.25 561.431C1281.4 561.201 1281.64 561.041 1281.91 560.986C1282.19 560.931 1282.47 560.985 1282.7 561.138Z" fill="#393838"/>
<path d="M1306.6 535.521L1307.53 535.87L1300.63 554.482L1299.7 554.133L1306.6 535.521Z" fill="#4D4D4D"/>
<path d="M1306.6 535.522L1307.08 535.697L1300.19 554.315L1299.72 554.14L1306.6 535.522Z" fill="#646464"/>
<path d="M1295.09 544.367L1305.84 561.037L1304.09 562.173L1293.34 545.503L1295.09 544.367Z" fill="#4D4D4D"/>
<path d="M1294.21 544.85L1304.95 561.531L1304.06 562.106L1293.33 545.425L1294.21 544.85Z" fill="#646464"/>
<path d="M1305.07 557.134C1305.96 557.729 1306.66 558.577 1307.07 559.571C1307.49 560.564 1307.6 561.659 1307.39 562.716C1307.18 563.772 1306.67 564.743 1305.91 565.506C1305.15 566.269 1304.19 566.789 1303.14 567C1302.08 567.211 1300.99 567.104 1300 566.693C1299.01 566.281 1298.16 565.583 1297.57 564.687C1296.97 563.792 1296.65 562.739 1296.66 561.662C1296.66 560.585 1296.98 559.533 1297.57 558.639C1298.37 557.445 1299.61 556.616 1301.01 556.334C1302.41 556.052 1303.87 556.34 1305.07 557.134Z" fill="#646464"/>
<path d="M1306.44 557.132C1307.33 557.727 1308.03 558.575 1308.44 559.569C1308.86 560.562 1308.97 561.657 1308.76 562.714C1308.55 563.77 1308.04 564.741 1307.28 565.504C1306.52 566.267 1305.56 566.787 1304.51 566.998C1303.46 567.209 1302.36 567.102 1301.37 566.69C1300.38 566.279 1299.54 565.581 1298.94 564.685C1298.34 563.79 1298.03 562.737 1298.03 561.66C1298.03 560.583 1298.35 559.531 1298.94 558.637C1299.74 557.444 1300.98 556.617 1302.38 556.335C1303.79 556.053 1305.24 556.34 1306.44 557.132Z" fill="#393838"/>
<path d="M1304.71 559.683C1305.12 559.957 1305.44 560.349 1305.63 560.807C1305.82 561.265 1305.88 561.77 1305.78 562.258C1305.69 562.745 1305.45 563.194 1305.1 563.547C1304.75 563.899 1304.31 564.14 1303.82 564.239C1303.34 564.338 1302.83 564.29 1302.38 564.102C1301.92 563.914 1301.53 563.593 1301.25 563.181C1300.97 562.769 1300.82 562.284 1300.82 561.787C1300.82 561.291 1300.96 560.804 1301.24 560.39C1301.42 560.115 1301.65 559.878 1301.93 559.694C1302.2 559.509 1302.5 559.381 1302.83 559.315C1303.15 559.249 1303.48 559.248 1303.8 559.311C1304.13 559.374 1304.43 559.501 1304.71 559.683Z" fill="#D1D1D1"/>
<path d="M1303.9 560.895C1304.08 561.011 1304.22 561.176 1304.3 561.369C1304.38 561.562 1304.4 561.776 1304.36 561.982C1304.32 562.188 1304.22 562.378 1304.08 562.527C1303.93 562.677 1303.74 562.779 1303.54 562.821C1303.33 562.863 1303.12 562.843 1302.93 562.764C1302.73 562.685 1302.57 562.55 1302.45 562.376C1302.33 562.202 1302.27 561.997 1302.27 561.787C1302.27 561.577 1302.33 561.371 1302.44 561.196C1302.52 561.08 1302.62 560.979 1302.73 560.901C1302.85 560.822 1302.98 560.768 1303.11 560.74C1303.25 560.712 1303.39 560.711 1303.52 560.738C1303.66 560.765 1303.79 560.818 1303.9 560.895Z" fill="#393838"/>
<path d="M1079.81 537.513C1079.81 537.513 1110.65 538.814 1113.04 547.54C1113.04 547.54 1113.9 559.312 1079.81 559.312V537.513Z" fill="#19A8C6"/>
<path d="M1085.89 548.443C1085.89 554.46 1083.16 559.342 1079.81 559.342C1076.45 559.342 1073.73 554.46 1073.73 548.443C1073.73 542.425 1076.45 537.513 1079.81 537.513C1083.16 537.513 1085.89 542.425 1085.89 548.443Z" fill="#0F777F"/>
<path d="M1085.22 548.323C1085.22 553.679 1082.8 558.026 1079.81 558.026C1076.82 558.026 1074.4 553.679 1074.4 548.323C1074.4 542.967 1076.82 538.619 1079.81 538.619C1082.79 538.619 1085.22 542.967 1085.22 548.323Z" fill="#B5E7EA"/>
<path d="M1082.95 548.338C1082.95 552.348 1081.39 555.597 1079.45 555.597C1077.52 555.597 1075.95 552.348 1075.95 548.338C1075.95 544.329 1077.52 541.087 1079.45 541.087C1081.39 541.087 1082.95 544.337 1082.95 548.338Z" fill="#8CD0D3"/>
<path opacity="0.1" d="M1084.74 542.229C1084.74 542.229 1104.71 544.245 1113.04 547.569C1113.04 547.569 1112.02 539.415 1080.55 537.542C1080.55 537.512 1083.58 538.265 1084.74 542.229Z" fill="black"/>
<path opacity="0.1" d="M1085.45 552.645C1085.45 552.645 1105.88 555.601 1113.04 547.567C1113.04 547.567 1114.01 559.076 1080.43 559.31C1080.43 559.325 1084.17 558.377 1085.45 552.645Z" fill="black"/>
<path opacity="0.3" d="M1092.47 538.895C1092.47 538.895 1099.88 545.785 1093.49 558.573C1093.49 558.573 1112.65 556.512 1113.04 547.56C1113.04 547.568 1112.42 541.527 1092.47 538.895Z" fill="#E8FCFB"/>
<path d="M1282.93 502.038L1343.27 437.444L1360.89 440.927L1341.56 519.783L1282.93 502.038Z" fill="#E8FCFB"/>
<path d="M1297.4 504.912L1351.3 439.04L1366.45 442.034L1347.65 520.987L1297.4 504.912Z" fill="#D1F2F2"/>
<path d="M1360.89 440.931L1336.87 499.183L1351.98 501.387L1366.45 442.029L1360.89 440.931Z" fill="#AFE8E8"/>
<path d="M1086.14 499.21C1086.14 499.21 1067.86 498.525 1053.43 502.693C1053.43 502.693 1023.96 517.955 1023.27 531.924C1023.27 531.924 1034.18 550.248 1087.43 550.684L1086.14 499.21Z" fill="#D1F2F2"/>
<path d="M1341.62 499.212C1341.62 499.212 1393.97 505.756 1395.05 531.926C1395.05 531.926 1385.78 550.25 1340.52 550.686L1341.62 499.212Z" fill="#E8FCFB"/>
<path d="M1086.14 499.212H1342.76V550.686H1086.14V499.212Z" fill="#D1F2F2"/>
<path d="M1121.69 499.207C1121.69 499.207 1105.42 497.192 1093.5 502.69C1084.64 506.782 1068.12 517.953 1067.52 531.922C1067.52 531.922 1076.93 550.246 1122.79 550.682L1121.69 499.207Z" fill="#E8FCFB"/>
<path d="M1121.7 499.212H1342.76V550.686H1121.7V499.212Z" fill="#E8FCFB"/>
<path d="M1086.95 550.658V532.139H1024.38C1025.78 534.177 1038.32 549.981 1086.95 550.658Z" fill="#A6A6A6"/>
<path d="M1394.93 532.139H1342.9V550.598C1383.24 549.643 1393.76 534.147 1394.93 532.139Z" fill="#A6A6A6"/>
<path d="M1086.95 550.681H1342.9V550.598V532.139H1086.95V550.658V550.681Z" fill="#A6A6A6"/>
<path d="M1085.87 550.654V531.848H1023.08C1024.49 533.887 1037.07 549.969 1085.87 550.654Z" fill="#AFE8E8"/>
<path d="M1394.93 531.818H1342.72V550.624C1383.18 549.623 1393.75 533.864 1394.93 531.818Z" fill="#AFE8E8"/>
<path d="M1085.87 550.677H1342.72V550.594V531.818H1085.87V550.654V550.677Z" fill="#AFE8E8"/>
<path d="M1051.89 503.281L1090.65 504.033C1090.65 504.033 1076.02 511.684 1070.17 523.185L1027.28 522.538C1027.28 522.538 1037.08 509.886 1051.89 503.281Z" fill="#46D2E0"/>
<g opacity="0.3">
<path opacity="0.3" d="M1045 510.601L1046.65 526.307L1059.24 526.57L1056.69 506.93L1051.94 506.87L1045 510.601Z" fill="white"/>
</g>
<g opacity="0.3">
<path opacity="0.3" d="M1061.64 503.586L1064.35 522.986L1070.17 523.167L1067 503.586H1061.64Z" fill="white"/>
</g>
<path d="M1091.37 516.377C1083.52 523.696 1082.97 531.339 1082.95 531.662L1088.06 532.001C1088.06 531.745 1088.6 525.78 1095.17 519.845C1101.42 514.196 1114.5 507.599 1141.32 508.238L1374.34 508.584C1369.89 506.519 1365.29 504.794 1360.57 503.424L1141.38 503.093C1118.24 502.551 1101.41 507.012 1091.37 516.377Z" fill="#19A8C6"/>
<path d="M1146.11 522.342C1146.11 522.846 1145.04 523.26 1143.73 523.26H1137.22C1135.91 523.26 1134.85 522.846 1134.85 522.342V513.09C1134.85 512.586 1135.91 512.172 1137.22 512.172H1143.73C1145.04 512.172 1146.11 512.586 1146.11 513.09V522.342Z" fill="#36B8BF"/>
<path d="M1144.54 522.342C1144.54 522.846 1143.63 523.26 1142.5 523.26H1136.89C1135.76 523.26 1134.85 522.846 1134.85 522.342V513.09C1134.85 512.586 1135.76 512.172 1136.89 512.172H1142.5C1143.63 512.172 1144.54 512.586 1144.54 513.09V522.342Z" fill="#46D2E0"/>
<path opacity="0.2" d="M1143.61 523.347C1144.92 523.347 1145.99 522.934 1145.99 522.422V515.321L1142.24 512.26H1137.12C1135.81 512.26 1134.74 512.674 1134.74 513.177V516.405L1143.25 523.347H1143.61Z" fill="white"/>
<path d="M1171.73 522.342C1171.73 522.846 1170.67 523.26 1169.36 523.26H1162.85C1161.54 523.26 1160.48 522.846 1160.48 522.342V513.09C1160.48 512.586 1161.54 512.172 1162.85 512.172H1169.36C1170.67 512.172 1171.73 512.586 1171.73 513.09V522.342Z" fill="#36B8BF"/>
<path d="M1170.17 522.342C1170.17 522.846 1169.25 523.26 1168.12 523.26H1162.52C1161.39 523.26 1160.48 522.846 1160.48 522.342V513.09C1160.48 512.586 1161.39 512.172 1162.52 512.172H1168.14C1169.28 512.172 1170.19 512.586 1170.19 513.09L1170.17 522.342Z" fill="#46D2E0"/>
<path opacity="0.2" d="M1169.24 523.347C1170.55 523.347 1171.62 522.934 1171.62 522.422V515.321L1167.87 512.26H1162.75C1161.44 512.26 1160.37 512.674 1160.37 513.177V516.405L1168.89 523.347H1169.24Z" fill="white"/>
<path d="M1197.37 522.342C1197.37 522.846 1196.3 523.26 1194.99 523.26H1188.49C1187.18 523.26 1186.11 522.846 1186.11 522.342V513.09C1186.11 512.586 1187.18 512.172 1188.49 512.172H1194.99C1196.3 512.172 1197.37 512.586 1197.37 513.09V522.342Z" fill="#36B8BF"/>
<path d="M1195.8 522.342C1195.8 522.846 1194.88 523.26 1193.75 523.26H1188.15C1187.02 523.26 1186.1 522.846 1186.1 522.342V513.09C1186.1 512.586 1187.02 512.172 1188.15 512.172H1193.75C1194.88 512.172 1195.8 512.586 1195.8 513.09V522.342Z" fill="#46D2E0"/>
<path opacity="0.2" d="M1194.86 523.347C1196.18 523.347 1197.25 522.934 1197.25 522.422V515.321L1193.5 512.26H1188.37C1187.06 512.26 1185.99 512.674 1185.99 513.177V516.405L1194.51 523.347H1194.86Z" fill="white"/>
<path d="M1221.12 522.342C1221.12 522.846 1220.05 523.26 1218.74 523.26H1212.23C1210.92 523.26 1209.86 522.846 1209.86 522.342V513.09C1209.86 512.586 1210.92 512.172 1212.23 512.172H1218.74C1220.05 512.172 1221.12 512.586 1221.12 513.09V522.342Z" fill="#36B8BF"/>
<path d="M1219.55 522.342C1219.55 522.846 1218.64 523.26 1217.51 523.26H1211.9C1210.77 523.26 1209.86 522.846 1209.86 522.342V513.09C1209.86 512.586 1210.77 512.172 1211.9 512.172H1217.51C1218.64 512.172 1219.55 512.586 1219.55 513.09V522.342Z" fill="#46D2E0"/>
<path opacity="0.2" d="M1218.62 523.347C1219.93 523.347 1221 522.934 1221 522.422V515.321L1217.25 512.26H1212.13C1210.82 512.26 1209.75 512.674 1209.75 513.177V516.405L1218.27 523.347H1218.62Z" fill="white"/>
<path d="M1246.12 522.342C1246.12 522.846 1245.05 523.26 1243.74 523.26H1237.23C1235.92 523.26 1234.86 522.846 1234.86 522.342V513.09C1234.86 512.586 1235.92 512.172 1237.23 512.172H1243.74C1245.05 512.172 1246.12 512.586 1246.12 513.09V522.342Z" fill="#36B8BF"/>
<path d="M1244.57 522.342C1244.57 522.846 1243.66 523.26 1242.52 523.26H1236.92C1235.79 523.26 1234.87 522.846 1234.87 522.342V513.09C1234.87 512.586 1235.79 512.172 1236.92 512.172H1242.52C1243.66 512.172 1244.57 512.586 1244.57 513.09V522.342Z" fill="#46D2E0"/>
<path opacity="0.2" d="M1243.63 523.347C1244.94 523.347 1246 522.934 1246 522.422V515.321L1242.25 512.26H1237.13C1235.81 512.26 1234.75 512.674 1234.75 513.177V516.405L1243.27 523.347H1243.63Z" fill="white"/>
<path d="M1268.62 522.342C1268.62 522.846 1267.56 523.26 1266.24 523.26H1259.74C1258.42 523.26 1257.36 522.846 1257.36 522.342V513.09C1257.36 512.586 1258.42 512.172 1259.74 512.172H1266.24C1267.56 512.172 1268.62 512.586 1268.62 513.09V522.342Z" fill="#36B8BF"/>
<path d="M1267.05 522.342C1267.05 522.846 1266.13 523.26 1265 523.26H1259.41C1258.27 523.26 1257.35 522.846 1257.35 522.342V513.09C1257.35 512.586 1258.27 512.172 1259.41 512.172H1265C1266.13 512.172 1267.05 512.586 1267.05 513.09V522.342Z" fill="#46D2E0"/>
<path opacity="0.2" d="M1266.13 523.347C1267.44 523.347 1268.5 522.934 1268.5 522.422V515.321L1264.76 512.26H1259.63C1258.32 512.26 1257.26 512.674 1257.26 513.177V516.405L1265.77 523.347H1266.13Z" fill="white"/>
<path d="M1292.37 522.342C1292.37 522.846 1291.31 523.26 1289.99 523.26H1283.49C1282.18 523.26 1281.12 522.846 1281.12 522.342V513.09C1281.12 512.586 1282.18 512.172 1283.49 512.172H1289.99C1291.31 512.172 1292.37 512.586 1292.37 513.09V522.342Z" fill="#36B8BF"/>
<path d="M1290.81 522.342C1290.81 522.846 1289.89 523.26 1288.76 523.26H1283.16C1282.03 523.26 1281.12 522.846 1281.12 522.342V513.09C1281.12 512.586 1282.03 512.172 1283.16 512.172H1288.78C1289.91 512.172 1290.82 512.586 1290.82 513.09L1290.81 522.342Z" fill="#46D2E0"/>
<path opacity="0.2" d="M1289.88 523.347C1291.2 523.347 1292.25 522.934 1292.25 522.422V515.321L1288.51 512.26H1283.38C1282.07 512.26 1281.01 512.674 1281.01 513.177V516.405L1289.53 523.347H1289.88Z" fill="white"/>
<path d="M1314.87 522.342C1314.87 522.846 1313.81 523.26 1312.5 523.26H1306.01C1304.7 523.26 1303.63 522.846 1303.63 522.342V513.09C1303.63 512.586 1304.7 512.172 1306.01 512.172H1312.51C1313.83 512.172 1314.89 512.586 1314.89 513.09L1314.87 522.342Z" fill="#36B8BF"/>
<path d="M1313.32 522.342C1313.32 522.846 1312.39 523.26 1311.26 523.26H1305.67C1304.53 523.26 1303.61 522.846 1303.61 522.342V513.09C1303.61 512.586 1304.53 512.172 1305.67 512.172H1311.25C1312.39 512.172 1313.31 512.586 1313.31 513.09L1313.32 522.342Z" fill="#46D2E0"/>
<path opacity="0.2" d="M1312.38 523.347C1313.7 523.347 1314.76 522.934 1314.76 522.422V515.321L1311.02 512.26H1305.89C1304.58 512.26 1303.52 512.674 1303.52 513.177V516.405L1312 523.347H1312.38Z" fill="white"/>
<path d="M1098.46 520.064C1104.76 514.415 1117.94 507.811 1144.92 508.45L1375.22 508.849C1372.37 507.75 1370.6 506.961 1367.53 505.84L1146.36 505.622C1123.06 505.08 1106.12 509.541 1096.01 518.906C1090.55 523.961 1088.6 529.174 1087.91 532.017L1091.3 532.243C1091.29 531.965 1091.82 525.999 1098.46 520.064Z" fill="#128B9B"/>
<path d="M1122.83 550.654V531.848H1067.55C1068.81 533.887 1079.87 549.969 1122.83 550.654Z" fill="#D1F2F2"/>
<path d="M1394.93 531.818H1348.97V550.624C1384.6 549.623 1393.88 533.864 1394.93 531.818Z" fill="#D1F2F2"/>
<path d="M1122.83 550.677H1348.97V550.594V531.818H1122.83V550.654V550.677Z" fill="#D1F2F2"/>
<g opacity="0.1">
<path opacity="0.1" d="M1183.86 529.493L1153.86 532.84L1182.31 544.545L1373.02 542.957L1394.49 534.247L1183.86 529.493Z" fill="#141414"/>
</g>
<path d="M1059.5 502.613C1059.5 502.613 1042.75 512.113 1034.53 525.179H1036.13C1036.13 525.179 1047.08 510.534 1061.67 502.613H1059.5Z" fill="#E8FCFB"/>
<path d="M1076.28 503.18C1076.28 503.18 1059.52 512.68 1051.32 525.746L1052.82 525.867C1052.82 525.867 1064.1 511.213 1078.69 503.3L1076.28 503.18Z" fill="#E8FCFB"/>
<path d="M1454.37 525.745L1369.76 539.21L1175.79 541.309L1152.28 532.192L1180.6 525.745H1454.37Z" fill="#19A8C6"/>
<path d="M1152.28 532.192L1454.37 525.745L1369.76 539.21L1175.79 541.309L1152.28 532.192Z" fill="#128B9B"/>
<path d="M1166.8 537.752L1365.84 531.569L1411.44 532.487L1369.76 539.211L1176.83 541.182L1166.8 537.752Z" fill="#0C7077"/>
<path d="M1171.01 539.593C1171.01 539.593 1201.84 540.902 1204.23 549.627C1204.23 549.627 1205.1 561.4 1171.01 561.4V539.593Z" fill="#19A8C6"/>
<path d="M1177.09 550.5C1177.09 556.518 1174.36 561.4 1171.01 561.4C1167.65 561.4 1164.93 556.518 1164.93 550.5C1164.93 544.482 1167.65 539.593 1171.01 539.593C1174.36 539.593 1177.09 544.482 1177.09 550.5Z" fill="#0F777F"/>
<path d="M1176.39 550.398C1176.39 555.761 1173.97 560.101 1170.98 560.101C1167.99 560.101 1165.56 555.761 1165.56 550.398C1165.56 545.034 1167.99 540.694 1170.98 540.694C1173.97 540.694 1176.39 545.042 1176.39 550.398Z" fill="#B5E7EA"/>
<path d="M1174.14 550.396C1174.14 554.405 1172.57 557.655 1170.64 557.655C1168.71 557.655 1167.14 554.405 1167.14 550.396C1167.14 546.386 1168.71 543.137 1170.64 543.137C1172.57 543.137 1174.14 546.386 1174.14 550.396Z" fill="#8CD0D3"/>
<path opacity="0.1" d="M1175.94 544.279C1175.94 544.279 1195.91 546.295 1204.23 549.62C1204.23 549.62 1203.23 541.466 1171.75 539.593C1171.75 539.6 1174.78 540.307 1175.94 544.279Z" fill="black"/>
<path opacity="0.1" d="M1176.65 554.702C1176.65 554.702 1197.07 557.666 1204.23 549.632C1204.23 549.632 1205.21 561.141 1171.63 561.374C1171.63 561.374 1175.36 560.441 1176.65 554.702Z" fill="black"/>
<path opacity="0.3" d="M1183.67 540.958C1183.67 540.958 1191.08 547.826 1184.7 560.644C1184.7 560.644 1203.85 558.583 1204.23 549.632C1204.23 549.632 1203.62 543.591 1183.67 540.958Z" fill="#E8FCFB"/>
<path d="M467.442 562.725H470.626V566.012H467.442V562.725Z" fill="#B74D04"/>
<path d="M466.828 563.352C466.896 563.16 467.021 562.994 467.187 562.876C467.352 562.758 467.55 562.695 467.753 562.695C467.956 562.695 468.154 562.758 468.32 562.876C468.486 562.994 468.611 563.16 468.679 563.352L474.411 583.955H461.096L466.828 563.352Z" fill="#B74D04"/>
<path d="M458.818 583.965H476.628C477.595 583.965 478.382 584.514 478.382 585.184C478.382 585.853 477.595 586.403 476.628 586.403H458.818C457.852 586.403 457.065 585.853 457.065 585.184C457.065 584.514 457.837 583.965 458.818 583.965Z" fill="#B74D04"/>
<path d="M473.609 581.205H461.838L463.141 576.511H472.305L473.609 581.205Z" fill="#C6B3A7"/>
<path d="M465.501 568.012H469.937L471.248 572.706H464.198L465.501 568.012Z" fill="#C6B3A7"/>
<path d="M469.495 563.352C469.563 563.16 469.688 562.994 469.854 562.876C470.02 562.758 470.217 562.695 470.42 562.695C470.623 562.695 470.821 562.758 470.987 562.876C471.153 562.994 471.278 563.16 471.346 563.352L477.078 583.955H463.771L469.495 563.352Z" fill="#F66700"/>
<path d="M461.515 583.965H479.326C480.292 583.965 481.079 584.514 481.079 585.184C481.079 585.853 480.33 586.403 479.326 586.403H461.515C460.556 586.403 459.762 585.853 459.762 585.184C459.762 584.514 460.556 583.965 461.515 583.965Z" fill="#F66700"/>
<path d="M476.306 581.205H464.535L465.846 576.511H475.002L476.306 581.205Z" fill="#FFF6F0"/>
<path d="M468.206 568.012H472.642L473.946 572.706H466.903L468.206 568.012Z" fill="#FFF6F0"/>
<path d="M1417.19 568.563H1420.38V571.851H1417.19V568.563Z" fill="#B74D04"/>
<path d="M1416.55 569.179C1416.62 568.987 1416.74 568.82 1416.91 568.703C1417.07 568.585 1417.27 568.522 1417.48 568.522C1417.68 568.522 1417.88 568.585 1418.04 568.703C1418.21 568.82 1418.33 568.987 1418.4 569.179L1424.13 589.79H1410.82L1416.55 569.179Z" fill="#B74D04"/>
<path d="M1408.57 589.793H1426.38C1427.35 589.793 1428.13 590.342 1428.13 591.012C1428.13 591.681 1427.35 592.223 1426.38 592.223H1408.57C1407.61 592.223 1406.82 591.681 1406.82 591.012C1406.82 590.342 1407.61 589.793 1408.57 589.793Z" fill="#B74D04"/>
<path d="M1423.36 587.032H1411.59L1412.9 582.338H1422.06L1423.36 587.032Z" fill="#C6B3A7"/>
<path d="M1415.26 573.839H1419.7L1421 578.533H1413.95L1415.26 573.839Z" fill="#C6B3A7"/>
<path d="M1419.25 569.179C1419.31 568.987 1419.44 568.82 1419.61 568.703C1419.77 568.585 1419.97 568.522 1420.17 568.522C1420.38 568.522 1420.57 568.585 1420.74 568.703C1420.9 568.82 1421.03 568.987 1421.1 569.179L1426.83 589.79H1413.52L1419.25 569.179Z" fill="#F66700"/>
<path d="M1411.27 589.793H1429.08C1430.04 589.793 1430.84 590.342 1430.84 591.012C1430.84 591.681 1430.04 592.223 1429.08 592.223H1411.27C1410.31 592.223 1409.51 591.681 1409.51 591.012C1409.51 590.342 1410.31 589.793 1411.27 589.793Z" fill="#F66700"/>
<path d="M1426.06 587.032H1414.29L1415.6 582.338H1424.75L1426.06 587.032Z" fill="#FFF6F0"/>
<path d="M1417.96 573.839H1422.39L1423.7 578.533H1416.65L1417.96 573.839Z" fill="#FFF6F0"/>
<path d="M1229.04 633.487H1430.05V640.483H1229.04V633.487Z" fill="#EDEDEF"/>
<path d="M1181.29 633.487H1229.04V640.483H1181.29V633.487Z" fill="#CECECE"/>
<path d="M1181.29 640.492H1430.05V644.125H1181.29V640.492Z" fill="#6A777F"/>
<path d="M786.826 634.62H834.577V641.615H786.826V634.62Z" fill="#CECECE"/>
<path d="M786.826 641.624H1035.58V645.257H786.826V641.624Z" fill="#6A777F"/>
<path d="M469.323 635.751H670.329V642.747H469.323V635.751Z" fill="#EDEDEF"/>
<path d="M421.572 635.751H469.323V642.747H421.572V635.751Z" fill="#CECECE"/>
<path d="M421.572 642.756H670.329V646.39H421.572V642.756Z" fill="#6A777F"/>
<defs>
<linearGradient id="paint0_linear" x1="957.285" y1="19.6371" x2="959.064" y2="689.84" gradientUnits="userSpaceOnUse">
<stop stop-color="#91DEE9"/>
<stop offset="0.22" stop-color="#B0E6DC"/>
<stop offset="0.57" stop-color="#DBF1CA"/>
<stop offset="0.84" stop-color="#F5F7BE"/>
<stop offset="1" stop-color="#FFFABA"/>
</linearGradient>
</defs>
</svg>
