<svg width="320" height="370" viewBox="0 0 320 370" fill="none" xmlns="http://www.w3.org/2000/svg">
<path d="M373.034 0H-35.8289V370H373.034V0Z" fill="#93C7C3"/>
<path d="M-160 86.7769H497.206V327.41H-160V86.7769Z" fill="url(#paint0_linear)"/>
<path d="M-160 86.7769H497.206V327.41H-160V86.7769Z" fill="#93C7C3"/>
<g opacity="0.2">
<path opacity="0.2" d="M-160 142.756L-159.963 290.738L497.206 292.082V145.308L458.247 164.893L387.128 122.091L283.82 170.798L224.503 149.72L170.734 169.617L151.262 177.993L90.17 149.89L53.3289 176.163L23.6044 160.823L-49.2234 176.163L-94.7396 161.294L-127.994 189.312L-160 142.756Z" fill="#138999"/>
</g>
<g opacity="0.2">
<path opacity="0.2" d="M-160 195.375L-159.986 289.509L497.051 289.785V196.15L458.534 216.912L366.99 195.468L307.531 198.711L181.184 194.438L117.27 235.308L50.381 233.973L-14.6354 197.721L-78.483 221.595L-108.987 208.065L-136.716 229.066L-160 195.375Z" fill="#138999"/>
</g>
<g opacity="0.9">
<path opacity="0.9" d="M4.64365 173.469L64.704 173.824C67.5996 170.279 62.4778 165.716 58.5077 167.933C58.1204 165.067 54.817 163.273 51.5829 162.614C48.713 161.841 46.3766 161.697 44.1991 163.644C43.6093 162.132 41.9268 162.472 39.8391 162.31C37.1385 162.119 34.2455 162.619 32.2553 165.25C29.1084 162.699 23.5969 166.19 19.4318 168.824C16.7747 163.978 7.61102 170.91 4.64365 173.469Z" fill="white"/>
</g>
<g opacity="0.9">
<path opacity="0.9" d="M167.113 164.633L221.944 164.605C223.159 163.029 219.266 161.069 218.24 160.227C215.398 157.887 212.387 157.354 209.133 159.084C208.284 156.731 204.414 156.388 201.382 157.197C199.017 157.867 196.835 159.071 195.004 160.717C193.634 157.848 187.12 158.312 182.852 160.459C180.952 157.495 169.539 161.497 167.113 164.633Z" fill="white"/>
</g>
<path d="M-159.872 253.942H497.078V370H-159.872V253.942Z" fill="#86949D"/>
<path d="M25.4396 278.229C25.4396 279.063 26.7219 279.743 28.3351 279.743H140.082C141.683 279.743 142.978 279.063 142.978 278.229V275.209C142.978 274.372 141.683 273.695 140.082 273.695H28.3274C26.7271 273.695 25.4319 274.372 25.4319 275.209L25.4396 278.229Z" fill="#6A777F"/>
<path d="M35.9344 251.865C35.926 252.024 35.9803 252.179 36.0855 252.298C36.1906 252.417 36.3382 252.489 36.4961 252.499C36.6537 252.489 36.801 252.417 36.9058 252.298C37.0106 252.179 37.0643 252.024 37.0551 251.865V236.715C37.0643 236.556 37.0107 236.401 36.906 236.282C36.8013 236.162 36.6539 236.09 36.4961 236.079C36.3377 236.089 36.1898 236.162 36.0845 236.281C35.9793 236.4 35.9253 236.556 35.9344 236.715V251.865Z" fill="#907669"/>
<path d="M36.4961 236.079V252.499C36.3382 252.489 36.1907 252.417 36.0855 252.298C35.9803 252.179 35.9261 252.024 35.9345 251.865V236.715C35.9254 236.556 35.9793 236.4 36.0846 236.281C36.1898 236.162 36.3378 236.089 36.4961 236.079Z" fill="#907669"/>
<path d="M29.0303 238.958C29.0303 245.395 35.6216 247.064 35.6216 247.064C35.6216 247.064 42.2129 245.393 42.2129 238.958C42.2129 232.524 35.6216 223.754 35.6216 223.754C35.6216 223.754 29.0303 232.521 29.0303 238.958Z" fill="#BDCA6F"/>
<path d="M30.4768 238.958C30.4768 245.395 37.0656 247.064 37.0656 247.064C37.0656 247.064 43.6492 245.393 43.6492 238.958C43.6492 232.524 37.0553 223.754 37.0553 223.754C37.0553 223.754 30.4768 232.521 30.4768 238.958Z" fill="#A1BA38"/>
<g opacity="0.1">
<path opacity="0.1" d="M37.0657 223.754C37.0657 223.754 22.4135 242.035 37.0657 247.064C37.0657 247.074 30.3 239.262 37.0657 223.754Z" fill="white"/>
</g>
<g opacity="0.1">
<path opacity="0.1" d="M37.0654 223.754C37.0654 223.754 52.0689 241.886 37.0654 247.064C37.0654 247.074 43.7465 236.744 37.0654 223.754Z" fill="black"/>
</g>
<path d="M37.0657 223.754H35.6192L36.3373 224.753L37.0657 223.754Z" fill="#BDCA6F"/>
<path d="M37.0657 247.068H35.6192L36.3373 246.831L37.0657 247.068Z" fill="#BDCA6F"/>
<path d="M26.722 251.799C26.7171 251.901 26.7522 252.001 26.8199 252.077C26.8875 252.153 26.9823 252.2 27.0837 252.206C27.1848 252.2 27.2793 252.153 27.3465 252.077C27.4138 252.001 27.4484 251.901 27.4428 251.799V242.056C27.4484 241.955 27.4138 241.855 27.3465 241.779C27.2793 241.702 27.1848 241.656 27.0837 241.649C26.982 241.655 26.8869 241.702 26.8191 241.778C26.7513 241.854 26.7164 241.954 26.722 242.056V251.799Z" fill="#907669"/>
<path d="M27.0916 241.649V252.206C26.9902 252.2 26.8955 252.153 26.8278 252.077C26.7602 252.001 26.725 251.901 26.73 251.799V242.056C26.7244 241.954 26.7593 241.854 26.8271 241.778C26.8948 241.702 26.9899 241.655 27.0916 241.649Z" fill="#907669"/>
<path d="M22.2905 243.5C22.2905 247.638 26.5274 248.714 26.5274 248.714C26.5274 248.714 30.7668 247.638 30.7668 243.5C30.7668 239.362 26.5274 233.716 26.5274 233.716C26.5274 233.716 22.2905 239.352 22.2905 243.5Z" fill="#BDCA6F"/>
<path d="M23.2213 243.5C23.2213 247.638 27.4582 248.714 27.4582 248.714C27.4582 248.714 31.7002 247.638 31.7002 243.5C31.7002 239.362 27.4582 233.716 27.4582 233.716C27.4582 233.716 23.2213 239.352 23.2213 243.5Z" fill="#A1BA38"/>
<g opacity="0.1">
<path opacity="0.1" d="M27.4583 233.721C27.4583 233.721 18.0354 245.478 27.4583 248.712C27.4583 248.712 23.1085 243.693 27.4583 233.721Z" fill="white"/>
</g>
<g opacity="0.1">
<path opacity="0.1" d="M27.4583 233.721C27.4583 233.721 37.1042 245.38 27.4583 248.712C27.4583 248.712 31.7542 242.074 27.4583 233.721Z" fill="black"/>
</g>
<path d="M27.4583 233.721H26.5273L26.9915 234.365L27.4583 233.721Z" fill="#BDCA6F"/>
<path d="M27.4583 248.714H26.5273L26.9915 248.562L27.4583 248.714Z" fill="#BDCA6F"/>
<path d="M4.09376 251.865C4.08534 252.024 4.13961 252.179 4.24479 252.298C4.34998 252.417 4.49756 252.489 4.65543 252.499C4.8131 252.489 4.96045 252.417 5.06523 252.298C5.17001 252.179 5.2237 252.024 5.21457 251.865V236.715C5.22372 236.556 5.1701 236.401 5.06539 236.282C4.96067 236.162 4.81332 236.09 4.65543 236.079C4.49733 236.09 4.34976 236.162 4.24464 236.281C4.13951 236.4 4.08532 236.556 4.09376 236.715V251.865Z" fill="#907669"/>
<path d="M4.66553 236.079V252.499C4.50763 252.489 4.36004 252.417 4.25485 252.298C4.14966 252.179 4.09538 252.024 4.1038 251.865V236.715C4.09536 236.556 4.14956 236.4 4.25469 236.281C4.35982 236.162 4.50741 236.09 4.66553 236.079Z" fill="#907669"/>
<path d="M-2.81288 238.958C-2.81288 245.395 3.78102 247.064 3.78102 247.064C3.78102 247.064 10.3723 245.393 10.3723 238.958C10.3723 232.524 3.78102 223.754 3.78102 223.754C3.78102 223.754 -2.81288 232.521 -2.81288 238.958Z" fill="#BDCA6F"/>
<path d="M-1.3639 238.958C-1.3639 245.395 5.22739 247.064 5.22739 247.064C5.22739 247.064 11.8213 245.393 11.8213 238.958C11.8213 232.524 5.22739 223.754 5.22739 223.754C5.22739 223.754 -1.3639 232.521 -1.3639 238.958Z" fill="#A1BA38"/>
<g opacity="0.1">
<path opacity="0.1" d="M5.22729 223.754C5.22729 223.754 -9.42493 242.035 5.22729 247.064C5.22729 247.074 -1.53843 239.262 5.22729 223.754Z" fill="white"/>
</g>
<g opacity="0.1">
<path opacity="0.1" d="M5.22739 223.754C5.22739 223.754 20.2285 241.886 5.22739 247.064C5.22739 247.074 11.9085 236.744 5.22739 223.754Z" fill="black"/>
</g>
<path d="M5.22729 223.754H3.7808L4.49891 224.753L5.22729 223.754Z" fill="#BDCA6F"/>
<path d="M5.22729 247.068H3.7808L4.49891 246.831L5.22729 247.068Z" fill="#BDCA6F"/>
<g opacity="0.1">
<path opacity="0.1" d="M-4.38271 233.721C-4.38271 233.721 5.26581 245.38 -4.38271 248.712C-4.38271 248.712 -0.0842233 242.074 -4.38271 233.721Z" fill="black"/>
</g>
<path d="M317.56 239.507C317.56 245.944 324.152 247.615 324.152 247.615C324.152 247.615 330.743 245.944 330.743 239.507C330.743 233.07 324.152 224.316 324.152 224.316C324.152 224.316 317.56 233.073 317.56 239.507Z" fill="#BDCA6F"/>
<path d="M319.017 239.507C319.017 245.944 325.606 247.615 325.606 247.615C325.606 247.615 332.2 245.944 332.2 239.507C332.2 233.07 325.606 224.316 325.606 224.316C325.606 224.316 319.017 233.073 319.017 239.507Z" fill="#A1BA38"/>
<g opacity="0.1">
<path opacity="0.1" d="M325.606 224.306C325.606 224.306 310.953 242.587 325.606 247.616C325.606 247.616 318.843 239.814 325.606 224.306Z" fill="white"/>
</g>
<path d="M315.27 252.351C315.264 252.453 315.299 252.553 315.367 252.629C315.435 252.705 315.53 252.751 315.631 252.757C315.732 252.751 315.827 252.704 315.894 252.628C315.961 252.552 315.996 252.452 315.99 252.351V242.608C315.996 242.506 315.961 242.406 315.894 242.33C315.827 242.254 315.732 242.207 315.631 242.201C315.53 242.207 315.435 242.253 315.367 242.329C315.299 242.405 315.264 242.505 315.27 242.608V252.351Z" fill="#907669"/>
<path d="M315.632 242.201V252.757C315.53 252.751 315.435 252.705 315.367 252.629C315.3 252.553 315.265 252.453 315.27 252.351V242.608C315.265 242.505 315.3 242.405 315.367 242.329C315.435 242.253 315.53 242.207 315.632 242.201Z" fill="#907669"/>
<path d="M310.83 244.051C310.83 248.189 315.067 249.263 315.067 249.263C315.067 249.263 319.307 248.189 319.307 244.051C319.307 239.914 315.067 234.267 315.067 234.267C315.067 234.267 310.83 239.911 310.83 244.051Z" fill="#BDCA6F"/>
<path d="M311.762 244.051C311.762 248.189 315.998 249.263 315.998 249.263C315.998 249.263 320.24 248.189 320.24 244.051C320.24 239.914 315.998 234.267 315.998 234.267C315.998 234.267 311.762 239.911 311.762 244.051Z" fill="#A1BA38"/>
<g opacity="0.1">
<path opacity="0.1" d="M315.998 234.273C315.998 234.273 306.575 246.027 315.998 249.261C315.998 249.261 311.648 244.243 315.998 234.273Z" fill="white"/>
</g>
<g opacity="0.1">
<path opacity="0.1" d="M315.998 234.273C315.998 234.273 325.644 245.932 315.998 249.261C315.998 249.261 320.294 242.626 315.998 234.273Z" fill="black"/>
</g>
<path d="M315.998 234.273H315.067L315.529 234.917L315.998 234.273Z" fill="#BDCA6F"/>
<path d="M315.998 249.263H315.067L315.529 249.114L315.998 249.263Z" fill="#BDCA6F"/>
<path d="M292.634 252.417C292.626 252.575 292.681 252.73 292.786 252.849C292.891 252.967 293.038 253.039 293.196 253.05C293.353 253.039 293.5 252.967 293.604 252.848C293.709 252.73 293.763 252.575 293.755 252.417V237.266C293.764 237.108 293.71 236.952 293.605 236.833C293.501 236.714 293.353 236.641 293.196 236.63C293.037 236.641 292.89 236.714 292.785 236.833C292.68 236.952 292.625 237.107 292.634 237.266V252.417Z" fill="#907669"/>
<path d="M293.196 236.63V253.05C293.038 253.039 292.891 252.967 292.786 252.849C292.681 252.73 292.626 252.575 292.634 252.417V237.266C292.625 237.107 292.68 236.952 292.785 236.833C292.89 236.714 293.037 236.641 293.196 236.63Z" fill="#907669"/>
<path d="M285.727 239.507C285.727 245.944 292.321 247.615 292.321 247.615C292.321 247.615 298.912 245.944 298.912 239.507C298.912 233.07 292.321 224.316 292.321 224.316C292.321 224.316 285.727 233.073 285.727 239.507Z" fill="#BDCA6F"/>
<path d="M287.176 239.507C287.176 245.944 293.768 247.615 293.768 247.615C293.768 247.615 300.362 245.944 300.362 239.507C300.362 233.07 293.768 224.316 293.768 224.316C293.768 224.316 287.176 233.073 287.176 239.507Z" fill="#A1BA38"/>
<g opacity="0.1">
<path opacity="0.1" d="M293.768 224.306C293.768 224.306 279.115 242.587 293.768 247.616C293.768 247.616 287.002 239.814 293.768 224.306Z" fill="white"/>
</g>
<g opacity="0.1">
<path opacity="0.1" d="M293.767 224.306C293.767 224.306 308.768 242.435 293.767 247.616C293.767 247.616 300.448 237.291 293.767 224.306Z" fill="black"/>
</g>
<path d="M293.765 224.306H292.321L293.037 225.305L293.765 224.306Z" fill="#BDCA6F"/>
<path d="M293.765 247.613H292.321L293.037 247.374L293.765 247.613Z" fill="#BDCA6F"/>
<path d="M283.429 252.351C283.424 252.453 283.46 252.553 283.528 252.629C283.596 252.705 283.692 252.751 283.793 252.757C283.894 252.751 283.989 252.704 284.055 252.628C284.122 252.552 284.156 252.452 284.15 252.351V242.608C284.156 242.506 284.122 242.406 284.055 242.33C283.989 242.254 283.894 242.207 283.793 242.201C283.743 242.203 283.693 242.216 283.648 242.238C283.602 242.26 283.561 242.29 283.527 242.328C283.493 242.366 283.467 242.41 283.45 242.458C283.434 242.506 283.426 242.557 283.429 242.608V252.351Z" fill="#907669"/>
<path d="M283.793 242.201V252.757C283.692 252.751 283.596 252.705 283.528 252.629C283.46 252.553 283.424 252.453 283.429 252.351V242.608C283.427 242.557 283.434 242.506 283.451 242.458C283.467 242.41 283.493 242.366 283.527 242.328C283.561 242.29 283.602 242.26 283.648 242.238C283.693 242.216 283.743 242.203 283.793 242.201Z" fill="#907669"/>
<path d="M278.989 244.051C278.989 248.189 283.229 249.263 283.229 249.263C283.229 249.263 287.466 248.189 287.466 244.051C287.466 239.914 283.229 234.267 283.229 234.267C283.229 234.267 278.989 239.911 278.989 244.051Z" fill="#BDCA6F"/>
<path d="M279.921 244.051C279.921 248.189 284.157 249.263 284.157 249.263C284.157 249.263 288.399 248.189 288.399 244.051C288.399 239.914 284.157 234.267 284.157 234.267C284.157 234.267 279.921 239.911 279.921 244.051Z" fill="#A1BA38"/>
<g opacity="0.1">
<path opacity="0.1" d="M284.157 234.273C284.157 234.273 274.737 246.027 284.157 249.261C284.157 249.261 279.808 244.243 284.157 234.273Z" fill="white"/>
</g>
<g opacity="0.1">
<path opacity="0.1" d="M284.158 234.273C284.158 234.273 293.806 245.932 284.158 249.261C284.158 249.261 288.456 242.626 284.158 234.273Z" fill="black"/>
</g>
<path d="M284.157 234.273H283.229L283.691 234.917L284.157 234.273Z" fill="#BDCA6F"/>
<path d="M284.157 249.263H283.229L283.691 249.114L284.157 249.263Z" fill="#BDCA6F"/>
<path d="M51.0072 204.302H76.1465V253.056H51.0072V204.302Z" fill="#0E738E"/>
<g opacity="0.2">
<path opacity="0.2" d="M149.233 236.46L128.762 251.688H102.312L126.233 236.272L149.233 236.46Z" fill="white"/>
</g>
<path d="M107.918 203.983H211.048V252.068H107.918V203.983Z" fill="#5FAFB7"/>
<path d="M107.859 236.675H210.912V237.672H107.859V236.675Z" fill="#90D0D3"/>
<g opacity="0.8">
<path opacity="0.8" d="M107.844 245.208H122.871V242.636H133.232V245.78H144.114V241.779H159.659V244.493H166.74V242.78H177.101V245.922H187.981V241.92H203.526V244.637H210.95V252.351L107.844 251.924V245.208Z" fill="#5CAEB7"/>
</g>
<g opacity="0.8">
<path opacity="0.8" d="M108.008 224.51H123.012V222.589H133.355V224.94H144.219V221.948H159.738V223.977H166.809V222.697H177.155V225.045H188.019V222.053H203.536V224.082H210.95V229.847L108.008 229.528V224.51Z" fill="#5CAEB7"/>
</g>
<path d="M204.808 203.914H205.477V252.323H204.808V203.914Z" fill="#90D0D3"/>
<path d="M196.783 203.914H197.452V252.323H196.783V203.914Z" fill="#90D0D3"/>
<path d="M188.089 203.914H188.758V252.323H188.089V203.914Z" fill="#90D0D3"/>
<path d="M180.064 203.914H180.733V252.323H180.064V203.914Z" fill="#90D0D3"/>
<path d="M171.367 203.914H172.039V252.323H171.367V203.914Z" fill="#90D0D3"/>
<path d="M163.344 203.914H164.011V252.323H163.344V203.914Z" fill="#90D0D3"/>
<path d="M154.65 203.914H155.319V252.323H154.65V203.914Z" fill="#90D0D3"/>
<path d="M146.623 203.914H147.294V252.323H146.623V203.914Z" fill="#90D0D3"/>
<path d="M137.933 203.914H138.6V252.323H137.933V203.914Z" fill="#90D0D3"/>
<path d="M129.906 203.914H130.575V252.323H129.906V203.914Z" fill="#90D0D3"/>
<path d="M121.211 203.914H121.883V252.323H121.211V203.914Z" fill="#90D0D3"/>
<path d="M113.186 203.914H113.855V252.323H113.186V203.914Z" fill="#90D0D3"/>
<path d="M107.916 229.722H210.912V230.535H107.916V229.722Z" fill="#90D0D3"/>
<path d="M107.916 220.859H210.912V221.673H107.916V220.859Z" fill="#90D0D3"/>
<path d="M107.916 212.264H210.912V213.078H107.916V212.264Z" fill="#90D0D3"/>
<path d="M107.859 244.18H210.912V245.177H107.859V244.18Z" fill="#90D0D3"/>
<g opacity="0.2">
<path opacity="0.2" d="M207.378 204.098L160.092 252.07H128.095L176.807 204.281L207.378 204.098Z" fill="white"/>
</g>
<g opacity="0.1">
<path opacity="0.1" d="M162.09 204.163L107.808 252.191V235.516L141.38 204.163H162.09Z" fill="white"/>
</g>
<g opacity="0.1">
<path opacity="0.1" d="M134.76 204.163L107.808 231.121V221.761L124.476 204.163H134.76Z" fill="white"/>
</g>
<path d="M107.916 197.606H209.399V203.984H107.916V197.606Z" fill="#C8CBCC"/>
<g opacity="0.2">
<path opacity="0.2" d="M158.507 236.46L138.036 251.688H111.586L135.504 236.272L158.507 236.46Z" fill="white"/>
</g>
<path d="M117.19 203.983H220.319V252.068H117.19V203.983Z" fill="#81D0DE"/>
<path d="M117.136 236.675H220.186V237.672H117.136V236.675Z" fill="#AEE7ED"/>
<g opacity="0.8">
<path opacity="0.8" d="M117.118 245.208H132.145V242.636H142.506V245.78H153.388V241.779H168.93V244.493H176.012V242.78H186.376V245.922H197.255V241.92H212.797V244.637H220.225V252.351L117.118 251.924V245.208Z" fill="#5CAEB7"/>
</g>
<g opacity="0.8">
<path opacity="0.8" d="M117.118 224.51H132.145V222.589H142.506V224.94H153.388V221.948H168.93V223.977H176.012V222.697H186.376V225.045H197.255V222.053H212.797V224.082H220.225V229.847L117.118 229.528V224.51Z" fill="#5CAEB7"/>
</g>
<path d="M214.079 203.914H214.749V252.323H214.079V203.914Z" fill="#AEE7ED"/>
<path d="M206.057 203.914H206.724V252.323H206.057V203.914Z" fill="#AEE7ED"/>
<path d="M197.363 203.914H198.032V252.323H197.363V203.914Z" fill="#AEE7ED"/>
<path d="M189.338 203.914H190.007V252.323H189.338V203.914Z" fill="#AEE7ED"/>
<path d="M180.64 203.914H181.31V252.323H180.64V203.914Z" fill="#AEE7ED"/>
<path d="M172.618 203.914H173.285V252.323H172.618V203.914Z" fill="#AEE7ED"/>
<path d="M163.924 203.914H164.593V252.323H163.924V203.914Z" fill="#AEE7ED"/>
<path d="M155.896 203.914H156.568V252.323H155.896V203.914Z" fill="#AEE7ED"/>
<path d="M147.204 203.914H147.874V252.323H147.204V203.914Z" fill="#AEE7ED"/>
<path d="M139.179 203.914H139.849V252.323H139.179V203.914Z" fill="#AEE7ED"/>
<path d="M130.483 203.914H131.155V252.323H130.483V203.914Z" fill="#AEE7ED"/>
<path d="M122.46 203.914H123.13V252.323H122.46V203.914Z" fill="#AEE7ED"/>
<path d="M117.19 229.722H220.186V230.535H117.19V229.722Z" fill="#AEE7ED"/>
<path d="M117.19 220.859H220.186V221.673H117.19V220.859Z" fill="#AEE7ED"/>
<path d="M117.19 212.264H220.186V213.078H117.19V212.264Z" fill="#AEE7ED"/>
<path d="M117.136 244.18H220.186V245.177H117.136V244.18Z" fill="#AEE7ED"/>
<g opacity="0.2">
<path opacity="0.2" d="M216.652 204.098L169.366 252.07H137.366L186.081 204.281L216.652 204.098Z" fill="white"/>
</g>
<g opacity="0.2">
<path opacity="0.2" d="M171.608 204.042L117.19 252.071V235.396L150.847 204.042H171.608Z" fill="white"/>
</g>
<path d="M117.19 197.606H218.673V203.984H117.19V197.606Z" fill="#EAEAEA"/>
<g opacity="0.2">
<path opacity="0.2" d="M117.197 204.058H218.47V206.754H117.197V204.058Z" fill="black"/>
</g>
<path d="M274.925 229.782H277.038V252.646H274.925V229.782Z" fill="#EAEAEA"/>
<path d="M274.817 229.782H276.007V252.646H274.817V229.782Z" fill="#CECECE"/>
<path d="M218.522 188.201H245.333V252.239H218.522V188.201Z" fill="#0E738E"/>
<path d="M216.236 167.92H248.511L251.56 142.28H213.187L216.236 167.92Z" fill="#C5EDEF"/>
<path d="M216.236 167.92H231.166L230.783 142.28H213.187L216.236 167.92Z" fill="#95DBDB"/>
<path d="M243.935 167.92L247.049 142.28H218.206L220.683 167.92H243.935Z" fill="#AEE7ED"/>
<path d="M222.653 136.919H241.965V139.599H222.653V136.919Z" fill="#E6E8E8"/>
<path d="M222.653 136.919H238.662V139.599H222.653V136.919Z" fill="#B2B2B2"/>
<path d="M226.21 136.919H238.662V139.599H226.21V136.919Z" fill="#D4D6D6"/>
<path d="M228.242 121.484H236.757V136.92H228.242V121.484Z" fill="#D1D3D3"/>
<path d="M228.242 121.484H234.723V136.92H228.242V121.484Z" fill="#8D8E8E"/>
<path d="M230.655 121.484H234.723V136.92H230.655V121.484Z" fill="#B2B2B2"/>
<path d="M225.703 119.699H239.044V122.091H225.703V119.699Z" fill="#8D8E8E"/>
<path d="M213.605 145.979H251.206L251.173 146.265H213.638L213.605 145.979Z" fill="#83C4C2"/>
<path d="M214.151 150.566H250.66L250.624 150.855H214.187L214.151 150.566Z" fill="#83C4C2"/>
<path d="M214.697 155.162H250.114L250.078 155.447H214.733L214.697 155.162Z" fill="#83C4C2"/>
<path d="M215.244 159.752H249.567L249.534 160.041H215.277L215.244 159.752Z" fill="#83C4C2"/>
<path d="M215.79 164.348H249.021L248.988 164.633H215.826L215.79 164.348Z" fill="#83C4C2"/>
<path d="M241.83 142.058L242.115 142.091L239.019 169.372L238.734 169.339L241.83 142.058Z" fill="#83C4C2"/>
<path d="M223.356 141.777L226.319 169.073L226.034 169.104L223.07 141.808L223.356 141.777Z" fill="#83C4C2"/>
<path d="M217.947 142.071L221.048 169.352L220.762 169.384L217.661 142.103L217.947 142.071Z" fill="#83C4C2"/>
<path d="M243.845 169.735L244.13 169.765L247.108 142.47L246.82 142.439L243.845 169.735Z" fill="#83C4C2"/>
<path d="M232.753 141.608H233.135V169.259H232.753V141.608Z" fill="#83C4C2"/>
<path d="M210.645 139.599H254.481V142.661H210.645V139.599Z" fill="#2EABBF"/>
<path d="M210.645 139.599H247.049V142.661H210.645V139.599Z" fill="#16707F"/>
<path d="M218.173 139.599H247.049V142.661H218.173V139.599Z" fill="#1C8BA5"/>
<path d="M216.236 167.919H248.575V172.129H216.236V167.919Z" fill="#62B9D3"/>
<path d="M216.236 167.919H243.935V172.129H216.236V167.919Z" fill="#2D819B"/>
<path d="M220.684 167.919H243.935V172.129H220.684V167.919Z" fill="#479DBE"/>
<g opacity="0.2">
<path opacity="0.2" d="M247.049 142.66L220.683 167.919L219.604 157.267L235.359 142.598L247.049 142.66Z" fill="white"/>
</g>
<g opacity="0.2">
<path opacity="0.2" d="M246.097 150.696L228.306 167.852L237.139 167.981L245.079 159.751L246.097 150.696Z" fill="white"/>
</g>
<path d="M225.644 188.201H246.223V252.239H225.644V188.201Z" fill="#2EA8BC"/>
<path d="M225.374 188.201H239.229V252.239H225.374V188.201Z" fill="#1C8BA5"/>
<path d="M211.597 171.938H253.53V194.504H211.597V171.938Z" fill="#D4D6D6"/>
<path d="M243.999 171.938H253.53V194.45H243.999V171.938Z" fill="#E6E8E8"/>
<path d="M211.217 171.938H220.745V194.504H211.217V171.938Z" fill="#C1C1C1"/>
<path d="M211.961 222.759H270.529V252.282H211.961V222.759Z" fill="#19A8C6"/>
<path d="M203.461 222.759H212.205V252.29H203.461V222.759Z" fill="#1B8F9E"/>
<path d="M200.964 237.251H210.725V238.292H200.964V237.251Z" fill="#D4D6D6"/>
<path d="M196.08 237.251H205.842V238.292H196.08V237.251Z" fill="#9E9E9E"/>
<path d="M203.454 238.297H210.678V250.689H203.454V238.297Z" fill="#13858E"/>
<g opacity="0.2">
<path opacity="0.2" d="M204.338 238.297H210.678V250.689H204.338V238.297Z" fill="black"/>
</g>
<path d="M205.995 249.597H210.702V251.008H205.995V249.597Z" fill="#393F42"/>
<path d="M202.151 249.597H206.006V251.008H202.151V249.597Z" fill="#1A2428"/>
<path d="M203.941 250.979H210.702V252.311H203.941V250.979Z" fill="#393F42"/>
<path d="M200.035 250.979H204.397V252.311H200.035V250.979Z" fill="#1A2428"/>
<path d="M212.125 222.435H277.038V230.275H212.125V222.435Z" fill="#EAEAEA"/>
<path d="M212.125 227.822H277.038V230.271H212.125V227.822Z" fill="#CECECE"/>
<path d="M202.974 222.435H212.125V230.275H202.974V222.435Z" fill="#CECECE"/>
<path d="M202.974 227.822H212.125V230.271H202.974V227.822Z" fill="#B5B5B5"/>
<g opacity="0.2">
<path opacity="0.2" d="M203.423 230.189H270.531V232.396H203.423V230.189Z" fill="black"/>
</g>
<path d="M227.711 237.322H257.811V252.233H227.711V237.322Z" fill="#34C3D6"/>
<path d="M251.534 237.322H252.017V252.155H251.534V237.322Z" fill="#19A8C6"/>
<path d="M242.843 237.322H243.325V252.155H242.843V237.322Z" fill="#19A8C6"/>
<path d="M233.669 237.322H234.151V252.155H233.669V237.322Z" fill="#19A8C6"/>
<path d="M226.434 234.751H260.86V237.715H226.434V234.751Z" fill="#EAEAEA"/>
<path d="M224.074 234.751H229.188V237.715H224.074V234.751Z" fill="#CECECE"/>
<g opacity="0.2">
<path opacity="0.2" d="M227.662 237.765H257.811V239.343H227.662V237.765Z" fill="black"/>
</g>
<g opacity="0.1">
<path opacity="0.1" d="M257.811 252.23L227.665 237.765L240.599 237.615L257.811 244.825V252.23Z" fill="white"/>
</g>
<g opacity="0.2">
<path opacity="0.2" d="M250.829 252.231L227.713 242.604V247.836L237.254 252.28L250.829 252.231Z" fill="white"/>
</g>
<path d="M112.073 215.492H115.41V239.011H112.073V215.492Z" fill="#1C8BA5"/>
<path d="M108.944 215.492H112.076V239.013H108.944V215.492Z" fill="#157382"/>
<path d="M77.1289 217.372H110.609V236.809H77.1289V217.372Z" fill="#EAEAEA"/>
<path d="M56.8472 204.302H78.9038V253.056H56.8472V204.302Z" fill="#1C8BA5"/>
<path d="M56.8446 204.058H81.0684V206.754H56.8446V204.058Z" fill="#19A8C6"/>
<path d="M49.3788 204.058H56.8318V206.754H49.3788V204.058Z" fill="#1B8F9E"/>
<path d="M107.851 217.407H108.246V236.762H107.851V217.407Z" fill="#C8CBCC"/>
<path d="M104.7 217.407H105.095V236.762H104.7V217.407Z" fill="#C8CBCC"/>
<path d="M101.155 217.407H101.55V236.762H101.155V217.407Z" fill="#C8CBCC"/>
<path d="M97.6108 217.407H98.0059V236.762H97.6108V217.407Z" fill="#C8CBCC"/>
<path d="M94.4588 217.407H94.8538V236.762H94.4588V217.407Z" fill="#C8CBCC"/>
<path d="M90.9142 217.407H91.3091V236.762H90.9142V217.407Z" fill="#C8CBCC"/>
<path d="M86.9775 217.407H87.3699V236.762H86.9775V217.407Z" fill="#C8CBCC"/>
<path d="M83.8252 217.407H84.2202V236.762H83.8252V217.407Z" fill="#C8CBCC"/>
<path d="M80.2836 217.407H80.676V236.762H80.2836V217.407Z" fill="#C8CBCC"/>
<path d="M78.9524 235.109H110.609V236.762H78.9524V235.109Z" fill="#C8CBCC"/>
<path d="M78.9524 217.407H110.609V218.362H78.9524V217.407Z" fill="#C8CBCC"/>
<g opacity="0.1">
<path opacity="0.1" d="M78.9037 217.407L78.9524 236.762H92.8865L78.9037 217.407Z" fill="black"/>
</g>
<path d="M56.8369 212.678H75.9773V218.185H56.8369V212.678Z" fill="#81D0DE"/>
<g opacity="0.2">
<path opacity="0.2" d="M66.506 218.189H74.7131L75.9878 212.632H67.7807L66.506 218.189Z" fill="white"/>
</g>
<g opacity="0.2">
<path opacity="0.2" d="M75.9878 212.632L64.898 218.14L56.8935 218.189L65.7982 212.679L75.9878 212.632Z" fill="white"/>
</g>
<g opacity="0.2">
<path opacity="0.2" d="M61.9099 212.678L56.8549 215.652L56.8626 212.68L61.9099 212.678Z" fill="white"/>
</g>
<g opacity="0.1">
<path opacity="0.1" d="M56.8445 218.189H75.9773V219.533H56.8445V218.189Z" fill="black"/>
</g>
<path d="M51.6535 212.678H56.8496V218.185H51.6535V212.678Z" fill="#61B3BC"/>
<g opacity="0.1">
<path opacity="0.1" d="M51.6484 218.189H56.8496V219.533H51.6484V218.189Z" fill="black"/>
</g>
<path d="M51.6535 221.988H56.8496V227.496H51.6535V221.988Z" fill="#61B3BC"/>
<g opacity="0.1">
<path opacity="0.1" d="M51.6484 227.495H56.8496V228.839H51.6484V227.495Z" fill="black"/>
</g>
<path d="M51.6535 231.298H56.8496V236.806H51.6535V231.298Z" fill="#61B3BC"/>
<g opacity="0.1">
<path opacity="0.1" d="M51.6484 236.805H56.8496V238.149H51.6484V236.805Z" fill="black"/>
</g>
<path d="M56.8369 221.988H75.9773V227.496H56.8369V221.988Z" fill="#81D0DE"/>
<g opacity="0.2">
<path opacity="0.2" d="M66.506 227.497H74.7131L75.9878 221.943H67.7807L66.506 227.497Z" fill="white"/>
</g>
<g opacity="0.2">
<path opacity="0.2" d="M75.9878 221.943L64.898 227.448L56.8935 227.497L65.7982 221.989L75.9878 221.943Z" fill="white"/>
</g>
<g opacity="0.2">
<path opacity="0.2" d="M61.9099 221.988L56.9241 224.89L56.8626 221.988H61.9099Z" fill="white"/>
</g>
<g opacity="0.1">
<path opacity="0.1" d="M56.8779 227.495H75.9773V228.839H56.8779V227.495Z" fill="black"/>
</g>
<path d="M56.8369 231.298H75.9773V236.806H56.8369V231.298Z" fill="#81D0DE"/>
<g opacity="0.2">
<path opacity="0.2" d="M66.506 236.809H74.7131L75.9878 231.253H67.7807L66.506 236.809Z" fill="white"/>
</g>
<g opacity="0.2">
<path opacity="0.2" d="M75.9878 231.253L64.898 236.76L56.8935 236.809L65.7982 231.302L75.9878 231.253Z" fill="white"/>
</g>
<g opacity="0.2">
<path opacity="0.2" d="M61.9099 231.298L56.9241 234.2L56.8626 231.298H61.9099Z" fill="white"/>
</g>
<g opacity="0.1">
<path opacity="0.1" d="M56.8779 236.805H75.9773V238.149H56.8779V236.805Z" fill="black"/>
</g>
<path d="M60.412 244.524H75.2771V251.888H60.412V244.524Z" fill="#34C3D6"/>
<path d="M72.1766 244.524H72.4126V251.849H72.1766V244.524Z" fill="#19A8C6"/>
<path d="M67.8831 244.524H68.1216V251.849H67.8831V244.524Z" fill="#19A8C6"/>
<path d="M63.3538 244.524H63.5923V251.849H63.3538V244.524Z" fill="#19A8C6"/>
<path d="M59.7785 243.255H76.7825V244.718H59.7785V243.255Z" fill="#EAEAEA"/>
<path d="M58.6144 243.255H61.1406V244.718H58.6144V243.255Z" fill="#CECECE"/>
<g opacity="0.2">
<path opacity="0.2" d="M60.3864 244.747H75.2771V245.527H60.3864V244.747Z" fill="black"/>
</g>
<g opacity="0.1">
<path opacity="0.1" d="M75.2771 251.889L60.3864 244.747L66.7751 244.672L75.2771 248.233V251.889Z" fill="white"/>
</g>
<g opacity="0.2">
<path opacity="0.2" d="M71.8274 251.89L60.4093 247.135V249.72L65.1233 251.914L71.8274 251.89Z" fill="white"/>
</g>
<path d="M-21.238 251.582H337.822V254.929H-21.238V251.582Z" fill="#546470"/>
<path d="M-4.84965 261.827L16.5606 266.433L65.6363 267.154L71.5864 264.034L64.4206 261.827H-4.84965Z" fill="#19A8C6"/>
<path d="M71.5864 264.034L-4.84965 261.827L16.5606 266.433L65.6363 267.154L71.5864 264.034Z" fill="#128B9B"/>
<path d="M6.97389 264.239L40.8948 264.865L38.012 266.745L16.0889 266.587L6.97389 264.239Z" fill="#0C7077"/>
<path d="M58.4759 267.139L58.7957 267.258L56.4389 273.631L56.1191 273.512L58.4759 267.139Z" fill="#4D4D4D"/>
<path d="M58.4717 267.119L58.6328 267.179L56.2772 273.552L56.1161 273.492L58.4717 267.119Z" fill="#646464"/>
<path d="M54.517 270.145L58.2017 275.848L57.6035 276.237L53.9188 270.534L54.517 270.145Z" fill="#4D4D4D"/>
<path d="M57.9089 276.027L57.6089 276.223L53.926 270.517L54.2286 270.321L57.9089 276.027Z" fill="#646464"/>
<path d="M57.945 274.514C58.2502 274.717 58.4883 275.007 58.6291 275.347C58.77 275.686 58.8074 276.06 58.7365 276.421C58.6656 276.782 58.4897 277.114 58.2309 277.374C57.9722 277.635 57.6423 277.812 57.2829 277.885C56.9236 277.957 56.5511 277.92 56.2124 277.78C55.8738 277.639 55.5843 277.401 55.3806 277.095C55.1769 276.789 55.0681 276.43 55.0681 276.062C55.0681 275.694 55.1767 275.334 55.3804 275.029C55.5151 274.826 55.6882 274.651 55.89 274.516C56.0918 274.38 56.3183 274.286 56.5564 274.238C56.7946 274.19 57.0398 274.19 57.2781 274.237C57.5163 274.284 57.743 274.378 57.945 274.514Z" fill="#646464"/>
<path d="M58.4142 274.513C58.7194 274.717 58.9575 275.007 59.0984 275.346C59.2393 275.686 59.2766 276.06 59.2057 276.421C59.1348 276.782 58.9589 277.113 58.7001 277.374C58.4414 277.634 58.1114 277.812 57.7521 277.884C57.3928 277.956 57.0203 277.92 56.6816 277.779C56.343 277.639 56.0534 277.4 55.8497 277.095C55.646 276.789 55.5372 276.429 55.5372 276.061C55.5372 275.694 55.6458 275.334 55.8495 275.028C56.122 274.619 56.545 274.335 57.0258 274.238C57.5066 274.142 58.0059 274.241 58.4142 274.513Z" fill="#393838"/>
<path d="M57.8217 275.399C57.9629 275.492 58.0732 275.626 58.1386 275.783C58.2041 275.94 58.2217 276.113 58.1893 276.28C58.1568 276.447 58.0759 276.6 57.9565 276.721C57.8372 276.842 57.6849 276.924 57.5188 276.958C57.3528 276.992 57.1805 276.976 57.0237 276.911C56.867 276.847 56.7327 276.737 56.638 276.596C56.5433 276.455 56.4924 276.289 56.4917 276.119C56.491 275.949 56.5406 275.782 56.6341 275.641C56.6963 275.546 56.7763 275.465 56.8696 275.402C56.9629 275.339 57.0677 275.295 57.1779 275.273C57.2882 275.25 57.4019 275.25 57.5123 275.271C57.6228 275.293 57.7279 275.336 57.8217 275.399Z" fill="#D1D1D1"/>
<path d="M57.5473 275.801C57.6042 275.843 57.648 275.899 57.6731 275.965C57.6983 276.031 57.7037 276.102 57.6888 276.171C57.6738 276.24 57.6391 276.303 57.589 276.352C57.5389 276.401 57.4755 276.435 57.4067 276.448C57.3379 276.462 57.2666 276.455 57.2018 276.428C57.1369 276.401 57.0812 276.356 57.0416 276.298C57.002 276.24 56.9803 276.171 56.979 276.101C56.9777 276.031 56.9969 275.961 57.0343 275.902C57.0605 275.86 57.0948 275.825 57.1352 275.797C57.1756 275.769 57.2212 275.75 57.2692 275.741C57.3173 275.731 57.3667 275.732 57.4145 275.742C57.4624 275.753 57.5075 275.773 57.5473 275.801Z" fill="#393838"/>
<path d="M109.295 266.581L109.615 266.701L107.245 273.09L106.925 272.97L109.295 266.581Z" fill="#4D4D4D"/>
<path d="M108.036 273.118L107.872 273.059L110.234 266.686L110.393 266.748L108.036 273.118Z" fill="#646464"/>
<path d="M106.282 269.71L109.964 275.415L109.365 275.804L105.683 270.099L106.282 269.71Z" fill="#4D4D4D"/>
<path d="M106.807 268.844L110.463 274.554L110.16 274.75L106.503 269.04L106.807 268.844Z" fill="#646464"/>
<path d="M109.708 274.085C110.014 274.289 110.252 274.579 110.393 274.919C110.533 275.258 110.571 275.632 110.5 275.993C110.429 276.354 110.253 276.686 109.994 276.946C109.736 277.207 109.406 277.384 109.046 277.456C108.687 277.529 108.314 277.492 107.976 277.352C107.637 277.211 107.348 276.973 107.144 276.667C106.94 276.361 106.832 276.002 106.831 275.634C106.831 275.266 106.94 274.906 107.144 274.6C107.416 274.191 107.839 273.907 108.32 273.811C108.801 273.714 109.3 273.813 109.708 274.085Z" fill="#646464"/>
<path d="M110.175 274.085C110.48 274.289 110.718 274.579 110.859 274.919C111 275.258 111.038 275.632 110.967 275.993C110.896 276.354 110.72 276.686 110.461 276.946C110.202 277.207 109.872 277.384 109.513 277.456C109.154 277.529 108.781 277.492 108.443 277.352C108.104 277.211 107.815 276.973 107.611 276.667C107.407 276.361 107.298 276.002 107.298 275.634C107.298 275.266 107.407 274.906 107.611 274.6C107.883 274.191 108.306 273.907 108.787 273.811C109.268 273.714 109.767 273.813 110.175 274.085Z" fill="#393838"/>
<path d="M109.583 274.958C109.724 275.052 109.834 275.186 109.899 275.343C109.964 275.5 109.982 275.673 109.949 275.84C109.916 276.007 109.835 276.16 109.715 276.281C109.596 276.401 109.443 276.484 109.277 276.517C109.111 276.551 108.939 276.534 108.782 276.469C108.625 276.404 108.491 276.294 108.397 276.153C108.303 276.012 108.252 275.845 108.252 275.675C108.252 275.505 108.302 275.339 108.395 275.197C108.521 275.008 108.717 274.876 108.94 274.831C109.162 274.786 109.394 274.832 109.583 274.958Z" fill="#D1D1D1"/>
<path d="M109.306 275.375C109.365 275.415 109.411 275.471 109.439 275.537C109.466 275.602 109.473 275.675 109.46 275.745C109.446 275.815 109.412 275.879 109.362 275.93C109.312 275.98 109.248 276.015 109.178 276.029C109.108 276.043 109.036 276.036 108.97 276.009C108.905 275.982 108.849 275.935 108.809 275.876C108.769 275.817 108.748 275.747 108.748 275.676C108.748 275.605 108.769 275.535 108.808 275.476C108.861 275.397 108.944 275.342 109.037 275.323C109.13 275.304 109.226 275.323 109.306 275.375Z" fill="#393838"/>
<path d="M117.488 266.592L117.808 266.711L115.447 273.082L115.127 272.963L117.488 266.592Z" fill="#4D4D4D"/>
<path d="M117.493 266.612L117.654 266.672L115.298 273.045L115.137 272.985L117.493 266.612Z" fill="#646464"/>
<path d="M113.54 269.644L117.219 275.35L116.621 275.739L112.941 270.033L113.54 269.644Z" fill="#4D4D4D"/>
<path d="M113.255 269.805L116.929 275.515L116.625 275.712L112.951 270.002L113.255 269.805Z" fill="#646464"/>
<path d="M116.967 274.004C117.273 274.208 117.512 274.498 117.653 274.838C117.795 275.179 117.832 275.553 117.762 275.915C117.691 276.277 117.515 276.609 117.255 276.87C116.996 277.131 116.666 277.309 116.306 277.381C115.946 277.454 115.572 277.417 115.233 277.276C114.894 277.135 114.604 276.896 114.4 276.59C114.196 276.283 114.087 275.923 114.088 275.554C114.088 275.186 114.197 274.825 114.402 274.519C114.675 274.111 115.098 273.827 115.578 273.73C116.059 273.634 116.558 273.732 116.967 274.004Z" fill="#646464"/>
<path d="M117.433 274.004C117.739 274.208 117.978 274.498 118.12 274.838C118.261 275.179 118.299 275.553 118.228 275.915C118.158 276.277 117.981 276.609 117.722 276.87C117.463 277.131 117.133 277.309 116.773 277.381C116.413 277.454 116.039 277.417 115.7 277.276C115.361 277.135 115.071 276.896 114.867 276.59C114.663 276.283 114.554 275.923 114.555 275.554C114.555 275.186 114.664 274.825 114.869 274.519C115.142 274.111 115.565 273.827 116.045 273.73C116.526 273.634 117.025 273.732 117.433 274.004Z" fill="#393838"/>
<path d="M116.841 274.882C116.982 274.976 117.092 275.11 117.158 275.267C117.223 275.424 117.241 275.597 117.209 275.764C117.176 275.931 117.095 276.084 116.976 276.205C116.857 276.326 116.704 276.408 116.538 276.442C116.372 276.476 116.2 276.46 116.043 276.395C115.886 276.331 115.752 276.221 115.658 276.08C115.563 275.939 115.512 275.773 115.511 275.603C115.511 275.433 115.56 275.266 115.654 275.124C115.716 275.03 115.796 274.949 115.889 274.886C115.982 274.823 116.087 274.779 116.197 274.756C116.308 274.734 116.421 274.734 116.532 274.755C116.642 274.777 116.747 274.82 116.841 274.882Z" fill="#D1D1D1"/>
<path d="M116.566 275.291C116.626 275.33 116.673 275.386 116.701 275.453C116.729 275.519 116.737 275.592 116.723 275.662C116.71 275.733 116.675 275.798 116.625 275.849C116.575 275.9 116.511 275.935 116.441 275.95C116.37 275.964 116.298 275.957 116.231 275.93C116.165 275.903 116.108 275.857 116.068 275.797C116.028 275.738 116.007 275.668 116.006 275.596C116.006 275.524 116.027 275.454 116.066 275.394C116.119 275.313 116.201 275.258 116.295 275.238C116.389 275.219 116.486 275.238 116.566 275.291Z" fill="#393838"/>
<path d="M39.8588 267.299C39.8588 267.299 50.4151 267.744 51.2332 270.731C51.2332 270.731 51.5307 274.761 39.8588 274.761V267.299Z" fill="#19A8C6"/>
<path d="M41.9409 271.019C41.9409 273.079 41.0074 274.75 39.8584 274.75C38.7094 274.75 37.7784 273.079 37.7784 271.019C37.7784 268.96 38.7094 267.289 39.8584 267.289C41.0074 267.289 41.9409 268.96 41.9409 271.019Z" fill="#0F777F"/>
<path d="M41.7129 270.988C41.7129 272.821 40.8819 274.31 39.8586 274.31C38.8353 274.31 38.0069 272.821 38.0069 270.988C38.0069 269.155 38.8379 267.667 39.8586 267.667C40.8794 267.667 41.7129 269.155 41.7129 270.988Z" fill="#B5E7EA"/>
<path d="M40.9358 270.994C40.9358 272.366 40.3998 273.479 39.7381 273.479C39.0764 273.479 38.5429 272.366 38.5429 270.994C38.5429 269.621 39.0764 268.512 39.7381 268.512C40.3998 268.512 40.9358 269.624 40.9358 270.994Z" fill="#8CD0D3"/>
<path opacity="0.1" d="M41.5489 268.903C41.5489 268.903 48.3838 269.593 51.2332 270.731C51.2332 270.731 50.8895 267.94 40.1126 267.299C40.1126 267.299 41.1513 267.541 41.5489 268.903Z" fill="black"/>
<path opacity="0.1" d="M41.7896 272.468C41.7896 272.468 48.7836 273.48 51.2329 270.73C51.2329 270.73 51.5663 274.669 40.0739 274.749C40.0739 274.749 41.3408 274.43 41.7896 272.468Z" fill="black"/>
<path opacity="0.3" d="M44.1956 267.761C44.1956 267.761 46.7295 270.112 44.5444 274.5C44.5444 274.5 51.0998 273.794 51.2332 270.73C51.2332 270.73 51.0229 268.662 44.1956 267.761Z" fill="#E8FCFB"/>
<path d="M109.385 255.149L130.044 233.039L136.071 234.231L129.459 261.223L109.385 255.149Z" fill="#E8FCFB"/>
<path d="M114.34 256.129L132.791 233.582L137.977 234.606L131.542 261.632L114.34 256.129Z" fill="#D1F2F2"/>
<path d="M136.071 234.229L127.849 254.168L133.024 254.923L137.977 234.605L136.071 234.229Z" fill="#AFE8E8"/>
<path d="M42.0284 254.177C42.0284 254.177 35.7705 253.943 30.8308 255.37C30.8308 255.37 20.7464 260.594 20.5104 265.375C20.5104 265.375 24.2446 271.648 42.4695 271.797L42.0284 254.177Z" fill="#D1F2F2"/>
<path d="M129.475 254.178C129.475 254.178 147.394 256.418 147.766 265.376C147.766 265.376 144.594 271.648 129.1 271.797L129.475 254.178Z" fill="#E8FCFB"/>
<path d="M42.0285 254.178H129.867V271.797H42.0285V254.178Z" fill="#D1F2F2"/>
<path d="M54.2005 254.177C54.2005 254.177 48.63 253.487 44.5546 255.369C41.5206 256.77 35.8628 260.593 35.6628 265.375C35.6628 265.375 38.8789 271.647 54.5801 271.796L54.2005 254.177Z" fill="#E8FCFB"/>
<path d="M54.1979 254.178H129.867V271.797H54.1979V254.178Z" fill="#E8FCFB"/>
<path d="M42.3027 271.793V265.448H20.8874C21.3696 266.146 25.6603 271.556 42.3027 271.793Z" fill="#A6A6A6"/>
<path d="M147.722 265.448H129.916V271.767C143.721 271.44 147.322 266.128 147.722 265.448Z" fill="#A6A6A6"/>
<path d="M42.3028 271.795H129.916V271.767V265.448H42.3028V271.787V271.795Z" fill="#A6A6A6"/>
<path d="M41.9333 271.795V265.358H20.4436C20.9284 266.051 25.2294 271.555 41.9333 271.795Z" fill="#AFE8E8"/>
<path d="M147.722 265.339H129.851V271.776C143.709 271.433 147.32 266.039 147.722 265.339Z" fill="#AFE8E8"/>
<path d="M41.9335 271.794H129.852V271.766V265.339H41.9335V271.786V271.794Z" fill="#AFE8E8"/>
<path d="M30.3126 255.571L43.5798 255.828C43.5798 255.828 38.5735 258.447 36.5705 262.384L21.8824 262.17C21.8824 262.17 25.2345 257.831 30.3126 255.571Z" fill="#46D2E0"/>
<g opacity="0.3">
<path opacity="0.3" d="M27.9251 256.848L28.4919 262.224L32.8005 262.314L31.9311 255.591L30.3025 255.571L27.9251 256.848Z" fill="white"/>
</g>
<g opacity="0.3">
<path opacity="0.3" d="M33.6393 255.679L34.5678 262.32L36.5605 262.381L35.4757 255.679H33.6393Z" fill="white"/>
</g>
<path d="M43.8159 260.054C41.1307 262.559 40.9409 265.175 40.9332 265.286L42.6823 265.402C42.6823 265.314 42.8721 263.272 45.1188 261.241C47.2603 259.307 51.7332 257.049 60.9148 257.268L140.677 257.386C139.152 256.68 137.576 256.09 135.963 255.62L60.9354 255.507C53.0155 255.314 47.2552 256.859 43.8159 260.054Z" fill="#19A8C6"/>
<path d="M62.5537 262.093C62.5537 262.266 62.1895 262.407 61.7381 262.407H59.5145C59.0631 262.407 58.699 262.266 58.699 262.093V258.919C58.699 258.746 59.0631 258.604 59.5145 258.604H61.7381C62.1895 258.604 62.5537 258.746 62.5537 258.919V262.093Z" fill="#36B8BF"/>
<path d="M62.0176 262.093C62.0176 262.266 61.7047 262.407 61.3174 262.407H59.4016C59.0143 262.407 58.6988 262.266 58.6988 262.093V258.919C58.6988 258.746 59.0143 258.604 59.4016 258.604H61.3174C61.7047 258.604 62.0176 258.746 62.0176 258.919V262.093Z" fill="#46D2E0"/>
<path opacity="0.2" d="M61.6997 262.44C62.1485 262.44 62.5127 262.298 62.5127 262.123V259.692L61.2303 258.645H59.4761C59.0272 258.645 58.6631 258.786 58.6631 258.959V260.063L61.5766 262.44H61.6997Z" fill="white"/>
<path d="M71.325 262.093C71.325 262.266 70.9608 262.407 70.5119 262.407H68.2858C67.837 262.407 67.4728 262.266 67.4728 262.093V258.919C67.4728 258.746 67.837 258.604 68.2858 258.604H70.5119C70.9608 258.604 71.325 258.746 71.325 258.919V262.093Z" fill="#36B8BF"/>
<path d="M70.7915 262.093C70.7915 262.266 70.476 262.407 70.0888 262.407H68.1729C67.7857 262.407 67.4728 262.266 67.4728 262.093V258.919C67.4728 258.746 67.7857 258.604 68.1729 258.604H70.0888C70.476 258.604 70.7915 258.746 70.7915 258.919V262.093Z" fill="#46D2E0"/>
<path opacity="0.2" d="M70.471 262.44C70.9224 262.44 71.2866 262.298 71.2866 262.123V259.692L70.0043 258.645H68.2526C67.8012 258.645 67.437 258.786 67.437 258.959V260.063L70.3531 262.44H70.471Z" fill="white"/>
<path d="M80.0989 262.093C80.0989 262.266 79.7347 262.407 79.2833 262.407H77.0571C76.6083 262.407 76.2441 262.266 76.2441 262.093V258.919C76.2441 258.746 76.6083 258.604 77.0571 258.604H79.2833C79.7347 258.604 80.0989 258.746 80.0989 258.919V262.093Z" fill="#36B8BF"/>
<path d="M79.5552 262.093C79.5552 262.266 79.2397 262.407 78.8525 262.407H76.9366C76.5493 262.407 76.2365 262.266 76.2365 262.093V258.919C76.2365 258.746 76.5493 258.604 76.9366 258.604H78.8525C79.2397 258.604 79.5552 258.746 79.5552 258.919V262.093Z" fill="#46D2E0"/>
<path opacity="0.2" d="M79.2446 262.44C79.6934 262.44 80.0576 262.298 80.0576 262.123V259.692L78.7753 258.645H77.0211C76.5723 258.645 76.2055 258.786 76.2055 258.959V260.063L79.1215 262.44H79.2446Z" fill="white"/>
<path d="M88.229 262.093C88.229 262.266 87.8623 262.407 87.4134 262.407H85.1975C84.7487 262.407 84.3845 262.266 84.3845 262.093V258.919C84.3845 258.746 84.7487 258.604 85.1975 258.604H87.4237C87.8725 258.604 88.2393 258.746 88.2393 258.919L88.229 262.093Z" fill="#36B8BF"/>
<path d="M87.6929 262.093C87.6929 262.266 87.38 262.407 86.9927 262.407H85.0743C84.6896 262.407 84.3742 262.266 84.3742 262.093V258.919C84.3742 258.746 84.6896 258.604 85.0743 258.604H86.9927C87.38 258.604 87.6929 258.746 87.6929 258.919V262.093Z" fill="#46D2E0"/>
<path opacity="0.2" d="M87.375 262.44C87.8238 262.44 88.188 262.298 88.188 262.123V259.692L86.9056 258.645H85.1514C84.7025 258.645 84.3384 258.786 84.3384 258.959V260.063L87.2493 262.44H87.375Z" fill="white"/>
<path d="M96.7874 262.093C96.7874 262.266 96.4206 262.407 95.9718 262.407H93.7456C93.2968 262.407 92.9326 262.266 92.9326 262.093V258.919C92.9326 258.746 93.2968 258.604 93.7456 258.604H95.9692C96.418 258.604 96.7848 258.746 96.7848 258.919L96.7874 262.093Z" fill="#36B8BF"/>
<path d="M96.2515 262.093C96.2515 262.266 95.9386 262.407 95.5513 262.407H93.6329C93.2456 262.407 92.9327 262.266 92.9327 262.093V258.919C92.9327 258.746 93.2456 258.604 93.6329 258.604H95.5513C95.9386 258.604 96.2515 258.746 96.2515 258.919V262.093Z" fill="#46D2E0"/>
<path opacity="0.2" d="M95.9333 262.44C96.3821 262.44 96.7463 262.298 96.7463 262.123V259.692L95.464 258.645H93.7097C93.2609 258.645 92.8967 258.786 92.8967 258.959V260.063L95.8102 262.44H95.9333Z" fill="white"/>
<path d="M104.489 262.093C104.489 262.266 104.125 262.407 103.674 262.407H101.45C100.999 262.407 100.635 262.266 100.635 262.093V258.919C100.635 258.746 100.999 258.604 101.45 258.604H103.663C104.115 258.604 104.479 258.746 104.479 258.919L104.489 262.093Z" fill="#36B8BF"/>
<path d="M103.953 262.093C103.953 262.266 103.64 262.407 103.253 262.407H101.337C100.95 262.407 100.634 262.266 100.634 262.093V258.919C100.634 258.746 100.95 258.604 101.337 258.604H103.253C103.64 258.604 103.953 258.746 103.953 258.919V262.093Z" fill="#46D2E0"/>
<path opacity="0.2" d="M103.635 262.44C104.084 262.44 104.448 262.298 104.448 262.123V259.692L103.166 258.645H101.412C100.963 258.645 100.599 258.786 100.599 258.959V260.063L103.515 262.44H103.635Z" fill="white"/>
<path d="M112.619 262.093C112.619 262.266 112.255 262.407 111.806 262.407H109.58C109.131 262.407 108.767 262.266 108.767 262.093V258.919C108.767 258.746 109.131 258.604 109.58 258.604H111.806C112.255 258.604 112.619 258.746 112.619 258.919V262.093Z" fill="#36B8BF"/>
<path d="M112.086 262.093C112.086 262.266 111.77 262.407 111.383 262.407H109.467C109.08 262.407 108.767 262.266 108.767 262.093V258.919C108.767 258.746 109.08 258.604 109.467 258.604H111.383C111.77 258.604 112.086 258.746 112.086 258.919V262.093Z" fill="#46D2E0"/>
<path opacity="0.2" d="M111.765 262.44C112.217 262.44 112.581 262.298 112.581 262.123V259.692L111.299 258.645H109.544C109.096 258.645 108.731 258.786 108.731 258.959V260.063L111.647 262.44H111.765Z" fill="white"/>
<path d="M120.321 262.093C120.321 262.266 119.957 262.407 119.508 262.407H117.282C116.833 262.407 116.469 262.266 116.469 262.093V258.919C116.469 258.746 116.833 258.604 117.282 258.604H119.508C119.957 258.604 120.321 258.746 120.321 258.919V262.093Z" fill="#36B8BF"/>
<path d="M119.788 262.093C119.788 262.266 119.472 262.407 119.085 262.407H117.169C116.782 262.407 116.469 262.266 116.469 262.093V258.919C116.469 258.746 116.782 258.604 117.169 258.604H119.085C119.472 258.604 119.788 258.746 119.788 258.919V262.093Z" fill="#46D2E0"/>
<path opacity="0.2" d="M119.467 262.44C119.919 262.44 120.283 262.298 120.283 262.123V259.692L119 258.645H117.249C116.797 258.645 116.433 258.786 116.433 258.959V260.063L119.349 262.44H119.467Z" fill="white"/>
<path d="M46.2369 261.319C48.3887 259.385 52.9052 257.125 62.1381 257.344L140.97 257.48C139.995 257.104 139.39 256.834 138.336 256.45L62.6306 256.375C54.6569 256.19 48.858 257.717 45.3982 260.923C43.5286 262.653 42.8618 264.437 42.6258 265.41L43.7851 265.488C43.7902 265.392 43.9723 263.351 46.2369 261.319Z" fill="#128B9B"/>
<path d="M54.5852 271.795V265.358H35.6653C36.0936 266.051 39.8791 271.555 54.5852 271.795Z" fill="#D1F2F2"/>
<path d="M147.722 265.339H131.991V271.776C144.186 271.433 147.368 266.039 147.722 265.339Z" fill="#D1F2F2"/>
<path d="M54.5853 271.794H131.991V271.766V265.339H54.5853V271.786V271.794Z" fill="#D1F2F2"/>
<g opacity="0.1">
<path opacity="0.1" d="M75.48 264.543L65.2109 265.689L74.9465 269.695L140.224 269.152L147.574 266.17L75.48 264.543Z" fill="#141414"/>
</g>
<path d="M32.916 255.346C32.916 255.346 27.1813 258.598 24.3729 263.07H24.9269C24.9269 263.07 28.674 258.057 33.6675 255.346H32.916Z" fill="#E8FCFB"/>
<path d="M38.6531 255.54C38.6531 255.54 32.9158 258.792 30.1074 263.264L30.6204 263.306C30.6204 263.306 34.4828 258.29 39.4763 255.581L38.6531 255.54Z" fill="#E8FCFB"/>
<path d="M168.068 263.26L139.108 267.869L72.7175 268.588L64.6669 265.467L74.3615 263.26H168.068Z" fill="#19A8C6"/>
<path d="M64.6669 265.467L168.068 263.26L139.108 267.869L72.7175 268.588L64.6669 265.467Z" fill="#128B9B"/>
<path d="M69.6348 267.37L137.766 265.253L153.375 265.568L139.108 267.869L73.069 268.544L69.6348 267.37Z" fill="#0C7077"/>
<path d="M71.0762 268C71.0762 268 81.63 268.448 82.4507 271.435C82.4507 271.435 82.7457 275.464 71.0762 275.464V268Z" fill="#19A8C6"/>
<path d="M73.1589 271.733C73.1589 273.793 72.2254 275.464 71.0764 275.464C69.9274 275.464 68.9964 273.793 68.9964 271.733C68.9964 269.674 69.9274 268 71.0764 268C72.2254 268 73.1589 269.674 73.1589 271.733Z" fill="#0F777F"/>
<path d="M72.9304 271.698C72.9304 273.534 72.0994 275.02 71.0761 275.02C70.0528 275.02 69.2244 273.534 69.2244 271.698C69.2244 269.863 70.0553 268.377 71.0761 268.377C72.0969 268.377 72.9304 269.865 72.9304 271.698Z" fill="#B5E7EA"/>
<path d="M72.1533 271.698C72.1533 273.07 71.6173 274.183 70.9556 274.183C70.2939 274.183 69.7579 273.07 69.7579 271.698C69.7579 270.326 70.2939 269.213 70.9556 269.213C71.6173 269.213 72.1533 270.326 72.1533 271.698Z" fill="#8CD0D3"/>
<path opacity="0.1" d="M72.7664 269.608C72.7664 269.608 79.6013 270.298 82.4507 271.436C82.4507 271.436 82.1045 268.645 71.3301 268.004C71.3301 268.004 72.374 268.246 72.7664 269.608Z" fill="black"/>
<path opacity="0.1" d="M73.0074 273.171C73.0074 273.171 80.0014 274.186 82.4507 271.436C82.4507 271.436 82.7841 275.375 71.2916 275.455C71.2916 275.455 72.5663 275.141 73.0074 273.171Z" fill="black"/>
<path opacity="0.3" d="M75.4105 268.468C75.4105 268.468 77.947 270.819 75.7619 275.206C75.7619 275.206 82.3173 274.501 82.4507 271.437C82.4507 271.437 82.2404 269.369 75.4105 268.468Z" fill="#E8FCFB"/>
<path d="M195.198 281.711C195.198 282.545 196.494 283.225 198.094 283.225H309.849C311.449 283.225 312.744 282.545 312.744 281.711V278.685C312.744 277.849 311.462 277.171 309.849 277.171H198.094C196.494 277.171 195.198 277.849 195.198 278.685V281.711Z" fill="#6A777F"/>
<path d="M164.904 265.304L186.314 269.91L235.39 270.631L241.34 267.51L234.174 265.304H164.904Z" fill="#19A8C6"/>
<path d="M241.34 267.51L164.904 265.304L186.314 269.91L235.39 270.631L241.34 267.51Z" fill="#128B9B"/>
<path d="M176.727 267.715L210.648 268.341L207.765 270.221L185.842 270.064L176.727 267.715Z" fill="#0C7077"/>
<path d="M228.234 270.605L228.554 270.725L226.197 277.097L225.877 276.978L228.234 270.605Z" fill="#4D4D4D"/>
<path d="M228.225 270.594L228.386 270.654L226.031 277.027L225.869 276.967L228.225 270.594Z" fill="#646464"/>
<path d="M224.275 273.617L227.96 279.32L227.362 279.709L223.677 274.007L224.275 273.617Z" fill="#4D4D4D"/>
<path d="M227.662 279.5L227.359 279.696L223.679 273.99L223.982 273.794L227.662 279.5Z" fill="#646464"/>
<path d="M227.698 277.99C228.003 278.194 228.241 278.484 228.382 278.823C228.523 279.163 228.56 279.537 228.489 279.898C228.419 280.259 228.243 280.59 227.984 280.851C227.725 281.111 227.395 281.289 227.036 281.361C226.677 281.433 226.304 281.397 225.965 281.256C225.627 281.116 225.337 280.878 225.133 280.572C224.93 280.266 224.821 279.906 224.821 279.538C224.821 279.171 224.93 278.811 225.133 278.505C225.268 278.302 225.441 278.128 225.643 277.992C225.845 277.857 226.071 277.762 226.309 277.714C226.547 277.666 226.793 277.666 227.031 277.714C227.269 277.761 227.496 277.855 227.698 277.99Z" fill="#646464"/>
<path d="M228.167 277.99C228.473 278.193 228.711 278.483 228.852 278.823C228.992 279.163 229.03 279.536 228.959 279.897C228.888 280.258 228.712 280.59 228.453 280.85C228.195 281.111 227.865 281.288 227.505 281.361C227.146 281.433 226.773 281.396 226.435 281.256C226.096 281.115 225.807 280.877 225.603 280.571C225.399 280.265 225.29 279.906 225.29 279.538C225.29 279.17 225.399 278.81 225.603 278.505C225.875 278.095 226.298 277.811 226.779 277.715C227.26 277.618 227.759 277.717 228.167 277.99Z" fill="#393838"/>
<path d="M227.575 278.861C227.716 278.955 227.827 279.089 227.892 279.246C227.957 279.403 227.975 279.576 227.943 279.743C227.91 279.91 227.829 280.063 227.71 280.184C227.591 280.305 227.438 280.387 227.272 280.421C227.106 280.455 226.934 280.439 226.777 280.374C226.62 280.31 226.486 280.2 226.392 280.059C226.297 279.918 226.246 279.752 226.245 279.582C226.245 279.412 226.294 279.245 226.388 279.103C226.45 279.009 226.53 278.928 226.623 278.865C226.716 278.802 226.821 278.758 226.931 278.735C227.042 278.713 227.155 278.713 227.266 278.734C227.376 278.756 227.481 278.799 227.575 278.861Z" fill="#D1D1D1"/>
<path d="M227.301 279.278C227.359 279.318 227.405 279.374 227.432 279.44C227.459 279.505 227.466 279.578 227.452 279.648C227.438 279.717 227.404 279.781 227.354 279.832C227.304 279.882 227.24 279.916 227.171 279.93C227.101 279.944 227.029 279.937 226.963 279.91C226.898 279.883 226.842 279.837 226.802 279.778C226.763 279.719 226.741 279.65 226.741 279.578C226.741 279.507 226.761 279.438 226.801 279.378C226.826 279.338 226.86 279.304 226.899 279.277C226.939 279.25 226.983 279.232 227.03 279.222C227.076 279.213 227.124 279.213 227.171 279.223C227.217 279.232 227.261 279.251 227.301 279.278Z" fill="#393838"/>
<path d="M279.983 270.163L280.303 270.282L277.949 276.655L277.629 276.536L279.983 270.163Z" fill="#4D4D4D"/>
<path d="M277.789 276.594L277.625 276.535L279.985 270.163L280.146 270.224L277.789 276.594Z" fill="#646464"/>
<path d="M276.041 273.187L279.723 278.892L279.125 279.281L275.443 273.577L276.041 273.187Z" fill="#4D4D4D"/>
<path d="M275.738 273.359L279.423 279.062L279.12 279.259L275.434 273.557L275.738 273.359Z" fill="#646464"/>
<path d="M279.459 277.562C279.764 277.766 280.002 278.056 280.143 278.396C280.284 278.735 280.321 279.109 280.25 279.47C280.18 279.831 280.004 280.163 279.745 280.423C279.486 280.684 279.156 280.861 278.797 280.933C278.438 281.006 278.065 280.969 277.726 280.829C277.388 280.688 277.098 280.45 276.894 280.144C276.691 279.838 276.582 279.479 276.582 279.111C276.582 278.743 276.691 278.383 276.894 278.077C277.029 277.875 277.202 277.7 277.404 277.565C277.606 277.429 277.832 277.334 278.07 277.287C278.308 277.239 278.554 277.238 278.792 277.286C279.03 277.333 279.257 277.427 279.459 277.562Z" fill="#646464"/>
<path d="M279.928 277.562C280.234 277.766 280.472 278.056 280.613 278.395C280.753 278.735 280.791 279.109 280.72 279.47C280.649 279.831 280.473 280.162 280.214 280.423C279.956 280.683 279.626 280.861 279.266 280.933C278.907 281.005 278.534 280.969 278.196 280.828C277.857 280.687 277.568 280.449 277.364 280.143C277.16 279.838 277.051 279.478 277.051 279.11C277.051 278.742 277.16 278.383 277.364 278.077C277.636 277.668 278.059 277.384 278.54 277.287C279.021 277.191 279.52 277.289 279.928 277.562Z" fill="#393838"/>
<path d="M279.346 278.434C279.487 278.528 279.597 278.662 279.663 278.819C279.728 278.976 279.745 279.149 279.712 279.316C279.68 279.483 279.598 279.636 279.479 279.757C279.359 279.877 279.207 279.96 279.041 279.993C278.874 280.027 278.702 280.01 278.546 279.945C278.389 279.88 278.255 279.77 278.16 279.629C278.066 279.488 278.016 279.322 278.015 279.151C278.015 278.981 278.065 278.815 278.159 278.673C278.285 278.484 278.481 278.352 278.703 278.307C278.926 278.262 279.157 278.308 279.346 278.434Z" fill="#D1D1D1"/>
<path d="M279.061 278.851C279.12 278.891 279.167 278.947 279.194 279.013C279.221 279.079 279.229 279.151 279.215 279.221C279.201 279.291 279.167 279.355 279.117 279.406C279.067 279.456 279.003 279.491 278.933 279.505C278.864 279.519 278.792 279.512 278.726 279.485C278.66 279.458 278.604 279.411 278.564 279.352C278.525 279.293 278.504 279.223 278.504 279.152C278.503 279.081 278.524 279.011 278.564 278.952C278.617 278.873 278.699 278.818 278.792 278.799C278.885 278.78 278.982 278.799 279.061 278.851Z" fill="#393838"/>
<path d="M287.242 270.083L287.562 270.202L285.2 276.573L284.881 276.454L287.242 270.083Z" fill="#4D4D4D"/>
<path d="M287.244 270.083L287.405 270.143L285.049 276.516L284.888 276.456L287.244 270.083Z" fill="#646464"/>
<path d="M283.302 273.11L286.982 278.816L286.383 279.205L282.704 273.499L283.302 273.11Z" fill="#4D4D4D"/>
<path d="M283.002 273.276L286.676 278.986L286.372 279.183L282.699 273.473L283.002 273.276Z" fill="#646464"/>
<path d="M286.717 277.48C287.023 277.684 287.262 277.974 287.404 278.314C287.545 278.655 287.583 279.029 287.512 279.391C287.441 279.753 287.265 280.085 287.006 280.346C286.747 280.607 286.416 280.785 286.056 280.857C285.696 280.93 285.323 280.893 284.984 280.752C284.644 280.611 284.354 280.372 284.151 280.066C283.947 279.759 283.838 279.399 283.838 279.03C283.839 278.662 283.948 278.302 284.152 277.995C284.425 277.587 284.848 277.303 285.329 277.207C285.81 277.11 286.309 277.209 286.717 277.48Z" fill="#646464"/>
<path d="M287.187 277.48C287.493 277.684 287.732 277.974 287.873 278.314C288.015 278.655 288.052 279.029 287.982 279.391C287.911 279.753 287.735 280.085 287.475 280.346C287.216 280.607 286.886 280.785 286.526 280.857C286.166 280.93 285.792 280.893 285.453 280.752C285.114 280.611 284.824 280.372 284.62 280.066C284.416 279.759 284.307 279.399 284.308 279.03C284.308 278.662 284.417 278.301 284.622 277.995C284.895 277.587 285.318 277.304 285.799 277.208C286.279 277.111 286.778 277.209 287.187 277.48Z" fill="#393838"/>
<path d="M286.594 278.353C286.735 278.447 286.846 278.581 286.911 278.738C286.977 278.895 286.994 279.068 286.962 279.234C286.929 279.401 286.848 279.555 286.729 279.676C286.61 279.796 286.457 279.879 286.291 279.913C286.125 279.947 285.953 279.93 285.796 279.866C285.64 279.801 285.505 279.692 285.411 279.551C285.316 279.41 285.265 279.244 285.264 279.073C285.264 278.903 285.313 278.737 285.407 278.595C285.469 278.501 285.549 278.42 285.642 278.357C285.735 278.294 285.84 278.25 285.95 278.227C286.061 278.205 286.174 278.204 286.285 278.226C286.395 278.247 286.5 278.291 286.594 278.353Z" fill="#D1D1D1"/>
<path d="M286.319 278.768C286.379 278.808 286.426 278.864 286.454 278.93C286.482 278.996 286.489 279.069 286.476 279.14C286.462 279.211 286.428 279.276 286.378 279.327C286.328 279.378 286.264 279.413 286.193 279.427C286.123 279.442 286.051 279.435 285.984 279.408C285.918 279.381 285.861 279.334 285.821 279.275C285.781 279.215 285.76 279.145 285.759 279.073C285.759 279.001 285.78 278.931 285.819 278.871C285.845 278.831 285.879 278.797 285.918 278.77C285.957 278.743 286.001 278.724 286.048 278.715C286.094 278.705 286.142 278.705 286.189 278.714C286.236 278.723 286.28 278.742 286.319 278.768Z" fill="#393838"/>
<path d="M209.612 270.765C209.612 270.765 220.168 271.21 220.986 274.197C220.986 274.197 221.284 278.226 209.612 278.226V270.765Z" fill="#19A8C6"/>
<path d="M211.694 274.506C211.694 276.566 210.761 278.237 209.612 278.237C208.463 278.237 207.532 276.566 207.532 274.506C207.532 272.446 208.463 270.765 209.612 270.765C210.761 270.765 211.694 272.446 211.694 274.506Z" fill="#0F777F"/>
<path d="M211.466 274.465C211.466 276.298 210.635 277.787 209.612 277.787C208.588 277.787 207.76 276.298 207.76 274.465C207.76 272.632 208.591 271.144 209.612 271.144C210.632 271.144 211.466 272.632 211.466 274.465Z" fill="#B5E7EA"/>
<path d="M210.689 274.47C210.689 275.843 210.153 276.955 209.491 276.955C208.829 276.955 208.293 275.843 208.293 274.47C208.293 273.098 208.829 271.988 209.491 271.988C210.153 271.988 210.689 273.101 210.689 274.47Z" fill="#8CD0D3"/>
<path opacity="0.1" d="M211.302 272.379C211.302 272.379 218.137 273.069 220.986 274.207C220.986 274.207 220.64 271.416 209.866 270.775C209.866 270.764 210.904 271.022 211.302 272.379Z" fill="black"/>
<path opacity="0.1" d="M211.543 275.944C211.543 275.944 218.537 276.956 220.986 274.206C220.986 274.206 221.32 278.146 209.827 278.225C209.827 278.23 211.104 277.906 211.543 275.944Z" fill="black"/>
<path opacity="0.3" d="M213.946 271.237C213.946 271.237 216.483 273.596 214.298 277.973C214.298 277.973 220.853 277.268 220.986 274.203C220.986 274.206 220.776 272.138 213.946 271.237Z" fill="#E8FCFB"/>
<path d="M279.138 258.622L299.795 236.512L305.824 237.704L299.21 264.696L279.138 258.622Z" fill="#E8FCFB"/>
<path d="M284.093 259.605L302.544 237.058L307.73 238.082L301.295 265.108L284.093 259.605Z" fill="#D1F2F2"/>
<path d="M305.824 237.705L297.602 257.644L302.775 258.399L307.73 238.081L305.824 237.705Z" fill="#AFE8E8"/>
<path d="M211.781 257.653C211.781 257.653 205.523 257.419 200.584 258.846C200.584 258.846 190.497 264.07 190.261 268.851C190.261 268.851 193.995 275.124 212.222 275.273L211.781 257.653Z" fill="#D1F2F2"/>
<path d="M299.228 257.654C299.228 257.654 317.147 259.894 317.519 268.852C317.519 268.852 314.347 275.124 298.853 275.274L299.228 257.654Z" fill="#E8FCFB"/>
<path d="M211.781 257.654H299.62V275.274H211.781V257.654Z" fill="#D1F2F2"/>
<path d="M223.948 257.653C223.948 257.653 218.378 256.963 214.3 258.845C211.266 260.246 205.611 264.069 205.408 268.851C205.408 268.851 208.627 275.123 224.325 275.272L223.948 257.653Z" fill="#E8FCFB"/>
<path d="M223.951 257.654H299.62V275.274H223.951V257.654Z" fill="#E8FCFB"/>
<path d="M212.056 275.264V268.925H190.641C191.12 269.623 195.411 275.032 212.056 275.264Z" fill="#A6A6A6"/>
<path d="M317.476 268.925H299.666V275.243C313.475 274.916 317.076 269.612 317.476 268.925Z" fill="#A6A6A6"/>
<path d="M212.056 275.272H299.666V275.243V268.925H212.056V275.264V275.272Z" fill="#A6A6A6"/>
<path d="M211.687 275.263V268.826H190.194C190.679 269.523 194.983 275.028 211.687 275.263Z" fill="#AFE8E8"/>
<path d="M317.476 268.815H299.607V275.252C313.457 274.91 317.073 269.516 317.476 268.815Z" fill="#AFE8E8"/>
<path d="M211.686 275.271H299.605V275.242V268.815H211.686V275.263V275.271Z" fill="#AFE8E8"/>
<path d="M200.056 259.047L213.323 259.305C213.323 259.305 208.316 261.923 206.313 265.86L191.633 265.639C191.633 265.639 194.988 261.308 200.056 259.047Z" fill="#46D2E0"/>
<g opacity="0.3">
<path opacity="0.3" d="M197.697 261.553L198.264 266.929L202.573 267.019L201.701 260.296L200.075 260.276L197.697 261.553Z" fill="white"/>
</g>
<g opacity="0.3">
<path opacity="0.3" d="M203.392 259.152L204.321 265.792L206.313 265.854L205.229 259.152H203.392Z" fill="white"/>
</g>
<path d="M213.569 263.53C210.884 266.035 210.694 268.651 210.686 268.762L212.436 268.878C212.436 268.79 212.623 266.749 214.872 264.717C217.011 262.783 221.486 260.525 230.668 260.744L310.431 260.862C308.906 260.156 307.33 259.565 305.717 259.096L230.689 258.983C222.769 258.797 217.008 260.324 213.569 263.53Z" fill="#19A8C6"/>
<path d="M232.307 265.572C232.307 265.744 231.94 265.886 231.491 265.886H229.265C228.816 265.886 228.452 265.744 228.452 265.572V262.405C228.452 262.232 228.816 262.091 229.265 262.091H231.491C231.94 262.091 232.307 262.232 232.307 262.405V265.572Z" fill="#36B8BF"/>
<path d="M231.771 265.572C231.771 265.744 231.458 265.886 231.071 265.886H229.152C228.765 265.886 228.452 265.744 228.452 265.572V262.405C228.452 262.232 228.765 262.091 229.152 262.091H231.071C231.458 262.091 231.771 262.232 231.771 262.405V265.572Z" fill="#46D2E0"/>
<path opacity="0.2" d="M231.453 265.916C231.902 265.916 232.266 265.774 232.266 265.599V263.169L230.984 262.121H229.229C228.78 262.121 228.416 262.262 228.416 262.435V263.539L231.33 265.916H231.453Z" fill="white"/>
<path d="M241.078 265.572C241.078 265.744 240.714 265.886 240.265 265.886H238.039C237.59 265.886 237.226 265.744 237.226 265.572V262.405C237.226 262.232 237.59 262.091 238.039 262.091H240.265C240.714 262.091 241.078 262.232 241.078 262.405V265.572Z" fill="#36B8BF"/>
<path d="M240.542 265.572C240.542 265.744 240.229 265.886 239.842 265.886H237.926C237.539 265.886 237.226 265.744 237.226 265.572V262.405C237.226 262.232 237.539 262.091 237.926 262.091H239.85C240.237 262.091 240.55 262.232 240.55 262.405L240.542 265.572Z" fill="#46D2E0"/>
<path opacity="0.2" d="M240.224 265.916C240.673 265.916 241.04 265.774 241.04 265.599V263.169L239.757 262.121H238.003C237.554 262.121 237.19 262.262 237.19 262.435V263.539L240.106 265.916H240.224Z" fill="white"/>
<path d="M249.852 265.572C249.852 265.744 249.488 265.886 249.039 265.886H246.813C246.364 265.886 246 265.744 246 265.572V262.405C246 262.232 246.364 262.091 246.813 262.091H249.039C249.488 262.091 249.852 262.232 249.852 262.405V265.572Z" fill="#36B8BF"/>
<path d="M249.316 265.572C249.316 265.744 249 265.886 248.613 265.886H246.697C246.31 265.886 245.997 265.744 245.997 265.572V262.405C245.997 262.232 246.31 262.091 246.697 262.091H248.613C249 262.091 249.316 262.232 249.316 262.405V265.572Z" fill="#46D2E0"/>
<path opacity="0.2" d="M248.995 265.916C249.447 265.916 249.811 265.774 249.811 265.599V263.169L248.529 262.121H246.774C246.326 262.121 245.959 262.262 245.959 262.435V263.539L248.875 265.916H248.995Z" fill="white"/>
<path d="M257.982 265.572C257.982 265.744 257.615 265.886 257.167 265.886H254.94C254.492 265.886 254.127 265.744 254.127 265.572V262.405C254.127 262.232 254.492 262.091 254.94 262.091H257.167C257.615 262.091 257.982 262.232 257.982 262.405V265.572Z" fill="#36B8BF"/>
<path d="M257.446 265.572C257.446 265.744 257.133 265.886 256.746 265.886H254.827C254.44 265.886 254.127 265.744 254.127 265.572V262.405C254.127 262.232 254.44 262.091 254.827 262.091H256.746C257.133 262.091 257.446 262.232 257.446 262.405V265.572Z" fill="#46D2E0"/>
<path opacity="0.2" d="M257.128 265.916C257.577 265.916 257.941 265.774 257.941 265.599V263.169L256.659 262.121H254.907C254.458 262.121 254.091 262.262 254.091 262.435V263.539L257.007 265.916H257.128Z" fill="white"/>
<path d="M266.541 265.572C266.541 265.744 266.174 265.886 265.725 265.886H263.499C263.05 265.886 262.686 265.744 262.686 265.572V262.405C262.686 262.232 263.05 262.091 263.499 262.091H265.725C266.174 262.091 266.541 262.232 266.541 262.405V265.572Z" fill="#36B8BF"/>
<path d="M266.01 265.572C266.01 265.744 265.697 265.886 265.31 265.886H263.391C263.004 265.886 262.691 265.744 262.691 265.572V262.405C262.691 262.232 263.004 262.091 263.391 262.091H265.31C265.697 262.091 266.01 262.232 266.01 262.405V265.572Z" fill="#46D2E0"/>
<path opacity="0.2" d="M265.686 265.916C266.135 265.916 266.5 265.774 266.5 265.599V263.169L265.217 262.121H263.463C263.012 262.121 262.647 262.262 262.647 262.435V263.539L265.563 265.916H265.686Z" fill="white"/>
<path d="M274.242 265.572C274.242 265.744 273.878 265.886 273.427 265.886H271.203C270.752 265.886 270.388 265.744 270.388 265.572V262.405C270.388 262.232 270.752 262.091 271.203 262.091H273.427C273.878 262.091 274.242 262.232 274.242 262.405V265.572Z" fill="#36B8BF"/>
<path d="M273.704 265.572C273.704 265.744 273.391 265.886 273.004 265.886H271.088C270.698 265.886 270.385 265.744 270.385 265.572V262.405C270.385 262.232 270.698 262.091 271.088 262.091H273.004C273.391 262.091 273.704 262.232 273.704 262.405V265.572Z" fill="#46D2E0"/>
<path opacity="0.2" d="M273.388 265.916C273.837 265.916 274.201 265.774 274.201 265.599V263.169L272.919 262.121H271.165C270.716 262.121 270.352 262.262 270.352 262.435V263.539L273.265 265.916H273.388Z" fill="white"/>
<path d="M282.373 265.572C282.373 265.744 282.008 265.886 281.557 265.886H279.333C278.882 265.886 278.52 265.744 278.52 265.572V262.405C278.52 262.232 278.882 262.091 279.333 262.091H281.557C282.008 262.091 282.373 262.232 282.373 262.405V265.572Z" fill="#36B8BF"/>
<path d="M281.836 265.572C281.836 265.744 281.524 265.886 281.136 265.886H279.22C278.833 265.886 278.52 265.744 278.52 265.572V262.405C278.52 262.232 278.833 262.091 279.22 262.091H281.141C281.529 262.091 281.842 262.232 281.842 262.405L281.836 265.572Z" fill="#46D2E0"/>
<path opacity="0.2" d="M281.519 265.916C281.97 265.916 282.332 265.774 282.332 265.599V263.169L281.049 262.121H279.295C278.846 262.121 278.482 262.262 278.482 262.435V263.539L281.398 265.916H281.519Z" fill="white"/>
<path d="M290.074 265.572C290.074 265.744 289.71 265.886 289.261 265.886H287.04C286.592 265.886 286.225 265.744 286.225 265.572V262.405C286.225 262.232 286.592 262.091 287.04 262.091H289.267C289.715 262.091 290.08 262.232 290.08 262.405L290.074 265.572Z" fill="#36B8BF"/>
<path d="M289.541 265.572C289.541 265.744 289.226 265.886 288.838 265.886H286.922C286.535 265.886 286.22 265.744 286.22 265.572V262.405C286.22 262.232 286.535 262.091 286.922 262.091H288.836C289.223 262.091 289.538 262.232 289.538 262.405L289.541 265.572Z" fill="#46D2E0"/>
<path opacity="0.2" d="M289.22 265.916C289.672 265.916 290.036 265.774 290.036 265.599V263.169L288.754 262.121H286.999C286.55 262.121 286.186 262.262 286.186 262.435V263.539L289.092 265.916H289.22Z" fill="white"/>
<path d="M215.998 264.792C218.152 262.859 222.666 260.598 231.899 260.817L310.73 260.953C309.753 260.577 309.148 260.307 308.097 259.923L232.391 259.849C224.418 259.663 218.619 261.19 215.159 264.396C213.289 266.126 212.623 267.91 212.384 268.884L213.546 268.961C213.543 268.866 213.725 266.824 215.998 264.792Z" fill="#128B9B"/>
<path d="M224.338 275.263V268.826H205.418C205.847 269.523 209.632 275.028 224.338 275.263Z" fill="#D1F2F2"/>
<path d="M317.476 268.815H301.744V275.252C313.942 274.91 317.119 269.516 317.476 268.815Z" fill="#D1F2F2"/>
<path d="M224.338 275.271H301.744V275.242V268.815H224.338V275.263V275.271Z" fill="#D1F2F2"/>
<g opacity="0.1">
<path opacity="0.1" d="M245.23 268.019L234.961 269.165L244.699 273.171L309.976 272.628L317.327 269.646L245.23 268.019Z" fill="#141414"/>
</g>
<path d="M202.661 258.818C202.661 258.818 196.926 262.07 194.116 266.543H194.662C194.662 266.543 198.409 261.53 203.402 258.818H202.661Z" fill="#E8FCFB"/>
<path d="M208.406 259.013C208.406 259.013 202.669 262.265 199.861 266.737L200.374 266.778C200.374 266.778 204.236 261.763 209.229 259.054L208.406 259.013Z" fill="#E8FCFB"/>
<path d="M337.822 266.736L308.861 271.345L242.468 272.064L234.42 268.943L244.115 266.736H337.822Z" fill="#19A8C6"/>
<path d="M234.42 268.943L337.822 266.736L308.861 271.345L242.468 272.064L234.42 268.943Z" fill="#128B9B"/>
<path d="M239.388 270.846L307.52 268.73L323.128 269.044L308.861 271.346L242.822 272.021L239.388 270.846Z" fill="#0C7077"/>
<path d="M240.829 271.477C240.829 271.477 251.383 271.925 252.201 274.911C252.201 274.911 252.499 278.941 240.829 278.941V271.477Z" fill="#19A8C6"/>
<path d="M242.912 275.21C242.912 277.27 241.978 278.941 240.829 278.941C239.68 278.941 238.749 277.27 238.749 275.21C238.749 273.15 239.68 271.477 240.829 271.477C241.978 271.477 242.912 273.15 242.912 275.21Z" fill="#0F777F"/>
<path d="M242.671 275.175C242.671 277.011 241.842 278.497 240.819 278.497C239.796 278.497 238.965 277.011 238.965 275.175C238.965 273.339 239.796 271.854 240.819 271.854C241.842 271.854 242.671 273.342 242.671 275.175Z" fill="#B5E7EA"/>
<path d="M241.901 275.174C241.901 276.547 241.365 277.659 240.704 277.659C240.042 277.659 239.506 276.547 239.506 275.174C239.506 273.802 240.042 272.689 240.704 272.689C241.365 272.689 241.901 273.802 241.901 275.174Z" fill="#8CD0D3"/>
<path opacity="0.1" d="M242.519 273.081C242.519 273.081 249.354 273.771 252.201 274.909C252.201 274.909 251.857 272.118 241.083 271.477C241.083 271.479 242.119 271.721 242.519 273.081Z" fill="black"/>
<path opacity="0.1" d="M242.761 276.649C242.761 276.649 249.752 277.663 252.201 274.913C252.201 274.913 252.537 278.853 241.042 278.932C241.042 278.932 242.32 278.613 242.761 276.649Z" fill="black"/>
<path opacity="0.3" d="M245.164 271.944C245.164 271.944 247.7 274.295 245.515 278.682C245.515 278.682 252.07 277.977 252.201 274.913C252.201 274.913 251.993 272.845 245.164 271.944Z" fill="#E8FCFB"/>
<path d="M0.00303996 279.395H1.09302V280.52H0.00303996V279.395Z" fill="#B74D04"/>
<path d="M-0.207297 279.609C-0.184129 279.543 -0.141232 279.486 -0.0845089 279.446C-0.0277851 279.406 0.039973 279.384 0.109441 279.384C0.178908 279.384 0.246666 279.406 0.30339 279.446C0.360114 279.486 0.40301 279.543 0.426178 279.609L2.38818 286.662H-2.1693L-0.207297 279.609Z" fill="#B74D04"/>
<path d="M-2.94889 286.665H3.14739C3.47824 286.665 3.74756 286.853 3.74756 287.082C3.74756 287.311 3.47824 287.499 3.14739 287.499H-2.94889C-3.27974 287.499 -3.54906 287.311 -3.54906 287.082C-3.54906 286.853 -3.28487 286.665 -2.94889 286.665Z" fill="#B74D04"/>
<path d="M2.11377 285.72H-1.9154L-1.46914 284.114H1.66751L2.11377 285.72Z" fill="#C6B3A7"/>
<path d="M-0.66122 281.204H0.857088L1.30591 282.811H-1.10747L-0.66122 281.204Z" fill="#C6B3A7"/>
<path d="M0.705767 279.609C0.728935 279.543 0.771831 279.486 0.828556 279.446C0.88528 279.406 0.953039 279.384 1.02251 279.384C1.09197 279.384 1.15973 279.406 1.21646 279.446C1.27318 279.486 1.31608 279.543 1.33925 279.609L3.30127 286.662H-1.25369L0.705767 279.609Z" fill="#F66700"/>
<path d="M-2.02559 286.665H4.07076C4.40161 286.665 4.6709 286.853 4.6709 287.082C4.6709 287.311 4.41443 287.499 4.07076 287.499H-2.02559C-2.35388 287.499 -2.62576 287.311 -2.62576 287.082C-2.62576 286.853 -2.35388 286.665 -2.02559 286.665Z" fill="#F66700"/>
<path d="M3.03711 285.72H-0.992081L-0.543256 284.114H2.59085L3.03711 285.72Z" fill="#FFF6F0"/>
<path d="M0.264672 281.204H1.78299L2.22925 282.811H-0.181585L0.264672 281.204Z" fill="#FFF6F0"/>
<path d="M260.696 303.616H329.499V306.011H260.696V303.616Z" fill="#EDEDEF"/>
<path d="M244.35 303.616H260.695V306.011H244.35V303.616Z" fill="#CECECE"/>
<path d="M244.351 306.014H329.499V307.257H244.351V306.014Z" fill="#6A777F"/>
<path d="M109.326 304.003H125.671V306.398H109.326V304.003Z" fill="#CECECE"/>
<path d="M109.326 306.401H194.475V307.645H109.326V306.401Z" fill="#6A777F"/>
<path d="M0.646683 304.391H69.4502V306.786H0.646683V304.391Z" fill="#EDEDEF"/>
<path d="M-15.6979 304.391H0.646973V306.786H-15.6979V304.391Z" fill="#CECECE"/>
<path d="M-15.6982 306.789H69.4502V308.032H-15.6982V306.789Z" fill="#6A777F"/>
<defs>
<linearGradient id="paint0_linear" x1="167.673" y1="93.4985" x2="168.282" y2="322.905" gradientUnits="userSpaceOnUse">
<stop stop-color="#91DEE9"/>
<stop offset="0.22" stop-color="#B0E6DC"/>
<stop offset="0.57" stop-color="#DBF1CA"/>
<stop offset="0.84" stop-color="#F5F7BE"/>
<stop offset="1" stop-color="#FFFABA"/>
</linearGradient>
</defs>
</svg>
