<svg width="1920" height="703" viewBox="0 0 1920 703" fill="none" xmlns="http://www.w3.org/2000/svg">
<g clip-path="url(#clip0)">
<rect opacity="0.5" width="1920" height="703" fill="#4AA29A"/>
<path opacity="0.2" d="M0 217.295L0.109619 649.081L1920 653V224.743L1806.19 281.888L1598.41 157L1296.6 299.117L1123.31 237.614L966.226 295.671L909.339 320.111L730.862 238.112L623.232 314.771L536.393 270.011L323.63 314.771L190.656 271.385L93.504 353.136L0 217.295Z" fill="#4AA29A"/>
<path opacity="0.2" d="M0 370.743L0.0411377 646.193L1920 647V373.011L1807.45 433.763L1539.94 371.016L1366.2 380.504L996.989 368L810.225 487.592L614.764 483.685L424.777 377.607L238.205 447.467L149.068 407.876L68.0388 469.328L0 370.743Z" fill="#4AA29A"/>
<path d="M657.467 585C653.365 585 649.431 586.58 646.53 589.393C643.63 592.206 642 596.022 642 600C642 603.978 643.63 607.794 646.53 610.607C649.431 613.42 653.365 615 657.467 615H1944.07C1947.56 605.147 1950.89 595.147 1954 585H657.467Z" fill="#3C3C3B"/>
<path d="M-2.83554 612C-8.97912 612 -14.8711 618.268 -19.2152 629.427C-23.5594 640.585 -25.9999 655.719 -25.9999 671.499C-25.9999 687.28 -23.5594 702.414 -19.2152 713.573C-14.8711 724.731 -8.97912 731 -2.83554 731H1924.12C1929.35 691.916 1934.34 652.25 1939 612H-2.83554Z" fill="#4AA29A"/>
<path d="M689.046 585.213C689.046 585.213 689.793 587.176 690.422 587.954C691.051 588.732 693.462 590.123 693.476 592.434C693.489 594.94 689.412 594.244 687.817 594.152C686.223 594.06 686.102 592.723 685.43 591.304C684.759 589.885 684.086 590.125 683.956 588.981C683.826 587.836 684.47 585.275 684.47 585.275L689.046 585.213Z" fill="#163342"/>
<path d="M689.115 584.481L688.991 585.769C688.991 585.769 686.84 586.65 684.47 585.769L684.484 584.147L689.115 584.481Z" fill="#2F6B8C"/>
<path d="M664.997 585.213C664.997 585.213 664.249 587.176 663.62 587.954C662.991 588.732 660.58 590.123 660.567 592.434C660.553 594.94 664.63 594.244 666.225 594.152C667.819 594.06 667.94 592.723 668.612 591.304C669.283 589.885 669.956 590.125 670.086 588.981C670.216 587.836 669.572 585.275 669.572 585.275L664.997 585.213Z" fill="#163342"/>
<path d="M664.925 584.481L665.048 585.769C665.048 585.769 667.199 586.65 669.57 585.769L669.556 584.147L664.925 584.481Z" fill="#2F6B8C"/>
<path d="M661.543 552.352C661.543 555.441 663.268 584.529 663.268 584.529C663.551 585.559 669.789 585.227 670.733 584.713C671.678 584.198 670.186 555.526 670.36 552.412C670.533 549.297 674.855 526.094 675.685 526.198C676.515 526.301 679.266 551.987 679.926 554.351C680.587 556.716 683.586 584.8 683.586 584.8C685.663 586.139 690.602 584.464 690.602 584.464C690.602 584.464 689.566 555.633 689.448 554.764C689.269 553.475 689.456 549.999 688.976 542.298C688.545 535.404 686.993 520.397 686.009 512.271C685.973 511.979 685.94 511.703 685.907 511.437C685.714 509.855 685.57 508.693 685.501 508.131L685.454 507.762C685.189 507.628 684.911 507.505 684.622 507.392C677.706 504.683 664.365 507.551 664.365 507.551C664.365 507.551 664.358 507.623 664.342 507.757C664.324 507.92 664.297 508.176 664.261 508.508C664.185 509.225 664.07 510.292 663.938 511.53V511.557C663.938 511.594 663.93 511.633 663.927 511.67C663.461 516.078 662.803 522.531 662.865 523.203C662.959 524.241 661.543 549.263 661.543 552.352Z" fill="#385369"/>
<path d="M671.369 581.559L670.983 585.546C670.983 585.546 670.647 586.108 667.093 586.221C663.539 586.334 662.97 584.957 662.97 584.957L662.816 581.359C662.816 581.359 665.934 582.992 671.369 581.559Z" fill="#4F7594"/>
<path d="M682.97 581.71L683.328 585.443C683.328 585.443 683.642 585.969 686.968 586.074C690.295 586.179 690.823 584.89 690.823 584.89L690.967 581.526C690.967 581.526 688.057 583.053 682.97 581.71Z" fill="#4F7594"/>
<path d="M702.429 512.714L703.449 515.264L679.029 526.855L678.009 524.307L702.429 512.714ZM679.983 525.494C680.108 525.435 680.207 525.325 680.257 525.187C680.308 525.05 680.306 524.896 680.252 524.76C680.212 524.66 680.145 524.575 680.06 524.516C679.975 524.458 679.876 524.427 679.775 524.429C679.675 524.431 679.577 524.465 679.494 524.527C679.411 524.589 679.347 524.677 679.31 524.778C679.272 524.88 679.264 524.991 679.284 525.098C679.305 525.205 679.355 525.303 679.427 525.379C679.499 525.456 679.59 525.507 679.689 525.528C679.788 525.548 679.89 525.536 679.983 525.494Z" fill="#FAB546"/>
<path d="M639.14 480.54C639.14 480.54 640.263 480.894 640.725 481.409C641.188 481.925 641.583 477.758 641.583 477.758L639.14 480.54Z" fill="#EEA886"/>
<path d="M642.138 478.143C642.138 478.143 641.571 475.563 641.473 475.172C641.375 474.781 640.59 474.042 639.621 473.278C638.652 472.514 637.03 471.956 636.837 472.035C636.645 472.115 636.415 472.097 636.115 472.571C635.929 472.889 635.821 473.253 635.801 473.628C635.801 473.628 635.179 474.025 635.211 474.744C635.041 474.879 634.911 475.067 634.838 475.282C634.765 475.498 634.752 475.732 634.801 475.955C634.801 475.955 634.254 476.364 634.415 476.941C634.415 476.941 635.201 477.683 635.419 478.05C635.637 478.416 637.369 479.839 639.221 480.925C639.219 480.925 641.22 482.212 642.138 478.143Z" fill="#EEA886"/>
<path d="M638.971 476.362C638.971 476.362 638.702 477.661 638.792 478.068C638.882 478.474 636.322 478.388 636.322 478.388C636.322 478.388 637.514 476.045 638.971 476.362Z" fill="#CF8C6C"/>
<path d="M637.095 472.234C637.095 472.234 639.508 474.237 639.261 474.698C639.014 475.159 638.664 475.168 638.664 475.168L639.315 476.483C639.315 476.483 639.295 477.619 638.167 477.261C638.167 477.261 638.249 478.324 637.197 477.839C637.197 477.839 636.964 478.567 636.44 478.436C635.917 478.304 634.413 476.948 634.413 476.948C634.413 476.948 634.214 476.505 634.798 475.962C634.798 475.962 634.604 475.196 635.209 474.75C635.209 474.75 635.141 474.11 635.798 473.635C635.798 473.635 635.75 472.197 636.835 472.042C636.835 472.044 636.994 472.148 637.095 472.234Z" fill="#DB9C7C"/>
<path d="M639.288 474.676C639.288 474.676 640.504 471.856 641.341 470.853C641.531 470.627 641.583 470.527 641.847 470.634C642.11 470.741 641.922 471.886 641.677 472.833C641.433 473.78 641.482 475.22 641.482 475.22C641.482 475.22 640.999 476.019 639.288 474.676Z" fill="#EEA886"/>
<path d="M641.92 479.749C641.92 479.749 641.637 478.507 641.698 477.645C641.759 476.782 637.894 479.469 637.894 479.469C637.894 479.469 639.256 480.899 640.299 481.964C641.131 482.813 641.92 479.749 641.92 479.749Z" fill="#EEA886"/>
<path d="M699.033 519.157C699.033 519.157 699.179 518.517 699.122 518.223C699.122 518.223 698.976 517.701 698.894 517.321C698.871 517.223 698.854 517.123 698.843 517.023C698.818 516.725 698.843 516.05 698.598 515.384C698.353 514.718 696.545 512.253 696.545 512.253L694.887 513.128L693.258 513.726C693.258 513.726 692.487 518.387 692.647 519.048C692.662 519.111 692.681 519.172 692.703 519.232C692.892 519.77 693.254 520.05 693.384 520.314C693.432 520.411 693.98 521.33 694.299 521.336C694.485 521.347 694.67 521.312 694.841 521.233C695.012 521.154 695.164 521.033 695.285 520.88C695.285 520.88 696.159 520.857 696.658 520.438C696.658 520.438 697.465 520.444 697.97 519.75C697.974 519.755 698.803 519.662 699.033 519.157Z" fill="#EEA886"/>
<path d="M639.306 481.152C639.306 481.152 646.925 494.85 649.649 494.118C650.91 493.781 655.09 490.268 656.667 488.036C657.188 487.301 657.698 486.53 658.184 485.766C660.12 482.718 661.637 479.795 661.637 479.795C661.637 479.795 667.362 472.474 662.77 469.217C662.77 469.217 660.566 469.057 659.035 470.846C657.504 472.635 656.243 475.857 655.842 476.812C655.44 477.766 650.141 484.649 649.85 484.848C649.558 485.048 647.557 483.865 646.238 482.26C644.297 479.895 642.186 476.703 642.186 476.703L639.306 481.152Z" fill="#E2581D"/>
<path d="M669.332 465.529C669.332 465.529 668.129 465.809 673.165 471.072C673.165 471.072 676.737 466.763 676.621 466.042C676.506 465.32 669.332 465.529 669.332 465.529Z" fill="#EEA987"/>
<path d="M664.018 510.835C664.018 510.835 664.386 500.315 664.265 497.416C664.086 493.165 663.381 489.332 662.807 486.817C662.806 486.811 662.804 486.805 662.802 486.799L662.796 486.774C662.646 486.12 662.507 485.556 662.386 485.099L658.93 470.983C661.356 468.008 669.417 465.501 669.417 465.501H675.124C675.124 465.501 685.134 468.865 687.589 469.895C690.044 470.926 695.591 491.191 695.671 492.352C695.761 493.616 698.056 513.331 698.056 513.331C695.075 513.56 692.499 513.831 692.499 513.831C692.499 513.831 690.23 497.534 689.921 495.848C689.691 494.589 686.301 484.343 686.05 484.48C685.799 484.617 684.071 495.079 685.806 510.604C685.804 510.605 678.869 513.446 664.018 510.835Z" fill="#E2581D"/>
<path d="M672.007 445.285C672.007 445.285 666.673 446.201 667.485 455.3C668.297 464.4 673.005 463.656 673.319 463.647C673.634 463.637 678.046 463.813 678.39 452.7C678.39 452.702 678.54 444.485 672.007 445.285Z" fill="#EEA987"/>
<path d="M669.518 460.979C669.518 460.979 669.664 464.723 669.331 465.533C668.999 466.343 673.733 468.947 676.62 466.046C676.62 466.046 675.923 461.977 676.117 460.535C676.312 459.093 669.518 460.979 669.518 460.979Z" fill="#EEA987"/>
<path d="M667.401 452.737C667.401 452.737 666.817 452.056 666.603 452.746C666.388 453.435 667.509 456.512 667.435 456.65C667.435 456.65 667.543 456.917 667.683 456.77C667.823 456.624 667.401 452.737 667.401 452.737Z" fill="#EEA987"/>
<path d="M678.328 452.62C678.328 452.62 678.9 451.928 679.127 452.611C679.353 453.295 678.47 456.345 678.363 456.533C678.363 456.533 678.176 456.844 678.034 456.7C677.891 456.556 678.328 452.62 678.328 452.62Z" fill="#EEA987"/>
<path d="M667.07 451.967C667.241 453.213 667.406 454.139 667.406 454.139L668.169 455.252C668.169 455.252 668.148 452.811 668.27 452.432C668.316 452.287 668.372 452.03 668.428 451.751C668.518 451.292 668.618 450.779 668.682 450.602C668.785 450.327 673.262 448.958 677.218 451.001C677.218 451.001 677.181 451.377 677.179 451.796C677.179 452.282 677.219 452.829 677.423 452.913C677.803 453.07 677.617 455.772 677.617 455.772L678.244 454.994C678.244 454.994 678.438 453.584 678.631 451.963C678.631 451.959 678.631 451.955 678.631 451.951C678.674 451.573 678.72 451.184 678.761 450.798C678.866 449.167 678.748 446.2 676.816 444.435C675.506 443.805 673.372 443.622 669.858 444.75C669.531 444.683 669.198 444.656 668.866 444.668C666.662 447.264 667.07 451.967 667.07 451.967Z" fill="#385369"/>
<path d="M675.73 462.469C675.73 462.469 674.867 463.746 672.893 463.674C670.92 463.602 670.074 462.469 670.074 462.469C670.074 462.469 670.987 464.608 672.893 464.608C674.8 464.608 675.73 462.469 675.73 462.469Z" fill="#A77860"/>
<path d="M667.068 451.959C667.068 451.959 667.533 451.851 668.426 451.742C670.033 451.548 673.025 451.353 677.177 451.787C677.645 451.836 678.129 451.893 678.628 451.959C678.628 451.955 678.628 451.951 678.628 451.948C678.693 451.568 678.738 451.185 678.761 450.799C678.866 449.168 679.05 446.175 677.118 444.411C676.296 443.652 674.846 443.034 673.24 443.02C670.521 442.999 669.396 443.732 668.472 444.819C666.266 447.41 667.068 451.959 667.068 451.959Z" fill="#FAB546"/>
<path d="M667.071 451.962C667.071 451.962 669.166 452.935 672.876 452.913C676.586 452.892 678.631 451.962 678.631 451.962C678.631 451.962 676.497 451.164 672.754 451.164C669.011 451.164 667.071 451.962 667.071 451.962Z" fill="#D99D3D"/>
<path d="M662.987 488.899C662.987 488.899 666.496 487.16 667.764 481.161H680.087C680.087 481.161 683.728 489.249 685.714 489.701C685.714 489.701 685.204 498.419 685.419 501.811C685.634 505.203 686.008 512.291 686.008 512.291C686.008 512.291 685.431 517.609 663.75 513.372C663.75 513.372 664.246 499.144 664.218 498.542C664.189 497.94 663.073 489.252 662.987 488.899Z" fill="#385369"/>
<path d="M667.787 481.153C667.787 481.153 666.28 472.805 663.158 468.013C663.158 468.013 663.509 467.592 664.33 467.454C664.33 467.454 667.814 473.041 669.106 481.153C670.397 489.265 667.787 481.153 667.787 481.153Z" fill="#385369"/>
<path d="M679.965 481.154C679.965 481.154 681.05 473.406 684.171 468.61C684.171 468.61 683.757 468.311 682.937 468.173C682.937 468.173 679.938 473.035 678.647 481.15C677.356 489.265 679.965 481.154 679.965 481.154Z" fill="#385369"/>
<path d="M671.087 490.633H674.651H678.215L681.538 494.256V505.289H674.651H667.764V494.256L671.087 490.633Z" fill="#446580"/>
<path d="M898.011 340.4L868.38 347.347L866.112 340.627L894.892 331.157L898.011 340.4Z" fill="#48494F"/>
<path d="M866.179 340.808L859.843 354.012C859.708 354.294 859.687 354.618 859.784 354.916C859.882 355.213 860.09 355.462 860.366 355.61L860.705 355.794C860.968 355.937 861.274 355.981 861.567 355.917C861.86 355.854 862.12 355.688 862.301 355.449L868.375 347.327L866.179 340.808Z" fill="#48494F"/>
<path d="M863.211 442.125C863.211 442.125 865.62 444.78 868.064 445.336C870.508 445.892 872.218 446.601 872.236 448.125C872.255 449.649 865.201 450.652 862.403 449.116C858.229 446.825 857.805 447.516 857.342 446.37C856.88 445.224 857.897 442.16 857.868 441.796C857.83 441.346 863.211 442.125 863.211 442.125Z" fill="#202338"/>
<path d="M838.644 442.828C838.644 442.828 840.415 445.415 842.784 446.011C845.121 446.599 846.634 447.718 846.749 449.202C846.864 450.687 841.241 452.622 837.291 450.026C834.694 448.317 833.727 448.415 833.205 447.328C832.683 446.242 833.479 443.2 833.426 442.848C833.361 442.402 838.644 442.828 838.644 442.828Z" fill="#202338"/>
<path d="M858.191 440.103C858.191 440.103 861.557 441.37 862.904 440.476L863.316 442.239C863.316 442.239 862.234 442.857 860.368 442.627C858.501 442.398 857.862 441.791 857.862 441.791L858.191 440.103Z" fill="#202338"/>
<path d="M833.733 440.743C833.733 440.743 837.601 442.162 838.627 441.044L838.801 443.021C838.801 443.021 838.418 443.639 836.906 443.56C835.394 443.481 833.427 442.82 833.427 442.82L833.733 440.743Z" fill="#202338"/>
<path d="M857.972 366.413C857.972 366.413 860.421 383.926 861.455 390.447C862.663 398.07 862.876 402.272 863.213 406.218C863.637 411.18 862.641 439.409 862.938 440.86C863.234 442.312 858.191 440.112 858.191 440.112C858.191 440.112 853.786 409.178 852.528 403.892C851.353 398.971 846.99 377.782 845.917 379.131C844.844 380.479 843.516 403.857 842.725 407.738C841.935 411.619 838.574 441.548 838.574 441.548C838.574 441.548 835.213 442.296 833.758 441.081C833.758 441.081 831.926 415.68 832.433 408.402C832.626 405.629 829.138 375.15 833.609 362.879C835.967 356.39 857.972 366.413 857.972 366.413Z" fill="#EEA886"/>
<path d="M857.972 366.414C857.972 366.414 860.422 383.926 861.455 390.447C862.663 398.071 862.876 402.272 863.214 406.218C863.637 411.18 864.719 439.276 864.727 440.757C864.734 442.404 856.877 441.351 856.877 441.351C856.877 441.351 853.789 409.178 852.524 403.893C851.353 398.972 846.99 377.782 845.917 379.131C844.844 380.48 843.516 403.858 842.726 407.739C841.935 411.62 840.212 442.639 840.212 442.639C840.212 442.639 833.873 442.619 832.417 441.403C832.417 441.403 831.926 415.679 832.433 408.402C832.626 405.628 829.138 375.149 833.609 362.878C835.967 356.391 857.972 366.414 857.972 366.414Z" fill="#385369"/>
<path d="M878.925 331.147C878.925 331.147 880.939 328.611 881.189 328.256C881.44 327.901 882.57 327.459 883.917 327.064C885.263 326.669 887.261 326.729 887.448 326.883C887.634 327.036 887.893 327.106 888.057 327.698C888.15 328.088 888.141 328.495 888.029 328.88C888.029 328.88 888.578 329.517 888.286 330.226C888.427 330.426 888.505 330.664 888.509 330.909C888.514 331.154 888.445 331.395 888.31 331.6C888.31 331.6 888.771 332.218 888.386 332.738C888.386 332.738 887.253 333.182 886.878 333.466C886.504 333.751 884.034 334.269 881.592 334.65C881.59 334.65 878.492 335.584 878.925 331.147Z" fill="#EEA886"/>
<path d="M881.267 335.611C881.267 335.611 870.885 339.652 869.082 340.212C867.695 340.643 865.93 341.911 862.699 339.993C861.197 339.101 859.21 337.282 857.362 335.405C856.935 334.972 856.516 334.535 856.114 334.108C854.015 331.878 852.329 329.854 852.14 329.533C851.755 328.882 844.173 323.484 849.442 319.85C850.625 319.035 855.179 317.071 857.771 319.85C860.047 322.286 861.065 326.877 861.649 327.894C862.233 328.911 865.124 334.29 865.124 334.29C865.284 334.678 869.101 333.546 869.617 333.391C871.13 332.941 878.977 330.828 878.977 330.828L881.267 335.611Z" fill="#E2581D"/>
<path d="M841.515 308.866C842.159 310.237 842.953 311.531 843.883 312.727C846.966 316.64 854.15 316.73 854.255 306.015C854.275 303.986 854.019 302.34 853.607 301.006C852.136 296.25 848.676 295.459 848.676 295.459C846.123 295.319 841.656 295.944 840.168 299.226C839.114 301.558 839.878 305.423 841.515 308.866Z" fill="#EEA987"/>
<path d="M841.516 308.866C841.516 308.866 841.884 308.963 843.21 306.318C843.475 305.788 843.68 306.167 843.795 305.932L845.909 305.119C845.909 305.119 843.819 301.667 846.553 300.708C849.34 299.732 853.604 301.001 853.604 301.001C852.137 296.25 848.677 295.459 848.677 295.459C846.124 295.319 841.657 295.944 840.168 299.226C839.115 301.558 839.879 305.423 841.516 308.866Z" fill="#665249"/>
<path d="M844.23 304.325C844.071 303.605 842.638 302.993 842.031 304.531C841.423 306.069 843.459 307.704 843.995 307.367C844.531 307.029 844.489 305.513 844.23 304.325Z" fill="#EEA987"/>
<path d="M839.719 304.451C839.719 304.451 846.514 299.812 854.433 301.466C854.433 301.466 853.962 291.686 844.943 293.362C836.468 294.937 839.427 303.348 839.719 304.451Z" fill="#E2581D"/>
<path d="M844.085 302.354C844.085 302.354 850.832 303.549 855.145 302.663C859.459 301.776 854.311 300.463 854.311 300.463C854.311 300.463 850.715 299.343 844.085 302.354Z" fill="#E2581D"/>
<path d="M849.354 316.922C849.354 316.922 855.398 318.148 856.182 318.834C857.033 319.564 858.733 326.947 858.823 328.938C858.913 330.929 858.393 339.13 857.541 342.231C856.69 345.333 855.984 358.319 856.522 362.615C856.522 362.615 845.623 365.663 832.535 363.982C832.535 363.982 833.748 350.208 833.224 345.965C832.553 340.529 830.375 328.67 830.375 328.67C830.375 328.67 830.538 320.451 831.703 319.478C832.868 318.504 841.895 316.923 841.895 316.923L849.354 316.922Z" fill="#E2581D"/>
<path d="M850.707 318.299C850.707 318.299 848.854 319.674 842.651 316.976C842.651 316.976 843.354 313.442 842.136 309.52C840.918 305.597 850.049 313.807 850.049 313.807C849.946 313.876 849.928 314.269 849.986 314.815L849.998 314.918C850.053 315.369 850.136 315.816 850.247 316.257C850.262 316.315 850.277 316.374 850.293 316.434C850.642 317.748 850.707 317.155 850.707 318.299Z" fill="#EEA886"/>
<path d="M850.247 316.256C845.804 316.82 843.379 312.092 843.309 311.952C846.351 316.331 850 314.919 850 314.919C850.054 315.37 850.137 315.816 850.247 316.256Z" fill="#A77860"/>
<path d="M850.68 317.211C850.68 317.211 852.1 319.298 850.12 319.653C848.139 320.009 844.097 319.575 841.893 316.927C841.893 316.927 847.759 316.034 850.68 317.211Z" fill="#EEA886"/>
<path d="M857.898 340.534L853.844 331.401H843.306C843.306 331.401 838.484 340.431 832.878 343.439C832.878 343.439 832.296 364.475 831.916 370.866C831.916 370.866 836.971 371.815 845.281 371.939C853.591 372.064 859.051 374.067 859.051 374.067C859.051 374.067 857.047 360.007 857.01 358.391C856.973 356.775 857.467 343.762 857.898 340.534Z" fill="#385369"/>
<path d="M842.412 332.952C842.412 332.952 842.9 322.282 837.134 317.86C837.702 317.634 838.307 317.508 838.919 317.49C838.919 317.49 843.613 319.343 844.935 331.406C846.257 343.47 842.412 332.952 842.412 332.952Z" fill="#385369"/>
<path d="M853.371 331.399C853.371 331.399 854.479 322.758 852.194 317.552C852.194 317.552 853.223 317.797 853.809 317.964C853.809 317.964 856.177 321.035 855.026 334.067C853.875 347.099 853.371 331.399 853.371 331.399Z" fill="#385369"/>
<path d="M831.706 319.479C831.706 319.479 829.378 320.995 829.58 323.838C829.782 326.682 831.484 334.918 831.484 334.918L831.706 319.479Z" fill="#E2581D"/>
<path d="M887.633 333.684L885.403 334.418L882.613 326.149L884.842 325.416L887.633 333.684Z" fill="#202338"/>
<path d="M885.366 326.168L882.646 327.063L882.371 326.245L885.09 325.351L885.366 326.168Z" fill="#202338"/>
<path d="M881.538 335.55L884.13 343.654L898.011 340.4L894.892 331.157L881.538 335.55Z" fill="#CC8A23"/>
<path d="M893.439 342.921C897.407 346.193 903.31 345.669 906.623 341.751C907.41 340.823 908.005 339.747 908.372 338.587C908.739 337.427 908.872 336.205 908.761 334.993C908.651 333.781 908.301 332.603 907.73 331.528C907.16 330.453 906.381 329.503 905.439 328.732C901.47 325.46 895.567 325.984 892.253 329.902C891.466 330.83 890.872 331.906 890.505 333.066C890.138 334.227 890.005 335.449 890.116 336.661C890.226 337.873 890.577 339.05 891.148 340.125C891.718 341.2 892.497 342.151 893.439 342.921Z" fill="#E2E6F7"/>
<path d="M895.153 340.9C896.519 342.023 898.271 342.565 900.033 342.409C901.794 342.252 903.423 341.41 904.57 340.064C905.132 339.401 905.557 338.633 905.819 337.804C906.081 336.975 906.176 336.103 906.097 335.237C906.018 334.371 905.768 333.53 905.36 332.762C904.953 331.994 904.396 331.315 903.724 330.765C902.358 329.642 900.605 329.101 898.844 329.257C897.083 329.413 895.453 330.255 894.306 331.601C893.744 332.264 893.319 333.032 893.057 333.861C892.795 334.69 892.701 335.562 892.78 336.428C892.858 337.294 893.109 338.135 893.517 338.903C893.924 339.671 894.48 340.35 895.153 340.9Z" fill="#BDC0CF"/>
<path d="M893.267 343.641L906.124 328.437C901.737 324.821 895.304 325.292 891.753 329.49C888.202 333.689 888.882 340.025 893.267 343.641Z" fill="#FAB546"/>
<path d="M897.019 339.131L902.674 332.444C900.746 330.855 897.916 331.062 896.354 332.908C894.792 334.754 895.091 337.542 897.019 339.131Z" fill="#E09E34"/>
<path d="M885.555 335.026L885.796 335.741L883.079 336.635L882.837 335.921L885.555 335.026Z" fill="#48494F"/>
<path d="M885.946 336.168L886.188 336.882L883.47 337.776L883.228 337.062L885.946 336.168Z" fill="#48494F"/>
<path d="M887.086 326.97C887.086 326.97 883.699 328.054 883.809 328.617C883.918 329.18 884.303 329.317 884.303 329.317L883.113 330.387C883.113 330.387 882.732 331.536 884.109 331.612C884.109 331.612 883.64 332.647 884.979 332.564C884.979 332.564 884.979 333.387 885.605 333.453C886.231 333.519 888.385 332.733 888.385 332.733C888.385 332.733 888.764 332.365 888.31 331.595C888.31 331.595 888.798 330.901 888.285 330.221C888.285 330.221 888.587 329.603 888.028 328.875C888.028 328.875 888.595 327.449 887.447 326.878C887.445 326.879 887.23 326.923 887.086 326.97Z" fill="#DB9C7C"/>
<path d="M881.29 328.227C881.29 328.227 883.703 328.612 884.927 329.393C885.204 329.57 885.442 329.791 885.378 330.114C885.314 330.437 884.767 330.753 883.713 330.639C882.66 330.525 881.243 330.854 881.243 330.854C881.243 330.854 880.197 330.421 881.29 328.227Z" fill="#EEA886"/>
<path d="M858.416 336.45C858.416 336.45 858.852 330.684 858.828 329.718C859.424 332.368 859.763 335.07 859.841 337.786L858.416 336.45Z" fill="#CF5D20"/>
<path d="M843.074 354.677C843.074 354.677 850.066 355.367 855.016 354.355L855.592 341.813L853.414 339.79H846.088L842.051 342.206L843.074 354.677Z" fill="#456682"/>
<path d="M865.102 355.042C865.102 355.042 864.352 355.129 864.005 355.011C864.005 355.011 863.387 354.745 862.943 354.583C862.828 354.539 862.711 354.502 862.592 354.471C862.242 354.394 861.452 354.328 860.665 353.911C859.879 353.494 856.959 350.832 856.959 350.832L857.967 348.864L858.645 346.887C858.645 346.887 864.107 346.624 864.885 346.928C864.959 346.958 865.032 346.993 865.102 347.031C865.735 347.352 866.07 347.855 866.383 348.061C866.497 348.138 867.584 348.972 867.597 349.378C867.614 349.942 867.391 350.34 867.075 350.562C867.075 350.562 867.06 351.667 866.575 352.236C866.575 352.236 866.596 353.257 865.787 353.795C865.784 353.791 865.687 354.828 865.102 355.042Z" fill="#EEA886"/>
<path d="M832.706 319.103C834.208 318.87 839.01 320.58 838.965 324.311C838.928 327.417 839.605 329.767 839.686 330.995C839.766 332.222 840.971 340.363 841.816 341.015C842.885 341.838 848.465 343.575 848.985 343.807C850.777 344.608 859.344 346.773 859.344 346.773L858.712 353.203C858.712 353.203 839.889 348.719 837.845 347.63C836.497 346.91 834.423 345.9 833.353 342.128C832.266 338.293 829.873 330.92 829.812 330.129C829.751 329.337 826.018 320.143 832.706 319.103Z" fill="#E2581D"/>
<path d="M1222.57 366.883H798.364C790.014 366.883 782.631 371.783 771.927 388.87L696.358 501.709C666.569 549.165 696.809 558.708 705.159 558.708H1241.14C1245.66 536.968 1247.94 514.822 1247.94 492.617C1248.02 449.426 1239.39 406.663 1222.57 366.883V366.883Z" fill="white"/>
<path opacity="0.1" d="M1247.95 492.62H702.452L696.359 501.582C693.167 506.572 690.385 511.812 688.041 517.251H1247.01C1247.62 509.094 1247.95 500.808 1247.95 492.62Z" fill="black"/>
<path opacity="0.1" d="M683.657 533.209H1245.4C1245.75 530.405 1246.04 527.632 1246.33 524.827H685.301C684.489 527.563 683.938 530.37 683.657 533.209Z" fill="black"/>
<path d="M847.916 562.895C847.916 564.007 847.474 565.073 846.688 565.859C845.902 566.645 844.836 567.086 843.725 567.086H734.336C733.224 567.086 732.158 566.645 731.372 565.859C730.586 565.073 730.145 564.007 730.145 562.895C730.145 561.784 730.586 560.718 731.372 559.932C732.158 559.146 733.224 558.704 734.336 558.704H843.725C844.836 558.704 845.902 559.146 846.688 559.932C847.474 560.718 847.916 561.784 847.916 562.895Z" fill="#DADADA"/>
<path d="M764.736 571.705C764.736 574.256 763.98 576.749 762.563 578.87C761.146 580.991 759.132 582.644 756.776 583.62C754.419 584.596 751.826 584.851 749.325 584.353C746.823 583.856 744.525 582.628 742.722 580.824C740.918 579.021 739.69 576.723 739.193 574.221C738.695 571.72 738.95 569.127 739.926 566.77C740.902 564.414 742.555 562.4 744.676 560.983C746.797 559.566 749.29 558.81 751.841 558.81C755.261 558.81 758.541 560.168 760.959 562.587C763.378 565.005 764.736 568.285 764.736 571.705Z" fill="#273438"/>
<path d="M756.355 571.706C756.355 572.618 756.085 573.509 755.578 574.267C755.072 575.025 754.352 575.616 753.509 575.965C752.667 576.314 751.74 576.406 750.846 576.228C749.951 576.05 749.13 575.611 748.485 574.966C747.84 574.321 747.401 573.5 747.223 572.605C747.046 571.711 747.137 570.784 747.486 569.942C747.835 569.099 748.426 568.379 749.184 567.873C749.942 567.366 750.833 567.096 751.745 567.096C752.968 567.096 754.14 567.581 755.005 568.446C755.87 569.311 756.355 570.483 756.355 571.706Z" fill="#CBD6D8"/>
<path d="M837.857 571.705C837.857 574.256 837.1 576.749 835.683 578.87C834.266 580.991 832.252 582.644 829.896 583.62C827.539 584.596 824.946 584.851 822.445 584.353C819.943 583.856 817.645 582.628 815.842 580.824C814.038 579.021 812.81 576.723 812.313 574.221C811.815 571.72 812.07 569.127 813.047 566.77C814.023 564.414 815.675 562.4 817.796 560.983C819.917 559.566 822.41 558.81 824.961 558.81C828.381 558.81 831.661 560.168 834.079 562.587C836.498 565.005 837.857 568.285 837.857 571.705Z" fill="#273438"/>
<path d="M829.411 571.695C829.41 572.613 829.135 573.511 828.621 574.272C828.107 575.033 827.378 575.623 826.526 575.967C825.674 576.311 824.739 576.392 823.84 576.201C822.942 576.01 822.121 575.554 821.483 574.893C820.845 574.232 820.42 573.396 820.26 572.491C820.101 571.586 820.216 570.655 820.589 569.816C820.963 568.977 821.579 568.268 822.358 567.782C823.137 567.295 824.044 567.052 824.962 567.084C826.156 567.126 827.288 567.63 828.118 568.49C828.948 569.35 829.412 570.499 829.411 571.695Z" fill="#CBD6D8"/>
<path d="M1049.41 562.895C1049.41 564.007 1048.97 565.073 1048.18 565.859C1047.4 566.645 1046.33 567.086 1045.22 567.086H935.832C934.72 567.086 933.654 566.645 932.868 565.859C932.082 565.073 931.64 564.007 931.64 562.895C931.64 561.784 932.082 560.718 932.868 559.932C933.654 559.146 934.72 558.704 935.832 558.704H1045.22C1046.33 558.704 1047.4 559.146 1048.18 559.932C1048.97 560.718 1049.41 561.784 1049.41 562.895Z" fill="#DADADA"/>
<path d="M966.236 571.705C966.236 574.256 965.479 576.749 964.062 578.87C962.645 580.991 960.631 582.644 958.275 583.62C955.919 584.596 953.326 584.851 950.824 584.353C948.323 583.856 946.025 582.628 944.221 580.824C942.418 579.021 941.189 576.723 940.692 574.221C940.194 571.72 940.45 569.127 941.426 566.77C942.402 564.414 944.055 562.4 946.175 560.983C948.296 559.566 950.789 558.81 953.34 558.81C956.76 558.81 960.04 560.168 962.459 562.587C964.877 565.005 966.236 568.285 966.236 571.705Z" fill="#273438"/>
<path d="M957.851 571.706C957.851 572.618 957.581 573.509 957.074 574.267C956.568 575.025 955.847 575.616 955.005 575.965C954.163 576.314 953.236 576.406 952.341 576.228C951.447 576.05 950.626 575.611 949.981 574.966C949.336 574.321 948.897 573.5 948.719 572.605C948.541 571.711 948.633 570.784 948.981 569.942C949.33 569.099 949.921 568.379 950.68 567.873C951.438 567.366 952.329 567.096 953.241 567.096C953.846 567.096 954.446 567.215 955.005 567.447C955.564 567.678 956.073 568.018 956.501 568.446C956.929 568.874 957.268 569.382 957.5 569.942C957.732 570.501 957.851 571.101 957.851 571.706Z" fill="#CBD6D8"/>
<path d="M1039.26 571.705C1039.26 574.256 1038.5 576.749 1037.09 578.87C1035.67 580.991 1033.66 582.644 1031.3 583.62C1028.94 584.596 1026.35 584.851 1023.85 584.353C1021.35 583.856 1019.05 582.628 1017.24 580.824C1015.44 579.021 1014.21 576.723 1013.72 574.221C1013.22 571.72 1013.47 569.127 1014.45 566.77C1015.43 564.414 1017.08 562.4 1019.2 560.983C1021.32 559.566 1023.81 558.81 1026.36 558.81C1029.78 558.81 1033.06 560.168 1035.48 562.587C1037.9 565.005 1039.26 568.285 1039.26 571.705Z" fill="#273438"/>
<path d="M1030.91 571.706C1030.91 572.618 1030.64 573.509 1030.13 574.267C1029.62 575.025 1028.9 575.616 1028.06 575.965C1027.22 576.314 1026.29 576.406 1025.4 576.228C1024.5 576.05 1023.68 575.611 1023.04 574.966C1022.39 574.321 1021.95 573.5 1021.78 572.605C1021.6 571.711 1021.69 570.784 1022.04 569.942C1022.39 569.099 1022.98 568.379 1023.74 567.873C1024.49 567.366 1025.39 567.096 1026.3 567.096C1027.52 567.096 1028.69 567.581 1029.56 568.446C1030.42 569.311 1030.91 570.483 1030.91 571.706Z" fill="#CBD6D8"/>
<path d="M1238.3 562.895C1238.3 563.446 1238.2 563.991 1237.98 564.499C1237.77 565.008 1237.47 565.47 1237.08 565.859C1236.69 566.248 1236.22 566.557 1235.72 566.767C1235.21 566.978 1234.66 567.086 1234.11 567.086H1124.79C1123.68 567.078 1122.62 566.633 1121.85 565.847C1121.07 565.062 1120.63 564.001 1120.63 562.895C1120.63 561.789 1121.07 560.728 1121.85 559.943C1122.62 559.158 1123.68 558.713 1124.79 558.704H1234.18C1235.29 558.704 1236.35 559.146 1237.14 559.932C1237.93 560.718 1238.37 561.784 1238.37 562.895H1238.3Z" fill="#DADADA"/>
<path d="M1155.13 571.705C1155.13 574.256 1154.37 576.749 1152.95 578.87C1151.54 580.991 1149.52 582.644 1147.17 583.62C1144.81 584.596 1142.22 584.851 1139.72 584.353C1137.21 583.856 1134.92 582.628 1133.11 580.824C1131.31 579.021 1130.08 576.723 1129.58 574.221C1129.09 571.72 1129.34 569.127 1130.32 566.77C1131.29 564.414 1132.95 562.4 1135.07 560.983C1137.19 559.566 1139.68 558.81 1142.23 558.81C1145.65 558.81 1148.93 560.168 1151.35 562.587C1153.77 565.005 1155.13 568.285 1155.13 571.705Z" fill="#273438"/>
<path d="M1146.74 571.706C1146.74 572.618 1146.47 573.509 1145.97 574.267C1145.46 575.025 1144.74 575.616 1143.9 575.965C1143.06 576.314 1142.13 576.406 1141.23 576.228C1140.34 576.05 1139.52 575.611 1138.87 574.966C1138.23 574.321 1137.79 573.5 1137.61 572.605C1137.43 571.711 1137.53 570.784 1137.87 569.942C1138.22 569.099 1138.81 568.379 1139.57 567.873C1140.33 567.366 1141.22 567.096 1142.13 567.096C1143.36 567.096 1144.53 567.581 1145.39 568.446C1146.26 569.311 1146.74 570.483 1146.74 571.706Z" fill="#CBD6D8"/>
<path d="M1228.18 571.705C1228.18 574.256 1227.42 576.749 1226.01 578.87C1224.59 580.991 1222.58 582.644 1220.22 583.62C1217.86 584.596 1215.27 584.851 1212.77 584.353C1210.27 583.856 1207.97 582.628 1206.17 580.824C1204.36 579.021 1203.13 576.723 1202.64 574.221C1202.14 571.72 1202.39 569.127 1203.37 566.77C1204.35 564.414 1206 562.4 1208.12 560.983C1210.24 559.566 1212.73 558.81 1215.29 558.81C1218.71 558.81 1221.99 560.168 1224.4 562.587C1226.82 565.005 1228.18 568.285 1228.18 571.705Z" fill="#273438"/>
<path d="M1219.8 571.694C1219.8 572.6 1219.53 573.486 1219.03 574.241C1218.53 574.996 1217.82 575.587 1216.98 575.939C1216.15 576.292 1215.23 576.39 1214.34 576.222C1213.45 576.055 1212.62 575.628 1211.97 574.996C1211.33 574.364 1210.88 573.555 1210.68 572.669C1210.49 571.784 1210.57 570.861 1210.89 570.017C1211.22 569.173 1211.79 568.444 1212.54 567.922C1213.28 567.4 1214.15 567.109 1215.06 567.083C1215.68 567.066 1216.29 567.173 1216.86 567.397C1217.44 567.621 1217.96 567.957 1218.4 568.387C1218.85 568.817 1219.2 569.331 1219.44 569.899C1219.68 570.467 1219.8 571.077 1219.8 571.694Z" fill="#CBD6D8"/>
<path d="M840.565 386.477H808.326C799.976 386.477 799.492 392.474 793.205 401.597L768.639 441.897C768.295 443.751 768.295 445.652 768.639 447.507C769.117 449.464 770.106 451.26 771.505 452.71C772.904 454.16 774.663 455.212 776.602 455.76C777.544 456.111 778.515 456.381 779.504 456.566C780.968 456.864 782.458 457.016 783.953 457.017H840.565C844.57 457.009 848.408 455.412 851.236 452.577C854.065 449.742 855.653 445.901 855.653 441.897V401.597C855.653 397.593 854.065 393.752 851.236 390.917C848.408 388.082 844.57 386.486 840.565 386.477Z" fill="#88BFB7"/>
<path d="M947.827 393.989C946.838 392.286 945.524 390.794 943.958 389.599C942.393 388.404 940.607 387.53 938.703 387.025C937.435 386.663 936.122 386.478 934.802 386.477H888.216C884.206 386.477 880.36 388.07 877.524 390.906C874.689 393.741 873.096 397.587 873.096 401.597V441.897C873.079 443.893 873.457 445.873 874.21 447.723C874.962 449.572 876.073 451.254 877.479 452.672C878.884 454.09 880.557 455.215 882.4 455.983C884.243 456.751 886.22 457.146 888.216 457.146H934.802C938.812 457.146 942.658 455.553 945.494 452.717C948.33 449.882 949.923 446.036 949.923 442.026V401.597C949.921 398.919 949.197 396.29 947.827 393.989Z" fill="#88BFB7"/>
<path d="M1022.94 386.478H976.486C972.476 386.478 968.63 388.071 965.794 390.906C962.959 393.742 961.366 397.588 961.366 401.598V441.897C961.374 443.07 961.515 444.238 961.785 445.379C962.321 447.639 963.369 449.746 964.848 451.537C965.359 452.172 965.931 452.755 966.556 453.278C969.285 455.732 972.816 457.108 976.486 457.147H1023.07C1027.08 457.147 1030.93 455.554 1033.76 452.718C1036.6 449.882 1038.19 446.037 1038.19 442.026V401.598C1038.19 399.601 1037.8 397.625 1037.03 395.782C1036.26 393.939 1035.14 392.266 1033.72 390.86C1032.3 389.455 1030.62 388.344 1028.77 387.591C1026.92 386.839 1024.94 386.461 1022.94 386.478Z" fill="#88BFB7"/>
<path d="M1112.38 386.477H1065.76C1063.77 386.473 1061.8 386.861 1059.97 387.619C1058.13 388.378 1056.46 389.491 1055.06 390.896C1053.65 392.301 1052.54 393.97 1051.78 395.806C1051.02 397.643 1050.63 399.611 1050.64 401.597V441.897C1050.62 443.895 1050.99 445.877 1051.74 447.728C1052.49 449.579 1053.61 451.263 1055.01 452.682C1056.42 454.1 1058.09 455.225 1059.94 455.992C1061.78 456.758 1063.76 457.151 1065.76 457.146H1112.38C1116.38 457.138 1120.22 455.541 1123.05 452.706C1125.88 449.871 1127.47 446.03 1127.47 442.026V401.597C1127.47 397.593 1125.88 393.752 1123.05 390.917C1120.22 388.082 1116.38 386.486 1112.38 386.477Z" fill="#88BFB7"/>
<path d="M823.674 406.468C821.61 404.115 817.226 404.501 814.227 407.274L768.866 447.477C769.32 449.414 770.272 451.198 771.63 452.652C772.988 454.105 774.703 455.178 776.604 455.762L821.739 415.721C823.192 414.725 824.204 413.207 824.564 411.483C824.924 409.759 824.605 407.963 823.674 406.468Z" fill="#CCFEF8"/>
<path d="M820.158 424.915C819.346 424.258 818.312 423.94 817.271 424.031C816.231 424.121 815.266 424.611 814.58 425.399L779.439 456.542C780.903 456.841 782.394 456.992 783.888 456.994H788.982L818.997 430.396C819.851 429.801 820.446 428.903 820.661 427.885C820.877 426.867 820.697 425.805 820.158 424.915Z" fill="#CCFEF8"/>
<path d="M938.702 387.041L886.216 433.498C884.757 434.489 883.74 436.008 883.379 437.734C883.018 439.46 883.342 441.259 884.282 442.751C886.345 445.104 890.73 444.718 893.696 441.945L947.826 394.005C946.837 392.302 945.522 390.81 943.957 389.615C942.391 388.42 940.606 387.546 938.702 387.041Z" fill="#CCFEF8"/>
<path d="M1059.18 417.524C1055.96 420.329 1055.18 424.455 1057.25 426.776C1059.31 429.098 1063.69 428.743 1066.66 425.971L1111.21 386.477H1094.22L1059.18 417.524Z" fill="#CCFEF8"/>
<path d="M1124.53 434.845C1123.72 434.187 1122.69 433.87 1121.65 433.96C1120.61 434.051 1119.64 434.541 1118.96 435.329L1094.49 457.155H1104.54L1123.37 440.423C1123.82 440.135 1124.2 439.762 1124.5 439.325C1124.8 438.888 1125.01 438.396 1125.12 437.877C1125.23 437.358 1125.23 436.822 1125.13 436.302C1125.03 435.782 1124.83 435.286 1124.53 434.845Z" fill="#CCFEF8"/>
<path d="M1201.78 386.477H1155.19C1151.18 386.477 1147.34 388.07 1144.5 390.906C1141.66 393.742 1140.07 397.588 1140.07 401.598V441.897C1140.08 445.092 1141.11 448.202 1142.99 450.779C1144.88 453.356 1147.54 455.27 1150.58 456.244C1152.1 456.764 1153.69 457.025 1155.29 457.018H1201.87C1205.88 457.018 1209.73 455.424 1212.57 452.589C1215.4 449.753 1216.99 445.907 1216.99 441.897V401.598C1216.99 399.604 1216.6 397.63 1215.83 395.789C1215.07 393.948 1213.95 392.277 1212.53 390.872C1211.12 389.466 1209.44 388.355 1207.59 387.6C1205.75 386.846 1203.77 386.465 1201.78 386.477Z" fill="#88BFB7"/>
<path d="M1209.45 411.536C1208.07 410.436 1206.33 409.909 1204.57 410.066C1202.82 410.222 1201.19 411.049 1200.04 412.374L1150.58 456.252C1152.09 456.772 1153.69 457.034 1155.29 457.026H1166.7L1207.55 420.789C1208.99 419.788 1210 418.267 1210.35 416.544C1210.71 414.82 1210.38 413.026 1209.45 411.536Z" fill="#CCFEF8"/>
<path d="M1022.24 422.269C1020.96 421.277 1019.35 420.803 1017.74 420.941C1016.13 421.078 1014.63 421.817 1013.53 423.01L975.167 457.152H990.9L1020.43 430.974C1021.79 430.031 1022.74 428.602 1023.07 426.982C1023.41 425.362 1023.11 423.674 1022.24 422.269Z" fill="#CCFEF8"/>
<path d="M1936.06 366.883H1511.85C1503.5 366.883 1496.12 371.783 1485.41 388.87L1409.84 501.709C1380.05 549.165 1410.29 558.708 1418.64 558.708H1954.63C1959.15 536.968 1961.43 514.822 1961.43 492.617C1961.51 449.426 1952.88 406.663 1936.06 366.883V366.883Z" fill="white"/>
<path opacity="0.1" d="M1961.43 492.62H1415.94L1409.84 501.582C1406.65 506.572 1403.87 511.812 1401.53 517.251H1960.49C1961.11 509.094 1961.43 500.808 1961.43 492.62Z" fill="black"/>
<path opacity="0.1" d="M1397.14 533.209H1958.88C1959.24 530.405 1959.53 527.632 1959.82 524.827H1398.79C1397.97 527.563 1397.42 530.37 1397.14 533.209Z" fill="black"/>
<path d="M1561.4 562.895C1561.4 564.007 1560.96 565.073 1560.17 565.859C1559.39 566.645 1558.32 567.086 1557.21 567.086H1447.82C1446.71 567.086 1445.64 566.645 1444.86 565.859C1444.07 565.073 1443.63 564.007 1443.63 562.895C1443.63 561.784 1444.07 560.718 1444.86 559.932C1445.64 559.146 1446.71 558.704 1447.82 558.704H1557.21C1558.32 558.704 1559.39 559.146 1560.17 559.932C1560.96 560.718 1561.4 561.784 1561.4 562.895Z" fill="#DADADA"/>
<path d="M1478.22 571.705C1478.22 574.256 1477.46 576.749 1476.05 578.87C1474.63 580.991 1472.62 582.644 1470.26 583.62C1467.9 584.596 1465.31 584.851 1462.81 584.353C1460.31 583.856 1458.01 582.628 1456.21 580.824C1454.4 579.021 1453.17 576.723 1452.68 574.221C1452.18 571.72 1452.43 569.127 1453.41 566.77C1454.39 564.414 1456.04 562.4 1458.16 560.983C1460.28 559.566 1462.77 558.81 1465.32 558.81C1468.75 558.81 1472.03 560.168 1474.44 562.587C1476.86 565.005 1478.22 568.285 1478.22 571.705Z" fill="#273438"/>
<path d="M1469.84 571.706C1469.84 572.618 1469.57 573.509 1469.06 574.267C1468.56 575.025 1467.84 575.616 1466.99 575.965C1466.15 576.314 1465.22 576.406 1464.33 576.228C1463.44 576.05 1462.61 575.611 1461.97 574.966C1461.32 574.321 1460.89 573.5 1460.71 572.605C1460.53 571.711 1460.62 570.784 1460.97 569.942C1461.32 569.099 1461.91 568.379 1462.67 567.873C1463.43 567.366 1464.32 567.096 1465.23 567.096C1466.45 567.096 1467.62 567.581 1468.49 568.446C1469.35 569.311 1469.84 570.483 1469.84 571.706Z" fill="#CBD6D8"/>
<path d="M1551.34 571.705C1551.34 574.256 1550.58 576.749 1549.17 578.87C1547.75 580.991 1545.74 582.644 1543.38 583.62C1541.02 584.596 1538.43 584.851 1535.93 584.353C1533.43 583.856 1531.13 582.628 1529.33 580.824C1527.52 579.021 1526.29 576.723 1525.8 574.221C1525.3 571.72 1525.55 569.127 1526.53 566.77C1527.51 564.414 1529.16 562.4 1531.28 560.983C1533.4 559.566 1535.89 558.81 1538.45 558.81C1541.87 558.81 1545.15 560.168 1547.56 562.587C1549.98 565.005 1551.34 568.285 1551.34 571.705Z" fill="#273438"/>
<path d="M1542.9 571.695C1542.89 572.613 1542.62 573.511 1542.11 574.272C1541.59 575.033 1540.86 575.623 1540.01 575.967C1539.16 576.311 1538.22 576.392 1537.32 576.201C1536.43 576.01 1535.61 575.554 1534.97 574.893C1534.33 574.232 1533.9 573.396 1533.74 572.491C1533.59 571.586 1533.7 570.655 1534.07 569.816C1534.45 568.977 1535.06 568.268 1535.84 567.782C1536.62 567.295 1537.53 567.052 1538.45 567.084C1539.64 567.126 1540.77 567.63 1541.6 568.49C1542.43 569.35 1542.9 570.499 1542.9 571.695Z" fill="#CBD6D8"/>
<path d="M1762.9 562.895C1762.9 564.007 1762.45 565.073 1761.67 565.859C1760.88 566.645 1759.82 567.086 1758.7 567.086H1649.32C1648.2 567.086 1647.14 566.645 1646.35 565.859C1645.57 565.073 1645.12 564.007 1645.12 562.895C1645.12 561.784 1645.57 560.718 1646.35 559.932C1647.14 559.146 1648.2 558.704 1649.32 558.704H1758.7C1759.82 558.704 1760.88 559.146 1761.67 559.932C1762.45 560.718 1762.9 561.784 1762.9 562.895Z" fill="#DADADA"/>
<path d="M1679.72 571.705C1679.72 574.256 1678.96 576.749 1677.55 578.87C1676.13 580.991 1674.12 582.644 1671.76 583.62C1669.4 584.596 1666.81 584.851 1664.31 584.353C1661.81 583.856 1659.51 582.628 1657.71 580.824C1655.9 579.021 1654.67 576.723 1654.18 574.221C1653.68 571.72 1653.93 569.127 1654.91 566.77C1655.89 564.414 1657.54 562.4 1659.66 560.983C1661.78 559.566 1664.27 558.81 1666.82 558.81C1670.24 558.81 1673.52 560.168 1675.94 562.587C1678.36 565.005 1679.72 568.285 1679.72 571.705Z" fill="#273438"/>
<path d="M1671.34 571.706C1671.34 572.618 1671.07 573.509 1670.56 574.267C1670.05 575.025 1669.33 575.616 1668.49 575.965C1667.65 576.314 1666.72 576.406 1665.83 576.228C1664.93 576.05 1664.11 575.611 1663.47 574.966C1662.82 574.321 1662.38 573.5 1662.2 572.605C1662.03 571.711 1662.12 570.784 1662.47 569.942C1662.81 569.099 1663.41 568.379 1664.16 567.873C1664.92 567.366 1665.81 567.096 1666.73 567.096C1667.33 567.096 1667.93 567.215 1668.49 567.447C1669.05 567.678 1669.56 568.018 1669.99 568.446C1670.41 568.874 1670.75 569.382 1670.98 569.942C1671.22 570.501 1671.34 571.101 1671.34 571.706Z" fill="#CBD6D8"/>
<path d="M1752.74 571.705C1752.74 574.256 1751.99 576.749 1750.57 578.87C1749.15 580.991 1747.14 582.644 1744.78 583.62C1742.43 584.596 1739.83 584.851 1737.33 584.353C1734.83 583.856 1732.53 582.628 1730.73 580.824C1728.93 579.021 1727.7 576.723 1727.2 574.221C1726.7 571.72 1726.96 569.127 1727.93 566.77C1728.91 564.414 1730.56 562.4 1732.68 560.983C1734.8 559.566 1737.3 558.81 1739.85 558.81C1743.27 558.81 1746.55 560.168 1748.97 562.587C1751.39 565.005 1752.74 568.285 1752.74 571.705Z" fill="#273438"/>
<path d="M1744.39 571.706C1744.39 572.618 1744.12 573.509 1743.61 574.267C1743.11 575.025 1742.39 575.616 1741.55 575.965C1740.7 576.314 1739.78 576.406 1738.88 576.228C1737.99 576.05 1737.17 575.611 1736.52 574.966C1735.88 574.321 1735.44 573.5 1735.26 572.605C1735.08 571.711 1735.17 570.784 1735.52 569.942C1735.87 569.099 1736.46 568.379 1737.22 567.873C1737.98 567.366 1738.87 567.096 1739.78 567.096C1741 567.096 1742.18 567.581 1743.04 568.446C1743.91 569.311 1744.39 570.483 1744.39 571.706Z" fill="#CBD6D8"/>
<path d="M1951.79 562.895C1951.79 563.446 1951.68 563.991 1951.47 564.499C1951.26 565.008 1950.95 565.47 1950.56 565.859C1950.17 566.248 1949.71 566.557 1949.2 566.767C1948.69 566.978 1948.15 567.086 1947.6 567.086H1838.27C1837.17 567.078 1836.11 566.633 1835.33 565.847C1834.55 565.062 1834.11 564.001 1834.11 562.895C1834.11 561.789 1834.55 560.728 1835.33 559.943C1836.11 559.158 1837.17 558.713 1838.27 558.704H1947.66C1948.77 558.704 1949.84 559.146 1950.62 559.932C1951.41 560.718 1951.85 561.784 1951.85 562.895H1951.79Z" fill="#DADADA"/>
<path d="M1868.61 571.705C1868.61 574.256 1867.86 576.749 1866.44 578.87C1865.02 580.991 1863.01 582.644 1860.65 583.62C1858.3 584.596 1855.7 584.851 1853.2 584.353C1850.7 583.856 1848.4 582.628 1846.6 580.824C1844.79 579.021 1843.57 576.723 1843.07 574.221C1842.57 571.72 1842.83 569.127 1843.8 566.77C1844.78 564.414 1846.43 562.4 1848.55 560.983C1850.67 559.566 1853.17 558.81 1855.72 558.81C1859.14 558.81 1862.42 560.168 1864.84 562.587C1867.25 565.005 1868.61 568.285 1868.61 571.705Z" fill="#273438"/>
<path d="M1860.23 571.706C1860.23 572.618 1859.96 573.509 1859.45 574.267C1858.95 575.025 1858.23 575.616 1857.38 575.965C1856.54 576.314 1855.61 576.406 1854.72 576.228C1853.82 576.05 1853 575.611 1852.36 574.966C1851.71 574.321 1851.27 573.5 1851.1 572.605C1850.92 571.711 1851.01 570.784 1851.36 569.942C1851.71 569.099 1852.3 568.379 1853.06 567.873C1853.82 567.366 1854.71 567.096 1855.62 567.096C1856.84 567.096 1858.01 567.581 1858.88 568.446C1859.74 569.311 1860.23 570.483 1860.23 571.706Z" fill="#CBD6D8"/>
<path d="M1941.67 571.705C1941.67 574.256 1940.91 576.749 1939.49 578.87C1938.07 580.991 1936.06 582.644 1933.7 583.62C1931.35 584.596 1928.76 584.851 1926.25 584.353C1923.75 583.856 1921.45 582.628 1919.65 580.824C1917.85 579.021 1916.62 576.723 1916.12 574.221C1915.62 571.72 1915.88 569.127 1916.86 566.77C1917.83 564.414 1919.48 562.4 1921.6 560.983C1923.73 559.566 1926.22 558.81 1928.77 558.81C1932.19 558.81 1935.47 560.168 1937.89 562.587C1940.31 565.005 1941.67 568.285 1941.67 571.705Z" fill="#273438"/>
<path d="M1554.05 386.477H1521.81C1513.46 386.477 1512.98 392.474 1506.69 401.597L1482.12 441.897C1481.78 443.751 1481.78 445.652 1482.12 447.507C1482.6 449.464 1483.59 451.26 1484.99 452.71C1486.39 454.16 1488.15 455.212 1490.09 455.76C1491.03 456.111 1492 456.381 1492.99 456.566C1494.45 456.864 1495.94 457.016 1497.44 457.017H1554.05C1558.05 457.009 1561.89 455.412 1564.72 452.577C1567.55 449.742 1569.14 445.901 1569.14 441.897V401.597C1569.14 397.593 1567.55 393.752 1564.72 390.917C1561.89 388.082 1558.05 386.486 1554.05 386.477Z" fill="#88BFB7"/>
<path d="M1661.31 393.989C1660.32 392.286 1659.01 390.794 1657.44 389.599C1655.88 388.404 1654.09 387.53 1652.19 387.025C1650.92 386.663 1649.61 386.478 1648.29 386.477H1601.7C1597.69 386.477 1593.84 388.07 1591.01 390.906C1588.17 393.741 1586.58 397.587 1586.58 401.597V441.897C1586.56 443.893 1586.94 445.873 1587.69 447.723C1588.45 449.572 1589.56 451.254 1590.96 452.672C1592.37 454.09 1594.04 455.215 1595.88 455.983C1597.73 456.751 1599.7 457.146 1601.7 457.146H1648.29C1652.3 457.146 1656.14 455.553 1658.98 452.717C1661.81 449.882 1663.41 446.036 1663.41 442.026V401.597C1663.41 398.919 1662.68 396.29 1661.31 393.989Z" fill="#88BFB7"/>
<path d="M1736.43 386.478H1689.97C1685.96 386.478 1682.11 388.071 1679.28 390.906C1676.44 393.742 1674.85 397.588 1674.85 401.598V441.897C1674.86 443.07 1675 444.238 1675.27 445.379C1675.81 447.639 1676.85 449.746 1678.33 451.537C1678.84 452.172 1679.42 452.755 1680.04 453.278C1682.77 455.732 1686.3 457.108 1689.97 457.147H1736.56C1740.57 457.147 1744.41 455.554 1747.25 452.718C1750.08 449.882 1751.68 446.037 1751.68 442.026V401.598C1751.68 399.601 1751.28 397.625 1750.51 395.782C1749.75 393.939 1748.62 392.266 1747.2 390.86C1745.79 389.455 1744.1 388.344 1742.25 387.591C1740.4 386.839 1738.42 386.461 1736.43 386.478Z" fill="#88BFB7"/>
<path d="M1825.86 386.477H1779.24C1777.26 386.473 1775.29 386.861 1773.45 387.619C1771.62 388.378 1769.95 389.491 1768.54 390.896C1767.14 392.301 1766.02 393.97 1765.27 395.806C1764.51 397.643 1764.12 399.611 1764.12 401.597V441.897C1764.1 443.895 1764.48 445.877 1765.23 447.728C1765.98 449.579 1767.09 451.263 1768.5 452.682C1769.9 454.1 1771.58 455.225 1773.42 455.992C1775.27 456.758 1777.25 457.151 1779.24 457.146H1825.86C1829.87 457.138 1833.7 455.541 1836.53 452.706C1839.36 449.871 1840.95 446.03 1840.95 442.026V401.597C1840.95 397.593 1839.36 393.752 1836.53 390.917C1833.7 388.082 1829.87 386.486 1825.86 386.477Z" fill="#88BFB7"/>
<path d="M1537.16 406.468C1535.09 404.115 1530.71 404.501 1527.71 407.274L1482.35 447.477C1482.8 449.414 1483.76 451.198 1485.11 452.652C1486.47 454.105 1488.19 455.178 1490.09 455.762L1535.22 415.721C1536.68 414.725 1537.69 413.207 1538.05 411.483C1538.41 409.759 1538.09 407.963 1537.16 406.468Z" fill="#CCFEF8"/>
<path d="M1533.64 424.915C1532.83 424.258 1531.8 423.94 1530.76 424.031C1529.72 424.121 1528.75 424.611 1528.06 425.399L1492.92 456.542C1494.39 456.841 1495.88 456.992 1497.37 456.994H1502.47L1532.48 430.396C1533.33 429.801 1533.93 428.903 1534.15 427.885C1534.36 426.867 1534.18 425.805 1533.64 424.915Z" fill="#CCFEF8"/>
<path d="M1652.19 387.041L1599.7 433.498C1598.24 434.489 1597.22 436.008 1596.86 437.734C1596.5 439.46 1596.83 441.259 1597.77 442.751C1599.83 445.104 1604.21 444.718 1607.18 441.945L1661.31 394.005C1660.32 392.302 1659.01 390.81 1657.44 389.615C1655.88 388.42 1654.09 387.546 1652.19 387.041Z" fill="#CCFEF8"/>
<path d="M1772.66 417.524C1769.44 420.329 1768.67 424.455 1770.73 426.776C1772.79 429.098 1777.18 428.743 1780.14 425.971L1824.7 386.477H1807.71L1772.66 417.524Z" fill="#CCFEF8"/>
<path d="M1838.02 434.845C1837.21 434.187 1836.17 433.87 1835.13 433.96C1834.09 434.051 1833.13 434.541 1832.44 435.329L1807.97 457.155H1818.03L1836.86 440.423C1837.3 440.135 1837.69 439.762 1837.99 439.325C1838.29 438.888 1838.5 438.396 1838.6 437.877C1838.71 437.358 1838.72 436.822 1838.62 436.302C1838.51 435.782 1838.31 435.286 1838.02 434.845Z" fill="#CCFEF8"/>
<path d="M1915.26 386.477H1868.68C1864.67 386.477 1860.82 388.07 1857.98 390.906C1855.15 393.742 1853.56 397.588 1853.56 401.598V441.897C1853.57 445.092 1854.59 448.202 1856.48 450.779C1858.37 453.356 1861.02 455.27 1864.07 456.244C1865.58 456.764 1867.17 457.025 1868.77 457.018H1915.36C1919.37 457.018 1923.21 455.424 1926.05 452.589C1928.89 449.753 1930.48 445.907 1930.48 441.897V401.598C1930.48 399.604 1930.08 397.63 1929.32 395.789C1928.55 393.948 1927.43 392.277 1926.02 390.872C1924.6 389.466 1922.92 388.355 1921.08 387.6C1919.23 386.846 1917.26 386.465 1915.26 386.477Z" fill="#88BFB7"/>
<path d="M1922.93 411.536C1921.56 410.436 1919.81 409.909 1918.06 410.066C1916.3 410.222 1914.68 411.049 1913.52 412.374L1864.06 456.252C1865.58 456.772 1867.17 457.034 1868.77 457.026H1880.18L1921.03 420.789C1922.48 419.788 1923.48 418.267 1923.84 416.544C1924.19 414.82 1923.87 413.026 1922.93 411.536Z" fill="#CCFEF8"/>
<path d="M1735.72 422.269C1734.44 421.277 1732.84 420.803 1731.22 420.941C1729.61 421.078 1728.11 421.817 1727.02 423.01L1688.65 457.152H1704.38L1733.92 430.974C1735.28 430.031 1736.22 428.602 1736.56 426.982C1736.89 425.362 1736.59 423.674 1735.72 422.269Z" fill="#CCFEF8"/>
<path d="M817.575 473.182C817.575 473.182 816.823 470.706 816.72 470.323C816.616 469.941 816.961 468.894 817.46 467.726C817.959 466.559 819.146 465.211 819.359 465.168C819.572 465.124 819.768 464.99 820.271 465.227C820.774 465.464 821.021 465.99 821.021 465.99C821.021 465.99 821.809 465.99 822.131 466.609C822.131 466.609 822.832 466.69 823.084 467.457C823.084 467.457 823.8 467.403 823.94 467.976C823.94 467.976 823.596 469.027 823.579 469.453C823.561 469.878 822.503 471.903 821.366 473.823C821.366 473.823 820.39 476.104 817.575 473.182Z" fill="#EEA886"/>
<path d="M821.17 474.302C821.17 474.302 816.884 487.423 815.001 489.418C814.102 490.368 812.809 490.716 809.776 489.254C808.774 488.77 807.513 487.885 806.22 486.856C805.793 486.519 805.365 486.165 804.94 485.806L804.633 485.544C804.216 485.187 803.805 484.826 803.407 484.472C801.346 482.623 799.668 480.927 799.472 480.65C799.072 480.09 791.866 475.844 796.21 472.041C797.185 471.189 801.045 468.985 803.593 471.284C805.829 473.305 807.141 477.408 807.753 478.285C808.365 479.162 811.416 483.065 811.416 483.065C811.593 483.404 813.921 479.583 814.074 479.116C814.739 477.089 816.74 472.373 816.74 472.373L821.17 474.302Z" fill="#385369"/>
<path d="M805.321 500.552C804.897 500.551 804.475 500.49 804.071 500.371C802.058 499.782 800.106 497.851 798.268 494.633C796.233 491.068 794.433 486.066 792.917 479.764C792.313 477.289 792.676 474.692 793.939 472.451C795.137 470.341 797.021 468.827 799.107 468.292C801.374 467.711 803.698 468.349 805.649 470.078C807.917 472.081 809.649 475.424 810.804 480.014C811.82 484.064 812.102 488.076 811.622 491.615C811.172 494.924 810.071 497.59 808.52 499.121C807.557 500.069 806.47 500.552 805.321 500.552ZM800.773 469.127C800.294 469.127 799.817 469.187 799.355 469.304C795.834 470.2 792.733 474.613 793.912 479.51C795.404 485.715 797.167 490.625 799.154 494.103C800.83 497.038 802.629 498.857 804.352 499.363C805.603 499.729 806.763 499.396 807.801 498.371C809.189 497.002 810.183 494.552 810.6 491.472C811.063 488.065 810.787 484.192 809.804 480.272C808.723 475.955 807.054 472.701 804.977 470.869C803.464 469.524 801.99 469.127 800.773 469.127Z" fill="#F3F3F3"/>
<path d="M806 501.243C805.563 501.242 805.129 501.177 804.714 501.049C802.707 500.442 800.772 498.494 798.962 495.259C796.958 491.68 795.202 486.658 793.741 480.342C793.159 477.863 793.545 475.269 794.828 473.039C796.045 470.94 797.942 469.442 800.032 468.931C802.304 468.374 804.624 469.027 806.562 470.776C808.811 472.801 810.51 476.159 811.62 480.76C812.6 484.822 812.846 488.833 812.335 492.367C811.857 495.671 810.734 498.327 809.166 499.844C808.215 500.766 807.136 501.243 806 501.243ZM801.64 469.772C801.179 469.773 800.721 469.829 800.275 469.939C796.747 470.802 793.607 475.186 794.743 480.095C796.181 486.314 797.901 491.238 799.854 494.734C801.504 497.685 803.286 499.52 805.006 500.04C806.254 500.419 807.417 500.096 808.463 499.081C809.862 497.727 810.877 495.283 811.325 492.207C811.818 488.805 811.577 484.93 810.628 481.001C809.577 476.674 807.942 473.405 805.882 471.547C804.358 470.176 802.866 469.772 801.64 469.772Z" fill="#E0E0E0"/>
<path d="M803.648 501.383C803.099 501.379 802.555 501.272 802.05 501.067C800.099 500.294 798.323 498.197 796.776 494.824C795.061 491.09 793.709 485.943 792.75 479.528C792.364 477.02 792.954 474.465 794.411 472.338C795.79 470.345 797.799 469.009 799.923 468.669C802.232 468.301 804.491 469.144 806.285 471.044C808.361 473.245 809.792 476.733 810.535 481.413C811.191 485.54 811.121 489.561 810.33 493.043C809.592 496.298 808.262 498.852 806.584 500.236C805.658 500.996 804.661 501.383 803.648 501.383ZM800.99 469.628C800.684 469.628 800.378 469.653 800.076 469.701C796.491 470.274 793.015 474.386 793.758 479.374C794.7 485.69 796.026 490.741 797.699 494.385C799.111 497.461 800.742 499.437 802.415 500.092C803.63 500.576 804.814 500.345 805.937 499.415C807.437 498.178 808.643 495.828 809.33 492.799C810.089 489.447 810.155 485.565 809.52 481.572C808.821 477.172 807.445 473.779 805.539 471.762C803.949 470.08 802.301 469.628 800.99 469.628Z" fill="#DBDBDB"/>
<path d="M802.563 502.001C802.014 501.997 801.471 501.89 800.966 501.685C799.013 500.912 797.239 498.815 795.691 495.443C793.977 491.708 792.624 486.561 791.665 480.146C791.278 477.638 791.867 475.083 793.324 472.956C794.703 470.964 796.712 469.627 798.836 469.287C801.146 468.919 803.405 469.762 805.199 471.662C807.28 473.867 808.711 477.35 809.454 482.027C810.11 486.153 810.039 490.175 809.25 493.656C808.512 496.912 807.181 499.466 805.502 500.85C804.577 501.614 803.581 502.001 802.563 502.001ZM792.679 479.989C793.622 486.306 794.948 491.356 796.62 495C798.032 498.077 799.663 500.052 801.337 500.707C802.55 501.19 803.735 500.959 804.858 500.029C806.359 498.792 807.564 496.442 808.25 493.412C809.01 490.062 809.076 486.179 808.441 482.185C807.742 477.786 806.365 474.394 804.461 472.377C802.468 470.266 800.39 470.088 798.997 470.311C795.412 470.891 791.936 475.004 792.679 479.989Z" fill="#C7C7C7"/>
<path d="M819.365 584.551C819.365 584.551 822.236 586.939 824.651 587.473C827.067 588.007 828.331 589.262 828.352 590.721C828.372 592.179 821.401 593.139 818.641 591.671C814.516 589.476 814.097 590.137 813.64 589.04C813.183 587.942 813.55 585.038 813.52 584.687C813.48 584.257 819.365 584.551 819.365 584.551Z" fill="#2E2626"/>
<path d="M785.044 586.468C785.044 586.468 786.831 589.222 789.098 589.775C791.334 590.322 792.159 591.188 792.267 592.563C792.376 593.937 786.996 595.735 783.214 593.322C780.73 591.737 779.804 591.827 779.304 590.819C778.804 589.811 779.183 586.974 779.133 586.647C779.074 586.243 785.044 586.468 785.044 586.468Z" fill="#2E2626"/>
<path d="M805.015 515.523C805.015 515.523 810.565 531.348 812.512 537.153C815.073 544.794 817.01 551.565 817.332 555.228C817.741 559.835 820.016 582.796 820.296 584.14C820.577 585.485 812.697 585.036 812.697 585.036C812.697 585.036 808.264 557.628 807.056 552.723C805.932 548.156 795.286 527.436 794.26 528.683C793.234 529.93 789.826 551.139 789.065 554.741C788.305 558.343 786.271 586.7 786.271 586.7C786.271 586.7 779.353 587.828 777.961 586.7C777.961 586.7 779.051 561.414 779.536 554.661C779.72 552.088 777.936 523.85 782.211 512.463C784.473 506.444 805.015 515.523 805.015 515.523Z" fill="#E2581D"/>
<path d="M796.737 469.372C796.737 469.372 802.12 470.497 802.819 471.127C803.577 471.798 805.092 478.575 805.17 480.406C805.247 482.237 804.786 489.771 804.028 492.615C803.269 495.46 802.641 507.391 803.119 511.332C803.119 511.332 793.408 514.132 781.754 512.59C781.754 512.59 782.834 499.94 782.368 496.043C781.772 491.047 779.829 480.158 779.829 480.158C779.829 480.158 779.975 472.613 781.012 471.715C782.05 470.818 790.088 469.37 790.088 469.37L796.737 469.372Z" fill="#385369"/>
<path d="M797.923 469.624C797.923 469.624 799.189 471.541 797.424 471.867C795.66 472.193 792.058 471.795 790.095 469.363C790.091 469.363 795.437 468.89 797.923 469.624Z" fill="#EEA886"/>
<path d="M804.35 491.051L800.739 482.667H791.351C791.351 482.667 787.053 490.954 782.061 493.719C782.061 493.719 781.33 511.187 780.992 517.055C780.992 517.055 785.708 519.779 793.111 519.893C800.514 520.008 806.642 520.176 806.642 520.176C806.642 520.176 803.592 508.936 803.559 507.45C803.526 505.965 803.966 494.013 804.35 491.051Z" fill="#E2581D"/>
<path d="M790.554 484.082C790.554 484.082 790.988 474.283 785.852 470.223C786.354 470.016 786.893 469.9 787.441 469.882C787.441 469.882 791.624 471.587 792.802 482.666C793.979 493.745 790.554 484.082 790.554 484.082Z" fill="#E2581D"/>
<path d="M800.316 482.667C800.316 482.667 801.304 474.73 799.268 469.948C799.268 469.948 800.188 470.173 800.707 470.325C800.707 470.325 802.818 473.146 801.791 485.115C800.765 497.084 800.316 482.667 800.316 482.667Z" fill="#E2581D"/>
<path d="M781.015 471.708C781.015 471.708 778.942 473.1 779.121 475.712C779.301 478.324 780.821 485.887 780.821 485.887L781.015 471.708Z" fill="#E2581D"/>
<path d="M776.865 526.593L776.354 525.684C792.462 516.361 804.977 506.584 813.54 496.629C822.031 486.763 824.155 479.585 824.665 476.184C825.051 473.622 824.775 471.542 823.928 470.617C818.543 464.738 798.044 469.589 797.628 469.529L797.354 468.822C797.676 468.813 803.987 467.428 809.55 466.913C817.128 466.213 822.218 467.219 824.679 469.905C825.754 471.078 826.119 473.424 825.681 476.342C825.153 479.853 822.974 487.25 814.312 497.317C805.669 507.361 793.069 517.211 776.865 526.593Z" fill="#D9D3D3"/>
<path d="M797.836 516.399C797.836 516.399 797.211 516.15 796.989 515.905C796.989 515.905 796.62 515.427 796.337 515.104C796.265 515.02 796.189 514.94 796.108 514.864C795.866 514.653 795.272 514.261 794.832 513.586C794.391 512.91 793.229 509.506 793.229 509.506L794.858 508.345L796.232 507.035C796.232 507.035 800.635 509.157 801.117 509.737C801.163 509.792 801.206 509.85 801.244 509.91C801.605 510.441 801.653 510.99 801.813 511.291C801.87 511.402 802.369 512.543 802.205 512.878C801.98 513.342 801.638 513.57 801.292 513.613C801.292 513.613 800.811 514.502 800.187 514.755C800.187 514.755 799.769 515.59 798.906 515.681C798.906 515.679 798.388 516.477 797.836 516.399Z" fill="#EEA886"/>
<path d="M783.391 471.277C784.737 471.448 788.622 473.913 787.66 477.196C786.856 479.929 786.853 482.171 786.615 483.277C786.377 484.384 785.389 491.87 785.952 492.655C786.667 493.65 790.285 498.325 790.608 498.725C791.252 499.519 796.82 506.776 796.82 506.776L793.134 510.383C793.134 510.383 782.386 498.977 780.908 497.505C779.933 496.538 778.408 495.123 778.428 491.525C778.45 487.868 778.231 480.762 778.376 480.047C778.521 479.333 777.406 470.524 783.391 471.277Z" fill="#385369"/>
<path d="M819.217 465.453C819.217 465.453 818.023 468.445 818.472 468.7C818.922 468.955 819.24 468.771 819.24 468.771L819.297 470.23C819.297 470.23 819.871 471.174 820.713 470.262C820.713 470.262 821.16 471.2 821.869 470.22C821.869 470.22 822.435 470.704 822.842 470.311C823.25 469.919 823.939 467.959 823.939 467.959C823.939 467.959 823.902 467.475 823.11 467.34C823.11 467.34 822.911 466.59 822.147 466.545C822.147 466.545 821.896 465.97 821.071 465.928C821.071 465.928 820.411 464.691 819.359 465.154C819.359 465.148 819.266 465.326 819.217 465.453Z" fill="#DB9C7C"/>
<path d="M816.749 470.219C816.749 470.219 818.398 468.768 819.639 468.381C819.92 468.294 820.208 468.261 820.394 468.493C820.58 468.725 820.485 469.294 819.802 469.959C819.119 470.623 818.535 471.796 818.535 471.796C818.535 471.796 817.638 472.275 816.749 470.219Z" fill="#EEA886"/>
<path d="M806.222 486.854C805.796 486.518 805.368 486.164 804.942 485.804C804.942 485.804 805.3 481.971 805.132 479.903C805.132 479.904 806.336 483.158 806.222 486.854Z" fill="#283B4A"/>
<path d="M789.753 461.962V461.968C790.321 463.217 791.028 464.405 791.862 465.512C794.607 469.097 801.007 469.188 801.1 459.345C801.118 457.482 800.89 455.969 800.523 454.743C799.212 450.376 796.134 449.65 796.134 449.65C793.86 449.522 789.88 450.095 788.553 453.11C787.615 455.251 788.296 458.8 789.753 461.962Z" fill="#EEA987"/>
<path d="M789.753 461.962V461.968C789.753 461.968 790.081 462.057 791.262 459.627C791.499 459.144 791.681 459.488 791.784 459.273L793.666 458.525C793.666 458.525 791.808 455.355 794.242 454.475C796.725 453.579 800.523 454.743 800.523 454.743C799.213 450.376 796.135 449.65 796.135 449.65C793.86 449.522 789.881 450.095 788.554 453.11C787.615 455.251 788.295 458.8 789.753 461.962Z" fill="#665249"/>
<path d="M792.173 457.8C792.033 457.142 790.756 456.577 790.214 457.994C789.672 459.411 791.484 460.905 791.964 460.595C792.444 460.284 792.404 458.891 792.173 457.8Z" fill="#EEA987"/>
<path d="M788.154 457.915C788.154 457.915 794.204 453.654 801.261 455.174C801.261 455.174 800.842 446.193 792.807 447.731C785.259 449.176 787.894 456.902 788.154 457.915Z" fill="#FAB546"/>
<path d="M792.044 455.981C792.044 455.981 798.054 457.079 801.898 456.261C805.742 455.443 801.154 454.24 801.154 454.24C801.154 454.24 797.95 453.216 792.044 455.981Z" fill="#FAB546"/>
<path d="M797.942 470.634C797.942 470.634 796.287 471.898 790.767 469.419C791.115 467.131 790.96 464.8 790.31 462.572C789.224 458.967 797.355 466.512 797.355 466.512C797.265 466.575 797.253 466.936 797.3 467.438C797.3 467.47 797.307 467.503 797.311 467.535C797.359 467.948 797.433 468.357 797.532 468.762C797.546 468.816 797.559 468.87 797.573 468.925C797.883 470.128 797.942 469.582 797.942 470.634Z" fill="#EEA886"/>
<path d="M797.532 468.759C793.572 469.276 791.412 464.934 791.35 464.807C794.06 468.832 797.309 467.531 797.309 467.531C797.357 467.944 797.432 468.354 797.532 468.759Z" fill="#A77860"/>
<path d="M1054.52 552.286C1056.59 552.286 1057.79 551.721 1057.91 551.666L1057.47 550.681C1057.41 550.709 1051.29 553.51 1042.22 545.344C1036.26 539.986 1030.02 540.675 1022.79 541.473C1018.22 541.978 1013.5 542.5 1008.24 541.58C1005.01 541.013 1002.81 539.55 1001.71 537.229C999.08 531.708 1003.3 523.014 1003.34 522.927L1002.42 522.426C1002.24 522.802 997.923 531.695 1000.78 537.714C1002.04 540.364 1004.49 542.026 1008.07 542.652C1013.47 543.598 1018.48 543.045 1022.9 542.556C1029.9 541.784 1035.93 541.117 1041.55 546.172C1047.14 551.2 1051.66 552.286 1054.52 552.286Z" fill="#385369"/>
<path d="M1057.42 552.758H1064.85V549.594H1057.42V552.758Z" fill="#385369"/>
<path d="M1061.3 555.056H1066.71V544.417H1061.3V555.056Z" fill="#385369"/>
<path d="M977.519 590.914H990.116V533.374H977.519V590.914Z" fill="#385369"/>
<path d="M989.903 528.335C989.903 528.335 988.595 528.942 987.986 528.909C987.377 528.877 983.631 528.481 983.143 529.162C982.656 529.844 979.061 533.651 979.549 534.229C980.037 534.807 980.406 534.517 980.645 534.229C980.884 533.941 983.661 531.487 983.996 531.443C983.996 531.443 981.532 534.353 981.955 535.218C982.378 536.083 983.143 535.924 983.6 536.084C984.056 536.244 984.818 536.854 985.636 536.469C986.454 536.084 989.596 532.493 990.358 531.98C991.12 531.466 993.129 530.666 993.159 530.473C993.189 530.28 989.903 528.335 989.903 528.335Z" fill="#EEA886"/>
<path d="M1014.31 582.12C1013.42 582.448 1012.59 582.91 1011.85 583.492C1010.56 584.479 1008.83 586.093 1006.93 586.455C1005.03 586.817 1003.02 586.784 1003.33 588.92C1003.63 591.056 1009.89 592.115 1015.53 590.304C1021.18 588.492 1021.26 588.327 1021.26 587.801C1021.26 587.275 1020.4 581.971 1020.15 581.79C1019.89 581.609 1014.31 582.12 1014.31 582.12Z" fill="#202338"/>
<path d="M1047.18 580.146C1047.18 580.146 1045.01 582.514 1043.14 582.911C1041.26 583.309 1038.81 583.949 1038.68 585.242C1038.55 586.536 1039.33 586.87 1039.41 586.95C1039.88 587.329 1048.81 587.669 1052.27 586.299C1054.39 585.459 1051.95 578.476 1051.95 578.476L1047.18 580.146Z" fill="#202338"/>
<path d="M1023.06 547.091C1023.53 548.913 1028.36 555.576 1029.01 556.575C1029.89 557.918 1043.88 581.009 1044.04 581.391C1044.2 581.772 1052.1 579.783 1052.42 578.008C1052.42 578.008 1041.34 554.097 1038.7 550.939C1036.06 547.782 1035.46 544.509 1035.88 540.855C1036.3 537.201 1041.47 525.723 1040.68 520.849C1039.89 515.975 1026.23 531.338 1025.75 536.473C1025.75 536.473 1025.72 536.541 1025.68 536.666C1025.52 537.114 1025.11 538.285 1024.66 539.701C1024.63 539.792 1024.6 539.884 1024.57 539.978C1023.73 542.646 1022.79 546.029 1023.06 547.091Z" fill="#E2581D"/>
<path d="M1020.19 521.275C1020.19 521.275 1001.32 536.303 999.212 539.374C997.1 542.446 999.469 547.015 999.785 548.51C1000.1 550.005 1012.82 579.597 1012.98 582.171C1012.98 582.171 1021.51 582.921 1023.01 580.926C1023.01 580.926 1013.73 552.836 1012.38 548.019C1011.04 543.202 1015.66 542.032 1019.37 540.288C1023.09 538.545 1039.22 528.638 1040.16 524.856C1041.03 521.402 1040.12 517.954 1040.12 517.954C1040.12 517.954 1035.77 515.548 1020.19 521.275Z" fill="#E2581D"/>
<path d="M1004.44 509.811C1004.44 509.811 1002.24 508.484 1001.9 508.296C1001.56 508.109 1000.48 508.22 999.26 508.466C998.036 508.711 996.486 509.62 996.403 509.829C996.321 510.038 996.143 510.207 996.26 510.775C996.35 511.146 996.548 511.482 996.83 511.74C996.83 511.74 996.636 512.546 997.159 513.017C997.132 513.237 997.169 513.461 997.267 513.661C997.364 513.86 997.518 514.027 997.709 514.141C997.709 514.141 997.565 514.88 998.083 515.15C998.083 515.15 999.161 515.035 999.571 515.114C999.982 515.194 1002.14 514.568 1004.23 513.839C1004.23 513.829 1006.62 513.347 1004.44 509.811Z" fill="#EEA886"/>
<path d="M996.731 507.784L998.529 507.1L995.486 498.275L993.231 497.629L996.731 507.784Z" fill="#385369"/>
<path d="M998.465 499.567L998.74 498.646L990.421 495.189L990.77 497.026L998.465 499.567Z" fill="#385369"/>
<path d="M1001.91 523.045L1003.86 522.302L998.331 506.264L996.379 507.008L1001.91 523.045Z" fill="#FAB546"/>
<path d="M996.72 509.751C996.72 509.751 999.837 509.206 999.983 509.724C1000.13 510.241 999.883 510.524 999.883 510.524L1001.26 510.912C1001.26 510.912 1002.04 511.712 1000.98 512.367C1000.98 512.367 1001.78 513.034 1000.69 513.538C1000.69 513.538 1001.03 514.226 1000.56 514.553C1000.1 514.88 998.081 515.143 998.081 515.143C998.081 515.143 997.631 514.997 997.67 514.155C997.67 514.155 996.998 513.782 997.122 512.992C997.122 512.992 996.628 512.606 996.768 511.752C996.768 511.752 995.733 510.8 996.401 509.823C996.506 509.794 996.612 509.769 996.72 509.751Z" fill="#DB9C7C"/>
<path d="M1001.8 508.293C1001.8 508.293 1000.06 509.651 999.417 510.832C999.273 511.099 999.178 511.386 999.359 511.628C999.541 511.87 1000.1 511.902 1000.89 511.355C1001.67 510.807 1002.92 510.476 1002.92 510.476C1002.92 510.476 1003.57 509.666 1001.8 508.293Z" fill="#EEA886"/>
<path d="M1021.49 505.463C1022.22 508.892 1021.61 510.137 1020.51 510.84C1018.19 512.314 1004.73 513.733 1004.73 513.733L1003.86 508.767C1003.86 508.767 1008.8 507.788 1010.88 507.565C1011.35 507.513 1015.51 505.998 1015.23 505.743C1015.23 505.743 1013.34 499.676 1012.63 498.853C1012.63 498.853 1006.07 488.082 1012.7 487.021C1019.33 485.96 1021.49 505.463 1021.49 505.463Z" fill="#CBCFDE"/>
<path d="M1009.56 490.791C1009.56 490.791 1008.3 497.836 1009.16 501.09C1010.03 504.345 1014.98 508.71 1016.18 509.622C1017.39 510.534 1020.71 517.445 1020.56 519.028C1020.41 520.611 1020.37 522.123 1020.37 522.123C1020.37 522.123 1037.38 526.537 1040.72 521.001C1040.72 521.001 1038.44 507.206 1033.25 498.378C1032.12 496.449 1029.71 492.873 1027.16 490.612C1024.61 488.35 1013.79 484.165 1013.79 484.165L1009.56 490.791Z" fill="#E2581D"/>
<path d="M1010.15 496.556C1010.6 495.654 1011.57 490.502 1015.55 491.399C1019.53 492.296 1019.96 496.972 1018.79 499.919C1017.61 502.866 1016.15 506.751 1015.94 507.393C1015.73 508.035 1010.79 517.781 1010.15 518.341C1009.51 518.901 1002.37 525.331 1001.12 526.039C999.881 526.746 990.854 532.522 990.854 532.522L988.24 528.664C988.24 528.664 1001.83 516.737 1002.93 515.839C1004.03 514.941 1005.7 512.774 1005.99 511.354C1006.27 509.934 1009.48 497.897 1010.15 496.556Z" fill="#DBDFF0"/>
<path d="M995.723 480.545C995.723 480.545 996.464 484.286 997.438 484.107C998.242 483.959 999.091 487.524 999.268 488.072C999.445 488.621 1000.82 487.917 1001.27 487.971C1001.72 488.024 1005.05 490.658 1006.07 489.931C1007.08 489.203 1010.05 483.943 1010.19 481.679C1010.33 479.414 1006.75 472.931 1004.07 471.223C1001.4 469.514 994.452 473.988 995.723 480.545Z" fill="#EEA886"/>
<path d="M1006.3 488.752C1006.56 488.678 1006.84 488.652 1007.11 488.676C1007.61 488.733 1008.08 488.905 1008.49 489.178C1008.95 489.468 1009.36 489.825 1009.7 490.237C1009.7 490.237 1015.33 484.711 1013.62 484.104C1011.9 483.497 1010.33 480.467 1010.33 480.467C1010.33 480.467 1004.48 489.265 1006.3 488.752Z" fill="#EEA886"/>
<path d="M1009.56 490.796L1009.12 489.807L1012.83 483.459L1014.79 484.519C1014.79 484.519 1011.28 489.679 1009.56 490.796Z" fill="#C5C9D9"/>
<path d="M1015.44 509.055C1015.65 509.27 1015.85 509.453 1016.02 509.615C1016.5 510.064 1016.79 510.319 1016.79 510.319C1016.79 510.319 1024.26 507.999 1024.07 501.093C1023.88 494.187 1017.93 490.184 1013.2 490.792C1008.48 491.4 1009.42 497.278 1009.42 497.278C1009.64 503.632 1012.99 506.652 1015.44 509.055Z" fill="#DBDFF0"/>
<path d="M1009.21 493.138C1009.21 493.138 1009.43 490.088 1014.14 489.434C1018.86 488.779 1023.05 493.243 1023.05 493.243L1027.16 490.611C1027.16 490.611 1024.5 488.059 1019.36 486.167C1014.86 484.509 1014.79 484.514 1014.79 484.514L1009.56 490.79C1009.56 490.79 1009.21 492.445 1009.21 493.138Z" fill="#DBDFF0"/>
<path d="M1015.25 508.882C1015.46 509.097 1016.28 509.864 1016.45 510.026C1016.45 510.026 1017.18 506.46 1018 502.385C1017.95 502.525 1015.5 508.45 1015.25 508.882Z" fill="#BABECC"/>
<path d="M1024.57 539.982C1030 537.175 1035.05 530.28 1035.13 530.171C1032.81 532.517 1025.79 536.601 1025.68 536.667C1025.52 537.115 1025.11 538.287 1024.66 539.702C1024.64 539.796 1024.61 539.888 1024.57 539.982Z" fill="#CC5C1F"/>
<path d="M995.866 481.325C995.866 481.325 992.835 480.128 993.631 475.899C994.427 471.671 1001.06 470.686 1001.96 470.609C1002.64 470.551 1005.64 470.09 1008.36 475.237C1011.7 481.576 1009.99 480.81 1009.99 480.81C1009.99 480.81 1008.02 478.248 1006.92 478.835C1005.73 479.471 1003.9 480.691 1003.9 480.691C1003.9 480.691 1002.83 477.517 1001.21 478.37C999.596 479.223 996.805 479.584 995.866 481.325Z" fill="#163342"/>
<path d="M1093.09 584.477H1058.38V554.568H1091.15C1091.66 554.568 1092.15 554.773 1092.52 555.136C1092.88 555.5 1093.09 555.994 1093.09 556.508V584.479V584.477Z" fill="#FAB546"/>
<path d="M1093.09 584.479H1101.87V557.925H1093.09V584.479Z" fill="#E6A640"/>
<path d="M1080.95 555.056H1062.32V543.267H1077.84C1078.67 543.267 1079.46 543.594 1080.04 544.176C1080.62 544.757 1080.95 545.546 1080.95 546.369V555.056Z" fill="#E8A841"/>
<path d="M1059 584.475H1104.74C1105.48 584.475 1106.08 583.848 1106.08 583.074C1106.08 582.302 1105.48 581.675 1104.74 581.675H1059C1058.27 581.675 1057.67 582.302 1057.67 583.074C1057.67 583.848 1058.27 584.475 1059 584.475Z" fill="#385369"/>
<path d="M1096.59 581.753C1096.59 585.882 1099.77 589.231 1103.7 589.231C1107.62 589.231 1110.81 585.882 1110.81 581.753C1110.81 577.624 1107.63 574.276 1103.7 574.276C1099.77 574.276 1096.59 577.629 1096.59 581.753Z" fill="#385369"/>
<path d="M1058.38 582.871H1059.75V556.388H1058.38V582.871Z" fill="#385369"/>
<path d="M1082.3 579.119H1089.77C1090.01 579.119 1090.2 578.927 1090.2 578.69V577.152C1090.2 576.915 1090.01 576.723 1089.77 576.723H1082.3C1082.07 576.723 1081.87 576.915 1081.87 577.152V578.69C1081.87 578.927 1082.07 579.119 1082.3 579.119Z" fill="#E3A440"/>
<path d="M1003.55 478.787L1008.96 476.42C1008.96 476.42 1009.64 477.525 1009.68 477.97L1004.21 480.97L1003.55 478.787Z" fill="#DBDFF0"/>
<path d="M1004.44 478.618C1004.29 478.182 1003.63 476.913 1005.46 476.721C1007.29 476.529 1007.46 480.38 1007.28 480.593C1007.11 480.806 1005.66 482.286 1004.44 478.618Z" fill="#EEA886"/>
<path d="M992.618 477.977C992.618 477.977 994.251 483.104 1002.87 493.51L1005.62 492.196C1005.62 492.196 1004.95 487.881 1006.17 485.478C1007.39 483.076 1001.94 472.038 1000.86 471.72C999.775 471.403 993.974 473.526 992.618 477.977Z" fill="#6E7078"/>
<path d="M997.162 487.431L998.659 486.394L994.517 479.772L993.02 480.808L997.162 487.431Z" fill="#D99D3D"/>
<path d="M994.743 475.711L992.348 477.58C992.348 477.58 996.647 486.898 1002.87 493.511L994.743 475.711Z" fill="#6E7078"/>
<path d="M990.1 497.501H991.285V495.057H990.1V497.501Z" fill="#385369"/>
<path d="M1007.11 488.664C1007.61 488.721 1008.08 488.894 1008.5 489.167C1009.04 487.549 1009.38 485.868 1009.5 484.165C1009.05 485.417 1007.11 488.664 1007.11 488.664Z" fill="#C78D71"/>
<path d="M1059.75 558.023H1051.71C1051.61 558.023 1051.51 557.981 1051.43 557.906C1051.36 557.831 1051.31 557.73 1051.31 557.624V556.792C1051.31 556.686 1051.36 556.584 1051.43 556.51C1051.51 556.435 1051.61 556.393 1051.71 556.393H1059.75V558.023Z" fill="#385369"/>
<path d="M984.121 496.716H990.1V495.782H984.121V496.716Z" fill="#FAB546"/>
<path d="M984.855 496.122L987.356 491.411L983.912 495.874L980.988 491.841L983.193 496.392L978.338 499.543L983.868 497.24L984.836 504.879L984.803 497.261L989.682 498.613L984.855 496.122Z" fill="#FAB546"/>
<g filter="url(#filter0_d)">
<path d="M1151.56 140.983C1151.56 160.304 1135.9 175.966 1116.58 175.966C1097.26 175.966 1081.59 160.304 1081.59 140.983C1081.59 121.662 1097.26 106 1116.58 106C1135.9 106 1151.56 121.662 1151.56 140.983Z" fill="white"/>
<path d="M1092.95 148.959C1092.95 163.872 1080.86 175.962 1065.94 175.962C1051.03 175.962 1038.94 163.872 1038.94 148.959C1038.94 134.045 1051.03 121.956 1065.94 121.956C1080.86 121.956 1092.95 134.045 1092.95 148.959Z" fill="white"/>
<path d="M1051.06 158.934C1051.06 168.339 1043.43 175.963 1034.03 175.963C1024.62 175.963 1017 168.339 1017 158.934C1017 149.529 1024.62 141.905 1034.03 141.905C1043.43 141.905 1051.06 149.529 1051.06 158.934Z" fill="white"/>
<path d="M1033.42 150.189H1151.56L1119.34 175.962H1033.42V150.189Z" fill="white"/>
</g>
<g filter="url(#filter1_d)">
<path d="M697.3 293.15C697.3 308.145 685.145 320.3 670.15 320.3C655.155 320.3 643 308.145 643 293.15C643 278.155 655.155 266 670.15 266C685.145 266 697.3 278.155 697.3 293.15Z" fill="white"/>
<path d="M709.461 320.303C721.176 320.303 730.673 310.806 730.673 299.091C730.673 287.375 721.176 277.878 709.461 277.878C697.746 277.878 688.249 287.375 688.249 299.091L670.003 320.303H709.461Z" fill="white"/>
</g>
<g opacity="0.15" filter="url(#filter2_f)">
<path d="M1118.62 374.572C1099.27 338.828 1094.62 334.607 1099.28 323.919C1105.66 309.279 1129.78 301.354 1153.15 306.216C1176.52 311.079 1190.29 326.889 1183.91 341.528C1179.26 352.216 1172.01 353.964 1127.32 376.381C1124.39 377.846 1119.89 376.91 1118.62 374.572ZM1136.78 343.768C1146.52 345.794 1156.57 342.492 1159.23 336.392C1161.89 330.292 1156.15 323.705 1146.41 321.679C1136.67 319.653 1126.62 322.955 1123.97 329.055C1121.31 335.155 1127.05 341.742 1136.78 343.768Z" fill="#404040"/>
</g>
<path d="M1118.28 374.742C1085.04 326.085 1078.87 321.092 1078.87 303.21C1078.87 278.715 1098.54 258.858 1122.8 258.858C1147.06 258.858 1166.73 278.715 1166.73 303.21C1166.73 321.092 1160.56 326.085 1127.31 374.742C1125.13 377.924 1120.46 377.924 1118.28 374.742ZM1122.8 321.689C1132.91 321.689 1141.1 313.416 1141.1 303.21C1141.1 293.004 1132.91 284.73 1122.8 284.73C1112.69 284.73 1104.49 293.004 1104.49 303.21C1104.49 313.416 1112.69 321.689 1122.8 321.689Z" fill="#E2581D"/>
</g>
<defs>
<filter id="filter0_d" x="1017" y="106" width="139.559" height="77.966" filterUnits="userSpaceOnUse" color-interpolation-filters="sRGB">
<feFlood flood-opacity="0" result="BackgroundImageFix"/>
<feColorMatrix in="SourceAlpha" type="matrix" values="0 0 0 0 0 0 0 0 0 0 0 0 0 0 0 0 0 0 127 0"/>
<feOffset dx="4" dy="7"/>
<feGaussianBlur stdDeviation="0.5"/>
<feColorMatrix type="matrix" values="0 0 0 0 0 0 0 0 0 0 0 0 0 0 0 0 0 0 0.15 0"/>
<feBlend mode="normal" in2="BackgroundImageFix" result="effect1_dropShadow"/>
<feBlend mode="normal" in="SourceGraphic" in2="effect1_dropShadow" result="shape"/>
</filter>
<filter id="filter1_d" x="643" y="266" width="92.6734" height="62.3028" filterUnits="userSpaceOnUse" color-interpolation-filters="sRGB">
<feFlood flood-opacity="0" result="BackgroundImageFix"/>
<feColorMatrix in="SourceAlpha" type="matrix" values="0 0 0 0 0 0 0 0 0 0 0 0 0 0 0 0 0 0 127 0"/>
<feOffset dx="4" dy="7"/>
<feGaussianBlur stdDeviation="0.5"/>
<feColorMatrix type="matrix" values="0 0 0 0 0 0 0 0 0 0 0 0 0 0 0 0 0 0 0.15 0"/>
<feBlend mode="normal" in2="BackgroundImageFix" result="effect1_dropShadow"/>
<feBlend mode="normal" in="SourceGraphic" in2="effect1_dropShadow" result="shape"/>
</filter>
<filter id="filter2_f" x="1096.61" y="303.785" width="89.8642" height="74.2983" filterUnits="userSpaceOnUse" color-interpolation-filters="sRGB">
<feFlood flood-opacity="0" result="BackgroundImageFix"/>
<feBlend mode="normal" in="SourceGraphic" in2="BackgroundImageFix" result="shape"/>
<feGaussianBlur stdDeviation="0.5" result="effect1_foregroundBlur"/>
</filter>
<clipPath id="clip0">
<rect width="1920" height="703" fill="white"/>
</clipPath>
</defs>
</svg>
