<svg width="320" height="370" viewBox="0 0 320 370" fill="none" xmlns="http://www.w3.org/2000/svg">
<g clip-path="url(#clip0)">
<rect opacity="0.5" x="-295" width="972" height="356" fill="#4AA29A"/>
<path opacity="0.2" d="M-295 109.634L-294.944 329.009L677 331V113.418L619.381 142.451L514.197 79L361.405 151.205L273.676 119.957L194.152 149.454L165.353 161.871L74.9988 120.21L20.5112 159.158L-23.4509 136.417L-131.162 159.158L-198.48 137.115L-247.664 178.65L-295 109.634Z" fill="#4AA29A"/>
<path opacity="0.2" d="M-295 187.386L-294.979 326.592L677 327V188.533L620.02 219.235L484.596 187.524L396.637 192.319L209.726 186L115.177 246.439L16.2245 244.464L-79.9568 190.855L-174.409 226.161L-219.534 206.152L-260.555 237.209L-295 187.386Z" fill="#4AA29A"/>
<path d="M37.9408 296.102C35.8645 296.102 33.8733 296.901 32.4052 298.325C30.9371 299.749 30.1123 301.68 30.1123 303.694C30.1123 305.708 30.9371 307.639 32.4052 309.063C33.8733 310.486 35.8645 311.286 37.9408 311.286H689.162C690.927 306.299 692.616 301.238 694.189 296.102H37.9408Z" fill="#3C3C3B"/>
<path d="M-296.275 309.768C-299.385 309.768 -302.367 312.94 -304.566 318.588C-306.765 324.236 -308 331.896 -308 339.884C-308 347.871 -306.765 355.531 -304.566 361.179C-302.367 366.827 -299.385 370 -296.275 370H679.068C681.711 350.218 684.24 330.14 686.597 309.768H-296.275Z" fill="#4AA29A"/>
<path d="M53.9251 296.209C53.9251 296.209 54.303 297.203 54.6215 297.597C54.94 297.991 56.1604 298.695 56.1672 299.864C56.174 301.133 54.1102 300.781 53.3031 300.734C52.496 300.687 52.4347 300.011 52.0949 299.293C51.7551 298.574 51.4144 298.696 51.3486 298.117C51.2828 297.537 51.609 296.241 51.609 296.241L53.9251 296.209Z" fill="#163342"/>
<path d="M53.9597 295.839L53.8971 296.491C53.8971 296.491 52.8083 296.937 51.6087 296.491L51.616 295.67L53.9597 295.839Z" fill="#2F6B8C"/>
<path d="M41.7524 296.209C41.7524 296.209 41.374 297.203 41.0555 297.597C40.737 297.991 39.5166 298.695 39.5102 299.864C39.503 301.133 41.5668 300.781 42.3739 300.734C43.181 300.687 43.2423 300.011 43.5821 299.293C43.9219 298.574 44.2626 298.696 44.3284 298.117C44.3942 297.537 44.068 296.241 44.068 296.241L41.7524 296.209Z" fill="#163342"/>
<path d="M41.7161 295.839L41.7783 296.491C41.7783 296.491 42.8671 296.937 44.0671 296.491L44.0599 295.67L41.7161 295.839Z" fill="#2F6B8C"/>
<path d="M40.0043 279.576C40.0043 281.14 40.8772 295.863 40.8772 295.863C41.0205 296.384 44.1778 296.216 44.6559 295.956C45.1341 295.696 44.3787 281.183 44.4668 279.607C44.5548 278.03 46.742 266.286 47.1621 266.338C47.5822 266.39 48.9746 279.391 49.309 280.588C49.6433 281.785 51.1614 296 51.1614 296C52.2126 296.678 54.7124 295.83 54.7124 295.83C54.7124 295.83 54.1884 281.237 54.1285 280.797C54.0378 280.145 54.1326 278.385 53.8894 274.487C53.6716 270.998 52.8859 263.402 52.3877 259.289C52.3696 259.141 52.3528 259.002 52.336 258.867C52.2384 258.066 52.1654 257.478 52.1305 257.194L52.1069 257.007C51.9726 256.939 51.8322 256.877 51.6858 256.82C48.1852 255.449 41.4325 256.9 41.4325 256.9C41.4325 256.9 41.4289 256.936 41.4211 257.004C41.4121 257.087 41.398 257.216 41.3799 257.384C41.3413 257.748 41.2832 258.287 41.2165 258.914V258.928C41.2165 258.947 41.2124 258.966 41.2106 258.985C40.9752 261.216 40.6422 264.482 40.6735 264.822C40.7211 265.348 40.0043 278.013 40.0043 279.576Z" fill="#385369"/>
<path d="M44.9775 294.36L44.782 296.378C44.782 296.378 44.6123 296.663 42.8134 296.72C41.0146 296.777 40.7265 296.08 40.7265 296.08L40.6484 294.259C40.6484 294.259 42.2268 295.085 44.9775 294.36Z" fill="#4F7594"/>
<path d="M50.8494 294.436L51.0309 296.326C51.0309 296.326 51.1897 296.592 52.8733 296.645C54.557 296.698 54.8242 296.046 54.8242 296.046L54.8972 294.343C54.8972 294.343 53.4241 295.116 50.8494 294.436Z" fill="#4F7594"/>
<path d="M60.699 259.514L61.2148 260.804L48.8546 266.671L48.3387 265.382L60.699 259.514ZM49.3377 265.982C49.401 265.952 49.4509 265.896 49.4764 265.827C49.5019 265.757 49.501 265.68 49.4738 265.611C49.4533 265.56 49.4195 265.517 49.3766 265.487C49.3336 265.458 49.2835 265.442 49.2325 265.443C49.1815 265.444 49.1319 265.461 49.09 265.493C49.048 265.524 49.0156 265.568 48.9967 265.62C48.9779 265.671 48.9735 265.728 48.984 265.782C48.9946 265.836 49.0197 265.885 49.0561 265.924C49.0926 265.963 49.1387 265.989 49.1889 265.999C49.239 266.01 49.2908 266.004 49.3377 265.982Z" fill="#FAB546"/>
<path d="M28.6648 243.228C28.6648 243.228 29.2328 243.408 29.4669 243.668C29.701 243.929 29.9011 241.82 29.9011 241.82L28.6648 243.228Z" fill="#EEA886"/>
<path d="M30.1824 242.015C30.1824 242.015 29.8952 240.709 29.8457 240.512C29.7963 240.314 29.3989 239.94 28.9084 239.553C28.418 239.166 27.5968 238.883 27.4993 238.924C27.4017 238.964 27.2856 238.955 27.1336 239.195C27.0395 239.356 26.9848 239.54 26.9748 239.73C26.9748 239.73 26.6599 239.931 26.6763 240.294C26.5899 240.363 26.524 240.458 26.4871 240.567C26.4501 240.676 26.4437 240.795 26.4685 240.908C26.4685 240.908 26.1917 241.114 26.2734 241.407C26.2734 241.407 26.6713 241.782 26.7815 241.968C26.8918 242.153 27.7683 242.874 28.7056 243.423C28.7047 243.423 29.7178 244.074 30.1824 242.015Z" fill="#EEA886"/>
<path d="M28.5793 241.114C28.5793 241.114 28.4432 241.771 28.4886 241.977C28.534 242.183 27.2382 242.139 27.2382 242.139C27.2382 242.139 27.8416 240.953 28.5793 241.114Z" fill="#CF8C6C"/>
<path d="M27.6298 239.024C27.6298 239.024 28.8512 240.038 28.726 240.271C28.6007 240.505 28.4238 240.51 28.4238 240.51L28.7532 241.175C28.7532 241.175 28.7432 241.75 28.172 241.569C28.172 241.569 28.2137 242.107 27.6811 241.862C27.6811 241.862 27.5631 242.23 27.2982 242.163C27.0332 242.097 26.2719 241.41 26.2719 241.41C26.2719 241.41 26.1712 241.186 26.467 240.911C26.467 240.911 26.3686 240.523 26.6748 240.298C26.6748 240.298 26.6408 239.974 26.9733 239.733C26.9733 239.733 26.9488 239.006 27.4978 238.927C27.4978 238.928 27.5786 238.981 27.6298 239.024Z" fill="#DB9C7C"/>
<path d="M28.7395 240.26C28.7395 240.26 29.3551 238.833 29.7789 238.325C29.8746 238.211 29.9014 238.161 30.0347 238.215C30.1681 238.269 30.0729 238.848 29.949 239.328C29.8251 239.807 29.8501 240.536 29.8501 240.536C29.8501 240.536 29.6056 240.94 28.7395 240.26Z" fill="#EEA886"/>
<path d="M30.0718 242.828C30.0718 242.828 29.9284 242.2 29.9593 241.763C29.9901 241.327 28.0338 242.686 28.0338 242.686C28.0338 242.686 28.7234 243.411 29.2515 243.949C29.6725 244.379 30.0718 242.828 30.0718 242.828Z" fill="#EEA886"/>
<path d="M58.9798 262.775C58.9798 262.775 59.0538 262.451 59.0252 262.302C59.0252 262.302 58.9512 262.038 58.9095 261.846C58.8979 261.796 58.8893 261.745 58.8836 261.694C58.8709 261.544 58.8836 261.202 58.7598 260.865C58.6359 260.528 57.7208 259.28 57.7208 259.28L56.8815 259.723L56.0567 260.026C56.0567 260.026 55.6665 262.385 55.7477 262.72C55.7553 262.751 55.7647 262.782 55.7758 262.813C55.8716 263.085 56.0549 263.227 56.1207 263.361C56.1452 263.41 56.4224 263.875 56.5839 263.878C56.6778 263.884 56.7717 263.866 56.8583 263.826C56.9448 263.786 57.0217 263.724 57.0829 263.647C57.0829 263.647 57.5253 263.635 57.778 263.423C57.778 263.423 58.1863 263.426 58.4417 263.075C58.444 263.078 58.8637 263.03 58.9798 262.775Z" fill="#EEA886"/>
<path d="M28.7488 243.539C28.7488 243.539 32.6051 250.472 33.9839 250.101C34.6222 249.931 36.7378 248.152 37.5363 247.023C37.7999 246.651 38.058 246.26 38.3039 245.874C39.2839 244.331 40.052 242.851 40.052 242.851C40.052 242.851 42.9492 239.146 40.625 237.497C40.625 237.497 39.5098 237.416 38.7349 238.322C37.96 239.228 37.3217 240.858 37.1184 241.341C36.9152 241.825 34.233 245.308 34.0855 245.409C33.9381 245.51 32.925 244.912 32.2576 244.099C31.2749 242.902 30.2065 241.286 30.2065 241.286L28.7488 243.539Z" fill="#E2581D"/>
<path d="M43.9467 235.63C43.9467 235.63 43.3378 235.772 45.8866 238.436C45.8866 238.436 47.6946 236.255 47.6361 235.89C47.5775 235.525 43.9467 235.63 43.9467 235.63Z" fill="#EEA987"/>
<path d="M41.2568 258.562C41.2568 258.562 41.4432 253.237 41.382 251.77C41.2912 249.618 40.9346 247.678 40.6438 246.405C40.6434 246.402 40.6426 246.399 40.6416 246.397L40.6384 246.384C40.5626 246.053 40.4918 245.767 40.431 245.536L38.6816 238.391C39.9093 236.885 43.9898 235.616 43.9898 235.616H46.8784C46.8784 235.616 51.9448 237.319 53.1874 237.84C54.4301 238.362 57.238 248.619 57.2783 249.207C57.3237 249.847 58.4856 259.826 58.4856 259.826C56.9766 259.942 55.6727 260.079 55.6727 260.079C55.6727 260.079 54.5244 251.83 54.3679 250.976C54.2513 250.339 52.5355 245.153 52.4084 245.223C52.2814 245.292 51.4067 250.588 52.285 258.445C52.2841 258.446 48.7739 259.884 41.2568 258.562Z" fill="#E2581D"/>
<path d="M45.3006 225.384C45.3006 225.384 42.6007 225.847 43.0118 230.453C43.4228 235.059 45.8056 234.683 45.9648 234.678C46.1241 234.673 48.3571 234.762 48.5313 229.137C48.5313 229.138 48.6071 224.979 45.3006 225.384Z" fill="#EEA987"/>
<path d="M44.0405 233.328C44.0405 233.328 44.1144 235.222 43.9461 235.632C43.7778 236.042 46.1742 237.36 47.6355 235.892C47.6355 235.892 47.2825 233.833 47.381 233.103C47.4794 232.373 44.0405 233.328 44.0405 233.328Z" fill="#EEA987"/>
<path d="M42.9694 229.156C42.9694 229.156 42.6736 228.811 42.5651 229.16C42.4567 229.509 43.0238 231.066 42.9866 231.136C42.9866 231.136 43.0411 231.272 43.1118 231.197C43.1826 231.123 42.9694 229.156 42.9694 229.156Z" fill="#EEA987"/>
<path d="M48.4998 229.097C48.4998 229.097 48.7893 228.746 48.9041 229.092C49.0189 229.438 48.572 230.982 48.5175 231.077C48.5175 231.077 48.4232 231.235 48.351 231.162C48.2789 231.089 48.4998 229.097 48.4998 229.097Z" fill="#EEA987"/>
<path d="M42.8019 228.766C42.8881 229.397 42.9716 229.866 42.9716 229.866L43.3577 230.429C43.3577 230.429 43.3472 229.193 43.4089 229.001C43.4325 228.928 43.4607 228.798 43.4892 228.657C43.5346 228.425 43.5854 228.165 43.6176 228.075C43.6698 227.936 45.936 227.243 47.9381 228.277C47.9381 228.277 47.9195 228.467 47.9186 228.68C47.9186 228.926 47.9386 229.202 48.042 229.245C48.2344 229.324 48.14 230.692 48.14 230.692L48.4576 230.298C48.4576 230.298 48.5556 229.585 48.6531 228.764C48.6532 228.762 48.6532 228.76 48.6531 228.758C48.6749 228.567 48.6985 228.37 48.7194 228.175C48.7724 227.349 48.7126 225.847 47.7344 224.954C47.0716 224.635 45.9913 224.542 44.2129 225.113C44.0474 225.079 43.8789 225.066 43.7106 225.072C42.595 226.385 42.8019 228.766 42.8019 228.766Z" fill="#385369"/>
<path d="M47.1851 234.082C47.1851 234.082 46.7482 234.728 45.7491 234.691C44.7501 234.655 44.3218 234.082 44.3218 234.082C44.3218 234.082 44.7841 235.164 45.7491 235.164C46.7141 235.164 47.1851 234.082 47.1851 234.082Z" fill="#A77860"/>
<path d="M42.8006 228.762C42.8006 228.762 43.0361 228.708 43.488 228.652C44.3014 228.554 45.8158 228.456 47.9173 228.675C48.1544 228.7 48.3993 228.729 48.6518 228.762C48.6519 228.76 48.6519 228.758 48.6518 228.756C48.6848 228.564 48.7073 228.37 48.719 228.175C48.7721 227.349 48.8655 225.835 47.8874 224.941C47.4713 224.557 46.7377 224.244 45.9247 224.238C44.5482 224.227 43.9788 224.598 43.5111 225.148C42.3946 226.46 42.8006 228.762 42.8006 228.762Z" fill="#FAB546"/>
<path d="M42.8021 228.764C42.8021 228.764 43.8624 229.256 45.7402 229.245C47.618 229.234 48.6533 228.764 48.6533 228.764C48.6533 228.764 47.5731 228.36 45.6785 228.36C43.7839 228.36 42.8021 228.764 42.8021 228.764Z" fill="#D99D3D"/>
<path d="M40.7349 247.459C40.7349 247.459 42.5111 246.579 43.1531 243.543H49.3904C49.3904 243.543 51.2333 247.636 52.2382 247.865C52.2382 247.865 51.98 252.278 52.0889 253.995C52.1978 255.712 52.3875 259.299 52.3875 259.299C52.3875 259.299 52.0953 261.991 41.121 259.847C41.121 259.847 41.3724 252.645 41.3578 252.34C41.3433 252.036 40.7785 247.638 40.7349 247.459Z" fill="#385369"/>
<path d="M43.1646 243.539C43.1646 243.539 42.402 239.313 40.8218 236.888C40.8218 236.888 40.9992 236.675 41.4148 236.605C41.4148 236.605 43.1783 239.433 43.832 243.539C44.4858 247.645 43.1646 243.539 43.1646 243.539Z" fill="#385369"/>
<path d="M49.3284 243.539C49.3284 243.539 49.8778 239.618 51.4575 237.19C51.4575 237.19 51.2479 237.039 50.8328 236.969C50.8328 236.969 49.3147 239.43 48.6614 243.537C48.0081 247.645 49.3284 243.539 49.3284 243.539Z" fill="#385369"/>
<path d="M44.8347 248.337H46.6391H48.4429L50.1248 250.171V255.755H46.6391H43.1529V250.171L44.8347 248.337Z" fill="#446580"/>
<path d="M159.694 172.295L144.696 175.812L143.548 172.41L158.115 167.617L159.694 172.295Z" fill="#48494F"/>
<path d="M143.582 172.502L140.375 179.185C140.306 179.328 140.296 179.492 140.345 179.643C140.394 179.794 140.5 179.919 140.64 179.994L140.811 180.087C140.944 180.16 141.099 180.182 141.247 180.15C141.395 180.118 141.527 180.034 141.619 179.913L144.693 175.802L143.582 172.502Z" fill="#48494F"/>
<path d="M142.079 223.784C142.079 223.784 143.299 225.128 144.536 225.41C145.773 225.691 146.638 226.05 146.648 226.821C146.657 227.593 143.087 228.101 141.671 227.323C139.558 226.163 139.343 226.513 139.109 225.933C138.875 225.353 139.39 223.802 139.375 223.618C139.356 223.39 142.079 223.784 142.079 223.784Z" fill="#202338"/>
<path d="M129.644 224.14C129.644 224.14 130.541 225.449 131.74 225.751C132.923 226.049 133.689 226.615 133.747 227.367C133.805 228.118 130.959 229.098 128.96 227.783C127.646 226.918 127.156 226.968 126.892 226.418C126.627 225.868 127.03 224.329 127.004 224.15C126.971 223.925 129.644 224.14 129.644 224.14Z" fill="#202338"/>
<path d="M139.539 222.761C139.539 222.761 141.242 223.403 141.924 222.95L142.133 223.842C142.133 223.842 141.585 224.155 140.64 224.039C139.695 223.923 139.372 223.616 139.372 223.616L139.539 222.761Z" fill="#202338"/>
<path d="M127.159 223.085C127.159 223.085 129.117 223.803 129.636 223.237L129.724 224.238C129.724 224.238 129.531 224.551 128.765 224.511C128 224.471 127.004 224.136 127.004 224.136L127.159 223.085Z" fill="#202338"/>
<path d="M139.428 185.462C139.428 185.462 140.667 194.327 141.191 197.627C141.802 201.486 141.91 203.612 142.081 205.61C142.295 208.121 141.791 222.409 141.941 223.144C142.091 223.879 139.538 222.765 139.538 222.765C139.538 222.765 137.309 207.108 136.672 204.432C136.077 201.942 133.869 191.217 133.326 191.899C132.783 192.582 132.111 204.415 131.711 206.379C131.31 208.344 129.609 223.492 129.609 223.492C129.609 223.492 127.908 223.871 127.171 223.256C127.171 223.256 126.244 210.399 126.501 206.715C126.599 205.312 124.833 189.884 127.096 183.673C128.29 180.389 139.428 185.462 139.428 185.462Z" fill="#EEA886"/>
<path d="M139.428 185.463C139.428 185.463 140.667 194.327 141.191 197.627C141.802 201.486 141.91 203.612 142.081 205.61C142.295 208.121 142.843 222.342 142.847 223.092C142.85 223.925 138.873 223.392 138.873 223.392C138.873 223.392 137.31 207.108 136.67 204.433C136.077 201.942 133.869 191.217 133.326 191.9C132.783 192.582 132.111 204.415 131.711 206.379C131.31 208.344 130.438 224.044 130.438 224.044C130.438 224.044 127.23 224.034 126.493 223.419C126.493 223.419 126.244 210.399 126.501 206.715C126.599 205.311 124.833 189.884 127.096 183.673C128.29 180.389 139.428 185.463 139.428 185.463Z" fill="#385369"/>
<path d="M150.033 167.612C150.033 167.612 151.053 166.329 151.179 166.149C151.306 165.969 151.878 165.746 152.56 165.546C153.241 165.346 154.253 165.376 154.347 165.454C154.441 165.532 154.573 165.567 154.655 165.867C154.703 166.064 154.698 166.27 154.641 166.465C154.641 166.465 154.919 166.788 154.771 167.146C154.843 167.247 154.882 167.368 154.884 167.492C154.887 167.616 154.851 167.738 154.784 167.842C154.784 167.842 155.017 168.154 154.822 168.418C154.822 168.418 154.248 168.643 154.059 168.786C153.869 168.93 152.619 169.193 151.383 169.386C151.382 169.386 149.814 169.858 150.033 167.612Z" fill="#EEA886"/>
<path d="M151.219 169.872C151.219 169.872 145.964 171.917 145.051 172.201C144.349 172.419 143.456 173.061 141.82 172.09C141.06 171.638 140.054 170.717 139.119 169.768C138.903 169.548 138.691 169.327 138.487 169.111C137.425 167.982 136.572 166.958 136.476 166.795C136.281 166.466 132.444 163.734 135.11 161.894C135.709 161.482 138.014 160.488 139.326 161.894C140.478 163.127 140.993 165.451 141.289 165.966C141.584 166.481 143.048 169.203 143.048 169.203C143.129 169.4 145.061 168.826 145.322 168.748C146.088 168.521 150.059 167.451 150.059 167.451L151.219 169.872Z" fill="#E2581D"/>
<path d="M131.098 156.335C131.424 157.028 131.826 157.684 132.296 158.289C133.857 160.269 137.493 160.315 137.546 154.892C137.556 153.865 137.427 153.032 137.218 152.356C136.474 149.949 134.723 149.549 134.723 149.549C133.43 149.478 131.169 149.794 130.416 151.455C129.883 152.636 130.269 154.592 131.098 156.335Z" fill="#EEA987"/>
<path d="M131.098 156.335C131.098 156.335 131.284 156.384 131.956 155.045C132.09 154.777 132.194 154.968 132.252 154.85L133.322 154.438C133.322 154.438 132.264 152.691 133.648 152.206C135.059 151.712 137.217 152.354 137.217 152.354C136.474 149.949 134.723 149.549 134.723 149.549C133.431 149.478 131.17 149.794 130.416 151.455C129.883 152.636 130.27 154.592 131.098 156.335Z" fill="#665249"/>
<path d="M132.472 154.036C132.392 153.671 131.666 153.362 131.359 154.14C131.052 154.919 132.082 155.746 132.353 155.576C132.625 155.405 132.603 154.638 132.472 154.036Z" fill="#EEA987"/>
<path d="M130.189 154.1C130.189 154.1 133.628 151.752 137.636 152.589C137.636 152.589 137.398 147.639 132.833 148.487C128.543 149.284 130.041 153.541 130.189 154.1Z" fill="#E2581D"/>
<path d="M132.399 153.038C132.399 153.038 135.814 153.643 137.997 153.195C140.18 152.746 137.575 152.081 137.575 152.081C137.575 152.081 135.754 151.514 132.399 153.038Z" fill="#E2581D"/>
<path d="M135.066 160.412C135.066 160.412 138.125 161.033 138.522 161.38C138.952 161.749 139.813 165.486 139.858 166.494C139.904 167.501 139.641 171.652 139.21 173.222C138.779 174.793 138.421 181.365 138.694 183.54C138.694 183.54 133.177 185.082 126.553 184.231C126.553 184.231 127.166 177.26 126.901 175.112C126.562 172.361 125.459 166.358 125.459 166.358C125.459 166.358 125.542 162.198 126.132 161.705C126.721 161.212 131.29 160.413 131.29 160.413L135.066 160.412Z" fill="#E2581D"/>
<path d="M135.751 161.109C135.751 161.109 134.813 161.805 131.673 160.439C131.673 160.439 132.029 158.651 131.412 156.665C130.796 154.68 135.417 158.836 135.417 158.836C135.365 158.87 135.356 159.069 135.385 159.346L135.392 159.398C135.419 159.626 135.461 159.852 135.518 160.075C135.525 160.105 135.533 160.135 135.541 160.165C135.717 160.83 135.751 160.53 135.751 161.109Z" fill="#EEA886"/>
<path d="M135.518 160.075C133.269 160.36 132.041 157.967 132.006 157.896C133.546 160.113 135.393 159.398 135.393 159.398C135.42 159.626 135.462 159.852 135.518 160.075Z" fill="#A77860"/>
<path d="M135.736 160.559C135.736 160.559 136.456 161.615 135.453 161.795C134.45 161.974 132.405 161.755 131.289 160.415C131.289 160.415 134.258 159.963 135.736 160.559Z" fill="#EEA886"/>
<path d="M139.39 172.363L137.338 167.741H132.004C132.004 167.741 129.564 172.311 126.726 173.834C126.726 173.834 126.431 184.482 126.239 187.716C126.239 187.716 128.798 188.196 133.004 188.26C137.21 188.323 139.974 189.337 139.974 189.337C139.974 189.337 138.959 182.22 138.941 181.402C138.922 180.584 139.172 173.997 139.39 172.363Z" fill="#385369"/>
<path d="M131.552 168.526C131.552 168.526 131.799 163.125 128.88 160.887C129.168 160.773 129.474 160.709 129.784 160.7C129.784 160.7 132.16 161.638 132.829 167.744C133.498 173.85 131.552 168.526 131.552 168.526Z" fill="#385369"/>
<path d="M137.099 167.74C137.099 167.74 137.66 163.366 136.503 160.731C136.503 160.731 137.024 160.855 137.321 160.939C137.321 160.939 138.519 162.494 137.936 169.09C137.354 175.687 137.099 167.74 137.099 167.74Z" fill="#385369"/>
<path d="M126.133 161.706C126.133 161.706 124.955 162.474 125.057 163.913C125.159 165.352 126.021 169.521 126.021 169.521L126.133 161.706Z" fill="#E2581D"/>
<path d="M154.441 168.896L153.312 169.268L151.9 165.082L153.028 164.711L154.441 168.896Z" fill="#202338"/>
<path d="M153.293 165.092L151.917 165.545L151.777 165.131L153.154 164.678L153.293 165.092Z" fill="#202338"/>
<path d="M151.356 169.841L152.668 173.943L159.694 172.295L158.115 167.617L151.356 169.841Z" fill="#CC8A23"/>
<path d="M157.38 173.572C159.388 175.228 162.376 174.963 164.053 172.979C164.451 172.51 164.752 171.965 164.938 171.378C165.124 170.791 165.191 170.172 165.135 169.559C165.079 168.945 164.902 168.349 164.613 167.805C164.324 167.261 163.93 166.78 163.453 166.39C161.445 164.734 158.457 164.999 156.779 166.982C156.381 167.452 156.08 167.996 155.894 168.584C155.708 169.171 155.642 169.789 155.697 170.403C155.753 171.016 155.931 171.612 156.22 172.157C156.508 172.701 156.903 173.182 157.38 173.572Z" fill="#E2E6F7"/>
<path d="M158.247 172.549C158.939 173.117 159.825 173.391 160.717 173.312C161.608 173.233 162.433 172.807 163.014 172.126C163.298 171.79 163.513 171.401 163.646 170.982C163.778 170.562 163.826 170.121 163.786 169.682C163.747 169.244 163.62 168.818 163.414 168.43C163.207 168.041 162.926 167.697 162.585 167.419C161.894 166.85 161.007 166.576 160.115 166.655C159.224 166.735 158.399 167.161 157.818 167.842C157.534 168.177 157.319 168.566 157.186 168.986C157.054 169.405 157.006 169.847 157.046 170.285C157.086 170.723 157.213 171.149 157.419 171.538C157.625 171.926 157.907 172.27 158.247 172.549Z" fill="#BDC0CF"/>
<path d="M157.293 173.936L163.8 166.241C161.58 164.41 158.323 164.649 156.526 166.774C154.729 168.899 155.073 172.106 157.293 173.936Z" fill="#FAB546"/>
<path d="M159.192 171.654L162.054 168.269C161.078 167.464 159.645 167.569 158.855 168.504C158.065 169.438 158.216 170.849 159.192 171.654Z" fill="#E09E34"/>
<path d="M153.389 169.576L153.511 169.937L152.136 170.39L152.013 170.029L153.389 169.576Z" fill="#48494F"/>
<path d="M153.587 170.154L153.709 170.515L152.334 170.968L152.211 170.606L153.587 170.154Z" fill="#48494F"/>
<path d="M154.164 165.498C154.164 165.498 152.45 166.046 152.505 166.331C152.56 166.616 152.755 166.686 152.755 166.686L152.153 167.228C152.153 167.228 151.96 167.809 152.657 167.847C152.657 167.847 152.42 168.371 153.098 168.329C153.098 168.329 153.098 168.746 153.414 168.779C153.731 168.813 154.821 168.415 154.821 168.415C154.821 168.415 155.013 168.229 154.783 167.839C154.783 167.839 155.03 167.488 154.771 167.143C154.771 167.143 154.924 166.83 154.641 166.462C154.641 166.462 154.928 165.74 154.347 165.451C154.346 165.452 154.237 165.474 154.164 165.498Z" fill="#DB9C7C"/>
<path d="M151.23 166.134C151.23 166.134 152.452 166.329 153.071 166.725C153.211 166.814 153.332 166.926 153.299 167.089C153.267 167.253 152.99 167.413 152.457 167.355C151.924 167.297 151.206 167.464 151.206 167.464C151.206 167.464 150.677 167.245 151.23 166.134Z" fill="#EEA886"/>
<path d="M139.652 170.296C139.652 170.296 139.873 167.378 139.861 166.889C140.162 168.23 140.334 169.598 140.374 170.972L139.652 170.296Z" fill="#CF5D20"/>
<path d="M131.887 179.522C131.887 179.522 135.426 179.871 137.931 179.359L138.223 173.011L137.121 171.987H133.412L131.369 173.21L131.887 179.522Z" fill="#456682"/>
<path d="M143.037 179.706C143.037 179.706 142.657 179.751 142.481 179.691C142.481 179.691 142.169 179.556 141.944 179.474C141.886 179.452 141.826 179.433 141.766 179.418C141.589 179.379 141.189 179.345 140.791 179.134C140.393 178.923 138.915 177.576 138.915 177.576L139.425 176.579L139.768 175.579C139.768 175.579 142.533 175.446 142.927 175.6C142.964 175.615 143.001 175.632 143.037 175.652C143.357 175.814 143.527 176.069 143.685 176.173C143.743 176.212 144.293 176.634 144.299 176.84C144.308 177.125 144.195 177.327 144.035 177.439C144.035 177.439 144.028 177.998 143.782 178.287C143.782 178.287 143.793 178.803 143.383 179.075C143.382 179.073 143.333 179.598 143.037 179.706Z" fill="#EEA886"/>
<path d="M126.639 161.516C127.399 161.398 129.83 162.264 129.807 164.152C129.788 165.724 130.131 166.914 130.172 167.535C130.213 168.156 130.823 172.277 131.25 172.607C131.791 173.024 134.616 173.903 134.879 174.02C135.786 174.425 140.122 175.521 140.122 175.521L139.802 178.776C139.802 178.776 130.275 176.507 129.24 175.955C128.558 175.59 127.508 175.079 126.967 173.17C126.416 171.229 125.205 167.497 125.174 167.097C125.143 166.696 123.254 162.042 126.639 161.516Z" fill="#E2581D"/>
<path d="M323.972 185.7H109.257C105.03 185.7 101.294 188.181 95.8759 196.829L57.6259 253.943C42.5478 277.964 57.8543 282.794 62.0808 282.794H333.372C335.66 271.79 336.814 260.581 336.815 249.341C336.854 227.48 332.487 205.835 323.972 185.7V185.7Z" fill="white"/>
<path opacity="0.1" d="M336.815 249.342H60.7103L57.6261 253.879C56.0108 256.404 54.6028 259.056 53.416 261.809H336.342C336.652 257.681 336.815 253.487 336.815 249.342Z" fill="black"/>
<path opacity="0.1" d="M51.197 269.887H335.526C335.706 268.468 335.853 267.064 335.999 265.645H52.0293C51.6183 267.029 51.3397 268.45 51.197 269.887Z" fill="black"/>
<path d="M134.338 284.913C134.338 285.475 134.114 286.015 133.717 286.413C133.319 286.811 132.779 287.034 132.216 287.034H76.8487C76.286 287.034 75.7465 286.811 75.3486 286.413C74.9508 286.015 74.7273 285.475 74.7273 284.913C74.7273 284.35 74.9508 283.811 75.3486 283.413C75.7465 283.015 76.286 282.792 76.8487 282.792H132.216C132.779 282.792 133.319 283.015 133.717 283.413C134.114 283.811 134.338 284.35 134.338 284.913Z" fill="#DADADA"/>
<path d="M92.236 289.372C92.236 290.663 91.8532 291.925 91.1359 292.998C90.4187 294.072 89.3993 294.908 88.2066 295.402C87.0139 295.896 85.7015 296.026 84.4353 295.774C83.1691 295.522 82.0061 294.9 81.0932 293.988C80.1803 293.075 79.5587 291.912 79.3068 290.645C79.055 289.379 79.1842 288.067 79.6783 286.874C80.1723 285.681 81.0089 284.662 82.0823 283.945C83.1557 283.228 84.4177 282.845 85.7087 282.845C87.4398 282.845 89.1001 283.532 90.3242 284.757C91.5483 285.981 92.236 287.641 92.236 289.372Z" fill="#273438"/>
<path d="M87.9939 289.373C87.9939 289.834 87.8571 290.285 87.6007 290.669C87.3442 291.053 86.9798 291.352 86.5534 291.528C86.127 291.705 85.6578 291.751 85.2052 291.661C84.7525 291.571 84.3367 291.349 84.0104 291.023C83.684 290.696 83.4618 290.28 83.3717 289.828C83.2817 289.375 83.3279 288.906 83.5045 288.48C83.6812 288.053 83.9802 287.689 84.364 287.432C84.7477 287.176 85.1989 287.039 85.6604 287.039C86.2793 287.039 86.8728 287.285 87.3105 287.723C87.7481 288.16 87.9939 288.754 87.9939 289.373Z" fill="#CBD6D8"/>
<path d="M129.246 289.372C129.246 290.663 128.863 291.925 128.146 292.998C127.429 294.072 126.41 294.908 125.217 295.402C124.024 295.896 122.712 296.026 121.446 295.774C120.179 295.522 119.016 294.9 118.103 293.988C117.191 293.075 116.569 291.912 116.317 290.645C116.065 289.379 116.194 288.067 116.689 286.874C117.183 285.681 118.019 284.662 119.093 283.945C120.166 283.228 121.428 282.845 122.719 282.845C124.45 282.845 126.11 283.532 127.334 284.757C128.559 285.981 129.246 287.641 129.246 289.372Z" fill="#273438"/>
<path d="M124.971 289.367C124.971 289.832 124.832 290.286 124.572 290.671C124.312 291.056 123.942 291.355 123.511 291.529C123.08 291.703 122.607 291.744 122.152 291.648C121.697 291.551 121.282 291.32 120.959 290.986C120.636 290.651 120.42 290.228 120.34 289.77C120.259 289.312 120.317 288.84 120.506 288.416C120.696 287.991 121.007 287.632 121.402 287.386C121.796 287.14 122.255 287.017 122.72 287.033C123.324 287.054 123.897 287.309 124.317 287.745C124.737 288.18 124.972 288.762 124.971 289.367Z" fill="#CBD6D8"/>
<path d="M236.326 284.913C236.326 285.475 236.103 286.015 235.705 286.413C235.307 286.811 234.767 287.034 234.205 287.034H178.837C178.274 287.034 177.735 286.811 177.337 286.413C176.939 286.015 176.716 285.475 176.716 284.913C176.716 284.35 176.939 283.811 177.337 283.413C177.735 283.015 178.274 282.792 178.837 282.792H234.205C234.767 282.792 235.307 283.015 235.705 283.413C236.103 283.811 236.326 284.35 236.326 284.913Z" fill="#DADADA"/>
<path d="M194.226 289.372C194.226 290.663 193.843 291.925 193.126 292.998C192.409 294.072 191.39 294.908 190.197 295.402C189.004 295.896 187.692 296.026 186.426 295.774C185.159 295.522 183.996 294.9 183.083 293.988C182.171 293.075 181.549 291.912 181.297 290.645C181.045 289.379 181.174 288.067 181.668 286.874C182.163 285.681 182.999 284.662 184.073 283.945C185.146 283.228 186.408 282.845 187.699 282.845C189.43 282.845 191.09 283.532 192.314 284.757C193.539 285.981 194.226 287.641 194.226 289.372Z" fill="#273438"/>
<path d="M189.982 289.373C189.982 289.834 189.845 290.285 189.589 290.669C189.333 291.053 188.968 291.352 188.542 291.528C188.115 291.705 187.646 291.751 187.193 291.661C186.741 291.571 186.325 291.349 185.999 291.023C185.672 290.696 185.45 290.28 185.36 289.828C185.27 289.375 185.316 288.906 185.493 288.48C185.669 288.053 185.969 287.689 186.352 287.432C186.736 287.176 187.187 287.039 187.649 287.039C187.955 287.039 188.259 287.099 188.542 287.217C188.825 287.334 189.082 287.506 189.299 287.723C189.515 287.939 189.687 288.196 189.805 288.48C189.922 288.763 189.982 289.066 189.982 289.373Z" fill="#CBD6D8"/>
<path d="M231.188 289.372C231.188 290.663 230.805 291.925 230.088 292.998C229.37 294.072 228.351 294.908 227.158 295.402C225.966 295.896 224.653 296.026 223.387 295.774C222.121 295.522 220.958 294.9 220.045 293.988C219.132 293.075 218.51 291.912 218.258 290.645C218.007 289.379 218.136 288.067 218.63 286.874C219.124 285.681 219.961 284.662 221.034 283.945C222.107 283.228 223.369 282.845 224.66 282.845C226.392 282.845 228.052 283.532 229.276 284.757C230.5 285.981 231.188 287.641 231.188 289.372Z" fill="#273438"/>
<path d="M226.96 289.373C226.96 289.834 226.823 290.285 226.567 290.669C226.311 291.053 225.946 291.352 225.52 291.528C225.093 291.705 224.624 291.751 224.171 291.661C223.719 291.571 223.303 291.349 222.977 291.023C222.65 290.696 222.428 290.28 222.338 289.828C222.248 289.375 222.294 288.906 222.471 288.48C222.647 288.053 222.947 287.689 223.33 287.432C223.714 287.176 224.165 287.039 224.627 287.039C225.246 287.039 225.839 287.285 226.277 287.723C226.714 288.16 226.96 288.754 226.96 289.373Z" fill="#CBD6D8"/>
<path d="M331.935 284.913C331.935 285.191 331.88 285.467 331.773 285.725C331.667 285.982 331.511 286.216 331.314 286.413C331.117 286.61 330.883 286.766 330.625 286.873C330.368 286.979 330.092 287.034 329.814 287.034H274.478C273.919 287.03 273.383 286.805 272.989 286.407C272.595 286.01 272.373 285.473 272.373 284.913C272.373 284.353 272.595 283.816 272.989 283.419C273.383 283.021 273.919 282.796 274.478 282.792H329.846C330.409 282.792 330.948 283.015 331.346 283.413C331.744 283.811 331.968 284.35 331.968 284.913H331.935Z" fill="#DADADA"/>
<path d="M289.835 289.372C289.835 290.663 289.452 291.925 288.735 292.998C288.018 294.072 286.998 294.908 285.806 295.402C284.613 295.896 283.301 296.026 282.034 295.774C280.768 295.522 279.605 294.9 278.692 293.988C277.779 293.075 277.158 291.912 276.906 290.645C276.654 289.379 276.783 288.067 277.277 286.874C277.771 285.681 278.608 284.662 279.681 283.945C280.755 283.228 282.017 282.845 283.308 282.845C285.039 282.845 286.699 283.532 287.923 284.757C289.147 285.981 289.835 287.641 289.835 289.372Z" fill="#273438"/>
<path d="M285.592 289.373C285.592 289.834 285.455 290.285 285.198 290.669C284.942 291.053 284.577 291.352 284.151 291.528C283.725 291.705 283.255 291.751 282.803 291.661C282.35 291.571 281.934 291.349 281.608 291.023C281.282 290.696 281.059 290.28 280.969 289.828C280.879 289.375 280.926 288.906 281.102 288.48C281.279 288.053 281.578 287.689 281.962 287.432C282.345 287.176 282.797 287.039 283.258 287.039C283.877 287.039 284.47 287.285 284.908 287.723C285.346 288.16 285.592 288.754 285.592 289.373Z" fill="#CBD6D8"/>
<path d="M326.811 289.372C326.811 290.663 326.428 291.925 325.711 292.998C324.994 294.072 323.974 294.908 322.782 295.402C321.589 295.896 320.277 296.026 319.01 295.774C317.744 295.522 316.581 294.9 315.668 293.988C314.756 293.075 314.134 291.912 313.882 290.645C313.63 289.379 313.759 288.067 314.253 286.874C314.747 285.681 315.584 284.662 316.658 283.945C317.731 283.228 318.993 282.845 320.284 282.845C322.015 282.845 323.675 283.532 324.899 284.757C326.123 285.981 326.811 287.641 326.811 289.372Z" fill="#273438"/>
<path d="M322.569 289.366C322.569 289.825 322.434 290.273 322.18 290.656C321.926 291.038 321.566 291.337 321.143 291.515C320.72 291.693 320.255 291.743 319.804 291.658C319.353 291.574 318.937 291.358 318.608 291.038C318.28 290.718 318.052 290.308 317.955 289.86C317.858 289.412 317.895 288.945 318.062 288.517C318.228 288.09 318.517 287.721 318.892 287.457C319.267 287.193 319.712 287.045 320.17 287.033C320.482 287.024 320.793 287.078 321.083 287.191C321.374 287.305 321.639 287.475 321.863 287.693C322.086 287.91 322.264 288.17 322.385 288.458C322.507 288.745 322.569 289.054 322.569 289.366Z" fill="#CBD6D8"/>
<path d="M130.617 195.618H114.299C110.073 195.618 109.828 198.653 106.646 203.271L94.2114 223.669C94.0373 224.607 94.0373 225.57 94.2114 226.508C94.4532 227.499 94.9538 228.408 95.662 229.142C96.3701 229.876 97.2605 230.408 98.242 230.686C98.7189 230.863 99.2103 231 99.7106 231.094C100.452 231.245 101.206 231.321 101.963 231.322H130.617C132.644 231.318 134.587 230.509 136.019 229.075C137.45 227.64 138.254 225.696 138.254 223.669V203.271C138.254 201.244 137.45 199.3 136.019 197.865C134.587 196.43 132.644 195.622 130.617 195.618Z" fill="#88BFB7"/>
<path d="M184.908 199.42C184.408 198.558 183.743 197.803 182.95 197.198C182.158 196.593 181.254 196.15 180.29 195.895C179.648 195.712 178.984 195.618 178.316 195.618H154.736C152.706 195.618 150.76 196.424 149.324 197.859C147.889 199.295 147.083 201.241 147.083 203.271V223.669C147.074 224.679 147.266 225.681 147.647 226.618C148.027 227.554 148.59 228.405 149.301 229.123C150.013 229.84 150.859 230.41 151.792 230.799C152.725 231.187 153.726 231.387 154.736 231.387H178.316C180.346 231.387 182.292 230.581 183.728 229.146C185.163 227.71 185.969 225.764 185.969 223.734V203.271C185.968 201.915 185.602 200.585 184.908 199.42Z" fill="#88BFB7"/>
<path d="M222.929 195.618H199.414C197.385 195.618 195.438 196.424 194.003 197.86C192.568 199.295 191.761 201.241 191.761 203.271V223.669C191.765 224.263 191.837 224.854 191.973 225.431C192.245 226.575 192.775 227.641 193.524 228.548C193.782 228.869 194.072 229.165 194.388 229.429C195.77 230.672 197.557 231.368 199.414 231.388H222.994C225.024 231.388 226.971 230.581 228.406 229.146C229.841 227.711 230.648 225.764 230.648 223.734V203.271C230.648 202.261 230.448 201.26 230.059 200.327C229.67 199.394 229.101 198.548 228.383 197.836C227.665 197.125 226.814 196.562 225.878 196.182C224.942 195.801 223.94 195.609 222.929 195.618Z" fill="#88BFB7"/>
<path d="M268.197 195.618H244.6C243.595 195.616 242.599 195.812 241.669 196.196C240.74 196.58 239.895 197.143 239.184 197.854C238.473 198.566 237.909 199.41 237.525 200.34C237.142 201.269 236.945 202.265 236.947 203.271V223.669C236.936 224.68 237.127 225.683 237.506 226.62C237.886 227.557 238.449 228.409 239.161 229.128C239.873 229.846 240.72 230.415 241.654 230.803C242.588 231.191 243.589 231.39 244.6 231.387H268.197C270.224 231.383 272.166 230.575 273.598 229.14C275.03 227.705 275.834 225.761 275.834 223.734V203.271C275.834 201.244 275.03 199.3 273.598 197.865C272.166 196.43 270.224 195.622 268.197 195.618Z" fill="#88BFB7"/>
<path d="M122.067 205.736C121.023 204.545 118.804 204.741 117.286 206.144L94.3264 226.493C94.5558 227.473 95.0381 228.376 95.7252 229.112C96.4124 229.848 97.2804 230.391 98.2428 230.687L121.088 210.42C121.823 209.915 122.336 209.147 122.518 208.274C122.7 207.402 122.539 206.493 122.067 205.736Z" fill="#CCFEF8"/>
<path d="M120.288 215.074C119.877 214.741 119.354 214.58 118.827 214.626C118.3 214.671 117.812 214.92 117.465 215.318L99.678 231.082C100.419 231.233 101.174 231.31 101.93 231.31H104.508L119.7 217.848C120.133 217.547 120.434 217.092 120.543 216.577C120.652 216.062 120.561 215.524 120.288 215.074Z" fill="#CCFEF8"/>
<path d="M180.29 195.903L153.724 219.418C152.985 219.919 152.47 220.688 152.288 221.562C152.105 222.435 152.269 223.346 152.745 224.101C153.789 225.292 156.008 225.097 157.509 223.693L184.908 199.428C184.407 198.566 183.742 197.811 182.949 197.206C182.157 196.601 181.253 196.159 180.29 195.903Z" fill="#CCFEF8"/>
<path d="M241.27 211.332C239.639 212.752 239.247 214.841 240.291 216.015C241.336 217.19 243.555 217.011 245.056 215.608L267.608 195.618H259.008L241.27 211.332Z" fill="#CCFEF8"/>
<path d="M274.349 220.1C273.939 219.767 273.415 219.606 272.888 219.652C272.362 219.697 271.873 219.946 271.526 220.344L259.141 231.392H264.232L273.762 222.923C273.987 222.777 274.182 222.588 274.334 222.367C274.485 222.146 274.592 221.897 274.647 221.634C274.701 221.371 274.703 221.1 274.652 220.837C274.601 220.573 274.498 220.323 274.349 220.1Z" fill="#CCFEF8"/>
<path d="M313.447 195.618H289.867C287.837 195.618 285.891 196.424 284.455 197.859C283.02 199.295 282.214 201.241 282.214 203.271V223.669C282.22 225.286 282.738 226.86 283.693 228.165C284.649 229.469 285.993 230.437 287.534 230.931C288.3 231.194 289.106 231.326 289.916 231.322H313.496C315.526 231.322 317.472 230.516 318.908 229.081C320.343 227.645 321.149 225.699 321.149 223.669V203.271C321.149 202.262 320.95 201.263 320.562 200.331C320.174 199.399 319.606 198.553 318.89 197.842C318.174 197.131 317.325 196.568 316.391 196.186C315.457 195.805 314.456 195.611 313.447 195.618Z" fill="#88BFB7"/>
<path d="M317.33 208.301C316.634 207.745 315.75 207.478 314.863 207.557C313.975 207.636 313.152 208.055 312.565 208.726L287.533 230.935C288.3 231.198 289.105 231.33 289.916 231.326H295.692L316.368 212.985C317.1 212.478 317.609 211.708 317.788 210.836C317.968 209.964 317.804 209.056 317.33 208.301Z" fill="#CCFEF8"/>
<path d="M222.571 213.734C221.924 213.232 221.111 212.992 220.295 213.062C219.479 213.131 218.719 213.505 218.166 214.109L198.747 231.39H206.71L221.658 218.14C222.346 217.663 222.825 216.94 222.995 216.119C223.165 215.299 223.014 214.445 222.571 213.734Z" fill="#CCFEF8"/>
<path d="M118.981 239.504C118.981 239.504 118.6 238.251 118.548 238.057C118.495 237.864 118.67 237.334 118.922 236.743C119.175 236.152 119.776 235.47 119.884 235.448C119.991 235.426 120.091 235.358 120.345 235.478C120.6 235.598 120.725 235.864 120.725 235.864C120.725 235.864 121.124 235.864 121.287 236.177C121.287 236.177 121.641 236.219 121.769 236.607C121.769 236.607 122.131 236.579 122.202 236.869C122.202 236.869 122.028 237.401 122.019 237.617C122.011 237.832 121.475 238.857 120.899 239.829C120.899 239.829 120.406 240.983 118.981 239.504Z" fill="#EEA886"/>
<path d="M120.8 240.071C120.8 240.071 118.631 246.712 117.678 247.722C117.223 248.203 116.568 248.379 115.033 247.639C114.526 247.394 113.888 246.946 113.233 246.425C113.017 246.255 112.801 246.076 112.585 245.894L112.43 245.761C112.219 245.58 112.011 245.398 111.809 245.219C110.766 244.283 109.917 243.424 109.818 243.284C109.615 243.001 105.968 240.851 108.167 238.927C108.66 238.495 110.614 237.38 111.903 238.543C113.035 239.567 113.699 241.643 114.009 242.087C114.319 242.531 115.863 244.507 115.863 244.507C115.953 244.678 117.131 242.744 117.208 242.508C117.545 241.482 118.558 239.095 118.558 239.095L120.8 240.071Z" fill="#385369"/>
<path d="M112.778 253.357C112.563 253.357 112.35 253.326 112.145 253.266C111.126 252.968 110.139 251.99 109.208 250.361C108.178 248.557 107.267 246.025 106.5 242.835C106.194 241.583 106.378 240.268 107.017 239.134C107.624 238.066 108.577 237.299 109.633 237.029C110.78 236.735 111.957 237.058 112.944 237.933C114.092 238.946 114.969 240.639 115.553 242.962C116.068 245.012 116.211 247.042 115.967 248.834C115.74 250.509 115.182 251.858 114.398 252.633C113.91 253.113 113.36 253.357 112.778 253.357ZM110.476 237.452C110.234 237.452 109.993 237.482 109.758 237.541C107.976 237.995 106.407 240.228 107.003 242.707C107.759 245.848 108.651 248.333 109.657 250.093C110.505 251.579 111.416 252.5 112.288 252.756C112.921 252.941 113.508 252.772 114.033 252.254C114.736 251.56 115.239 250.32 115.45 248.761C115.684 247.037 115.545 245.077 115.047 243.092C114.5 240.907 113.656 239.26 112.604 238.333C111.838 237.652 111.092 237.452 110.476 237.452Z" fill="#F3F3F3"/>
<path d="M113.122 253.707C112.901 253.707 112.681 253.674 112.471 253.609C111.455 253.302 110.476 252.316 109.56 250.679C108.545 248.867 107.656 246.325 106.917 243.128C106.622 241.873 106.818 240.56 107.467 239.432C108.083 238.369 109.043 237.611 110.101 237.352C111.251 237.071 112.425 237.401 113.406 238.286C114.545 239.311 115.405 241.011 115.966 243.34C116.463 245.396 116.587 247.426 116.329 249.215C116.086 250.887 115.518 252.232 114.725 252.999C114.243 253.466 113.697 253.707 113.122 253.707ZM110.915 237.778C110.682 237.779 110.45 237.807 110.224 237.862C108.439 238.3 106.849 240.518 107.424 243.003C108.152 246.151 109.023 248.643 110.011 250.413C110.846 251.907 111.748 252.835 112.619 253.099C113.251 253.29 113.839 253.127 114.369 252.613C115.076 251.928 115.59 250.691 115.817 249.134C116.067 247.412 115.945 245.451 115.465 243.462C114.933 241.271 114.105 239.617 113.062 238.677C112.291 237.983 111.536 237.778 110.915 237.778Z" fill="#E0E0E0"/>
<path d="M111.931 253.778C111.653 253.776 111.378 253.722 111.123 253.619C110.135 253.227 109.236 252.166 108.453 250.459C107.585 248.568 106.901 245.963 106.415 242.716C106.22 241.447 106.519 240.154 107.256 239.077C107.954 238.069 108.971 237.392 110.046 237.22C111.215 237.034 112.358 237.46 113.266 238.422C114.317 239.536 115.041 241.302 115.417 243.671C115.749 245.759 115.714 247.794 115.314 249.557C114.94 251.204 114.267 252.497 113.418 253.198C112.949 253.582 112.444 253.778 111.931 253.778ZM110.586 237.705C110.431 237.705 110.276 237.718 110.124 237.742C108.309 238.032 106.549 240.114 106.926 242.638C107.403 245.836 108.074 248.392 108.92 250.237C109.635 251.793 110.46 252.793 111.307 253.125C111.922 253.37 112.522 253.253 113.09 252.782C113.85 252.156 114.46 250.967 114.807 249.434C115.192 247.737 115.225 245.772 114.904 243.751C114.55 241.524 113.853 239.807 112.889 238.786C112.084 237.934 111.25 237.705 110.586 237.705Z" fill="#DBDBDB"/>
<path d="M111.382 254.091C111.104 254.089 110.829 254.035 110.574 253.931C109.585 253.539 108.687 252.478 107.904 250.771C107.036 248.881 106.351 246.276 105.866 243.029C105.67 241.759 105.968 240.466 106.706 239.39C107.404 238.381 108.421 237.704 109.496 237.533C110.665 237.346 111.808 237.773 112.716 238.735C113.77 239.851 114.494 241.613 114.87 243.981C115.202 246.069 115.166 248.105 114.767 249.867C114.393 251.515 113.719 252.807 112.87 253.508C112.402 253.895 111.897 254.091 111.382 254.091ZM106.379 242.949C106.856 246.147 107.528 248.703 108.374 250.547C109.089 252.104 109.914 253.104 110.761 253.436C111.376 253.68 111.975 253.563 112.544 253.093C113.303 252.467 113.913 251.277 114.261 249.744C114.645 248.048 114.679 246.082 114.357 244.061C114.003 241.834 113.307 240.117 112.343 239.096C111.334 238.028 110.282 237.938 109.577 238.051C107.762 238.344 106.003 240.426 106.379 242.949Z" fill="#C7C7C7"/>
<path d="M119.887 295.874C119.887 295.874 121.34 297.083 122.562 297.353C123.785 297.623 124.425 298.259 124.435 298.997C124.446 299.735 120.917 300.221 119.52 299.478C117.432 298.367 117.22 298.702 116.989 298.146C116.757 297.59 116.943 296.121 116.928 295.943C116.908 295.726 119.887 295.874 119.887 295.874Z" fill="#2E2626"/>
<path d="M102.515 296.845C102.515 296.845 103.419 298.239 104.567 298.519C105.699 298.795 106.116 299.234 106.171 299.93C106.226 300.625 103.503 301.535 101.589 300.314C100.331 299.511 99.8627 299.557 99.6097 299.047C99.3567 298.537 99.5481 297.101 99.5228 296.935C99.4933 296.731 102.515 296.845 102.515 296.845Z" fill="#2E2626"/>
<path d="M112.623 260.935C112.623 260.935 115.432 268.945 116.418 271.883C117.714 275.751 118.695 279.178 118.858 281.032C119.064 283.364 120.216 294.986 120.358 295.667C120.5 296.347 116.512 296.12 116.512 296.12C116.512 296.12 114.268 282.247 113.657 279.764C113.087 277.453 107.699 266.965 107.18 267.596C106.66 268.228 104.935 278.962 104.55 280.786C104.165 282.609 103.136 296.962 103.136 296.962C103.136 296.962 99.6342 297.533 98.9294 296.962C98.9294 296.962 99.4815 284.163 99.7268 280.745C99.8199 279.443 98.917 265.15 101.081 259.386C102.226 256.34 112.623 260.935 112.623 260.935Z" fill="#E2581D"/>
<path d="M108.433 237.576C108.433 237.576 111.158 238.145 111.512 238.464C111.895 238.804 112.662 242.234 112.702 243.161C112.741 244.088 112.508 247.901 112.124 249.341C111.74 250.781 111.422 256.819 111.664 258.814C111.664 258.814 106.748 260.231 100.85 259.451C100.85 259.451 101.396 253.048 101.16 251.075C100.859 248.547 99.8755 243.035 99.8755 243.035C99.8755 243.035 99.949 239.216 100.474 238.762C100.999 238.308 105.068 237.575 105.068 237.575L108.433 237.576Z" fill="#385369"/>
<path d="M109.034 237.703C109.034 237.703 109.674 238.674 108.781 238.839C107.888 239.004 106.065 238.802 105.071 237.572C105.069 237.572 107.775 237.332 109.034 237.703Z" fill="#EEA886"/>
<path d="M112.287 248.549L110.459 244.305H105.707C105.707 244.305 103.532 248.5 101.005 249.899C101.005 249.899 100.635 258.74 100.464 261.711C100.464 261.711 102.851 263.09 106.598 263.147C110.345 263.205 113.447 263.29 113.447 263.29C113.447 263.29 111.903 257.601 111.886 256.849C111.87 256.097 112.092 250.048 112.287 248.549Z" fill="#E2581D"/>
<path d="M105.304 245.021C105.304 245.021 105.524 240.062 102.924 238.006C103.178 237.902 103.451 237.843 103.728 237.834C103.728 237.834 105.845 238.697 106.441 244.305C107.038 249.912 105.304 245.021 105.304 245.021Z" fill="#E2581D"/>
<path d="M110.245 244.305C110.245 244.305 110.745 240.288 109.714 237.867C109.714 237.867 110.18 237.981 110.443 238.058C110.443 238.058 111.511 239.486 110.992 245.544C110.472 251.602 110.245 244.305 110.245 244.305Z" fill="#E2581D"/>
<path d="M100.475 238.758C100.475 238.758 99.426 239.463 99.5171 240.785C99.6081 242.107 100.378 245.935 100.378 245.935L100.475 238.758Z" fill="#E2581D"/>
<path d="M98.3752 266.538L98.1165 266.078C106.269 261.359 112.604 256.411 116.938 251.372C121.236 246.378 122.311 242.745 122.569 241.024C122.764 239.727 122.625 238.674 122.196 238.206C119.471 235.23 109.095 237.685 108.884 237.655L108.746 237.297C108.909 237.292 112.103 236.591 114.919 236.331C118.754 235.976 121.331 236.486 122.577 237.845C123.12 238.439 123.305 239.626 123.084 241.104C122.816 242.881 121.714 246.625 117.329 251.72C112.954 256.804 106.577 261.789 98.3752 266.538Z" fill="#D9D3D3"/>
<path d="M108.99 261.379C108.99 261.379 108.673 261.253 108.561 261.129C108.561 261.129 108.374 260.887 108.231 260.723C108.194 260.681 108.156 260.64 108.115 260.602C107.993 260.495 107.692 260.296 107.469 259.955C107.246 259.613 106.658 257.89 106.658 257.89L107.482 257.302L108.178 256.639C108.178 256.639 110.406 257.713 110.65 258.007C110.673 258.035 110.695 258.064 110.715 258.094C110.897 258.363 110.922 258.641 111.002 258.793C111.031 258.85 111.284 259.427 111.201 259.596C111.087 259.831 110.914 259.947 110.739 259.968C110.739 259.968 110.495 260.418 110.18 260.547C110.18 260.547 109.968 260.969 109.531 261.015C109.531 261.014 109.269 261.418 108.99 261.379Z" fill="#EEA886"/>
<path d="M101.678 238.54C102.36 238.627 104.326 239.874 103.839 241.536C103.432 242.92 103.431 244.054 103.31 244.614C103.19 245.174 102.689 248.963 102.974 249.361C103.337 249.865 105.168 252.231 105.331 252.433C105.657 252.835 108.475 256.508 108.475 256.508L106.61 258.334C106.61 258.334 101.17 252.561 100.421 251.816C99.9279 251.326 99.1559 250.61 99.1662 248.789C99.1771 246.938 99.0664 243.341 99.1398 242.979C99.2133 242.618 98.6488 238.159 101.678 238.54Z" fill="#385369"/>
<path d="M119.811 235.592C119.811 235.592 119.207 237.106 119.435 237.235C119.662 237.365 119.823 237.272 119.823 237.272L119.852 238.01C119.852 238.01 120.143 238.488 120.569 238.026C120.569 238.026 120.795 238.501 121.154 238.005C121.154 238.005 121.44 238.25 121.647 238.051C121.853 237.852 122.202 236.86 122.202 236.86C122.202 236.86 122.183 236.616 121.782 236.547C121.782 236.547 121.681 236.168 121.295 236.145C121.295 236.145 121.168 235.854 120.75 235.832C120.75 235.832 120.416 235.207 119.883 235.441C119.883 235.438 119.836 235.528 119.811 235.592Z" fill="#DB9C7C"/>
<path d="M118.563 238.004C118.563 238.004 119.397 237.27 120.025 237.074C120.168 237.03 120.313 237.013 120.407 237.131C120.501 237.248 120.453 237.536 120.108 237.873C119.762 238.209 119.467 238.803 119.467 238.803C119.467 238.803 119.012 239.045 118.563 238.004Z" fill="#EEA886"/>
<path d="M113.234 246.425C113.018 246.254 112.802 246.075 112.586 245.893C112.586 245.893 112.768 243.953 112.682 242.906C112.682 242.907 113.292 244.554 113.234 246.425Z" fill="#283B4A"/>
<path d="M104.898 233.825V233.828C105.186 234.46 105.544 235.062 105.966 235.622C107.355 237.437 110.595 237.483 110.642 232.5C110.65 231.558 110.535 230.792 110.349 230.171C109.686 227.961 108.128 227.593 108.128 227.593C106.977 227.529 104.963 227.818 104.291 229.345C103.816 230.428 104.161 232.225 104.898 233.825Z" fill="#EEA987"/>
<path d="M104.898 233.825V233.828C104.898 233.828 105.064 233.873 105.662 232.643C105.782 232.399 105.874 232.573 105.926 232.464L106.879 232.086C106.879 232.086 105.938 230.481 107.17 230.036C108.427 229.582 110.35 230.171 110.35 230.171C109.686 227.961 108.128 227.593 108.128 227.593C106.977 227.529 104.963 227.818 104.291 229.345C103.816 230.428 104.16 232.225 104.898 233.825Z" fill="#665249"/>
<path d="M106.123 231.719C106.052 231.386 105.406 231.099 105.131 231.816C104.857 232.534 105.774 233.29 106.017 233.133C106.26 232.976 106.24 232.271 106.123 231.719Z" fill="#EEA987"/>
<path d="M104.089 231.777C104.089 231.777 107.152 229.62 110.723 230.389C110.723 230.389 110.511 225.843 106.444 226.622C102.624 227.353 103.958 231.264 104.089 231.777Z" fill="#FAB546"/>
<path d="M106.058 230.798C106.058 230.798 109.1 231.354 111.046 230.939C112.991 230.525 110.669 229.917 110.669 229.917C110.669 229.917 109.047 229.398 106.058 230.798Z" fill="#FAB546"/>
<path d="M109.043 238.215C109.043 238.215 108.206 238.854 105.412 237.6C105.588 236.442 105.509 235.262 105.18 234.134C104.63 232.31 108.746 236.128 108.746 236.128C108.701 236.16 108.694 236.343 108.718 236.597C108.718 236.613 108.722 236.63 108.724 236.646C108.748 236.855 108.786 237.062 108.836 237.267C108.842 237.295 108.849 237.322 108.856 237.349C109.013 237.959 109.043 237.682 109.043 238.215Z" fill="#EEA886"/>
<path d="M108.836 237.266C106.832 237.528 105.738 235.33 105.707 235.265C107.078 237.302 108.723 236.644 108.723 236.644C108.747 236.853 108.785 237.061 108.836 237.266Z" fill="#A77860"/>
<path d="M238.914 279.543C239.96 279.543 240.568 279.257 240.626 279.229L240.405 278.73C240.375 278.744 237.279 280.162 232.686 276.029C229.671 273.317 226.512 273.666 222.853 274.07C220.54 274.325 218.148 274.589 215.485 274.124C213.851 273.837 212.739 273.097 212.18 271.922C210.85 269.127 212.986 264.726 213.008 264.683L212.543 264.429C212.449 264.62 210.265 269.121 211.712 272.167C212.35 273.508 213.59 274.35 215.4 274.666C218.133 275.145 220.67 274.866 222.909 274.618C226.448 274.227 229.503 273.89 232.347 276.448C235.174 278.993 237.465 279.543 238.914 279.543Z" fill="#385369"/>
<path d="M240.382 279.782H244.142V278.18H240.382V279.782Z" fill="#385369"/>
<path d="M242.344 280.945H245.082V275.56H242.344V280.945Z" fill="#385369"/>
<path d="M199.937 299.095H206.313V269.97H199.937V299.095Z" fill="#385369"/>
<path d="M206.206 267.42C206.206 267.42 205.543 267.727 205.235 267.711C204.927 267.694 203.031 267.494 202.784 267.839C202.537 268.184 200.718 270.111 200.965 270.403C201.211 270.696 201.399 270.549 201.52 270.403C201.64 270.257 203.046 269.015 203.216 268.993C203.216 268.993 201.968 270.466 202.182 270.904C202.397 271.342 202.784 271.261 203.015 271.342C203.246 271.423 203.632 271.732 204.046 271.537C204.459 271.342 206.05 269.525 206.436 269.265C206.821 269.005 207.838 268.6 207.853 268.502C207.869 268.404 206.206 267.42 206.206 267.42Z" fill="#EEA886"/>
<path d="M218.56 294.644C218.11 294.809 217.69 295.044 217.312 295.338C216.661 295.838 215.785 296.655 214.823 296.838C213.861 297.021 212.844 297.004 212.999 298.085C213.155 299.167 216.322 299.702 219.179 298.786C222.035 297.869 222.077 297.786 222.077 297.519C222.077 297.253 221.643 294.568 221.514 294.477C221.386 294.385 218.56 294.644 218.56 294.644Z" fill="#202338"/>
<path d="M235.198 293.644C235.198 293.644 234.098 294.843 233.15 295.044C232.202 295.245 230.958 295.569 230.894 296.224C230.83 296.878 231.226 297.048 231.263 297.088C231.5 297.28 236.021 297.452 237.772 296.759C238.846 296.333 237.609 292.799 237.609 292.799L235.198 293.644Z" fill="#202338"/>
<path d="M222.988 276.913C223.228 277.835 225.671 281.208 226.002 281.714C226.447 282.394 233.527 294.081 233.607 294.274C233.687 294.467 237.687 293.461 237.848 292.562C237.848 292.562 232.241 280.459 230.905 278.861C229.569 277.263 229.263 275.607 229.476 273.757C229.689 271.907 232.308 266.098 231.908 263.631C231.508 261.164 224.591 268.94 224.349 271.539C224.349 271.539 224.336 271.573 224.314 271.637C224.234 271.863 224.026 272.456 223.797 273.173C223.782 273.219 223.767 273.266 223.753 273.313C223.326 274.663 222.849 276.376 222.988 276.913Z" fill="#E2581D"/>
<path d="M221.535 263.846C221.535 263.846 211.986 271.453 210.917 273.008C209.848 274.562 211.047 276.875 211.207 277.632C211.367 278.388 217.805 293.367 217.885 294.67C217.885 294.67 222.204 295.049 222.964 294.039C222.964 294.039 218.264 279.822 217.585 277.383C216.905 274.945 219.243 274.353 221.122 273.47C223.002 272.588 231.165 267.574 231.646 265.659C232.084 263.911 231.623 262.165 231.623 262.165C231.623 262.165 229.424 260.948 221.535 263.846Z" fill="#E2581D"/>
<path d="M213.565 258.044C213.565 258.044 212.452 257.372 212.279 257.277C212.106 257.182 211.561 257.239 210.942 257.363C210.322 257.487 209.537 257.947 209.496 258.053C209.454 258.159 209.364 258.244 209.423 258.532C209.469 258.719 209.569 258.889 209.711 259.02C209.711 259.02 209.613 259.428 209.878 259.667C209.864 259.778 209.883 259.891 209.933 259.992C209.982 260.093 210.06 260.178 210.156 260.236C210.156 260.236 210.084 260.609 210.346 260.746C210.346 260.746 210.891 260.688 211.099 260.728C211.307 260.768 212.401 260.451 213.455 260.083C213.455 260.078 214.665 259.834 213.565 258.044Z" fill="#EEA886"/>
<path d="M209.662 257.018L210.571 256.672L209.031 252.205L207.89 251.878L209.662 257.018Z" fill="#385369"/>
<path d="M210.539 252.859L210.678 252.393L206.468 250.643L206.644 251.573L210.539 252.859Z" fill="#385369"/>
<path d="M212.281 264.742L213.269 264.366L210.471 256.249L209.483 256.625L212.281 264.742Z" fill="#FAB546"/>
<path d="M209.656 258.013C209.656 258.013 211.234 257.738 211.308 258C211.381 258.262 211.257 258.405 211.257 258.405L211.955 258.601C211.955 258.601 212.348 259.006 211.814 259.337C211.814 259.337 212.218 259.675 211.666 259.93C211.666 259.93 211.838 260.278 211.602 260.444C211.366 260.609 210.345 260.743 210.345 260.743C210.345 260.743 210.117 260.669 210.137 260.243C210.137 260.243 209.797 260.054 209.859 259.654C209.859 259.654 209.609 259.458 209.68 259.027C209.68 259.027 209.156 258.544 209.495 258.05C209.548 258.035 209.602 258.023 209.656 258.013Z" fill="#DB9C7C"/>
<path d="M212.228 257.275C212.228 257.275 211.346 257.963 211.021 258.56C210.948 258.695 210.9 258.841 210.992 258.963C211.083 259.086 211.369 259.102 211.765 258.825C212.162 258.548 212.796 258.38 212.796 258.38C212.796 258.38 213.121 257.97 212.228 257.275Z" fill="#EEA886"/>
<path d="M222.194 255.843C222.564 257.579 222.253 258.209 221.695 258.564C220.523 259.311 213.709 260.029 213.709 260.029L213.268 257.515C213.268 257.515 215.768 257.02 216.82 256.907C217.062 256.881 219.167 256.114 219.023 255.985C219.023 255.985 218.066 252.914 217.71 252.497C217.71 252.497 214.389 247.045 217.745 246.508C221.102 245.971 222.194 255.843 222.194 255.843Z" fill="#CBCFDE"/>
<path d="M216.155 248.417C216.155 248.417 215.515 251.983 215.955 253.63C216.394 255.277 218.896 257.487 219.508 257.948C220.119 258.41 221.8 261.908 221.723 262.709C221.647 263.51 221.628 264.276 221.628 264.276C221.628 264.276 230.234 266.51 231.925 263.708C231.925 263.708 230.772 256.726 228.146 252.257C227.572 251.281 226.353 249.471 225.063 248.326C223.774 247.182 218.294 245.063 218.294 245.063L216.155 248.417Z" fill="#E2581D"/>
<path d="M216.454 251.335C216.683 250.878 217.173 248.271 219.188 248.725C221.202 249.179 221.418 251.545 220.825 253.037C220.231 254.529 219.492 256.495 219.386 256.82C219.279 257.145 216.778 262.078 216.454 262.361C216.13 262.645 212.515 265.9 211.885 266.258C211.256 266.616 206.687 269.539 206.687 269.539L205.364 267.587C205.364 267.587 212.243 261.549 212.8 261.095C213.358 260.64 214.203 259.543 214.347 258.825C214.491 258.106 216.112 252.013 216.454 251.335Z" fill="#DBDFF0"/>
<path d="M209.151 243.231C209.151 243.231 209.526 245.124 210.019 245.034C210.427 244.959 210.856 246.763 210.946 247.041C211.035 247.319 211.73 246.962 211.959 246.989C212.189 247.016 213.874 248.35 214.386 247.981C214.898 247.613 216.403 244.951 216.475 243.805C216.547 242.659 214.731 239.377 213.378 238.512C212.026 237.648 208.508 239.912 209.151 243.231Z" fill="#EEA886"/>
<path d="M214.503 247.385C214.637 247.347 214.777 247.334 214.916 247.346C215.166 247.375 215.405 247.462 215.615 247.601C215.845 247.747 216.051 247.928 216.227 248.137C216.227 248.137 219.076 245.339 218.208 245.032C217.34 244.725 216.546 243.191 216.546 243.191C216.546 243.191 213.583 247.645 214.503 247.385Z" fill="#EEA886"/>
<path d="M216.156 248.42L215.934 247.919L217.809 244.706L218.803 245.243C218.803 245.243 217.027 247.854 216.156 248.42Z" fill="#C5C9D9"/>
<path d="M219.129 257.661C219.238 257.77 219.337 257.863 219.424 257.945C219.666 258.172 219.817 258.301 219.817 258.301C219.817 258.301 223.596 257.127 223.499 253.631C223.401 250.136 220.39 248.11 218 248.417C215.609 248.725 216.083 251.7 216.083 251.7C216.195 254.916 217.891 256.445 219.129 257.661Z" fill="#DBDFF0"/>
<path d="M215.979 249.605C215.979 249.605 216.088 248.061 218.475 247.73C220.861 247.399 222.982 249.658 222.982 249.658L225.064 248.326C225.064 248.326 223.715 247.034 221.114 246.077C218.836 245.238 218.802 245.24 218.802 245.24L216.155 248.417C216.155 248.417 215.979 249.254 215.979 249.605Z" fill="#DBDFF0"/>
<path d="M219.034 257.574C219.143 257.682 219.556 258.071 219.643 258.153C219.643 258.153 220.012 256.348 220.425 254.285C220.401 254.356 219.161 257.355 219.034 257.574Z" fill="#BABECC"/>
<path d="M223.753 273.315C226.499 271.894 229.059 268.404 229.099 268.349C227.925 269.537 224.371 271.604 224.315 271.637C224.235 271.864 224.027 272.457 223.798 273.173C223.785 273.221 223.77 273.267 223.753 273.315Z" fill="#CC5C1F"/>
<path d="M209.224 243.626C209.224 243.626 207.689 243.02 208.092 240.88C208.495 238.739 211.853 238.241 212.308 238.202C212.654 238.172 214.173 237.939 215.546 240.544C217.237 243.753 216.374 243.365 216.374 243.365C216.374 243.365 215.376 242.068 214.821 242.365C214.219 242.687 213.291 243.305 213.291 243.305C213.291 243.305 212.749 241.698 211.93 242.13C211.112 242.562 209.699 242.744 209.224 243.626Z" fill="#163342"/>
<path d="M258.432 295.837H240.867V280.698H257.45C257.711 280.698 257.96 280.802 258.145 280.986C258.329 281.17 258.432 281.42 258.432 281.68V295.837V295.837Z" fill="#FAB546"/>
<path d="M258.433 295.837H262.877V282.397H258.433V295.837Z" fill="#E6A640"/>
<path d="M252.287 280.945H242.859V274.978H250.717C251.134 274.978 251.533 275.143 251.827 275.438C252.122 275.732 252.287 276.132 252.287 276.548V280.945Z" fill="#E8A841"/>
<path d="M241.18 295.836H264.333C264.706 295.836 265.007 295.519 265.007 295.127C265.007 294.736 264.706 294.418 264.333 294.418H241.18C240.808 294.418 240.506 294.736 240.506 295.127C240.506 295.519 240.808 295.836 241.18 295.836Z" fill="#385369"/>
<path d="M260.205 294.458C260.205 296.548 261.816 298.243 263.804 298.243C265.791 298.243 267.403 296.548 267.403 294.458C267.403 292.368 265.792 290.673 263.804 290.673C261.816 290.673 260.205 292.371 260.205 294.458Z" fill="#385369"/>
<path d="M240.867 295.024H241.56V281.619H240.867V295.024Z" fill="#385369"/>
<path d="M252.974 293.125H256.754C256.874 293.125 256.971 293.027 256.971 292.908V292.129C256.971 292.009 256.874 291.912 256.754 291.912H252.974C252.854 291.912 252.757 292.009 252.757 292.129V292.908C252.757 293.027 252.854 293.125 252.974 293.125Z" fill="#E3A440"/>
<path d="M213.112 242.341L215.85 241.143C215.85 241.143 216.197 241.702 216.217 241.927L213.447 243.446L213.112 242.341Z" fill="#DBDFF0"/>
<path d="M213.562 242.256C213.488 242.035 213.156 241.393 214.081 241.296C215.006 241.198 215.09 243.147 215.003 243.255C214.916 243.363 214.183 244.112 213.562 242.256Z" fill="#EEA886"/>
<path d="M207.58 241.931C207.58 241.931 208.406 244.526 212.768 249.793L214.163 249.128C214.163 249.128 213.819 246.944 214.437 245.728C215.055 244.512 212.298 238.925 211.75 238.764C211.202 238.604 208.266 239.678 207.58 241.931Z" fill="#6E7078"/>
<path d="M209.879 246.716L210.637 246.192L208.541 242.84L207.783 243.364L209.879 246.716Z" fill="#D99D3D"/>
<path d="M208.655 240.784L207.443 241.73C207.443 241.73 209.619 246.447 212.768 249.794L208.655 240.784Z" fill="#6E7078"/>
<path d="M206.305 251.813H206.905V250.576H206.305V251.813Z" fill="#385369"/>
<path d="M214.916 247.341C215.166 247.369 215.406 247.457 215.616 247.595C215.892 246.776 216.062 245.925 216.123 245.063C215.896 245.697 214.916 247.341 214.916 247.341Z" fill="#C78D71"/>
<path d="M241.56 282.447H237.491C237.438 282.447 237.387 282.426 237.349 282.388C237.311 282.35 237.29 282.299 237.29 282.245V281.824C237.29 281.77 237.311 281.719 237.349 281.681C237.387 281.643 237.438 281.622 237.491 281.622H241.56V282.447Z" fill="#385369"/>
<path d="M203.279 251.416H206.305V250.943H203.279V251.416Z" fill="#FAB546"/>
<path d="M203.65 251.115L204.916 248.731L203.173 250.99L201.693 248.948L202.809 251.252L200.352 252.847L203.151 251.681L203.641 255.548L203.624 251.692L206.093 252.376L203.65 251.115Z" fill="#FAB546"/>
<g filter="url(#filter0_d)">
<path d="M330 80C330 88.8366 322.783 96 313.881 96C304.979 96 297.762 88.8366 297.762 80C297.762 71.1634 304.979 64 313.881 64C322.783 64 330 71.1634 330 80Z" fill="white"/>
<path d="M302.994 83.6478C302.994 90.4687 297.423 95.9981 290.552 95.9981C283.68 95.9981 278.109 90.4687 278.109 83.6478C278.109 76.827 283.68 71.2975 290.552 71.2975C297.423 71.2975 302.994 76.827 302.994 83.6478Z" fill="white"/>
<path d="M283.693 88.21C283.693 92.5115 280.18 95.9985 275.846 95.9985C271.513 95.9985 268 92.5115 268 88.21C268 83.9085 271.513 80.4215 275.846 80.4215C280.18 80.4215 283.693 83.9085 283.693 88.21Z" fill="white"/>
<path d="M275.564 84.2104H330L315.154 95.998H275.564V84.2104Z" fill="white"/>
</g>
<g filter="url(#filter1_d)">
<path d="M49.4843 163.742C49.4843 171.332 43.3318 177.484 35.7422 177.484C28.1526 177.484 22 171.332 22 163.742C22 156.153 28.1526 150 35.7422 150C43.3318 150 49.4843 156.153 49.4843 163.742Z" fill="white"/>
<path d="M55.6397 177.486C61.5695 177.486 66.3765 172.679 66.3765 166.749C66.3765 160.819 61.5695 156.012 55.6397 156.012C49.71 156.012 44.903 160.819 44.903 166.749L35.6678 177.486H55.6397Z" fill="white"/>
</g>
<g opacity="0.15" filter="url(#filter2_f)">
<path d="M271.356 189.591C261.561 171.499 259.211 169.363 261.568 163.953C264.797 156.543 277.004 152.531 288.834 154.993C300.663 157.454 307.635 165.456 304.406 172.866C302.048 178.276 298.381 179.16 275.758 190.507C274.275 191.248 272 190.775 271.356 189.591ZM280.551 174C285.48 175.025 290.566 173.354 291.911 170.266C293.257 167.179 290.352 163.845 285.423 162.819C280.494 161.794 275.408 163.465 274.063 166.553C272.717 169.64 275.622 172.974 280.551 174Z" fill="#404040"/>
</g>
<path d="M271.186 189.678C254.36 165.05 251.236 162.522 251.236 153.471C251.236 141.073 261.191 131.022 273.471 131.022C285.751 131.022 295.706 141.073 295.706 153.471C295.706 162.522 292.583 165.05 275.756 189.678C274.652 191.288 272.29 191.288 271.186 189.678ZM273.471 162.825C278.588 162.825 282.736 158.637 282.736 153.471C282.736 148.305 278.588 144.118 273.471 144.118C268.355 144.118 264.207 148.305 264.207 153.471C264.207 158.637 268.355 162.825 273.471 162.825Z" fill="#E2581D"/>
</g>
<defs>
<filter id="filter0_d" x="268" y="64" width="67" height="40" filterUnits="userSpaceOnUse" color-interpolation-filters="sRGB">
<feFlood flood-opacity="0" result="BackgroundImageFix"/>
<feColorMatrix in="SourceAlpha" type="matrix" values="0 0 0 0 0 0 0 0 0 0 0 0 0 0 0 0 0 0 127 0"/>
<feOffset dx="4" dy="7"/>
<feGaussianBlur stdDeviation="0.5"/>
<feColorMatrix type="matrix" values="0 0 0 0 0 0 0 0 0 0 0 0 0 0 0 0 0 0 0.15 0"/>
<feBlend mode="normal" in2="BackgroundImageFix" result="effect1_dropShadow"/>
<feBlend mode="normal" in="SourceGraphic" in2="effect1_dropShadow" result="shape"/>
</filter>
<filter id="filter1_d" x="22" y="150" width="49.3765" height="35.4857" filterUnits="userSpaceOnUse" color-interpolation-filters="sRGB">
<feFlood flood-opacity="0" result="BackgroundImageFix"/>
<feColorMatrix in="SourceAlpha" type="matrix" values="0 0 0 0 0 0 0 0 0 0 0 0 0 0 0 0 0 0 127 0"/>
<feOffset dx="4" dy="7"/>
<feGaussianBlur stdDeviation="0.5"/>
<feColorMatrix type="matrix" values="0 0 0 0 0 0 0 0 0 0 0 0 0 0 0 0 0 0 0.15 0"/>
<feBlend mode="normal" in2="BackgroundImageFix" result="effect1_dropShadow"/>
<feBlend mode="normal" in="SourceGraphic" in2="effect1_dropShadow" result="shape"/>
</filter>
<filter id="filter2_f" x="259.722" y="153.268" width="46.473" height="38.5942" filterUnits="userSpaceOnUse" color-interpolation-filters="sRGB">
<feFlood flood-opacity="0" result="BackgroundImageFix"/>
<feBlend mode="normal" in="SourceGraphic" in2="BackgroundImageFix" result="shape"/>
<feGaussianBlur stdDeviation="0.5" result="effect1_foregroundBlur"/>
</filter>
<clipPath id="clip0">
<rect width="320" height="370" fill="white"/>
</clipPath>
</defs>
</svg>
