<svg width="768" height="695" viewBox="0 0 768 695" fill="none" xmlns="http://www.w3.org/2000/svg">
<g clip-path="url(#clip0)">
<rect opacity="0.5" x="-535.938" width="1825" height="668" fill="#4AA29A"/>
<path opacity="0.2" d="M-535.938 206.377L-535.834 617.27L1289.06 621V213.465L1180.88 267.845L983.388 149L696.511 284.24L531.792 225.714L382.48 280.961L328.408 304.219L158.761 226.187L56.4573 299.137L-26.085 256.543L-228.321 299.137L-354.715 257.85L-447.06 335.646L-535.938 206.377Z" fill="#4AA29A"/>
<path opacity="0.2" d="M-535.938 352.605L-535.899 614.233L1289.06 615V354.76L1182.08 412.463L927.81 352.865L762.66 361.877L411.721 350L234.198 463.591L48.4086 459.88L-132.179 359.125L-309.519 425.479L-394.245 387.875L-471.266 446.244L-535.938 352.605Z" fill="#4AA29A"/>
<path d="M88.8076 556.19C84.9076 556.19 81.1674 557.693 78.4097 560.367C75.652 563.042 74.1028 566.669 74.1028 570.452C74.1028 574.234 75.652 577.861 78.4097 580.536C81.1674 583.211 84.9076 584.713 88.8076 584.713H1312.05C1315.36 575.345 1318.54 565.838 1321.49 556.19H88.8076Z" fill="#3C3C3B"/>
<path d="M-538.976 581.86C-544.817 581.86 -550.419 587.82 -554.549 598.429C-558.68 609.038 -561 623.426 -561 638.43C-561 653.433 -558.68 667.822 -554.549 678.431C-550.419 689.04 -544.817 694.999 -538.976 694.999H1293.09C1298.05 657.841 1302.8 620.128 1307.23 581.86H-538.976Z" fill="#4AA29A"/>
<path d="M118.832 556.393C118.832 556.393 119.542 558.26 120.14 558.999C120.738 559.739 123.031 561.061 123.044 563.258C123.056 565.641 119.18 564.98 117.664 564.892C116.148 564.804 116.032 563.533 115.394 562.184C114.756 560.835 114.116 561.064 113.992 559.976C113.869 558.887 114.481 556.452 114.481 556.452L118.832 556.393Z" fill="#163342"/>
<path d="M118.897 555.697L118.779 556.922C118.779 556.922 116.734 557.759 114.481 556.922L114.495 555.38L118.897 555.697Z" fill="#2F6B8C"/>
<path d="M95.9671 556.393C95.9671 556.393 95.2564 558.26 94.6582 558.999C94.0599 559.739 91.7675 561.061 91.7556 563.258C91.742 565.641 95.6186 564.98 97.1347 564.892C98.6507 564.804 98.7658 563.533 99.4041 562.184C100.042 560.835 100.682 561.064 100.806 559.976C100.929 558.887 100.317 556.452 100.317 556.452L95.9671 556.393Z" fill="#163342"/>
<path d="M95.899 555.697L96.0157 556.922C96.0157 556.922 98.061 557.759 100.315 556.922L100.301 555.38L95.899 555.697Z" fill="#2F6B8C"/>
<path d="M92.6835 525.151C92.6835 528.088 94.3231 555.743 94.3231 555.743C94.5924 556.722 100.523 556.406 101.421 555.917C102.319 555.428 100.9 528.168 101.066 525.207C101.231 522.246 105.339 500.186 106.129 500.284C106.918 500.382 109.533 524.803 110.161 527.051C110.789 529.3 113.641 556.001 113.641 556.001C115.615 557.274 120.311 555.681 120.311 555.681C120.311 555.681 119.327 528.27 119.214 527.443C119.044 526.218 119.222 522.913 118.765 515.591C118.356 509.037 116.88 494.769 115.944 487.043C115.91 486.766 115.879 486.503 115.847 486.251C115.664 484.747 115.527 483.642 115.461 483.107L115.417 482.756C115.164 482.629 114.901 482.512 114.626 482.405C108.05 479.829 95.3662 482.555 95.3662 482.555C95.3662 482.555 95.3594 482.624 95.3449 482.751C95.3279 482.907 95.3014 483.15 95.2673 483.465C95.1949 484.148 95.0858 485.162 94.9606 486.339V486.364C94.9606 486.4 94.9529 486.437 94.9495 486.472C94.5072 490.663 93.8817 496.798 93.9405 497.436C94.03 498.424 92.6835 522.213 92.6835 525.151Z" fill="#385369"/>
<path d="M102.025 552.919L101.658 556.71C101.658 556.71 101.339 557.244 97.9604 557.351C94.5814 557.458 94.0403 556.149 94.0403 556.149L93.8937 552.729C93.8937 552.729 96.8585 554.281 102.025 552.919Z" fill="#4F7594"/>
<path d="M113.055 553.062L113.396 556.611C113.396 556.611 113.694 557.111 116.857 557.211C120.019 557.311 120.521 556.086 120.521 556.086L120.658 552.887C120.658 552.887 117.891 554.339 113.055 553.062Z" fill="#4F7594"/>
<path d="M131.556 487.465L132.525 489.889L109.308 500.909L108.339 498.487L131.556 487.465ZM110.215 499.615C110.334 499.559 110.428 499.454 110.476 499.324C110.524 499.193 110.522 499.047 110.471 498.918C110.433 498.823 110.369 498.742 110.288 498.686C110.208 498.63 110.114 498.601 110.018 498.603C109.922 498.604 109.829 498.637 109.75 498.696C109.671 498.755 109.61 498.838 109.575 498.935C109.54 499.031 109.531 499.137 109.551 499.239C109.571 499.34 109.618 499.433 109.686 499.506C109.755 499.579 109.842 499.628 109.936 499.647C110.03 499.667 110.127 499.655 110.215 499.615Z" fill="#FAB546"/>
<path d="M71.3839 456.875C71.3839 456.875 72.4509 457.211 72.8906 457.701C73.3304 458.191 73.7062 454.229 73.7062 454.229L71.3839 456.875Z" fill="#EEA886"/>
<path d="M74.2343 454.596C74.2343 454.596 73.6948 452.143 73.6019 451.771C73.509 451.4 72.7625 450.697 71.8413 449.97C70.9201 449.244 69.3776 448.713 69.1944 448.789C69.0111 448.865 68.793 448.847 68.5075 449.298C68.3307 449.6 68.228 449.946 68.2092 450.303C68.2092 450.303 67.6178 450.68 67.6485 451.364C67.4861 451.493 67.3625 451.671 67.2931 451.876C67.2237 452.081 67.2115 452.303 67.2582 452.516C67.2582 452.516 66.7383 452.904 66.8917 453.453C66.8917 453.453 67.6391 454.159 67.8462 454.507C68.0533 454.856 69.6997 456.208 71.4603 457.241C71.4586 457.241 73.3616 458.464 74.2343 454.596Z" fill="#EEA886"/>
<path d="M71.2231 452.903C71.2231 452.903 70.9675 454.138 71.0527 454.524C71.1379 454.911 68.704 454.828 68.704 454.828C68.704 454.828 69.8375 452.601 71.2231 452.903Z" fill="#CF8C6C"/>
<path d="M69.4399 448.978C69.4399 448.978 71.734 450.882 71.4988 451.32C71.2636 451.758 70.9312 451.768 70.9312 451.768L71.5499 453.018C71.5499 453.018 71.5312 454.098 70.4583 453.757C70.4583 453.757 70.5367 454.768 69.5362 454.307C69.5362 454.307 69.3146 454.999 68.8169 454.874C68.3192 454.749 66.8892 453.46 66.8892 453.46C66.8892 453.46 66.7 453.039 67.2557 452.522C67.2557 452.522 67.0707 451.794 67.646 451.37C67.646 451.37 67.5821 450.762 68.2067 450.31C68.2067 450.31 68.1607 448.942 69.1919 448.795C69.1919 448.797 69.3436 448.896 69.4399 448.978Z" fill="#DB9C7C"/>
<path d="M71.5242 451.299C71.5242 451.299 72.6806 448.618 73.4766 447.665C73.6564 447.45 73.7067 447.355 73.9572 447.457C74.2078 447.559 74.0288 448.647 73.7962 449.547C73.5635 450.448 73.6104 451.817 73.6104 451.817C73.6104 451.817 73.1511 452.576 71.5242 451.299Z" fill="#EEA886"/>
<path d="M74.0269 456.123C74.0269 456.123 73.7576 454.942 73.8155 454.122C73.8735 453.302 70.1988 455.857 70.1988 455.857C70.1988 455.857 71.4941 457.217 72.4861 458.229C73.2769 459.036 74.0269 456.123 74.0269 456.123Z" fill="#EEA886"/>
<path d="M128.327 493.59C128.327 493.59 128.466 492.982 128.412 492.701C128.412 492.701 128.273 492.206 128.195 491.844C128.173 491.751 128.157 491.656 128.146 491.561C128.122 491.278 128.146 490.636 127.913 490.003C127.681 489.37 125.962 487.026 125.962 487.026L124.385 487.858L122.836 488.427C122.836 488.427 122.103 492.858 122.256 493.486C122.27 493.546 122.288 493.604 122.309 493.661C122.488 494.172 122.833 494.439 122.956 494.69C123.002 494.783 123.523 495.656 123.826 495.662C124.003 495.673 124.179 495.639 124.342 495.564C124.504 495.489 124.649 495.374 124.764 495.228C124.764 495.228 125.595 495.206 126.069 494.808C126.069 494.808 126.836 494.814 127.316 494.154C127.32 494.159 128.109 494.07 128.327 493.59Z" fill="#EEA886"/>
<path d="M71.5415 457.457C71.5415 457.457 78.7852 470.481 81.3751 469.784C82.5741 469.464 86.5479 466.123 88.0478 464.002C88.5429 463.303 89.0278 462.569 89.4897 461.844C91.3304 458.945 92.7732 456.166 92.7732 456.166C92.7732 456.166 98.2154 449.206 93.8495 446.109C93.8495 446.109 91.7548 445.957 90.2993 447.658C88.8437 449.359 87.6447 452.422 87.2629 453.33C86.8811 454.238 81.8429 460.781 81.5659 460.971C81.289 461.161 79.386 460.036 78.1324 458.51C76.2866 456.262 74.2796 453.226 74.2796 453.226L71.5415 457.457Z" fill="#E2581D"/>
<path d="M100.089 442.603C100.089 442.603 98.9453 442.87 103.733 447.873C103.733 447.873 107.129 443.777 107.019 443.091C106.909 442.405 100.089 442.603 100.089 442.603Z" fill="#EEA987"/>
<path d="M95.0362 485.678C95.0362 485.678 95.3864 475.676 95.2714 472.92C95.1009 468.878 94.4311 465.234 93.8848 462.843C93.884 462.837 93.8826 462.832 93.8806 462.826L93.8746 462.802C93.7323 462.18 93.5993 461.644 93.4852 461.209L90.1991 447.789C92.5051 444.96 100.17 442.577 100.17 442.577H105.596C105.596 442.577 115.112 445.775 117.446 446.755C119.781 447.735 125.055 467.001 125.131 468.105C125.216 469.307 127.398 488.052 127.398 488.052C124.564 488.269 122.115 488.527 122.115 488.527C122.115 488.527 119.958 473.032 119.664 471.429C119.445 470.232 116.222 460.491 115.983 460.621C115.745 460.752 114.102 470.698 115.751 485.458C115.75 485.459 109.156 488.161 95.0362 485.678Z" fill="#E2581D"/>
<path d="M102.632 423.356C102.632 423.356 97.5605 424.227 98.3326 432.878C99.1047 441.53 103.58 440.823 103.88 440.813C104.179 440.804 108.373 440.971 108.7 430.406C108.7 430.408 108.843 422.596 102.632 423.356Z" fill="#EEA987"/>
<path d="M100.265 438.277C100.265 438.277 100.404 441.836 100.088 442.606C99.7718 443.377 104.273 445.852 107.018 443.095C107.018 443.095 106.355 439.226 106.54 437.855C106.725 436.484 100.265 438.277 100.265 438.277Z" fill="#EEA987"/>
<path d="M98.2531 430.441C98.2531 430.441 97.6975 429.794 97.4938 430.449C97.2901 431.105 98.3554 434.03 98.2855 434.161C98.2855 434.161 98.3877 434.415 98.5207 434.276C98.6536 434.136 98.2531 430.441 98.2531 430.441Z" fill="#EEA987"/>
<path d="M108.642 430.33C108.642 430.33 109.185 429.671 109.401 430.321C109.617 430.971 108.777 433.872 108.675 434.05C108.675 434.05 108.498 434.346 108.362 434.209C108.227 434.072 108.642 430.33 108.642 430.33Z" fill="#EEA987"/>
<path d="M97.9387 429.709C98.1006 430.893 98.2574 431.774 98.2574 431.774L98.9826 432.832C98.9826 432.832 98.963 430.512 99.0789 430.151C99.1232 430.013 99.1761 429.769 99.2297 429.504C99.315 429.067 99.4104 428.579 99.4709 428.411C99.5689 428.149 103.826 426.849 107.586 428.791C107.586 428.791 107.551 429.148 107.55 429.546C107.55 430.009 107.587 430.528 107.782 430.609C108.143 430.757 107.966 433.327 107.966 433.327L108.562 432.587C108.562 432.587 108.746 431.246 108.929 429.705C108.93 429.702 108.93 429.698 108.929 429.694C108.97 429.335 109.015 428.965 109.054 428.598C109.154 427.046 109.041 424.226 107.204 422.548C105.959 421.949 103.93 421.775 100.589 422.847C100.278 422.784 99.9618 422.758 99.6456 422.77C97.5501 425.237 97.9387 429.709 97.9387 429.709Z" fill="#385369"/>
<path d="M106.172 439.693C106.172 439.693 105.351 440.907 103.475 440.839C101.598 440.77 100.794 439.693 100.794 439.693C100.794 439.693 101.662 441.727 103.475 441.727C105.287 441.727 106.172 439.693 106.172 439.693Z" fill="#A77860"/>
<path d="M97.9361 429.702C97.9361 429.702 98.3784 429.599 99.2272 429.495C100.755 429.311 103.6 429.126 107.547 429.538C107.993 429.584 108.453 429.639 108.927 429.702C108.927 429.698 108.927 429.694 108.927 429.691C108.989 429.33 109.031 428.965 109.053 428.599C109.153 427.047 109.328 424.203 107.491 422.525C106.71 421.804 105.332 421.216 103.804 421.203C101.219 421.182 100.149 421.879 99.2707 422.913C97.1734 425.377 97.9361 429.702 97.9361 429.702Z" fill="#FAB546"/>
<path d="M97.939 429.705C97.939 429.705 99.9306 430.629 103.458 430.609C106.985 430.589 108.93 429.705 108.93 429.705C108.93 429.705 106.901 428.946 103.342 428.946C99.7832 428.946 97.939 429.705 97.939 429.705Z" fill="#D99D3D"/>
<path d="M94.0561 464.822C94.0561 464.822 97.3925 463.169 98.5983 457.465H110.314C110.314 457.465 113.776 465.154 115.664 465.584C115.664 465.584 115.179 473.874 115.383 477.098C115.588 480.323 115.944 487.062 115.944 487.062C115.944 487.062 115.395 492.118 94.7813 488.09C94.7813 488.09 95.2535 474.562 95.2262 473.99C95.1989 473.418 94.1379 465.158 94.0561 464.822Z" fill="#385369"/>
<path d="M98.62 457.458C98.62 457.458 97.1875 449.521 94.2193 444.965C94.2193 444.965 94.5525 444.564 95.3331 444.433C95.3331 444.433 98.6456 449.745 99.8736 457.458C101.102 465.17 98.62 457.458 98.62 457.458Z" fill="#385369"/>
<path d="M110.198 457.458C110.198 457.458 111.23 450.092 114.197 445.532C114.197 445.532 113.804 445.248 113.024 445.117C113.024 445.117 110.172 449.74 108.945 457.455C107.718 465.17 110.198 457.458 110.198 457.458Z" fill="#385369"/>
<path d="M101.757 466.471H105.146H108.534L111.694 469.915V480.405H105.146H98.5978V469.915L101.757 466.471Z" fill="#446580"/>
<path d="M317.506 323.636L289.334 330.241L287.178 323.852L314.54 314.849L317.506 323.636Z" fill="#48494F"/>
<path d="M287.241 324.023L281.218 336.577C281.089 336.846 281.069 337.154 281.162 337.437C281.254 337.72 281.453 337.956 281.715 338.097L282.037 338.272C282.287 338.408 282.578 338.449 282.857 338.389C283.135 338.329 283.383 338.171 283.554 337.944L289.329 330.222L287.241 324.023Z" fill="#48494F"/>
<path d="M284.419 420.351C284.419 420.351 286.71 422.876 289.034 423.404C291.357 423.933 292.983 424.607 293.001 426.056C293.018 427.505 286.311 428.459 283.652 426.998C279.683 424.82 279.28 425.476 278.84 424.387C278.401 423.298 279.368 420.385 279.34 420.038C279.304 419.611 284.419 420.351 284.419 420.351Z" fill="#202338"/>
<path d="M261.062 421.019C261.062 421.019 262.747 423.479 264.999 424.046C267.221 424.605 268.659 425.668 268.768 427.08C268.878 428.491 263.532 430.331 259.776 427.863C257.308 426.238 256.387 426.331 255.891 425.299C255.395 424.266 256.152 421.374 256.102 421.039C256.04 420.615 261.062 421.019 261.062 421.019Z" fill="#202338"/>
<path d="M279.647 418.429C279.647 418.429 282.847 419.634 284.128 418.783L284.52 420.46C284.52 420.46 283.491 421.047 281.717 420.829C279.942 420.61 279.334 420.034 279.334 420.034L279.647 418.429Z" fill="#202338"/>
<path d="M256.394 419.038C256.394 419.038 260.071 420.386 261.047 419.323L261.212 421.204C261.212 421.204 260.848 421.791 259.41 421.716C257.972 421.64 256.103 421.012 256.103 421.012L256.394 419.038Z" fill="#202338"/>
<path d="M279.439 348.368C279.439 348.368 281.768 365.019 282.75 371.218C283.898 378.466 284.101 382.461 284.422 386.213C284.824 390.93 283.878 417.769 284.16 419.149C284.442 420.529 279.647 418.437 279.647 418.437C279.647 418.437 275.459 389.027 274.263 384.001C273.145 379.323 268.997 359.177 267.977 360.459C266.958 361.742 265.695 383.968 264.943 387.658C264.191 391.348 260.996 419.803 260.996 419.803C260.996 419.803 257.801 420.514 256.417 419.358C256.417 419.358 254.676 395.209 255.157 388.29C255.341 385.653 252.025 356.674 256.276 345.008C258.517 338.839 279.439 348.368 279.439 348.368Z" fill="#EEA886"/>
<path d="M279.439 348.369C279.439 348.369 281.768 365.019 282.75 371.219C283.899 378.467 284.101 382.461 284.422 386.213C284.825 390.931 285.853 417.643 285.861 419.051C285.868 420.617 278.398 419.615 278.398 419.615C278.398 419.615 275.461 389.027 274.259 384.002C273.146 379.323 268.997 359.178 267.978 360.46C266.958 361.742 265.695 383.969 264.943 387.659C264.192 391.349 262.553 420.84 262.553 420.84C262.553 420.84 256.527 420.821 255.143 419.665C255.143 419.665 254.676 395.208 255.157 388.289C255.341 385.652 252.025 356.674 256.276 345.008C258.517 338.839 279.439 348.369 279.439 348.369Z" fill="#385369"/>
<path d="M299.359 314.838C299.359 314.838 301.275 312.428 301.513 312.09C301.751 311.752 302.825 311.332 304.106 310.957C305.386 310.581 307.286 310.638 307.463 310.784C307.64 310.93 307.887 310.997 308.042 311.559C308.131 311.93 308.122 312.317 308.016 312.683C308.016 312.683 308.538 313.289 308.26 313.962C308.394 314.153 308.468 314.379 308.472 314.612C308.477 314.845 308.411 315.074 308.283 315.269C308.283 315.269 308.721 315.856 308.355 316.351C308.355 316.351 307.278 316.774 306.922 317.044C306.565 317.314 304.217 317.807 301.896 318.169C301.894 318.169 298.948 319.057 299.359 314.838Z" fill="#EEA886"/>
<path d="M301.587 319.083C301.587 319.083 291.716 322.925 290.002 323.457C288.683 323.867 287.005 325.073 283.933 323.25C282.505 322.401 280.616 320.671 278.859 318.887C278.453 318.475 278.054 318.06 277.672 317.654C275.677 315.534 274.074 313.609 273.894 313.304C273.528 312.685 266.32 307.554 271.329 304.098C272.454 303.323 276.783 301.456 279.248 304.098C281.412 306.414 282.38 310.779 282.935 311.746C283.49 312.713 286.238 317.827 286.238 317.827C286.391 318.196 290.019 317.119 290.511 316.973C291.948 316.545 299.409 314.535 299.409 314.535L301.587 319.083Z" fill="#E2581D"/>
<path d="M263.792 293.655C264.404 294.958 265.16 296.189 266.044 297.326C268.975 301.046 275.805 301.132 275.905 290.945C275.923 289.016 275.681 287.45 275.288 286.182C273.891 281.66 270.601 280.908 270.601 280.908C268.173 280.775 263.926 281.369 262.511 284.49C261.51 286.707 262.236 290.382 263.792 293.655Z" fill="#EEA987"/>
<path d="M263.793 293.655C263.793 293.655 264.143 293.747 265.403 291.233C265.656 290.728 265.851 291.089 265.96 290.865L267.97 290.092C267.97 290.092 265.983 286.81 268.582 285.899C271.232 284.971 275.286 286.177 275.286 286.177C273.891 281.66 270.602 280.908 270.602 280.908C268.174 280.775 263.927 281.369 262.512 284.49C261.511 286.707 262.237 290.382 263.793 293.655Z" fill="#665249"/>
<path d="M266.373 289.338C266.223 288.653 264.86 288.071 264.283 289.534C263.705 290.996 265.64 292.55 266.15 292.229C266.66 291.908 266.62 290.467 266.373 289.338Z" fill="#EEA987"/>
<path d="M262.085 289.458C262.085 289.458 268.545 285.047 276.074 286.619C276.074 286.619 275.626 277.321 267.051 278.914C258.994 280.412 261.807 288.408 262.085 289.458Z" fill="#E2581D"/>
<path d="M266.235 287.464C266.235 287.464 272.65 288.6 276.751 287.757C280.853 286.914 275.958 285.665 275.958 285.665C275.958 285.665 272.539 284.601 266.235 287.464Z" fill="#E2581D"/>
<path d="M271.245 301.314C271.245 301.314 276.992 302.48 277.737 303.132C278.546 303.826 280.163 310.845 280.248 312.738C280.333 314.631 279.839 322.428 279.029 325.377C278.22 328.326 277.548 340.673 278.06 344.757C278.06 344.757 267.698 347.655 255.254 346.056C255.254 346.056 256.407 332.961 255.909 328.927C255.272 323.758 253.201 312.483 253.201 312.483C253.201 312.483 253.356 304.67 254.464 303.744C255.572 302.818 264.154 301.315 264.154 301.315L271.245 301.314Z" fill="#E2581D"/>
<path d="M272.532 302.624C272.532 302.624 270.77 303.931 264.872 301.366C264.872 301.366 265.54 298.006 264.383 294.276C263.225 290.547 271.906 298.353 271.906 298.353C271.808 298.419 271.791 298.792 271.846 299.311L271.858 299.409C271.909 299.838 271.988 300.263 272.094 300.682C272.108 300.737 272.123 300.793 272.138 300.85C272.469 302.1 272.532 301.536 272.532 302.624Z" fill="#EEA886"/>
<path d="M272.095 300.682C267.87 301.217 265.564 296.722 265.498 296.589C268.39 300.752 271.86 299.41 271.86 299.41C271.911 299.839 271.989 300.263 272.095 300.682Z" fill="#A77860"/>
<path d="M272.506 301.589C272.506 301.589 273.856 303.573 271.973 303.911C270.09 304.248 266.247 303.836 264.151 301.319C264.151 301.319 269.729 300.469 272.506 301.589Z" fill="#EEA886"/>
<path d="M279.369 323.763L275.514 315.08H265.495C265.495 315.08 260.91 323.665 255.581 326.525C255.581 326.525 255.027 346.526 254.666 352.601C254.666 352.601 259.472 353.504 267.372 353.622C275.273 353.741 280.465 355.645 280.465 355.645C280.465 355.645 278.559 342.278 278.524 340.741C278.489 339.204 278.958 326.832 279.369 323.763Z" fill="#385369"/>
<path d="M264.645 316.555C264.645 316.555 265.109 306.41 259.626 302.206C260.167 301.991 260.742 301.872 261.324 301.854C261.324 301.854 265.787 303.616 267.044 315.085C268.301 326.555 264.645 316.555 264.645 316.555Z" fill="#385369"/>
<path d="M275.064 315.079C275.064 315.079 276.118 306.863 273.945 301.913C273.945 301.913 274.924 302.146 275.481 302.305C275.481 302.305 277.732 305.224 276.638 317.615C275.544 330.005 275.064 315.079 275.064 315.079Z" fill="#385369"/>
<path d="M254.466 303.745C254.466 303.745 252.253 305.186 252.445 307.89C252.637 310.593 254.255 318.424 254.255 318.424L254.466 303.745Z" fill="#E2581D"/>
<path d="M307.639 317.251L305.519 317.949L302.866 310.087L304.985 309.39L307.639 317.251Z" fill="#202338"/>
<path d="M305.484 310.105L302.898 310.955L302.636 310.178L305.221 309.328L305.484 310.105Z" fill="#202338"/>
<path d="M301.844 319.025L304.309 326.73L317.506 323.636L314.54 314.849L301.844 319.025Z" fill="#CC8A23"/>
<path d="M313.159 326.033C316.932 329.144 322.544 328.646 325.694 324.92C326.442 324.038 327.008 323.016 327.357 321.912C327.706 320.809 327.832 319.648 327.727 318.495C327.622 317.343 327.289 316.223 326.746 315.201C326.204 314.179 325.464 313.275 324.568 312.543C320.795 309.432 315.183 309.93 312.032 313.655C311.283 314.538 310.718 315.56 310.369 316.664C310.02 317.767 309.895 318.929 310 320.081C310.105 321.233 310.438 322.353 310.981 323.375C311.523 324.397 312.264 325.301 313.159 326.033Z" fill="#E2E6F7"/>
<path d="M314.789 324.112C316.087 325.179 317.753 325.695 319.428 325.546C321.103 325.397 322.652 324.597 323.742 323.317C324.277 322.687 324.68 321.956 324.929 321.168C325.179 320.38 325.269 319.55 325.194 318.727C325.119 317.904 324.881 317.104 324.493 316.374C324.106 315.644 323.577 314.999 322.937 314.475C321.639 313.408 319.972 312.893 318.298 313.042C316.623 313.19 315.074 313.991 313.983 315.27C313.449 315.9 313.045 316.631 312.796 317.419C312.547 318.207 312.457 319.037 312.532 319.86C312.607 320.683 312.845 321.483 313.233 322.213C313.62 322.943 314.149 323.588 314.789 324.112Z" fill="#BDC0CF"/>
<path d="M312.996 326.717L325.219 312.262C321.049 308.824 314.932 309.272 311.556 313.264C308.18 317.255 308.826 323.28 312.996 326.717Z" fill="#FAB546"/>
<path d="M316.563 322.429L321.939 316.072C320.106 314.561 317.415 314.757 315.931 316.512C314.446 318.267 314.73 320.919 316.563 322.429Z" fill="#E09E34"/>
<path d="M305.663 318.527L305.892 319.206L303.309 320.057L303.079 319.377L305.663 318.527Z" fill="#48494F"/>
<path d="M306.035 319.612L306.265 320.292L303.681 321.141L303.451 320.462L306.035 319.612Z" fill="#48494F"/>
<path d="M307.119 310.867C307.119 310.867 303.899 311.898 304.003 312.433C304.107 312.968 304.473 313.099 304.473 313.099L303.341 314.116C303.341 314.116 302.979 315.209 304.289 315.28C304.289 315.28 303.842 316.265 305.116 316.186C305.116 316.186 305.116 316.969 305.711 317.031C306.306 317.094 308.354 316.346 308.354 316.346C308.354 316.346 308.714 315.997 308.282 315.265C308.282 315.265 308.746 314.605 308.259 313.958C308.259 313.958 308.546 313.371 308.015 312.679C308.015 312.679 308.553 311.323 307.462 310.78C307.46 310.781 307.255 310.823 307.119 310.867Z" fill="#DB9C7C"/>
<path d="M301.609 312.062C301.609 312.062 303.903 312.429 305.067 313.171C305.33 313.339 305.556 313.549 305.495 313.857C305.435 314.164 304.914 314.464 303.913 314.356C302.911 314.247 301.563 314.56 301.563 314.56C301.563 314.56 300.569 314.148 301.609 312.062Z" fill="#EEA886"/>
<path d="M279.861 319.88C279.861 319.88 280.275 314.399 280.253 313.48C280.819 316 281.142 318.569 281.216 321.151L279.861 319.88Z" fill="#CF5D20"/>
<path d="M265.274 337.21C265.274 337.21 271.922 337.866 276.628 336.904L277.176 324.979L275.105 323.056H268.14L264.302 325.353L265.274 337.21Z" fill="#456682"/>
<path d="M286.218 337.557C286.218 337.557 285.504 337.64 285.174 337.527C285.174 337.527 284.587 337.275 284.165 337.12C284.056 337.079 283.945 337.044 283.831 337.015C283.499 336.941 282.747 336.878 281.999 336.482C281.251 336.086 278.476 333.554 278.476 333.554L279.434 331.683L280.079 329.804C280.079 329.804 285.271 329.553 286.011 329.843C286.082 329.871 286.151 329.904 286.218 329.941C286.82 330.246 287.138 330.724 287.435 330.92C287.544 330.993 288.578 331.786 288.589 332.172C288.606 332.708 288.394 333.087 288.093 333.298C288.093 333.298 288.079 334.348 287.618 334.89C287.618 334.89 287.638 335.86 286.869 336.371C286.866 336.368 286.774 337.353 286.218 337.557Z" fill="#EEA886"/>
<path d="M255.417 303.388C256.845 303.166 261.411 304.792 261.368 308.339C261.333 311.292 261.977 313.527 262.053 314.694C262.129 315.86 263.275 323.601 264.078 324.22C265.095 325.003 270.4 326.654 270.894 326.875C272.598 327.636 280.743 329.695 280.743 329.695L280.142 335.808C280.142 335.808 262.247 331.546 260.303 330.51C259.022 329.825 257.049 328.865 256.032 325.278C254.999 321.632 252.723 314.623 252.665 313.87C252.608 313.118 249.058 304.376 255.417 303.388Z" fill="#E2581D"/>
<path d="M626.083 348.814H222.766C214.827 348.814 207.808 353.474 197.632 369.719L125.784 477C97.4614 522.12 126.213 531.193 134.152 531.193H643.738C648.037 510.524 650.205 489.468 650.206 468.357C650.281 427.293 642.076 386.636 626.083 348.814V348.814Z" fill="white"/>
<path opacity="0.1" d="M650.207 468.359H131.577L125.784 476.88C122.75 481.624 120.105 486.606 117.876 491.777H649.318C649.9 484.022 650.207 476.144 650.207 468.359Z" fill="black"/>
<path opacity="0.1" d="M113.708 506.95H647.786C648.123 504.283 648.399 501.647 648.674 498.98H115.271C114.499 501.582 113.976 504.25 113.708 506.95Z" fill="black"/>
<path d="M269.878 535.174C269.878 536.231 269.458 537.244 268.711 537.991C267.963 538.739 266.95 539.158 265.893 539.158H161.891C160.835 539.158 159.821 538.739 159.074 537.991C158.326 537.244 157.907 536.231 157.907 535.174C157.907 534.117 158.326 533.103 159.074 532.356C159.821 531.609 160.835 531.189 161.891 531.189H265.893C266.95 531.189 267.963 531.609 268.711 532.356C269.458 533.103 269.878 534.117 269.878 535.174Z" fill="#DADADA"/>
<path d="M190.795 543.55C190.795 545.975 190.076 548.345 188.728 550.362C187.381 552.378 185.466 553.949 183.226 554.877C180.986 555.805 178.52 556.048 176.142 555.575C173.764 555.102 171.579 553.934 169.864 552.219C168.15 550.505 166.982 548.32 166.509 545.942C166.036 543.563 166.279 541.098 167.207 538.858C168.135 536.617 169.706 534.703 171.722 533.355C173.739 532.008 176.109 531.289 178.534 531.289C181.786 531.289 184.904 532.581 187.204 534.88C189.503 537.179 190.795 540.298 190.795 543.55Z" fill="#273438"/>
<path d="M182.826 543.551C182.826 544.418 182.569 545.265 182.088 545.986C181.606 546.707 180.921 547.269 180.121 547.6C179.32 547.932 178.438 548.019 177.588 547.85C176.738 547.681 175.957 547.263 175.344 546.65C174.731 546.037 174.313 545.256 174.144 544.406C173.975 543.556 174.062 542.674 174.394 541.873C174.725 541.072 175.287 540.388 176.008 539.906C176.729 539.425 177.576 539.167 178.443 539.167C179.606 539.167 180.721 539.629 181.543 540.451C182.365 541.273 182.826 542.388 182.826 543.551Z" fill="#CBD6D8"/>
<path d="M260.314 543.55C260.314 545.975 259.595 548.345 258.248 550.362C256.9 552.378 254.985 553.949 252.745 554.877C250.505 555.805 248.04 556.048 245.661 555.575C243.283 555.102 241.098 553.934 239.383 552.219C237.669 550.505 236.501 548.32 236.028 545.942C235.555 543.563 235.798 541.098 236.726 538.858C237.654 536.617 239.225 534.703 241.241 533.355C243.258 532.008 245.628 531.289 248.053 531.289C251.305 531.289 254.423 532.581 256.723 534.88C259.022 537.179 260.314 540.298 260.314 543.55Z" fill="#273438"/>
<path d="M252.284 543.54C252.284 544.413 252.022 545.266 251.534 545.99C251.045 546.714 250.351 547.275 249.541 547.602C248.731 547.929 247.842 548.006 246.988 547.824C246.134 547.642 245.353 547.209 244.747 546.581C244.141 545.952 243.736 545.157 243.584 544.297C243.433 543.437 243.542 542.551 243.897 541.753C244.253 540.956 244.838 540.282 245.579 539.82C246.319 539.357 247.182 539.126 248.054 539.156C249.19 539.196 250.266 539.676 251.055 540.493C251.844 541.311 252.285 542.403 252.284 543.54Z" fill="#CBD6D8"/>
<path d="M461.45 535.174C461.45 536.231 461.031 537.244 460.283 537.991C459.536 538.739 458.523 539.158 457.466 539.158H353.464C352.407 539.158 351.394 538.739 350.646 537.991C349.899 537.244 349.479 536.231 349.479 535.174C349.479 534.117 349.899 533.103 350.646 532.356C351.394 531.609 352.407 531.189 353.464 531.189H457.466C458.523 531.189 459.536 531.609 460.283 532.356C461.031 533.103 461.45 534.117 461.45 535.174Z" fill="#DADADA"/>
<path d="M382.371 543.55C382.371 545.975 381.652 548.345 380.305 550.362C378.957 552.378 377.042 553.949 374.802 554.877C372.562 555.805 370.097 556.048 367.718 555.575C365.34 555.102 363.155 553.934 361.44 552.219C359.726 550.505 358.558 548.32 358.085 545.942C357.612 543.563 357.855 541.098 358.783 538.858C359.711 536.617 361.282 534.703 363.298 533.355C365.315 532.008 367.685 531.289 370.11 531.289C373.362 531.289 376.48 532.581 378.78 534.88C381.079 537.179 382.371 540.298 382.371 543.55Z" fill="#273438"/>
<path d="M374.399 543.551C374.399 544.418 374.142 545.265 373.66 545.986C373.179 546.707 372.494 547.269 371.693 547.6C370.892 547.932 370.011 548.019 369.161 547.85C368.31 547.681 367.529 547.263 366.916 546.65C366.303 546.037 365.886 545.256 365.717 544.406C365.548 543.556 365.634 542.674 365.966 541.873C366.298 541.072 366.86 540.388 367.581 539.906C368.301 539.425 369.149 539.167 370.016 539.167C370.591 539.167 371.161 539.281 371.693 539.501C372.225 539.721 372.708 540.044 373.115 540.451C373.522 540.858 373.845 541.342 374.065 541.873C374.286 542.405 374.399 542.975 374.399 543.551Z" fill="#CBD6D8"/>
<path d="M451.798 543.55C451.798 545.975 451.079 548.345 449.732 550.362C448.385 552.378 446.47 553.949 444.23 554.877C441.989 555.805 439.524 556.048 437.146 555.575C434.767 555.102 432.583 553.934 430.868 552.219C429.153 550.505 427.986 548.32 427.512 545.942C427.039 543.563 427.282 541.098 428.21 538.858C429.138 536.617 430.71 534.703 432.726 533.355C434.742 532.008 437.113 531.289 439.538 531.289C442.789 531.289 445.908 532.581 448.207 534.88C450.507 537.179 451.798 540.298 451.798 543.55Z" fill="#273438"/>
<path d="M443.858 543.551C443.858 544.418 443.601 545.265 443.119 545.986C442.637 546.707 441.953 547.269 441.152 547.6C440.351 547.932 439.47 548.019 438.619 547.85C437.769 547.681 436.988 547.263 436.375 546.65C435.762 546.037 435.345 545.256 435.176 544.406C435.006 543.556 435.093 542.674 435.425 541.873C435.757 541.072 436.319 540.388 437.039 539.906C437.76 539.425 438.608 539.167 439.475 539.167C440.637 539.167 441.752 539.629 442.574 540.451C443.396 541.273 443.858 542.388 443.858 543.551Z" fill="#CBD6D8"/>
<path d="M641.04 535.174C641.04 535.697 640.937 536.215 640.737 536.699C640.536 537.182 640.243 537.621 639.873 537.991C639.503 538.361 639.063 538.655 638.58 538.855C638.097 539.055 637.578 539.158 637.055 539.158H533.115C532.063 539.15 531.058 538.727 530.317 537.981C529.576 537.234 529.161 536.225 529.161 535.174C529.161 534.122 529.576 533.113 530.317 532.367C531.058 531.62 532.063 531.197 533.115 531.189H637.116C638.173 531.189 639.187 531.609 639.934 532.356C640.681 533.103 641.101 534.117 641.101 535.174H641.04Z" fill="#DADADA"/>
<path d="M561.961 543.55C561.961 545.975 561.242 548.345 559.894 550.362C558.547 552.378 556.632 553.949 554.392 554.877C552.152 555.805 549.686 556.048 547.308 555.575C544.93 555.102 542.745 553.934 541.03 552.219C539.316 550.505 538.148 548.32 537.675 545.942C537.202 543.563 537.445 541.098 538.372 538.858C539.3 536.617 540.872 534.703 542.888 533.355C544.904 532.008 547.275 531.289 549.7 531.289C552.952 531.289 556.07 532.581 558.37 534.88C560.669 537.179 561.961 540.298 561.961 543.55Z" fill="#273438"/>
<path d="M553.99 543.551C553.99 544.418 553.733 545.265 553.251 545.986C552.769 546.707 552.085 547.269 551.284 547.6C550.483 547.932 549.602 548.019 548.751 547.85C547.901 547.681 547.12 547.263 546.507 546.65C545.894 546.037 545.477 545.256 545.307 544.406C545.138 543.556 545.225 542.674 545.557 541.873C545.889 541.072 546.45 540.388 547.171 539.906C547.892 539.425 548.74 539.167 549.606 539.167C550.769 539.167 551.884 539.629 552.706 540.451C553.528 541.273 553.99 542.388 553.99 543.551Z" fill="#CBD6D8"/>
<path d="M631.416 543.55C631.416 545.975 630.697 548.345 629.349 550.362C628.002 552.378 626.087 553.949 623.847 554.877C621.607 555.805 619.141 556.048 616.763 555.575C614.385 555.102 612.2 553.934 610.485 552.219C608.771 550.505 607.603 548.32 607.13 545.942C606.657 543.563 606.9 541.098 607.828 538.858C608.756 536.617 610.327 534.703 612.343 533.355C614.36 532.008 616.73 531.289 619.155 531.289C622.407 531.289 625.525 532.581 627.825 534.88C630.124 537.179 631.416 540.298 631.416 543.55Z" fill="#273438"/>
<path d="M623.448 543.539C623.447 544.4 623.193 545.243 622.717 545.961C622.24 546.679 621.563 547.24 620.769 547.575C619.975 547.91 619.1 548.004 618.253 547.845C617.407 547.685 616.626 547.28 616.008 546.679C615.39 546.078 614.964 545.309 614.781 544.467C614.598 543.625 614.668 542.747 614.981 541.945C615.294 541.142 615.836 540.449 616.541 539.953C617.245 539.457 618.08 539.18 618.942 539.156C619.528 539.139 620.111 539.24 620.657 539.453C621.203 539.666 621.701 539.987 622.121 540.395C622.541 540.804 622.875 541.293 623.103 541.833C623.331 542.372 623.448 542.953 623.448 543.539Z" fill="#CBD6D8"/>
<path d="M262.889 367.444H232.237C224.299 367.444 223.839 373.145 217.862 381.82L194.505 420.134C194.178 421.897 194.178 423.705 194.505 425.468C194.959 427.329 195.9 429.036 197.23 430.415C198.56 431.793 200.232 432.794 202.076 433.315C202.972 433.649 203.895 433.905 204.835 434.081C206.227 434.365 207.644 434.509 209.065 434.51H262.889C266.697 434.502 270.345 432.984 273.035 430.289C275.724 427.594 277.234 423.942 277.234 420.134V381.82C277.234 378.012 275.724 374.36 273.035 371.665C270.345 368.97 266.697 367.452 262.889 367.444Z" fill="#88BFB7"/>
<path d="M364.869 374.586C363.929 372.966 362.679 371.548 361.19 370.412C359.702 369.276 358.004 368.445 356.194 367.965C354.988 367.62 353.74 367.445 352.485 367.444H308.194C304.381 367.444 300.724 368.958 298.028 371.654C295.332 374.35 293.818 378.007 293.818 381.82V420.134C293.802 422.033 294.161 423.915 294.877 425.673C295.592 427.432 296.648 429.031 297.985 430.379C299.321 431.727 300.911 432.797 302.664 433.527C304.416 434.257 306.295 434.633 308.194 434.633H352.485C356.298 434.633 359.955 433.118 362.651 430.422C365.347 427.726 366.861 424.07 366.861 420.257V381.82C366.86 379.273 366.171 376.774 364.869 374.586Z" fill="#88BFB7"/>
<path d="M436.286 367.444H392.116C388.304 367.444 384.647 368.959 381.951 371.655C379.255 374.351 377.74 378.007 377.74 381.82V420.135C377.748 421.25 377.882 422.36 378.139 423.445C378.649 425.594 379.645 427.597 381.051 429.3C381.537 429.903 382.081 430.458 382.675 430.955C385.27 433.289 388.627 434.596 392.116 434.633H436.408C440.221 434.633 443.877 433.119 446.573 430.423C449.269 427.727 450.784 424.07 450.784 420.257V381.82C450.784 379.922 450.408 378.042 449.678 376.29C448.948 374.538 447.878 372.948 446.53 371.611C445.182 370.275 443.583 369.218 441.825 368.503C440.066 367.788 438.184 367.428 436.286 367.444Z" fill="#88BFB7"/>
<path d="M521.315 367.444H476.993C475.104 367.44 473.233 367.809 471.487 368.53C469.741 369.251 468.154 370.31 466.819 371.645C465.483 372.981 464.424 374.568 463.703 376.313C462.982 378.059 462.613 379.931 462.617 381.82V420.134C462.597 422.034 462.954 423.918 463.668 425.678C464.381 427.438 465.437 429.039 466.775 430.388C468.112 431.737 469.704 432.807 471.458 433.535C473.212 434.264 475.093 434.637 476.993 434.633H521.315C525.123 434.625 528.771 433.106 531.461 430.411C534.15 427.716 535.66 424.064 535.66 420.257V381.82C535.66 378.012 534.15 374.36 531.461 371.665C528.771 368.97 525.123 367.452 521.315 367.444Z" fill="#88BFB7"/>
<path d="M246.829 386.45C244.868 384.213 240.699 384.58 237.848 387.216L194.721 425.439C195.152 427.281 196.058 428.977 197.349 430.359C198.64 431.741 200.27 432.761 202.078 433.317L244.99 395.247C246.371 394.3 247.333 392.857 247.676 391.218C248.019 389.579 247.715 387.871 246.829 386.45Z" fill="#CCFEF8"/>
<path d="M243.487 403.989C242.715 403.363 241.732 403.062 240.742 403.148C239.753 403.233 238.836 403.7 238.184 404.449L204.773 434.058C206.165 434.342 207.582 434.486 209.003 434.487H213.846L242.383 409.2C243.195 408.634 243.761 407.78 243.966 406.813C244.171 405.845 243.999 404.835 243.487 403.989Z" fill="#CCFEF8"/>
<path d="M356.193 367.98L306.292 412.149C304.905 413.091 303.938 414.535 303.595 416.176C303.252 417.817 303.559 419.528 304.453 420.946C306.414 423.184 310.583 422.816 313.403 420.18L364.867 374.601C363.927 372.982 362.677 371.563 361.189 370.427C359.701 369.291 358.003 368.46 356.193 367.98Z" fill="#CCFEF8"/>
<path d="M470.738 396.962C467.673 399.628 466.937 403.552 468.899 405.759C470.86 407.966 475.029 407.628 477.849 404.992L520.21 367.444H504.056L470.738 396.962Z" fill="#CCFEF8"/>
<path d="M532.872 413.43C532.101 412.804 531.117 412.503 530.128 412.589C529.139 412.674 528.221 413.141 527.569 413.89L504.304 434.641H513.868L531.768 418.733C532.192 418.459 532.557 418.105 532.843 417.689C533.128 417.274 533.328 416.806 533.43 416.312C533.533 415.819 533.537 415.31 533.441 414.815C533.345 414.32 533.152 413.849 532.872 413.43Z" fill="#CCFEF8"/>
<path d="M606.313 367.444H562.021C558.208 367.444 554.552 368.959 551.856 371.655C549.16 374.351 547.645 378.007 547.645 381.82V420.135C547.656 423.172 548.629 426.129 550.424 428.579C552.219 431.03 554.744 432.849 557.638 433.775C559.077 434.269 560.59 434.518 562.113 434.51H606.405C610.217 434.51 613.874 432.996 616.57 430.3C619.266 427.604 620.78 423.947 620.78 420.135V381.82C620.78 379.924 620.405 378.047 619.677 376.297C618.949 374.547 617.882 372.958 616.537 371.622C615.193 370.286 613.597 369.229 611.842 368.512C610.087 367.795 608.208 367.432 606.313 367.444Z" fill="#88BFB7"/>
<path d="M613.607 391.268C612.299 390.223 610.639 389.722 608.971 389.87C607.304 390.019 605.758 390.805 604.656 392.065L557.636 433.782C559.076 434.277 560.589 434.525 562.112 434.518H572.962L611.798 400.065C613.174 399.114 614.13 397.668 614.467 396.029C614.804 394.391 614.495 392.685 613.607 391.268Z" fill="#CCFEF8"/>
<path d="M435.614 401.473C434.398 400.53 432.872 400.08 431.338 400.21C429.805 400.341 428.377 401.043 427.338 402.178L390.862 434.638H405.82L433.897 409.749C435.191 408.853 436.09 407.494 436.41 405.954C436.729 404.413 436.445 402.809 435.614 401.473Z" fill="#CCFEF8"/>
<path d="M241.031 449.878C241.031 449.878 240.316 447.524 240.218 447.161C240.12 446.798 240.447 445.802 240.922 444.692C241.396 443.582 242.525 442.301 242.727 442.259C242.93 442.218 243.116 442.09 243.594 442.315C244.073 442.541 244.308 443.041 244.308 443.041C244.308 443.041 245.057 443.041 245.363 443.629C245.363 443.629 246.029 443.707 246.269 444.436C246.269 444.436 246.949 444.385 247.082 444.929C247.082 444.929 246.756 445.929 246.739 446.333C246.723 446.738 245.717 448.663 244.635 450.488C244.635 450.488 243.708 452.657 241.031 449.878Z" fill="#EEA886"/>
<path d="M244.449 450.943C244.449 450.943 240.374 463.418 238.584 465.316C237.729 466.219 236.5 466.549 233.616 465.159C232.664 464.7 231.465 463.858 230.235 462.88C229.83 462.559 229.423 462.223 229.018 461.881L228.727 461.632C228.33 461.292 227.939 460.949 227.56 460.613C225.601 458.855 224.006 457.242 223.82 456.979C223.44 456.447 216.589 452.409 220.718 448.794C221.645 447.984 225.315 445.888 227.737 448.074C229.864 449.996 231.111 453.896 231.693 454.731C232.275 455.565 235.175 459.275 235.175 459.275C235.343 459.597 237.557 455.965 237.702 455.52C238.335 453.594 240.237 449.11 240.237 449.11L244.449 450.943Z" fill="#385369"/>
<path d="M229.38 475.9C228.977 475.9 228.577 475.842 228.192 475.728C226.278 475.168 224.423 473.333 222.675 470.273C220.74 466.884 219.029 462.128 217.588 456.136C217.013 453.784 217.358 451.314 218.559 449.184C219.698 447.178 221.49 445.738 223.472 445.229C225.628 444.677 227.838 445.283 229.692 446.928C231.849 448.831 233.495 452.011 234.594 456.374C235.56 460.225 235.828 464.039 235.371 467.404C234.944 470.55 233.897 473.084 232.423 474.54C231.507 475.441 230.473 475.9 229.38 475.9ZM225.057 446.024C224.601 446.024 224.148 446.08 223.709 446.192C220.361 447.044 217.413 451.239 218.533 455.895C219.952 461.795 221.629 466.463 223.517 469.769C225.111 472.56 226.821 474.289 228.459 474.77C229.649 475.118 230.752 474.801 231.738 473.828C233.058 472.525 234.003 470.196 234.399 467.268C234.84 464.029 234.577 460.346 233.643 456.619C232.615 452.515 231.029 449.421 229.054 447.679C227.616 446.401 226.214 446.024 225.057 446.024Z" fill="#F3F3F3"/>
<path d="M230.026 476.558C229.611 476.557 229.198 476.495 228.803 476.374C226.895 475.796 225.056 473.944 223.335 470.869C221.429 467.466 219.76 462.691 218.371 456.686C217.817 454.329 218.184 451.863 219.404 449.742C220.562 447.747 222.365 446.323 224.352 445.837C226.512 445.308 228.718 445.929 230.56 447.591C232.699 449.516 234.314 452.709 235.369 457.083C236.301 460.946 236.536 464.758 236.05 468.119C235.595 471.26 234.527 473.786 233.037 475.228C232.132 476.104 231.107 476.558 230.026 476.558ZM225.881 446.637C225.443 446.637 225.007 446.691 224.583 446.795C221.229 447.616 218.244 451.784 219.323 456.451C220.691 462.364 222.326 467.046 224.183 470.369C225.751 473.175 227.445 474.92 229.081 475.414C230.268 475.774 231.374 475.467 232.368 474.502C233.698 473.215 234.663 470.892 235.089 467.967C235.558 464.733 235.328 461.049 234.427 457.313C233.427 453.198 231.872 450.091 229.914 448.324C228.465 447.021 227.047 446.637 225.881 446.637Z" fill="#E0E0E0"/>
<path d="M227.79 476.691C227.268 476.687 226.751 476.586 226.271 476.391C224.416 475.655 222.728 473.662 221.256 470.456C219.626 466.905 218.341 462.011 217.429 455.912C217.062 453.528 217.623 451.098 219.008 449.076C220.319 447.182 222.229 445.911 224.249 445.588C226.444 445.238 228.592 446.04 230.298 447.846C232.271 449.939 233.631 453.255 234.338 457.705C234.962 461.628 234.895 465.451 234.143 468.762C233.442 471.856 232.177 474.285 230.582 475.601C229.701 476.323 228.753 476.691 227.79 476.691ZM225.263 446.5C224.972 446.5 224.681 446.523 224.394 446.57C220.986 447.114 217.681 451.023 218.387 455.766C219.283 461.771 220.544 466.573 222.134 470.038C223.477 472.963 225.027 474.84 226.618 475.464C227.773 475.924 228.899 475.704 229.966 474.82C231.393 473.644 232.539 471.409 233.192 468.53C233.914 465.343 233.976 461.652 233.373 457.855C232.708 453.672 231.4 450.447 229.588 448.529C228.076 446.93 226.509 446.5 225.263 446.5Z" fill="#DBDBDB"/>
<path d="M226.759 477.279C226.237 477.275 225.72 477.174 225.24 476.979C223.384 476.243 221.696 474.249 220.225 471.043C218.595 467.493 217.309 462.599 216.398 456.5C216.029 454.116 216.59 451.686 217.975 449.664C219.286 447.77 221.196 446.499 223.215 446.176C225.411 445.826 227.559 446.628 229.264 448.434C231.243 450.531 232.604 453.841 233.31 458.289C233.933 462.211 233.866 466.035 233.116 469.345C232.414 472.44 231.149 474.868 229.553 476.184C228.674 476.911 227.726 477.279 226.759 477.279ZM217.362 456.351C218.258 462.356 219.518 467.158 221.108 470.622C222.451 473.548 224.002 475.426 225.593 476.048C226.746 476.508 227.873 476.288 228.941 475.404C230.368 474.228 231.513 471.993 232.166 469.113C232.888 465.927 232.951 462.236 232.347 458.439C231.683 454.256 230.373 451.031 228.563 449.113C226.669 447.107 224.693 446.938 223.368 447.149C219.96 447.701 216.655 451.611 217.362 456.351Z" fill="#C7C7C7"/>
<path d="M242.734 555.764C242.734 555.764 245.463 558.034 247.759 558.541C250.056 559.049 251.258 560.243 251.277 561.629C251.297 563.016 244.669 563.928 242.044 562.532C238.123 560.446 237.724 561.075 237.29 560.031C236.856 558.987 237.204 556.226 237.176 555.893C237.138 555.484 242.734 555.764 242.734 555.764Z" fill="#2E2626"/>
<path d="M210.102 557.586C210.102 557.586 211.801 560.204 213.957 560.73C216.083 561.25 216.867 562.074 216.97 563.381C217.073 564.687 211.958 566.397 208.363 564.102C206.001 562.595 205.121 562.681 204.645 561.722C204.17 560.764 204.53 558.067 204.482 557.756C204.427 557.372 210.102 557.586 210.102 557.586Z" fill="#2E2626"/>
<path d="M229.09 490.135C229.09 490.135 234.366 505.18 236.218 510.699C238.652 517.964 240.494 524.402 240.8 527.885C241.189 532.264 243.352 554.095 243.619 555.373C243.885 556.651 236.394 556.224 236.394 556.224C236.394 556.224 232.178 530.166 231.031 525.503C229.962 521.16 219.84 501.461 218.865 502.647C217.889 503.832 214.648 523.996 213.925 527.421C213.202 530.846 211.269 557.806 211.269 557.806C211.269 557.806 204.691 558.879 203.368 557.806C203.368 557.806 204.405 533.766 204.865 527.345C205.04 524.898 203.344 498.051 207.409 487.225C209.56 481.503 229.09 490.135 229.09 490.135Z" fill="#E2581D"/>
<path d="M221.22 446.256C221.22 446.256 226.338 447.326 227.001 447.925C227.723 448.563 229.163 455.007 229.237 456.748C229.311 458.488 228.872 465.651 228.151 468.355C227.43 471.06 226.832 482.403 227.287 486.151C227.287 486.151 218.054 488.812 206.975 487.346C206.975 487.346 208.001 475.319 207.558 471.614C206.991 466.865 205.145 456.511 205.145 456.511C205.145 456.511 205.283 449.338 206.269 448.485C207.255 447.631 214.897 446.254 214.897 446.254L221.22 446.256Z" fill="#385369"/>
<path d="M222.347 446.496C222.347 446.496 223.55 448.318 221.873 448.628C220.195 448.938 216.771 448.56 214.904 446.248C214.901 446.248 219.984 445.798 222.347 446.496Z" fill="#EEA886"/>
<path d="M228.458 466.868L225.024 458.896H216.099C216.099 458.896 212.012 466.776 207.266 469.404C207.266 469.404 206.572 486.012 206.25 491.592C206.25 491.592 210.733 494.182 217.772 494.29C224.81 494.399 230.637 494.559 230.637 494.559C230.637 494.559 227.737 483.872 227.705 482.46C227.674 481.047 228.092 469.684 228.458 466.868Z" fill="#E2581D"/>
<path d="M215.341 460.242C215.341 460.242 215.754 450.926 210.87 447.065C211.348 446.869 211.861 446.759 212.381 446.742C212.381 446.742 216.358 448.362 217.478 458.896C218.598 469.429 215.341 460.242 215.341 460.242Z" fill="#E2581D"/>
<path d="M224.623 458.896C224.623 458.896 225.561 451.35 223.625 446.804C223.625 446.804 224.5 447.018 224.994 447.162C224.994 447.162 227.001 449.844 226.025 461.224C225.049 472.604 224.623 458.896 224.623 458.896Z" fill="#E2581D"/>
<path d="M206.271 448.477C206.271 448.477 204.3 449.801 204.471 452.284C204.643 454.767 206.088 461.958 206.088 461.958L206.271 448.477Z" fill="#E2581D"/>
<path d="M202.327 500.659L201.841 499.796C217.155 490.931 229.054 481.636 237.195 472.171C245.268 462.791 247.287 455.966 247.772 452.733C248.139 450.297 247.876 448.319 247.072 447.44C241.952 441.85 222.462 446.462 222.067 446.405L221.806 445.734C222.112 445.725 228.113 444.408 233.402 443.919C240.606 443.253 245.446 444.209 247.786 446.763C248.807 447.879 249.154 450.109 248.738 452.883C248.236 456.222 246.165 463.254 237.929 472.825C229.712 482.375 217.732 491.739 202.327 500.659Z" fill="#D9D3D3"/>
<path d="M222.265 490.968C222.265 490.968 221.67 490.731 221.459 490.498C221.459 490.498 221.108 490.044 220.839 489.737C220.771 489.657 220.698 489.581 220.621 489.509C220.392 489.307 219.827 488.935 219.408 488.293C218.989 487.651 217.884 484.414 217.884 484.414L219.433 483.31L220.74 482.065C220.74 482.065 224.926 484.083 225.383 484.634C225.427 484.686 225.468 484.741 225.505 484.798C225.848 485.303 225.894 485.825 226.045 486.111C226.1 486.217 226.574 487.301 226.418 487.62C226.205 488.061 225.879 488.278 225.551 488.319C225.551 488.319 225.093 489.164 224.5 489.405C224.5 489.405 224.102 490.198 223.281 490.285C223.281 490.283 222.789 491.042 222.265 490.968Z" fill="#EEA886"/>
<path d="M208.531 448.068C209.811 448.231 213.504 450.574 212.59 453.695C211.826 456.294 211.823 458.425 211.596 459.477C211.37 460.529 210.43 467.646 210.966 468.393C211.646 469.339 215.085 473.784 215.392 474.164C216.005 474.919 221.299 481.819 221.299 481.819L217.794 485.248C217.794 485.248 207.576 474.404 206.17 473.004C205.243 472.084 203.793 470.739 203.812 467.319C203.833 463.842 203.625 457.086 203.763 456.406C203.901 455.727 202.84 447.351 208.531 448.068Z" fill="#385369"/>
<path d="M242.592 442.53C242.592 442.53 241.457 445.375 241.884 445.617C242.312 445.86 242.614 445.685 242.614 445.685L242.669 447.072C242.669 447.072 243.214 447.97 244.015 447.103C244.015 447.103 244.439 447.995 245.114 447.063C245.114 447.063 245.651 447.523 246.039 447.149C246.427 446.776 247.082 444.913 247.082 444.913C247.082 444.913 247.047 444.453 246.294 444.324C246.294 444.324 246.104 443.612 245.378 443.568C245.378 443.568 245.139 443.022 244.355 442.982C244.355 442.982 243.727 441.806 242.727 442.246C242.727 442.24 242.639 442.41 242.592 442.53Z" fill="#DB9C7C"/>
<path d="M240.246 447.062C240.246 447.062 241.814 445.682 242.994 445.314C243.261 445.231 243.534 445.2 243.711 445.421C243.888 445.642 243.798 446.182 243.148 446.814C242.499 447.446 241.944 448.562 241.944 448.562C241.944 448.562 241.091 449.017 240.246 447.062Z" fill="#EEA886"/>
<path d="M230.238 462.878C229.832 462.558 229.425 462.221 229.021 461.879C229.021 461.879 229.361 458.235 229.201 456.269C229.201 456.27 230.346 459.364 230.238 462.878Z" fill="#283B4A"/>
<path d="M214.58 439.212V439.217C215.12 440.404 215.792 441.534 216.585 442.587C219.194 445.995 225.279 446.081 225.368 436.723C225.384 434.952 225.168 433.513 224.819 432.348C223.573 428.196 220.646 427.505 220.646 427.505C218.484 427.384 214.7 427.928 213.439 430.795C212.547 432.831 213.194 436.205 214.58 439.212Z" fill="#EEA987"/>
<path d="M214.58 439.211V439.217C214.58 439.217 214.891 439.302 216.014 436.991C216.24 436.532 216.413 436.859 216.511 436.655L218.3 435.944C218.3 435.944 216.533 432.929 218.847 432.093C221.208 431.241 224.819 432.348 224.819 432.348C223.573 428.196 220.647 427.505 220.647 427.505C218.485 427.384 214.701 427.928 213.439 430.795C212.546 432.831 213.194 436.205 214.58 439.211Z" fill="#665249"/>
<path d="M216.88 435.255C216.747 434.629 215.533 434.091 215.018 435.439C214.503 436.786 216.225 438.207 216.682 437.912C217.138 437.616 217.099 436.292 216.88 435.255Z" fill="#EEA987"/>
<path d="M213.059 435.364C213.059 435.364 218.812 431.312 225.521 432.758C225.521 432.758 225.122 424.219 217.483 425.681C210.307 427.055 212.812 434.4 213.059 435.364Z" fill="#FAB546"/>
<path d="M216.757 433.525C216.757 433.525 222.472 434.569 226.126 433.791C229.781 433.013 225.419 431.87 225.419 431.87C225.419 431.87 222.373 430.896 216.757 433.525Z" fill="#FAB546"/>
<path d="M222.365 447.456C222.365 447.456 220.792 448.658 215.544 446.301C215.875 444.126 215.727 441.91 215.109 439.791C214.076 436.364 221.807 443.538 221.807 443.538C221.722 443.597 221.71 443.941 221.755 444.418C221.755 444.448 221.762 444.479 221.766 444.51C221.811 444.902 221.881 445.292 221.976 445.677C221.988 445.728 222.001 445.779 222.014 445.831C222.309 446.975 222.365 446.457 222.365 447.456Z" fill="#EEA886"/>
<path d="M221.975 445.674C218.211 446.166 216.157 442.037 216.098 441.916C218.674 445.743 221.763 444.507 221.763 444.507C221.809 444.899 221.88 445.289 221.975 445.674Z" fill="#A77860"/>
<path d="M466.311 525.087C468.277 525.087 469.419 524.55 469.527 524.497L469.112 523.561C469.055 523.587 463.24 526.251 454.613 518.487C448.951 513.392 443.016 514.047 436.143 514.806C431.798 515.286 427.305 515.783 422.304 514.908C419.234 514.369 417.145 512.979 416.095 510.772C413.597 505.522 417.609 497.256 417.649 497.174L416.777 496.698C416.601 497.055 412.498 505.51 415.215 511.232C416.413 513.752 418.744 515.332 422.144 515.927C427.277 516.827 432.043 516.301 436.248 515.837C442.895 515.102 448.635 514.468 453.977 519.274C459.286 524.055 463.589 525.087 466.311 525.087Z" fill="#385369"/>
<path d="M469.069 525.536H476.133V522.528H469.069V525.536Z" fill="#385369"/>
<path d="M472.755 527.72H477.897V517.606H472.755V527.72Z" fill="#385369"/>
<path d="M393.098 561.813H405.075V507.106H393.098V561.813Z" fill="#385369"/>
<path d="M404.873 502.315C404.873 502.315 403.629 502.892 403.05 502.862C402.471 502.831 398.909 502.454 398.446 503.102C397.982 503.75 394.565 507.37 395.028 507.919C395.492 508.468 395.843 508.193 396.071 507.919C396.298 507.645 398.938 505.312 399.257 505.27C399.257 505.27 396.913 508.038 397.316 508.86C397.718 509.682 398.446 509.531 398.88 509.683C399.314 509.835 400.038 510.415 400.816 510.049C401.593 509.683 404.58 506.269 405.305 505.781C406.029 505.293 407.94 504.532 407.968 504.348C407.997 504.165 404.873 502.315 404.873 502.315Z" fill="#EEA886"/>
<path d="M428.079 553.452C427.235 553.763 426.444 554.203 425.735 554.756C424.512 555.695 422.866 557.229 421.059 557.574C419.253 557.918 417.342 557.886 417.634 559.917C417.926 561.948 423.876 562.954 429.241 561.233C434.607 559.511 434.685 559.354 434.685 558.853C434.685 558.353 433.87 553.311 433.628 553.138C433.387 552.966 428.079 553.452 428.079 553.452Z" fill="#202338"/>
<path d="M459.332 551.575C459.332 551.575 457.265 553.826 455.484 554.204C453.703 554.582 451.367 555.19 451.246 556.42C451.126 557.65 451.87 557.968 451.939 558.044C452.384 558.404 460.877 558.728 464.166 557.425C466.183 556.626 463.86 549.987 463.86 549.987L459.332 551.575Z" fill="#202338"/>
<path d="M436.396 520.148C436.846 521.88 441.435 528.214 442.058 529.165C442.894 530.442 456.192 552.396 456.343 552.758C456.494 553.121 464.007 551.23 464.308 549.542C464.308 549.542 453.776 526.808 451.267 523.807C448.757 520.805 448.184 517.693 448.584 514.219C448.984 510.745 453.903 499.832 453.152 495.198C452.401 490.564 439.407 505.17 438.952 510.053C438.952 510.053 438.929 510.117 438.887 510.236C438.736 510.662 438.346 511.776 437.916 513.122C437.889 513.208 437.86 513.296 437.833 513.386C437.032 515.922 436.136 519.138 436.396 520.148Z" fill="#E2581D"/>
<path d="M433.668 495.603C433.668 495.603 415.731 509.891 413.723 512.811C411.715 515.731 413.967 520.076 414.268 521.497C414.569 522.919 426.661 551.053 426.812 553.5C426.812 553.5 434.924 554.214 436.351 552.317C436.351 552.317 427.524 525.61 426.247 521.031C424.97 516.451 429.362 515.338 432.892 513.68C436.423 512.023 451.757 502.604 452.659 499.008C453.482 495.724 452.617 492.446 452.617 492.446C452.617 492.446 448.485 490.158 433.668 495.603Z" fill="#E2581D"/>
<path d="M418.696 484.703C418.696 484.703 416.606 483.442 416.281 483.264C415.956 483.085 414.933 483.191 413.769 483.425C412.605 483.658 411.131 484.522 411.053 484.721C410.974 484.919 410.805 485.08 410.916 485.62C411.002 485.973 411.191 486.292 411.458 486.537C411.458 486.537 411.274 487.305 411.771 487.752C411.745 487.962 411.781 488.174 411.874 488.364C411.966 488.554 412.112 488.712 412.294 488.821C412.294 488.821 412.157 489.523 412.649 489.78C412.649 489.78 413.674 489.671 414.064 489.746C414.455 489.821 416.51 489.226 418.489 488.533C418.489 488.524 420.764 488.066 418.696 484.703Z" fill="#EEA886"/>
<path d="M411.365 482.777L413.073 482.127L410.181 473.736L408.037 473.122L411.365 482.777Z" fill="#385369"/>
<path d="M413.013 474.964L413.274 474.089L405.365 470.802L405.697 472.548L413.013 474.964Z" fill="#385369"/>
<path d="M416.285 497.286L418.141 496.579L412.885 481.332L411.03 482.039L416.285 497.286Z" fill="#FAB546"/>
<path d="M411.354 484.646C411.354 484.646 414.317 484.129 414.456 484.621C414.595 485.113 414.361 485.382 414.361 485.382L415.673 485.751C415.673 485.751 416.41 486.511 415.408 487.134C415.408 487.134 416.166 487.768 415.13 488.247C415.13 488.247 415.453 488.901 415.009 489.212C414.566 489.523 412.648 489.774 412.648 489.774C412.648 489.774 412.22 489.635 412.257 488.834C412.257 488.834 411.618 488.48 411.736 487.729C411.736 487.729 411.266 487.361 411.399 486.55C411.399 486.55 410.415 485.644 411.051 484.716C411.151 484.687 411.252 484.664 411.354 484.646Z" fill="#DB9C7C"/>
<path d="M416.185 483.261C416.185 483.261 414.529 484.552 413.918 485.674C413.781 485.928 413.691 486.201 413.863 486.432C414.035 486.662 414.571 486.692 415.316 486.172C416.061 485.651 417.252 485.336 417.252 485.336C417.252 485.336 417.863 484.566 416.185 483.261Z" fill="#EEA886"/>
<path d="M434.906 480.57C435.601 483.83 435.017 485.013 433.969 485.682C431.767 487.084 418.968 488.433 418.968 488.433L418.138 483.711C418.138 483.711 422.834 482.78 424.812 482.568C425.265 482.519 429.22 481.078 428.949 480.836C428.949 480.836 427.152 475.068 426.483 474.285C426.483 474.285 420.244 464.045 426.549 463.036C432.854 462.027 434.906 480.57 434.906 480.57Z" fill="#CBCFDE"/>
<path d="M423.561 466.62C423.561 466.62 422.36 473.318 423.185 476.413C424.011 479.507 428.711 483.657 429.859 484.524C431.007 485.391 434.165 491.962 434.021 493.467C433.878 494.972 433.842 496.409 433.842 496.409C433.842 496.409 450.008 500.606 453.183 495.343C453.183 495.343 451.018 482.227 446.086 473.834C445.008 472 442.716 468.6 440.294 466.45C437.873 464.3 427.58 460.32 427.58 460.32L423.561 466.62Z" fill="#E2581D"/>
<path d="M424.123 472.102C424.553 471.244 425.474 466.346 429.258 467.199C433.042 468.052 433.447 472.497 432.333 475.299C431.218 478.101 429.829 481.794 429.63 482.405C429.43 483.015 424.731 492.281 424.123 492.814C423.514 493.347 416.723 499.46 415.541 500.132C414.36 500.805 405.776 506.297 405.776 506.297L403.291 502.629C403.291 502.629 416.213 491.288 417.26 490.435C418.308 489.581 419.895 487.521 420.165 486.171C420.435 484.821 423.481 473.376 424.123 472.102Z" fill="#DBDFF0"/>
<path d="M410.406 456.879C410.406 456.879 411.11 460.436 412.036 460.266C412.801 460.125 413.608 463.514 413.776 464.036C413.945 464.557 415.25 463.888 415.681 463.939C416.112 463.99 419.277 466.494 420.239 465.802C421.201 465.111 424.026 460.11 424.162 457.957C424.297 455.804 420.887 449.64 418.346 448.016C415.805 446.392 409.198 450.644 410.406 456.879Z" fill="#EEA886"/>
<path d="M420.458 464.682C420.71 464.611 420.973 464.587 421.234 464.609C421.703 464.663 422.153 464.827 422.548 465.087C422.98 465.362 423.367 465.702 423.696 466.094C423.696 466.094 429.049 460.839 427.418 460.263C425.788 459.686 424.295 456.805 424.295 456.805C424.295 456.805 418.731 465.17 420.458 464.682Z" fill="#EEA886"/>
<path d="M423.563 466.625L423.146 465.685L426.668 459.65L428.535 460.658C428.535 460.658 425.199 465.564 423.563 466.625Z" fill="#C5C9D9"/>
<path d="M429.148 483.985C429.352 484.189 429.538 484.363 429.702 484.517C430.156 484.944 430.439 485.187 430.439 485.187C430.439 485.187 437.539 482.981 437.356 476.415C437.172 469.849 431.516 466.044 427.026 466.622C422.536 467.199 423.425 472.788 423.425 472.788C423.637 478.829 426.822 481.7 429.148 483.985Z" fill="#DBDFF0"/>
<path d="M423.232 468.852C423.232 468.852 423.436 465.953 427.919 465.33C432.402 464.708 436.386 468.952 436.386 468.952L440.295 466.45C440.295 466.45 437.761 464.023 432.877 462.224C428.597 460.648 428.534 460.652 428.534 460.652L423.562 466.62C423.562 466.62 423.232 468.193 423.232 468.852Z" fill="#DBDFF0"/>
<path d="M428.97 483.821C429.173 484.025 429.95 484.754 430.114 484.908C430.114 484.908 430.807 481.518 431.582 477.644C431.536 477.777 429.208 483.41 428.97 483.821Z" fill="#BABECC"/>
<path d="M437.834 513.389C442.992 510.72 447.801 504.165 447.875 504.061C445.669 506.291 438.994 510.174 438.89 510.238C438.739 510.663 438.349 511.777 437.919 513.123C437.894 513.212 437.866 513.299 437.834 513.389Z" fill="#CC5C1F"/>
<path d="M410.542 457.621C410.542 457.621 407.66 456.483 408.417 452.462C409.174 448.442 415.481 447.505 416.335 447.432C416.986 447.377 419.839 446.939 422.417 451.833C425.594 457.859 423.972 457.131 423.972 457.131C423.972 457.131 422.097 454.695 421.055 455.253C419.924 455.858 418.182 457.018 418.182 457.018C418.182 457.018 417.163 454 415.626 454.811C414.088 455.622 411.435 455.965 410.542 457.621Z" fill="#163342"/>
<path d="M502.974 555.693H469.979V527.257H501.13C501.619 527.257 502.088 527.451 502.434 527.797C502.78 528.143 502.974 528.612 502.974 529.101V555.694V555.693Z" fill="#FAB546"/>
<path d="M502.975 555.694H511.323V530.448H502.975V555.694Z" fill="#E6A640"/>
<path d="M491.431 527.72H473.722V516.512H488.483C489.265 516.512 490.015 516.823 490.568 517.376C491.121 517.929 491.431 518.679 491.431 519.461V527.72Z" fill="#E8A841"/>
<path d="M470.568 555.691H514.058C514.758 555.691 515.325 555.095 515.325 554.359C515.325 553.624 514.758 553.028 514.058 553.028H470.568C469.869 553.028 469.302 553.624 469.302 554.359C469.302 555.095 469.869 555.691 470.568 555.691Z" fill="#385369"/>
<path d="M506.303 553.103C506.303 557.029 509.33 560.213 513.063 560.213C516.797 560.213 519.825 557.029 519.825 553.103C519.825 549.177 516.798 545.994 513.063 545.994C509.329 545.994 506.303 549.182 506.303 553.103Z" fill="#385369"/>
<path d="M469.981 554.166H471.281V528.987H469.981V554.166Z" fill="#385369"/>
<path d="M492.721 550.599H499.822C500.047 550.599 500.229 550.416 500.229 550.191V548.728C500.229 548.503 500.047 548.32 499.822 548.32H492.721C492.496 548.32 492.313 548.503 492.313 548.728V550.191C492.313 550.416 492.496 550.599 492.721 550.599Z" fill="#E3A440"/>
<path d="M417.845 455.208L422.988 452.957C422.988 452.957 423.641 454.008 423.678 454.43L418.475 457.283L417.845 455.208Z" fill="#DBDFF0"/>
<path d="M418.691 455.047C418.553 454.633 417.928 453.426 419.665 453.244C421.402 453.062 421.561 456.722 421.397 456.925C421.233 457.128 419.858 458.535 418.691 455.047Z" fill="#EEA886"/>
<path d="M407.454 454.437C407.454 454.437 409.006 459.312 417.199 469.205L419.819 467.956C419.819 467.956 419.174 463.854 420.334 461.569C421.495 459.285 416.317 448.79 415.288 448.489C414.259 448.187 408.744 450.206 407.454 454.437Z" fill="#6E7078"/>
<path d="M411.774 463.426L413.197 462.44L409.259 456.145L407.836 457.129L411.774 463.426Z" fill="#D99D3D"/>
<path d="M409.474 452.283L407.197 454.06C407.197 454.06 411.285 462.919 417.199 469.207L409.474 452.283Z" fill="#6E7078"/>
<path d="M405.06 473H406.187V470.676H405.06V473Z" fill="#385369"/>
<path d="M421.235 464.599C421.704 464.653 422.154 464.816 422.549 465.076C423.067 463.538 423.387 461.94 423.501 460.32C423.076 461.511 421.235 464.599 421.235 464.599Z" fill="#C78D71"/>
<path d="M471.281 530.542H463.639C463.539 530.542 463.442 530.502 463.371 530.43C463.3 530.359 463.26 530.263 463.26 530.162V529.371C463.26 529.27 463.3 529.174 463.371 529.103C463.442 529.032 463.539 528.992 463.639 528.992H471.281V530.542Z" fill="#385369"/>
<path d="M399.375 472.254H405.06V471.365H399.375V472.254Z" fill="#FAB546"/>
<path d="M400.073 471.689L402.451 467.21L399.177 471.453L396.397 467.619L398.493 471.946L393.877 474.941L399.135 472.752L400.055 480.014L400.023 472.772L404.662 474.057L400.073 471.689Z" fill="#FAB546"/>
<g filter="url(#filter0_d)">
<path d="M713.932 182.26C713.932 200.629 699.041 215.52 680.672 215.52C662.303 215.52 647.412 200.629 647.412 182.26C647.412 163.891 662.303 149 680.672 149C699.041 149 713.932 163.891 713.932 182.26Z" fill="white"/>
<path d="M658.207 189.843C658.207 204.022 646.712 215.516 632.533 215.516C618.354 215.516 606.86 204.022 606.86 189.843C606.86 175.664 618.354 164.17 632.533 164.17C646.712 164.17 658.207 175.664 658.207 189.843Z" fill="white"/>
<path d="M618.381 199.327C618.381 208.269 611.132 215.517 602.19 215.517C593.249 215.517 586 208.269 586 199.327C586 190.385 593.249 183.136 602.19 183.136C611.132 183.136 618.381 190.385 618.381 199.327Z" fill="white"/>
<path d="M601.609 191.013H713.932L683.299 215.516H601.609V191.013Z" fill="white"/>
</g>
<g filter="url(#filter1_d)">
<path d="M126.68 278.713C126.68 292.97 115.123 304.526 100.867 304.526C86.6105 304.526 75.0536 292.97 75.0536 278.713C75.0536 264.457 86.6105 252.9 100.867 252.9C115.123 252.9 126.68 264.457 126.68 278.713Z" fill="white"/>
<path d="M138.242 304.529C149.38 304.529 158.409 295.5 158.409 284.361C158.409 273.223 149.38 264.194 138.242 264.194C127.103 264.194 118.074 273.223 118.074 284.361L100.727 304.529H138.242Z" fill="white"/>
</g>
<g opacity="0.15" filter="url(#filter2_f)">
<path d="M527.249 356.125C508.851 322.141 504.437 318.128 508.865 307.967C514.93 294.048 537.86 286.512 560.079 291.136C582.299 295.759 595.395 310.79 589.329 324.709C584.901 334.87 578.013 336.532 535.519 357.845C532.733 359.238 528.459 358.348 527.249 356.125ZM544.521 326.838C553.779 328.765 563.333 325.625 565.86 319.826C568.388 314.026 562.931 307.763 553.673 305.837C544.415 303.91 534.861 307.05 532.334 312.85C529.806 318.649 535.263 324.912 544.521 326.838Z" fill="#404040"/>
</g>
<path d="M526.93 356.287C495.324 310.027 489.457 305.279 489.457 288.277C489.457 264.989 508.156 246.11 531.223 246.11C554.289 246.11 572.988 264.989 572.988 288.277C572.988 305.279 567.121 310.027 535.515 356.287C533.441 359.312 529.004 359.312 526.93 356.287ZM531.223 305.847C540.834 305.847 548.625 297.981 548.625 288.277C548.625 278.574 540.834 270.708 531.223 270.708C521.612 270.708 513.82 278.574 513.82 288.277C513.82 297.981 521.612 305.847 531.223 305.847Z" fill="#E2581D"/>
</g>
<defs>
<filter id="filter0_d" x="586" y="149" width="132.932" height="74.5203" filterUnits="userSpaceOnUse" color-interpolation-filters="sRGB">
<feFlood flood-opacity="0" result="BackgroundImageFix"/>
<feColorMatrix in="SourceAlpha" type="matrix" values="0 0 0 0 0 0 0 0 0 0 0 0 0 0 0 0 0 0 127 0"/>
<feOffset dx="4" dy="7"/>
<feGaussianBlur stdDeviation="0.5"/>
<feColorMatrix type="matrix" values="0 0 0 0 0 0 0 0 0 0 0 0 0 0 0 0 0 0 0.15 0"/>
<feBlend mode="normal" in2="BackgroundImageFix" result="effect1_dropShadow"/>
<feBlend mode="normal" in="SourceGraphic" in2="effect1_dropShadow" result="shape"/>
</filter>
<filter id="filter1_d" x="75.0536" y="252.9" width="88.3558" height="59.6286" filterUnits="userSpaceOnUse" color-interpolation-filters="sRGB">
<feFlood flood-opacity="0" result="BackgroundImageFix"/>
<feColorMatrix in="SourceAlpha" type="matrix" values="0 0 0 0 0 0 0 0 0 0 0 0 0 0 0 0 0 0 127 0"/>
<feOffset dx="4" dy="7"/>
<feGaussianBlur stdDeviation="0.5"/>
<feColorMatrix type="matrix" values="0 0 0 0 0 0 0 0 0 0 0 0 0 0 0 0 0 0 0.15 0"/>
<feBlend mode="normal" in2="BackgroundImageFix" result="effect1_dropShadow"/>
<feBlend mode="normal" in="SourceGraphic" in2="effect1_dropShadow" result="shape"/>
</filter>
<filter id="filter2_f" x="506.275" y="288.774" width="85.5371" height="70.7378" filterUnits="userSpaceOnUse" color-interpolation-filters="sRGB">
<feFlood flood-opacity="0" result="BackgroundImageFix"/>
<feBlend mode="normal" in="SourceGraphic" in2="BackgroundImageFix" result="shape"/>
<feGaussianBlur stdDeviation="0.5" result="effect1_foregroundBlur"/>
</filter>
<clipPath id="clip0">
<rect width="768" height="695" fill="white"/>
</clipPath>
</defs>
</svg>
