<svg width="290" height="215" viewBox="0 0 290 215" fill="none" xmlns="http://www.w3.org/2000/svg">
<path d="M254.332 74.709H211.249C203.199 74.709 196.673 81.2458 196.673 89.3095V200.399C196.673 208.463 203.199 214.999 211.249 214.999H254.332C262.383 214.999 268.909 208.463 268.909 200.399V89.3095C268.909 81.2458 262.383 74.709 254.332 74.709Z" fill="#E2581D"/>
<path d="M227.759 113.244L176.942 62.3435C175.687 61.0863 174.982 59.3813 174.982 57.6034C174.982 55.8256 175.687 54.1206 176.942 52.8634L227.759 1.96313C229.014 0.706144 230.716 0 232.491 0C234.266 0 235.968 0.706144 237.223 1.96313L288.04 52.8634C289.295 54.1206 290 55.8256 290 57.6034C290 59.3813 289.295 61.0863 288.04 62.3435L237.223 113.244C235.968 114.501 234.266 115.207 232.491 115.207C230.716 115.207 229.014 114.501 227.759 113.244Z" fill="#E2581D"/>
<path d="M227.759 108.244L181.93 62.3397C180.675 61.0825 179.97 59.3775 179.97 57.5997C179.97 55.8218 180.675 54.1168 181.93 52.8596L227.759 6.95531C229.014 5.69833 230.716 4.99219 232.491 4.99219C234.266 4.99219 235.968 5.69833 237.223 6.95531L283.053 52.8596C284.307 54.1168 285.012 55.8218 285.012 57.5997C285.012 59.3775 284.307 61.0825 283.053 62.3397L237.223 108.244C235.968 109.501 234.266 110.207 232.491 110.207C230.716 110.207 229.014 109.501 227.759 108.244Z" fill="#F2F3F5"/>
<path d="M240.351 180.72C239.446 181.985 238.541 183.248 237.637 184.512L233.379 183.111C233.457 181.647 233.535 180.182 233.614 178.717C232.634 178.179 231.711 177.542 230.861 176.816L226.599 178.37L223.874 174.806L226.606 171.229C226.107 170.164 225.722 169.049 225.457 167.903L221.215 166.787C221.144 165.293 221.072 163.798 221.001 162.303L225.372 160.892C225.475 160.389 225.601 159.887 225.752 159.386C225.915 158.85 226.101 158.327 226.312 157.82L223.463 154.222L225.979 150.507L230.362 152.021C231.149 151.294 232.005 150.646 232.917 150.085L232.936 145.277L237.218 143.948L239.616 147.741C240.734 147.607 241.862 147.588 242.984 147.684C243.812 146.422 244.64 145.159 245.469 143.896L249.779 145.124C249.759 146.671 249.739 148.219 249.719 149.767C250.605 150.267 251.443 150.849 252.222 151.504L256.551 150.044C257.43 151.254 258.31 152.464 259.19 153.674L256.496 157.027C257.007 158.092 257.403 159.208 257.677 160.356L262.192 161.611C262.243 163.108 262.294 164.603 262.345 166.098L257.792 167.499C257.69 168.001 257.563 168.504 257.413 169.006C257.27 169.477 257.105 169.931 256.927 170.383L259.841 174.27L257.228 177.919L252.893 176.292C252.086 177.047 251.206 177.72 250.265 178.3C250.365 179.871 250.465 181.442 250.565 183.012L246.383 184.629L243.482 180.662C242.443 180.781 241.394 180.801 240.351 180.72Z" fill="#E2581D" stroke="white" stroke-width="1.08026" stroke-miterlimit="10"/>
<path d="M247.708 170.25C251.029 166.924 251.029 161.531 247.708 158.205C244.387 154.879 239.003 154.879 235.683 158.205C232.362 161.531 232.362 166.924 235.683 170.25C239.003 173.576 244.387 173.576 247.708 170.25Z" fill="#E2581D" stroke="white" stroke-width="1.08026" stroke-miterlimit="10"/>
<path d="M218.52 200.761L216.788 203.182L214.069 202.286C214.119 201.352 214.169 200.417 214.219 199.482C213.593 199.138 213.005 198.732 212.462 198.268L209.741 199.26L207.996 196.984C208.578 196.223 209.159 195.462 209.741 194.7C209.422 194.021 209.176 193.309 209.008 192.577L206.299 191.865C206.253 190.91 206.208 189.956 206.163 189.001L208.954 188.101C209.018 187.779 209.099 187.458 209.196 187.139C209.299 186.797 209.42 186.464 209.553 186.14L207.734 183.841L209.341 181.468L212.139 182.435C212.641 181.972 213.188 181.559 213.77 181.202L213.783 178.132L216.516 177.284C217.027 178.09 217.537 178.897 218.047 179.705C218.762 179.619 219.484 179.607 220.202 179.669C220.73 178.863 221.259 178.057 221.788 177.251L224.541 178.034C224.527 179.021 224.515 180.01 224.503 180.999C225.069 181.318 225.604 181.69 226.101 182.108L228.865 181.176L230.549 183.493C229.976 184.207 229.403 184.92 228.829 185.633C229.155 186.313 229.408 187.026 229.583 187.76L232.467 188.561C232.5 189.516 232.535 190.472 232.57 191.426L229.663 192.32C229.598 192.641 229.517 192.961 229.421 193.282C229.329 193.582 229.227 193.875 229.113 194.161L230.974 196.643L229.306 198.972L226.536 197.934C226.02 198.416 225.458 198.845 224.858 199.215L225.049 202.225L222.381 203.253L220.534 200.719C219.866 200.798 219.191 200.812 218.52 200.761Z" fill="#E2581D" stroke="white" stroke-width="1.08026" stroke-miterlimit="10"/>
<path d="M221.361 195.28C224.154 194.186 225.533 191.032 224.441 188.235C223.349 185.438 220.201 184.057 217.408 185.15C214.615 186.244 213.236 189.397 214.328 192.195C215.42 194.992 218.568 196.373 221.361 195.28Z" fill="#E2581D" stroke="white" stroke-width="1.08026" stroke-miterlimit="10"/>
<path d="M247.947 54.5301C250.307 54.5301 252.101 56.6093 252.101 58.9053V66.6516C252.101 76.6929 244.223 85.802 233.983 85.802C223.6 85.802 215.795 76.7649 215.795 66.6516V52.378C215.795 42.2647 223.6 33.2275 233.983 33.2275C239.712 33.2275 244.868 35.5225 248.305 39.611C248.764 40.2079 249.016 40.9381 249.023 41.6912C249.013 42.4991 248.736 43.2809 248.235 43.9143L245.3 47.1415C245.053 47.4328 244.745 47.6671 244.399 47.8282C244.053 47.9893 243.676 48.0734 243.295 48.0747C242.721 48.0747 241.934 47.9308 241.146 47.0706C239.285 44.9904 236.993 43.9143 234.057 43.9143C229.689 43.9143 226.251 48.1456 226.251 52.378V66.6516C226.251 70.8829 229.689 75.1153 234.057 75.1153C238.425 75.1153 241.719 71.1697 241.719 66.9384V65.073H234.559C233.054 65.073 231.837 63.854 231.837 62.2045V57.3986C231.837 55.821 233.054 54.5301 234.559 54.5301H247.947Z" fill="#404040"/>
<path d="M213.05 127.083C213.173 127.087 213.289 127.14 213.374 127.229C213.459 127.319 213.505 127.438 213.503 127.561V128.406C213.503 129.502 212.644 130.496 211.526 130.496C210.409 130.496 209.542 129.51 209.542 128.406V126.849C209.542 125.745 210.393 124.758 211.526 124.758C211.822 124.752 212.115 124.812 212.385 124.932C212.655 125.052 212.896 125.231 213.089 125.455C213.139 125.52 213.166 125.6 213.167 125.682C213.166 125.77 213.136 125.856 213.081 125.925L212.761 126.277C212.734 126.309 212.7 126.335 212.662 126.352C212.625 126.37 212.584 126.38 212.542 126.38C212.497 126.38 212.453 126.371 212.413 126.352C212.372 126.333 212.336 126.305 212.308 126.27C212.213 126.159 212.094 126.07 211.96 126.011C211.826 125.951 211.681 125.922 211.534 125.926C211.057 125.926 210.682 126.388 210.682 126.851V128.408C210.682 128.87 211.057 129.333 211.534 129.333C212.012 129.333 212.37 128.902 212.37 128.441V128.235H211.589C211.549 128.235 211.51 128.226 211.473 128.21C211.437 128.195 211.404 128.172 211.376 128.143C211.348 128.114 211.327 128.081 211.312 128.043C211.297 128.006 211.29 127.967 211.291 127.927V127.403C211.291 127.323 211.322 127.246 211.378 127.188C211.433 127.131 211.509 127.097 211.589 127.094L213.05 127.083Z" fill="#F2F3F5"/>
<path d="M218.591 128.516C218.591 129.62 217.746 130.599 216.613 130.599C215.481 130.599 214.636 129.62 214.636 128.516V126.967C214.636 125.863 215.488 124.893 216.613 124.893C217.739 124.893 218.591 125.863 218.591 126.967V128.516ZM217.45 126.967C217.45 126.505 217.098 126.059 216.613 126.059C216.129 126.059 215.777 126.505 215.777 126.967V128.516C215.777 128.971 216.136 129.432 216.613 129.432C217.091 129.432 217.45 128.978 217.45 128.516V126.967Z" fill="#F2F3F5"/>
<path d="M223.521 124.977C223.564 124.977 223.605 124.986 223.644 125.003C223.683 125.02 223.718 125.044 223.747 125.075C223.776 125.106 223.799 125.142 223.814 125.181C223.829 125.221 223.836 125.263 223.834 125.305C223.836 125.34 223.834 125.375 223.826 125.408L222.326 130.269C222.303 130.346 222.255 130.414 222.191 130.462C222.126 130.51 222.047 130.535 221.967 130.535H221.435C221.354 130.536 221.276 130.51 221.211 130.462C221.146 130.414 221.098 130.346 221.075 130.269L219.575 125.408C219.568 125.374 219.566 125.34 219.568 125.305C219.566 125.264 219.573 125.222 219.587 125.182C219.602 125.143 219.624 125.107 219.653 125.077C219.682 125.046 219.716 125.021 219.754 125.004C219.792 124.987 219.834 124.978 219.876 124.977H220.36C220.441 124.979 220.519 125.007 220.583 125.058C220.647 125.109 220.692 125.179 220.712 125.258L221.689 128.577L222.666 125.258C222.686 125.178 222.733 125.107 222.797 125.057C222.862 125.006 222.942 124.978 223.025 124.977H223.521Z" fill="#F2F3F5"/>
<path d="M225.991 126.146V127.071H227.186C227.226 127.071 227.265 127.079 227.302 127.095C227.339 127.111 227.372 127.134 227.399 127.162C227.427 127.191 227.449 127.225 227.463 127.262C227.477 127.299 227.484 127.339 227.483 127.379V127.903C227.484 127.943 227.477 127.983 227.463 128.02C227.449 128.057 227.427 128.091 227.4 128.12C227.372 128.149 227.339 128.172 227.302 128.188C227.265 128.203 227.226 128.211 227.186 128.212H225.991V129.342H227.647C227.728 129.345 227.804 129.379 227.86 129.438C227.915 129.496 227.946 129.575 227.944 129.656V130.195C227.945 130.235 227.938 130.275 227.924 130.312C227.909 130.349 227.887 130.383 227.86 130.411C227.832 130.44 227.799 130.463 227.763 130.479C227.726 130.494 227.687 130.503 227.647 130.503H225.295C225.235 130.502 225.176 130.489 225.121 130.465C225.066 130.44 225.016 130.405 224.975 130.361C224.933 130.318 224.901 130.266 224.88 130.21C224.858 130.154 224.848 130.094 224.85 130.034V125.455C224.849 125.332 224.896 125.214 224.982 125.126C225.021 125.082 225.068 125.047 225.121 125.023C225.174 124.998 225.232 124.986 225.29 124.985H227.642C227.682 124.986 227.721 124.994 227.758 125.01C227.794 125.026 227.827 125.048 227.855 125.077C227.883 125.106 227.904 125.14 227.919 125.177C227.933 125.214 227.94 125.254 227.939 125.294V125.834C227.939 125.914 227.908 125.991 227.853 126.049C227.797 126.106 227.722 126.14 227.642 126.143L225.991 126.146Z" fill="#F2F3F5"/>
<path d="M231.5 128.297L232.547 130.012C232.577 130.064 232.593 130.123 232.594 130.183C232.594 130.265 232.561 130.344 232.504 130.401C232.446 130.459 232.368 130.492 232.286 130.492H231.724C231.662 130.493 231.6 130.478 231.546 130.448C231.492 130.417 231.447 130.373 231.416 130.319L230.314 128.449H230.204V130.178C230.205 130.218 230.198 130.258 230.184 130.295C230.169 130.332 230.148 130.366 230.12 130.394C230.092 130.423 230.059 130.446 230.023 130.462C229.987 130.478 229.947 130.486 229.908 130.487H229.361C229.321 130.486 229.282 130.478 229.245 130.462C229.208 130.446 229.175 130.423 229.148 130.394C229.12 130.366 229.098 130.332 229.084 130.295C229.069 130.258 229.062 130.218 229.063 130.178V125.443C229.063 125.382 229.074 125.322 229.097 125.266C229.12 125.209 229.154 125.158 229.196 125.114C229.234 125.07 229.282 125.034 229.335 125.01C229.388 124.986 229.446 124.973 229.504 124.974H230.793C231.018 124.976 231.24 125.023 231.447 125.112C231.654 125.2 231.841 125.329 231.998 125.491C232.154 125.652 232.278 125.843 232.361 126.052C232.444 126.262 232.485 126.485 232.481 126.711C232.486 127.041 232.397 127.367 232.223 127.648C232.049 127.929 231.798 128.155 231.5 128.297ZM230.21 126.129V127.304H230.766C230.918 127.297 231.061 127.233 231.165 127.123C231.27 127.014 231.329 126.868 231.329 126.716C231.329 126.565 231.27 126.419 231.165 126.309C231.061 126.2 230.918 126.135 230.766 126.129H230.21Z" fill="#F2F3F5"/>
<path d="M234.82 127.263V130.183C234.822 130.223 234.816 130.263 234.801 130.3C234.787 130.338 234.766 130.372 234.738 130.401C234.71 130.43 234.677 130.453 234.64 130.468C234.603 130.484 234.564 130.492 234.524 130.491H234.031C233.992 130.491 233.952 130.483 233.916 130.467C233.879 130.451 233.846 130.428 233.819 130.399C233.791 130.371 233.77 130.337 233.755 130.3C233.741 130.263 233.734 130.223 233.735 130.183V125.346C233.734 125.299 233.742 125.252 233.759 125.208C233.776 125.164 233.802 125.123 233.834 125.089C233.867 125.055 233.906 125.028 233.95 125.009C233.993 124.99 234.039 124.979 234.087 124.979H234.649C234.711 124.979 234.772 124.997 234.826 125.028C234.88 125.06 234.925 125.104 234.957 125.158L236.667 128.219V125.291C236.666 125.251 236.673 125.211 236.688 125.174C236.702 125.137 236.724 125.103 236.752 125.074C236.779 125.046 236.812 125.023 236.849 125.007C236.886 124.991 236.925 124.983 236.965 124.983H237.465C237.504 124.983 237.543 124.992 237.579 125.008C237.615 125.024 237.647 125.047 237.674 125.076C237.701 125.104 237.722 125.138 237.736 125.175C237.75 125.212 237.756 125.252 237.754 125.291V130.129C237.755 130.176 237.747 130.223 237.73 130.267C237.713 130.311 237.687 130.352 237.654 130.386C237.621 130.42 237.582 130.447 237.539 130.466C237.496 130.485 237.449 130.496 237.402 130.497H236.831C236.769 130.495 236.708 130.478 236.654 130.446C236.601 130.415 236.556 130.37 236.524 130.317L234.82 127.263Z" fill="#F2F3F5"/>
<path d="M243.143 130.066C243.153 130.102 243.158 130.139 243.158 130.176C243.16 130.259 243.128 130.34 243.07 130.4C243.013 130.46 242.934 130.495 242.85 130.497H242.35C242.268 130.496 242.189 130.468 242.126 130.417C242.062 130.366 242.017 130.295 241.999 130.215L241.717 129.283H240.318L240.045 130.215C240.023 130.295 239.977 130.365 239.912 130.416C239.847 130.466 239.767 130.495 239.685 130.497H239.201C239.118 130.495 239.038 130.46 238.981 130.4C238.923 130.34 238.891 130.259 238.893 130.176C238.893 130.139 238.898 130.102 238.908 130.066L240.4 125.213C240.422 125.134 240.47 125.065 240.535 125.016C240.6 124.966 240.679 124.94 240.76 124.939H241.299C241.38 124.94 241.458 124.967 241.521 125.016C241.585 125.066 241.63 125.135 241.651 125.213L243.143 130.066ZM241.018 126.888L240.651 128.148H241.377L241.018 126.888Z" fill="#F2F3F5"/>
<path d="M245.307 127.263V130.183C245.309 130.223 245.302 130.263 245.288 130.3C245.274 130.338 245.252 130.372 245.225 130.401C245.197 130.43 245.164 130.453 245.127 130.468C245.09 130.484 245.05 130.492 245.01 130.491H244.516C244.476 130.491 244.437 130.483 244.4 130.467C244.364 130.451 244.331 130.428 244.303 130.399C244.276 130.371 244.254 130.337 244.24 130.3C244.225 130.263 244.218 130.223 244.219 130.183V125.346C244.218 125.299 244.226 125.252 244.244 125.208C244.261 125.164 244.286 125.123 244.319 125.089C244.352 125.055 244.391 125.028 244.434 125.009C244.477 124.99 244.524 124.979 244.571 124.979H245.132C245.195 124.979 245.257 124.995 245.312 125.027C245.367 125.058 245.412 125.104 245.444 125.158L247.155 128.219V125.291C247.154 125.251 247.161 125.211 247.175 125.174C247.19 125.137 247.212 125.103 247.239 125.074C247.267 125.046 247.3 125.023 247.337 125.007C247.373 124.991 247.413 124.983 247.453 124.983H247.952C247.992 124.983 248.03 124.992 248.067 125.008C248.103 125.024 248.135 125.047 248.162 125.076C248.189 125.104 248.21 125.138 248.224 125.175C248.237 125.212 248.243 125.252 248.242 125.291V130.129C248.243 130.176 248.234 130.223 248.217 130.267C248.2 130.311 248.175 130.352 248.142 130.386C248.109 130.42 248.07 130.447 248.027 130.466C247.983 130.485 247.937 130.496 247.89 130.497H247.319C247.257 130.495 247.196 130.478 247.142 130.446C247.088 130.415 247.043 130.37 247.011 130.317L245.307 127.263Z" fill="#F2F3F5"/>
<path d="M253.012 129.424C253.071 129.485 253.107 129.564 253.113 129.649C253.119 129.734 253.094 129.818 253.044 129.886L253.035 129.894C252.85 130.117 252.617 130.297 252.353 130.419C252.09 130.541 251.802 130.602 251.512 130.599C250.394 130.599 249.574 129.597 249.574 128.516V126.966C249.574 125.879 250.403 124.892 251.512 124.892C251.802 124.884 252.09 124.943 252.354 125.064C252.618 125.186 252.85 125.367 253.032 125.593C253.085 125.657 253.113 125.738 253.11 125.82C253.11 125.909 253.08 125.995 253.024 126.063L252.711 126.407C252.684 126.439 252.65 126.464 252.613 126.482C252.575 126.499 252.534 126.509 252.493 126.51C252.447 126.51 252.402 126.5 252.362 126.48C252.321 126.459 252.286 126.43 252.259 126.393C252.169 126.286 252.057 126.2 251.929 126.143C251.802 126.086 251.663 126.059 251.524 126.064C251.094 126.064 250.719 126.486 250.719 126.972V128.521C250.719 129.015 251.094 129.437 251.524 129.437C251.663 129.441 251.802 129.414 251.929 129.357C252.056 129.3 252.169 129.215 252.259 129.108C252.285 129.073 252.319 129.043 252.358 129.023C252.398 129.003 252.441 128.992 252.485 128.991C252.528 128.991 252.57 129.001 252.609 129.018C252.648 129.036 252.683 129.062 252.711 129.094L253.012 129.424Z" fill="#F2F3F5"/>
<path d="M255.239 126.146V127.071H256.435C256.475 127.071 256.514 127.079 256.551 127.095C256.587 127.111 256.62 127.134 256.648 127.162C256.676 127.191 256.697 127.225 256.711 127.262C256.726 127.299 256.733 127.339 256.731 127.379V127.903C256.733 127.943 256.726 127.983 256.712 128.02C256.697 128.057 256.676 128.092 256.648 128.12C256.621 128.149 256.587 128.172 256.551 128.188C256.514 128.203 256.475 128.211 256.435 128.212H255.239V129.342H256.895C256.976 129.345 257.053 129.379 257.108 129.438C257.164 129.496 257.194 129.575 257.193 129.656V130.195C257.194 130.235 257.187 130.275 257.172 130.312C257.158 130.349 257.136 130.383 257.108 130.411C257.081 130.44 257.048 130.463 257.011 130.479C256.975 130.495 256.935 130.503 256.895 130.503H254.544C254.484 130.502 254.424 130.489 254.369 130.465C254.314 130.44 254.265 130.405 254.223 130.361C254.182 130.318 254.15 130.266 254.128 130.21C254.107 130.154 254.097 130.094 254.098 130.034V125.455C254.097 125.332 254.145 125.214 254.231 125.126C254.27 125.081 254.318 125.046 254.372 125.021C254.426 124.997 254.484 124.985 254.544 124.985H256.895C256.935 124.986 256.975 124.994 257.011 125.01C257.048 125.026 257.081 125.049 257.109 125.077C257.136 125.106 257.158 125.14 257.173 125.177C257.187 125.214 257.194 125.254 257.193 125.294V125.834C257.193 125.914 257.162 125.991 257.107 126.049C257.051 126.106 256.975 126.14 256.895 126.143L255.239 126.146Z" fill="#F2F3F5"/>
<path d="M167.115 74.709H124.032C115.982 74.709 109.456 81.2458 109.456 89.3095V200.399C109.456 208.463 115.982 214.999 124.032 214.999H167.115C175.166 214.999 181.692 208.463 181.692 200.399V89.3095C181.692 81.2458 175.166 74.709 167.115 74.709Z" fill="#F3B36A"/>
<path d="M141.74 114.911L90.9234 64.0105C90.3018 63.3881 89.8087 62.6492 89.4722 61.8359C89.1358 61.0225 88.9626 60.1508 88.9626 59.2704C88.9626 58.3901 89.1358 57.5183 89.4722 56.705C89.8087 55.8917 90.3018 55.1527 90.9234 54.5304L141.74 3.63012C142.995 2.37314 144.698 1.66699 146.472 1.66699C148.247 1.66699 149.95 2.37314 151.205 3.63012L202.022 54.5304C203.277 55.7876 203.981 57.4926 203.981 59.2704C203.981 61.0483 203.277 62.7533 202.022 64.0105L151.205 114.911C149.95 116.168 148.247 116.874 146.472 116.874C144.698 116.874 142.995 116.168 141.74 114.911Z" fill="#F3B36A"/>
<path d="M141.74 109.911L95.9113 64.0067C94.6564 62.7495 93.9514 61.0445 93.9514 59.2666C93.9514 57.4888 94.6564 55.7838 95.9113 54.5266L141.74 8.62231C142.996 7.36532 144.698 6.65918 146.473 6.65918C148.248 6.65918 149.95 7.36532 151.205 8.62231L197.034 54.5266C198.289 55.7838 198.994 57.4888 198.994 59.2666C198.994 61.0445 198.289 62.7495 197.034 64.0067L151.205 109.911C149.95 111.168 148.248 111.874 146.473 111.874C144.698 111.874 142.996 111.168 141.74 109.911Z" fill="#F2F3F5"/>
<path d="M172.801 155.926C170.524 151.15 165.407 147.82 159.462 147.82C151.397 147.82 144.858 157.709 144.858 157.71C144.868 157.513 138.32 147.817 130.255 147.817C124.304 147.817 119.19 151.146 116.916 155.922C107.762 174.438 144.861 202.219 144.861 202.219C144.861 202.219 181.954 174.442 172.801 155.926Z" fill="#F3B36A" stroke="white" stroke-width="1.08026" stroke-miterlimit="10"/>
<path d="M151.529 71.0347C151.315 68.2371 150.168 67.5197 144.297 65.0099L142.435 64.2206C135.632 61.1373 131.407 57.0478 131.407 49.1586C131.407 40.1924 137.709 33.8809 146.517 33.8809C151.243 33.8809 156.112 35.6024 159.907 38.5428C160.909 39.2623 161.343 40.8378 160.767 41.9858L158.69 46.2172C158.188 47.2213 157.329 47.7958 156.255 47.7958C155.68 47.7967 155.114 47.6484 154.613 47.3652L154.542 47.2932C150.818 44.7824 147.954 44.3528 146.593 44.3528C143.657 44.3528 141.796 46.0743 141.796 48.728C141.796 51.023 142.87 52.6726 148.527 55.1834C148.813 55.2554 149.673 55.613 152.895 56.9759C158.618 59.4867 161.916 64.4405 161.916 70.5321C161.916 79.9999 154.756 86.1686 145.733 86.1686C141.078 86.1686 136.21 84.5242 132.128 81.5066C131.125 80.8612 130.691 79.2116 131.268 78.0636L133.488 73.8313C133.989 72.8271 134.849 72.2536 135.848 72.2536C136.435 72.244 137.009 72.4199 137.49 72.7562H137.562C140.498 74.6925 143.219 75.6967 145.654 75.6967C149.238 75.6967 151.529 73.9032 151.529 71.0347Z" fill="#404040"/>
<path d="M135.625 129.05C135.594 128.741 135.477 128.666 134.836 128.392L134.63 128.306C133.888 127.97 133.427 127.523 133.427 126.661C133.427 125.676 134.115 124.994 135.076 124.994C135.606 125.002 136.119 125.182 136.537 125.508C136.592 125.552 136.63 125.613 136.646 125.681C136.662 125.749 136.653 125.821 136.623 125.884L136.396 126.346C136.375 126.397 136.339 126.44 136.294 126.471C136.248 126.501 136.194 126.518 136.139 126.517C136.076 126.518 136.014 126.502 135.959 126.471L135.951 126.463C135.54 126.189 135.233 126.142 135.084 126.142C134.756 126.142 134.561 126.33 134.561 126.619C134.561 126.87 134.678 127.05 135.295 127.324C135.326 127.332 135.419 127.37 135.771 127.519C136.066 127.637 136.318 127.842 136.494 128.106C136.67 128.37 136.761 128.682 136.756 128.999C136.756 130.032 135.974 130.705 134.99 130.705C134.452 130.694 133.93 130.515 133.498 130.192C133.443 130.148 133.404 130.087 133.388 130.019C133.373 129.95 133.381 129.879 133.411 129.815L133.654 129.354C133.675 129.303 133.711 129.259 133.757 129.228C133.803 129.197 133.857 129.181 133.912 129.181C133.976 129.181 134.039 129.2 134.092 129.237H134.099C134.356 129.428 134.663 129.539 134.982 129.557C135.375 129.558 135.617 129.362 135.625 129.05Z" fill="#F2F3F5"/>
<path d="M141.782 128.619C141.782 129.723 140.939 130.701 139.806 130.701C138.673 130.701 137.829 129.723 137.829 128.619V127.069C137.829 125.965 138.681 124.995 139.806 124.995C140.932 124.995 141.782 125.965 141.782 127.069V128.619ZM140.642 127.069C140.642 126.608 140.29 126.162 139.806 126.162C139.322 126.162 138.97 126.608 138.97 127.069V128.619C138.97 129.073 139.329 129.535 139.806 129.535C140.283 129.535 140.642 129.08 140.642 128.619V127.069Z" fill="#F2F3F5"/>
<path d="M146.401 129.526C146.434 129.559 146.46 129.598 146.478 129.641C146.495 129.684 146.504 129.731 146.503 129.777C146.504 129.853 146.479 129.928 146.434 129.989L146.425 129.996C146.24 130.22 146.007 130.399 145.743 130.521C145.48 130.643 145.192 130.705 144.902 130.701C143.784 130.701 142.963 129.699 142.963 128.619V127.069C142.963 125.982 143.792 124.995 144.902 124.995C145.191 124.986 145.478 125.045 145.741 125.166C146.004 125.287 146.235 125.467 146.417 125.692C146.471 125.755 146.499 125.836 146.496 125.919C146.496 126.007 146.466 126.093 146.41 126.161L146.102 126.506C146.075 126.537 146.041 126.562 146.004 126.58C145.966 126.598 145.925 126.607 145.884 126.609C145.838 126.609 145.793 126.598 145.752 126.578C145.711 126.558 145.676 126.528 145.649 126.491C145.56 126.384 145.447 126.299 145.32 126.242C145.193 126.185 145.054 126.158 144.915 126.163C144.485 126.163 144.11 126.585 144.11 127.07V128.62C144.11 129.113 144.485 129.536 144.915 129.536C145.054 129.54 145.193 129.513 145.32 129.456C145.447 129.399 145.559 129.314 145.649 129.207C145.675 129.171 145.709 129.142 145.748 129.122C145.788 129.101 145.831 129.09 145.875 129.09C145.918 129.09 145.961 129.099 146 129.117C146.039 129.135 146.074 129.16 146.102 129.192L146.401 129.526Z" fill="#F2F3F5"/>
<path d="M149.808 125.05C149.888 125.053 149.963 125.087 150.019 125.144C150.074 125.202 150.105 125.278 150.105 125.358V125.859C150.106 125.898 150.098 125.938 150.084 125.975C150.07 126.012 150.048 126.046 150.02 126.075C149.993 126.103 149.96 126.126 149.923 126.142C149.887 126.158 149.848 126.166 149.808 126.167H149.37V129.462H149.808C149.888 129.465 149.963 129.499 150.019 129.556C150.074 129.614 150.105 129.691 150.105 129.77V130.271C150.106 130.311 150.098 130.35 150.084 130.387C150.07 130.424 150.048 130.458 150.02 130.487C149.993 130.515 149.96 130.538 149.923 130.554C149.887 130.57 149.848 130.579 149.808 130.579H147.784C147.744 130.579 147.705 130.57 147.668 130.554C147.632 130.539 147.599 130.516 147.571 130.487C147.544 130.458 147.522 130.425 147.508 130.387C147.493 130.35 147.486 130.311 147.487 130.271V129.77C147.487 129.691 147.518 129.614 147.573 129.556C147.629 129.499 147.704 129.465 147.784 129.462H148.222V126.167H147.784C147.744 126.166 147.705 126.158 147.668 126.142C147.632 126.126 147.599 126.103 147.571 126.075C147.544 126.046 147.522 126.012 147.508 125.975C147.493 125.938 147.486 125.898 147.487 125.859V125.358C147.487 125.278 147.518 125.202 147.573 125.144C147.629 125.087 147.704 125.053 147.784 125.05H149.808Z" fill="#F2F3F5"/>
<path d="M155.208 130.168C155.218 130.204 155.223 130.241 155.223 130.278C155.224 130.362 155.193 130.442 155.135 130.502C155.077 130.562 154.998 130.597 154.915 130.599H154.414C154.333 130.598 154.254 130.57 154.19 130.519C154.126 130.468 154.081 130.397 154.062 130.318L153.781 129.385H152.383L152.109 130.318C152.088 130.397 152.041 130.468 151.976 130.518C151.911 130.569 151.832 130.597 151.75 130.599H151.265C151.224 130.599 151.183 130.59 151.144 130.574C151.106 130.558 151.071 130.534 151.042 130.504C151.013 130.474 150.99 130.439 150.975 130.4C150.959 130.362 150.952 130.32 150.952 130.278C150.953 130.241 150.958 130.204 150.969 130.168L152.461 125.315C152.483 125.237 152.53 125.168 152.595 125.119C152.66 125.069 152.739 125.042 152.82 125.042H153.36C153.44 125.042 153.518 125.07 153.582 125.119C153.645 125.168 153.691 125.237 153.712 125.315L155.208 130.168ZM153.082 126.991L152.715 128.251H153.442L153.082 126.991Z" fill="#F2F3F5"/>
<path d="M157.036 125.079C157.076 125.08 157.115 125.088 157.152 125.104C157.188 125.12 157.221 125.143 157.249 125.171C157.276 125.2 157.298 125.234 157.312 125.271C157.327 125.308 157.334 125.348 157.333 125.388V129.427H158.787C158.826 129.428 158.865 129.437 158.901 129.454C158.937 129.47 158.97 129.494 158.997 129.523C159.024 129.552 159.044 129.586 159.058 129.624C159.072 129.661 159.078 129.701 159.076 129.74V130.28C159.078 130.319 159.071 130.359 159.058 130.396C159.044 130.432 159.023 130.466 158.996 130.495C158.969 130.524 158.937 130.547 158.901 130.563C158.865 130.579 158.826 130.587 158.787 130.588H156.632C156.572 130.587 156.512 130.574 156.457 130.549C156.403 130.525 156.353 130.49 156.312 130.446C156.27 130.403 156.238 130.351 156.216 130.295C156.195 130.239 156.185 130.179 156.186 130.119V125.383C156.186 125.343 156.192 125.303 156.207 125.266C156.221 125.229 156.243 125.195 156.271 125.166C156.299 125.137 156.332 125.114 156.368 125.099C156.405 125.083 156.444 125.075 156.484 125.074L157.036 125.079Z" fill="#F2F3F5"/>
<path d="M79.3851 74.709H36.3019C28.2515 74.709 21.7253 81.2458 21.7253 89.3095V200.399C21.7253 208.463 28.2515 214.999 36.3019 214.999H79.3851C87.4355 214.999 93.9616 208.463 93.9616 200.399V89.3095C93.9616 81.2458 87.4355 74.709 79.3851 74.709Z" fill="#4AA29A"/>
<path d="M52.7767 116.961L1.95991 66.0633C0.704986 64.806 0 63.101 0 61.3232C0 59.5454 0.704986 57.8403 1.95991 56.5831L52.7767 5.68285C54.0319 4.42587 55.7341 3.71973 57.509 3.71973C59.2839 3.71973 60.9861 4.42587 62.2413 5.68285L113.058 56.5831C114.313 57.8403 115.018 59.5454 115.018 61.3232C115.018 63.101 114.313 64.806 113.058 66.0633L62.2413 116.961C60.9861 118.218 59.2839 118.925 57.509 118.925C55.7341 118.925 54.0319 118.218 52.7767 116.961Z" fill="#4AA29A"/>
<path d="M52.7767 111.962L6.9477 66.0575C5.69278 64.8003 4.98779 63.0952 4.98779 61.3174C4.98779 59.5396 5.69278 57.8346 6.9477 56.5774L52.7767 10.6731C54.0319 9.4161 55.7341 8.70996 57.509 8.70996C59.2839 8.70996 60.9861 9.4161 62.2413 10.6731L108.07 56.5774C109.325 57.8346 110.03 59.5396 110.03 61.3174C110.03 63.0952 109.325 64.8003 108.07 66.0575L62.2413 111.962C60.9861 113.219 59.2839 113.925 57.509 113.925C55.7341 113.925 54.0319 113.219 52.7767 111.962Z" fill="#F2F3F5"/>
<path d="M59.1761 190.458C60.7222 189.496 61.197 187.461 60.2365 185.912C59.2759 184.363 57.2439 183.888 55.6977 184.85C54.1516 185.812 53.6768 187.847 54.6374 189.396C55.5979 190.945 57.6299 191.42 59.1761 190.458Z" fill="#4AA29A" stroke="#F1F1F1" stroke-width="1.08026" stroke-miterlimit="10"/>
<path d="M58.6736 186.302V169.298C58.6736 168.958 58.3984 168.683 58.059 168.683H57.1334C56.794 168.683 56.5188 168.958 56.5188 169.298V186.302C56.5188 186.642 56.794 186.917 57.1334 186.917H58.059C58.3984 186.917 58.6736 186.642 58.6736 186.302Z" fill="#4AA29A" stroke="#F1F1F1" stroke-width="1.08026" stroke-miterlimit="10"/>
<path d="M47.7571 184.074C48.542 183.907 51.1534 183.466 53.7156 185.102C55.3922 186.169 56.251 187.604 56.6255 188.248C58.2231 190.989 58.5751 194.527 57.6188 197.424C57.5367 197.671 57.4649 197.854 57.4218 197.966C57.3229 197.072 57.1272 196.191 56.8379 195.339C56.5497 194.489 56.1655 193.674 55.6928 192.912C55.3043 192.424 54.8767 191.969 54.4143 191.551C52.1754 189.521 49.6748 188.904 48.1049 188.699C49.4801 189.234 50.7384 190.032 51.8101 191.047C52.6952 191.892 53.4525 192.861 54.0583 193.925C55.3922 196.246 55.78 198.556 55.9001 200.013C55.7749 199.747 55.6487 199.284 55.2896 198.91C53.0845 196.611 51.8932 196.406 49.2911 194.507C45.3458 191.629 43.7348 188.884 41.97 188.165C43.4722 186.811 44.2889 184.808 47.7571 184.074Z" fill="#4AA29A" stroke="#F1F1F1" stroke-width="1.08026" stroke-miterlimit="10"/>
<path d="M56.2366 201.267L55.6897 200.107C55.6589 200.041 55.6292 199.967 55.5974 199.889C55.4925 199.587 55.3305 199.308 55.1203 199.067C53.7289 197.616 52.7603 197.022 51.5413 196.27C50.8641 195.853 50.0955 195.38 49.1525 194.69C47.1394 193.222 45.7336 191.791 44.6039 190.642C43.544 189.565 42.7077 188.714 41.8817 188.381L41.5452 188.244L41.813 188.004C42.179 187.661 42.5244 187.298 42.8473 186.914C43.8733 185.749 45.0328 184.427 47.7078 183.859C48.9617 183.593 51.4253 183.376 53.8418 184.913C55.6005 186.034 56.4911 187.562 56.8266 188.137C58.4427 190.912 58.8306 194.496 57.8394 197.497C57.7634 197.724 57.6967 197.898 57.6526 198.011L57.2976 198.936L57.195 197.989C57.0966 197.111 56.9043 196.246 56.6214 195.409C56.3395 194.579 55.965 193.784 55.505 193.039C55.1258 192.566 54.7096 192.123 54.2604 191.716C52.9987 190.577 51.4901 189.746 49.8534 189.291C50.6181 189.74 51.3296 190.276 51.9743 190.886C52.8743 191.746 53.6453 192.732 54.2635 193.814C55.3193 195.649 55.9483 197.729 56.1351 199.996L56.2366 201.267ZM42.3712 188.098C43.1756 188.528 43.9667 189.332 44.9364 190.32C46.0548 191.458 47.4462 192.873 49.4286 194.32C50.352 194.999 51.1175 195.466 51.7886 195.879C52.9891 196.619 54.0264 197.257 55.4578 198.749C55.4814 198.773 55.503 198.797 55.5245 198.821C55.2652 197.136 54.6997 195.513 53.8561 194.033C53.2606 192.99 52.5175 192.038 51.65 191.208C50.6012 190.211 49.3685 189.429 48.0208 188.904L46.2446 188.217L48.1378 188.467C50.6065 188.795 52.8311 189.803 54.5723 191.373C55.0437 191.8 55.4799 192.264 55.8765 192.761L55.8919 192.783C56.3734 193.561 56.7652 194.39 57.0596 195.257C57.2502 195.82 57.4011 196.395 57.511 196.979C58.3186 194.174 57.9133 190.903 56.4244 188.346C56.1043 187.797 55.2547 186.339 53.5904 185.278C51.3145 183.83 48.9904 184.036 47.8074 184.286C45.2842 184.823 44.2253 186.028 43.2002 187.195C42.9232 187.516 42.6585 187.816 42.3712 188.098Z" fill="#4AA29A" stroke="#F1F1F1" stroke-width="1.08026" stroke-miterlimit="10"/>
<path d="M66.4903 189.315C65.5524 189.129 63.8963 188.802 61.9816 189.521C61.3855 189.743 60.4066 190.122 59.4688 191.159C59.0508 191.604 58.7046 192.111 58.4427 192.663C57.6865 194.254 57.6977 195.985 57.7029 196.831C57.7029 197.026 57.709 197.187 57.7142 197.296C57.8865 197.047 58.1113 196.737 58.3842 196.392L58.535 196.206C58.535 196.206 58.7259 195.973 58.8808 195.794C59.2817 195.352 59.7289 194.953 60.2147 194.606C61.037 193.992 61.9732 193.549 62.9687 193.302C63.5609 193.159 64.1686 193.09 64.7777 193.097C64.2411 193.52 63.7896 193.844 63.4695 194.065C62.9462 194.427 62.2731 194.861 61.7149 195.308C61.3044 195.636 61.012 195.897 60.7206 196.168C59.9664 196.865 59.5919 197.214 59.3302 197.537C58.897 198.079 58.5439 198.68 58.2816 199.323C58.417 199.166 58.614 198.878 58.9475 198.726C60.9679 197.808 61.8257 198.071 64.0266 197.583C67.3635 196.842 68.0786 190.445 69.4444 190.533C69.4444 190.533 69.3417 190.467 69.3417 190.464C68.2131 189.66 66.4903 189.315 66.4903 189.315Z" fill="#4AA29A" stroke="#F1F1F1" stroke-width="1.08026" stroke-miterlimit="10"/>
<path d="M57.5253 200.553L58.0692 199.237C58.3371 198.573 58.6982 197.95 59.1414 197.387C59.4113 197.05 59.793 196.697 60.5543 195.993C60.8139 195.753 61.1146 195.479 61.562 195.123C61.9929 194.777 62.4926 194.439 62.9328 194.14C63.0713 194.046 63.2047 193.956 63.3299 193.869C63.5734 193.701 63.8173 193.526 64.0615 193.344C63.7098 193.375 63.361 193.433 63.018 193.517C62.0533 193.755 61.1462 194.185 60.3501 194.781C59.8793 195.119 59.4456 195.506 59.0563 195.936C58.9054 196.109 58.7166 196.338 58.7156 196.341C58.6253 196.45 58.5668 196.524 58.5668 196.524C58.338 196.812 58.1153 197.112 57.905 197.417L57.5099 197.988L57.4812 197.299C57.474 197.141 57.4699 196.982 57.4699 196.825C57.4638 195.972 57.4535 194.197 58.2313 192.559C58.5017 191.987 58.8596 191.462 59.2923 191.001C60.0014 190.222 60.8974 189.637 61.8954 189.302C63.8727 188.564 65.6037 188.906 66.5333 189.09L66.7191 189.127C67.2064 189.242 68.5404 189.601 69.4843 190.271L69.5254 190.301L70.8295 190.384L69.509 190.754C69.479 190.763 69.4476 190.765 69.4166 190.761C69.0298 190.761 68.5588 191.854 68.1022 192.906C67.2454 194.882 66.1804 197.34 64.081 197.807C63.2776 197.984 62.6445 198.065 62.0883 198.136C61.0941 198.262 60.3091 198.361 59.048 198.934C58.8445 199.042 58.6688 199.196 58.535 199.384C58.5094 199.416 58.4847 199.445 58.4622 199.472L57.5253 200.553ZM64.7079 192.864H64.7715H65.4221L64.9152 193.264C64.4801 193.606 64.0358 193.935 63.5946 194.239C63.4694 194.327 63.334 194.418 63.1945 194.513C62.7614 194.807 62.271 195.14 61.8544 195.475C61.4183 195.824 61.1238 196.091 60.8714 196.323C60.1265 197.011 59.7519 197.358 59.5036 197.667C59.3021 197.919 59.1199 198.187 58.9588 198.467C60.2229 197.906 61.0612 197.799 62.0268 197.677C62.5737 197.608 63.1945 197.529 63.9763 197.355C65.8438 196.944 66.8586 194.601 67.6702 192.721C68.1289 191.662 68.4911 190.82 68.9436 190.471C67.8898 189.834 66.4984 189.546 66.4348 189.535C65.4898 189.347 63.9076 189.035 62.0555 189.725C61.1278 190.036 60.2943 190.578 59.6339 191.301C59.2316 191.73 58.8986 192.218 58.6469 192.75C57.9758 194.162 57.9286 195.708 57.9286 196.591C58.0168 196.474 58.1061 196.358 58.1964 196.244C58.1964 196.244 58.2559 196.168 58.3493 196.055C58.3575 196.045 58.5432 195.818 58.6992 195.639C59.1106 195.183 59.5699 194.773 60.069 194.415C60.9151 193.783 61.8786 193.327 62.903 193.074C63.4949 192.932 64.1015 192.862 64.71 192.864H64.7079Z" fill="#4AA29A" stroke="#F1F1F1" stroke-width="1.08026" stroke-miterlimit="10"/>
<path d="M75.0878 165.735H71.7571L71.8341 159.814L70.7239 157.558C71.5324 153.154 72.3417 148.751 73.1516 144.348H75.0878V165.735Z" fill="#4AA29A" stroke="#F1F1F1" stroke-width="1.08026" stroke-miterlimit="10"/>
<path d="M75.3196 165.962H71.5179L71.598 159.863L70.4785 157.593L70.813 155.772L72.9545 144.124H75.3145L75.3196 165.962ZM71.992 165.507H74.8558V144.578H73.3454L70.9649 157.528L72.0669 159.763L71.992 165.507Z" fill="#4AA29A" stroke="#F1F1F1" stroke-width="1.08026" stroke-miterlimit="10"/>
<path d="M72.8931 167.647L74.5646 164.823L79.7524 167.86L82.2982 168.049L92.7396 176.735L91.7679 178.38L72.8931 167.647Z" fill="#4AA29A" stroke="#F1F1F1" stroke-width="1.08026" stroke-miterlimit="10"/>
<path d="M91.8519 178.688L72.5759 167.732L74.4824 164.513L79.8293 167.637L82.3945 167.828L82.452 167.876L93.0422 176.685L91.8519 178.688ZM73.21 167.564L91.6796 178.066L92.4378 176.785L82.2016 168.27L79.6764 168.082L74.6486 165.136L73.21 167.564Z" fill="#4AA29A" stroke="#F1F1F1" stroke-width="1.08026" stroke-miterlimit="10"/>
<path d="M73.1772 163.244L75.372 165.699C73.8404 166.981 72.3081 168.263 70.7752 169.543L69.7737 171.843L58.0374 178.76L56.762 177.333L73.1772 163.244Z" fill="#4AA29A" stroke="#F1F1F1" stroke-width="1.08026" stroke-miterlimit="10"/>
<path d="M57.9911 179.053L56.4346 177.306L56.609 177.155L73.1987 162.922L75.7013 165.723L70.967 169.685L69.9625 172.005L57.9911 179.053ZM57.0892 177.353L58.0845 178.467L69.5941 171.684L70.5832 169.4L75.0426 165.676L73.1597 163.564L57.0892 177.353Z" fill="#4AA29A" stroke="#F1F1F1" stroke-width="1.08026" stroke-miterlimit="10"/>
<path d="M72.2087 167.62H74.2742C74.5409 177.228 74.8081 186.835 75.0755 196.443H71.3303C71.6231 186.835 71.9159 177.228 72.2087 167.62Z" fill="#4AA29A" stroke="#F1F1F1" stroke-width="1.08026" stroke-miterlimit="10"/>
<path d="M75.3147 196.67H71.0913L71.0985 196.435L71.983 167.392H74.5L75.3147 196.67ZM71.5705 196.214H74.8375L74.0495 167.848H72.4334L71.5705 196.214Z" fill="#4AA29A" stroke="#F1F1F1" stroke-width="1.08026" stroke-miterlimit="10"/>
<path d="M73.3322 168.619C74.9439 168.619 76.2504 167.339 76.2504 165.76C76.2504 164.181 74.9439 162.9 73.3322 162.9C71.7206 162.9 70.4141 164.181 70.4141 165.76C70.4141 167.339 71.7206 168.619 73.3322 168.619Z" fill="#4AA29A" stroke="#F1F1F1" stroke-width="1.08026" stroke-miterlimit="10"/>
<path d="M73.3323 168.912C71.5582 168.912 70.1155 167.498 70.1155 165.76C70.1155 164.022 71.5582 162.607 73.3323 162.607C75.1064 162.607 76.546 164.022 76.546 165.76C76.546 167.498 75.1094 168.912 73.3323 168.912ZM73.3323 163.192C71.8875 163.192 70.7116 164.344 70.7116 165.762C70.7116 167.179 71.8875 168.331 73.3323 168.331C74.777 168.331 75.9519 167.179 75.9519 165.762C75.9519 164.344 74.777 163.192 73.3323 163.192Z" fill="#4AA29A" stroke="#F1F1F1" stroke-width="1.08026" stroke-miterlimit="10"/>
<path d="M77.5033 189.913H68.7744V196.746H77.5033V189.913Z" fill="#4AA29A" stroke="#F1F1F1" stroke-width="1.08026" stroke-miterlimit="10"/>
<path d="M77.7341 196.972H68.5425V189.686H77.7352L77.7341 196.972ZM69.0063 196.518H77.2704V190.146H69.0063V196.518Z" fill="#4AA29A" stroke="#F1F1F1" stroke-width="1.08026" stroke-miterlimit="10"/>
<path d="M41.8735 165.779H38.5428L38.6197 159.858L37.5095 157.605C38.3188 153.202 39.128 148.799 39.9372 144.396H41.8735V165.779Z" fill="#4AA29A" stroke="#F1F1F1" stroke-width="1.08026" stroke-miterlimit="10"/>
<path d="M42.1065 166.006H38.31L38.389 159.908L37.2695 157.638L37.2839 157.565L39.7465 144.169H42.1065V166.006ZM38.7779 165.552H41.6417V144.623H40.1313L37.7518 157.573L38.8528 159.806L38.7779 165.552Z" fill="#4AA29A" stroke="#F1F1F1" stroke-width="1.08026" stroke-miterlimit="10"/>
<path d="M39.6787 167.691C40.2362 166.75 40.7937 165.809 41.3512 164.867L46.5391 167.905L49.0838 168.093L59.5262 176.776L58.5535 178.42L39.6787 167.691Z" fill="#4AA29A" stroke="#F1F1F1" stroke-width="1.08026" stroke-miterlimit="10"/>
<path d="M58.6388 178.729L39.3618 167.774L41.2683 164.555L46.6111 167.682L49.1763 167.872L52.5193 170.653L59.8209 176.73L58.6388 178.729ZM39.9959 167.608L58.4654 178.111L59.2237 176.83L48.9875 168.315L46.4623 168.127L41.4294 165.181L39.9959 167.608Z" fill="#4AA29A" stroke="#F1F1F1" stroke-width="1.08026" stroke-miterlimit="10"/>
<path d="M39.9629 163.288L42.1577 165.744L37.5608 169.588L36.5635 171.891C32.6514 174.195 28.7382 176.5 24.8241 178.804L23.5476 177.377L39.9629 163.288Z" fill="#4AA29A" stroke="#F1F1F1" stroke-width="1.08026" stroke-miterlimit="10"/>
<path d="M24.7768 179.097L23.2202 177.356L23.3946 177.206L39.9854 162.967L42.487 165.767L37.7537 169.726L36.7481 172.047L24.7768 179.097ZM23.8749 177.398L24.8702 178.512L36.3797 171.729L37.3689 169.445L41.8293 165.715L39.9413 163.604L23.8749 177.398Z" fill="#4AA29A" stroke="#F1F1F1" stroke-width="1.08026" stroke-miterlimit="10"/>
<path d="M38.9911 167.664H41.0577L41.858 196.487H38.1128C38.4083 186.879 38.7011 177.272 38.9911 167.664Z" fill="#4AA29A" stroke="#F1F1F1" stroke-width="1.08026" stroke-miterlimit="10"/>
<path d="M42.0993 196.716H37.877L37.8841 196.481L38.7696 167.438H41.2866L42.0993 196.716ZM38.3551 196.26H41.6222L40.8352 167.894H39.2201L38.3551 196.26Z" fill="#4AA29A" stroke="#F1F1F1" stroke-width="1.08026" stroke-miterlimit="10"/>
<path d="M40.1179 168.664C41.7296 168.664 43.0361 167.384 43.0361 165.805C43.0361 164.225 41.7296 162.945 40.1179 162.945C38.5062 162.945 37.1997 164.225 37.1997 165.805C37.1997 167.384 38.5062 168.664 40.1179 168.664Z" fill="#4AA29A" stroke="#F1F1F1" stroke-width="1.08026" stroke-miterlimit="10"/>
<path d="M40.1199 168.957C38.3468 168.957 36.9031 167.543 36.9031 165.805C36.9031 164.068 38.3468 162.653 40.1199 162.653C41.8929 162.653 43.3366 164.068 43.3366 165.805C43.3366 167.543 41.8909 168.957 40.1199 168.957ZM40.1199 163.238C38.6751 163.238 37.5003 164.389 37.5003 165.808C37.5003 167.226 38.6751 168.377 40.1199 168.377C41.5646 168.377 42.7394 167.225 42.7394 165.808C42.7394 164.39 41.5625 163.238 40.1199 163.238Z" fill="#4AA29A" stroke="#F1F1F1" stroke-width="1.08026" stroke-miterlimit="10"/>
<path d="M44.289 189.958H35.5601V196.791H44.289V189.958Z" fill="#4AA29A" stroke="#F1F1F1" stroke-width="1.08026" stroke-miterlimit="10"/>
<path d="M44.5208 197.023H35.3281V189.736H44.5208V197.023ZM35.7919 196.569H44.056V190.191H35.7919V196.569Z" fill="#4AA29A" stroke="#F1F1F1" stroke-width="1.08026" stroke-miterlimit="10"/>
<path d="M60.5391 163.957H55.9771L56.0797 155.852C55.5728 154.824 55.0663 153.797 54.5601 152.769C55.6669 146.739 56.7743 140.713 57.8825 134.689H60.5391V163.957Z" fill="#4AA29A" stroke="#F1F1F1" stroke-width="1.08026" stroke-miterlimit="10"/>
<path d="M60.7678 164.184H55.74L55.8426 155.902L54.3137 152.801L54.3271 152.729L57.6844 134.463H60.7627L60.7678 164.184ZM56.212 163.729H60.304V134.917H58.0764L54.8042 152.737L56.3156 155.801L56.212 163.729Z" fill="#4AA29A" stroke="#F1F1F1" stroke-width="1.08026" stroke-miterlimit="10"/>
<path d="M57.5315 166.573C58.2949 165.285 59.0576 163.997 59.8197 162.709L66.9212 166.866L70.4047 167.124L84.696 179.014L83.3621 181.26L57.5315 166.573Z" fill="#4AA29A" stroke="#F1F1F1" stroke-width="1.08026" stroke-miterlimit="10"/>
<path d="M83.4505 181.571L83.2453 181.457L57.2104 166.657L59.7336 162.396L66.989 166.643L70.4931 166.903L84.9906 178.963L83.4505 181.571ZM57.8497 166.491L83.2822 180.95L84.3986 179.064L70.3125 167.347L66.8485 167.09L59.9029 163.025L57.8497 166.491Z" fill="#4AA29A" stroke="#F1F1F1" stroke-width="1.08026" stroke-miterlimit="10"/>
<path d="M57.9214 160.547L60.9248 163.909L54.6339 169.171L53.2681 172.322L37.1997 181.785L35.4553 179.832L57.9214 160.547Z" fill="#4AA29A" stroke="#F1F1F1" stroke-width="1.08026" stroke-miterlimit="10"/>
<path d="M37.1535 182.077L35.126 179.809L57.943 160.229L61.2572 163.929L54.8288 169.307L53.4559 172.476L37.1535 182.077ZM35.7806 179.852L37.2469 181.496L53.0845 172.169L54.441 169.036L60.5975 163.889L57.902 160.873L35.7806 179.852Z" fill="#4AA29A" stroke="#F1F1F1" stroke-width="1.08026" stroke-miterlimit="10"/>
<path d="M56.5949 166.536H59.4227L60.5186 205.985H55.3933C55.7942 192.836 56.1947 179.686 56.5949 166.536Z" fill="#4AA29A" stroke="#F1F1F1" stroke-width="1.08026" stroke-miterlimit="10"/>
<path d="M60.7565 206.214H55.1541L55.1612 205.98L56.37 166.308H59.6534L60.7565 206.214ZM55.6322 205.76H60.2804L59.1968 166.765H56.8204L55.6322 205.76Z" fill="#4AA29A" stroke="#F1F1F1" stroke-width="1.08026" stroke-miterlimit="10"/>
<path d="M58.133 167.905C60.3391 167.905 62.1275 166.152 62.1275 163.991C62.1275 161.829 60.3391 160.077 58.133 160.077C55.9268 160.077 54.1384 161.829 54.1384 163.991C54.1384 166.152 55.9268 167.905 58.133 167.905Z" fill="#4AA29A" stroke="#F1F1F1" stroke-width="1.08026" stroke-miterlimit="10"/>
<path d="M58.1329 168.197C55.7658 168.197 53.8408 166.31 53.8408 163.991C53.8408 161.671 55.7658 159.785 58.1329 159.785C60.5001 159.785 62.425 161.672 62.425 163.991C62.425 166.309 60.5001 168.197 58.1329 168.197ZM58.1329 160.37C56.0951 160.37 54.439 161.994 54.439 163.991C54.439 165.988 56.0972 167.613 58.1329 167.613C60.1687 167.613 61.8268 165.988 61.8268 163.991C61.8268 161.994 60.1707 160.37 58.1329 160.37Z" fill="#4AA29A" stroke="#F1F1F1" stroke-width="1.08026" stroke-miterlimit="10"/>
<path d="M63.841 197.05H51.8943V206.401H63.841V197.05Z" fill="#4AA29A" stroke="#F1F1F1" stroke-width="1.08026" stroke-miterlimit="10"/>
<path d="M64.0728 206.629H51.6572V196.823H64.0728V206.629ZM52.1251 206.171H63.609V197.273H52.1251V206.171Z" fill="#4AA29A" stroke="#F1F1F1" stroke-width="1.08026" stroke-miterlimit="10"/>
<path d="M58.1258 164.914C58.6347 164.914 59.0472 164.509 59.0472 164.011C59.0472 163.513 58.6347 163.108 58.1258 163.108C57.6169 163.108 57.2043 163.513 57.2043 164.011C57.2043 164.509 57.6169 164.914 58.1258 164.914Z" fill="#4AA29A" stroke="#F1F1F1" stroke-width="1.08026" stroke-miterlimit="10"/>
<path d="M58.1256 165.141C57.9034 165.136 57.6877 165.066 57.5053 164.939C57.323 164.812 57.1822 164.633 57.1005 164.426C57.0188 164.219 57 163.993 57.0463 163.775C57.0925 163.557 57.2019 163.358 57.3607 163.203C57.5195 163.047 57.7206 162.942 57.9389 162.9C58.1571 162.858 58.3828 162.882 58.5876 162.968C58.7924 163.055 58.9673 163.199 59.0902 163.385C59.2132 163.57 59.2788 163.788 59.2789 164.01C59.2751 164.313 59.1516 164.603 58.9354 164.815C58.7192 165.026 58.428 165.144 58.1256 165.141ZM58.1256 163.336C57.9929 163.339 57.864 163.381 57.7552 163.457C57.6464 163.533 57.5624 163.64 57.5137 163.764C57.4651 163.887 57.454 164.023 57.4818 164.153C57.5096 164.283 57.5751 164.402 57.67 164.495C57.765 164.587 57.8852 164.65 58.0156 164.675C58.146 164.7 58.2808 164.685 58.4031 164.634C58.5253 164.582 58.6297 164.495 58.703 164.384C58.7762 164.273 58.8153 164.143 58.8151 164.01C58.814 163.921 58.7953 163.832 58.7601 163.75C58.7249 163.667 58.6738 163.593 58.6097 163.53C58.5457 163.468 58.47 163.418 58.3869 163.385C58.3038 163.352 58.215 163.335 58.1256 163.336Z" fill="#4AA29A" stroke="#F1F1F1" stroke-width="1.08026" stroke-miterlimit="10"/>
<path d="M53.6889 46.3342V54.7979H64.6433C66.1465 54.7979 67.3635 56.0168 67.3635 57.5955V62.4003C67.3635 63.9789 66.1465 65.1979 64.6433 65.1979H53.6889V75.5269H68.8749C70.3791 75.5269 71.5961 76.8178 71.5961 78.3955V83.3442C71.5961 84.9948 70.3791 86.2137 68.8749 86.2137H47.3159C44.9559 86.2137 43.2341 84.2054 43.2341 81.9104V39.9507C43.2286 39.393 43.3332 38.8398 43.5421 38.3228C43.751 37.8058 44.0599 37.3353 44.451 36.9383C45.1693 36.0771 46.2415 35.6475 47.3159 35.6475H68.8698C70.374 35.6475 71.5909 36.8664 71.5909 38.516V43.4647C71.5909 45.0433 70.374 46.3342 68.8698 46.3342H53.6889Z" fill="#404040"/>
<path d="M27.9342 126.042V126.967H29.1306C29.1704 126.968 29.2098 126.976 29.2464 126.991C29.283 127.007 29.3161 127.03 29.3437 127.059C29.3713 127.088 29.3929 127.122 29.4073 127.159C29.4216 127.196 29.4283 127.236 29.4271 127.276V127.8C29.4285 127.84 29.4218 127.879 29.4076 127.917C29.3933 127.954 29.3717 127.988 29.344 128.017C29.3164 128.046 29.2832 128.068 29.2465 128.084C29.2099 128.1 29.1704 128.108 29.1306 128.108H27.9342V129.239H29.5913C29.6718 129.242 29.748 129.276 29.8035 129.335C29.8589 129.393 29.8892 129.471 29.8878 129.552V130.092C29.8888 130.131 29.8818 130.171 29.8674 130.208C29.853 130.245 29.8314 130.279 29.8038 130.308C29.7762 130.336 29.7432 130.359 29.7067 130.375C29.6703 130.391 29.631 130.399 29.5913 130.4H27.2395C27.1794 130.399 27.12 130.386 27.065 130.361C27.01 130.337 26.9603 130.302 26.9189 130.258C26.8775 130.215 26.8451 130.163 26.8237 130.107C26.8023 130.051 26.7923 129.991 26.7942 129.93V125.352C26.7934 125.291 26.8048 125.23 26.8275 125.174C26.8502 125.117 26.8839 125.066 26.9265 125.023C26.9651 124.978 27.0132 124.942 27.0673 124.917C27.1214 124.893 27.1802 124.881 27.2395 124.882H29.5913C29.6311 124.882 29.6704 124.891 29.7069 124.906C29.7435 124.922 29.7765 124.945 29.8041 124.974C29.8317 125.002 29.8533 125.036 29.8677 125.074C29.8821 125.111 29.8889 125.15 29.8878 125.19V125.731C29.8879 125.811 29.857 125.887 29.8017 125.945C29.7464 126.002 29.6709 126.036 29.5913 126.039L27.9342 126.042Z" fill="#F2F3F5"/>
<path d="M32.1699 127.161V130.081C32.1715 130.121 32.1649 130.16 32.1507 130.198C32.1365 130.235 32.1149 130.269 32.0872 130.298C32.0595 130.327 32.0263 130.35 31.9896 130.365C31.9528 130.381 31.9133 130.389 31.8734 130.389H31.3809C31.3411 130.388 31.3019 130.38 31.2654 130.364C31.2289 130.348 31.196 130.325 31.1684 130.297C31.1408 130.268 31.1192 130.234 31.1048 130.197C31.0903 130.16 31.0834 130.12 31.0843 130.081V125.244C31.0831 125.197 31.0912 125.15 31.1082 125.105C31.1252 125.061 31.1508 125.021 31.1834 124.987C31.216 124.953 31.2551 124.925 31.2983 124.906C31.3415 124.887 31.3881 124.877 31.4353 124.876H31.9986C32.0611 124.877 32.1223 124.894 32.1763 124.925C32.2302 124.957 32.2751 125.002 32.3064 125.056L34.0179 128.117V125.188C34.017 125.149 34.0239 125.109 34.0383 125.072C34.0528 125.035 34.0744 125.001 34.102 124.972C34.1295 124.944 34.1625 124.921 34.199 124.905C34.2355 124.889 34.2747 124.881 34.3145 124.88H34.8152C34.8546 124.881 34.8934 124.889 34.9295 124.905C34.9655 124.921 34.998 124.944 35.0249 124.973C35.0519 125.002 35.0729 125.036 35.0865 125.073C35.1002 125.11 35.1063 125.149 35.1045 125.188V130.026C35.1056 130.073 35.0974 130.121 35.0803 130.165C35.0632 130.209 35.0375 130.249 35.0048 130.283C34.9721 130.317 34.933 130.345 34.8897 130.364C34.8465 130.383 34.7999 130.393 34.7526 130.394H34.1821C34.119 130.393 34.0571 130.376 34.0024 130.345C33.9476 130.313 33.9017 130.268 33.8691 130.214L32.1699 127.161Z" fill="#F2F3F5"/>
<path d="M40.2656 124.874C40.3074 124.875 40.3487 124.884 40.3869 124.902C40.4251 124.919 40.4595 124.943 40.4882 124.974C40.5168 125.005 40.5391 125.041 40.5537 125.08C40.5683 125.119 40.575 125.161 40.5734 125.203C40.5753 125.237 40.5728 125.272 40.5662 125.306L39.0661 130.166C39.0431 130.244 38.9955 130.311 38.9305 130.36C38.8655 130.408 38.7867 130.433 38.7059 130.432H38.1744C38.0938 130.433 38.0152 130.407 37.9504 130.359C37.8856 130.311 37.8382 130.243 37.8153 130.166L36.3234 125.307C36.3158 125.273 36.313 125.238 36.3151 125.204C36.3136 125.162 36.3206 125.119 36.3356 125.08C36.3506 125.04 36.3733 125.004 36.4025 124.974C36.4316 124.943 36.4666 124.918 36.5054 124.901C36.5441 124.885 36.5858 124.876 36.6281 124.875H37.1124C37.1937 124.877 37.272 124.906 37.3355 124.957C37.3991 125.008 37.4443 125.078 37.4644 125.157L38.4412 128.475L39.418 125.157C39.4386 125.077 39.4849 125.006 39.5499 124.955C39.6148 124.904 39.6947 124.876 39.7772 124.875L40.2656 124.874Z" fill="#F2F3F5"/>
<path d="M43.9534 124.844C44.0332 124.846 44.1089 124.88 44.1644 124.938C44.22 124.995 44.251 125.072 44.2509 125.152V125.653C44.2517 125.692 44.2447 125.732 44.2301 125.769C44.2156 125.806 44.1939 125.84 44.1662 125.869C44.1386 125.897 44.1055 125.92 44.069 125.936C44.0324 125.952 43.9932 125.96 43.9534 125.961H43.5163V129.256H43.9534C44.0332 129.259 44.1089 129.292 44.1644 129.35C44.22 129.407 44.251 129.484 44.2509 129.564V130.065C44.2517 130.105 44.2447 130.144 44.2301 130.181C44.2156 130.218 44.1939 130.252 44.1662 130.281C44.1386 130.31 44.1055 130.333 44.069 130.348C44.0324 130.364 43.9932 130.373 43.9534 130.373H41.9299C41.8902 130.373 41.8509 130.364 41.8145 130.348C41.778 130.333 41.745 130.31 41.7174 130.281C41.6898 130.252 41.6682 130.218 41.6538 130.181C41.6394 130.144 41.6324 130.105 41.6334 130.065V129.564C41.6333 129.484 41.6642 129.408 41.7195 129.35C41.7748 129.293 41.8503 129.259 41.9299 129.256H42.367V125.961H41.9299C41.8902 125.96 41.8509 125.952 41.8145 125.936C41.778 125.92 41.745 125.897 41.7174 125.869C41.6898 125.84 41.6682 125.806 41.6538 125.769C41.6394 125.732 41.6324 125.692 41.6334 125.653V125.152C41.6333 125.072 41.6642 124.995 41.7195 124.938C41.7748 124.88 41.8503 124.847 41.9299 124.844H43.9534Z" fill="#F2F3F5"/>
<path d="M47.8064 128.195L48.853 129.909C48.8833 129.961 48.8995 130.021 48.9002 130.081C48.9002 130.163 48.8678 130.241 48.81 130.299C48.7523 130.357 48.674 130.389 48.5924 130.389H48.0301C47.968 130.391 47.9067 130.376 47.8525 130.345C47.7984 130.315 47.7534 130.27 47.7223 130.217L46.6202 128.346H46.5105V130.076C46.5114 130.116 46.5045 130.155 46.49 130.192C46.4756 130.229 46.454 130.263 46.4264 130.292C46.3988 130.321 46.3659 130.344 46.3294 130.359C46.2929 130.375 46.2537 130.384 46.2139 130.384H45.667C45.6272 130.384 45.5879 130.375 45.5514 130.359C45.5149 130.344 45.4818 130.321 45.4542 130.292C45.4265 130.263 45.4048 130.229 45.3902 130.192C45.3757 130.155 45.3686 130.116 45.3694 130.076V125.341C45.3689 125.28 45.3804 125.219 45.4033 125.163C45.4262 125.107 45.46 125.055 45.5028 125.012C45.5414 124.967 45.5895 124.931 45.6436 124.906C45.6977 124.882 45.7565 124.87 45.8158 124.871H47.1046C47.3294 124.874 47.5516 124.92 47.7583 125.009C47.965 125.098 48.1522 125.227 48.3091 125.388C48.4659 125.55 48.5894 125.74 48.6724 125.95C48.7553 126.159 48.7961 126.383 48.7925 126.608C48.7972 126.939 48.7068 127.265 48.532 127.547C48.3572 127.828 48.1053 128.053 47.8064 128.195ZM46.5166 126.026V127.201H47.0717C47.223 127.195 47.366 127.13 47.4708 127.021C47.5756 126.911 47.6341 126.765 47.6341 126.614C47.6341 126.462 47.5756 126.316 47.4708 126.207C47.366 126.097 47.223 126.033 47.0717 126.026H46.5166Z" fill="#F2F3F5"/>
<path d="M53.7844 128.414C53.7844 129.518 52.9399 130.496 51.8071 130.496C50.6743 130.496 49.8298 129.518 49.8298 128.414V126.864C49.8298 125.76 50.6815 124.79 51.8071 124.79C52.9327 124.79 53.7844 125.76 53.7844 126.864V128.414ZM52.6434 126.864C52.6434 126.403 52.2914 125.957 51.8071 125.957C51.3228 125.957 50.9708 126.403 50.9708 126.864V128.414C50.9708 128.868 51.331 129.33 51.8071 129.33C52.2832 129.33 52.6434 128.875 52.6434 128.414V126.864Z" fill="#F2F3F5"/>
<path d="M56.1597 127.161V130.081C56.1612 130.121 56.1547 130.16 56.1405 130.198C56.1263 130.235 56.1047 130.269 56.077 130.298C56.0493 130.327 56.0161 130.35 55.9793 130.365C55.9426 130.381 55.9031 130.389 55.8632 130.389H55.3707C55.3309 130.388 55.2916 130.38 55.255 130.364C55.2185 130.348 55.1855 130.325 55.1578 130.297C55.1301 130.268 55.1084 130.234 55.0939 130.197C55.0793 130.16 55.0723 130.12 55.0731 130.081V125.244C55.072 125.197 55.0803 125.15 55.0974 125.105C55.1145 125.061 55.1401 125.021 55.1728 124.987C55.2055 124.953 55.2446 124.925 55.2879 124.906C55.3312 124.887 55.3778 124.877 55.425 124.876H55.9873C56.0507 124.876 56.113 124.892 56.1679 124.924C56.2229 124.955 56.2685 125.001 56.3003 125.056L58.0118 128.117V125.188C58.0107 125.149 58.0176 125.109 58.0319 125.072C58.0463 125.035 58.0679 125.001 58.0955 124.972C58.1231 124.943 58.1562 124.92 58.1927 124.905C58.2293 124.889 58.2686 124.88 58.3084 124.88H58.8091C58.8484 124.881 58.8872 124.889 58.9232 124.905C58.9592 124.921 58.9916 124.944 59.0185 124.973C59.0454 125.002 59.0662 125.036 59.0798 125.073C59.0933 125.11 59.0993 125.149 59.0974 125.188V130.026C59.0986 130.073 59.0905 130.12 59.0735 130.165C59.0565 130.209 59.031 130.249 58.9984 130.283C58.9658 130.317 58.9267 130.345 58.8835 130.364C58.8403 130.383 58.7937 130.393 58.7465 130.394H58.1791C58.1159 130.393 58.054 130.376 57.9992 130.345C57.9445 130.313 57.8986 130.268 57.8661 130.214L56.1597 127.161Z" fill="#F2F3F5"/>
<path d="M61.9428 127.34L61.6534 130.088C61.6432 130.171 61.6037 130.247 61.542 130.304C61.4803 130.361 61.4004 130.393 61.3169 130.396H60.8038C60.7614 130.398 60.7191 130.39 60.6799 130.374C60.6407 130.358 60.6056 130.333 60.5771 130.301C60.5185 130.229 60.4905 130.136 60.4991 130.043L61.0768 125.222C61.08 125.125 61.1211 125.033 61.1913 124.966C61.2615 124.898 61.3552 124.861 61.4523 124.862H62.0854C62.1658 124.863 62.2439 124.89 62.3073 124.939C62.3708 124.989 62.4162 125.058 62.4363 125.136L63.4757 128.486L64.5018 125.129C64.5257 125.052 64.5735 124.984 64.6383 124.936C64.7031 124.888 64.7815 124.863 64.862 124.862H65.4325C65.5307 124.86 65.6259 124.896 65.6976 124.964C65.7692 125.031 65.8115 125.124 65.8152 125.222L66.3929 130.043C66.4015 130.136 66.3735 130.229 66.3149 130.301C66.2864 130.333 66.2513 130.358 66.2121 130.374C66.1729 130.39 66.1306 130.398 66.0882 130.396H65.5495C65.4652 130.395 65.3842 130.363 65.3221 130.306C65.2599 130.25 65.221 130.172 65.2129 130.088L64.9164 127.34L64.0493 130.174C64.0288 130.252 63.9833 130.321 63.9197 130.371C63.8561 130.42 63.778 130.448 63.6974 130.448H63.1659C63.0865 130.448 63.0095 130.422 62.9462 130.374C62.8829 130.326 62.8369 130.259 62.815 130.182L61.9428 127.34Z" fill="#F2F3F5"/>
<path d="M68.913 126.042V126.967H70.1084C70.1482 126.968 70.1876 126.976 70.2242 126.991C70.2608 127.007 70.2939 127.03 70.3215 127.059C70.3491 127.088 70.3707 127.122 70.3851 127.159C70.3994 127.196 70.4061 127.236 70.4049 127.276V127.8C70.4063 127.84 70.3996 127.879 70.3853 127.917C70.3711 127.954 70.3495 127.988 70.3218 128.017C70.2941 128.046 70.261 128.068 70.2243 128.084C70.1877 128.1 70.1482 128.108 70.1084 128.108H68.913V129.239H70.5691C70.6498 129.241 70.7263 129.276 70.7819 129.334C70.8376 129.393 70.868 129.471 70.8666 129.552V130.092C70.8674 130.132 70.8604 130.171 70.8458 130.208C70.8313 130.245 70.8096 130.279 70.7819 130.308C70.7543 130.337 70.7212 130.359 70.6847 130.375C70.6481 130.391 70.6089 130.399 70.5691 130.4H68.2173C68.1571 130.399 68.0978 130.386 68.0428 130.361C67.9878 130.337 67.9381 130.302 67.8967 130.258C67.8553 130.215 67.8229 130.163 67.8015 130.107C67.7801 130.051 67.77 129.991 67.772 129.93V125.352C67.7712 125.291 67.7825 125.23 67.8053 125.174C67.828 125.117 67.8617 125.066 67.9043 125.023C67.9429 124.978 67.991 124.942 68.0451 124.917C68.0992 124.893 68.158 124.881 68.2173 124.882H70.5691C70.6089 124.882 70.6483 124.891 70.6848 124.906C70.7214 124.922 70.7545 124.945 70.7822 124.974C70.8099 125.002 70.8316 125.036 70.8461 125.073C70.8606 125.111 70.8676 125.15 70.8666 125.19V125.731C70.8667 125.811 70.8356 125.888 70.7801 125.945C70.7246 126.003 70.6489 126.036 70.5691 126.039L68.913 126.042Z" fill="#F2F3F5"/>
<path d="M73.1475 127.161V130.081C73.149 130.121 73.1425 130.16 73.1282 130.198C73.114 130.235 73.0924 130.269 73.0647 130.298C73.037 130.327 73.0038 130.35 72.9671 130.365C72.9304 130.381 72.8909 130.389 72.8509 130.389H72.3584C72.3187 130.388 72.2794 130.38 72.243 130.364C72.2065 130.348 72.1735 130.325 72.1459 130.297C72.1184 130.268 72.0967 130.234 72.0823 130.197C72.0679 130.16 72.0609 130.12 72.0619 130.081V125.244C72.0607 125.197 72.0688 125.15 72.0858 125.105C72.1028 125.061 72.1283 125.021 72.1609 124.987C72.1935 124.953 72.2326 124.925 72.2758 124.906C72.3191 124.887 72.3656 124.877 72.4128 124.876H72.9761C73.0386 124.877 73.0998 124.894 73.1538 124.925C73.2078 124.957 73.2526 125.002 73.284 125.056L74.9955 128.117V125.188C74.9945 125.149 75.0015 125.109 75.016 125.072C75.0305 125.035 75.0522 125.001 75.0799 124.972C75.1075 124.943 75.1407 124.92 75.1772 124.905C75.2138 124.889 75.2532 124.88 75.293 124.88H75.7927C75.8321 124.881 75.871 124.889 75.907 124.905C75.943 124.921 75.9755 124.944 76.0025 124.973C76.0295 125.002 76.0504 125.036 76.0641 125.073C76.0778 125.11 76.0839 125.149 76.0821 125.188V130.026C76.0832 130.073 76.0749 130.121 76.0578 130.165C76.0407 130.209 76.0151 130.249 75.9824 130.283C75.9497 130.317 75.9106 130.345 75.8673 130.364C75.824 130.383 75.7774 130.393 75.7301 130.394H75.1596C75.0973 130.393 75.0364 130.375 74.9826 130.344C74.9287 130.312 74.8837 130.268 74.8518 130.214L73.1475 127.161Z" fill="#F2F3F5"/>
<path d="M80.9231 125.729C80.9231 125.809 80.8923 125.885 80.837 125.943C80.7817 126 80.7062 126.034 80.6266 126.037H79.6179V130.075C79.6189 130.115 79.6119 130.155 79.5975 130.192C79.5831 130.229 79.5615 130.263 79.5339 130.291C79.5063 130.32 79.4733 130.343 79.4368 130.359C79.4004 130.375 79.3611 130.383 79.3214 130.384H78.7745C78.7347 130.383 78.6954 130.375 78.6588 130.359C78.6223 130.343 78.5893 130.32 78.5616 130.291C78.534 130.263 78.5122 130.229 78.4977 130.192C78.4832 130.155 78.4761 130.115 78.4769 130.075V126.037H77.4693C77.3894 126.034 77.3138 126.001 77.2582 125.943C77.2027 125.886 77.1717 125.809 77.1717 125.729V125.188C77.1708 125.148 77.1777 125.109 77.1922 125.071C77.2067 125.034 77.2284 125 77.2561 124.972C77.2838 124.943 77.3169 124.92 77.3535 124.904C77.3901 124.889 77.4295 124.88 77.4693 124.88H80.6266C80.6663 124.88 80.7055 124.889 80.742 124.905C80.7785 124.92 80.8115 124.943 80.8391 124.972C80.8666 125.001 80.8883 125.035 80.9027 125.072C80.9171 125.109 80.924 125.148 80.9231 125.188V125.729Z" fill="#F2F3F5"/>
<path d="M85.8936 129.963C85.9034 129.999 85.9086 130.036 85.909 130.073C85.9104 130.157 85.8788 130.237 85.8211 130.297C85.7634 130.357 85.6843 130.392 85.6012 130.394H85.1015C85.0198 130.393 84.9408 130.365 84.877 130.314C84.8132 130.263 84.7683 130.192 84.7495 130.112L84.4684 129.18H83.0647L82.7907 130.112C82.7694 130.192 82.7228 130.263 82.6581 130.313C82.5933 130.364 82.5138 130.392 82.4316 130.394H81.9473C81.8641 130.392 81.785 130.357 81.7273 130.297C81.6697 130.237 81.6381 130.157 81.6394 130.073C81.6399 130.036 81.645 129.999 81.6548 129.963L83.1478 125.11C83.1699 125.032 83.2169 124.963 83.2817 124.913C83.3465 124.864 83.4255 124.837 83.5069 124.837H84.0466C84.1271 124.837 84.2051 124.864 84.2686 124.914C84.332 124.963 84.3774 125.032 84.3976 125.11L85.8936 129.963ZM83.7675 126.786L83.4002 128.046H84.1267L83.7675 126.786Z" fill="#F2F3F5"/>
<path d="M87.722 124.874C87.7618 124.875 87.801 124.883 87.8375 124.899C87.874 124.915 87.9069 124.938 87.9345 124.966C87.9621 124.995 87.9837 125.029 87.9981 125.066C88.0126 125.103 88.0195 125.143 88.0186 125.183V129.222H89.4746C89.5142 129.223 89.5532 129.232 89.5892 129.249C89.6253 129.265 89.6577 129.289 89.6846 129.318C89.7115 129.347 89.7324 129.381 89.746 129.419C89.7596 129.456 89.7657 129.496 89.7639 129.535V130.075C89.7656 130.114 89.7594 130.153 89.7456 130.19C89.7319 130.227 89.7109 130.261 89.684 130.29C89.657 130.319 89.6246 130.342 89.5887 130.358C89.5527 130.374 89.5139 130.382 89.4746 130.383H87.3198C87.2597 130.382 87.2005 130.369 87.1455 130.344C87.0905 130.32 87.0409 130.285 86.9995 130.241C86.9581 130.197 86.9257 130.146 86.9043 130.09C86.8828 130.034 86.8727 129.974 86.8745 129.913V125.177C86.8734 125.138 86.8802 125.098 86.8946 125.061C86.909 125.024 86.9306 124.99 86.9582 124.961C86.9858 124.932 87.0188 124.909 87.0554 124.894C87.0919 124.878 87.1312 124.87 87.171 124.869L87.722 124.874Z" fill="#F2F3F5"/>
</svg>
