<svg width="350" height="259" viewBox="0 0 350 259" fill="none" xmlns="http://www.w3.org/2000/svg">
<g clip-path="url(#clip0)">
<path d="M306.953 89.9985H254.956C245.24 89.9985 237.363 97.8732 237.363 107.587V241.411C237.363 251.125 245.24 259 254.956 259H306.953C316.669 259 324.545 251.125 324.545 241.411V107.587C324.545 97.8732 316.669 89.9985 306.953 89.9985Z" fill="#E2581D"/>
<path d="M274.881 136.419L213.551 75.1017C212.036 73.5872 211.185 71.5332 211.185 69.3916C211.185 67.2499 212.036 65.196 213.551 63.6814L274.881 2.36439C276.396 0.850169 278.45 -0.000488281 280.593 -0.000488281C282.735 -0.000488281 284.789 0.850169 286.304 2.36439L347.635 63.6814C349.149 65.196 350 67.2499 350 69.3916C350 71.5332 349.149 73.5872 347.635 75.1017L286.304 136.419C284.789 137.933 282.735 138.784 280.593 138.784C278.45 138.784 276.396 137.933 274.881 136.419Z" fill="#E2581D"/>
<path d="M274.881 130.396L219.57 75.097C218.056 73.5824 217.205 71.5285 217.205 69.3868C217.205 67.2452 218.056 65.1912 219.57 63.6767L274.881 8.37807C276.396 6.86384 278.451 6.01318 280.593 6.01318C282.735 6.01318 284.789 6.86384 286.304 8.37807L341.615 63.6767C343.13 65.1912 343.98 67.2452 343.98 69.3868C343.98 71.5285 343.13 73.5824 341.615 75.097L286.304 130.396C284.789 131.91 282.735 132.76 280.593 132.76C278.451 132.76 276.396 131.91 274.881 130.396Z" fill="#F2F3F5"/>
<path d="M290.079 217.705C288.986 219.228 287.895 220.751 286.803 222.273L281.664 220.585C281.758 218.821 281.852 217.057 281.947 215.292C280.765 214.643 279.652 213.876 278.625 213.002L273.482 214.874L270.193 210.58L273.491 206.271C272.888 204.989 272.423 203.646 272.104 202.265L266.984 200.92C266.897 199.12 266.811 197.319 266.725 195.518L272.001 193.818C272.125 193.213 272.277 192.608 272.459 192.005C272.655 191.358 272.881 190.729 273.135 190.118L269.696 185.784L272.733 181.309L278.023 183.132C278.973 182.257 280.006 181.476 281.107 180.8L281.13 175.008L286.298 173.407L289.192 177.977C290.541 177.815 291.903 177.792 293.256 177.908C294.255 176.387 295.255 174.866 296.256 173.345L301.457 174.824C301.433 176.688 301.409 178.553 301.385 180.417C302.454 181.02 303.466 181.72 304.405 182.51L309.63 180.75C310.692 182.208 311.754 183.666 312.815 185.123L309.564 189.163C310.18 190.446 310.658 191.79 310.99 193.173L316.439 194.685C316.501 196.488 316.562 198.29 316.623 200.091L311.129 201.778C311.005 202.383 310.852 202.988 310.67 203.593C310.498 204.16 310.299 204.708 310.085 205.252L313.602 209.935L310.447 214.33L305.215 212.37C304.242 213.28 303.179 214.091 302.044 214.789C302.165 216.682 302.286 218.574 302.405 220.466L297.359 222.414L293.858 217.635C292.603 217.779 291.338 217.802 290.079 217.705Z" fill="#E2581D" stroke="white" stroke-width="1.08026" stroke-miterlimit="10"/>
<path d="M298.958 205.092C302.965 201.085 302.965 194.589 298.958 190.582C294.95 186.575 288.452 186.575 284.444 190.582C280.437 194.589 280.437 201.085 284.444 205.092C288.452 209.099 294.95 209.099 298.958 205.092Z" fill="#E2581D" stroke="white" stroke-width="1.08026" stroke-miterlimit="10"/>
<path d="M263.731 241.847L261.64 244.763L258.359 243.684C258.42 242.558 258.48 241.432 258.54 240.306C257.785 239.892 257.074 239.402 256.42 238.843L253.135 240.038L251.03 237.297C251.732 236.38 252.434 235.463 253.135 234.546C252.751 233.727 252.454 232.87 252.251 231.988L248.982 231.13C248.927 229.98 248.872 228.83 248.817 227.681L252.185 226.596C252.263 226.208 252.361 225.822 252.478 225.437C252.602 225.025 252.748 224.624 252.909 224.234L250.713 221.464L252.652 218.605L256.029 219.77C256.636 219.212 257.295 218.715 257.998 218.285L258.013 214.586L261.312 213.565C261.929 214.537 262.545 215.509 263.16 216.482C264.023 216.379 264.895 216.364 265.761 216.439C266.399 215.467 267.037 214.496 267.675 213.525L270.998 214.469C270.981 215.658 270.966 216.849 270.952 218.041C271.635 218.425 272.28 218.872 272.88 219.377L276.216 218.254L278.248 221.044C277.557 221.904 276.866 222.764 276.173 223.623C276.567 224.442 276.872 225.301 277.083 226.185L280.564 227.149C280.604 228.301 280.645 229.452 280.688 230.601L277.18 231.678C277.1 232.065 277.004 232.451 276.887 232.837C276.777 233.199 276.653 233.552 276.516 233.896L278.761 236.886L276.749 239.691L273.405 238.441C272.783 239.022 272.105 239.539 271.38 239.985L271.611 243.61L268.391 244.848L266.162 241.796C265.355 241.891 264.541 241.908 263.731 241.847Z" fill="#E2581D" stroke="white" stroke-width="1.08026" stroke-miterlimit="10"/>
<path d="M267.16 235.243C270.53 233.926 272.194 230.126 270.877 226.757C269.56 223.387 265.759 221.723 262.389 223.04C259.019 224.358 257.354 228.157 258.672 231.527C259.989 234.896 263.789 236.56 267.16 235.243Z" fill="#E2581D" stroke="white" stroke-width="1.08026" stroke-miterlimit="10"/>
<path d="M299.246 65.6895C302.095 65.6895 304.259 68.1942 304.259 70.9601V80.2917C304.259 92.388 294.752 103.361 282.393 103.361C269.862 103.361 260.442 92.4746 260.442 80.2917V63.0969C260.442 50.914 269.862 40.0273 282.393 40.0273C289.307 40.0273 295.53 42.792 299.678 47.7172C300.232 48.4363 300.536 49.3159 300.545 50.2231C300.533 51.1964 300.199 52.1381 299.594 52.9011L296.051 56.7888C295.753 57.1398 295.382 57.422 294.965 57.6161C294.547 57.8102 294.092 57.9114 293.632 57.913C292.939 57.913 291.989 57.7396 291.038 56.7034C288.792 54.1974 286.025 52.9011 282.482 52.9011C277.211 52.9011 273.062 57.9984 273.062 63.0969V80.2917C273.062 85.389 277.211 90.4875 282.482 90.4875C287.754 90.4875 291.729 85.7344 291.729 80.6371V78.39H283.088C281.272 78.39 279.804 76.9216 279.804 74.9344V69.145C279.804 67.2446 281.272 65.6895 283.088 65.6895H299.246Z" fill="#404040"/>
<path d="M257.129 153.091C257.278 153.096 257.418 153.159 257.52 153.267C257.623 153.374 257.679 153.518 257.676 153.666V154.684C257.676 156.005 256.639 157.202 255.29 157.202C253.942 157.202 252.895 156.014 252.895 154.684V152.808C252.895 151.479 253.923 150.29 255.29 150.29C255.647 150.283 256.001 150.354 256.327 150.499C256.653 150.645 256.943 150.86 257.176 151.129C257.237 151.208 257.27 151.304 257.27 151.403C257.269 151.509 257.233 151.612 257.166 151.695L256.78 152.12C256.747 152.158 256.707 152.189 256.662 152.211C256.616 152.232 256.566 152.243 256.516 152.244C256.462 152.244 256.409 152.232 256.36 152.21C256.311 152.187 256.268 152.153 256.234 152.111C256.119 151.977 255.975 151.871 255.814 151.799C255.652 151.727 255.477 151.692 255.3 151.697C254.724 151.697 254.271 152.254 254.271 152.811V154.687C254.271 155.244 254.724 155.801 255.3 155.801C255.876 155.801 256.308 155.282 256.308 154.726V154.479H255.366C255.318 154.478 255.27 154.468 255.226 154.449C255.182 154.43 255.142 154.402 255.109 154.368C255.075 154.333 255.049 154.292 255.032 154.248C255.014 154.203 255.006 154.155 255.007 154.107V153.476C255.007 153.379 255.044 153.287 255.111 153.217C255.178 153.148 255.269 153.107 255.366 153.104L257.129 153.091Z" fill="#F2F3F5"/>
<path d="M263.816 154.817C263.816 156.146 262.797 157.325 261.43 157.325C260.063 157.325 259.044 156.146 259.044 154.817V152.95C259.044 151.62 260.071 150.451 261.43 150.451C262.788 150.451 263.816 151.62 263.816 152.95V154.817ZM262.439 152.95C262.439 152.394 262.015 151.856 261.43 151.856C260.845 151.856 260.421 152.394 260.421 152.95V154.817C260.421 155.364 260.854 155.92 261.43 155.92C262.006 155.92 262.439 155.373 262.439 154.817V152.95Z" fill="#F2F3F5"/>
<path d="M269.767 150.553C269.818 150.553 269.868 150.564 269.915 150.585C269.962 150.605 270.004 150.634 270.039 150.671C270.074 150.708 270.102 150.752 270.12 150.799C270.138 150.847 270.146 150.898 270.144 150.949C270.147 150.99 270.144 151.032 270.135 151.073L268.324 156.928C268.296 157.021 268.239 157.103 268.161 157.16C268.083 157.218 267.988 157.249 267.891 157.248H267.249C267.152 157.249 267.057 157.219 266.978 157.161C266.9 157.103 266.842 157.021 266.814 156.928L265.004 151.073C264.996 151.032 264.993 150.99 264.995 150.949C264.993 150.898 265.001 150.848 265.019 150.801C265.037 150.753 265.064 150.71 265.098 150.673C265.133 150.636 265.174 150.607 265.22 150.586C265.267 150.565 265.316 150.554 265.367 150.553H265.951C266.049 150.555 266.144 150.59 266.221 150.651C266.297 150.712 266.352 150.797 266.376 150.892L267.555 154.89L268.734 150.892C268.759 150.796 268.815 150.71 268.893 150.649C268.972 150.588 269.068 150.554 269.167 150.553H269.767Z" fill="#F2F3F5"/>
<path d="M272.748 151.961V153.075H274.19C274.238 153.075 274.286 153.085 274.33 153.104C274.374 153.123 274.414 153.151 274.447 153.185C274.481 153.22 274.507 153.261 274.524 153.306C274.541 153.351 274.55 153.399 274.548 153.447V154.078C274.55 154.126 274.542 154.174 274.525 154.219C274.507 154.264 274.481 154.305 274.448 154.339C274.414 154.374 274.374 154.402 274.33 154.421C274.286 154.439 274.238 154.449 274.19 154.449H272.748V155.811H274.746C274.844 155.815 274.936 155.856 275.003 155.927C275.07 155.997 275.107 156.091 275.105 156.189V156.839C275.106 156.887 275.098 156.935 275.08 156.979C275.063 157.024 275.037 157.065 275.003 157.099C274.97 157.134 274.93 157.161 274.886 157.181C274.842 157.2 274.794 157.21 274.746 157.21H271.908C271.835 157.209 271.764 157.193 271.698 157.163C271.631 157.134 271.571 157.092 271.521 157.039C271.471 156.987 271.432 156.925 271.406 156.857C271.381 156.789 271.368 156.717 271.37 156.645V151.129C271.369 150.981 271.427 150.838 271.53 150.733C271.577 150.68 271.634 150.637 271.698 150.608C271.762 150.578 271.831 150.563 271.902 150.563H274.74C274.788 150.563 274.836 150.574 274.88 150.592C274.924 150.611 274.964 150.639 274.997 150.674C275.031 150.708 275.057 150.749 275.074 150.794C275.092 150.839 275.1 150.886 275.099 150.934V151.586C275.099 151.682 275.062 151.775 274.995 151.844C274.928 151.913 274.836 151.954 274.74 151.957L272.748 151.961Z" fill="#F2F3F5"/>
<path d="M279.396 154.553L280.66 156.619C280.696 156.681 280.716 156.753 280.716 156.825C280.716 156.924 280.677 157.018 280.608 157.088C280.538 157.158 280.443 157.197 280.345 157.197H279.666C279.591 157.199 279.517 157.18 279.452 157.144C279.387 157.107 279.332 157.054 279.295 156.989L277.965 154.735H277.832V156.819C277.833 156.867 277.825 156.915 277.808 156.959C277.79 157.004 277.764 157.045 277.731 157.079C277.698 157.114 277.658 157.142 277.614 157.161C277.57 157.18 277.522 157.19 277.474 157.191H276.814C276.766 157.19 276.719 157.18 276.675 157.161C276.631 157.142 276.591 157.114 276.557 157.08C276.524 157.045 276.498 157.004 276.48 156.96C276.463 156.915 276.454 156.867 276.455 156.819V151.115C276.454 151.042 276.468 150.969 276.496 150.901C276.524 150.833 276.564 150.771 276.616 150.719C276.662 150.665 276.719 150.622 276.783 150.593C276.847 150.564 276.917 150.549 276.988 150.549H278.543C278.814 150.552 279.083 150.609 279.332 150.716C279.582 150.822 279.808 150.978 279.997 151.172C280.186 151.366 280.335 151.596 280.435 151.849C280.535 152.101 280.585 152.37 280.58 152.642C280.587 153.04 280.478 153.432 280.269 153.771C280.059 154.11 279.756 154.381 279.396 154.553ZM277.84 151.941V153.356H278.511C278.693 153.348 278.866 153.271 278.993 153.139C279.119 153.007 279.19 152.831 279.19 152.649C279.19 152.466 279.119 152.29 278.993 152.158C278.866 152.026 278.693 151.949 278.511 151.941H277.84Z" fill="#F2F3F5"/>
<path d="M283.404 153.307V156.825C283.406 156.873 283.398 156.921 283.381 156.966C283.364 157.011 283.338 157.052 283.304 157.087C283.271 157.122 283.231 157.149 283.186 157.168C283.142 157.187 283.094 157.197 283.046 157.196H282.451C282.403 157.196 282.356 157.186 282.312 157.167C282.268 157.147 282.228 157.12 282.195 157.085C282.162 157.051 282.136 157.01 282.118 156.965C282.101 156.921 282.092 156.873 282.094 156.825V150.998C282.092 150.941 282.102 150.885 282.123 150.832C282.144 150.778 282.174 150.73 282.214 150.689C282.253 150.647 282.301 150.614 282.353 150.592C282.405 150.569 282.461 150.556 282.518 150.555H283.197C283.272 150.556 283.346 150.577 283.411 150.615C283.476 150.653 283.53 150.707 283.568 150.772L285.633 154.459V150.932C285.632 150.884 285.64 150.836 285.658 150.791C285.675 150.746 285.701 150.705 285.735 150.671C285.768 150.636 285.808 150.609 285.852 150.59C285.896 150.571 285.944 150.561 285.992 150.56H286.595C286.643 150.561 286.689 150.571 286.733 150.59C286.776 150.61 286.816 150.637 286.848 150.672C286.881 150.707 286.906 150.747 286.923 150.792C286.939 150.837 286.946 150.884 286.944 150.932V156.759C286.946 156.816 286.936 156.873 286.915 156.926C286.894 156.979 286.863 157.028 286.824 157.069C286.784 157.11 286.737 157.143 286.685 157.166C286.633 157.189 286.577 157.201 286.52 157.203H285.831C285.756 157.201 285.682 157.18 285.617 157.142C285.552 157.104 285.498 157.05 285.459 156.986L283.404 153.307Z" fill="#F2F3F5"/>
<path d="M293.448 156.684C293.461 156.727 293.467 156.772 293.467 156.816C293.468 156.917 293.43 157.014 293.361 157.086C293.291 157.159 293.196 157.2 293.095 157.203H292.491C292.393 157.202 292.297 157.168 292.22 157.107C292.144 157.045 292.09 156.959 292.067 156.863L291.727 155.741H290.039L289.71 156.863C289.683 156.959 289.627 157.044 289.549 157.105C289.47 157.166 289.374 157.201 289.275 157.203H288.69C288.59 157.2 288.495 157.159 288.425 157.086C288.355 157.014 288.317 156.917 288.319 156.816C288.319 156.772 288.325 156.727 288.337 156.684L290.138 150.838C290.165 150.743 290.222 150.66 290.3 150.6C290.379 150.541 290.474 150.509 290.573 150.508H291.223C291.32 150.509 291.414 150.541 291.491 150.601C291.568 150.661 291.623 150.744 291.648 150.838L293.448 156.684ZM290.884 152.856L290.44 154.374H291.317L290.884 152.856Z" fill="#F2F3F5"/>
<path d="M296.06 153.307V156.825C296.062 156.873 296.054 156.921 296.037 156.966C296.02 157.011 295.994 157.052 295.961 157.087C295.927 157.122 295.887 157.149 295.842 157.168C295.798 157.187 295.75 157.197 295.702 157.196H295.105C295.057 157.196 295.01 157.186 294.966 157.167C294.922 157.147 294.882 157.12 294.849 157.085C294.815 157.051 294.789 157.01 294.772 156.965C294.755 156.921 294.746 156.873 294.747 156.825V150.998C294.746 150.941 294.756 150.885 294.777 150.832C294.797 150.778 294.828 150.73 294.868 150.689C294.907 150.647 294.954 150.614 295.007 150.592C295.059 150.569 295.115 150.556 295.172 150.555H295.848C295.925 150.555 296 150.575 296.066 150.613C296.132 150.651 296.187 150.706 296.226 150.772L298.29 154.459V150.932C298.289 150.884 298.298 150.836 298.315 150.791C298.333 150.746 298.359 150.705 298.392 150.671C298.426 150.636 298.466 150.609 298.51 150.59C298.554 150.571 298.601 150.561 298.649 150.56H299.253C299.3 150.561 299.347 150.571 299.39 150.59C299.434 150.61 299.473 150.637 299.506 150.672C299.538 150.707 299.564 150.747 299.58 150.792C299.597 150.837 299.604 150.884 299.602 150.932V156.759C299.603 156.816 299.593 156.873 299.572 156.926C299.552 156.979 299.521 157.028 299.481 157.069C299.442 157.11 299.395 157.143 299.343 157.166C299.29 157.189 299.234 157.201 299.177 157.203H298.488C298.413 157.201 298.34 157.18 298.275 157.142C298.21 157.104 298.155 157.05 298.117 156.986L296.06 153.307Z" fill="#F2F3F5"/>
<path d="M305.359 155.91C305.43 155.983 305.474 156.079 305.481 156.181C305.488 156.284 305.458 156.385 305.397 156.467L305.387 156.476C305.163 156.745 304.882 156.962 304.564 157.108C304.246 157.255 303.899 157.329 303.548 157.325C302.2 157.325 301.21 156.118 301.21 154.817V152.95C301.21 151.64 302.21 150.451 303.548 150.451C303.899 150.441 304.247 150.512 304.565 150.658C304.883 150.805 305.164 151.023 305.384 151.296C305.448 151.372 305.481 151.469 305.478 151.569C305.478 151.676 305.441 151.779 305.374 151.861L304.996 152.276C304.963 152.314 304.922 152.344 304.877 152.366C304.832 152.387 304.782 152.399 304.732 152.4C304.677 152.4 304.623 152.388 304.574 152.363C304.525 152.339 304.483 152.303 304.45 152.259C304.342 152.13 304.206 152.027 304.052 151.958C303.899 151.89 303.731 151.857 303.563 151.863C303.044 151.863 302.591 152.371 302.591 152.956V154.823C302.591 155.417 303.044 155.926 303.563 155.926C303.731 155.931 303.898 155.898 304.052 155.83C304.206 155.761 304.342 155.659 304.45 155.53C304.482 155.487 304.523 155.452 304.57 155.427C304.618 155.403 304.67 155.39 304.724 155.389C304.775 155.389 304.826 155.4 304.873 155.421C304.92 155.443 304.962 155.474 304.996 155.513L305.359 155.91Z" fill="#F2F3F5"/>
<path d="M308.047 151.961V153.075H309.49C309.538 153.075 309.586 153.085 309.63 153.104C309.674 153.123 309.714 153.151 309.747 153.185C309.781 153.22 309.807 153.261 309.824 153.306C309.841 153.351 309.85 153.399 309.848 153.447V154.078C309.85 154.126 309.842 154.174 309.824 154.219C309.807 154.264 309.781 154.305 309.748 154.339C309.714 154.374 309.674 154.402 309.63 154.421C309.586 154.439 309.538 154.449 309.49 154.449H308.047V155.811H310.046C310.144 155.815 310.236 155.856 310.303 155.927C310.37 155.997 310.407 156.091 310.405 156.189V156.839C310.406 156.887 310.398 156.935 310.38 156.979C310.363 157.024 310.336 157.065 310.303 157.099C310.27 157.134 310.23 157.162 310.186 157.181C310.142 157.2 310.094 157.21 310.046 157.21H307.208C307.135 157.209 307.064 157.193 306.997 157.163C306.931 157.134 306.871 157.092 306.821 157.039C306.771 156.987 306.732 156.925 306.706 156.857C306.68 156.789 306.668 156.717 306.67 156.645V151.129C306.669 150.981 306.726 150.838 306.83 150.733C306.877 150.679 306.935 150.636 307 150.606C307.066 150.577 307.136 150.562 307.208 150.563H310.046C310.094 150.563 310.142 150.574 310.186 150.593C310.23 150.611 310.27 150.639 310.303 150.674C310.337 150.708 310.363 150.749 310.381 150.794C310.398 150.839 310.406 150.886 310.405 150.934V151.586C310.405 151.682 310.368 151.775 310.301 151.844C310.234 151.913 310.143 151.954 310.046 151.957L308.047 151.961Z" fill="#F2F3F5"/>
<path d="M201.691 89.9985H149.694C139.978 89.9985 132.101 97.8732 132.101 107.587V241.411C132.101 251.125 139.978 259 149.694 259H201.691C211.407 259 219.283 251.125 219.283 241.411V107.587C219.283 97.8732 211.407 89.9985 201.691 89.9985Z" fill="#F3B36A"/>
<path d="M171.066 138.428L109.735 77.1105C108.985 76.3607 108.39 75.4706 107.984 74.4908C107.578 73.511 107.369 72.4609 107.369 71.4004C107.369 70.3398 107.578 69.2897 107.984 68.3099C108.39 67.3302 108.985 66.44 109.735 65.6902L171.066 4.37318C172.58 2.85896 174.635 2.0083 176.777 2.0083C178.919 2.0083 180.974 2.85896 182.488 4.37318L243.819 65.6902C245.334 67.2048 246.184 69.2587 246.184 71.4004C246.184 73.542 245.334 75.596 243.819 77.1105L182.488 138.428C180.974 139.942 178.919 140.792 176.777 140.792C174.635 140.792 172.58 139.942 171.066 138.428Z" fill="#F3B36A"/>
<path d="M171.066 132.404L115.755 77.1053C114.24 75.5907 113.389 73.5368 113.389 71.3951C113.389 69.2535 114.24 67.1995 115.755 65.685L171.066 10.3864C172.581 8.87214 174.635 8.02148 176.777 8.02148C178.919 8.02148 180.974 8.87214 182.488 10.3864L237.799 65.685C239.314 67.1995 240.165 69.2535 240.165 71.3951C240.165 73.5368 239.314 75.5907 237.799 77.1053L182.488 132.404C180.974 133.918 178.919 134.769 176.777 134.769C174.635 134.769 172.581 133.918 171.066 132.404Z" fill="#F2F3F5"/>
<path d="M208.553 187.836C205.805 182.083 199.629 178.071 192.454 178.071C182.72 178.071 174.829 189.983 174.829 189.984C174.84 189.748 166.938 178.067 157.205 178.067C150.022 178.067 143.85 182.078 141.106 187.831C130.058 210.135 174.833 243.603 174.833 243.603C174.833 243.603 219.6 210.14 208.553 187.836Z" fill="#F3B36A" stroke="white" stroke-width="1.08026" stroke-miterlimit="10"/>
<path d="M182.88 85.5719C182.621 82.2018 181.238 81.3376 174.152 78.3141L171.904 77.3633C163.694 73.6489 158.595 68.7225 158.595 59.2189C158.595 48.4176 166.2 40.8145 176.83 40.8145C182.534 40.8145 188.412 42.8883 192.991 46.4305C194.201 47.2972 194.725 49.1952 194.029 50.5781L191.522 55.6754C190.917 56.885 189.88 57.5771 188.584 57.5771C187.89 57.5782 187.207 57.3995 186.602 57.0584L186.516 56.9717C182.022 53.947 178.565 53.4295 176.923 53.4295C173.379 53.4295 171.133 55.5033 171.133 58.7001C171.133 61.4648 172.429 63.4519 179.256 66.4766C179.602 66.5633 180.64 66.9941 184.528 68.6359C191.436 71.6605 195.416 77.6282 195.416 84.9664C195.416 96.3718 186.774 103.803 175.884 103.803C170.267 103.803 164.391 101.822 159.465 98.1869C158.255 97.4094 157.731 95.4222 158.427 94.0393L161.107 88.9408C161.711 87.7311 162.749 87.0403 163.955 87.0403C164.663 87.0287 165.356 87.2405 165.936 87.6457H166.023C169.566 89.9783 172.85 91.1879 175.789 91.1879C180.114 91.1879 182.88 89.0274 182.88 85.5719Z" fill="#404040"/>
<path d="M163.685 155.459C163.648 155.088 163.507 154.997 162.733 154.667L162.485 154.563C161.59 154.158 161.032 153.621 161.032 152.582C161.032 151.395 161.863 150.574 163.022 150.574C163.662 150.583 164.281 150.8 164.786 151.193C164.852 151.245 164.899 151.319 164.918 151.401C164.936 151.483 164.927 151.57 164.89 151.646L164.616 152.202C164.591 152.263 164.548 152.316 164.492 152.353C164.437 152.389 164.372 152.409 164.305 152.409C164.229 152.409 164.155 152.39 164.089 152.353L164.079 152.343C163.583 152.014 163.212 151.957 163.032 151.957C162.636 151.957 162.401 152.183 162.401 152.531C162.401 152.833 162.542 153.05 163.287 153.381C163.325 153.39 163.437 153.436 163.862 153.616C164.217 153.757 164.522 154.004 164.734 154.322C164.946 154.641 165.057 155.016 165.051 155.399C165.051 156.643 164.107 157.454 162.92 157.454C162.269 157.44 161.639 157.224 161.118 156.835C161.051 156.782 161.005 156.709 160.986 156.627C160.967 156.544 160.977 156.458 161.014 156.382L161.306 155.826C161.332 155.764 161.375 155.711 161.43 155.674C161.486 155.637 161.551 155.618 161.618 155.618C161.695 155.617 161.771 155.64 161.835 155.685H161.843C162.154 155.914 162.524 156.049 162.91 156.071C163.384 156.072 163.676 155.836 163.685 155.459Z" fill="#F2F3F5"/>
<path d="M171.116 154.941C171.116 156.27 170.098 157.449 168.731 157.449C167.364 157.449 166.345 156.27 166.345 154.941V153.074C166.345 151.744 167.373 150.575 168.731 150.575C170.09 150.575 171.116 151.744 171.116 153.074V154.941ZM169.741 153.074C169.741 152.518 169.316 151.98 168.731 151.98C168.147 151.98 167.722 152.518 167.722 153.074V154.941C167.722 155.488 168.155 156.044 168.731 156.044C169.307 156.044 169.741 155.497 169.741 154.941V153.074Z" fill="#F2F3F5"/>
<path d="M176.69 156.034C176.73 156.073 176.762 156.12 176.783 156.172C176.805 156.224 176.815 156.28 176.814 156.336C176.815 156.428 176.785 156.518 176.73 156.591L176.72 156.6C176.496 156.869 176.215 157.086 175.897 157.232C175.579 157.379 175.232 157.453 174.881 157.449C173.532 157.449 172.542 156.242 172.542 154.941V153.074C172.542 151.764 173.542 150.575 174.881 150.575C175.23 150.565 175.577 150.635 175.894 150.781C176.211 150.927 176.49 151.143 176.71 151.415C176.775 151.491 176.809 151.588 176.806 151.688C176.806 151.795 176.769 151.898 176.701 151.98L176.33 152.395C176.297 152.433 176.256 152.463 176.211 152.485C176.166 152.506 176.116 152.518 176.066 152.519C176.011 152.519 175.957 152.507 175.908 152.482C175.858 152.458 175.816 152.422 175.783 152.378C175.675 152.249 175.539 152.146 175.386 152.077C175.232 152.008 175.065 151.976 174.897 151.982C174.378 151.982 173.925 152.491 173.925 153.075V154.942C173.925 155.536 174.378 156.045 174.897 156.045C175.065 156.051 175.232 156.018 175.386 155.949C175.539 155.881 175.675 155.778 175.783 155.649C175.814 155.606 175.856 155.571 175.903 155.546C175.95 155.522 176.003 155.509 176.056 155.508C176.108 155.508 176.159 155.519 176.206 155.541C176.253 155.562 176.295 155.593 176.33 155.632L176.69 156.034Z" fill="#F2F3F5"/>
<path d="M180.803 150.641C180.899 150.645 180.99 150.685 181.057 150.755C181.124 150.824 181.161 150.916 181.161 151.013V151.616C181.162 151.663 181.153 151.711 181.136 151.756C181.118 151.8 181.092 151.841 181.059 151.876C181.026 151.91 180.986 151.938 180.942 151.957C180.898 151.976 180.851 151.986 180.803 151.987H180.274V155.956H180.803C180.899 155.96 180.99 156.001 181.057 156.07C181.124 156.139 181.161 156.232 181.161 156.328V156.931C181.162 156.979 181.153 157.026 181.136 157.071C181.118 157.115 181.092 157.156 181.059 157.191C181.026 157.225 180.986 157.253 180.942 157.272C180.898 157.291 180.851 157.301 180.803 157.302H178.36C178.312 157.301 178.264 157.291 178.22 157.272C178.176 157.253 178.136 157.226 178.103 157.191C178.07 157.157 178.044 157.116 178.026 157.071C178.009 157.026 178.001 156.979 178.002 156.931V156.328C178.002 156.232 178.039 156.139 178.106 156.07C178.172 156.001 178.263 155.96 178.36 155.956H178.888V151.987H178.36C178.312 151.986 178.264 151.976 178.22 151.957C178.176 151.938 178.136 151.91 178.103 151.876C178.07 151.841 178.044 151.801 178.026 151.756C178.009 151.711 178.001 151.663 178.002 151.616V151.013C178.002 150.916 178.039 150.824 178.106 150.755C178.172 150.685 178.263 150.645 178.36 150.641H180.803Z" fill="#F2F3F5"/>
<path d="M187.319 156.808C187.332 156.851 187.338 156.896 187.338 156.94C187.34 157.041 187.301 157.138 187.232 157.21C187.162 157.283 187.067 157.324 186.966 157.327H186.362C186.264 157.326 186.168 157.292 186.091 157.23C186.014 157.169 185.96 157.083 185.937 156.987L185.598 155.865H183.91L183.579 156.987C183.554 157.083 183.498 157.168 183.419 157.229C183.341 157.291 183.245 157.325 183.146 157.327H182.562C182.511 157.326 182.462 157.316 182.415 157.297C182.369 157.277 182.327 157.248 182.292 157.212C182.257 157.176 182.229 157.134 182.211 157.087C182.192 157.041 182.183 156.991 182.184 156.94C182.184 156.896 182.191 156.851 182.204 156.808L184.004 150.962C184.031 150.867 184.088 150.784 184.166 150.725C184.244 150.665 184.339 150.633 184.438 150.632H185.089C185.186 150.633 185.28 150.666 185.357 150.725C185.434 150.785 185.489 150.868 185.514 150.962L187.319 156.808ZM184.753 152.98L184.311 154.498H185.188L184.753 152.98Z" fill="#F2F3F5"/>
<path d="M189.526 150.677C189.574 150.677 189.622 150.687 189.666 150.706C189.71 150.725 189.75 150.753 189.783 150.787C189.816 150.822 189.842 150.863 189.86 150.907C189.877 150.952 189.885 151 189.884 151.048V155.914H191.639C191.687 155.915 191.734 155.926 191.777 155.946C191.821 155.966 191.86 155.995 191.892 156.03C191.925 156.065 191.95 156.106 191.966 156.151C191.983 156.196 191.99 156.244 191.988 156.291V156.941C191.99 156.989 191.982 157.036 191.966 157.081C191.949 157.125 191.924 157.166 191.892 157.201C191.859 157.235 191.82 157.263 191.776 157.282C191.733 157.301 191.686 157.312 191.639 157.313H189.038C188.966 157.311 188.894 157.295 188.828 157.266C188.761 157.237 188.702 157.194 188.652 157.142C188.602 157.089 188.563 157.027 188.537 156.959C188.511 156.892 188.499 156.82 188.501 156.747V151.042C188.5 150.994 188.508 150.946 188.525 150.901C188.543 150.856 188.569 150.816 188.603 150.781C188.636 150.746 188.676 150.719 188.72 150.7C188.764 150.681 188.812 150.671 188.86 150.67L189.526 150.677Z" fill="#F2F3F5"/>
<path d="M95.8095 89.9985H43.8125C34.0965 89.9985 26.2202 97.8732 26.2202 107.587V241.411C26.2202 251.125 34.0965 259 43.8125 259H95.8095C105.526 259 113.402 251.125 113.402 241.411V107.587C113.402 97.8732 105.526 89.9985 95.8095 89.9985Z" fill="#4AA29A"/>
<path d="M63.6959 140.897L2.36527 79.5822C0.850708 78.0677 -0.000137329 76.0137 -0.000137329 73.8721C-0.000137329 71.7304 0.850708 69.6764 2.36527 68.1619L63.6959 6.84486C65.2107 5.33064 67.2652 4.47998 69.4073 4.47998C71.5494 4.47998 73.6038 5.33064 75.1187 6.84486L136.449 68.1619C137.964 69.6764 138.815 71.7304 138.815 73.8721C138.815 76.0137 137.964 78.0677 136.449 79.5822L75.1187 140.897C73.6038 142.411 71.5494 143.262 69.4073 143.262C67.2652 143.262 65.2107 142.411 63.6959 140.897Z" fill="#4AA29A"/>
<path d="M63.6959 134.875L8.385 79.5765C6.87044 78.0619 6.01959 76.008 6.01959 73.8663C6.01959 71.7247 6.87044 69.6707 8.385 68.1562L63.6959 12.8576C65.2107 11.3433 67.2651 10.4927 69.4073 10.4927C71.5494 10.4927 73.6038 11.3433 75.1187 12.8576L130.43 68.1562C131.944 69.6707 132.795 71.7247 132.795 73.8663C132.795 76.008 131.944 78.0619 130.43 79.5765L75.1187 134.875C73.6038 136.389 71.5494 137.24 69.4073 137.24C67.2651 137.24 65.2107 136.389 63.6959 134.875Z" fill="#F2F3F5"/>
<path d="M71.4193 229.435C73.2853 228.276 73.8583 225.824 72.6991 223.958C71.5398 222.093 69.0873 221.52 67.2213 222.679C65.3553 223.838 64.7823 226.29 65.9415 228.155C67.1008 230.021 69.5533 230.594 71.4193 229.435Z" fill="#4AA29A" stroke="#F1F1F1" stroke-width="1.08026" stroke-miterlimit="10"/>
<path d="M70.8129 224.428V203.945C70.8129 203.535 70.4808 203.203 70.0711 203.203H68.9541C68.5444 203.203 68.2123 203.535 68.2123 203.945V224.428C68.2123 224.838 68.5444 225.17 68.9541 225.17H70.0711C70.4808 225.17 70.8129 224.838 70.8129 224.428Z" fill="#4AA29A" stroke="#F1F1F1" stroke-width="1.08026" stroke-miterlimit="10"/>
<path d="M57.6378 221.744C58.5851 221.543 61.7368 221.012 64.829 222.982C66.8525 224.268 67.8891 225.997 68.3411 226.772C70.2692 230.074 70.694 234.336 69.5398 237.827C69.4407 238.124 69.3541 238.344 69.302 238.479C69.1828 237.402 68.9465 236.341 68.5974 235.315C68.2496 234.29 67.7859 233.309 67.2154 232.39C66.7464 231.803 66.2304 231.254 65.6724 230.751C62.9702 228.306 59.9523 227.563 58.0576 227.315C59.7172 227.96 61.2359 228.921 62.5294 230.144C63.5975 231.162 64.5116 232.33 65.2426 233.611C66.8525 236.407 67.3206 239.19 67.4655 240.945C67.3144 240.625 67.1621 240.066 66.7287 239.616C64.0674 236.846 62.6297 236.6 59.4891 234.312C54.7276 230.845 52.7833 227.538 50.6533 226.673C52.4663 225.041 53.4521 222.628 57.6378 221.744Z" fill="#4AA29A" stroke="#F1F1F1" stroke-width="1.08026" stroke-miterlimit="10"/>
<path d="M67.8717 242.456L67.2116 241.058C67.1745 240.979 67.1386 240.89 67.1002 240.796C66.9736 240.432 66.7781 240.096 66.5243 239.806C64.8451 238.059 63.6761 237.343 62.2049 236.437C61.3875 235.934 60.46 235.364 59.3219 234.534C56.8922 232.764 55.1957 231.041 53.8322 229.657C52.553 228.359 51.5437 227.334 50.5468 226.933L50.1406 226.768L50.4638 226.479C50.9056 226.066 51.3224 225.628 51.7121 225.166C52.9505 223.762 54.3499 222.17 57.5783 221.485C59.0916 221.165 62.0649 220.903 64.9813 222.756C67.1039 224.105 68.1788 225.946 68.5838 226.64C70.5342 229.982 71.0023 234.3 69.806 237.915C69.7144 238.189 69.6339 238.398 69.5806 238.534L69.1522 239.648L69.0283 238.507C68.9096 237.449 68.6775 236.407 68.3361 235.399C67.9959 234.4 67.5439 233.442 66.9887 232.544C66.531 231.974 66.0287 231.441 65.4866 230.951C63.9638 229.578 62.1431 228.578 60.1677 228.029C61.0907 228.571 61.9494 229.215 62.7275 229.95C63.8137 230.987 64.7442 232.175 65.4903 233.478C66.7646 235.689 67.5237 238.194 67.7491 240.925L67.8717 242.456ZM51.1375 226.592C52.1084 227.11 53.0632 228.078 54.2334 229.269C55.5833 230.64 57.2625 232.345 59.6551 234.088C60.7696 234.905 61.6934 235.468 62.5033 235.965C63.9522 236.856 65.2042 237.625 66.9318 239.423C66.9602 239.451 66.9862 239.481 67.0123 239.51C66.6993 237.48 66.0168 235.525 64.9987 233.741C64.2799 232.485 63.3831 231.339 62.3361 230.339C61.0703 229.138 59.5825 228.195 57.956 227.563L55.8124 226.735L58.0972 227.037C61.0767 227.432 63.7615 228.647 65.863 230.537C66.432 231.051 66.9583 231.611 67.437 232.21L67.4556 232.236C68.0368 233.173 68.5096 234.172 68.8649 235.216C69.095 235.894 69.2771 236.587 69.4097 237.291C70.3844 233.912 69.8952 229.971 68.0983 226.891C67.7119 226.23 66.6866 224.473 64.6779 223.195C61.9312 221.451 59.1263 221.698 57.6984 222C54.6533 222.647 53.3752 224.099 52.1381 225.504C51.8037 225.89 51.4842 226.252 51.1375 226.592Z" fill="#4AA29A" stroke="#F1F1F1" stroke-width="1.08026" stroke-miterlimit="10"/>
<path d="M80.2468 228.059C79.1149 227.834 77.1162 227.439 74.8054 228.306C74.0859 228.574 72.9045 229.03 71.7726 230.28C71.2681 230.815 70.8503 231.427 70.5342 232.091C69.6215 234.008 69.6351 236.093 69.6413 237.113C69.6413 237.347 69.6488 237.541 69.655 237.672C69.863 237.373 70.1342 236.999 70.4636 236.583L70.6457 236.359C70.6457 236.359 70.876 236.079 71.063 235.864C71.5468 235.33 72.0865 234.85 72.6729 234.432C73.6652 233.693 74.7952 233.159 75.9967 232.861C76.7114 232.689 77.4448 232.606 78.18 232.614C77.5323 233.124 76.9874 233.514 76.601 233.78C75.9694 234.216 75.1571 234.739 74.4834 235.278C73.988 235.673 73.6351 235.987 73.2834 236.313C72.3732 237.154 71.9212 237.573 71.6054 237.962C71.0826 238.615 70.6563 239.34 70.3398 240.114C70.5033 239.924 70.741 239.578 71.1435 239.395C73.5819 238.289 74.6171 238.606 77.2735 238.018C81.3007 237.125 82.1638 229.419 83.8121 229.526C83.8121 229.526 83.6883 229.445 83.6883 229.443C82.326 228.473 80.2468 228.059 80.2468 228.059Z" fill="#4AA29A" stroke="#F1F1F1" stroke-width="1.08026" stroke-miterlimit="10"/>
<path d="M69.4271 241.596L70.0835 240.011C70.4069 239.21 70.8426 238.46 71.3776 237.782C71.7033 237.376 72.1639 236.95 73.0828 236.102C73.3961 235.814 73.759 235.483 74.2989 235.055C74.819 234.637 75.4221 234.23 75.9534 233.87C76.1206 233.757 76.2815 233.648 76.4326 233.544C76.7265 233.341 77.0209 233.13 77.3156 232.912C76.8911 232.949 76.4701 233.019 76.0562 233.12C74.8919 233.407 73.7971 233.925 72.8364 234.642C72.2681 235.05 71.7446 235.516 71.2748 236.034C71.0927 236.242 70.8649 236.518 70.8636 236.522C70.7547 236.653 70.6841 236.742 70.6841 236.742C70.4079 237.089 70.1392 237.45 69.8853 237.818L69.4085 238.505L69.3739 237.676C69.3652 237.485 69.3603 237.294 69.3603 237.105C69.3528 236.077 69.3404 233.939 70.2791 231.966C70.6054 231.277 71.0375 230.644 71.5596 230.089C72.4155 229.15 73.4969 228.446 74.7014 228.042C77.0877 227.153 79.1769 227.565 80.2988 227.787L80.523 227.832C81.1112 227.97 82.7211 228.402 83.8604 229.21L83.91 229.246L85.4839 229.346L83.8901 229.792C83.854 229.802 83.816 229.805 83.7787 229.8C83.3118 229.8 82.7434 231.116 82.1923 232.384C81.1583 234.764 79.8728 237.725 77.3391 238.287C76.3695 238.502 75.6054 238.598 74.9342 238.684C73.7342 238.836 72.7868 238.955 71.2649 239.646C71.0192 239.776 70.8072 239.962 70.6457 240.188C70.6147 240.226 70.585 240.261 70.5578 240.293L69.4271 241.596ZM78.0958 232.333H78.1725H78.9577L78.3459 232.815C77.8209 233.227 77.2846 233.623 76.7521 233.99C76.6011 234.095 76.4376 234.205 76.2692 234.319C75.7466 234.673 75.1546 235.075 74.6518 235.478C74.1255 235.899 73.7701 236.221 73.4655 236.5C72.5664 237.329 72.1144 237.746 71.8147 238.119C71.5715 238.423 71.3517 238.745 71.1571 239.082C72.6828 238.408 73.6946 238.279 74.8599 238.131C75.5199 238.048 76.2692 237.953 77.2128 237.744C79.4667 237.249 80.6914 234.426 81.671 232.161C82.2245 230.885 82.6617 229.871 83.2078 229.451C81.936 228.683 80.2567 228.337 80.18 228.323C79.0394 228.097 77.1298 227.72 74.8946 228.552C73.7749 228.926 72.769 229.58 71.972 230.45C71.4864 230.967 71.0845 231.556 70.7807 232.196C69.9708 233.897 69.9138 235.759 69.9138 236.823C70.0203 236.682 70.128 236.542 70.237 236.406C70.237 236.406 70.3088 236.314 70.4215 236.178C70.4314 236.165 70.6556 235.892 70.8438 235.676C71.3404 235.127 71.8947 234.633 72.4971 234.202C73.5182 233.441 74.6811 232.891 75.9175 232.586C76.6317 232.415 77.3639 232.33 78.0982 232.333H78.0958Z" fill="#4AA29A" stroke="#F1F1F1" stroke-width="1.08026" stroke-miterlimit="10"/>
<path d="M90.6232 199.651H86.6034L86.6963 192.519L85.3564 189.801C86.3322 184.496 87.3089 179.192 88.2864 173.888H90.6232V199.651Z" fill="#4AA29A" stroke="#F1F1F1" stroke-width="1.08026" stroke-miterlimit="10"/>
<path d="M90.903 199.926H86.3148L86.4114 192.579L85.0603 189.844L85.464 187.65L88.0485 173.619H90.8968L90.903 199.926ZM86.8869 199.377H90.3433V174.166H88.5204L85.6473 189.766L86.9773 192.458L86.8869 199.377Z" fill="#4AA29A" stroke="#F1F1F1" stroke-width="1.08026" stroke-miterlimit="10"/>
<path d="M87.9743 201.955L89.9916 198.554L96.2529 202.213L99.3253 202.441L111.927 212.904L110.754 214.885L87.9743 201.955Z" fill="#4AA29A" stroke="#F1F1F1" stroke-width="1.08026" stroke-miterlimit="10"/>
<path d="M110.856 215.256L87.5916 202.058L89.8925 198.18L96.3457 201.944L99.4416 202.174L99.511 202.231L112.292 212.843L110.856 215.256ZM88.3569 201.856L110.648 214.507L111.563 212.964L99.2088 202.707L96.1612 202.48L90.0931 198.93L88.3569 201.856Z" fill="#4AA29A" stroke="#F1F1F1" stroke-width="1.08026" stroke-miterlimit="10"/>
<path d="M88.3173 196.651L90.9662 199.609C89.1177 201.154 87.2684 202.697 85.4183 204.24L84.2096 207.011L70.045 215.343L68.5057 213.623L88.3173 196.651Z" fill="#4AA29A" stroke="#F1F1F1" stroke-width="1.08026" stroke-miterlimit="10"/>
<path d="M69.9893 215.696L68.1107 213.591L68.3212 213.41L88.3433 196.264L91.3637 199.638L85.6498 204.41L84.4374 207.206L69.9893 215.696ZM68.9007 213.648L70.102 214.99L83.9928 206.819L85.1866 204.067L90.5686 199.582L88.2962 197.037L68.9007 213.648Z" fill="#4AA29A" stroke="#F1F1F1" stroke-width="1.08026" stroke-miterlimit="10"/>
<path d="M87.1483 201.923H89.6411C89.9631 213.497 90.2855 225.071 90.6083 236.645H86.0882C86.4416 225.071 86.7949 213.497 87.1483 201.923Z" fill="#4AA29A" stroke="#F1F1F1" stroke-width="1.08026" stroke-miterlimit="10"/>
<path d="M90.8968 236.918H85.7997L85.8083 236.636L86.8758 201.648H89.9136L90.8968 236.918ZM86.378 236.37H90.321L89.3699 202.198H87.4195L86.378 236.37Z" fill="#4AA29A" stroke="#F1F1F1" stroke-width="1.08026" stroke-miterlimit="10"/>
<path d="M88.5043 203.127C90.4494 203.127 92.0262 201.584 92.0262 199.682C92.0262 197.78 90.4494 196.238 88.5043 196.238C86.5592 196.238 84.9823 197.78 84.9823 199.682C84.9823 201.584 86.5592 203.127 88.5043 203.127Z" fill="#4AA29A" stroke="#F1F1F1" stroke-width="1.08026" stroke-miterlimit="10"/>
<path d="M88.5043 203.479C86.3631 203.479 84.622 201.776 84.622 199.682C84.622 197.588 86.3631 195.885 88.5043 195.885C90.6454 195.885 92.3829 197.588 92.3829 199.682C92.3829 201.776 90.6492 203.479 88.5043 203.479ZM88.5043 196.589C86.7607 196.589 85.3415 197.977 85.3415 199.685C85.3415 201.392 86.7607 202.78 88.5043 202.78C90.2479 202.78 91.6659 201.392 91.6659 199.685C91.6659 197.977 90.2479 196.589 88.5043 196.589Z" fill="#4AA29A" stroke="#F1F1F1" stroke-width="1.08026" stroke-miterlimit="10"/>
<path d="M93.5383 228.779H83.0034V237.01H93.5383V228.779Z" fill="#4AA29A" stroke="#F1F1F1" stroke-width="1.08026" stroke-miterlimit="10"/>
<path d="M93.8169 237.283H82.7235V228.505H93.8182L93.8169 237.283ZM83.2833 236.736H93.2572V229.06H83.2833V236.736Z" fill="#4AA29A" stroke="#F1F1F1" stroke-width="1.08026" stroke-miterlimit="10"/>
<path d="M50.5369 199.706H46.5171L46.61 192.573L45.2701 189.859C46.2467 184.555 47.2234 179.251 48.2001 173.947H50.5369V199.706Z" fill="#4AA29A" stroke="#F1F1F1" stroke-width="1.08026" stroke-miterlimit="10"/>
<path d="M50.818 199.979H46.236L46.3314 192.634L44.9803 189.899L44.9976 189.811L47.9697 173.673H50.818V199.979ZM46.8007 199.432H50.257V174.221H48.4341L45.5623 189.821L46.8911 192.511L46.8007 199.432Z" fill="#4AA29A" stroke="#F1F1F1" stroke-width="1.08026" stroke-miterlimit="10"/>
<path d="M47.888 202.01C48.5609 200.876 49.2337 199.742 49.9066 198.607L56.1678 202.267L59.239 202.494L71.8419 212.953L70.6679 214.934L47.888 202.01Z" fill="#4AA29A" stroke="#F1F1F1" stroke-width="1.08026" stroke-miterlimit="10"/>
<path d="M70.7708 215.306L47.5054 202.109L49.8063 198.231L56.2545 201.999L59.3505 202.228L63.3851 205.578L72.1974 212.898L70.7708 215.306ZM48.2707 201.909L70.5615 214.562L71.4766 213.019L59.1226 202.761L56.0749 202.535L50.0007 198.985L48.2707 201.909Z" fill="#4AA29A" stroke="#F1F1F1" stroke-width="1.08026" stroke-miterlimit="10"/>
<path d="M48.2311 196.705L50.8799 199.664L45.332 204.294L44.1283 207.068C39.4068 209.844 34.684 212.62 29.96 215.396L28.4195 213.677L48.2311 196.705Z" fill="#4AA29A" stroke="#F1F1F1" stroke-width="1.08026" stroke-miterlimit="10"/>
<path d="M29.9031 215.749L28.0244 213.651L28.235 213.471L48.2583 196.318L51.2775 199.692L45.5648 204.461L44.3512 207.257L29.9031 215.749ZM28.8145 213.702L30.0158 215.044L43.9066 206.873L45.1004 204.122L50.4837 199.629L48.205 197.085L28.8145 213.702Z" fill="#4AA29A" stroke="#F1F1F1" stroke-width="1.08026" stroke-miterlimit="10"/>
<path d="M47.0583 201.977H49.5524L50.5183 236.698H45.9982C46.3549 225.124 46.7082 213.55 47.0583 201.977Z" fill="#4AA29A" stroke="#F1F1F1" stroke-width="1.08026" stroke-miterlimit="10"/>
<path d="M50.8094 236.972H45.7134L45.7221 236.69L46.7908 201.703H49.8286L50.8094 236.972ZM46.2905 236.424H50.2335L49.2837 202.252H47.3345L46.2905 236.424Z" fill="#4AA29A" stroke="#F1F1F1" stroke-width="1.08026" stroke-miterlimit="10"/>
<path d="M48.418 203.181C50.3632 203.181 51.94 201.639 51.94 199.736C51.94 197.834 50.3632 196.292 48.418 196.292C46.4729 196.292 44.8961 197.834 44.8961 199.736C44.8961 201.639 46.4729 203.181 48.418 203.181Z" fill="#4AA29A" stroke="#F1F1F1" stroke-width="1.08026" stroke-miterlimit="10"/>
<path d="M48.4205 203.533C46.2806 203.533 44.5382 201.83 44.5382 199.737C44.5382 197.643 46.2806 195.939 48.4205 195.939C50.5604 195.939 52.3028 197.643 52.3028 199.737C52.3028 201.83 50.558 203.533 48.4205 203.533ZM48.4205 196.644C46.6769 196.644 45.2589 198.031 45.2589 199.739C45.2589 201.448 46.6769 202.834 48.4205 202.834C50.1642 202.834 51.5821 201.447 51.5821 199.739C51.5821 198.032 50.1617 196.644 48.4205 196.644Z" fill="#4AA29A" stroke="#F1F1F1" stroke-width="1.08026" stroke-miterlimit="10"/>
<path d="M53.4521 228.833H42.9172V237.064H53.4521V228.833Z" fill="#4AA29A" stroke="#F1F1F1" stroke-width="1.08026" stroke-miterlimit="10"/>
<path d="M53.7319 237.344H42.6373V228.565H53.7319V237.344ZM43.197 236.796H53.1709V229.113H43.197V236.796Z" fill="#4AA29A" stroke="#F1F1F1" stroke-width="1.08026" stroke-miterlimit="10"/>
<path d="M73.0642 197.51H67.5584L67.6822 187.747C67.0705 186.509 66.4591 185.271 65.8482 184.032C67.184 176.769 68.5206 169.509 69.858 162.253H73.0642V197.51Z" fill="#4AA29A" stroke="#F1F1F1" stroke-width="1.08026" stroke-miterlimit="10"/>
<path d="M73.3403 197.784H67.2723L67.3961 187.807L65.551 184.072L65.5671 183.985L69.619 161.98H73.3342L73.3403 197.784ZM67.842 197.235H72.7806V162.528H70.0921L66.1429 183.994L67.967 187.686L67.842 197.235Z" fill="#4AA29A" stroke="#F1F1F1" stroke-width="1.08026" stroke-miterlimit="10"/>
<path d="M69.4345 200.663C70.3559 199.111 71.2764 197.559 72.1961 196.007L80.7669 201.015L84.9712 201.326L102.219 215.649L100.609 218.355L69.4345 200.663Z" fill="#4AA29A" stroke="#F1F1F1" stroke-width="1.08026" stroke-miterlimit="10"/>
<path d="M100.716 218.729L100.468 218.592L69.0469 200.763L72.0921 195.63L80.8486 200.747L85.0777 201.06L102.575 215.588L100.716 218.729ZM69.8184 200.564L100.513 217.981L101.86 215.709L84.8597 201.595L80.679 201.286L72.2964 196.388L69.8184 200.564Z" fill="#4AA29A" stroke="#F1F1F1" stroke-width="1.08026" stroke-miterlimit="10"/>
<path d="M69.9052 193.402L73.5299 197.452L65.9374 203.791L64.2891 207.587L44.8961 218.987L42.7909 216.634L69.9052 193.402Z" fill="#4AA29A" stroke="#F1F1F1" stroke-width="1.08026" stroke-miterlimit="10"/>
<path d="M44.8404 219.338L42.3933 216.605L69.9311 193.02L73.9311 197.477L66.1727 203.954L64.5157 207.773L44.8404 219.338ZM43.1834 216.657L44.9531 218.638L64.0674 207.403L65.7046 203.629L73.1348 197.428L69.8816 193.795L43.1834 216.657Z" fill="#4AA29A" stroke="#F1F1F1" stroke-width="1.08026" stroke-miterlimit="10"/>
<path d="M68.3039 200.618H71.7168L73.0394 248.14H66.8537C67.3375 232.299 67.8209 216.459 68.3039 200.618Z" fill="#4AA29A" stroke="#F1F1F1" stroke-width="1.08026" stroke-miterlimit="10"/>
<path d="M73.3267 248.415H66.5652L66.5739 248.133L68.0327 200.342H71.9955L73.3267 248.415ZM67.1423 247.868H72.7521L71.4444 200.893H68.5763L67.1423 247.868Z" fill="#4AA29A" stroke="#F1F1F1" stroke-width="1.08026" stroke-miterlimit="10"/>
<path d="M70.1602 202.266C72.8228 202.266 74.9812 200.155 74.9812 197.552C74.9812 194.948 72.8228 192.837 70.1602 192.837C67.4977 192.837 65.3392 194.948 65.3392 197.552C65.3392 200.155 67.4977 202.266 70.1602 202.266Z" fill="#4AA29A" stroke="#F1F1F1" stroke-width="1.08026" stroke-miterlimit="10"/>
<path d="M70.1602 202.619C67.3033 202.619 64.9801 200.346 64.9801 197.551C64.9801 194.757 67.3033 192.485 70.1602 192.485C73.0172 192.485 75.3404 194.758 75.3404 197.551C75.3404 200.344 73.0172 202.619 70.1602 202.619ZM70.1602 193.189C67.7008 193.189 65.7021 195.146 65.7021 197.551C65.7021 199.957 67.7033 201.914 70.1602 201.914C72.6172 201.914 74.6184 199.957 74.6184 197.551C74.6184 195.146 72.6197 193.189 70.1602 193.189Z" fill="#4AA29A" stroke="#F1F1F1" stroke-width="1.08026" stroke-miterlimit="10"/>
<path d="M77.0493 237.376H62.6309V248.641H77.0493V237.376Z" fill="#4AA29A" stroke="#F1F1F1" stroke-width="1.08026" stroke-miterlimit="10"/>
<path d="M77.3292 248.915H62.3448V237.103H77.3292V248.915ZM62.9095 248.363H76.7694V237.645H62.9095V248.363Z" fill="#4AA29A" stroke="#F1F1F1" stroke-width="1.08026" stroke-miterlimit="10"/>
<path d="M70.1516 198.662C70.7657 198.662 71.2636 198.176 71.2636 197.575C71.2636 196.975 70.7657 196.488 70.1516 196.488C69.5374 196.488 69.0395 196.975 69.0395 197.575C69.0395 198.176 69.5374 198.662 70.1516 198.662Z" fill="#4AA29A" stroke="#F1F1F1" stroke-width="1.08026" stroke-miterlimit="10"/>
<path d="M70.1515 198.937C69.8834 198.931 69.6231 198.846 69.403 198.693C69.1829 198.54 69.013 198.325 68.9144 198.076C68.8158 197.826 68.7931 197.554 68.8489 197.291C68.9048 197.029 69.0368 196.789 69.2285 196.602C69.4201 196.414 69.6628 196.287 69.9262 196.237C70.1896 196.187 70.462 196.215 70.7092 196.319C70.9564 196.423 71.1674 196.598 71.3158 196.821C71.4642 197.044 71.5434 197.307 71.5435 197.575C71.5389 197.94 71.3898 198.288 71.1289 198.543C70.868 198.799 70.5166 198.94 70.1515 198.937ZM70.1515 196.762C69.9914 196.766 69.8359 196.817 69.7046 196.909C69.5732 197 69.4718 197.129 69.4131 197.278C69.3544 197.427 69.341 197.59 69.3746 197.746C69.4081 197.903 69.4872 198.046 69.6018 198.158C69.7164 198.27 69.8615 198.345 70.0188 198.375C70.1762 198.405 70.3389 198.388 70.4865 198.325C70.634 198.263 70.7599 198.159 70.8484 198.025C70.9368 197.892 70.9839 197.735 70.9837 197.575C70.9824 197.467 70.9599 197.36 70.9174 197.261C70.8748 197.162 70.8132 197.072 70.7359 196.996C70.6586 196.921 70.5672 196.861 70.467 196.821C70.3667 196.781 70.2595 196.761 70.1515 196.762Z" fill="#4AA29A" stroke="#F1F1F1" stroke-width="1.08026" stroke-miterlimit="10"/>
<path d="M64.7968 55.8162V66.012H78.0177C79.832 66.012 81.3007 67.4803 81.3007 69.3821V75.1702C81.3007 77.0719 79.832 78.5403 78.0177 78.5403H64.7968V90.9832H83.1248C84.9403 90.9832 86.409 92.5383 86.409 94.4388V100.4C86.409 102.389 84.9403 103.857 83.1248 103.857H57.1053C54.257 103.857 52.179 101.438 52.179 98.6731V48.1263C52.1723 47.4545 52.2987 46.788 52.5507 46.1652C52.8028 45.5424 53.1756 44.9756 53.6477 44.4974C54.5146 43.4599 55.8087 42.9424 57.1053 42.9424H83.1186C84.9341 42.9424 86.4028 44.4108 86.4028 46.3979V52.3594C86.4028 54.2611 84.9341 55.8162 83.1186 55.8162H64.7968Z" fill="#404040"/>
<path d="M33.7136 151.836V152.951H35.1575C35.2056 152.951 35.2531 152.961 35.2973 152.98C35.3415 152.999 35.3814 153.026 35.4148 153.061C35.4481 153.096 35.4742 153.137 35.4915 153.181C35.5088 153.226 35.5169 153.274 35.5154 153.322V153.954C35.5171 154.002 35.5091 154.05 35.4918 154.094C35.4746 154.139 35.4485 154.18 35.4151 154.215C35.3818 154.25 35.3417 154.277 35.2975 154.296C35.2532 154.315 35.2056 154.325 35.1575 154.325H33.7136V155.687H35.7136C35.8108 155.69 35.9027 155.732 35.9697 155.803C36.0366 155.873 36.0731 155.967 36.0714 156.065V156.715C36.0726 156.762 36.0642 156.81 36.0468 156.855C36.0294 156.9 36.0033 156.94 35.97 156.975C35.9367 157.009 35.8969 157.037 35.8529 157.056C35.8089 157.075 35.7615 157.085 35.7136 157.086H32.8752C32.8026 157.085 32.731 157.069 32.6646 157.039C32.5982 157.01 32.5383 156.968 32.4883 156.915C32.4383 156.863 32.3992 156.801 32.3734 156.733C32.3475 156.665 32.3354 156.593 32.3377 156.52V151.004C32.3369 150.931 32.3505 150.858 32.3779 150.79C32.4054 150.722 32.446 150.66 32.4975 150.608C32.544 150.554 32.602 150.51 32.6673 150.481C32.7326 150.452 32.8036 150.437 32.8752 150.439H35.7136C35.7616 150.439 35.809 150.449 35.8531 150.468C35.8972 150.487 35.9371 150.515 35.9704 150.549C36.0037 150.584 36.0298 150.625 36.0472 150.669C36.0645 150.714 36.0728 150.762 36.0714 150.81V151.461C36.0715 151.557 36.0342 151.65 35.9675 151.719C35.9007 151.788 35.8097 151.829 35.7136 151.833L33.7136 151.836Z" fill="#F2F3F5"/>
<path d="M38.8256 153.184V156.701C38.8274 156.75 38.8195 156.798 38.8024 156.843C38.7852 156.888 38.7591 156.929 38.7257 156.963C38.6923 156.998 38.6522 157.026 38.6079 157.044C38.5635 157.063 38.5159 157.073 38.4677 157.073H37.8733C37.8253 157.072 37.7779 157.062 37.7339 157.043C37.6899 157.024 37.6501 156.996 37.6168 156.962C37.5835 156.927 37.5574 156.886 37.54 156.842C37.5226 156.797 37.5142 156.749 37.5154 156.701V150.875C37.5139 150.818 37.5237 150.761 37.5442 150.708C37.5647 150.655 37.5956 150.606 37.6349 150.565C37.6743 150.524 37.7214 150.491 37.7736 150.468C37.8258 150.445 37.8819 150.433 37.9389 150.432H38.6188C38.6942 150.432 38.7681 150.453 38.8332 150.491C38.8984 150.529 38.9525 150.583 38.9903 150.648L41.0559 154.335V150.808C41.0548 150.76 41.0631 150.712 41.0805 150.668C41.0979 150.623 41.124 150.582 41.1573 150.548C41.1906 150.513 41.2304 150.485 41.2744 150.466C41.3185 150.447 41.3658 150.437 41.4138 150.437H42.0181C42.0657 150.437 42.1126 150.448 42.156 150.467C42.1995 150.486 42.2387 150.514 42.2713 150.548C42.3038 150.583 42.3291 150.624 42.3456 150.669C42.3621 150.713 42.3695 150.761 42.3673 150.808V156.636C42.3687 156.693 42.3587 156.75 42.3381 156.803C42.3174 156.856 42.2865 156.904 42.247 156.946C42.2075 156.987 42.1603 157.02 42.1081 157.043C42.0559 157.066 41.9996 157.078 41.9426 157.079H41.254C41.1779 157.078 41.1032 157.058 41.0371 157.02C40.971 156.982 40.9157 156.928 40.8763 156.862L38.8256 153.184Z" fill="#F2F3F5"/>
<path d="M48.5964 150.429C48.6469 150.43 48.6967 150.442 48.7428 150.462C48.7889 150.483 48.8305 150.513 48.865 150.55C48.8996 150.586 48.9265 150.63 48.9441 150.677C48.9618 150.725 48.9699 150.775 48.9679 150.825C48.9701 150.867 48.9672 150.908 48.9592 150.949L47.1487 156.804C47.121 156.898 47.0636 156.979 46.9851 157.037C46.9067 157.095 46.8115 157.126 46.714 157.125H46.0726C45.9753 157.126 45.8804 157.095 45.8022 157.037C45.7241 156.979 45.6668 156.897 45.6391 156.804L43.8385 150.95C43.8294 150.91 43.8261 150.868 43.8286 150.827C43.8268 150.776 43.8352 150.725 43.8533 150.677C43.8714 150.63 43.8989 150.586 43.934 150.549C43.9692 150.512 44.0114 150.483 44.0582 150.462C44.105 150.442 44.1553 150.431 44.2063 150.43H44.7908C44.8889 150.433 44.9835 150.468 45.0601 150.529C45.1368 150.59 45.1914 150.675 45.2156 150.77L46.3945 154.768L47.5735 150.77C47.5983 150.673 47.6542 150.588 47.7326 150.526C47.811 150.465 47.9074 150.431 48.0069 150.43L48.5964 150.429Z" fill="#F2F3F5"/>
<path d="M53.0471 150.393C53.1434 150.396 53.2348 150.437 53.3018 150.506C53.3688 150.575 53.4062 150.668 53.4062 150.764V151.367C53.4072 151.415 53.3986 151.463 53.3811 151.508C53.3635 151.553 53.3373 151.593 53.3039 151.628C53.2706 151.662 53.2307 151.69 53.1866 151.709C53.1425 151.728 53.0951 151.738 53.0471 151.739H52.5195V155.708H53.0471C53.1434 155.711 53.2348 155.752 53.3018 155.821C53.3688 155.891 53.4062 155.983 53.4062 156.08V156.683C53.4072 156.731 53.3986 156.778 53.3811 156.823C53.3635 156.868 53.3373 156.909 53.3039 156.943C53.2706 156.978 53.2307 157.005 53.1866 157.024C53.1425 157.043 53.0951 157.053 53.0471 157.054H50.605C50.557 157.053 50.5096 157.043 50.4656 157.024C50.4216 157.005 50.3818 156.978 50.3485 156.943C50.3152 156.908 50.2891 156.868 50.2717 156.823C50.2543 156.778 50.2459 156.731 50.2471 156.683V156.08C50.247 155.983 50.2843 155.891 50.351 155.822C50.4178 155.752 50.5088 155.712 50.605 155.708H51.1325V151.739H50.605C50.557 151.738 50.5096 151.728 50.4656 151.709C50.4216 151.69 50.3818 151.662 50.3485 151.628C50.3152 151.593 50.2891 151.552 50.2717 151.508C50.2543 151.463 50.2459 151.415 50.2471 151.367V150.764C50.247 150.668 50.2843 150.576 50.351 150.507C50.4178 150.437 50.5088 150.397 50.605 150.393H53.0471Z" fill="#F2F3F5"/>
<path d="M57.6972 154.429L58.9603 156.495C58.9969 156.557 59.0165 156.629 59.0173 156.701C59.0173 156.8 58.9782 156.894 58.9085 156.964C58.8388 157.034 58.7443 157.073 58.6458 157.073H57.9672C57.8923 157.075 57.8183 157.056 57.7529 157.02C57.6875 156.983 57.6332 156.93 57.5957 156.865L56.2656 154.611H56.1331V156.695C56.1343 156.743 56.1259 156.791 56.1085 156.836C56.0911 156.88 56.065 156.921 56.0317 156.956C55.9984 156.99 55.9586 157.018 55.9146 157.037C55.8706 157.056 55.8232 157.066 55.7752 157.067H55.1152C55.0672 157.066 55.0197 157.056 54.9756 157.037C54.9316 157.018 54.8917 156.99 54.8583 156.956C54.8249 156.921 54.7987 156.88 54.7811 156.836C54.7636 156.791 54.7551 156.743 54.7561 156.695V150.991C54.7554 150.918 54.7693 150.845 54.7969 150.777C54.8246 150.709 54.8654 150.647 54.917 150.595C54.9636 150.541 55.0216 150.497 55.0869 150.468C55.1522 150.439 55.2232 150.424 55.2948 150.425H56.8502C57.1216 150.428 57.3897 150.485 57.6392 150.592C57.8887 150.699 58.1146 150.854 58.3039 151.048C58.4932 151.243 58.6422 151.473 58.7423 151.725C58.8424 151.977 58.8917 152.246 58.8873 152.518C58.893 152.917 58.7839 153.309 58.5729 153.648C58.362 153.987 58.058 154.258 57.6972 154.429ZM56.1406 151.817V153.232H56.8105C56.9931 153.225 57.1657 153.147 57.2922 153.015C57.4186 152.883 57.4893 152.707 57.4893 152.525C57.4893 152.342 57.4186 152.166 57.2922 152.034C57.1657 151.903 56.9931 151.825 56.8105 151.817H56.1406Z" fill="#F2F3F5"/>
<path d="M64.912 154.693C64.912 156.023 63.8928 157.202 62.5256 157.202C61.1584 157.202 60.1393 156.023 60.1393 154.693V152.826C60.1393 151.496 61.1671 150.328 62.5256 150.328C63.8841 150.328 64.912 151.496 64.912 152.826V154.693ZM63.5349 152.826C63.5349 152.27 63.1101 151.733 62.5256 151.733C61.9411 151.733 61.5163 152.27 61.5163 152.826V154.693C61.5163 155.24 61.951 155.796 62.5256 155.796C63.1002 155.796 63.5349 155.249 63.5349 154.693V152.826Z" fill="#F2F3F5"/>
<path d="M67.7788 153.184V156.701C67.7807 156.75 67.7727 156.798 67.7556 156.843C67.7384 156.888 67.7124 156.929 67.6789 156.963C67.6455 156.998 67.6054 157.026 67.5611 157.044C67.5168 157.063 67.4691 157.073 67.4209 157.073H66.8265C66.7785 157.072 66.7311 157.062 66.687 157.043C66.6429 157.024 66.603 156.996 66.5696 156.962C66.5362 156.927 66.51 156.887 66.4925 156.842C66.4749 156.797 66.4664 156.749 66.4674 156.701V150.875C66.4661 150.818 66.476 150.761 66.4967 150.708C66.5173 150.655 66.5483 150.606 66.5877 150.565C66.6272 150.524 66.6744 150.491 66.7266 150.468C66.7789 150.445 66.8351 150.433 66.8921 150.432H67.5708C67.6472 150.431 67.7224 150.451 67.7887 150.489C67.855 150.527 67.9101 150.582 67.9485 150.648L70.0141 154.335V150.808C70.0128 150.76 70.021 150.712 70.0384 150.667C70.0557 150.623 70.0818 150.582 70.1151 150.547C70.1485 150.513 70.1883 150.485 70.2324 150.466C70.2765 150.447 70.324 150.437 70.372 150.437H70.9763C71.0238 150.437 71.0706 150.448 71.1141 150.467C71.1575 150.486 71.1966 150.514 71.229 150.549C71.2615 150.583 71.2867 150.624 71.303 150.669C71.3194 150.713 71.3266 150.761 71.3243 150.808V156.636C71.3258 156.693 71.316 156.749 71.2955 156.803C71.275 156.856 71.2441 156.904 71.2048 156.945C71.1654 156.987 71.1183 157.02 71.0661 157.043C71.0139 157.066 70.9578 157.078 70.9008 157.079H70.216C70.1397 157.078 70.065 157.058 69.9989 157.02C69.9328 156.982 69.8775 156.928 69.8382 156.862L67.7788 153.184Z" fill="#F2F3F5"/>
<path d="M74.7583 153.401L74.4091 156.71C74.3967 156.81 74.349 156.903 74.2746 156.971C74.2001 157.039 74.1038 157.078 74.0029 157.082H73.3837C73.3325 157.084 73.2814 157.075 73.2341 157.055C73.1868 157.036 73.1444 157.006 73.11 156.968C73.0393 156.88 73.0055 156.769 73.0159 156.657L73.7131 150.849C73.717 150.732 73.7666 150.621 73.8513 150.54C73.9361 150.459 74.0491 150.414 74.1664 150.416H74.9304C75.0275 150.416 75.1217 150.449 75.1983 150.508C75.2749 150.568 75.3296 150.651 75.354 150.745L76.6084 154.781L77.8468 150.736C77.8756 150.644 77.9333 150.562 78.0115 150.505C78.0897 150.447 78.1843 150.416 78.2815 150.416H78.97C79.0885 150.413 79.2035 150.456 79.2899 150.538C79.3764 150.619 79.4274 150.731 79.4319 150.849L80.1291 156.657C80.1395 156.769 80.1057 156.88 80.035 156.968C80.0006 157.006 79.9582 157.036 79.9109 157.055C79.8636 157.075 79.8125 157.084 79.7614 157.082H79.1112C79.0095 157.081 78.9118 157.042 78.8368 156.974C78.7617 156.905 78.7148 156.811 78.705 156.71L78.3471 153.401L77.3007 156.814C77.276 156.908 77.221 156.992 77.1442 157.051C77.0675 157.111 76.9732 157.144 76.8759 157.145H76.2344C76.1387 157.144 76.0457 157.113 75.9693 157.055C75.893 156.997 75.8374 156.916 75.8109 156.824L74.7583 153.401Z" fill="#F2F3F5"/>
<path d="M83.1706 151.836V152.951H84.6133C84.6614 152.951 84.7089 152.961 84.7531 152.98C84.7973 152.999 84.8372 153.026 84.8706 153.061C84.9039 153.096 84.93 153.137 84.9473 153.181C84.9646 153.226 84.9727 153.274 84.9712 153.322V153.954C84.9729 154.002 84.9649 154.05 84.9476 154.094C84.9304 154.139 84.9043 154.18 84.871 154.215C84.8376 154.25 84.7976 154.277 84.7533 154.296C84.709 154.315 84.6615 154.325 84.6133 154.325H83.1706V155.687H85.1694C85.2668 155.69 85.3591 155.732 85.4263 155.802C85.4935 155.873 85.5302 155.967 85.5285 156.065V156.715C85.5295 156.763 85.521 156.81 85.5034 156.855C85.4859 156.9 85.4596 156.94 85.4263 156.975C85.3929 157.009 85.353 157.037 85.3089 157.056C85.2648 157.075 85.2174 157.085 85.1694 157.086H82.331C82.2584 157.084 82.1869 157.069 82.1204 157.039C82.054 157.01 81.9941 156.968 81.9441 156.915C81.8941 156.863 81.855 156.801 81.8292 156.733C81.8034 156.665 81.7912 156.593 81.7936 156.52V151.004C81.7927 150.931 81.8063 150.858 81.8337 150.79C81.8612 150.722 81.9018 150.66 81.9533 150.608C81.9999 150.554 82.0579 150.511 82.1232 150.481C82.1885 150.452 82.2595 150.437 82.331 150.439H85.1694C85.2174 150.439 85.2649 150.449 85.3091 150.468C85.3533 150.487 85.3932 150.515 85.4266 150.549C85.46 150.584 85.4863 150.625 85.5037 150.669C85.5212 150.714 85.5296 150.762 85.5285 150.81V151.461C85.5286 151.558 85.4911 151.65 85.4241 151.72C85.3571 151.789 85.2657 151.829 85.1694 151.833L83.1706 151.836Z" fill="#F2F3F5"/>
<path d="M88.2814 153.184V156.701C88.2833 156.75 88.2753 156.798 88.2582 156.843C88.241 156.888 88.215 156.929 88.1815 156.963C88.1481 156.998 88.108 157.026 88.0637 157.044C88.0194 157.063 87.9717 157.073 87.9235 157.073H87.3291C87.2811 157.072 87.2338 157.062 87.1898 157.043C87.1457 157.024 87.1059 156.996 87.0726 156.962C87.0394 156.927 87.0133 156.886 86.9958 156.842C86.9784 156.797 86.9701 156.749 86.9712 156.701V150.875C86.9697 150.818 86.9795 150.761 87.0001 150.708C87.0206 150.655 87.0514 150.606 87.0908 150.565C87.1301 150.524 87.1772 150.491 87.2294 150.468C87.2816 150.445 87.3378 150.433 87.3947 150.432H88.0746C88.15 150.432 88.2239 150.453 88.289 150.491C88.3542 150.529 88.4083 150.583 88.4461 150.648L90.5117 154.335V150.808C90.5106 150.76 90.519 150.712 90.5365 150.667C90.554 150.623 90.5802 150.582 90.6136 150.547C90.647 150.513 90.687 150.485 90.7311 150.466C90.7753 150.447 90.8228 150.437 90.8709 150.437H91.474C91.5215 150.437 91.5684 150.448 91.6119 150.467C91.6554 150.486 91.6945 150.514 91.7271 150.548C91.7597 150.583 91.7849 150.624 91.8014 150.669C91.818 150.713 91.8253 150.761 91.8232 150.808V156.636C91.8245 156.693 91.8145 156.75 91.7939 156.803C91.7732 156.856 91.7423 156.904 91.7028 156.946C91.6634 156.987 91.6162 157.02 91.5639 157.043C91.5117 157.066 91.4554 157.078 91.3984 157.079H90.7099C90.6347 157.077 90.5611 157.056 90.4962 157.019C90.4312 156.981 90.3769 156.927 90.3384 156.862L88.2814 153.184Z" fill="#F2F3F5"/>
<path d="M97.6658 151.459C97.6659 151.555 97.6286 151.648 97.5619 151.717C97.4951 151.786 97.4041 151.827 97.3079 151.831H96.0906V156.695C96.0918 156.743 96.0834 156.791 96.066 156.835C96.0486 156.88 96.0225 156.921 95.9892 156.956C95.9559 156.99 95.9161 157.018 95.8721 157.037C95.8281 157.056 95.7807 157.066 95.7327 157.067H95.0727C95.0246 157.066 94.9772 157.056 94.9331 157.037C94.889 157.018 94.8492 156.99 94.8158 156.956C94.7824 156.921 94.7562 156.88 94.7386 156.836C94.7211 156.791 94.7126 156.743 94.7135 156.695V151.831H93.4975C93.4011 151.827 93.3097 151.787 93.2427 151.718C93.1757 151.648 93.1383 151.556 93.1383 151.459V150.808C93.1372 150.76 93.1456 150.712 93.1631 150.667C93.1806 150.623 93.2068 150.582 93.2402 150.547C93.2736 150.513 93.3135 150.485 93.3577 150.466C93.4019 150.447 93.4494 150.437 93.4975 150.437H97.3079C97.3559 150.437 97.4033 150.447 97.4473 150.466C97.4913 150.485 97.5311 150.513 97.5644 150.548C97.5977 150.582 97.6238 150.623 97.6412 150.668C97.6586 150.712 97.667 150.76 97.6658 150.808V151.459Z" fill="#F2F3F5"/>
<path d="M103.664 156.56C103.676 156.603 103.683 156.648 103.683 156.692C103.685 156.793 103.647 156.89 103.577 156.962C103.507 157.035 103.412 157.076 103.312 157.079H102.708C102.61 157.078 102.515 157.044 102.438 156.982C102.361 156.921 102.306 156.835 102.284 156.739L101.944 155.617H100.25L99.9196 156.739C99.8939 156.835 99.8377 156.92 99.7595 156.981C99.6814 157.043 99.5854 157.077 99.4862 157.079H98.9017C98.8013 157.076 98.7059 157.035 98.6363 156.962C98.5666 156.89 98.5285 156.793 98.5302 156.692C98.5307 156.648 98.5369 156.603 98.5487 156.56L100.351 150.714C100.377 150.619 100.434 150.536 100.512 150.476C100.59 150.417 100.686 150.385 100.784 150.384H101.435C101.532 150.385 101.627 150.417 101.703 150.477C101.78 150.536 101.835 150.62 101.859 150.714L103.664 156.56ZM101.099 152.732L100.655 154.25H101.532L101.099 152.732Z" fill="#F2F3F5"/>
<path d="M105.871 150.429C105.919 150.43 105.967 150.44 106.011 150.459C106.055 150.478 106.094 150.506 106.128 150.54C106.161 150.575 106.187 150.615 106.205 150.66C106.222 150.705 106.23 150.753 106.229 150.8V155.666H107.986C108.034 155.668 108.081 155.679 108.125 155.699C108.168 155.719 108.207 155.747 108.24 155.782C108.272 155.817 108.298 155.858 108.314 155.903C108.33 155.948 108.338 155.996 108.336 156.044V156.694C108.338 156.741 108.33 156.789 108.314 156.833C108.297 156.878 108.272 156.918 108.239 156.953C108.207 156.988 108.168 157.015 108.124 157.035C108.081 157.054 108.034 157.064 107.986 157.065H105.386C105.313 157.064 105.242 157.048 105.175 157.018C105.109 156.989 105.049 156.947 104.999 156.894C104.949 156.842 104.91 156.78 104.884 156.712C104.858 156.644 104.846 156.572 104.848 156.499V150.794C104.847 150.746 104.855 150.699 104.873 150.654C104.89 150.609 104.916 150.568 104.949 150.534C104.983 150.499 105.023 150.471 105.067 150.452C105.111 150.433 105.158 150.423 105.206 150.423L105.871 150.429Z" fill="#F2F3F5"/>
</g>
<defs>
<clipPath id="clip0">
<rect width="350" height="259" fill="white"/>
</clipPath>
</defs>
</svg>
