<svg width="43" height="79" viewBox="0 0 43 79" fill="none" xmlns="http://www.w3.org/2000/svg">
<path d="M43 0L43 79L-3.4532e-06 79L-3.8147e-06 -1.87959e-06L21.5 27.6995L43 0Z" fill="#F3B36A"/>
<path d="M16.0266 38.568C16.2346 38.376 16.5066 38.184 16.8426 37.992C17.1786 37.8 17.5706 37.632 18.0186 37.488C18.4826 37.328 18.9866 37.2 19.5306 37.104C20.0906 37.008 20.6826 36.96 21.3066 36.96C23.1946 36.976 24.6186 37.36 25.5786 38.112C26.5386 38.864 27.0186 39.944 27.0186 41.352C27.0186 42.312 26.7626 43.112 26.2506 43.752C25.7386 44.376 25.1146 44.856 24.3786 45.192C25.4346 45.416 26.2346 45.848 26.7786 46.488C27.3226 47.112 27.5946 47.992 27.5946 49.128C27.5946 49.832 27.4586 50.488 27.1866 51.096C26.9306 51.704 26.5306 52.24 25.9866 52.704C25.4586 53.152 24.7946 53.512 23.9946 53.784C23.1946 54.04 22.2666 54.176 21.2106 54.192C20.5546 54.192 19.9386 54.136 19.3626 54.024C18.7866 53.928 18.2666 53.8 17.8026 53.64C17.3546 53.464 16.9626 53.28 16.6266 53.088C16.3066 52.88 16.0666 52.696 15.9066 52.536V48.456C16.4666 48.968 17.1866 49.4 18.0666 49.752C18.9466 50.104 19.9706 50.264 21.1386 50.232C22.8666 50.232 23.7306 49.688 23.7306 48.6C23.7306 48.296 23.6826 48.04 23.5866 47.832C23.5066 47.624 23.3546 47.456 23.1306 47.328C22.9066 47.184 22.6026 47.088 22.2186 47.04C21.8346 46.976 21.3466 46.944 20.7546 46.944H19.0266V44.064H20.2506C21.1786 44.064 21.8906 43.968 22.3866 43.776C22.8986 43.568 23.1546 43.144 23.1546 42.504C23.1546 41.944 22.9866 41.544 22.6506 41.304C22.3146 41.048 21.7226 40.92 20.8746 40.92C20.0106 40.92 19.1306 41.08 18.2346 41.4C17.3546 41.72 16.6186 42.184 16.0266 42.792V38.568Z" fill="white"/>
</svg>
