<svg width="43" height="79" viewBox="0 0 43 79" fill="none" xmlns="http://www.w3.org/2000/svg">
<path d="M43 0L43 51.3005L21.5 79L1.57228e-06 51.3005L3.8147e-06 -1.87959e-06L21.5 27.6995L43 0Z" fill="#F3B36A"/>
<path d="M15.6526 55H27.1966V51.4H21.2686C25.4926 47.896 27.0046 45.736 27.0046 42.928C27.0046 40 25.1086 37.96 21.2446 37.96C18.9406 37.96 16.9966 38.92 16.1806 39.808V44.44C17.3566 42.856 18.9406 41.776 20.7886 41.776C22.2766 41.776 23.1406 42.496 23.1406 43.792C23.1406 44.968 22.5406 46.408 15.6526 52.336V55Z" fill="white"/>
</svg>
