<svg width="200" height="200" viewBox="0 0 200 200" fill="none" xmlns="http://www.w3.org/2000/svg">
<circle opacity="0.2" cx="100" cy="100" r="100" fill="#4AA29A"/>
<circle opacity="0.5" cx="100" cy="100" r="90" fill="#4AA29A"/>
<mask id="mask0" mask-type="alpha" maskUnits="userSpaceOnUse" x="10" y="10" width="180" height="180">
<circle cx="100" cy="100" r="90" fill="#4AA29A"/>
</mask>
<g mask="url(#mask0)">
<g clip-path="url(#clip0)">
<g opacity="0.2">
<path opacity="0.2" d="M275.877 67.7889L275.861 141.529L-6.12305 142.199V69.0608L10.5935 78.8201L41.1099 57.4917L85.4383 81.7624L110.891 71.259L133.962 81.1739L142.318 85.3478L168.532 71.3439L184.34 84.4358L197.094 76.7918L228.344 84.4358L247.874 77.0264L262.144 90.9878L275.877 67.7889Z" fill="#138999"/>
</g>
<g opacity="0.2">
<path opacity="0.2" d="M275.877 94.0101L275.871 140.918L-6.05664 141.055V94.3963L10.4706 104.742L49.7512 94.0566L75.2641 95.6724L129.479 93.543L156.903 113.909L185.605 113.243L213.503 95.1789L240.899 107.076L253.988 100.334L265.886 110.799L275.877 94.0101Z" fill="#138999"/>
</g>
<g opacity="0.9">
<path opacity="0.9" d="M127.949 63.1564L84.8859 63.1341C83.9311 61.8965 86.9888 60.3576 87.7945 59.6964C90.0263 57.8582 92.3911 57.4396 94.9472 58.7985C95.614 56.9502 98.6535 56.6812 101.034 57.3162C102.892 57.8425 104.606 58.788 106.044 60.0806C107.12 57.8278 112.236 58.1918 115.588 59.8784C117.08 57.5508 126.044 60.6933 127.949 63.1564Z" fill="white"/>
</g>
<path d="M275.877 133.165H-6.12305V191H275.877V133.165Z" fill="#86949D"/>
<path d="M239.217 152.375C239.217 153.03 238.21 153.564 236.943 153.564H149.178C147.922 153.564 146.904 153.03 146.904 152.375V150.003C146.904 149.346 147.922 148.814 149.178 148.814H236.949C238.206 148.814 239.223 149.346 239.223 150.003L239.217 152.375Z" fill="#6A777F"/>
<g opacity="0.1">
<path opacity="0.1" d="M3.4707 110.024C3.4707 110.024 14.9783 124.382 3.4707 128.331C3.4707 128.331 8.78238 122.204 3.4707 110.024Z" fill="white"/>
</g>
<path d="M11.5889 132.05C11.5933 132.13 11.5659 132.208 11.5127 132.268C11.4594 132.328 11.3847 132.365 11.3049 132.369C11.2255 132.364 11.1513 132.328 11.0985 132.268C11.0457 132.208 11.0185 132.13 11.0229 132.05V124.398C11.0185 124.318 11.0457 124.239 11.0985 124.18C11.1513 124.12 11.2255 124.083 11.3049 124.078C11.3847 124.083 11.4594 124.119 11.5127 124.179C11.5659 124.239 11.5933 124.317 11.5889 124.398V132.05Z" fill="#907669"/>
<path d="M11.3047 124.078V132.369C11.3845 132.365 11.4592 132.328 11.5124 132.268C11.5657 132.208 11.5931 132.13 11.5887 132.05V124.398C11.5931 124.317 11.5657 124.239 11.5124 124.179C11.4592 124.119 11.3845 124.083 11.3047 124.078Z" fill="#907669"/>
<path d="M15.0752 125.531C15.0752 128.78 11.7476 129.624 11.7476 129.624C11.7476 129.624 8.41797 128.78 8.41797 125.531C8.41797 122.281 11.7476 117.846 11.7476 117.846C11.7476 117.846 15.0752 122.279 15.0752 125.531Z" fill="#BDCA6F"/>
<path d="M14.3438 125.531C14.3438 128.78 11.0162 129.624 11.0162 129.624C11.0162 129.624 7.68457 128.78 7.68457 125.531C7.68457 122.281 11.0162 117.846 11.0162 117.846C11.0162 117.846 14.3438 122.279 14.3438 125.531Z" fill="#A1BA38"/>
<g opacity="0.1">
<path opacity="0.1" d="M11.0166 117.851C11.0166 117.851 18.4171 127.083 11.0166 129.622C11.0166 129.622 14.4328 125.681 11.0166 117.851Z" fill="white"/>
</g>
<g opacity="0.1">
<path opacity="0.1" d="M11.0164 117.851C11.0164 117.851 3.44067 127.008 11.0164 129.622C11.0164 129.622 7.64248 124.411 11.0164 117.851Z" fill="black"/>
</g>
<path d="M11.0166 117.851H11.7478L11.3852 118.357L11.0166 117.851Z" fill="#BDCA6F"/>
<path d="M11.0166 129.623H11.7478L11.3852 129.506L11.0166 129.623Z" fill="#BDCA6F"/>
<path d="M29.3664 132.102C29.3725 132.226 29.3297 132.348 29.2472 132.441C29.1646 132.534 29.0491 132.591 28.9253 132.599C28.8016 132.591 28.6862 132.534 28.604 132.441C28.5219 132.348 28.4795 132.226 28.4861 132.102V120.203C28.479 120.079 28.5211 119.956 28.6033 119.863C28.6855 119.769 28.8013 119.712 28.9253 119.704C29.0494 119.712 29.1653 119.769 29.2479 119.863C29.3304 119.956 29.373 120.078 29.3664 120.203V132.102Z" fill="#907669"/>
<path d="M28.9258 119.704V132.599C29.0496 132.591 29.1652 132.534 29.2477 132.441C29.3302 132.348 29.373 132.226 29.3669 132.102V120.203C29.3735 120.078 29.331 119.956 29.2484 119.863C29.1659 119.769 29.0499 119.712 28.9258 119.704Z" fill="#907669"/>
<path d="M34.791 121.964C34.791 127.019 29.6123 128.332 29.6123 128.332C29.6123 128.332 24.4355 127.019 24.4355 121.964C24.4355 116.908 29.6123 110.033 29.6123 110.033C29.6123 110.033 34.791 116.91 34.791 121.964Z" fill="#BDCA6F"/>
<path d="M33.6533 121.964C33.6533 127.019 28.4766 128.332 28.4766 128.332C28.4766 128.332 23.2979 127.019 23.2979 121.964C23.2979 116.908 28.4766 110.033 28.4766 110.033C28.4766 110.033 33.6533 116.91 33.6533 121.964Z" fill="#A1BA38"/>
<g opacity="0.1">
<path opacity="0.1" d="M28.4766 110.024C28.4766 110.024 39.9842 124.382 28.4766 128.331C28.4766 128.331 33.7902 122.204 28.4766 110.024Z" fill="white"/>
</g>
<g opacity="0.1">
<path opacity="0.1" d="M28.4765 110.024C28.4765 110.024 16.6949 124.262 28.4765 128.331C28.4765 128.331 23.2293 120.222 28.4765 110.024Z" fill="black"/>
</g>
<path d="M28.4785 110.024H29.6126L29.0506 110.809L28.4785 110.024Z" fill="#BDCA6F"/>
<path d="M28.4785 128.33H29.6126L29.0506 128.142L28.4785 128.33Z" fill="#BDCA6F"/>
<path d="M36.5959 132.05C36.5998 132.13 36.5719 132.209 36.5183 132.269C36.4648 132.328 36.3899 132.365 36.3099 132.369C36.2306 132.364 36.1566 132.327 36.1041 132.268C36.0516 132.208 36.0249 132.129 36.0299 132.05V124.398C36.0249 124.318 36.0516 124.24 36.1041 124.18C36.1566 124.12 36.2306 124.083 36.3099 124.078C36.3496 124.08 36.3885 124.09 36.4244 124.107C36.4602 124.124 36.4924 124.149 36.5189 124.178C36.5455 124.208 36.566 124.243 36.5792 124.28C36.5924 124.318 36.5981 124.358 36.5959 124.398V132.05Z" fill="#907669"/>
<path d="M36.3096 124.078V132.369C36.3896 132.365 36.4645 132.328 36.518 132.269C36.5716 132.209 36.5994 132.13 36.5956 132.05V124.398C36.5978 124.358 36.5921 124.318 36.5789 124.28C36.5657 124.243 36.5452 124.208 36.5186 124.178C36.4921 124.149 36.4599 124.124 36.424 124.107C36.3882 124.09 36.3493 124.08 36.3096 124.078Z" fill="#907669"/>
<path d="M40.083 125.531C40.083 128.78 36.7534 129.624 36.7534 129.624C36.7534 129.624 33.4258 128.78 33.4258 125.531C33.4258 122.281 36.7534 117.846 36.7534 117.846C36.7534 117.846 40.083 122.279 40.083 125.531Z" fill="#BDCA6F"/>
<path d="M39.3516 125.531C39.3516 128.78 36.024 129.624 36.024 129.624C36.024 129.624 32.6924 128.78 32.6924 125.531C32.6924 122.281 36.024 117.846 36.024 117.846C36.024 117.846 39.3516 122.279 39.3516 125.531Z" fill="#A1BA38"/>
<g opacity="0.1">
<path opacity="0.1" d="M36.0234 117.851C36.0234 117.851 43.422 127.083 36.0234 129.622C36.0234 129.622 39.4397 125.681 36.0234 117.851Z" fill="white"/>
</g>
<g opacity="0.1">
<path opacity="0.1" d="M36.0241 117.851C36.0241 117.851 28.4464 127.008 36.0241 129.622C36.0241 129.622 32.6482 124.411 36.0241 117.851Z" fill="black"/>
</g>
<path d="M36.0234 117.851H36.7526L36.39 118.357L36.0234 117.851Z" fill="#BDCA6F"/>
<path d="M36.0234 129.623H36.7526L36.39 129.506L36.0234 129.623Z" fill="#BDCA6F"/>
<g opacity="0.2">
<path opacity="0.2" d="M141.991 119.57L158.069 131.529H178.843L160.055 119.422L141.991 119.57Z" fill="white"/>
</g>
<path d="M174.44 94.0625H93.4434V131.827H174.44V94.0625Z" fill="#5FAFB7"/>
<path d="M174.486 119.739H93.5498V120.522H174.486V119.739Z" fill="#90D0D3"/>
<g opacity="0.8">
<path opacity="0.8" d="M174.498 126.442H162.696V124.421H154.558V126.891H146.012V123.748H133.803V125.879H128.242V124.535H120.104V127.002H111.559V123.859H99.3509V125.993H93.5195V132.051L174.498 131.716V126.442Z" fill="#5CAEB7"/>
</g>
<g opacity="0.8">
<path opacity="0.8" d="M174.369 110.183H162.585V108.674H154.462V110.521H145.929V108.171H133.741V109.764H128.187V108.759H120.062V110.604H111.529V108.254H99.3428V109.847H93.5195V114.375L174.369 114.124V110.183Z" fill="#5CAEB7"/>
</g>
<path d="M98.3441 94.0073H97.8184V132.027H98.3441V94.0073Z" fill="#90D0D3"/>
<path d="M104.647 94.0073H104.121V132.027H104.647V94.0073Z" fill="#90D0D3"/>
<path d="M111.475 94.0073H110.949V132.027H111.475V94.0073Z" fill="#90D0D3"/>
<path d="M117.778 94.0073H117.252V132.027H117.778V94.0073Z" fill="#90D0D3"/>
<path d="M124.608 94.0073H124.08V132.027H124.608V94.0073Z" fill="#90D0D3"/>
<path d="M130.908 94.0073H130.385V132.027H130.908V94.0073Z" fill="#90D0D3"/>
<path d="M137.738 94.0073H137.212V132.027H137.738V94.0073Z" fill="#90D0D3"/>
<path d="M144.042 94.0073H143.515V132.027H144.042V94.0073Z" fill="#90D0D3"/>
<path d="M150.866 94.0073H150.343V132.027H150.866V94.0073Z" fill="#90D0D3"/>
<path d="M157.171 94.0073H156.646V132.027H157.171V94.0073Z" fill="#90D0D3"/>
<path d="M163.999 94.0073H163.472V132.027H163.999V94.0073Z" fill="#90D0D3"/>
<path d="M170.302 94.0073H169.776V132.027H170.302V94.0073Z" fill="#90D0D3"/>
<path d="M174.441 114.275H93.5498V114.914H174.441V114.275Z" fill="#90D0D3"/>
<path d="M174.441 107.316H93.5498V107.955H174.441V107.316Z" fill="#90D0D3"/>
<path d="M174.441 100.565H93.5498V101.204H174.441V100.565Z" fill="#90D0D3"/>
<path d="M174.486 125.631H93.5498V126.413H174.486V125.631Z" fill="#90D0D3"/>
<g opacity="0.2">
<path opacity="0.2" d="M96.3252 94.1533L133.463 131.829H158.593L120.335 94.2969L96.3252 94.1533Z" fill="white"/>
</g>
<g opacity="0.1">
<path opacity="0.1" d="M131.894 94.2046L174.526 131.925V118.829L148.159 94.2046H131.894Z" fill="white"/>
</g>
<g opacity="0.1">
<path opacity="0.1" d="M153.358 94.2046L174.527 115.377V108.026L161.436 94.2046H153.358Z" fill="white"/>
</g>
<path d="M174.441 89.0527H94.7383V94.0618H174.441V89.0527Z" fill="#C8CBCC"/>
<g opacity="0.2">
<path opacity="0.2" d="M134.708 119.57L150.786 131.529H171.559L152.774 119.422L134.708 119.57Z" fill="white"/>
</g>
<path d="M167.158 94.0625H86.1611V131.827H167.158V94.0625Z" fill="#81D0DE"/>
<path d="M167.201 119.739H86.2666V120.522H167.201V119.739Z" fill="#AEE7ED"/>
<g opacity="0.8">
<path opacity="0.8" d="M167.215 126.442H155.413V124.421H147.275V126.891H138.729V123.748H126.522V125.879H120.961V124.535H112.821V127.002H104.276V123.859H92.0697V125.993H86.2363V132.051L167.215 131.716V126.442Z" fill="#5CAEB7"/>
</g>
<g opacity="0.8">
<path opacity="0.8" d="M167.215 110.183H155.413V108.674H147.275V110.521H138.729V108.171H126.522V109.764H120.961V108.759H112.821V110.604H104.276V108.254H92.0697V109.847H86.2363V114.375L167.215 114.124V110.183Z" fill="#5CAEB7"/>
</g>
<path d="M91.0619 94.0073H90.5361V132.027H91.0619V94.0073Z" fill="#AEE7ED"/>
<path d="M97.3626 94.0073H96.8389V132.027H97.3626V94.0073Z" fill="#AEE7ED"/>
<path d="M104.192 94.0073H103.666V132.027H104.192V94.0073Z" fill="#AEE7ED"/>
<path d="M110.493 94.0073H109.968V132.027H110.493V94.0073Z" fill="#AEE7ED"/>
<path d="M117.325 94.0073H116.799V132.027H117.325V94.0073Z" fill="#AEE7ED"/>
<path d="M123.625 94.0073H123.102V132.027H123.625V94.0073Z" fill="#AEE7ED"/>
<path d="M130.453 94.0073H129.928V132.027H130.453V94.0073Z" fill="#AEE7ED"/>
<path d="M136.758 94.0073H136.23V132.027H136.758V94.0073Z" fill="#AEE7ED"/>
<path d="M143.584 94.0073H143.059V132.027H143.584V94.0073Z" fill="#AEE7ED"/>
<path d="M149.887 94.0073H149.361V132.027H149.887V94.0073Z" fill="#AEE7ED"/>
<path d="M156.718 94.0073H156.19V132.027H156.718V94.0073Z" fill="#AEE7ED"/>
<path d="M163.019 94.0073H162.493V132.027H163.019V94.0073Z" fill="#AEE7ED"/>
<path d="M167.158 114.275H86.2666V114.914H167.158V114.275Z" fill="#AEE7ED"/>
<path d="M167.158 107.316H86.2666V107.955H167.158V107.316Z" fill="#AEE7ED"/>
<path d="M167.158 100.565H86.2666V101.204H167.158V100.565Z" fill="#AEE7ED"/>
<path d="M167.201 125.631H86.2666V126.413H167.201V125.631Z" fill="#AEE7ED"/>
<g opacity="0.2">
<path opacity="0.2" d="M89.042 94.1533L126.179 131.829H151.312L113.052 94.2969L89.042 94.1533Z" fill="white"/>
</g>
<g opacity="0.2">
<path opacity="0.2" d="M124.419 94.1079L167.158 131.828V118.733L140.725 94.1079H124.419Z" fill="white"/>
</g>
<path d="M167.157 89.0527H87.4541V94.0618H167.157V89.0527Z" fill="#EAEAEA"/>
<g opacity="0.2">
<path opacity="0.2" d="M167.151 94.1216H87.6133V96.2388H167.151V94.1216Z" fill="black"/>
</g>
<path d="M43.275 114.325H41.6152V132.282H43.275V114.325Z" fill="#EAEAEA"/>
<path d="M43.3594 114.325H42.4248V132.282H43.3594V114.325Z" fill="#CECECE"/>
<path d="M87.574 81.6665H66.5166V131.961H87.574V81.6665Z" fill="#0E738E"/>
<path d="M89.3678 65.7388H64.02L61.625 45.6016H91.7627L89.3678 65.7388Z" fill="#C5EDEF"/>
<path d="M89.3678 65.7388H77.6426L77.9427 45.6016H91.7627L89.3678 65.7388Z" fill="#95DBDB"/>
<path d="M67.6143 65.7388L65.1689 45.6016H87.8216L85.8758 65.7388H67.6143Z" fill="#AEE7ED"/>
<path d="M84.3287 41.3921H69.1611V43.4972H84.3287V41.3921Z" fill="#E6E8E8"/>
<path d="M84.328 41.3921H71.7549V43.4972H84.328V41.3921Z" fill="#B2B2B2"/>
<path d="M81.5342 41.3921H71.7549V43.4972H81.5342V41.3921Z" fill="#D4D6D6"/>
<path d="M79.9394 29.2686H73.252V41.3918H79.9394V29.2686Z" fill="#D1D3D3"/>
<path d="M79.9397 29.2686H74.8496V41.3918H79.9397V29.2686Z" fill="#8D8E8E"/>
<path d="M78.0443 29.2686H74.8496V41.3918H78.0443V29.2686Z" fill="#B2B2B2"/>
<path d="M81.9334 27.8667H71.4551V29.7453H81.9334V27.8667Z" fill="#8D8E8E"/>
<path d="M91.4348 48.5068H61.9033L61.9295 48.7313H91.4086L91.4348 48.5068Z" fill="#83C4C2"/>
<path d="M91.0054 52.1108H62.332L62.3602 52.3373H90.9772L91.0054 52.1108Z" fill="#83C4C2"/>
<path d="M90.577 55.7183H62.7617L62.7899 55.9427H90.5488L90.577 55.7183Z" fill="#83C4C2"/>
<path d="M90.1476 59.3257H63.1904L63.2166 59.5522H90.1214L90.1476 59.3257Z" fill="#83C4C2"/>
<path d="M89.7182 62.9331H63.6191L63.6453 63.1576H89.6901L89.7182 62.9331Z" fill="#83C4C2"/>
<path d="M69.2671 45.4275L69.043 45.4531L71.4746 66.8795L71.6988 66.8538L69.2671 45.4275Z" fill="#83C4C2"/>
<path d="M83.7765 45.205L81.4492 66.6431L81.6735 66.6676L84.0008 45.2296L83.7765 45.205Z" fill="#83C4C2"/>
<path d="M88.0252 45.4369L85.5898 66.8628L85.814 66.8885L88.2494 45.4625L88.0252 45.4369Z" fill="#83C4C2"/>
<path d="M67.6842 67.1641L67.4607 67.1884L65.1221 45.7508L65.3477 45.7266L67.6842 67.1641Z" fill="#83C4C2"/>
<path d="M76.3958 45.0737H76.0957V66.7904H76.3958V45.0737Z" fill="#83C4C2"/>
<path d="M93.7592 43.4971H59.3311V45.9015H93.7592V43.4971Z" fill="#2EABBF"/>
<path d="M93.7597 43.4971H65.1689V45.9015H93.7597V43.4971Z" fill="#16707F"/>
<path d="M87.8478 43.4971H65.1689V45.9015H87.8478V43.4971Z" fill="#1C8BA5"/>
<path d="M89.3679 65.7373H63.9697V69.0436H89.3679V65.7373Z" fill="#62B9D3"/>
<path d="M89.3686 65.7373H67.6143V69.0436H89.3686V65.7373Z" fill="#2D819B"/>
<path d="M85.8758 65.7373H67.6143V69.0436H85.8758V65.7373Z" fill="#479DBE"/>
<g opacity="0.2">
<path opacity="0.2" d="M65.1689 45.8991L85.8758 65.7371L86.7238 57.3712L74.3501 45.8506L65.1689 45.8991Z" fill="white"/>
</g>
<g opacity="0.2">
<path opacity="0.2" d="M65.916 52.2119L79.8891 65.686L72.9519 65.7871L66.7157 59.3241L65.916 52.2119Z" fill="white"/>
</g>
<path d="M81.98 81.6665H65.8174V131.961H81.98V81.6665Z" fill="#2EA8BC"/>
<path d="M82.1917 81.6665H71.3105V131.961H82.1917V81.6665Z" fill="#1C8BA5"/>
<path d="M93.0117 68.8945H60.0781V86.6173H93.0117V68.8945Z" fill="#D4D6D6"/>
<path d="M67.5632 68.8945H60.0781V86.5748H67.5632V68.8945Z" fill="#E6E8E8"/>
<path d="M93.3102 68.8945H85.8271V86.6173H93.3102V68.8945Z" fill="#C1C1C1"/>
<path d="M92.7258 108.81H46.7275V131.997H92.7258V108.81Z" fill="#19A8C6"/>
<path d="M99.4009 108.81H92.5342V132.003H99.4009V108.81Z" fill="#1B8F9E"/>
<path d="M101.364 120.19H93.6973V121.007H101.364V120.19Z" fill="#D4D6D6"/>
<path d="M105.199 120.19H97.5322V121.007H105.199V120.19Z" fill="#9E9E9E"/>
<path d="M99.4076 121.012H93.7334V130.745H99.4076V121.012Z" fill="#13858E"/>
<g opacity="0.2">
<path opacity="0.2" d="M98.7127 121.012H93.7334V130.745H98.7127V121.012Z" fill="black"/>
</g>
<path d="M97.411 129.887H93.7148V130.995H97.411V129.887Z" fill="#393F42"/>
<path d="M100.431 129.887H97.4033V130.995H100.431V129.887Z" fill="#1A2428"/>
<path d="M99.0245 130.973H93.7148V132.018H99.0245V130.973Z" fill="#393F42"/>
<path d="M102.092 130.973H98.666V132.018H102.092V130.973Z" fill="#1A2428"/>
<path d="M92.5968 108.553H41.6152V114.71H92.5968V108.553Z" fill="#EAEAEA"/>
<path d="M92.5968 112.786H41.6152V114.709H92.5968V112.786Z" fill="#CECECE"/>
<path d="M99.7836 108.553H92.5967V114.71H99.7836V108.553Z" fill="#CECECE"/>
<path d="M99.7836 112.786H92.5967V114.709H99.7836V112.786Z" fill="#B5B5B5"/>
<g opacity="0.2">
<path opacity="0.2" d="M99.4314 114.644H46.7256V116.377H99.4314V114.644Z" fill="black"/>
</g>
<path d="M80.3565 120.245H56.7168V131.956H80.3565V120.245Z" fill="#34C3D6"/>
<path d="M61.6453 120.245H61.2666V131.895H61.6453V120.245Z" fill="#19A8C6"/>
<path d="M68.4724 120.245H68.0938V131.895H68.4724V120.245Z" fill="#19A8C6"/>
<path d="M75.6776 120.245H75.2988V131.895H75.6776V120.245Z" fill="#19A8C6"/>
<path d="M81.359 118.228H54.3213V120.556H81.359V118.228Z" fill="#EAEAEA"/>
<path d="M83.2128 118.228H79.1963V120.556H83.2128V118.228Z" fill="#CECECE"/>
<g opacity="0.2">
<path opacity="0.2" d="M80.3947 120.594H56.7168V121.834H80.3947V120.594Z" fill="black"/>
</g>
<g opacity="0.1">
<path opacity="0.1" d="M56.7168 131.954L80.3927 120.593L70.2347 120.476L56.7168 126.138V131.954Z" fill="white"/>
</g>
<g opacity="0.2">
<path opacity="0.2" d="M62.1992 131.956L80.354 124.395V128.504L72.8608 131.995L62.1992 131.956Z" fill="white"/>
</g>
<path d="M171.176 103.102H168.556V121.573H171.176V103.102Z" fill="#1C8BA5"/>
<path d="M173.634 103.102H171.175V121.575H173.634V103.102Z" fill="#157382"/>
<path d="M198.621 104.577H172.326V119.843H198.621V104.577Z" fill="#EAEAEA"/>
<path d="M174.492 104.605H174.182V119.806H174.492V104.605Z" fill="#C8CBCC"/>
<path d="M176.967 104.605H176.657V119.806H176.967V104.605Z" fill="#C8CBCC"/>
<path d="M179.752 104.605H179.441V119.806H179.752V104.605Z" fill="#C8CBCC"/>
<path d="M182.535 104.605H182.225V119.806H182.535V104.605Z" fill="#C8CBCC"/>
<path d="M185.01 104.605H184.7V119.806H185.01V104.605Z" fill="#C8CBCC"/>
<path d="M187.795 104.605H187.484V119.806H187.795V104.605Z" fill="#C8CBCC"/>
<path d="M197.188 118.508H172.326V119.807H197.188V118.508Z" fill="#C8CBCC"/>
<path d="M197.188 104.605H172.326V105.355H197.188V104.605Z" fill="#C8CBCC"/>
<g opacity="0.1">
<path opacity="0.1" d="M197.227 104.605L197.189 119.806H186.245L197.227 104.605Z" fill="black"/>
</g>
<path d="M275.877 131.445H-6.12305V134.074H275.877V131.445Z" fill="#546470"/>
<path d="M173.358 143.225L173.106 143.319L174.968 148.338L175.22 148.244L173.358 143.225Z" fill="#4D4D4D"/>
<path d="M174.347 148.359L174.476 148.312L172.621 143.307L172.496 143.356L174.347 148.359Z" fill="#646464"/>
<path d="M175.725 145.684L172.833 150.164L173.303 150.47L176.195 145.989L175.725 145.684Z" fill="#4D4D4D"/>
<path d="M175.312 145.003L172.44 149.487L172.679 149.641L175.551 145.157L175.312 145.003Z" fill="#646464"/>
<path d="M173.034 149.12C172.794 149.28 172.607 149.508 172.497 149.775C172.386 150.041 172.357 150.335 172.412 150.619C172.468 150.902 172.606 151.163 172.809 151.367C173.013 151.572 173.272 151.711 173.554 151.768C173.836 151.824 174.129 151.796 174.395 151.685C174.661 151.575 174.888 151.388 175.048 151.148C175.208 150.908 175.293 150.625 175.293 150.336C175.293 150.047 175.208 149.765 175.048 149.525C174.834 149.203 174.502 148.98 174.124 148.904C173.747 148.829 173.355 148.906 173.034 149.12Z" fill="#646464"/>
<path d="M172.667 149.12C172.427 149.28 172.24 149.508 172.129 149.775C172.019 150.041 171.989 150.335 172.045 150.619C172.101 150.902 172.239 151.163 172.442 151.367C172.645 151.572 172.904 151.711 173.187 151.768C173.469 151.824 173.761 151.796 174.027 151.685C174.293 151.575 174.521 151.388 174.681 151.148C174.841 150.908 174.926 150.625 174.926 150.336C174.926 150.047 174.841 149.765 174.681 149.525C174.467 149.203 174.135 148.98 173.757 148.904C173.379 148.829 172.987 148.906 172.667 149.12Z" fill="#393838"/>
<path d="M173.132 149.806C173.021 149.88 172.935 149.985 172.884 150.109C172.833 150.232 172.819 150.368 172.845 150.499C172.87 150.63 172.934 150.75 173.028 150.845C173.122 150.94 173.242 151.004 173.372 151.03C173.503 151.057 173.638 151.044 173.761 150.993C173.884 150.942 173.989 150.855 174.064 150.745C174.138 150.634 174.177 150.503 174.178 150.369C174.178 150.236 174.139 150.105 174.065 149.994C173.966 149.845 173.812 149.741 173.637 149.706C173.462 149.671 173.281 149.707 173.132 149.806Z" fill="#D1D1D1"/>
<path d="M173.35 150.132C173.303 150.163 173.267 150.208 173.245 150.259C173.224 150.311 173.218 150.368 173.229 150.423C173.24 150.478 173.266 150.528 173.306 150.568C173.345 150.608 173.395 150.635 173.45 150.646C173.505 150.657 173.562 150.651 173.613 150.63C173.665 150.609 173.709 150.573 173.74 150.526C173.771 150.479 173.788 150.425 173.788 150.369C173.788 150.313 173.771 150.258 173.74 150.211C173.699 150.149 173.634 150.106 173.561 150.092C173.488 150.077 173.412 150.091 173.35 150.132Z" fill="#393838"/>
<path d="M166.923 143.235L166.672 143.329L168.526 148.333L168.777 148.239L166.923 143.235Z" fill="#4D4D4D"/>
<path d="M166.919 143.251L166.793 143.298L168.643 148.303L168.77 148.256L166.919 143.251Z" fill="#646464"/>
<path d="M170.025 145.63L167.135 150.111L167.605 150.417L170.495 145.935L170.025 145.63Z" fill="#4D4D4D"/>
<path d="M170.249 145.757L167.363 150.242L167.602 150.396L170.487 145.912L170.249 145.757Z" fill="#646464"/>
<path d="M167.333 149.056C167.093 149.216 166.905 149.444 166.794 149.712C166.683 149.979 166.653 150.273 166.709 150.557C166.765 150.841 166.903 151.102 167.106 151.307C167.31 151.512 167.57 151.652 167.852 151.709C168.135 151.766 168.428 151.737 168.695 151.626C168.961 151.515 169.189 151.328 169.349 151.087C169.509 150.846 169.595 150.563 169.594 150.274C169.594 149.984 169.508 149.701 169.348 149.461C169.133 149.14 168.801 148.917 168.424 148.841C168.046 148.766 167.654 148.843 167.333 149.056Z" fill="#646464"/>
<path d="M166.966 149.056C166.726 149.216 166.538 149.444 166.427 149.712C166.316 149.979 166.286 150.273 166.342 150.557C166.397 150.841 166.536 151.102 166.739 151.307C166.943 151.512 167.202 151.652 167.485 151.709C167.768 151.766 168.061 151.737 168.328 151.626C168.594 151.515 168.822 151.328 168.982 151.087C169.142 150.846 169.227 150.563 169.227 150.274C169.227 149.984 169.141 149.701 168.98 149.461C168.766 149.14 168.434 148.917 168.056 148.841C167.679 148.766 167.287 148.843 166.966 149.056Z" fill="#393838"/>
<path d="M167.432 149.746C167.321 149.82 167.234 149.925 167.183 150.048C167.132 150.171 167.118 150.307 167.143 150.438C167.169 150.569 167.232 150.69 167.326 150.784C167.42 150.879 167.539 150.944 167.67 150.971C167.8 150.997 167.935 150.984 168.059 150.934C168.182 150.883 168.287 150.797 168.361 150.686C168.436 150.575 168.476 150.445 168.476 150.311C168.477 150.178 168.438 150.047 168.365 149.936C168.316 149.862 168.253 149.798 168.18 149.749C168.106 149.699 168.024 149.664 167.937 149.647C167.851 149.629 167.762 149.629 167.675 149.646C167.588 149.663 167.506 149.697 167.432 149.746Z" fill="#D1D1D1"/>
<path d="M167.648 150.067C167.601 150.098 167.564 150.143 167.542 150.195C167.52 150.247 167.514 150.304 167.525 150.359C167.535 150.415 167.562 150.466 167.601 150.506C167.641 150.546 167.691 150.574 167.746 150.585C167.802 150.596 167.859 150.591 167.911 150.57C167.963 150.548 168.007 150.512 168.039 150.465C168.07 150.419 168.087 150.363 168.088 150.307C168.088 150.251 168.071 150.195 168.04 150.148C167.999 150.085 167.934 150.041 167.861 150.026C167.787 150.011 167.71 150.026 167.648 150.067Z" fill="#393838"/>
<path d="M173.288 134.246L157.063 116.881L152.329 117.818L157.522 139.017L173.288 134.246Z" fill="#E8FCFB"/>
<path d="M169.396 135.017L154.905 117.309L150.832 118.113L155.886 139.339L169.396 135.017Z" fill="#D1F2F2"/>
<path d="M152.329 117.818L158.786 133.478L154.722 134.071L150.832 118.114L152.329 117.818Z" fill="#AFE8E8"/>
<path d="M157.51 133.485C157.51 133.485 143.436 135.245 143.144 142.28C143.144 142.28 145.635 147.206 157.804 147.323L157.51 133.485Z" fill="#E8FCFB"/>
<path d="M226.188 133.485H157.201V147.323H226.188V133.485Z" fill="#D1F2F2"/>
<path d="M216.631 133.485H157.201V147.323H216.631V133.485Z" fill="#E8FCFB"/>
<path d="M143.178 142.338H157.163V147.3C146.32 147.044 143.492 142.872 143.178 142.338Z" fill="#A6A6A6"/>
<path d="M225.973 147.323H157.163V147.3V142.338H225.973V147.317V147.323Z" fill="#A6A6A6"/>
<path d="M143.178 142.251H157.213V147.307C146.33 147.038 143.494 142.801 143.178 142.251Z" fill="#AFE8E8"/>
<path d="M226.263 147.321H157.213V147.298V142.251H226.263V147.315V147.321Z" fill="#AFE8E8"/>
<path d="M224.784 138.1C226.893 140.068 227.042 142.123 227.048 142.21L225.675 142.301C225.675 142.232 225.526 140.628 223.761 139.033C222.079 137.514 218.566 135.741 211.355 135.912L148.711 136.005C149.909 135.451 151.146 134.987 152.413 134.618L211.339 134.529C217.559 134.378 222.083 135.591 224.784 138.1Z" fill="#19A8C6"/>
<path d="M189.904 139.702C189.904 139.837 190.192 139.948 190.544 139.948H192.284C192.637 139.948 192.923 139.837 192.923 139.702V137.208C192.923 137.073 192.637 136.961 192.284 136.961H190.536C190.184 136.961 189.896 137.073 189.896 137.208L189.904 139.702Z" fill="#36B8BF"/>
<path opacity="0.2" d="M190.574 139.973C190.222 139.973 189.936 139.862 189.936 139.725V137.816L190.943 136.993H192.32C192.673 136.993 192.959 137.104 192.959 137.239V138.107L190.673 139.973H190.574Z" fill="white"/>
<path d="M183.182 139.702C183.182 139.837 183.47 139.948 183.822 139.948H185.571C185.923 139.948 186.209 139.837 186.209 139.702V137.208C186.209 137.073 185.923 136.961 185.571 136.961H183.824C183.472 136.961 183.184 137.073 183.184 137.208L183.182 139.702Z" fill="#36B8BF"/>
<path d="M183.603 139.702C183.603 139.837 183.848 139.948 184.152 139.948H185.659C185.963 139.948 186.209 139.837 186.209 139.702V137.208C186.209 137.073 185.963 136.961 185.659 136.961H184.152C183.848 136.961 183.603 137.073 183.603 137.208V139.702Z" fill="#46D2E0"/>
<path opacity="0.2" d="M183.852 139.973C183.5 139.973 183.214 139.862 183.214 139.725V137.816L184.221 136.993H185.599C185.951 136.993 186.237 137.104 186.237 137.239V138.107L183.949 139.973H183.852Z" fill="white"/>
<path d="M177.133 139.702C177.133 139.837 177.419 139.948 177.773 139.948H179.52C179.874 139.948 180.16 139.837 180.16 139.702V137.208C180.16 137.073 179.874 136.961 179.52 136.961H177.781C177.427 136.961 177.141 137.073 177.141 137.208L177.133 139.702Z" fill="#36B8BF"/>
<path d="M177.554 139.702C177.554 139.837 177.799 139.948 178.104 139.948H179.608C179.912 139.948 180.16 139.837 180.16 139.702V137.208C180.16 137.073 179.912 136.961 179.608 136.961H178.104C177.799 136.961 177.554 137.073 177.554 137.208V139.702Z" fill="#46D2E0"/>
<path opacity="0.2" d="M177.804 139.973C177.451 139.973 177.165 139.862 177.165 139.725V137.816L178.172 136.993H179.55C179.902 136.993 180.188 137.104 180.188 137.239V138.107L177.898 139.973H177.804Z" fill="white"/>
<path d="M170.747 139.702C170.747 139.837 171.033 139.948 171.386 139.948H173.134C173.486 139.948 173.773 139.837 173.773 139.702V137.208C173.773 137.073 173.486 136.961 173.134 136.961H171.386C171.033 136.961 170.747 137.073 170.747 137.208V139.702Z" fill="#36B8BF"/>
<path d="M171.166 139.702C171.166 139.837 171.414 139.948 171.718 139.948H173.223C173.527 139.948 173.772 139.837 173.772 139.702V137.208C173.772 137.073 173.527 136.961 173.223 136.961H171.718C171.414 136.961 171.166 137.073 171.166 137.208V139.702Z" fill="#46D2E0"/>
<path opacity="0.2" d="M171.418 139.973C171.063 139.973 170.777 139.862 170.777 139.725V137.816L171.784 136.993H173.162C173.515 136.993 173.801 137.104 173.801 137.239V138.107L171.511 139.973H171.418Z" fill="white"/>
<path d="M164.698 139.702C164.698 139.837 164.984 139.948 165.337 139.948H167.085C167.438 139.948 167.724 139.837 167.724 139.702V137.208C167.724 137.073 167.438 136.961 167.085 136.961H165.337C164.984 136.961 164.698 137.073 164.698 137.208V139.702Z" fill="#36B8BF"/>
<path d="M165.117 139.702C165.117 139.837 165.365 139.948 165.669 139.948H167.174C167.478 139.948 167.724 139.837 167.724 139.702V137.208C167.724 137.073 167.478 136.961 167.174 136.961H165.669C165.365 136.961 165.117 137.073 165.117 137.208V139.702Z" fill="#46D2E0"/>
<path opacity="0.2" d="M165.369 139.973C165.015 139.973 164.729 139.862 164.729 139.725V137.816L165.736 136.993H167.111C167.466 136.993 167.752 137.104 167.752 137.239V138.107L165.462 139.973H165.369Z" fill="white"/>
<path d="M222.883 139.092C221.193 137.574 217.646 135.798 210.395 135.97L148.481 136.077C149.247 135.782 149.722 135.57 150.55 135.268L210.008 135.21C216.27 135.064 220.825 136.263 223.542 138.781C225.01 140.14 225.534 141.541 225.719 142.306L224.809 142.366C224.805 142.291 224.662 140.688 222.883 139.092Z" fill="#128B9B"/>
<path d="M143.178 142.251H155.533V147.307C145.955 147.038 143.456 142.801 143.178 142.251Z" fill="#D1F2F2"/>
<path d="M216.326 147.321H155.533V147.298V142.251H216.326V147.315V147.321Z" fill="#D1F2F2"/>
<g opacity="0.1">
<path opacity="0.1" d="M199.916 141.625L207.982 142.525L200.335 145.672L149.068 145.245L143.295 142.904L199.916 141.625Z" fill="#141414"/>
</g>
<path d="M127.198 140.619L149.944 144.238L202.085 144.803L208.408 142.352L200.794 140.619H127.198Z" fill="#19A8C6"/>
<path d="M208.408 142.352L127.198 140.619L149.944 144.238L202.085 144.803L208.408 142.352Z" fill="#128B9B"/>
<path d="M204.507 143.844L150.997 142.182L138.738 142.429L149.944 144.237L201.81 144.767L204.507 143.844Z" fill="#0C7077"/>
<path d="M105.891 155.109C105.891 155.764 104.874 156.298 103.617 156.298H15.8464C14.5895 156.298 13.5723 155.764 13.5723 155.109V152.733C13.5723 152.076 14.5794 151.544 15.8464 151.544H103.617C104.874 151.544 105.891 152.076 105.891 152.733V155.109Z" fill="#6A777F"/>
<path d="M129.684 142.223L112.869 145.841L74.3255 146.407L69.6523 143.956L75.2803 142.223H129.684Z" fill="#19A8C6"/>
<path d="M69.6523 143.956L129.684 142.223L112.869 145.841L74.3255 146.407L69.6523 143.956Z" fill="#128B9B"/>
<path d="M120.399 144.116L93.7578 144.608L96.0219 146.084L113.24 145.96L120.399 144.116Z" fill="#0C7077"/>
<path d="M79.9455 146.386L79.6943 146.479L81.5453 151.484L81.7965 151.391L79.9455 146.386Z" fill="#4D4D4D"/>
<path d="M79.9527 146.377L79.8262 146.424L81.6763 151.429L81.8028 151.382L79.9527 146.377Z" fill="#646464"/>
<path d="M83.055 148.753L80.1611 153.231L80.6309 153.537L83.5248 149.058L83.055 148.753Z" fill="#4D4D4D"/>
<path d="M80.3945 153.373L80.6322 153.527L83.5227 149.046L83.285 148.892L80.3945 153.373Z" fill="#646464"/>
<path d="M80.3669 152.187C80.1272 152.347 79.9402 152.575 79.8296 152.841C79.7189 153.108 79.6896 153.402 79.7452 153.685C79.8009 153.969 79.9391 154.229 80.1423 154.434C80.3456 154.638 80.6047 154.778 80.8869 154.834C81.1691 154.891 81.4617 154.862 81.7276 154.752C81.9936 154.642 82.221 154.455 82.381 154.214C82.5409 153.974 82.6264 153.692 82.6264 153.403C82.6264 153.114 82.5411 152.832 82.3812 152.591C82.2754 152.432 82.1393 152.295 81.9809 152.189C81.8224 152.082 81.6445 152.008 81.4575 151.97C81.2704 151.933 81.0778 151.932 80.8907 151.97C80.7036 152.007 80.5256 152.081 80.3669 152.187Z" fill="#646464"/>
<path d="M79.9977 152.187C79.7581 152.347 79.5711 152.574 79.4604 152.841C79.3498 153.108 79.3204 153.401 79.3761 153.685C79.4318 153.968 79.57 154.229 79.7732 154.433C79.9764 154.638 80.2355 154.777 80.5177 154.834C80.7999 154.891 81.0925 154.862 81.3585 154.752C81.6245 154.641 81.8518 154.454 82.0118 154.214C82.1718 153.974 82.2572 153.692 82.2573 153.403C82.2573 153.114 82.1719 152.831 82.012 152.591C81.798 152.27 81.4658 152.047 81.0882 151.971C80.7106 151.895 80.3184 151.973 79.9977 152.187Z" fill="#393838"/>
<path d="M80.4632 152.871C80.3523 152.945 80.2657 153.05 80.2143 153.173C80.1629 153.296 80.1491 153.432 80.1745 153.563C80.2 153.694 80.2636 153.815 80.3573 153.909C80.451 154.004 80.5706 154.069 80.701 154.096C80.8314 154.122 80.9667 154.109 81.0898 154.059C81.213 154.008 81.3184 153.922 81.3927 153.811C81.4671 153.7 81.5071 153.57 81.5076 153.436C81.5082 153.303 81.4693 153.172 81.3958 153.061C81.347 152.987 81.2842 152.923 81.2109 152.874C81.1376 152.824 81.0553 152.789 80.9687 152.772C80.8821 152.754 80.7929 152.754 80.7062 152.771C80.6194 152.788 80.5369 152.822 80.4632 152.871Z" fill="#D1D1D1"/>
<path d="M80.6782 153.198C80.6321 153.229 80.5961 153.273 80.5749 153.325C80.5537 153.377 80.5483 153.434 80.5592 153.488C80.5701 153.543 80.597 153.594 80.6363 153.633C80.6757 153.673 80.7258 153.699 80.7804 153.71C80.835 153.721 80.8916 153.716 80.9431 153.695C80.9945 153.673 81.0386 153.637 81.0697 153.591C81.1007 153.545 81.1174 153.49 81.1177 153.434C81.1179 153.378 81.1017 153.323 81.071 153.277C81.0507 153.245 81.0243 153.218 80.9934 153.197C80.9625 153.176 80.9278 153.162 80.8912 153.154C80.8546 153.147 80.8169 153.147 80.7803 153.155C80.7438 153.162 80.7091 153.177 80.6782 153.198Z" fill="#393838"/>
<path d="M39.302 146.038L39.0508 146.132L40.9 151.137L41.1512 151.044L39.302 146.038Z" fill="#4D4D4D"/>
<path d="M41.025 151.089L41.1539 151.042L39.3007 146.037L39.1738 146.086L41.025 151.089Z" fill="#646464"/>
<path d="M42.3984 148.415L39.5068 152.895L39.9768 153.201L42.8683 148.72L42.3984 148.415Z" fill="#4D4D4D"/>
<path d="M42.6369 148.551L39.7422 153.029L39.9804 153.185L42.8751 148.706L42.6369 148.551Z" fill="#646464"/>
<path d="M39.7145 151.85C39.4749 152.01 39.2879 152.238 39.1772 152.505C39.0666 152.772 39.0372 153.065 39.0929 153.349C39.1486 153.632 39.2868 153.893 39.49 154.097C39.6932 154.302 39.9523 154.441 40.2345 154.498C40.5167 154.555 40.8093 154.526 41.0753 154.416C41.3413 154.305 41.5686 154.118 41.7286 153.878C41.8886 153.638 41.974 153.355 41.974 153.066C41.9741 152.778 41.8887 152.495 41.7288 152.255C41.623 152.096 41.487 151.959 41.3285 151.852C41.17 151.746 40.9922 151.671 40.8051 151.634C40.6181 151.596 40.4255 151.596 40.2384 151.633C40.0512 151.67 39.8732 151.744 39.7145 151.85Z" fill="#646464"/>
<path d="M39.3454 151.851C39.1057 152.011 38.9187 152.238 38.8081 152.505C38.6974 152.772 38.6681 153.065 38.7238 153.349C38.7794 153.632 38.9176 153.893 39.1209 154.098C39.3241 154.302 39.5832 154.442 39.8654 154.498C40.1476 154.555 40.4402 154.526 40.7062 154.416C40.9721 154.305 41.1995 154.118 41.3595 153.878C41.5195 153.638 41.6049 153.356 41.6049 153.067C41.605 152.778 41.5196 152.495 41.3597 152.255C41.1457 151.934 40.8134 151.711 40.4358 151.635C40.0582 151.559 39.6661 151.637 39.3454 151.851Z" fill="#393838"/>
<path d="M39.8031 152.536C39.6923 152.61 39.6058 152.715 39.5547 152.839C39.5035 152.962 39.4899 153.098 39.5156 153.229C39.5413 153.36 39.6052 153.48 39.6991 153.575C39.793 153.67 39.9128 153.734 40.0432 153.76C40.1737 153.787 40.309 153.774 40.432 153.723C40.5551 153.672 40.6603 153.585 40.7344 153.474C40.8086 153.364 40.8483 153.233 40.8485 153.099C40.8487 152.966 40.8095 152.835 40.7357 152.724C40.6369 152.575 40.4831 152.471 40.3082 152.436C40.1333 152.401 39.9516 152.437 39.8031 152.536Z" fill="#D1D1D1"/>
<path d="M40.0263 152.862C39.9799 152.893 39.9436 152.938 39.9221 152.989C39.9006 153.041 39.8949 153.098 39.9057 153.153C39.9164 153.208 39.9432 153.258 39.9826 153.298C40.0219 153.338 40.0721 153.365 40.1268 153.376C40.1815 153.387 40.2382 153.381 40.2898 153.36C40.3414 153.339 40.3855 153.302 40.4166 153.256C40.4477 153.209 40.4643 153.155 40.4644 153.099C40.4645 153.043 40.448 152.988 40.4171 152.941C40.3753 152.879 40.3109 152.836 40.2378 152.822C40.1647 152.807 40.0887 152.821 40.0263 152.862Z" fill="#393838"/>
<path d="M33.6017 145.975L33.3506 146.068L35.2051 151.072L35.4561 150.978L33.6017 145.975Z" fill="#4D4D4D"/>
<path d="M33.6002 145.977L33.4736 146.024L35.3238 151.029L35.4503 150.982L33.6002 145.977Z" fill="#646464"/>
<path d="M36.6957 148.353L33.8057 152.834L34.2757 153.14L37.1657 148.659L36.6957 148.353Z" fill="#4D4D4D"/>
<path d="M36.9312 148.483L34.0459 152.968L34.2845 153.122L37.1698 148.638L36.9312 148.483Z" fill="#646464"/>
<path d="M34.014 151.786C33.7736 151.946 33.586 152.174 33.4748 152.441C33.3637 152.709 33.334 153.003 33.3896 153.287C33.4452 153.571 33.5836 153.832 33.7871 154.037C33.9907 154.242 34.2503 154.382 34.533 154.439C34.8158 154.495 35.109 154.467 35.3754 154.356C35.6419 154.245 35.8696 154.058 36.0297 153.817C36.1899 153.576 36.2752 153.293 36.275 153.004C36.2747 152.714 36.1888 152.431 36.0283 152.191C35.8139 151.87 35.4817 151.647 35.1042 151.571C34.7268 151.496 34.3348 151.573 34.014 151.786Z" fill="#646464"/>
<path d="M33.6448 151.787C33.4045 151.947 33.2169 152.175 33.1057 152.442C32.9946 152.709 32.9649 153.003 33.0205 153.287C33.0761 153.571 33.2144 153.832 33.418 154.037C33.6215 154.242 33.8811 154.382 34.1639 154.439C34.4466 154.496 34.7398 154.467 35.0063 154.356C35.2727 154.246 35.5005 154.058 35.6606 153.817C35.8207 153.576 35.9061 153.293 35.9058 153.004C35.9056 152.714 35.8197 152.432 35.6591 152.191C35.4444 151.871 35.1122 151.648 34.7349 151.572C34.3576 151.497 33.9658 151.574 33.6448 151.787Z" fill="#393838"/>
<path d="M34.1107 152.471C33.9998 152.545 33.9131 152.65 33.8618 152.773C33.8104 152.897 33.7965 153.032 33.822 153.164C33.8475 153.295 33.9111 153.415 34.0048 153.51C34.0985 153.605 34.2181 153.67 34.3485 153.696C34.4789 153.723 34.6142 153.71 34.7373 153.659C34.8604 153.609 34.9658 153.523 35.0402 153.412C35.1146 153.301 35.1546 153.171 35.1551 153.037C35.1557 152.904 35.1167 152.773 35.0433 152.661C34.9945 152.587 34.9317 152.524 34.8584 152.474C34.7851 152.425 34.7028 152.39 34.6162 152.372C34.5296 152.355 34.4404 152.354 34.3536 152.371C34.2669 152.388 34.1843 152.422 34.1107 152.471Z" fill="#D1D1D1"/>
<path d="M34.3263 152.798C34.2793 152.829 34.2425 152.873 34.2207 152.925C34.1988 152.977 34.1927 153.034 34.2033 153.09C34.2139 153.145 34.2407 153.196 34.2801 153.236C34.3196 153.276 34.3701 153.304 34.4252 153.315C34.4802 153.327 34.5374 153.321 34.5895 153.3C34.6415 153.279 34.6861 153.242 34.7176 153.196C34.749 153.149 34.766 153.094 34.7662 153.037C34.7665 152.981 34.7501 152.926 34.7191 152.879C34.6987 152.847 34.6723 152.82 34.6415 152.799C34.6107 152.778 34.576 152.763 34.5395 152.756C34.503 152.748 34.4653 152.748 34.4287 152.755C34.3921 152.762 34.3573 152.777 34.3263 152.798Z" fill="#393838"/>
<path d="M94.5716 146.511C94.5716 146.511 86.2808 146.861 85.6382 149.207C85.6382 149.207 85.4046 152.372 94.5716 152.372V146.511Z" fill="#19A8C6"/>
<path d="M92.9355 149.45C92.9355 151.067 93.6687 152.38 94.5711 152.38C95.4735 152.38 96.2047 151.067 96.2047 149.45C96.2047 147.832 95.4735 146.511 94.5711 146.511C93.6687 146.511 92.9355 147.832 92.9355 149.45Z" fill="#0F777F"/>
<path d="M93.1152 149.419C93.1152 150.859 93.7679 152.027 94.5715 152.027C95.3752 152.027 96.0258 150.859 96.0258 149.419C96.0258 147.979 95.3732 146.81 94.5715 146.81C93.7699 146.81 93.1152 147.979 93.1152 149.419Z" fill="#B5E7EA"/>
<path d="M93.7256 149.421C93.7256 150.499 94.1466 151.373 94.6663 151.373C95.186 151.373 95.607 150.499 95.607 149.421C95.607 148.343 95.186 147.472 94.6663 147.472C94.1466 147.472 93.7256 148.345 93.7256 149.421Z" fill="#8CD0D3"/>
<path opacity="0.1" d="M93.2436 147.779C93.2436 147.779 87.8756 148.321 85.6377 149.214C85.6377 149.214 85.9096 147.022 94.3716 146.519C94.3716 146.511 93.5559 146.713 93.2436 147.779Z" fill="black"/>
<path opacity="0.1" d="M93.0541 150.579C93.0541 150.579 87.5612 151.374 85.6375 149.214C85.6375 149.214 85.3757 152.308 94.4017 152.371C94.4017 152.375 93.3986 152.12 93.0541 150.579Z" fill="black"/>
<path opacity="0.3" d="M91.1669 146.883C91.1669 146.883 89.1748 148.736 90.8909 152.173C90.8909 152.173 85.7424 151.619 85.6377 149.213C85.6377 149.215 85.8029 147.591 91.1669 146.883Z" fill="#E8FCFB"/>
<path d="M39.9655 136.976L23.7424 119.611L19.0068 120.548L24.2017 141.747L39.9655 136.976Z" fill="#E8FCFB"/>
<path d="M36.0744 137.747L21.5836 120.039L17.5107 120.843L22.5646 142.069L36.0744 137.747Z" fill="#D1F2F2"/>
<path d="M19.0074 120.548L25.4652 136.208L21.4023 136.801L17.5107 120.844L19.0074 120.548Z" fill="#AFE8E8"/>
<path d="M92.867 136.215C92.867 136.215 97.7818 136.031 101.661 137.151C101.661 137.151 109.584 141.254 109.769 145.009C109.769 145.009 106.836 149.936 92.5205 150.053L92.867 136.215Z" fill="#D1F2F2"/>
<path d="M24.1881 136.215C24.1881 136.215 10.1143 137.975 9.82227 145.01C9.82227 145.01 12.3139 149.936 24.4822 150.053L24.1881 136.215Z" fill="#E8FCFB"/>
<path d="M92.8671 136.215H23.8799V150.053H92.8671V136.215Z" fill="#D1F2F2"/>
<path d="M83.3107 136.213C83.3107 136.213 87.6858 135.671 90.8885 137.149C93.2714 138.25 97.7129 141.253 97.872 145.008C97.872 145.008 95.3441 149.934 83.0146 150.051L83.3107 136.213Z" fill="#E8FCFB"/>
<path d="M83.3094 136.215H23.8799V150.053H83.3094V136.215Z" fill="#E8FCFB"/>
<path d="M92.6514 150.047V145.068H109.471C109.094 145.616 105.724 149.865 92.6514 150.047Z" fill="#A6A6A6"/>
<path d="M9.85645 145.068H23.8436V150.03C12.9987 149.774 10.1707 145.608 9.85645 145.068Z" fill="#A6A6A6"/>
<path d="M92.6517 150.053H23.8438V150.03V145.068H92.6517V150.047V150.053Z" fill="#A6A6A6"/>
<path d="M92.9414 150.046V144.99H109.821C109.44 145.538 106.06 149.862 92.9414 150.046Z" fill="#AFE8E8"/>
<path d="M9.85645 144.981H23.89V150.037C13.0128 149.768 10.1727 145.531 9.85645 144.981Z" fill="#AFE8E8"/>
<path d="M92.9413 150.051H23.8916V150.028V144.981H92.9413V150.045V150.051Z" fill="#AFE8E8"/>
<path d="M102.076 137.31L91.6562 137.512C91.6562 137.512 95.5881 139.569 97.1613 142.661L108.691 142.487C108.691 142.487 106.056 139.086 102.076 137.31Z" fill="#46D2E0"/>
<g opacity="0.3">
<path opacity="0.3" d="M103.929 139.277L103.484 143.499L100.1 143.57L100.784 138.29L102.062 138.274L103.929 139.277Z" fill="white"/>
</g>
<g opacity="0.3">
<path opacity="0.3" d="M99.4554 137.392L98.7262 142.607L97.1611 142.656L98.0132 137.392H99.4554Z" fill="white"/>
</g>
<path d="M91.4632 140.831C93.5721 142.798 93.7212 144.853 93.7272 144.94L92.3535 145.031C92.3535 144.962 92.2065 143.358 90.4399 141.763C88.76 140.244 85.2451 138.471 78.0339 138.643L15.3896 138.736C16.5873 138.181 17.8249 137.717 19.0919 137.348L78.0178 137.259C84.2379 137.114 88.762 138.313 91.4632 140.831Z" fill="#19A8C6"/>
<path d="M76.7471 142.433C76.7471 142.569 77.0351 142.68 77.3876 142.68H79.136C79.4885 142.68 79.7745 142.569 79.7745 142.433V139.946C79.7745 139.81 79.4885 139.699 79.136 139.699H77.3876C77.0351 139.699 76.7471 139.81 76.7471 139.946V142.433Z" fill="#36B8BF"/>
<path d="M77.168 142.433C77.168 142.569 77.4137 142.68 77.7179 142.68H79.2246C79.5287 142.68 79.7745 142.569 79.7745 142.433V139.946C79.7745 139.81 79.5287 139.699 79.2246 139.699H77.7179C77.4137 139.699 77.168 139.81 77.168 139.946V142.433Z" fill="#46D2E0"/>
<path opacity="0.2" d="M77.4178 142.703C77.0653 142.703 76.7793 142.592 76.7793 142.455V140.546L77.7864 139.723H79.1642C79.5167 139.723 79.8027 139.834 79.8027 139.969V140.837L77.5145 142.703H77.4178Z" fill="white"/>
<path d="M69.8574 142.433C69.8574 142.569 70.1435 142.68 70.4959 142.68H72.2443C72.5968 142.68 72.8829 142.569 72.8829 142.433V139.946C72.8829 139.81 72.5968 139.699 72.2443 139.699H70.4959C70.1435 139.699 69.8574 139.81 69.8574 139.946V142.433Z" fill="#36B8BF"/>
<path d="M70.2785 142.433C70.2785 142.569 70.5243 142.68 70.8284 142.68H72.3331C72.6373 142.68 72.883 142.569 72.883 142.433V139.946C72.883 139.81 72.6373 139.699 72.3331 139.699H70.8224C70.5182 139.699 70.2725 139.81 70.2725 139.946L70.2785 142.433Z" fill="#46D2E0"/>
<path opacity="0.2" d="M70.5282 142.703C70.1757 142.703 69.8877 142.592 69.8877 142.455V140.546L70.8948 139.723H72.2726C72.6251 139.723 72.9111 139.834 72.9111 139.969V140.837L70.6209 142.703H70.5282Z" fill="white"/>
<path d="M62.9668 142.433C62.9668 142.569 63.2528 142.68 63.6053 142.68H65.3537C65.7062 142.68 65.9922 142.569 65.9922 142.433V139.946C65.9922 139.81 65.7062 139.699 65.3537 139.699H63.6053C63.2528 139.699 62.9668 139.81 62.9668 139.946V142.433Z" fill="#36B8BF"/>
<path d="M63.3877 142.433C63.3877 142.569 63.6355 142.68 63.9396 142.68H65.4443C65.7484 142.68 65.9942 142.569 65.9942 142.433V139.946C65.9942 139.81 65.7484 139.699 65.4443 139.699H63.9396C63.6355 139.699 63.3877 139.81 63.3877 139.946V142.433Z" fill="#46D2E0"/>
<path opacity="0.2" d="M63.6396 142.703C63.2851 142.703 62.999 142.592 62.999 142.455V140.546L64.0062 139.723H65.3839C65.7364 139.723 66.0245 139.834 66.0245 139.969V140.837L63.7342 142.703H63.6396Z" fill="white"/>
<path d="M56.582 142.433C56.582 142.569 56.8701 142.68 57.2226 142.68H58.971C59.3235 142.68 59.6095 142.569 59.6095 142.433V139.946C59.6095 139.81 59.3235 139.699 58.971 139.699H57.2226C56.8701 139.699 56.582 139.81 56.582 139.946V142.433Z" fill="#36B8BF"/>
<path d="M57.0029 142.433C57.0029 142.569 57.2487 142.68 57.5528 142.68H59.0595C59.3637 142.68 59.6094 142.569 59.6094 142.433V139.946C59.6094 139.81 59.3637 139.699 59.0595 139.699H57.5528C57.2487 139.699 57.0029 139.81 57.0029 139.946V142.433Z" fill="#46D2E0"/>
<path opacity="0.2" d="M57.2528 142.703C56.9003 142.703 56.6143 142.592 56.6143 142.455V140.546L57.6214 139.723H58.9972C59.3497 139.723 59.6377 139.834 59.6377 139.969V140.837L57.3475 142.703H57.2528Z" fill="white"/>
<path d="M49.8604 142.433C49.8604 142.569 50.1484 142.68 50.5009 142.68H52.2493C52.6018 142.68 52.8878 142.569 52.8878 142.433V139.946C52.8878 139.81 52.6018 139.699 52.2493 139.699H50.5009C50.1484 139.699 49.8604 139.81 49.8604 139.946V142.433Z" fill="#36B8BF"/>
<path d="M50.2773 142.433C50.2773 142.569 50.5231 142.68 50.8272 142.68H52.3339C52.6381 142.68 52.8838 142.569 52.8838 142.433V139.946C52.8838 139.81 52.6381 139.699 52.3339 139.699H50.8272C50.5231 139.699 50.2773 139.81 50.2773 139.946V142.433Z" fill="#46D2E0"/>
<path opacity="0.2" d="M50.5311 142.703C50.1786 142.703 49.8926 142.592 49.8926 142.455V140.546L50.8997 139.723H52.2775C52.632 139.723 52.918 139.834 52.918 139.969V140.837L50.6278 142.703H50.5311Z" fill="white"/>
<path d="M43.8115 142.433C43.8115 142.569 44.0976 142.68 44.4521 142.68H46.1985C46.553 142.68 46.839 142.569 46.839 142.433V139.946C46.839 139.81 46.553 139.699 46.1985 139.699H44.4521C44.0976 139.699 43.8115 139.81 43.8115 139.946V142.433Z" fill="#36B8BF"/>
<path d="M44.2344 142.433C44.2344 142.569 44.4801 142.68 44.7843 142.68H46.2889C46.5951 142.68 46.8409 142.569 46.8409 142.433V139.946C46.8409 139.81 46.5951 139.699 46.2889 139.699H44.7843C44.4801 139.699 44.2344 139.81 44.2344 139.946V142.433Z" fill="#46D2E0"/>
<path opacity="0.2" d="M44.4823 142.703C44.1298 142.703 43.8438 142.592 43.8438 142.455V140.546L44.8509 139.723H46.2287C46.5812 139.723 46.8672 139.834 46.8672 139.969V140.837L44.579 142.703H44.4823Z" fill="white"/>
<path d="M37.4258 142.433C37.4258 142.569 37.7118 142.68 38.0663 142.68H39.8127C40.1672 142.68 40.4512 142.569 40.4512 142.433V139.946C40.4512 139.81 40.1672 139.699 39.8127 139.699H38.0663C37.7118 139.699 37.4258 139.81 37.4258 139.946V142.433Z" fill="#36B8BF"/>
<path d="M37.8468 142.433C37.8468 142.569 38.0925 142.68 38.3967 142.68H39.9014C40.2055 142.68 40.4513 142.569 40.4513 142.433V139.946C40.4513 139.81 40.2055 139.699 39.9014 139.699H38.3927C38.0885 139.699 37.8428 139.81 37.8428 139.946L37.8468 142.433Z" fill="#46D2E0"/>
<path opacity="0.2" d="M38.0965 142.703C37.742 142.703 37.458 142.592 37.458 142.455V140.546L38.4651 139.723H39.8429C40.1954 139.723 40.4814 139.834 40.4814 139.969V140.837L38.1912 142.703H38.0965Z" fill="white"/>
<path d="M31.3771 142.433C31.3771 142.569 31.6631 142.68 32.0156 142.68H33.76C34.1125 142.68 34.4005 142.569 34.4005 142.433V139.946C34.4005 139.81 34.1125 139.699 33.76 139.699H32.0116C31.6591 139.699 31.373 139.81 31.373 139.946L31.3771 142.433Z" fill="#36B8BF"/>
<path d="M31.7959 142.433C31.7959 142.569 32.0437 142.68 32.3478 142.68H33.8525C34.1566 142.68 34.4044 142.569 34.4044 142.433V139.946C34.4044 139.81 34.1566 139.699 33.8525 139.699H32.3498C32.0457 139.699 31.7979 139.81 31.7979 139.946L31.7959 142.433Z" fill="#46D2E0"/>
<path opacity="0.2" d="M32.0478 142.703C31.6933 142.703 31.4072 142.592 31.4072 142.455V140.546L32.4144 139.723H33.7921C34.1446 139.723 34.4307 139.834 34.4307 139.969V140.837L32.1485 142.703H32.0478Z" fill="white"/>
<path d="M89.556 141.822C87.864 140.304 84.3188 138.528 77.0674 138.7L15.1543 138.807C15.9217 138.512 16.3971 138.3 17.223 137.998L76.6807 137.94C82.9431 137.794 87.4974 138.993 90.2146 141.511C91.6831 142.87 92.2068 144.271 92.3941 145.036L91.4816 145.096C91.4836 145.021 91.3406 143.418 89.556 141.822Z" fill="#128B9B"/>
<path d="M83.0049 150.046V144.99H97.8643C97.5279 145.538 94.5548 149.862 83.0049 150.046Z" fill="#D1F2F2"/>
<path d="M9.85645 144.981H22.2121V150.037C12.6321 149.768 10.1364 145.531 9.85645 144.981Z" fill="#D1F2F2"/>
<path d="M83.0051 150.051H22.2119V150.028V144.981H83.0051V150.045V150.051Z" fill="#D1F2F2"/>
<g opacity="0.1">
<path opacity="0.1" d="M66.5962 144.355L74.6614 145.255L67.0132 148.402L15.7456 147.975L9.97266 145.634L66.5962 144.355Z" fill="#141414"/>
</g>
<path d="M100.029 137.13C100.029 137.13 104.533 139.684 106.741 143.197H106.312C106.312 143.197 103.369 139.26 99.4473 137.13H100.029Z" fill="#E8FCFB"/>
<path d="M95.5177 137.283C95.5177 137.283 100.024 139.837 102.229 143.349L101.826 143.382C101.826 143.382 98.7929 139.442 94.8711 137.315L95.5177 137.283Z" fill="#E8FCFB"/>
<path d="M-6.12305 143.349L16.6223 146.968L68.7661 147.533L75.0869 145.082L67.4729 143.349H-6.12305Z" fill="#19A8C6"/>
<path d="M75.0869 145.082L-6.12305 143.349L16.6223 146.968L68.7661 147.533L75.0869 145.082Z" fill="#128B9B"/>
<path d="M71.1854 146.574L17.6759 144.912L5.41699 145.159L16.6225 146.967L68.4883 147.497L71.1854 146.574Z" fill="#0C7077"/>
<path d="M70.053 147.072C70.053 147.072 61.7642 147.424 61.1216 149.769C61.1216 149.769 60.888 152.934 70.053 152.934V147.072Z" fill="#19A8C6"/>
<path d="M68.418 150.004C68.418 151.622 69.1512 152.934 70.0536 152.934C70.956 152.934 71.6872 151.622 71.6872 150.004C71.6872 148.386 70.956 147.072 70.0536 147.072C69.1512 147.072 68.418 148.386 68.418 150.004Z" fill="#0F777F"/>
<path d="M68.6074 149.974C68.6074 151.416 69.258 152.583 70.0617 152.583C70.8654 152.583 71.5181 151.416 71.5181 149.974C71.5181 148.532 70.8654 147.365 70.0617 147.365C69.258 147.365 68.6074 148.534 68.6074 149.974Z" fill="#B5E7EA"/>
<path d="M69.2109 149.975C69.2109 151.053 69.6319 151.926 70.1516 151.926C70.6713 151.926 71.0923 151.053 71.0923 149.975C71.0923 148.897 70.6713 148.023 70.1516 148.023C69.6319 148.023 69.2109 148.897 69.2109 149.975Z" fill="#8CD0D3"/>
<path opacity="0.1" d="M68.726 148.332C68.726 148.332 63.3579 148.874 61.1221 149.767C61.1221 149.767 61.392 147.575 69.854 147.072C69.854 147.074 69.0402 147.264 68.726 148.332Z" fill="black"/>
<path opacity="0.1" d="M68.5365 151.133C68.5365 151.133 63.0455 151.929 61.1219 149.77C61.1219 149.77 60.858 152.864 69.8861 152.926C69.8861 152.926 68.883 152.675 68.5365 151.133Z" fill="black"/>
<path opacity="0.3" d="M66.6493 147.439C66.6493 147.439 64.6571 149.285 66.3733 152.731C66.3733 152.731 61.2248 152.177 61.1221 149.771C61.1221 149.771 61.2852 148.147 66.6493 147.439Z" fill="#E8FCFB"/>
<path d="M54.4503 172.313H0.413086V174.194H54.4503V172.313Z" fill="#EDEDEF"/>
<path d="M67.2872 172.313H54.4502V174.194H67.2872V172.313Z" fill="#CECECE"/>
<path d="M67.2873 174.197H0.413086V175.174H67.2873V174.197Z" fill="#6A777F"/>
<path d="M173.334 172.617H160.497V174.497H173.334V172.617Z" fill="#CECECE"/>
<path d="M173.333 174.5H106.459V175.477H173.333V174.5Z" fill="#6A777F"/>
</g>
</g>
<g filter="url(#filter0_d)">
<path d="M170 38.9342C170 45.6439 164.561 51.0833 157.851 51.0833C151.141 51.0833 145.702 45.6439 145.702 38.9342C145.702 32.2245 151.141 26.7852 157.851 26.7852C164.561 26.7852 170 32.2245 170 38.9342Z" fill="white"/>
<path d="M149.645 41.7041C149.645 46.8833 145.446 51.0818 140.267 51.0818C135.088 51.0818 130.889 46.8833 130.889 41.7041C130.889 36.5249 135.088 32.3263 140.267 32.3263C145.446 32.3263 149.645 36.5249 149.645 41.7041Z" fill="white"/>
<path d="M135.097 45.1682C135.097 48.4344 132.45 51.0821 129.183 51.0821C125.917 51.0821 123.27 48.4344 123.27 45.1682C123.27 41.902 125.917 39.2542 129.183 39.2542C132.45 39.2542 135.097 41.902 135.097 45.1682Z" fill="white"/>
<path d="M128.971 42.1313L156.439 41.7041L158.81 51.0818H128.971V42.1313Z" fill="white"/>
</g>
<g filter="url(#filter1_d)">
<path d="M44.5541 38.9333C44.5541 43.0669 41.2032 46.4179 37.0696 46.4179C32.9359 46.4179 29.585 43.0669 29.585 38.9333C29.585 34.7997 32.9359 31.4487 37.0696 31.4487C41.2032 31.4487 44.5541 34.7997 44.5541 38.9333Z" fill="white"/>
<path d="M47.9066 46.4187C51.1362 46.4187 53.7543 43.8006 53.7543 40.571C53.7543 37.3414 51.1362 34.7233 47.9066 34.7233C44.677 34.7233 42.0589 37.3414 42.0589 40.571L37.0291 46.4187H47.9066Z" fill="white"/>
</g>
<path d="M152.869 159.982H151.413V161.485H152.869V159.982Z" fill="#B74D04"/>
<path d="M153.164 160.269C153.133 160.181 153.076 160.105 153 160.051C152.925 159.998 152.834 159.969 152.741 159.969C152.649 159.969 152.558 159.998 152.482 160.051C152.407 160.105 152.349 160.181 152.318 160.269L149.715 169.689H155.799L153.164 160.269Z" fill="#B74D04"/>
<path d="M156.812 169.694H148.686C148.248 169.694 147.885 169.945 147.885 170.251C147.885 170.558 148.248 170.809 148.686 170.809H156.829C157.271 170.809 157.631 170.558 157.631 170.251C157.631 169.945 157.25 169.694 156.812 169.694Z" fill="#B74D04"/>
<path d="M150.05 168.433H155.431L154.835 166.287H150.649L150.05 168.433Z" fill="#C6B3A7"/>
<path d="M153.756 162.4H151.728L151.129 164.546H154.352L153.756 162.4Z" fill="#C6B3A7"/>
<path d="M151.931 160.269C151.9 160.181 151.842 160.105 151.767 160.051C151.691 159.998 151.6 159.969 151.508 159.969C151.415 159.969 151.324 159.998 151.248 160.051C151.173 160.105 151.115 160.181 151.084 160.269L148.464 169.689H154.551L151.931 160.269Z" fill="#F66700"/>
<path d="M155.579 169.694H147.436C146.994 169.694 146.635 169.945 146.635 170.251C146.635 170.558 146.977 170.809 147.436 170.809H155.579C156.021 170.809 156.381 170.558 156.381 170.251C156.381 169.945 156.021 169.694 155.579 169.694Z" fill="#F66700"/>
<path d="M148.816 168.433H154.198L153.602 166.287H149.412L148.816 168.433Z" fill="#FFF6F0"/>
<path d="M152.52 162.4H150.492L149.896 164.546H153.119L152.52 162.4Z" fill="#FFF6F0"/>
<path d="M160.496 172.954H106.459V174.834H160.496V172.954Z" fill="#EDEDEF"/>
<defs>
<filter id="filter0_d" x="123.27" y="26.7852" width="51.7303" height="32.2981" filterUnits="userSpaceOnUse" color-interpolation-filters="sRGB">
<feFlood flood-opacity="0" result="BackgroundImageFix"/>
<feColorMatrix in="SourceAlpha" type="matrix" values="0 0 0 0 0 0 0 0 0 0 0 0 0 0 0 0 0 0 127 0"/>
<feOffset dx="4" dy="7"/>
<feGaussianBlur stdDeviation="0.5"/>
<feColorMatrix type="matrix" values="0 0 0 0 0 0 0 0 0 0 0 0 0 0 0 0 0 0 0.15 0"/>
<feBlend mode="normal" in2="BackgroundImageFix" result="effect1_dropShadow"/>
<feBlend mode="normal" in="SourceGraphic" in2="effect1_dropShadow" result="shape"/>
</filter>
<filter id="filter1_d" x="29.585" y="31.4487" width="29.1694" height="22.9699" filterUnits="userSpaceOnUse" color-interpolation-filters="sRGB">
<feFlood flood-opacity="0" result="BackgroundImageFix"/>
<feColorMatrix in="SourceAlpha" type="matrix" values="0 0 0 0 0 0 0 0 0 0 0 0 0 0 0 0 0 0 127 0"/>
<feOffset dx="4" dy="7"/>
<feGaussianBlur stdDeviation="0.5"/>
<feColorMatrix type="matrix" values="0 0 0 0 0 0 0 0 0 0 0 0 0 0 0 0 0 0 0.15 0"/>
<feBlend mode="normal" in2="BackgroundImageFix" result="effect1_dropShadow"/>
<feBlend mode="normal" in="SourceGraphic" in2="effect1_dropShadow" result="shape"/>
</filter>
<clipPath id="clip0">
<rect width="282" height="182" fill="white" transform="translate(-6.12305 9)"/>
</clipPath>
</defs>
</svg>
