<svg width="200" height="200" viewBox="0 0 200 200" fill="none" xmlns="http://www.w3.org/2000/svg">
<circle opacity="0.2" cx="100" cy="100" r="100" fill="#4AA29A"/>
<circle opacity="0.5" cx="100" cy="100" r="90" fill="#4AA29A"/>
<mask id="mask0" mask-type="alpha" maskUnits="userSpaceOnUse" x="10" y="10" width="180" height="180">
<circle cx="100" cy="100" r="90" fill="#4AA29A"/>
</mask>
<g mask="url(#mask0)">
<path d="M168.414 65.834H166.054V89.444H168.414V65.834Z" fill="#E49306"/>
<path d="M141.533 66.3242H139.173V100.064H141.533V66.3242Z" fill="#E49306"/>
<path d="M140.054 83.8242H139.054V100.074H140.054V83.8242Z" fill="#F5B400"/>
<path d="M101.333 112.094H86.1729V117.834H101.333V112.094Z" fill="#E2421E"/>
<g style="mix-blend-mode:multiply">
<path d="M101.333 112.094H90.5029V117.834H101.333V112.094Z" fill="#CCCCCC"/>
</g>
<path d="M96.6434 112.094H81.4834V117.834H96.6434V112.094Z" fill="#E2421E"/>
<g style="mix-blend-mode:multiply">
<path d="M96.6532 112.094H85.8232V117.834H96.6532V112.094Z" fill="#CCCCCC"/>
</g>
<path d="M101.313 112.094H86.1533V117.834H101.313V112.094Z" fill="#E2421E"/>
<g style="mix-blend-mode:multiply">
<path d="M101.313 112.094H90.4834V117.834H101.313V112.094Z" fill="#CCCCCC"/>
</g>
<path d="M106.033 112.094H90.873V117.834H106.033V112.094Z" fill="#4AA29A"/>
<g style="mix-blend-mode:multiply">
<path d="M106.033 112.094H95.2031V117.834H106.033V112.094Z" fill="#CCCCCC"/>
</g>
<path d="M110.793 112.094H95.6328V117.834H110.793V112.094Z" fill="#3F5CA8"/>
<g style="mix-blend-mode:multiply">
<path d="M110.793 112.094H99.9629V117.834H110.793V112.094Z" fill="#CCCCCC"/>
</g>
<path d="M115.493 112.094H100.333V117.834H115.493V112.094Z" fill="#E2421E"/>
<g style="mix-blend-mode:multiply">
<path d="M115.493 112.094H104.663V117.834H115.493V112.094Z" fill="#CCCCCC"/>
</g>
<path d="M124.793 112.114H109.633V117.854H124.793V112.114Z" fill="#E2421E"/>
<g style="mix-blend-mode:multiply">
<path d="M124.793 112.114H113.963V117.854H124.793V112.114Z" fill="#CCCCCC"/>
</g>
<path d="M120.103 112.114H104.943V117.854H120.103V112.114Z" fill="#E2421E"/>
<g style="mix-blend-mode:multiply">
<path d="M120.103 112.114H109.273V117.854H120.103V112.114Z" fill="#CCCCCC"/>
</g>
<path d="M124.764 112.114H109.604V117.854H124.764V112.114Z" fill="#E2421E"/>
<g style="mix-blend-mode:multiply">
<path d="M124.773 112.114H113.943V117.854H124.773V112.114Z" fill="#CCCCCC"/>
</g>
<path d="M129.493 112.114H114.333V117.854H129.493V112.114Z" fill="#D75724"/>
<g style="mix-blend-mode:multiply">
<path d="M129.493 112.114H118.663V117.854H129.493V112.114Z" fill="#CCCCCC"/>
</g>
<path d="M134.254 112.114H119.094V117.854H134.254V112.114Z" fill="#3F5CA8"/>
<g style="mix-blend-mode:multiply">
<path d="M134.253 112.114H123.423V117.854H134.253V112.114Z" fill="#CCCCCC"/>
</g>
<path d="M138.953 112.114H123.793V117.854H138.953V112.114Z" fill="#E2421E"/>
<g style="mix-blend-mode:multiply">
<path d="M138.953 112.114H128.123V117.854H138.953V112.114Z" fill="#CCCCCC"/>
</g>
<path d="M148.313 112.114H133.153V117.854H148.313V112.114Z" fill="#E2421E"/>
<g style="mix-blend-mode:multiply">
<path d="M148.313 112.114H137.483V117.854H148.313V112.114Z" fill="#CCCCCC"/>
</g>
<path d="M143.634 112.114H128.474V117.854H143.634V112.114Z" fill="#E2421E"/>
<g style="mix-blend-mode:multiply">
<path d="M143.634 112.114H132.804V117.854H143.634V112.114Z" fill="#CCCCCC"/>
</g>
<path d="M148.293 112.114H133.133V117.854H148.293V112.114Z" fill="#E2421E"/>
<g style="mix-blend-mode:multiply">
<path d="M148.293 112.114H137.463V117.854H148.293V112.114Z" fill="#CCCCCC"/>
</g>
<path d="M153.014 112.114H137.854V117.854H153.014V112.114Z" fill="#4AA29A"/>
<g style="mix-blend-mode:multiply">
<path d="M153.014 112.114H142.184V117.854H153.014V112.114Z" fill="#CCCCCC"/>
</g>
<path d="M157.773 112.114H142.613V117.854H157.773V112.114Z" fill="#3F5CA8"/>
<g style="mix-blend-mode:multiply">
<path d="M157.773 112.114H146.943V117.854H157.773V112.114Z" fill="#CCCCCC"/>
</g>
<path d="M162.473 112.114H147.313V117.854H162.473V112.114Z" fill="#E2421E"/>
<g style="mix-blend-mode:multiply">
<path d="M162.474 112.114H151.644V117.854H162.474V112.114Z" fill="#CCCCCC"/>
</g>
<path d="M171.903 112.114H156.743V117.854H171.903V112.114Z" fill="#E2421E"/>
<g style="mix-blend-mode:multiply">
<path d="M171.903 112.114H161.073V117.854H171.903V112.114Z" fill="#CCCCCC"/>
</g>
<path d="M167.223 112.114H152.063V117.854H167.223V112.114Z" fill="#E2421E"/>
<g style="mix-blend-mode:multiply">
<path d="M167.224 112.114H156.394V117.854H167.224V112.114Z" fill="#CCCCCC"/>
</g>
<path d="M171.884 112.114H156.724V117.854H171.884V112.114Z" fill="#E2421E"/>
<g style="mix-blend-mode:multiply">
<path d="M171.884 112.114H161.054V117.854H171.884V112.114Z" fill="#CCCCCC"/>
</g>
<path d="M176.603 112.114H161.443V117.854H176.603V112.114Z" fill="#4AA29A"/>
<g style="mix-blend-mode:multiply">
<path d="M176.603 112.114H165.773V117.854H176.603V112.114Z" fill="#CCCCCC"/>
</g>
<path d="M181.373 112.114H166.213V117.854H181.373V112.114Z" fill="#3F5CA8"/>
<g style="mix-blend-mode:multiply">
<path d="M181.373 112.114H170.543V117.854H181.373V112.114Z" fill="#CCCCCC"/>
</g>
<path d="M186.073 112.114H170.913V117.854H186.073V112.114Z" fill="#E2421E"/>
<g style="mix-blend-mode:multiply">
<path d="M186.073 112.114H175.243V117.854H186.073V112.114Z" fill="#CCCCCC"/>
</g>
<path d="M195.473 112.114H180.313V117.854H195.473V112.114Z" fill="#E2421E"/>
<g style="mix-blend-mode:multiply">
<path d="M195.474 112.114H184.644V117.854H195.474V112.114Z" fill="#CCCCCC"/>
</g>
<path d="M190.783 112.114H175.623V117.854H190.783V112.114Z" fill="#E2421E"/>
<g style="mix-blend-mode:multiply">
<path d="M190.793 112.114H179.963V117.854H190.793V112.114Z" fill="#CCCCCC"/>
</g>
<path d="M195.453 112.114H180.293V117.854H195.453V112.114Z" fill="#E2421E"/>
<g style="mix-blend-mode:multiply">
<path d="M195.453 112.114H184.623V117.854H195.453V112.114Z" fill="#CCCCCC"/>
</g>
<path d="M200.174 112.114H185.014V117.854H200.174V112.114Z" fill="#CCCCCC"/>
<g style="mix-blend-mode:multiply">
<path d="M200.174 112.114H189.344V117.854H200.174V112.114Z" fill="#CCCCCC"/>
</g>
<path d="M204.933 112.114H189.773V117.854H204.933V112.114Z" fill="#7BBCCC"/>
<path d="M96.6336 106.054H81.4736V111.794H96.6336V106.054Z" fill="#E2421E"/>
<g style="mix-blend-mode:multiply">
<path d="M96.6337 106.054H85.8037V111.794H96.6337V106.054Z" fill="#CCCCCC"/>
</g>
<path d="M91.953 106.054H76.793V111.794H91.953V106.054Z" fill="#E2421E"/>
<g style="mix-blend-mode:multiply">
<path d="M91.953 106.054H81.123V111.794H91.953V106.054Z" fill="#CCCCCC"/>
</g>
<path d="M96.6131 106.054H81.4531V111.794H96.6131V106.054Z" fill="#E2421E"/>
<g style="mix-blend-mode:multiply">
<path d="M96.6132 106.054H85.7832V111.794H96.6132V106.054Z" fill="#CCCCCC"/>
</g>
<path d="M101.333 106.054H86.1729V111.794H101.333V106.054Z" fill="#4AA29A"/>
<g style="mix-blend-mode:multiply">
<path d="M101.333 106.054H90.5029V111.794H101.333V106.054Z" fill="#CCCCCC"/>
</g>
<path d="M106.094 106.054H90.9336V111.794H106.094V106.054Z" fill="#3F5CA8"/>
<g style="mix-blend-mode:multiply">
<path d="M106.094 106.054H95.2637V111.794H106.094V106.054Z" fill="#CCCCCC"/>
</g>
<path d="M110.793 106.054H95.6328V111.794H110.793V106.054Z" fill="#E2421E"/>
<g style="mix-blend-mode:multiply">
<path d="M110.793 106.054H99.9629V111.794H110.793V106.054Z" fill="#CCCCCC"/>
</g>
<path d="M120.094 106.064H104.934V111.804H120.094V106.064Z" fill="#E2421E"/>
<g style="mix-blend-mode:multiply">
<path d="M120.094 106.064H109.264V111.804H120.094V106.064Z" fill="#CCCCCC"/>
</g>
<path d="M115.403 106.064H100.243V111.804H115.403V106.064Z" fill="#E2421E"/>
<g style="mix-blend-mode:multiply">
<path d="M115.413 106.064H104.583V111.804H115.413V106.064Z" fill="#CCCCCC"/>
</g>
<path d="M120.073 106.064H104.913V111.804H120.073V106.064Z" fill="#E2421E"/>
<g style="mix-blend-mode:multiply">
<path d="M120.073 106.064H109.243V111.804H120.073V106.064Z" fill="#CCCCCC"/>
</g>
<path d="M124.793 106.064H109.633V111.804H124.793V106.064Z" fill="#223946"/>
<g style="mix-blend-mode:multiply">
<path d="M124.793 106.064H113.963V111.804H124.793V106.064Z" fill="#CCCCCC"/>
</g>
<path d="M129.554 106.064H114.394V111.804H129.554V106.064Z" fill="#7BBCCC"/>
<g style="mix-blend-mode:multiply">
<path d="M129.554 106.064H118.724V111.804H129.554V106.064Z" fill="#CCCCCC"/>
</g>
<path d="M134.254 106.064H119.094V111.804H134.254V106.064Z" fill="#E2421E"/>
<g style="mix-blend-mode:multiply">
<path d="M134.253 106.064H123.423V111.804H134.253V106.064Z" fill="#CCCCCC"/>
</g>
<path d="M143.613 106.064H128.453V111.804H143.613V106.064Z" fill="#E2421E"/>
<g style="mix-blend-mode:multiply">
<path d="M143.613 106.064H132.783V111.804H143.613V106.064Z" fill="#CCCCCC"/>
</g>
<path d="M138.933 106.064H123.773V111.804H138.933V106.064Z" fill="#E2421E"/>
<g style="mix-blend-mode:multiply">
<path d="M138.934 106.064H128.104V111.804H138.934V106.064Z" fill="#CCCCCC"/>
</g>
<path d="M143.594 106.064H128.434V111.804H143.594V106.064Z" fill="#E2421E"/>
<g style="mix-blend-mode:multiply">
<path d="M143.594 106.064H132.764V111.804H143.594V106.064Z" fill="#CCCCCC"/>
</g>
<path d="M148.313 106.064H133.153V111.804H148.313V106.064Z" fill="#223946"/>
<g style="mix-blend-mode:multiply">
<path d="M148.313 106.064H137.483V111.804H148.313V106.064Z" fill="#CCCCCC"/>
</g>
<path d="M153.073 106.064H137.913V111.804H153.073V106.064Z" fill="#CCCCCC"/>
<g style="mix-blend-mode:multiply">
<path d="M153.083 106.064H142.253V111.804H153.083V106.064Z" fill="#CCCCCC"/>
</g>
<path d="M157.773 106.064H142.613V111.804H157.773V106.064Z" fill="#E2421E"/>
<g style="mix-blend-mode:multiply">
<path d="M157.773 106.064H146.943V111.804H157.773V106.064Z" fill="#CCCCCC"/>
</g>
<path d="M167.214 106.064H152.054V111.804H167.214V106.064Z" fill="#E2421E"/>
<g style="mix-blend-mode:multiply">
<path d="M167.213 106.064H156.383V111.804H167.213V106.064Z" fill="#CCCCCC"/>
</g>
<path d="M162.523 106.064H147.363V111.804H162.523V106.064Z" fill="#E2421E"/>
<g style="mix-blend-mode:multiply">
<path d="M162.523 106.064H151.693V111.804H162.523V106.064Z" fill="#CCCCCC"/>
</g>
<path d="M167.183 106.064H152.023V111.804H167.183V106.064Z" fill="#E2421E"/>
<g style="mix-blend-mode:multiply">
<path d="M167.184 106.064H156.354V111.804H167.184V106.064Z" fill="#CCCCCC"/>
</g>
<path d="M171.903 106.064H156.743V111.804H171.903V106.064Z" fill="#223946"/>
<g style="mix-blend-mode:multiply">
<path d="M171.903 106.064H161.073V111.804H171.903V106.064Z" fill="#CCCCCC"/>
</g>
<path d="M176.674 106.064H161.514V111.804H176.674V106.064Z" fill="#223946"/>
<g style="mix-blend-mode:multiply">
<path d="M176.674 106.064H165.844V111.804H176.674V106.064Z" fill="#CCCCCC"/>
</g>
<path d="M181.373 106.064H166.213V111.804H181.373V106.064Z" fill="#E2421E"/>
<g style="mix-blend-mode:multiply">
<path d="M181.373 106.064H170.543V111.804H181.373V106.064Z" fill="#CCCCCC"/>
</g>
<path d="M190.773 106.064H175.613V111.804H190.773V106.064Z" fill="#E2421E"/>
<g style="mix-blend-mode:multiply">
<path d="M190.773 106.064H179.943V111.804H190.773V106.064Z" fill="#CCCCCC"/>
</g>
<path d="M186.094 106.064H170.934V111.804H186.094V106.064Z" fill="#CCCCCC"/>
<g style="mix-blend-mode:multiply">
<path d="M186.094 106.064H175.264V111.804H186.094V106.064Z" fill="#CCCCCC"/>
</g>
<path d="M195.473 106.064H180.313V111.804H195.473V106.064Z" fill="#223946"/>
<g style="mix-blend-mode:multiply">
<path d="M195.474 106.064H184.644V111.804H195.474V106.064Z" fill="#CCCCCC"/>
</g>
<path d="M200.233 106.064H185.073V111.804H200.233V106.064Z" fill="#223946"/>
<g style="mix-blend-mode:multiply">
<path d="M200.233 106.064H189.403V111.804H200.233V106.064Z" fill="#CCCCCC"/>
</g>
<path d="M204.933 106.064H189.773V111.804H204.933V106.064Z" fill="#E2421E"/>
<path d="M96.6336 99.9741H81.4736V105.714H96.6336V99.9741Z" fill="#E2421E"/>
<g style="mix-blend-mode:multiply">
<path d="M96.6337 99.9741H85.8037V105.714H96.6337V99.9741Z" fill="#CCCCCC"/>
</g>
<path d="M91.953 99.9741H76.793V105.714H91.953V99.9741Z" fill="#E6E6DC"/>
<g style="mix-blend-mode:multiply">
<path d="M91.953 99.9741H81.123V105.714H91.953V99.9741Z" fill="#CCCCCC"/>
</g>
<path d="M96.6131 99.9741H81.4531V105.714H96.6131V99.9741Z" fill="#E2421E"/>
<g style="mix-blend-mode:multiply">
<path d="M96.6132 99.9741H85.7832V105.714H96.6132V99.9741Z" fill="#CCCCCC"/>
</g>
<path d="M129.554 99.9941H114.394V105.734H129.554V99.9941Z" fill="#7BBCCC"/>
<g style="mix-blend-mode:multiply">
<path d="M129.554 99.9941H118.724V105.734H129.554V99.9941Z" fill="#CCCCCC"/>
</g>
<path d="M134.254 99.9941H119.094V105.734H134.254V99.9941Z" fill="#E2421E"/>
<g style="mix-blend-mode:multiply">
<path d="M134.253 99.9941H123.423V105.734H134.253V99.9941Z" fill="#CCCCCC"/>
</g>
<path d="M143.613 99.9941H128.453V105.734H143.613V99.9941Z" fill="#E2421E"/>
<g style="mix-blend-mode:multiply">
<path d="M143.613 99.9941H132.783V105.734H143.613V99.9941Z" fill="#CCCCCC"/>
</g>
<path d="M138.933 99.9941H123.773V105.734H138.933V99.9941Z" fill="#E2421E"/>
<g style="mix-blend-mode:multiply">
<path d="M138.934 99.9941H128.104V105.734H138.934V99.9941Z" fill="#CCCCCC"/>
</g>
<path d="M143.594 99.9941H128.434V105.734H143.594V99.9941Z" fill="#7BBCCC"/>
<g style="mix-blend-mode:multiply">
<path d="M143.594 99.9941H132.764V105.734H143.594V99.9941Z" fill="#CCCCCC"/>
</g>
<path d="M148.313 99.9941H133.153V105.734H148.313V99.9941Z" fill="#CCCCCC"/>
<g style="mix-blend-mode:multiply">
<path d="M148.313 99.9941H137.483V105.734H148.313V99.9941Z" fill="#CCCCCC"/>
</g>
<path d="M157.773 99.9941H142.613V105.734H157.773V99.9941Z" fill="#7BBCCC"/>
<g style="mix-blend-mode:multiply">
<path d="M157.773 99.9941H146.943V105.734H157.773V99.9941Z" fill="#CCCCCC"/>
</g>
<path d="M167.214 99.9941H152.054V105.734H167.214V99.9941Z" fill="#E2421E"/>
<g style="mix-blend-mode:multiply">
<path d="M167.213 99.9941H156.383V105.734H167.213V99.9941Z" fill="#CCCCCC"/>
</g>
<path d="M162.523 99.9941H147.363V105.734H162.523V99.9941Z" fill="#E2421E"/>
<g style="mix-blend-mode:multiply">
<path d="M162.523 99.9941H151.693V105.734H162.523V99.9941Z" fill="#CCCCCC"/>
</g>
<path d="M171.903 99.9941H156.743V105.734H171.903V99.9941Z" fill="#CCCCCC"/>
<g style="mix-blend-mode:multiply">
<path d="M171.903 99.9941H161.073V105.734H171.903V99.9941Z" fill="#CCCCCC"/>
</g>
<path d="M176.674 99.9941H161.514V105.734H176.674V99.9941Z" fill="#7BBCCC"/>
<g style="mix-blend-mode:multiply">
<path d="M176.674 99.9941H165.844V105.734H176.674V99.9941Z" fill="#CCCCCC"/>
</g>
<path d="M181.373 99.9941H166.213V105.734H181.373V99.9941Z" fill="#E2421E"/>
<g style="mix-blend-mode:multiply">
<path d="M181.373 99.9941H170.543V105.734H181.373V99.9941Z" fill="#CCCCCC"/>
</g>
<path d="M190.773 99.9941H175.613V105.734H190.773V99.9941Z" fill="#E2421E"/>
<g style="mix-blend-mode:multiply">
<path d="M190.773 99.9941H179.943V105.734H190.773V99.9941Z" fill="#CCCCCC"/>
</g>
<path d="M186.094 99.9941H170.934V105.734H186.094V99.9941Z" fill="#E2421E"/>
<g style="mix-blend-mode:multiply">
<path d="M186.094 99.9941H175.264V105.734H186.094V99.9941Z" fill="#CCCCCC"/>
</g>
<path d="M195.473 99.9941H180.313V105.734H195.473V99.9941Z" fill="#7BBCCC"/>
<g style="mix-blend-mode:multiply">
<path d="M195.474 99.9941H184.644V105.734H195.474V99.9941Z" fill="#CCCCCC"/>
</g>
<path d="M200.233 99.9941H185.073V105.734H200.233V99.9941Z" fill="#E2421E"/>
<g style="mix-blend-mode:multiply">
<path d="M200.233 99.9941H189.403V105.734H200.233V99.9941Z" fill="#CCCCCC"/>
</g>
<path d="M204.933 99.9941H189.773V105.734H204.933V99.9941Z" fill="#7BBCCC"/>
<path d="M96.6336 93.9741H81.4736V99.7141H96.6336V93.9741Z" fill="#E2421E"/>
<g style="mix-blend-mode:multiply">
<path d="M96.6337 93.9741H85.8037V99.7141H96.6337V93.9741Z" fill="#CCCCCC"/>
</g>
<path d="M91.953 93.9741H76.793V99.7141H91.953V93.9741Z" fill="#E6E6DC"/>
<g style="mix-blend-mode:multiply">
<path d="M91.953 93.9741H81.123V99.7141H91.953V93.9741Z" fill="#CCCCCC"/>
</g>
<path d="M96.6131 93.9741H81.4531V99.7141H96.6131V93.9741Z" fill="#E2421E"/>
<g style="mix-blend-mode:multiply">
<path d="M96.6132 93.9741H85.7832V99.7141H96.6132V93.9741Z" fill="#CCCCCC"/>
</g>
<path d="M134.254 93.9941H119.094V99.7341H134.254V93.9941Z" fill="#E2421E"/>
<g style="mix-blend-mode:multiply">
<path d="M134.253 93.9941H123.423V99.7341H134.253V93.9941Z" fill="#CCCCCC"/>
</g>
<path d="M138.933 93.9941H123.773V99.7341H138.933V93.9941Z" fill="#223946"/>
<g style="mix-blend-mode:multiply">
<path d="M138.934 93.9941H128.104V99.7341H138.934V93.9941Z" fill="#CCCCCC"/>
</g>
<path d="M167.214 93.9941H152.054V99.7341H167.214V93.9941Z" fill="#E2421E"/>
<g style="mix-blend-mode:multiply">
<path d="M167.213 93.9941H156.383V99.7341H167.213V93.9941Z" fill="#CCCCCC"/>
</g>
<path d="M162.523 93.9941H147.363V99.7341H162.523V93.9941Z" fill="#7BBCCC"/>
<g style="mix-blend-mode:multiply">
<path d="M162.523 93.9941H151.693V99.7341H162.523V93.9941Z" fill="#CCCCCC"/>
</g>
<path d="M176.603 87.8843H161.443V93.6243H176.603V87.8843Z" fill="#CCCCCC"/>
<g style="mix-blend-mode:multiply">
<path d="M176.603 87.8843H165.773V93.6243H176.603V87.8843Z" fill="#CCCCCC"/>
</g>
<path d="M176.674 93.9941H161.514V99.7341H176.674V93.9941Z" fill="#223946"/>
<g style="mix-blend-mode:multiply">
<path d="M176.674 93.9941H165.844V99.7341H176.674V93.9941Z" fill="#CCCCCC"/>
</g>
<path d="M181.373 93.9941H166.213V99.7341H181.373V93.9941Z" fill="#E2421E"/>
<g style="mix-blend-mode:multiply">
<path d="M181.373 93.9941H170.543V99.7341H181.373V93.9941Z" fill="#CCCCCC"/>
</g>
<path d="M200.233 93.9941H185.073V99.7341H200.233V93.9941Z" fill="#223946"/>
<g style="mix-blend-mode:multiply">
<path d="M200.233 93.9941H189.403V99.7341H200.233V93.9941Z" fill="#CCCCCC"/>
</g>
<path d="M91.9735 87.8843H76.8135V93.6243H91.9735V87.8843Z" fill="#E2421E"/>
<g style="mix-blend-mode:multiply">
<path d="M91.9736 87.8843H81.1436V93.6243H91.9736V87.8843Z" fill="#CCCCCC"/>
</g>
<path d="M91.9735 81.8442H76.8135V87.5842H91.9735V81.8442Z" fill="#E2421E"/>
<g style="mix-blend-mode:multiply">
<path d="M91.9736 81.8442H81.1436V87.5842H91.9736V81.8442Z" fill="#CCCCCC"/>
</g>
<path d="M182.303 67.5742H153.173V69.3242H182.303V67.5742Z" fill="#E49306"/>
<g style="mix-blend-mode:multiply">
<path d="M166.053 67.5742H153.173V69.3242H166.053V67.5742Z" fill="#E6E6E6"/>
</g>
<path d="M155.184 54.3242H154.304V67.3242H155.184V54.3242Z" fill="#E49306"/>
<path d="M155.226 53.9193L154.208 55.021L167.039 66.8774L168.057 65.7757L155.226 53.9193Z" fill="#E49306"/>
<path d="M154.202 53.8992L141.373 65.7578L142.391 66.8593L155.22 55.0006L154.202 53.8992Z" fill="#E49306"/>
<path d="M168.434 80.5742H150.804V83.8242H168.434V80.5742Z" fill="#F5B400"/>
<path d="M168.423 65.4443H150.923V67.5643H168.423V65.4443Z" fill="#F5B400"/>
<path d="M126.153 65.4443H123.793V108.934H126.153V65.4443Z" fill="#F5B400"/>
<path d="M153.173 65.4443H150.813V108.934H153.173V65.4443Z" fill="#F5B400"/>
<path d="M153.173 65.4443H123.953V67.6943H153.173V65.4443Z" fill="#F5B400"/>
<path d="M140.184 41.8242H137.054V49.5742H140.184V41.8242Z" fill="#F5B400"/>
<path d="M138.753 43.0718L138.596 43.3271L154.594 53.2004L154.752 52.9451L138.753 43.0718Z" fill="#E49306"/>
<g style="mix-blend-mode:multiply">
<path d="M140.173 44.1941L138.513 42.9541L138.213 43.3541L140.173 44.8141V44.1941Z" fill="#E6E6E6"/>
</g>
<path d="M152.451 66.1269L151.639 67.0098L167.391 81.5099L168.204 80.627L152.451 66.1269Z" fill="#F5B400"/>
<path d="M139.013 46.5742H138.133V66.9442H139.013V46.5742Z" fill="#F5B400"/>
<path d="M138.508 42.9987L110.009 67.125L110.332 67.5066L138.831 43.3803L138.508 42.9987Z" fill="#E49306"/>
<path d="M139.04 47.8844L137.825 48.7642L150.951 66.8906L152.166 66.0108L139.04 47.8844Z" fill="#F5B400"/>
<path d="M108.784 69.4841L107.014 67.7141L109.784 65.9141L110.554 67.7141L108.784 69.4841Z" fill="#F5B400"/>
<path d="M137.721 48.6213L123.974 66.1162L125.153 67.043L138.9 49.5481L137.721 48.6213Z" fill="#F5B400"/>
<path d="M155.673 51.4443H153.923V56.0643H155.673V51.4443Z" fill="#E49306"/>
<path d="M150.804 69.4443V67.6943H126.554L126.514 67.6543H124.754L124.794 67.6943H102.554V69.4443H126.674L140.144 82.0043L140.964 81.1343L128.434 69.4443H150.804Z" fill="#E49306"/>
<path d="M105.554 67.6943H102.554V69.4443H105.554V67.6943Z" fill="#F5B400"/>
<path d="M109.791 65.9158L108.023 67.6836L109.791 69.4514L111.559 67.6836L109.791 65.9158Z" fill="#E49306"/>
<g style="mix-blend-mode:multiply">
<path d="M136.423 67.6943L139.053 69.4443H150.803V67.6943H136.423Z" fill="#E6E6E6"/>
</g>
<path d="M167.564 87.8742H168.444V83.8742V65.5742H151.804V66.8242L151.644 66.9942L151.804 67.1342V108.934H153.174V83.8242H167.554L167.564 87.8742ZM167.564 67.5742V80.0242L154.024 67.5742H167.564ZM153.184 81.0742V68.4242L166.924 81.0742H153.184Z" fill="#E49306"/>
<path d="M140.054 80.1943L139.054 79.3243V69.4443H140.054V80.1943Z" fill="#F5B400"/>
<g style="mix-blend-mode:multiply">
<path d="M182.293 67.5742H168.423V69.3242H182.293V67.5742Z" fill="#F2F2F2"/>
</g>
<path d="M182.243 67.6344H168.363V65.7544H182.243V67.6344ZM168.493 67.5044H182.103V65.8844H168.493V67.5044Z" fill="#D75724"/>
<path d="M179.644 65.8242H179.514V67.4942H179.644V65.8242Z" fill="#D75724"/>
<path d="M176.673 65.9043H176.543V67.5743H176.673V65.9043Z" fill="#D75724"/>
<path d="M173.474 65.9043H173.344V67.5743H173.474V65.9043Z" fill="#D75724"/>
<path d="M170.793 65.9043H170.663V67.5743H170.793V65.9043Z" fill="#D75724"/>
<path d="M141.424 80.5743H126.174V69.4443H125.304V109.194H126.174V83.8143H141.424V80.5743Z" fill="#E49306"/>
<path d="M136.764 67.9044H112.844V65.9844H136.764V67.9044ZM113.014 67.7344H136.594V66.1544H113.014V67.7344Z" fill="#D75724"/>
<path d="M132.274 66.0742H132.104V67.7442H132.274V66.0742Z" fill="#D75724"/>
<path d="M127.133 66.1543H126.963V67.8243H127.133V66.1543Z" fill="#D75724"/>
<path d="M121.613 66.1543H121.443V67.8243H121.613V66.1543Z" fill="#D75724"/>
<path d="M116.993 66.1543H116.823V67.8243H116.993V66.1543Z" fill="#D75724"/>
<path d="M140.054 94.0645H139.054V100.064H140.054V94.0645Z" fill="#E49306"/>
<path d="M124.673 70.1943H116.173V74.4443H124.673V70.1943Z" fill="#D75724"/>
<g style="mix-blend-mode:multiply">
<path d="M124.673 70.1943H116.173V74.4443H124.673V70.1943Z" fill="#7BBCCC"/>
</g>
<path d="M122.053 74.4443H116.173V70.1943H121.673L122.053 72.4443V74.4443Z" fill="#D75724"/>
<path d="M121.213 72.8743L116.213 73.3743L115.423 70.1943H120.923L121.213 72.8743Z" fill="#D75724"/>
<path d="M121.674 72.4442H116.304L115.804 70.3242H121.304L121.674 72.4442Z" fill="#7BBCCC"/>
<g style="mix-blend-mode:screen">
<path d="M115.804 70.3242L116.304 72.4442H116.804V70.3242H115.804Z" fill="#7BBCCC"/>
</g>
<path d="M121.804 70.3242L122.174 72.4442H122.554V70.3242H121.804Z" fill="#7BBCCC"/>
<path d="M120.594 86.6943H105.434V92.4343H120.594V86.6943Z" fill="#E6E6E6"/>
<g style="mix-blend-mode:multiply">
<path d="M120.594 86.6943H109.764V92.4343H120.594V86.6943Z" fill="#CCCCCC"/>
</g>
<path d="M112.934 86.0742H108.054V86.6942H112.934V86.0742Z" fill="#223946"/>
<path d="M113.554 86.6943H111.054V87.3143H113.554V86.6943Z" fill="#223946"/>
<g style="mix-blend-mode:multiply">
<path d="M113.554 86.6943H111.054V87.3143H113.554V86.6943Z" fill="#CCCCCC"/>
</g>
<g style="mix-blend-mode:multiply">
<path d="M112.923 86.0742H111.923V86.6942H112.923V86.0742Z" fill="#CCCCCC"/>
</g>
<path d="M119.434 86.0742H114.554V86.6942H119.434V86.0742Z" fill="#223946"/>
<path d="M120.054 86.6943H117.554V87.3143H120.054V86.6943Z" fill="#223946"/>
<g style="mix-blend-mode:multiply">
<path d="M120.054 86.6943H117.554V87.3143H120.054V86.6943Z" fill="#CCCCCC"/>
</g>
<g style="mix-blend-mode:multiply">
<path d="M119.423 86.0742H118.423V86.6942H119.423V86.0742Z" fill="#CCCCCC"/>
</g>
<path d="M116.673 86.3242H112.923V86.6942H116.673V86.3242Z" fill="#223946"/>
<g style="mix-blend-mode:multiply">
<path d="M116.673 86.3242H112.923V86.6942H116.673V86.3242Z" fill="#CCCCCC"/>
</g>
<path d="M109.523 69.6943H109.323V86.1943H109.523V69.6943Z" fill="#223946"/>
<path d="M111.403 70.1943H111.203V86.0643H111.403V70.1943Z" fill="#223946"/>
<path d="M117.903 69.6943H117.703V86.0643H117.903V69.6943Z" fill="#223946"/>
<path d="M116.653 69.9443H116.453V86.0643H116.653V69.9443Z" fill="#223946"/>
<path d="M125.303 69.4443H106.923V70.1943H125.303V69.4443Z" fill="#223946"/>
<path d="M210.923 118.314H-54.4365V123.494H210.923V118.314Z" fill="#F2F2F2"/>
<path d="M19.9735 105.164H4.81348V110.904H19.9735V105.164Z" fill="#E2421E"/>
<g style="mix-blend-mode:multiply">
<path d="M19.9736 105.164H9.14355V110.904H19.9736V105.164Z" fill="#CCCCCC"/>
</g>
<path d="M24.6737 105.014H9.51367V110.754H24.6737V105.014Z" fill="#4AA29A"/>
<g style="mix-blend-mode:multiply">
<path d="M24.6738 105.014H13.8438V110.754H24.6738V105.014Z" fill="#CCCCCC"/>
</g>
<path d="M29.4432 105.014H14.2832V110.754H29.4432V105.014Z" fill="#E6E6E6"/>
<g style="mix-blend-mode:multiply">
<path d="M29.4433 105.014H18.6133V110.754H29.4433V105.014Z" fill="#CCCCCC"/>
</g>
<path d="M34.1336 105.014H18.9736V110.754H34.1336V105.014Z" fill="#E2421E"/>
<g style="mix-blend-mode:multiply">
<path d="M34.1435 105.014H23.3135V110.754H34.1435V105.014Z" fill="#CCCCCC"/>
</g>
<path d="M39.6229 105.034H24.4629V110.774H39.6229V105.034Z" fill="#7BBCCC"/>
<g style="mix-blend-mode:multiply">
<path d="M39.623 105.034H28.793V110.774H39.623V105.034Z" fill="#CCCCCC"/>
</g>
<path d="M19.9637 98.9941H4.80371V104.734H19.9637V98.9941Z" fill="#E2421E"/>
<g style="mix-blend-mode:multiply">
<path d="M19.9628 98.9941H9.13281V104.734H19.9628V98.9941Z" fill="#CCCCCC"/>
</g>
<path d="M24.6629 98.9941H9.50293V104.734H24.6629V98.9941Z" fill="#E6E6E6"/>
<g style="mix-blend-mode:multiply">
<path d="M24.663 98.9941H13.833V104.734H24.663V98.9941Z" fill="#CCCCCC"/>
</g>
<path d="M19.993 92.894H4.83301V98.634H19.993V92.894Z" fill="#E2421E"/>
<g style="mix-blend-mode:multiply">
<path d="M19.9931 92.894H9.16309V98.634H19.9931V92.894Z" fill="#CCCCCC"/>
</g>
<path d="M24.6932 92.894H9.5332V98.634H24.6932V92.894Z" fill="#7BBCCC"/>
<g style="mix-blend-mode:multiply">
<path d="M24.6933 92.894H13.8633V98.634H24.6933V92.894Z" fill="#CCCCCC"/>
</g>
<path d="M29.4237 98.9941H14.2637V104.734H29.4237V98.9941Z" fill="#7BBCCC"/>
<g style="mix-blend-mode:multiply">
<path d="M29.4238 98.9941H18.5938V104.734H29.4238V98.9941Z" fill="#CCCCCC"/>
</g>
<path d="M34.1229 98.9941H18.9629V104.734H34.1229V98.9941Z" fill="#E2421E"/>
<g style="mix-blend-mode:multiply">
<path d="M34.123 98.9941H23.293V104.734H34.123V98.9941Z" fill="#CCCCCC"/>
</g>
<path d="M7.76293 98.8242H-20.4671L-26.9971 101.614V112.284H14.2929V101.614L7.76293 98.8242ZM-19.5771 102.354H-20.5771V101.014H-19.5771V102.354ZM-11.2571 102.354H-12.2571V101.014H-11.2571V102.354ZM-2.92707 102.354H-3.92707V101.014H-2.92707V102.354ZM5.40293 102.354H4.40293V101.014H5.40293V102.354Z" fill="#D75724"/>
<g style="mix-blend-mode:multiply">
<path d="M13.3537 110.804H14.2937V101.614L7.76367 98.8242L13.3537 101.614V110.804Z" fill="#CCCCCC"/>
</g>
<path d="M100.973 113.704H83.5029V77.8342L94.0629 77.8242L100.973 113.704Z" fill="#333333"/>
<path d="M86.2235 77.834H80.6035V82.884H86.2235V77.834Z" fill="#808080"/>
<path d="M67.9533 69.624H67.6533V83.204H67.9533V69.624Z" fill="#E6E6DC"/>
<path d="M83.9137 81.3643H83.7637V83.7043H83.9137V81.3643Z" fill="white"/>
<path d="M81.2037 81.5142H81.0537V83.8542H81.2037V81.5142Z" fill="white"/>
<path d="M78.6334 81.3643H78.4834V83.7043H78.6334V81.3643Z" fill="white"/>
<path d="M76.1129 81.5142H75.9629V83.8542H76.1129V81.5142Z" fill="white"/>
<path d="M73.5934 81.3643H73.4434V83.7043H73.5934V81.3643Z" fill="white"/>
<path d="M71.0728 81.3643H70.9229V83.7043H71.0728V81.3643Z" fill="white"/>
<path d="M68.7633 81.3643H68.6133V83.7043H68.7633V81.3643Z" fill="white"/>
<path d="M66.0436 81.3643H65.8936V83.7043H66.0436V81.3643Z" fill="white"/>
<path d="M87.0629 83.2942H86.9129V81.4342H62.9029V83.2942H62.7529V81.2842H87.0629V83.2942Z" fill="white"/>
<path d="M90.7937 82.9642H87.0137V81.2842H90.4037L90.7937 82.9642ZM87.1637 82.8242H90.5937L90.2537 81.4542H87.1037L87.1637 82.8242Z" fill="#808080"/>
<path d="M95.2931 113.704H87.0831L87.1731 87.0643L85.9531 82.8843H91.5731L95.2931 113.704Z" fill="#B2B2B2"/>
<path d="M62.8331 104.444H59.6631V102.824H62.8331V104.444ZM59.8331 104.314H62.7531V102.964H59.8331V104.314Z" fill="#E6E6DC"/>
<path d="M60.9835 102.904H60.8535V104.354H60.9835V102.904Z" fill="#E6E6DC"/>
<path d="M61.9034 102.904H61.7734V104.354H61.9034V102.904Z" fill="#E6E6DC"/>
<path d="M62.7734 113.704H87.1734V87.0642L86.2234 83.2042L62.9334 83.0542L62.7734 83.7042L63.6934 87.0642H62.7734V113.704Z" fill="#F2F2F2"/>
<path d="M91.7133 104.464H87.1533V102.824H91.7133V104.464ZM87.3033 104.314H91.5633V102.994H87.3033V104.314Z" fill="#E6E6DC"/>
<path d="M89.023 102.914H88.873V104.364H89.023V102.914Z" fill="#E6E6DC"/>
<path d="M90.3531 102.914H90.2031V104.364H90.3531V102.914Z" fill="#E6E6DC"/>
<path d="M90.2833 104.314H59.6533V113.704H90.2833V104.314Z" fill="#F2F2F2"/>
<g style="mix-blend-mode:multiply">
<path d="M90.2934 113.704H59.7334L69.6234 108.214L90.2934 105.634V113.704Z" fill="#CCCCCC"/>
</g>
<path d="M90.6929 85.8242H59.2529V88.2942H90.6929V85.8242Z" fill="#F2F2F2"/>
<path d="M84.8828 89.0244H84.4229V89.8544H84.8828V89.0244Z" fill="#333333"/>
<path d="M80.9229 89.0244H80.4629V89.8544H80.9229V89.0244Z" fill="#333333"/>
<path d="M76.9532 89.0244H76.4932V89.8544H76.9532V89.0244Z" fill="#333333"/>
<path d="M72.9932 89.0244H72.5332V89.8544H72.9932V89.0244Z" fill="#333333"/>
<path d="M69.0235 89.0244H68.5635V89.8544H69.0235V89.0244Z" fill="#333333"/>
<path d="M65.0635 89.0244H64.6035V89.8544H65.0635V89.0244Z" fill="#333333"/>
<path d="M84.8428 94.0742H84.3828V94.9042H84.8428V94.0742Z" fill="#333333"/>
<path d="M80.8731 94.0742H80.4131V94.9042H80.8731V94.0742Z" fill="#333333"/>
<path d="M76.9131 94.0742H76.4531V94.9042H76.9131V94.0742Z" fill="#333333"/>
<path d="M72.9434 94.0742H72.4834V94.9042H72.9434V94.0742Z" fill="#333333"/>
<path d="M68.9834 94.0742H68.5234V94.9042H68.9834V94.0742Z" fill="#333333"/>
<path d="M65.0137 94.0742H64.5537V94.9042H65.0137V94.0742Z" fill="#333333"/>
<path d="M84.6934 99.2944H84.2334V100.124H84.6934V99.2944Z" fill="#333333"/>
<path d="M80.7334 99.2944H80.2734V100.124H80.7334V99.2944Z" fill="#333333"/>
<path d="M76.7637 99.2944H76.3037V100.124H76.7637V99.2944Z" fill="#333333"/>
<path d="M72.8037 99.2944H72.3438V100.124H72.8037V99.2944Z" fill="#333333"/>
<path d="M68.833 99.2944H68.373V100.124H68.833V99.2944Z" fill="#333333"/>
<path d="M64.8731 99.2944H64.4131V100.124H64.8731V99.2944Z" fill="#333333"/>
<path d="M84.6036 104.334H84.1436V105.164H84.6036V104.334Z" fill="#333333"/>
<path d="M80.6436 104.334H80.1836V105.164H80.6436V104.334Z" fill="#333333"/>
<path d="M76.6729 104.334H76.2129V105.164H76.6729V104.334Z" fill="#333333"/>
<path d="M72.7129 104.334H72.2529V105.164H72.7129V104.334Z" fill="#333333"/>
<path d="M68.7432 104.334H68.2832V105.164H68.7432V104.334Z" fill="#333333"/>
<path d="M64.7832 104.334H64.3232V105.164H64.7832V104.334Z" fill="#333333"/>
<path d="M84.6036 109.094H84.1436V109.924H84.6036V109.094Z" fill="#333333"/>
<path d="M80.6436 109.094H80.1836V109.924H80.6436V109.094Z" fill="#333333"/>
<path d="M76.6729 109.094H76.2129V109.924H76.6729V109.094Z" fill="#333333"/>
<path d="M72.7129 109.094H72.2529V109.924H72.7129V109.094Z" fill="#333333"/>
<path d="M68.7432 109.094H68.2832V109.924H68.7432V109.094Z" fill="#333333"/>
<path d="M64.7832 109.094H64.3232V109.924H64.7832V109.094Z" fill="#333333"/>
<path d="M84.1434 87.0641H86.4134L85.5034 83.7041H83.2334L84.1434 87.0641Z" fill="#7BBCCC"/>
<path d="M81.6229 87.0641H83.8929L82.9829 83.7041H80.7129L81.6229 87.0641Z" fill="#7BBCCC"/>
<path d="M79.1034 87.0641H81.3834L80.4634 83.7041H78.1934L79.1034 87.0641Z" fill="#7BBCCC"/>
<path d="M76.5928 87.0641H78.8628L77.9428 83.7041H75.6729L76.5928 87.0641Z" fill="#7BBCCC"/>
<path d="M74.0733 87.0641H76.3433L75.4333 83.7041H73.1533L74.0733 87.0641Z" fill="#7BBCCC"/>
<path d="M71.5528 87.0641H73.8228L72.9128 83.7041H70.6328L71.5528 87.0641Z" fill="#7BBCCC"/>
<path d="M69.033 87.0641H71.303L70.393 83.7041H68.123L69.033 87.0641Z" fill="#7BBCCC"/>
<path d="M66.5135 87.0641H68.7935L67.8735 83.7041H65.6035L66.5135 87.0641Z" fill="#7BBCCC"/>
<path d="M64.003 87.0641H66.273L65.353 83.7041H63.083L64.003 87.0641Z" fill="#7BBCCC"/>
<g style="mix-blend-mode:multiply">
<path d="M86.5934 84.7041L86.3434 83.7041H62.7734L63.0434 84.7041H86.5934Z" fill="#CCCCCC"/>
</g>
<path d="M87.0938 82.8843H61.8438V83.7043H87.0938V82.8843Z" fill="#D75724"/>
<path d="M92.1332 104.314H90.2832V113.704H92.1332V104.314Z" fill="#999999"/>
<path d="M94.4834 85.8242H90.6934V88.2942H94.4834V85.8242Z" fill="#B2B2B2"/>
<path d="M103.223 107.564H92.1328V113.704H103.223V107.564Z" fill="#B2B2B2"/>
<path d="M93.4229 103.744V104.614C93.4229 105.744 95.0528 106.614 96.0928 106.614H101.333C101.844 106.586 102.325 106.363 102.676 105.991C103.028 105.619 103.224 105.126 103.223 104.614V103.744H93.4229Z" fill="#E2421E"/>
<path d="M101.103 105.554V104.754C101.103 103.754 100.543 102.864 99.8533 102.864H95.8533C95.1733 102.864 94.6133 103.714 94.6133 104.754V105.554H101.103Z" fill="#F15723"/>
<path d="M94.043 103.744V104.614C94.0429 104.881 94.0962 105.145 94.1998 105.391C94.3035 105.637 94.4553 105.86 94.6463 106.046C94.8374 106.233 95.0638 106.379 95.3122 106.476C95.5607 106.574 95.8262 106.621 96.093 106.614H102.633C102.9 106.621 103.165 106.574 103.414 106.476C103.662 106.379 103.889 106.233 104.08 106.046C104.271 105.86 104.422 105.637 104.526 105.391C104.63 105.145 104.683 104.881 104.683 104.614V103.744H94.043Z" fill="#F15723"/>
<path d="M88.5933 110.974H87.1133V113.704H88.5933V110.974Z" fill="#E6E6E6"/>
<path d="M83.4536 110.954H81.9736V113.684H83.4536V110.954Z" fill="#E6E6E6"/>
<path d="M78.313 110.934H76.833V113.664H78.313V110.934Z" fill="#E6E6E6"/>
<path d="M73.1734 110.914H71.6934V113.644H73.1734V110.914Z" fill="#E6E6E6"/>
<path d="M68.0337 110.894H66.5537V113.624H68.0337V110.894Z" fill="#E6E6E6"/>
<path d="M62.8833 110.884H61.4033V113.614H62.8833V110.884Z" fill="#E6E6E6"/>
<path d="M57.7437 110.864H56.2637V113.594H57.7437V110.864Z" fill="#E6E6E6"/>
<path d="M52.603 110.844H51.123V113.574H52.603V110.844Z" fill="#E6E6E6"/>
<path d="M47.4634 110.824H45.9834V113.554H47.4634V110.824Z" fill="#E6E6E6"/>
<path d="M42.3237 110.804H40.8438V113.534H42.3237V110.804Z" fill="#E6E6E6"/>
<path d="M37.1831 110.794H35.7031V113.524H37.1831V110.794Z" fill="#E6E6E6"/>
<path d="M32.0435 110.774H30.5635V113.504H32.0435V110.774Z" fill="#E6E6E6"/>
<path d="M26.8931 110.754H25.4131V113.484H26.8931V110.754Z" fill="#E6E6E6"/>
<path d="M21.7534 110.734H20.2734V113.464H21.7534V110.734Z" fill="#E6E6E6"/>
<path d="M93.4234 111.994H18.1934V112.194H93.4234V111.994Z" fill="#F2F2F2"/>
<path d="M93.4234 112.754H18.1934V112.954H93.4234V112.754Z" fill="#F2F2F2"/>
<path d="M112.613 107.564H101.963V110.074H112.613V107.564Z" fill="#B2B2B2"/>
<path d="M108.313 109.884H107.293V113.464H108.313V109.884Z" fill="#B2B2B2"/>
<path d="M102.334 110.974H93.1836V116.794H102.334V110.974Z" fill="#223946"/>
<g style="mix-blend-mode:multiply">
<path d="M102.334 110.974H93.1836V116.794H102.334V110.974Z" fill="#CCCCCC"/>
</g>
<path d="M115.103 113.464H20.2929L6.59289 104.554H-31.5771C-31.5771 104.554 -22.6971 118.374 -27.3971 120.894H-32.2471C-33.1197 120.894 -33.9565 121.241 -34.5735 121.858C-35.1905 122.475 -35.5371 123.312 -35.5371 124.184C-35.5371 125.057 -35.1905 125.894 -34.5735 126.511C-33.9565 127.128 -33.1197 127.474 -32.2471 127.474H115.203C118.633 127.334 121.653 124.944 123.473 121.374V113.464H115.103Z" fill="#223946"/>
<path d="M123.473 121.374V119.134H-26.1371C-26.2018 119.503 -26.3487 119.853 -26.5668 120.158C-26.7849 120.462 -27.0686 120.714 -27.3971 120.894H-32.2471C-33.1197 120.894 -33.9565 121.241 -34.5735 121.858C-35.1905 122.475 -35.5371 123.312 -35.5371 124.184C-35.5371 125.057 -35.1905 125.894 -34.5735 126.511C-33.9565 127.128 -33.1197 127.474 -32.2471 127.474H115.203C118.633 127.334 121.653 124.944 123.473 121.374Z" fill="#D75724"/>
<g style="mix-blend-mode:multiply">
<path d="M115.104 113.464H20.2936L6.59363 104.554H-1.66636L-3.89637 102.824H-33.0464C-33.0464 102.824 -20.3364 118.984 -24.8964 121.824C-26.4064 122.764 -31.9864 121.824 -31.9864 121.824C-30.8364 122.754 -31.4764 126.714 -35.5264 124.184C-35.5264 124.617 -35.4409 125.046 -35.275 125.446C-35.109 125.845 -34.8658 126.209 -34.5592 126.514C-34.2527 126.82 -33.8888 127.062 -33.4885 127.227C-33.0881 127.391 -32.6593 127.476 -32.2264 127.474H115.204C118.634 127.334 121.654 124.944 123.474 121.374V113.464H115.104ZM-10.8964 115.074H-14.2664L-12.0264 108.924H-8.67636L-10.8964 115.074Z" fill="#CCCCCC"/>
</g>
<path d="M76.0837 74.9243H74.5537V82.8843H76.0837V74.9243Z" fill="#E6E6DC"/>
<path d="M80.3532 73.5942H70.2832V74.1242H80.3532V73.5942Z" fill="#E6E6DC"/>
<path d="M80.0132 73.854L75.9332 75.194H74.5532L70.5332 73.854H80.0132Z" fill="#E6E6DC"/>
<path d="M79.4635 70.7842H76.6035V71.4642H79.4635V70.7842Z" fill="#E6E6DC"/>
<path d="M78.0335 71.0444L78.5435 73.7244H77.5635L78.0335 71.0444Z" fill="#E6E6DC"/>
<path d="M73.2034 73.3242H71.7734V73.7042H73.2034V73.3242Z" fill="#E6E6DC"/>
<path d="M72.0234 73.8241C72.0234 73.9577 72.0758 74.0859 72.1693 74.1813C72.2628 74.2766 72.3899 74.3315 72.5234 74.3341C72.5899 74.3342 72.6558 74.3209 72.7171 74.2951C72.7784 74.2694 72.834 74.2317 72.8806 74.1842C72.9271 74.1367 72.9638 74.0804 72.9883 74.0186C73.0128 73.9567 73.0248 73.8906 73.0234 73.8241V72.9941C73.0234 72.8615 72.9708 72.7344 72.877 72.6406C72.7832 72.5468 72.656 72.4941 72.5234 72.4941C72.3916 72.4967 72.2659 72.5502 72.1727 72.6434C72.0795 72.7366 72.026 72.8623 72.0234 72.9941V73.8241Z" fill="#E6E6DC"/>
<path d="M76.2931 73.8241L75.6631 67.4141L76.2931 73.8241Z" fill="#E6E6DC"/>
<path d="M75.7342 67.434L75.585 67.4487L76.2177 73.8676L76.367 73.8529L75.7342 67.434Z" fill="#E6E6DC"/>
<path d="M75.6631 67.4443L74.6631 73.8543L75.6631 67.4443Z" fill="#E6E6DC"/>
<path d="M75.5928 67.4219L74.585 73.8433L74.7331 73.8665L75.741 67.4451L75.5928 67.4219Z" fill="#E6E6DC"/>
<path d="M75.8435 69.3042H74.5635V69.6342H75.8435V69.3042Z" fill="#E6E6DC"/>
<path d="M75.8435 68.334H74.5635V68.664H75.8435V68.334Z" fill="#E6E6DC"/>
<path d="M75.9635 70.3242H74.5635V70.6542H75.9635V70.3242Z" fill="#E6E6DC"/>
<path d="M76.0435 71.1641H74.5635V71.4941H76.0435V71.1641Z" fill="#E6E6DC"/>
<path d="M76.1535 72.084H74.5635V72.414H76.1535V72.084Z" fill="#E6E6DC"/>
<path d="M75.3037 67.7241H74.3438V68.2341H75.3037V67.7241Z" fill="#E6E6DC"/>
<g style="mix-blend-mode:multiply">
<path d="M76.0835 82.8843H75.3535V74.9243L76.0835 75.1943V82.8843Z" fill="#E6E6DC"/>
</g>
<g style="mix-blend-mode:multiply">
<path d="M75.3535 74.924L78.7235 74.124H79.1935L76.0835 75.154L75.3535 74.924Z" fill="#E6E6DC"/>
</g>
<path d="M75.3231 105.164H60.1631V110.904H75.3231V105.164Z" fill="#E2421E"/>
<g style="mix-blend-mode:multiply">
<path d="M75.3232 105.164H64.4932V110.904H75.3232V105.164Z" fill="#CCCCCC"/>
</g>
<path d="M75.3231 98.9941H60.1631V104.734H75.3231V98.9941Z" fill="#E2421E"/>
<g style="mix-blend-mode:multiply">
<path d="M75.3232 98.9941H64.4932V104.734H75.3232V98.9941Z" fill="#CCCCCC"/>
</g>
<path d="M59.7332 105.134H44.5732V110.874H59.7332V105.134Z" fill="#E2421E"/>
<g style="mix-blend-mode:multiply">
<path d="M59.7333 105.134H48.9033V110.874H59.7333V105.134Z" fill="#CCCCCC"/>
</g>
<path d="M64.4334 105.164H49.2734V110.904H64.4334V105.164Z" fill="#E2421E"/>
<g style="mix-blend-mode:multiply">
<path d="M64.4335 105.164H53.6035V110.904H64.4335V105.164Z" fill="#CCCCCC"/>
</g>
<path d="M59.7332 99.0942H44.5732V104.834H59.7332V99.0942Z" fill="#E2421E"/>
<g style="mix-blend-mode:multiply">
<path d="M59.7333 99.0942H48.9033V104.834H59.7333V99.0942Z" fill="#CCCCCC"/>
</g>
<path d="M80.0233 105.164H64.8633V110.904H80.0233V105.164Z" fill="#7BBCCC"/>
<g style="mix-blend-mode:multiply">
<path d="M80.0234 105.164H69.1934V110.904H80.0234V105.164Z" fill="#CCCCCC"/>
</g>
<path d="M84.783 105.164H69.623V110.904H84.783V105.164Z" fill="#7BBCCC"/>
<g style="mix-blend-mode:multiply">
<path d="M84.7831 105.164H73.9531V110.904H84.7831V105.164Z" fill="#CCCCCC"/>
</g>
<path d="M89.4832 105.164H74.3232V110.904H89.4832V105.164Z" fill="#E2421E"/>
<g style="mix-blend-mode:multiply">
<path d="M89.4833 105.164H78.6533V110.904H89.4833V105.164Z" fill="#CCCCCC"/>
</g>
<path d="M210.923 123.574C209.893 123.575 208.876 123.333 207.956 122.87C207.035 122.406 206.236 121.733 205.623 120.904C205.008 121.732 204.208 122.404 203.287 122.867C202.366 123.33 201.349 123.571 200.318 123.571C199.287 123.571 198.271 123.33 197.35 122.867C196.428 122.404 195.628 121.732 195.013 120.904C194.397 121.732 193.596 122.404 192.674 122.867C191.752 123.33 190.735 123.571 189.703 123.571C188.672 123.571 187.654 123.33 186.732 122.867C185.81 122.404 185.009 121.732 184.393 120.904C183.778 121.732 182.978 122.404 182.057 122.867C181.136 123.33 180.119 123.571 179.088 123.571C178.057 123.571 177.041 123.33 176.12 122.867C175.198 122.404 174.398 121.732 173.783 120.904C173.168 121.732 172.368 122.404 171.447 122.867C170.526 123.33 169.509 123.571 168.478 123.571C167.447 123.571 166.431 123.33 165.51 122.867C164.588 122.404 163.788 121.732 163.173 120.904C162.558 121.732 161.758 122.404 160.837 122.867C159.916 123.33 158.899 123.571 157.868 123.571C156.837 123.571 155.821 123.33 154.9 122.867C153.978 122.404 153.178 121.732 152.563 120.904C151.948 121.732 151.148 122.404 150.227 122.867C149.306 123.33 148.289 123.571 147.258 123.571C146.227 123.571 145.211 123.33 144.29 122.867C143.368 122.404 142.568 121.732 141.953 120.904C141.338 121.732 140.538 122.404 139.617 122.867C138.696 123.33 137.679 123.571 136.648 123.571C135.617 123.571 134.601 123.33 133.68 122.867C132.758 122.404 131.958 121.732 131.343 120.904C130.728 121.732 129.928 122.404 129.007 122.867C128.086 123.33 127.069 123.571 126.038 123.571C125.007 123.571 123.991 123.33 123.07 122.867C122.148 122.404 121.348 121.732 120.733 120.904C120.118 121.732 119.318 122.404 118.397 122.867C117.476 123.33 116.459 123.571 115.428 123.571C114.397 123.571 113.381 123.33 112.46 122.867C111.538 122.404 110.738 121.732 110.123 120.904C109.507 121.732 108.706 122.404 107.784 122.867C106.862 123.33 105.845 123.571 104.813 123.571C103.782 123.571 102.764 123.33 101.842 122.867C100.92 122.404 100.119 121.732 99.5034 120.904C98.8884 121.732 98.0883 122.404 97.1672 122.867C96.246 123.33 95.2294 123.571 94.1984 123.571C93.1674 123.571 92.1507 123.33 91.2296 122.867C90.3085 122.404 89.5084 121.732 88.8934 120.904C88.2784 121.732 87.4783 122.404 86.5572 122.867C85.636 123.33 84.6194 123.571 83.5884 123.571C82.5574 123.571 81.5407 123.33 80.6196 122.867C79.6985 122.404 78.8984 121.732 78.2834 120.904C77.6684 121.732 76.8683 122.404 75.9472 122.867C75.026 123.33 74.0094 123.571 72.9784 123.571C71.9474 123.571 70.9307 123.33 70.0096 122.867C69.0885 122.404 68.2884 121.732 67.6734 120.904C67.0584 121.732 66.2583 122.404 65.3372 122.867C64.416 123.33 63.3994 123.571 62.3684 123.571C61.3374 123.571 60.3207 123.33 59.3996 122.867C58.4785 122.404 57.6784 121.732 57.0634 120.904C56.4484 121.732 55.6483 122.404 54.7272 122.867C53.806 123.33 52.7894 123.571 51.7584 123.571C50.7274 123.571 49.7107 123.33 48.7896 122.867C47.8685 122.404 47.0684 121.732 46.4534 120.904C45.8384 121.732 45.0383 122.404 44.1172 122.867C43.196 123.33 42.1794 123.571 41.1484 123.571C40.1174 123.571 39.1007 123.33 38.1796 122.867C37.2585 122.404 36.4584 121.732 35.8434 120.904C35.2284 121.732 34.4283 122.404 33.5072 122.867C32.5861 123.33 31.5694 123.571 30.5384 123.571C29.5074 123.571 28.4908 123.33 27.5696 122.867C26.6485 122.404 25.8484 121.732 25.2334 120.904C24.6173 121.732 23.8164 122.404 22.8944 122.867C21.9725 123.33 20.9551 123.571 19.9234 123.571C18.8917 123.571 17.8743 123.33 16.9524 122.867C16.0304 122.404 15.2295 121.732 14.6134 120.904C13.9984 121.732 13.1983 122.404 12.2772 122.867C11.356 123.33 10.3394 123.571 9.3084 123.571C8.27744 123.571 7.26075 123.33 6.33961 122.867C5.41848 122.404 4.61843 121.732 4.0034 120.904C3.38837 121.732 2.58832 122.404 1.66718 122.867C0.746048 123.33 -0.27063 123.571 -1.3016 123.571C-2.33257 123.571 -3.34924 123.33 -4.27038 122.867C-5.19151 122.404 -5.99157 121.732 -6.6066 120.904C-7.22163 121.732 -8.02168 122.404 -8.94282 122.867C-9.86395 123.33 -10.8806 123.571 -11.9116 123.571C-12.9426 123.571 -13.9592 123.33 -14.8804 122.867C-15.8015 122.404 -16.6016 121.732 -17.2166 120.904C-17.8316 121.732 -18.6317 122.404 -19.5528 122.867C-20.474 123.33 -21.4906 123.571 -22.5216 123.571C-23.5526 123.571 -24.5692 123.33 -25.4904 122.867C-26.4115 122.404 -27.2116 121.732 -27.8266 120.904C-28.4416 121.732 -29.2417 122.404 -30.1628 122.867C-31.084 123.33 -32.1006 123.571 -33.1316 123.571C-34.1626 123.571 -35.1792 123.33 -36.1004 122.867C-37.0215 122.404 -37.8216 121.732 -38.4366 120.904C-39.0516 121.732 -39.8517 122.404 -40.7728 122.867C-41.694 123.33 -42.7106 123.571 -43.7416 123.571C-44.7726 123.571 -45.7892 123.33 -46.7104 122.867C-47.6315 122.404 -48.4316 121.732 -49.0466 120.904C-49.6616 121.732 -50.4617 122.404 -51.3828 122.867C-52.304 123.33 -53.3206 123.571 -54.3516 123.571C-55.3826 123.571 -56.3993 123.33 -57.3204 122.867C-58.2415 122.404 -59.0416 121.732 -59.6566 120.904C-60.2727 121.732 -61.0737 122.404 -61.9956 122.867C-62.9175 123.33 -63.9349 123.571 -64.9666 123.571C-65.9983 123.571 -67.0157 123.33 -67.9376 122.867C-68.8596 122.404 -69.6605 121.732 -70.2766 120.904C-70.8916 121.732 -71.6917 122.404 -72.6128 122.867C-73.534 123.33 -74.5506 123.571 -75.5816 123.571C-76.6126 123.571 -77.6292 123.33 -78.5504 122.867C-79.4715 122.404 -80.2716 121.732 -80.8866 120.904C-81.5016 121.732 -82.3017 122.404 -83.2228 122.867C-84.144 123.33 -85.1606 123.571 -86.1916 123.571C-87.2226 123.571 -88.2392 123.33 -89.1604 122.867C-90.0815 122.404 -90.8816 121.732 -91.4966 120.904L-91.7666 132.084L-8.7666 127.084L210.923 123.574Z" fill="#4AA29A"/>
<path d="M-38.0469 133.554L210.953 130.034V123.574C209.922 123.575 208.906 123.333 207.986 122.87C207.065 122.406 206.266 121.733 205.653 120.904C205.038 121.732 204.238 122.404 203.317 122.867C202.396 123.33 201.379 123.571 200.348 123.571C199.317 123.571 198.3 123.33 197.379 122.867C196.458 122.404 195.658 121.732 195.043 120.904C194.427 121.732 193.626 122.404 192.704 122.867C191.782 123.33 190.765 123.571 189.733 123.571C188.701 123.571 187.684 123.33 186.762 122.867C185.84 122.404 185.039 121.732 184.423 120.904C183.808 121.732 183.008 122.404 182.087 122.867C181.166 123.33 180.149 123.571 179.118 123.571C178.087 123.571 177.07 123.33 176.149 122.867C175.228 122.404 174.428 121.732 173.813 120.904C173.198 121.732 172.398 122.404 171.477 122.867C170.556 123.33 169.539 123.571 168.508 123.571C167.477 123.571 166.46 123.33 165.539 122.867C164.618 122.404 163.818 121.732 163.203 120.904C162.588 121.732 161.788 122.404 160.867 122.867C159.946 123.33 158.929 123.571 157.898 123.571C156.867 123.571 155.85 123.33 154.929 122.867C154.008 122.404 153.208 121.732 152.593 120.904C151.978 121.732 151.178 122.404 150.257 122.867C149.336 123.33 148.319 123.571 147.288 123.571C146.257 123.571 145.24 123.33 144.319 122.867C143.398 122.404 142.598 121.732 141.983 120.904C141.368 121.732 140.568 122.404 139.647 122.867C138.726 123.33 137.709 123.571 136.678 123.571C135.647 123.571 134.63 123.33 133.709 122.867C132.788 122.404 131.988 121.732 131.373 120.904C130.758 121.732 129.958 122.404 129.037 122.867C128.116 123.33 127.099 123.571 126.068 123.571C125.037 123.571 124.02 123.33 123.099 122.867C122.178 122.404 121.378 121.732 120.763 120.904C120.148 121.732 119.348 122.404 118.427 122.867C117.506 123.33 116.489 123.571 115.458 123.571C114.427 123.571 113.41 123.33 112.489 122.867C111.568 122.404 110.768 121.732 110.153 120.904C109.537 121.732 108.736 122.404 107.814 122.867C106.892 123.33 105.875 123.571 104.843 123.571C103.811 123.571 102.794 123.33 101.872 122.867C100.95 122.404 100.149 121.732 99.5331 120.904C98.9181 121.732 98.118 122.404 97.1969 122.867C96.2758 123.33 95.2591 123.571 94.2281 123.571C93.1971 123.571 92.1805 123.33 91.2593 122.867C90.3382 122.404 89.5382 121.732 88.9231 120.904C88.3081 121.732 87.508 122.404 86.5869 122.867C85.6658 123.33 84.6491 123.571 83.6181 123.571C82.5872 123.571 81.5705 123.33 80.6493 122.867C79.7282 122.404 78.9282 121.732 78.3131 120.904C77.6981 121.732 76.898 122.404 75.9769 122.867C75.0558 123.33 74.0391 123.571 73.0081 123.571C71.9772 123.571 70.9605 123.33 70.0393 122.867C69.1182 122.404 68.3182 121.732 67.7031 120.904C67.0881 121.732 66.288 122.404 65.3669 122.867C64.4458 123.33 63.4291 123.571 62.3981 123.571C61.3672 123.571 60.3505 123.33 59.4293 122.867C58.5082 122.404 57.7082 121.732 57.0931 120.904C56.4781 121.732 55.678 122.404 54.7569 122.867C53.8358 123.33 52.8191 123.571 51.7881 123.571C50.7572 123.571 49.7405 123.33 48.8193 122.867C47.8982 122.404 47.0982 121.732 46.4831 120.904C45.8681 121.732 45.068 122.404 44.1469 122.867C43.2258 123.33 42.2091 123.571 41.1781 123.571C40.1472 123.571 39.1305 123.33 38.2093 122.867C37.2882 122.404 36.4882 121.732 35.8731 120.904C35.2581 121.732 34.458 122.404 33.5369 122.867C32.6158 123.33 31.5991 123.571 30.5681 123.571C29.5372 123.571 28.5205 123.33 27.5993 122.867C26.6782 122.404 25.8782 121.732 25.2631 120.904C24.647 121.732 23.8461 122.404 22.9241 122.867C22.0022 123.33 20.9848 123.571 19.9531 123.571C18.9215 123.571 17.9041 123.33 16.9821 122.867C16.0602 122.404 15.2592 121.732 14.6431 120.904C14.0281 121.732 13.228 122.404 12.3069 122.867C11.3858 123.33 10.3691 123.571 9.33813 123.571C8.30716 123.571 7.29048 123.33 6.36935 122.867C5.44821 122.404 4.64816 121.732 4.03313 120.904C3.41809 121.732 2.61804 122.404 1.69691 122.867C0.775772 123.33 -0.240902 123.571 -1.27187 123.571C-2.30285 123.571 -3.31952 123.33 -4.24065 122.867C-5.16179 122.404 -5.96184 121.732 -6.57687 120.904C-7.1919 121.732 -7.99196 122.404 -8.91309 122.867C-9.83423 123.33 -10.8509 123.571 -11.8819 123.571C-12.9128 123.571 -13.9295 123.33 -14.8507 122.867C-15.7718 122.404 -16.5718 121.732 -17.1869 120.904C-17.8019 121.732 -18.602 122.404 -19.5231 122.867C-20.4442 123.33 -21.4609 123.571 -22.4919 123.571C-23.5228 123.571 -24.5395 123.33 -25.4607 122.867C-26.3818 122.404 -27.1818 121.732 -27.7969 120.904C-28.4537 121.687 -29.2635 122.328 -30.1765 122.787C-31.0895 123.246 -32.0867 123.514 -33.1069 123.574C-33.8626 123.586 -34.6134 123.451 -35.3169 123.174L-38.0469 133.554Z" fill="#4AA29A"/>
<rect x="-26.2324" y="127.965" width="223.596" height="67.0411" fill="url(#paint0_linear)"/>
<path d="M93.1061 162.002V161.422C93.1061 161.157 93.0007 160.902 92.8132 160.715C92.6256 160.527 92.3713 160.422 92.1061 160.422H71.2061C70.9408 160.422 70.6865 160.527 70.4989 160.715C70.3114 160.902 70.2061 161.157 70.2061 161.422V162.002H93.1061Z" fill="#223946"/>
<g style="mix-blend-mode:multiply">
<path d="M89.446 161.999V161.599C89.4257 161.394 89.3267 161.206 89.1699 161.073C89.0131 160.941 88.8108 160.875 88.606 160.889H71.506C71.3012 160.875 71.099 160.941 70.9422 161.073C70.7854 161.206 70.6863 161.394 70.666 161.599V161.999H89.446Z" fill="#CCCCCC"/>
</g>
<path d="M76.9954 154.551H73.7754V160.511H76.9954V154.551Z" fill="#223946"/>
<path d="M79.0659 154.551H71.7959V156.071H79.0659V154.551Z" fill="#223946"/>
<path d="M87.3762 154.551H84.1562V160.511H87.3762V154.551Z" fill="#223946"/>
<path d="M89.4458 154.551H82.1758V156.071H89.4458V154.551Z" fill="#223946"/>
<g style="mix-blend-mode:multiply">
<path d="M76.9954 156.059H74.4654H73.7754V156.909V160.399H74.4654V156.909H76.9954V156.059Z" fill="#CCCCCC"/>
</g>
<g style="mix-blend-mode:multiply">
<path d="M87.3762 156.059H85.0062H84.1562V156.909V160.399H85.0062V156.909H87.3762V156.059Z" fill="#CCCCCC"/>
</g>
<g style="mix-blend-mode:multiply">
<path d="M72.9559 154.551H71.7959V156.071H72.9559V154.551Z" fill="#CCCCCC"/>
</g>
<g style="mix-blend-mode:multiply">
<path d="M83.2058 154.551H82.1758V156.071H83.2058V154.551Z" fill="#CCCCCC"/>
</g>
<path d="M64.2558 170.71C64.8732 171.536 65.6745 172.206 66.5963 172.668C67.5181 173.129 68.5349 173.37 69.5658 173.37C70.5968 173.37 71.6135 173.129 72.5353 172.668C73.4571 172.206 74.2585 171.536 74.8758 170.71C75.4934 171.534 76.2942 172.202 77.215 172.663C78.1359 173.123 79.1513 173.363 80.1808 173.363C81.2104 173.363 82.2258 173.123 83.1466 172.663C84.0674 172.202 84.8683 171.534 85.4858 170.71C86.1021 171.535 86.9026 172.206 87.8236 172.668C88.7445 173.129 89.7606 173.37 90.7908 173.37C91.8211 173.37 92.8371 173.129 93.7581 172.668C94.6791 172.206 95.4795 171.535 96.0958 170.71C96.7121 171.535 97.5126 172.206 98.4336 172.668C99.3545 173.129 100.371 173.37 101.401 173.37C102.431 173.37 103.447 173.129 104.368 172.668C105.289 172.206 106.09 171.535 106.706 170.71C107.322 171.535 108.123 172.206 109.044 172.668C109.965 173.129 110.981 173.37 112.011 173.37C113.041 173.37 114.057 173.129 114.978 172.668C115.899 172.206 116.7 171.535 117.316 170.71C117.932 171.535 118.733 172.206 119.654 172.668C120.575 173.129 121.591 173.37 122.621 173.37C123.651 173.37 124.667 173.129 125.588 172.668C126.509 172.206 127.31 171.535 127.926 170.71C128.542 171.535 129.343 172.206 130.264 172.668C131.185 173.129 132.201 173.37 133.231 173.37C134.261 173.37 135.277 173.129 136.198 172.668C137.119 172.206 137.92 171.535 138.536 170.71C139.152 171.535 139.953 172.206 140.874 172.668C141.795 173.129 142.811 173.37 143.841 173.37C144.871 173.37 145.887 173.129 146.808 172.668C147.729 172.206 148.53 171.535 149.146 170.71C149.763 171.536 150.565 172.206 151.486 172.668C152.408 173.129 153.425 173.37 154.456 173.37C155.487 173.37 156.504 173.129 157.425 172.668C158.347 172.206 159.148 171.536 159.766 170.71C160.382 171.535 161.183 172.206 162.104 172.668C163.025 173.129 164.041 173.37 165.071 173.37C166.101 173.37 167.117 173.129 168.038 172.668C168.959 172.206 169.76 171.535 170.376 170.71C170.992 171.535 171.793 172.206 172.714 172.668C173.635 173.129 174.651 173.37 175.681 173.37C176.711 173.37 177.727 173.129 178.648 172.668C179.569 172.206 180.37 171.535 180.986 170.71C181.602 171.535 182.403 172.206 183.324 172.668C184.245 173.129 185.261 173.37 186.291 173.37C187.321 173.37 188.337 173.129 189.258 172.668C190.179 172.206 190.98 171.535 191.596 170.71C192.212 171.535 193.013 172.206 193.934 172.668C194.855 173.129 195.871 173.37 196.901 173.37C197.931 173.37 198.947 173.129 199.868 172.668C200.789 172.206 201.59 171.535 202.206 170.71C202.822 171.535 203.623 172.206 204.544 172.668C205.465 173.129 206.481 173.37 207.511 173.37C208.541 173.37 209.557 173.129 210.478 172.668C211.399 172.206 212.2 171.535 212.816 170.71C213.432 171.535 214.233 172.206 215.154 172.668C216.075 173.129 217.091 173.37 218.121 173.37C219.151 173.37 220.167 173.129 221.088 172.668C222.009 172.206 222.81 171.535 223.426 170.71C224.042 171.535 224.843 172.206 225.764 172.668C226.685 173.129 227.701 173.37 228.731 173.37C229.761 173.37 230.777 173.129 231.698 172.668C232.619 172.206 233.42 171.535 234.036 170.71C234.653 171.536 235.455 172.206 236.376 172.668C237.298 173.129 238.315 173.37 239.346 173.37C240.377 173.37 241.394 173.129 242.315 172.668C243.237 172.206 244.038 171.536 244.656 170.71C245.272 171.535 246.073 172.206 246.994 172.668C247.915 173.129 248.931 173.37 249.961 173.37C250.991 173.37 252.007 173.129 252.928 172.668C253.849 172.206 254.65 171.535 255.266 170.71C255.832 171.474 256.556 172.107 257.39 172.565C258.224 173.022 259.147 173.293 260.096 173.36V161.84H61.9658V172.64C62.8664 172.18 63.6497 171.519 64.2558 170.71Z" fill="white"/>
<g style="mix-blend-mode:multiply">
<path d="M64.2558 170.71C64.8732 171.536 65.6745 172.206 66.5963 172.668C67.5181 173.129 68.5349 173.37 69.5658 173.37C70.5968 173.37 71.6135 173.129 72.5353 172.668C73.4571 172.206 74.2585 171.536 74.8758 170.71C75.4934 171.534 76.2942 172.202 77.215 172.663C78.1359 173.123 79.1513 173.363 80.1808 173.363C81.2104 173.363 82.2258 173.123 83.1466 172.663C84.0674 172.202 84.8683 171.534 85.4858 170.71C86.1021 171.535 86.9026 172.206 87.8236 172.668C88.7445 173.129 89.7606 173.37 90.7908 173.37C91.8211 173.37 92.8371 173.129 93.7581 172.668C94.6791 172.206 95.4795 171.535 96.0958 170.71L96.1958 170.84V161.84H61.9658V172.64C62.8664 172.18 63.6497 171.519 64.2558 170.71Z" fill="#E6E6E6"/>
</g>
</g>
<g filter="url(#filter0_d)">
<path d="M118.567 25.7139C118.567 31.5884 113.804 36.3506 107.93 36.3506C102.055 36.3506 97.2931 31.5884 97.2931 25.7139C97.2931 19.8394 102.055 15.0771 107.93 15.0771C113.804 15.0771 118.567 19.8394 118.567 25.7139Z" fill="white"/>
<path d="M100.745 28.1389C100.745 32.6734 97.0693 36.3493 92.5349 36.3493C88.0004 36.3493 84.3245 32.6734 84.3245 28.1389C84.3245 23.6044 88.0004 19.9285 92.5349 19.9285C97.0693 19.9285 100.745 23.6044 100.745 28.1389Z" fill="white"/>
<path d="M88.0089 31.1718C88.0089 34.0314 85.6907 36.3496 82.8311 36.3496C79.9715 36.3496 77.6533 34.0314 77.6533 31.1718C77.6533 28.3122 79.9715 25.9941 82.8311 25.9941C85.6907 25.9941 88.0089 28.3122 88.0089 31.1718Z" fill="white"/>
<path d="M82.645 28.5129H118.567L108.77 36.3493H82.645V28.5129Z" fill="white"/>
</g>
<g filter="url(#filter1_d)">
<path d="M49.0788 45.9588C49.0788 52.087 44.1109 57.0549 37.9827 57.0549C31.8546 57.0549 26.8867 52.087 26.8867 45.9588C26.8867 39.8307 31.8546 34.8628 37.9827 34.8628C44.1109 34.8628 49.0788 39.8307 49.0788 45.9588Z" fill="white"/>
<path d="M54.0489 57.056C58.8368 57.056 62.7182 53.1746 62.7182 48.3867C62.7182 43.5987 58.8368 39.7173 54.0489 39.7173C49.261 39.7173 45.3796 43.5987 45.3796 48.3867L37.9227 57.056H54.0489Z" fill="white"/>
</g>
<g opacity="0.15" filter="url(#filter2_f)">
<path d="M136.813 161.597C130.727 150.355 129.267 149.028 130.731 145.666C132.738 141.062 140.323 138.569 147.673 140.099C155.023 141.628 159.355 146.6 157.349 151.205C155.884 154.566 153.606 155.116 139.548 162.166C138.627 162.627 137.213 162.333 136.813 161.597ZM142.526 151.909C145.589 152.546 148.749 151.508 149.585 149.589C150.421 147.671 148.616 145.599 145.554 144.962C142.491 144.325 139.331 145.363 138.495 147.282C137.659 149.2 139.464 151.272 142.526 151.909Z" fill="#404040"/>
</g>
<path d="M136.708 161.647C126.252 146.344 124.312 144.773 124.312 139.149C124.312 131.445 130.497 125.2 138.128 125.2C145.758 125.2 151.944 131.445 151.944 139.149C151.944 144.773 150.003 146.344 139.547 161.647C138.861 162.647 137.394 162.647 136.708 161.647ZM138.128 144.961C141.307 144.961 143.884 142.359 143.884 139.149C143.884 135.939 141.307 133.337 138.128 133.337C134.948 133.337 132.371 135.939 132.371 139.149C132.371 142.359 134.948 144.961 138.128 144.961Z" fill="#E2581D"/>
<defs>
<filter id="filter0_d" x="77.6533" y="15.0771" width="45.9132" height="29.2734" filterUnits="userSpaceOnUse" color-interpolation-filters="sRGB">
<feFlood flood-opacity="0" result="BackgroundImageFix"/>
<feColorMatrix in="SourceAlpha" type="matrix" values="0 0 0 0 0 0 0 0 0 0 0 0 0 0 0 0 0 0 127 0"/>
<feOffset dx="4" dy="7"/>
<feGaussianBlur stdDeviation="0.5"/>
<feColorMatrix type="matrix" values="0 0 0 0 0 0 0 0 0 0 0 0 0 0 0 0 0 0 0.15 0"/>
<feBlend mode="normal" in2="BackgroundImageFix" result="effect1_dropShadow"/>
<feBlend mode="normal" in="SourceGraphic" in2="effect1_dropShadow" result="shape"/>
</filter>
<filter id="filter1_d" x="26.8867" y="34.8628" width="40.8315" height="30.1932" filterUnits="userSpaceOnUse" color-interpolation-filters="sRGB">
<feFlood flood-opacity="0" result="BackgroundImageFix"/>
<feColorMatrix in="SourceAlpha" type="matrix" values="0 0 0 0 0 0 0 0 0 0 0 0 0 0 0 0 0 0 127 0"/>
<feOffset dx="4" dy="7"/>
<feGaussianBlur stdDeviation="0.5"/>
<feColorMatrix type="matrix" values="0 0 0 0 0 0 0 0 0 0 0 0 0 0 0 0 0 0 0.15 0"/>
<feBlend mode="normal" in2="BackgroundImageFix" result="effect1_dropShadow"/>
<feBlend mode="normal" in="SourceGraphic" in2="effect1_dropShadow" result="shape"/>
</filter>
<filter id="filter2_f" x="129.205" y="138.648" width="29.634" height="24.7384" filterUnits="userSpaceOnUse" color-interpolation-filters="sRGB">
<feFlood flood-opacity="0" result="BackgroundImageFix"/>
<feBlend mode="normal" in="SourceGraphic" in2="BackgroundImageFix" result="shape"/>
<feGaussianBlur stdDeviation="0.5" result="effect1_foregroundBlur"/>
</filter>
<linearGradient id="paint0_linear" x1="85.5654" y1="133.38" x2="85.5654" y2="170.477" gradientUnits="userSpaceOnUse">
<stop stop-color="#4AA29A"/>
<stop offset="1" stop-color="#4AA29A" stop-opacity="0"/>
</linearGradient>
</defs>
</svg>
