<svg width="389" height="155" viewBox="0 0 389 155" fill="none" xmlns="http://www.w3.org/2000/svg">
<g style="mix-blend-mode:multiply" opacity="0.65">
<path d="M269.715 152.461L269.768 152.515L269.715 152.461Z" fill="#A7ACB8"/>
</g>
<g style="mix-blend-mode:multiply" opacity="0.65">
<path d="M272.216 154.629L271.417 153.938L272.216 154.629Z" fill="#A7ACB8"/>
</g>
<g style="mix-blend-mode:multiply" opacity="0.65">
<path d="M388.421 88.5102C387.144 83.1906 381.823 76.9667 368.255 70.3704L366.393 69.4661L345.749 58.0821L341.066 55.4755L336.65 53.0817C324.734 47.9772 312.219 44.4023 299.405 42.4425C294.82 41.8336 290.196 41.5668 285.571 41.6446C260.191 41.6446 217.944 46.6982 178.091 50.9007L169.631 51.7518C152.711 53.5073 136.536 54.9436 122.596 55.6883C103.973 56.699 89.2876 56.3798 82.1046 53.6668L43.7951 14.8338L10.1678 10.5781L35.9735 64.3592L27.1411 67.9766L12.1365 67.3914C12.1365 67.3914 6.17724 67.7638 7.93309 69.2001H8.25234H8.62479H9.05045H9.68894H10.2742H11.232H11.8173L13.8924 69.6788C15.2127 69.9013 16.5454 70.0434 17.8829 70.1044L14.2116 71.5939L10.3274 73.1366C10.3274 73.1366 10.3274 73.6685 12.0301 74.8388L13.3071 77.3391L15.0629 78.2966L16.0739 78.7753L17.9893 79.6265C20.3305 80.6372 23.3101 81.8075 27.1943 83.0842H27.1411C29.4822 84.0417 34.8562 85.6376 40.8686 87.2867C46.8811 88.9358 55.7668 91.3828 65.823 93.8298C65.823 93.8298 130.63 99.8941 205.759 103.831L206.185 104.522L206.93 105.107C207.662 105.774 208.601 106.169 209.59 106.224L217.678 106.703L241.728 108.937C242.894 109.216 244.095 109.323 245.293 109.257C247.048 109.257 248.964 107.874 248.964 106.384V106.118C271.045 106.916 293.126 107.448 313.93 107.448C333.777 107.448 352.506 107.022 369 105.958C372.444 106.025 375.857 105.291 378.968 103.814C382.08 102.337 384.806 100.157 386.931 97.4471C387.767 96.1942 388.328 94.7781 388.575 93.2925C388.823 91.8069 388.752 90.2856 388.368 88.8294C388.368 88.8294 388.421 88.5634 388.421 88.5102Z" fill="#A7ACB8"/>
</g>
<path d="M360.966 59.7923C356.497 57.6112 355.911 57.2389 355.911 57.2389L329.308 42.4504C317.381 37.3749 304.87 33.8012 292.062 31.8112C252.742 26.1192 103.601 54.0471 75.028 43.0887L36.4525 4.09609L2.87842 0L28.6841 53.7279L2.87842 64.0479C2.87842 64.0479 2.87842 69.7399 58.6401 83.3581C58.6401 83.3581 256.413 101.87 361.924 95.1676C365.372 95.2236 368.785 94.4793 371.897 92.9932C375.008 91.5071 377.732 89.3197 379.855 86.603C383.313 80.1663 382.888 70.4315 360.966 59.7923Z" fill="#218BB8"/>
<path d="M292.221 31.8543C252.741 26.1091 103.6 54.037 75.0275 43.0786C69.5517 41.3148 63.9225 40.0681 58.2139 39.3549C62.9738 43.8875 69.0821 46.7449 75.6128 47.4939C104.185 51.2708 176.707 56.1649 333.989 45.0469L329.626 42.5999C317.654 37.4753 305.088 33.8655 292.221 31.8543Z" fill="#479FC4"/>
<path d="M36.4522 4.09425L26.2896 3.13672C28.7371 5.90291 44.6994 24.7875 55.2877 36.7034C57.7542 39.4696 60.9102 41.5325 64.434 42.6819C67.9578 43.8314 71.7234 44.0262 75.347 43.2465H74.9746L36.4522 4.09425Z" fill="#479FC4"/>
<path d="M316.856 50.0494L311.961 50.3153C310.911 50.3668 309.911 50.7827 309.134 51.4915C308.358 52.2002 307.852 53.1575 307.705 54.1986L307.013 59.5182C306.904 60.2307 306.969 60.9591 307.202 61.6411C307.435 62.3232 307.83 62.9387 308.353 63.4352C308.875 63.9316 309.51 64.2943 310.204 64.4922C310.897 64.6902 311.628 64.7175 312.334 64.5719H319.198C319.791 64.4696 320.358 64.25 320.865 63.9258C321.373 63.6016 321.81 63.1793 322.152 62.6838C322.494 62.1884 322.734 61.6296 322.857 61.0403C322.98 60.4511 322.984 59.8432 322.869 59.2523L321.592 53.9327C321.446 52.8043 320.874 51.7742 319.994 51.0526C319.114 50.331 317.992 49.9722 316.856 50.0494Z" fill="#546176"/>
<path d="M330.904 48.348C330.13 48.7534 329.507 49.3952 329.124 50.1799C328.741 50.9646 328.619 51.8511 328.775 52.7101L329.999 60.2107C331.063 67.3922 359.104 58.8808 359.104 58.8808L338.459 47.4437C335.906 47.2744 333.344 47.5811 330.904 48.348Z" fill="#546176"/>
<path d="M373.629 67.4492L375.013 68.6727L373.629 67.4492Z" fill="#BFC4CC"/>
<path d="M172.611 74.9563L19.958 72.5625C26.8218 75.3819 58.8528 83.2017 58.8528 83.2017C58.8528 83.2017 256.519 101.714 361.817 95.0112C365.265 95.0672 368.679 94.323 371.79 92.8369C374.901 91.3508 377.626 89.1634 379.748 86.4467C380.593 85.1978 381.163 83.7836 381.42 82.2979C381.677 80.8122 381.615 79.2889 381.238 77.8289C379.376 72.5625 219.061 76.5522 172.611 74.9563Z" fill="#BFC4CC"/>
<path d="M373.576 67.3906L373.63 67.4442L373.576 67.3906Z" fill="#838C9C"/>
<path d="M375.704 69.3141L374.959 68.6758L375.704 69.3141Z" fill="#838C9C"/>
<path d="M54.4363 58.7276L4.52745 56.8125C4.52745 56.8125 -6.80579 57.5041 6.38972 60.6426C6.38972 60.6426 14.4241 62.1853 59.9167 61.9193C59.9167 61.9193 69.0684 60.483 54.4363 58.7276Z" fill="#BFC4CC"/>
<path d="M4.52757 56.8125C4.52757 56.8125 0.696613 56.8125 0.111328 57.8764C20.8339 60.1384 41.6848 61.0092 62.5239 60.483C59.9733 59.3609 57.2228 58.7639 54.4364 58.7276L4.52757 56.8125Z" fill="#BFC4CC"/>
<path d="M0.111729 57.8711C-0.313932 58.4562 0.856636 59.3074 6.39023 60.6373C6.39023 60.6373 14.4246 62.18 59.9172 61.914C59.9172 61.914 63.5885 61.3288 62.5243 60.4777C59.9172 61.914 2.71891 61.382 0.111729 57.8711Z" fill="#4F5B72"/>
<path d="M286.847 51.9102H278.6C276.844 51.9102 274.769 52.8145 274.663 54.4636C273.013 78.7741 274.663 79.7848 274.663 79.7848C275.09 80.3366 275.638 80.7822 276.266 81.0868C276.894 81.3913 277.583 81.5465 278.281 81.5403H284.081C286.581 81.5403 288.124 80.6892 288.816 76.6995C288.816 76.6995 289.827 67.4966 290.678 57.2298C290.838 54.5168 289.774 51.9102 286.847 51.9102Z" fill="#BFC4CC"/>
<path d="M285.89 54.0898H279.186C277.749 54.0898 276.1 54.8878 275.993 56.2709C274.876 77.0173 275.993 77.9216 275.993 77.9216C276.335 78.377 276.776 78.748 277.283 79.0062C277.791 79.2644 278.35 79.403 278.92 79.4111H283.655C285.677 79.4111 286.954 78.7196 287.433 75.3682C287.433 75.3682 288.231 67.4952 288.816 58.7179C289.136 56.3241 288.284 54.0898 285.89 54.0898Z" fill="#218BB8"/>
<path d="M160.16 69.3047H134.514C134.195 69.3047 134.088 69.7303 134.514 69.8366L163.885 81.8057H237.684L161.49 69.5707L160.16 69.3047Z" fill="#EBEBEB"/>
<path d="M162.342 70.4886H138.984C138.913 70.4886 138.846 70.5166 138.796 70.5665C138.746 70.6164 138.718 70.6841 138.718 70.7546C138.718 70.8252 138.746 70.8928 138.796 70.9427C138.846 70.9926 138.913 71.0206 138.984 71.0206L165.96 81.6598H233.374L163.459 70.595C163.094 70.5071 162.718 70.4713 162.342 70.4886Z" fill="#838C9C"/>
<path d="M101.153 59.8915C100.575 60.0567 100.066 60.4056 99.704 60.8855C99.3419 61.3654 99.146 61.9502 99.146 62.5513C99.146 63.1525 99.3419 63.7373 99.704 64.2172C100.066 64.6971 100.575 65.046 101.153 65.2112C101.565 65.3287 101.998 65.3492 102.419 65.2708C102.84 65.1925 103.237 65.0175 103.579 64.7597C103.921 64.5019 104.198 64.1682 104.389 63.785C104.58 63.4018 104.68 62.9795 104.68 62.5513C104.68 62.1232 104.58 61.7009 104.389 61.3177C104.198 60.9345 103.921 60.6008 103.579 60.343C103.237 60.0852 102.84 59.9102 102.419 59.8319C101.998 59.7535 101.565 59.774 101.153 59.8915Z" fill="#BFC4CC"/>
<path d="M112.805 59.8906C112.227 60.0557 111.718 60.4047 111.356 60.8846C110.994 61.3645 110.798 61.9493 110.798 62.5504C110.798 63.1516 110.994 63.7364 111.356 64.2163C111.718 64.6962 112.227 65.0451 112.805 65.2102C113.383 65.0451 113.891 64.6962 114.254 64.2163C114.616 63.7364 114.812 63.1516 114.812 62.5504C114.812 61.9493 114.616 61.3645 114.254 60.8846C113.891 60.4047 113.383 60.0557 112.805 59.8906Z" fill="#BFC4CC"/>
<path d="M124.457 59.8906C123.91 59.8906 123.375 60.0529 122.92 60.3568C122.465 60.6608 122.11 61.0928 121.901 61.5982C121.692 62.1037 121.637 62.6599 121.744 63.1965C121.85 63.7331 122.114 64.2259 122.501 64.6128C122.888 64.9997 123.381 65.2631 123.917 65.3699C124.454 65.4766 125.01 65.4218 125.516 65.2124C126.022 65.0031 126.454 64.6485 126.758 64.1936C127.062 63.7387 127.224 63.2039 127.224 62.6568C127.224 61.9232 126.933 61.2196 126.414 60.7008C125.895 60.1821 125.191 59.8906 124.457 59.8906Z" fill="#BFC4CC"/>
<path d="M136.111 59.8906C135.563 59.8906 135.028 60.0529 134.573 60.3568C134.118 60.6608 133.764 61.0928 133.554 61.5982C133.345 62.1037 133.29 62.6599 133.397 63.1965C133.504 63.7331 133.767 64.2259 134.154 64.6128C134.541 64.9997 135.034 65.2631 135.571 65.3699C136.107 65.4766 136.664 65.4218 137.169 65.2124C137.675 65.0031 138.107 64.6485 138.411 64.1936C138.715 63.7387 138.877 63.2039 138.877 62.6568C138.877 61.9232 138.586 61.2196 138.067 60.7008C137.548 60.1821 136.844 59.8906 136.111 59.8906Z" fill="#BFC4CC"/>
<path d="M147.763 59.8906C147.216 59.8906 146.681 60.0529 146.226 60.3568C145.771 60.6608 145.416 61.0928 145.207 61.5982C144.997 62.1037 144.943 62.6599 145.049 63.1965C145.156 63.7331 145.42 64.2259 145.806 64.6128C146.193 64.9997 146.686 65.2631 147.223 65.3699C147.76 65.4766 148.316 65.4218 148.822 65.2124C149.327 65.0031 149.759 64.6485 150.063 64.1936C150.367 63.7387 150.53 63.2039 150.53 62.6568C150.53 62.2936 150.458 61.9339 150.319 61.5982C150.18 61.2626 149.976 60.9577 149.719 60.7008C149.462 60.444 149.157 60.2402 148.822 60.1012C148.486 59.9622 148.126 59.8906 147.763 59.8906Z" fill="#BFC4CC"/>
<path d="M159.415 59.8915C158.837 60.0567 158.328 60.4056 157.966 60.8855C157.604 61.3654 157.408 61.9502 157.408 62.5513C157.408 63.1525 157.604 63.7373 157.966 64.2172C158.328 64.6971 158.837 65.046 159.415 65.2112C159.827 65.3287 160.26 65.3492 160.681 65.2708C161.102 65.1925 161.499 65.0175 161.841 64.7597C162.183 64.5019 162.46 64.1682 162.651 63.785C162.842 63.4018 162.942 62.9795 162.942 62.5513C162.942 62.1232 162.842 61.7009 162.651 61.3177C162.46 60.9345 162.183 60.6008 161.841 60.343C161.499 60.0852 161.102 59.9102 160.681 59.8319C160.26 59.7535 159.827 59.774 159.415 59.8915Z" fill="#BFC4CC"/>
<path d="M171.067 59.8906C170.489 60.0557 169.981 60.4047 169.619 60.8846C169.256 61.3645 169.061 61.9493 169.061 62.5504C169.061 63.1516 169.256 63.7364 169.619 64.2163C169.981 64.6962 170.489 65.0451 171.067 65.2102C171.646 65.0451 172.154 64.6962 172.516 64.2163C172.878 63.7364 173.074 63.1516 173.074 62.5504C173.074 61.9493 172.878 61.3645 172.516 60.8846C172.154 60.4047 171.646 60.0557 171.067 59.8906Z" fill="#BFC4CC"/>
<path d="M182.721 59.8915C182.309 59.774 181.875 59.7535 181.454 59.8319C181.033 59.9102 180.636 60.0852 180.294 60.343C179.953 60.6008 179.675 60.9345 179.484 61.3177C179.293 61.7009 179.194 62.1232 179.194 62.5513C179.194 62.9795 179.293 63.4018 179.484 63.785C179.675 64.1682 179.953 64.5019 180.294 64.7597C180.636 65.0175 181.033 65.1925 181.454 65.2708C181.875 65.3492 182.309 65.3287 182.721 65.2112C183.132 65.3287 183.566 65.3492 183.987 65.2708C184.408 65.1925 184.805 65.0175 185.147 64.7597C185.489 64.5019 185.766 64.1682 185.957 63.785C186.148 63.4018 186.247 62.9795 186.247 62.5513C186.247 62.1232 186.148 61.7009 185.957 61.3177C185.766 60.9345 185.489 60.6008 185.147 60.343C184.805 60.0852 184.408 59.9102 183.987 59.8319C183.566 59.7535 183.132 59.774 182.721 59.8915Z" fill="#BFC4CC"/>
<path d="M194.373 59.8912C193.826 59.8912 193.291 60.0534 192.836 60.3573C192.381 60.6613 192.026 61.0933 191.817 61.5988C191.607 62.1042 191.552 62.6604 191.659 63.197C191.766 63.7336 192.029 64.2265 192.416 64.6133C192.803 65.0002 193.296 65.2636 193.833 65.3704C194.37 65.4771 194.926 65.4223 195.432 65.213C195.937 65.0036 196.369 64.6491 196.673 64.1942C196.977 63.7393 197.14 63.2044 197.14 62.6573C197.147 62.2921 197.08 61.9292 196.944 61.5903C196.807 61.2514 196.604 60.9436 196.345 60.6852C196.087 60.4269 195.779 60.2234 195.44 60.087C195.101 59.9505 194.738 59.8839 194.373 59.8912Z" fill="#BFC4CC"/>
<path d="M206.025 59.8912C205.478 59.8912 204.943 60.0534 204.488 60.3573C204.033 60.6613 203.678 61.0933 203.469 61.5988C203.259 62.1042 203.205 62.6604 203.311 63.197C203.418 63.7336 203.682 64.2265 204.069 64.6133C204.456 65.0002 204.949 65.2636 205.485 65.3704C206.022 65.4771 206.578 65.4223 207.084 65.213C207.589 65.0036 208.022 64.6491 208.326 64.1942C208.63 63.7393 208.792 63.2044 208.792 62.6573C208.799 62.2921 208.733 61.9292 208.596 61.5903C208.46 61.2514 208.256 60.9436 207.998 60.6852C207.739 60.4269 207.431 60.2234 207.092 60.087C206.753 59.9505 206.39 59.8839 206.025 59.8912Z" fill="#BFC4CC"/>
<path d="M217.73 59.8911C217.181 59.8806 216.641 60.0338 216.179 60.3312C215.717 60.6287 215.354 61.0569 215.136 61.5614C214.919 62.0658 214.856 62.6236 214.957 63.1636C215.058 63.7037 215.317 64.2015 215.702 64.5937C216.086 64.9859 216.579 65.2547 217.117 65.3658C217.655 65.4769 218.214 65.4254 218.723 65.2176C219.232 65.0099 219.667 64.6555 219.974 64.1995C220.28 63.7435 220.444 63.2067 220.444 62.6573C220.444 61.9328 220.16 61.2372 219.652 60.7199C219.145 60.2026 218.455 59.9051 217.73 59.8911Z" fill="#BFC4CC"/>
<path d="M229.331 59.8915C228.752 60.0567 228.244 60.4056 227.882 60.8855C227.52 61.3654 227.324 61.9502 227.324 62.5513C227.324 63.1525 227.52 63.7373 227.882 64.2172C228.244 64.6971 228.752 65.046 229.331 65.2112C229.742 65.3287 230.176 65.3492 230.597 65.2708C231.018 65.1925 231.415 65.0175 231.757 64.7597C232.099 64.5019 232.376 64.1682 232.567 63.785C232.758 63.4018 232.857 62.9795 232.857 62.5513C232.857 62.1232 232.758 61.7009 232.567 61.3177C232.376 60.9345 232.099 60.6008 231.757 60.343C231.415 60.0852 231.018 59.9102 230.597 59.8319C230.176 59.7535 229.742 59.774 229.331 59.8915Z" fill="#BFC4CC"/>
<path d="M241.036 59.8915C240.624 59.774 240.191 59.7535 239.77 59.8319C239.349 59.9102 238.952 60.0852 238.61 60.343C238.268 60.6008 237.991 60.9345 237.8 61.3177C237.609 61.7009 237.509 62.1232 237.509 62.5513C237.509 62.9795 237.609 63.4018 237.8 63.785C237.991 64.1682 238.268 64.5019 238.61 64.7597C238.952 65.0175 239.349 65.1925 239.77 65.2708C240.191 65.3492 240.624 65.3287 241.036 65.2112C241.614 65.046 242.123 64.6971 242.485 64.2172C242.847 63.7373 243.043 63.1525 243.043 62.5513C243.043 61.9502 242.847 61.3654 242.485 60.8855C242.123 60.4056 241.614 60.0567 241.036 59.8915Z" fill="#BFC4CC"/>
<path d="M252.688 59.8906C252.141 59.8906 251.606 60.0529 251.151 60.3568C250.696 60.6608 250.341 61.0928 250.132 61.5982C249.923 62.1037 249.868 62.6599 249.975 63.1965C250.081 63.7331 250.345 64.2259 250.732 64.6128C251.119 64.9997 251.612 65.2631 252.148 65.3699C252.685 65.4766 253.241 65.4218 253.747 65.2124C254.253 65.0031 254.685 64.6485 254.989 64.1936C255.293 63.7387 255.455 63.2039 255.455 62.6568C255.455 62.2936 255.383 61.9339 255.244 61.5982C255.105 61.2626 254.902 60.9577 254.645 60.7008C254.388 60.444 254.083 60.2402 253.747 60.1012C253.411 59.9622 253.052 59.8906 252.688 59.8906Z" fill="#BFC4CC"/>
<path d="M264.341 59.8906C263.793 59.8906 263.258 60.0529 262.803 60.3568C262.348 60.6608 261.994 61.0928 261.784 61.5982C261.575 62.1037 261.52 62.6599 261.627 63.1965C261.734 63.7331 261.997 64.2259 262.384 64.6128C262.771 64.9997 263.264 65.2631 263.801 65.3699C264.337 65.4766 264.894 65.4218 265.399 65.2124C265.905 65.0031 266.337 64.6485 266.641 64.1936C266.945 63.7387 267.107 63.2039 267.107 62.6568C267.107 61.9232 266.816 61.2196 266.297 60.7008C265.778 60.1821 265.074 59.8906 264.341 59.8906Z" fill="#BFC4CC"/>
<g style="mix-blend-mode:multiply" opacity="0.45">
<path d="M155.744 90.7942C170.855 91.805 228.053 94.7307 228.053 94.7307L237.684 81.6445H163.885L155.744 90.7942Z" fill="#9199A7"/>
</g>
<path d="M238.109 81.6485L210.973 84.1487C209.903 84.1923 208.858 84.496 207.931 85.0335C207.004 85.5711 206.222 86.3264 205.653 87.2341C205.256 88.0646 205.05 88.9734 205.05 89.8939C205.05 90.8143 205.256 91.7231 205.653 92.5537C206.165 93.6199 206.964 94.5227 207.96 95.1615C208.956 95.8002 210.11 96.1497 211.293 96.171L237.258 98.4052C239.173 98.4052 241.834 97.2349 241.834 95.5326L242.259 84.6275C242.103 83.6829 241.578 82.8389 240.8 82.2805C240.022 81.7221 239.055 81.4948 238.109 81.6485Z" fill="#E6E5E9"/>
<path d="M210.548 84.1447C209.526 84.1869 208.534 84.4934 207.666 85.0342C206.799 85.575 206.087 86.3317 205.599 87.2301C205.239 88.0707 205.054 88.9755 205.054 89.8899C205.054 90.8043 205.239 91.7092 205.599 92.5497C206.042 93.6024 206.78 94.5044 207.724 95.1464C208.668 95.7884 209.778 96.1429 210.92 96.167L234.651 98.6141C235.776 98.8283 236.931 98.8283 238.056 98.6141V81.6445H236.992L210.548 84.1447Z" fill="#838C9C"/>
<path d="M199.267 86.7575C198.355 87.7411 197.848 89.0332 197.848 90.3748C197.848 91.7164 198.355 93.0084 199.267 93.9921C199.668 94.5068 200.175 94.9297 200.753 95.2325C201.331 95.5353 201.968 95.7109 202.619 95.7476L211.345 96.2263V84.0977L202.3 85.2148C201.715 85.2463 201.143 85.3999 200.62 85.6656C200.098 85.9312 199.637 86.3032 199.267 86.7575Z" fill="#EBEBEB"/>
<g style="mix-blend-mode:multiply" opacity="0.35">
<path d="M226.19 82.6641L211.239 84.1004H210.334L202.194 85.1111C201.627 85.1569 201.075 85.3173 200.572 85.5825C200.069 85.8476 199.625 86.2121 199.267 86.6538C198.355 87.6374 197.848 88.9295 197.848 90.2711C197.848 91.6127 198.355 92.9047 199.267 93.8884C199.668 94.4031 200.175 94.826 200.753 95.1288C201.331 95.4316 201.968 95.6072 202.619 95.6439L210.707 96.1226L234.65 98.6229C235.775 98.8371 236.931 98.8371 238.056 98.6229C239.114 98.5115 240.115 98.0853 240.929 97.3994C231.671 96.8142 224.7 93.3033 226.19 82.6641Z" fill="#9199A7"/>
</g>
<path d="M171.546 74.2031L155.584 74.5223C154.733 74.9479 156.542 75.267 156.861 75.267L174.739 75.9586C175.537 75.267 174.047 74.4159 171.546 74.2031Z" fill="#6E788B"/>
<path d="M186.072 77.6562L170.109 78.0286C169.258 78.401 171.067 78.7202 171.386 78.7202L189.264 79.4117C190.062 78.7202 188.572 77.869 186.072 77.6562Z" fill="#6E788B"/>
</svg>
