<svg width="272" height="177" viewBox="0 0 272 177" fill="none" xmlns="http://www.w3.org/2000/svg">
<g style="mix-blend-mode:multiply" opacity="0.65">
<path d="M268.486 112.192V59.4746L223.046 20.0032H169.839V91.1262H152.706V73.3587V8.83203H7.66162V120.544V140.705H41.2357C41.1827 141.644 41.1827 142.585 41.2357 143.524C41.2357 152.215 44.6888 160.55 50.8355 166.695C56.9821 172.841 65.3189 176.293 74.0116 176.293C82.7043 176.293 91.041 172.841 97.1877 166.695C103.334 160.55 106.787 152.215 106.787 143.524C106.787 142.567 106.787 141.662 106.787 140.705H183.194C183.141 141.644 183.141 142.585 183.194 143.524C183.535 151.994 187.14 160.002 193.255 165.874C199.369 171.746 207.518 175.025 215.996 175.025C224.474 175.025 232.624 171.746 238.738 165.874C244.852 160.002 248.458 151.994 248.799 143.524C248.799 142.567 248.799 141.662 248.799 140.705H271.838V120.544H268.326L268.486 112.192Z" fill="#A7ACB8"/>
</g>
<path d="M264.336 111.652H0V131.867H264.336V111.652Z" fill="#202F4D"/>
<path d="M162.39 82.3477H140.788V111.712H162.39V82.3477Z" fill="#414E67"/>
<g style="mix-blend-mode:multiply">
<path d="M162.39 82.2865H158.772L145.151 104.948V65.4766H0V115.64H138.712L138.659 115.747H256.727L260.771 111.651V80.4778H162.39V82.2865Z" fill="#8A92A1"/>
</g>
<path d="M162.391 11.1758V111.663H260.772V50.6472L215.332 11.1758H162.391Z" fill="#A9AFBA"/>
<g style="mix-blend-mode:multiply" opacity="0.35">
<path d="M175.852 26.0586L174.203 27.4417V57.2314H233.795L235.445 55.8483L206.979 27.4417L175.852 26.0586Z" fill="#979597"/>
</g>
<g style="mix-blend-mode:multiply" opacity="0.35">
<path d="M176.065 64.2695L174.469 65.6526V84.5904H207.67C213.63 84.5904 218.312 88.0482 218.312 92.3038H233.849L235.498 90.9207L233.849 65.5994L176.065 64.2695Z" fill="#979597"/>
</g>
<path d="M175.853 26.0586V55.8484H235.445L208.628 26.0586H175.853Z" fill="#202F4D"/>
<path d="M176.065 83.3128H209.32C215.28 83.3128 219.962 86.7173 219.962 90.973H235.552V64.375H176.065V83.3128Z" fill="#CED1D7"/>
<path d="M187.824 67.7656H184.1C183.089 67.7656 182.237 68.3508 182.237 69.0955C182.237 69.7871 183.089 70.4254 184.1 70.4254H187.824C188.835 70.4254 189.686 69.7871 189.686 69.0955C189.686 68.3508 188.835 67.7656 187.824 67.7656Z" fill="#414E67"/>
<g style="mix-blend-mode:multiply" opacity="0.55">
<path d="M251.46 76.5508L250.821 77.1891V89.3709H260.133L260.771 88.7325L260.133 77.1891L251.46 76.5508Z" fill="#8A92A1"/>
</g>
<g style="mix-blend-mode:multiply" opacity="0.55">
<path d="M251.46 94.1523L250.821 94.7907V103.994H260.133L260.771 103.355L260.133 94.7907L251.46 94.1523Z" fill="#8A92A1"/>
</g>
<path d="M260.771 76.5508H251.46V88.7326H260.771V76.5508Z" fill="#F0AA44"/>
<path d="M260.771 94.1523H251.46V103.355H260.771V94.1523Z" fill="#C94C3B"/>
<path d="M145.31 0H0V111.658H145.31V0Z" fill="#218BB8"/>
<g style="mix-blend-mode:multiply" opacity="0.35">
<path d="M145.31 64.5234H0V111.655H145.31V64.5234Z" fill="#218BB8"/>
</g>
<g style="mix-blend-mode:multiply">
<path d="M0 93.1523V108.579H12.1313L14.5256 107.409V93.1523H12.1313H0Z" fill="#8A92A1"/>
</g>
<g style="mix-blend-mode:multiply">
<path d="M0 112.875V127.77H12.1313L14.5256 126.6V112.875H12.1313H0Z" fill="#8A92A1"/>
</g>
<path d="M14.5256 91.9727H0V107.4H14.5256V91.9727Z" fill="#F0AA44"/>
<path d="M14.5256 111.652H0V126.547H14.5256V111.652Z" fill="#C94C3B"/>
<g style="mix-blend-mode:multiply" opacity="0.55">
<path d="M14.5256 99.5781H0V107.398H14.5256V99.5781Z" fill="#F0AA44"/>
</g>
<g style="mix-blend-mode:multiply" opacity="0.55">
<path d="M14.5256 119.211H0V126.552H14.5256V119.211Z" fill="#C94C3B"/>
</g>
<path d="M66.1905 101.922C59.708 101.922 53.3711 103.844 47.9812 107.444C42.5912 111.045 38.3902 116.163 35.9095 122.151C33.4288 128.138 32.7797 134.727 34.0443 141.083C35.309 147.44 38.4306 153.279 43.0144 157.862C47.5982 162.444 53.4383 165.565 59.7962 166.83C66.1541 168.094 72.7443 167.445 78.7333 164.965C84.7223 162.485 89.8412 158.285 93.4426 152.896C97.0441 147.507 98.9664 141.172 98.9664 134.691C98.9664 126 95.5132 117.665 89.3666 111.52C83.2199 105.374 74.8832 101.922 66.1905 101.922Z" fill="#414E67"/>
<path d="M66.1376 153.792C76.6871 153.792 85.2391 145.242 85.2391 134.695C85.2391 124.148 76.6871 115.598 66.1376 115.598C55.5882 115.598 47.0361 124.148 47.0361 134.695C47.0361 145.242 55.5882 153.792 66.1376 153.792Z" fill="#C8CCD3"/>
<path d="M61.4551 102.289C62.9449 102.289 64.4879 102.289 66.1906 102.289C67.8932 102.289 69.5958 102.289 71.192 102.289C69.539 102.013 67.8665 101.871 66.1906 101.863C64.6042 101.897 63.022 102.039 61.4551 102.289Z" fill="#414E67"/>
<g style="mix-blend-mode:multiply">
<path d="M71.192 102.34C69.5958 102.34 67.9464 102.34 66.1906 102.34C64.4347 102.34 62.9449 102.34 61.4551 102.34C54.2862 103.375 47.6621 106.755 42.6179 111.952C37.5737 117.149 34.3935 123.87 33.5742 131.066H34.7448C36.9311 124.461 41.1437 118.714 46.7842 114.64C52.4246 110.567 59.2058 108.374 66.1639 108.374C73.1221 108.374 79.9033 110.567 85.5437 114.64C91.1841 118.714 95.3968 124.461 97.5831 131.066H98.7537C97.9591 123.914 94.828 117.223 89.8454 112.03C84.8628 106.837 78.3065 103.431 71.192 102.34Z" fill="#8A92A1"/>
</g>
<path d="M66.1899 90.5977C55.9965 90.5976 46.2197 94.6424 39.0069 101.844C31.794 109.045 27.7348 118.814 27.7207 129.005C27.7207 129.909 27.7207 130.814 27.7207 131.718H33.0415C33.6419 123.488 37.4076 115.809 43.5484 110.295C49.6892 104.78 57.7277 101.858 65.9771 102.141C74.1352 102.171 81.9968 105.203 88.0618 110.658C94.1267 116.113 97.9705 123.61 98.8595 131.718H104.18C104.18 130.814 104.18 129.909 104.18 129.005C104.181 118.892 100.192 109.187 93.0793 101.996C85.9667 94.8056 76.3045 90.7097 66.1899 90.5977Z" fill="#8A92A1"/>
<path d="M55.1762 123.68C53.0038 125.852 51.5244 128.62 50.9252 131.633C50.326 134.646 50.634 137.769 51.81 140.607C52.986 143.445 54.9774 145.871 57.5323 147.578C60.0872 149.284 63.0909 150.195 66.1636 150.195C69.2363 150.195 72.24 149.284 74.7949 147.578C77.3498 145.871 79.3412 143.445 80.5173 140.607C81.6933 137.769 82.0012 134.646 81.402 131.633C80.8028 128.62 79.3235 125.852 77.151 123.68C75.7083 122.237 73.9954 121.092 72.1101 120.312C70.2249 119.531 68.2042 119.129 66.1636 119.129C64.123 119.129 62.1024 119.531 60.2171 120.312C58.3319 121.092 56.619 122.237 55.1762 123.68Z" fill="#EAEAEA"/>
<path d="M207.989 101.922C201.506 101.922 195.169 103.844 189.78 107.444C184.39 111.045 180.189 116.163 177.708 122.151C175.227 128.138 174.578 134.727 175.843 141.083C177.107 147.44 180.229 153.279 184.813 157.862C189.397 162.444 195.237 165.565 201.595 166.83C207.953 168.094 214.543 167.445 220.532 164.965C226.521 162.485 231.64 158.285 235.241 152.896C238.843 147.507 240.765 141.172 240.765 134.691C240.765 126 237.312 117.665 231.165 111.52C225.018 105.374 216.682 101.922 207.989 101.922Z" fill="#414E67"/>
<path d="M207.883 153.792C218.432 153.792 226.984 145.242 226.984 134.695C226.984 124.148 218.432 115.598 207.883 115.598C197.333 115.598 188.781 124.148 188.781 134.695C188.781 145.242 197.333 153.792 207.883 153.792Z" fill="#C8CCD3"/>
<path d="M207.989 119.422C204.969 119.422 202.017 120.317 199.505 121.995C196.994 123.672 195.037 126.057 193.881 128.847C192.725 131.636 192.423 134.706 193.012 137.668C193.601 140.629 195.056 143.35 197.191 145.485C199.327 147.62 202.048 149.074 205.01 149.663C207.972 150.252 211.043 149.95 213.833 148.794C216.623 147.639 219.008 145.682 220.686 143.171C222.364 140.66 223.26 137.709 223.26 134.689C223.26 130.64 221.651 126.757 218.787 123.894C215.924 121.03 212.039 119.422 207.989 119.422Z" fill="#EAEAEA"/>
<path d="M203.201 102.289C204.69 102.289 206.233 102.289 207.883 102.289C209.532 102.289 211.288 102.289 212.884 102.289C211.231 102.013 209.559 101.871 207.883 101.863C206.314 101.895 204.749 102.037 203.201 102.289Z" fill="#414E67"/>
<g style="mix-blend-mode:multiply">
<path d="M212.884 102.34C211.288 102.34 209.639 102.34 207.883 102.34C206.127 102.34 204.69 102.34 203.201 102.34C196.028 103.366 189.399 106.744 184.353 111.942C179.308 117.141 176.13 123.867 175.32 131.066H176.437C178.623 124.461 182.836 118.714 188.477 114.64C194.117 110.567 200.898 108.374 207.856 108.374C214.815 108.374 221.596 110.567 227.236 114.64C232.877 118.714 237.089 124.461 239.275 131.066H240.446C239.651 123.914 236.52 117.223 231.538 112.03C226.555 106.837 219.999 103.431 212.884 102.34Z" fill="#8A92A1"/>
</g>
<path d="M207.989 90.5977C197.801 90.5977 188.029 94.6441 180.825 101.847C173.621 109.05 169.573 118.819 169.573 129.005C169.573 129.909 169.573 130.814 169.573 131.718H174.894C175.494 123.488 179.26 115.809 185.401 110.295C191.542 104.78 199.58 101.858 207.83 102.141C215.988 102.171 223.849 105.203 229.914 110.658C235.979 116.113 239.823 123.61 240.712 131.718H246.033C246.033 130.814 246.033 129.909 246.033 129.005C246.019 118.887 242.019 109.182 234.898 101.993C227.777 94.8038 218.109 90.7096 207.989 90.5977Z" fill="#8A92A1"/>
</svg>
