<svg width="359" height="175" viewBox="0 0 359 175" fill="none" xmlns="http://www.w3.org/2000/svg">
<g style="mix-blend-mode:multiply" opacity="0.65">
<path d="M264.816 51.2767H266.465L276.521 47.287L266.465 43.2973H221.718V19.3591L216.876 7.23047L212.034 19.3591V43.5633H178.992V51.2767H212.034V82.7156H185.856V61.9159H151.59V32.339H78.6421V54.6813H47.9944V103.462L9.09961 99.4191L29.0525 174.957H311.372L325.047 149.902L330.368 140.54H329.942L339.839 122.4L358.514 88.5139H264.816V51.2767ZM261.198 88.5139H253.323L237.839 109.792V83.1943H221.877V51.2767H261.357L261.198 88.5139Z" fill="#A7ACB8"/>
</g>
<path d="M142.491 25.1641H69.543V95.8615H142.491V25.1641Z" fill="#91989F"/>
<g style="mix-blend-mode:multiply" opacity="0.65">
<path d="M105.458 25.1641H69.543V95.8615H105.458V25.1641Z" fill="#C2C2C2"/>
</g>
<path d="M115.089 47.5625H38.8955V118.1H115.089V47.5625Z" fill="#F0AA44"/>
<path d="M115.089 68.5117H38.8955V91.0668H115.089V68.5117Z" fill="#797B6F"/>
<g style="mix-blend-mode:multiply" opacity="0.45">
<path d="M78.1628 47.5625H38.8955V118.1H78.1628V47.5625Z" fill="#C2C2C2"/>
</g>
<g style="mix-blend-mode:multiply" opacity="0.65">
<path d="M105.99 62.1872V84.7423V97.6689V117.085H167.658V97.6689V84.7423V54.793H115.089L105.99 62.1872Z" fill="#C2C2C2"/>
</g>
<path d="M176.757 54.793H115.089V117.085H176.757V54.793Z" fill="#218BB8"/>
<path d="M176.757 84.7383H115.089V97.6118H176.757V84.7383Z" fill="#EAEAEA"/>
<g style="mix-blend-mode:multiply" opacity="0.45">
<path d="M145.843 54.793H115.089V117.085H145.843V54.793Z" fill="#C2C2C2"/>
</g>
<g style="mix-blend-mode:multiply" opacity="0.65">
<path d="M157.921 83.4713V124.592H220.759V75.7578H165.849L157.921 83.4713Z" fill="#C2C2C2"/>
</g>
<path d="M228.741 75.7578H165.849V124.592H228.741V75.7578Z" fill="#727B84"/>
<g style="mix-blend-mode:multiply" opacity="0.45">
<path d="M197.242 75.7578H165.849V124.592H197.242V75.7578Z" fill="#C2C2C2"/>
</g>
<path d="M202.935 12.0755V117.563H212.618V12.0755L207.776 0L202.935 12.0755Z" fill="#202F4D"/>
<path d="M169.893 36.2812V44.3139H257.366L267.423 40.3242L257.366 36.2812H169.893Z" fill="#202F4D"/>
<path d="M255.717 40.2695H252.099V82.7731H255.717V40.2695Z" fill="#202F4D"/>
<path d="M217.619 117.67L49.5896 115.223L40.491 96.4983L0 92.2958L19.9529 167.834H302.273L349.415 81.3906H244.223L217.619 117.67Z" fill="#C1C5C9"/>
<path d="M35.4902 95.9609L42.5136 110.537L47.3555 110.643L40.4917 96.4929L35.4902 95.9609Z" fill="#C1C5C9"/>
<g style="mix-blend-mode:multiply" opacity="0.65">
<path d="M47.3555 110.654L49.5902 115.228L217.62 117.675L228.421 102.993V88.6836L210.597 112.994L47.3555 110.654Z" fill="#C2C2C2"/>
</g>
<path d="M19.9527 167.834H302.273L316.054 142.566H13.3018L19.9527 167.834Z" fill="#C94C3B"/>
<path d="M250.502 91.4492C249.144 91.4492 247.817 91.8517 246.689 92.6057C245.56 93.3597 244.68 94.4315 244.161 95.6854C243.641 96.9393 243.505 98.3191 243.77 99.6503C244.035 100.981 244.689 102.204 245.649 103.164C246.608 104.124 247.831 104.777 249.163 105.042C250.494 105.307 251.874 105.171 253.129 104.651C254.383 104.132 255.455 103.252 256.209 102.124C256.963 100.995 257.366 99.6687 257.366 98.3115C257.366 97.4103 257.188 96.518 256.843 95.6854C256.498 94.8528 255.993 94.0963 255.355 93.4591C254.718 92.8219 253.961 92.3164 253.129 91.9716C252.296 91.6267 251.403 91.4492 250.502 91.4492Z" fill="#DFE1E5"/>
<path d="M28.7861 120.856C27.4264 120.845 26.0942 121.239 24.9584 121.986C23.8227 122.734 22.9347 123.802 22.407 125.055C21.8793 126.308 21.7358 127.689 21.9946 129.024C22.2534 130.358 22.9029 131.586 23.8607 132.551C24.8184 133.516 26.0413 134.175 27.3742 134.444C28.7071 134.713 30.0899 134.581 31.3472 134.063C32.6045 133.545 33.6796 132.665 34.4362 131.536C35.1927 130.406 35.5967 129.077 35.5967 127.718C35.5968 125.907 34.8809 124.17 33.6052 122.884C32.3295 121.599 30.5973 120.87 28.7861 120.856Z" fill="#DFE1E5"/>
<path d="M53.4741 120.855C52.1166 120.855 50.7896 121.258 49.6608 122.012C48.5321 122.766 47.6523 123.838 47.1328 125.092C46.6133 126.346 46.4774 127.725 46.7422 129.056C47.0071 130.388 47.6608 131.61 48.6207 132.57C49.5806 133.53 50.8036 134.183 52.1351 134.448C53.4665 134.713 54.8466 134.577 56.1008 134.058C57.355 133.538 58.427 132.659 59.1812 131.53C59.9354 130.402 60.3379 129.075 60.3379 127.718C60.3379 125.898 59.6148 124.152 58.3276 122.865C57.0404 121.578 55.2945 120.855 53.4741 120.855Z" fill="#DFE1E5"/>
<path d="M78.1626 120.855C76.8051 120.855 75.4781 121.258 74.3493 122.012C73.2206 122.766 72.3408 123.838 71.8213 125.092C71.3018 126.346 71.1659 127.725 71.4307 129.056C71.6956 130.388 72.3493 131.61 73.3092 132.57C74.2691 133.53 75.4921 134.183 76.8236 134.448C78.155 134.713 79.5351 134.577 80.7893 134.058C82.0435 133.538 83.1154 132.659 83.8697 131.53C84.6239 130.402 85.0264 129.075 85.0264 127.718C85.0264 125.898 84.3033 124.152 83.0161 122.865C81.7288 121.578 79.983 120.855 78.1626 120.855Z" fill="#DFE1E5"/>
<path d="M102.851 120.855C101.493 120.855 100.166 121.258 99.0373 122.012C97.9085 122.766 97.0288 123.838 96.5093 125.092C95.9898 126.346 95.8539 127.725 96.1187 129.056C96.3835 130.388 97.0373 131.61 97.9972 132.57C98.9571 133.53 100.18 134.183 101.512 134.448C102.843 134.713 104.223 134.577 105.477 134.058C106.731 133.538 107.803 132.659 108.558 131.53C109.312 130.402 109.714 129.075 109.714 127.718C109.714 125.898 108.991 124.152 107.704 122.865C106.417 121.578 104.671 120.855 102.851 120.855Z" fill="#DFE1E5"/>
<path d="M127.54 120.856C126.178 120.835 124.84 121.22 123.698 121.961C122.555 122.702 121.659 123.766 121.123 125.018C120.587 126.27 120.436 127.653 120.689 128.991C120.941 130.329 121.586 131.562 122.542 132.532C123.497 133.502 124.72 134.167 126.054 134.44C127.389 134.714 128.774 134.584 130.035 134.068C131.295 133.552 132.373 132.673 133.132 131.542C133.891 130.411 134.297 129.08 134.297 127.719C134.297 125.917 133.589 124.187 132.324 122.903C131.06 121.62 129.341 120.884 127.54 120.856Z" fill="#DFE1E5"/>
<path d="M152.281 120.856C150.921 120.845 149.589 121.239 148.453 121.986C147.317 122.734 146.429 123.802 145.902 125.055C145.374 126.308 145.23 127.689 145.489 129.024C145.748 130.358 146.398 131.586 147.355 132.551C148.313 133.516 149.536 134.175 150.869 134.444C152.202 134.713 153.584 134.581 154.842 134.063C156.099 133.545 157.174 132.665 157.931 131.536C158.687 130.406 159.091 129.077 159.091 127.718C159.091 125.907 158.376 124.17 157.1 122.884C155.824 121.599 154.092 120.87 152.281 120.856Z" fill="#DFE1E5"/>
<path d="M176.863 120.855C175.506 120.855 174.179 121.258 173.05 122.012C171.921 122.766 171.042 123.838 170.522 125.092C170.002 126.346 169.867 127.725 170.131 129.056C170.396 130.388 171.05 131.61 172.01 132.57C172.97 133.53 174.193 134.183 175.524 134.448C176.856 134.713 178.236 134.577 179.49 134.058C180.744 133.538 181.816 132.659 182.57 131.53C183.325 130.402 183.727 129.075 183.727 127.718C183.727 125.898 183.004 124.152 181.717 122.865C180.43 121.578 178.684 120.855 176.863 120.855Z" fill="#DFE1E5"/>
<path d="M201.658 120.861C200.313 120.913 199.013 121.359 197.92 122.144C196.827 122.929 195.989 124.018 195.51 125.276C195.031 126.534 194.932 127.904 195.226 129.217C195.521 130.53 196.194 131.728 197.164 132.661C198.134 133.595 199.356 134.222 200.68 134.466C202.004 134.71 203.37 134.56 204.609 134.033C205.848 133.507 206.904 132.628 207.647 131.506C208.39 130.384 208.787 129.069 208.788 127.723C208.789 126.799 208.603 125.884 208.241 125.034C207.88 124.183 207.35 123.415 206.685 122.774C206.019 122.133 205.23 121.633 204.367 121.305C203.503 120.976 202.582 120.825 201.658 120.861Z" fill="#DFE1E5"/>
<path d="M269.657 91.4492C268.3 91.4492 266.973 91.8517 265.844 92.6057C264.715 93.3597 263.835 94.4315 263.316 95.6854C262.796 96.9393 262.661 98.3191 262.925 99.6503C263.19 100.981 263.844 102.204 264.804 103.164C265.764 104.124 266.987 104.777 268.318 105.042C269.65 105.307 271.03 105.171 272.284 104.651C273.538 104.132 274.61 103.252 275.364 102.124C276.118 100.995 276.521 99.6687 276.521 98.3115C276.521 96.4915 275.798 94.7461 274.511 93.4591C273.223 92.1722 271.478 91.4492 269.657 91.4492Z" fill="#DFE1E5"/>
<path d="M288.599 91.4492C287.242 91.4492 285.915 91.8517 284.786 92.6057C283.657 93.3597 282.777 94.4315 282.258 95.6854C281.738 96.9393 281.602 98.3191 281.867 99.6503C282.132 100.981 282.786 102.204 283.746 103.164C284.706 104.124 285.929 104.777 287.26 105.042C288.592 105.307 289.972 105.171 291.226 104.651C292.48 104.132 293.552 103.252 294.306 102.124C295.06 100.995 295.463 99.6687 295.463 98.3115C295.463 96.4915 294.74 94.7461 293.453 93.4591C292.165 92.1722 290.42 91.4492 288.599 91.4492Z" fill="#DFE1E5"/>
<path d="M307.966 91.4492C306.609 91.4492 305.282 91.8517 304.153 92.6057C303.024 93.3597 302.145 94.4315 301.625 95.6854C301.106 96.9393 300.97 98.3191 301.234 99.6503C301.499 100.981 302.153 102.204 303.113 103.164C304.073 104.124 305.296 104.777 306.627 105.042C307.959 105.307 309.339 105.171 310.593 104.651C311.847 104.132 312.919 103.252 313.673 102.124C314.428 100.995 314.83 99.6687 314.83 98.3115C314.83 97.4103 314.653 96.518 314.308 95.6854C313.963 94.8528 313.457 94.0963 312.82 93.4591C312.182 92.8219 311.426 92.3164 310.593 91.9716C309.76 91.6267 308.868 91.4492 307.966 91.4492Z" fill="#DFE1E5"/>
<path d="M327.175 91.4494C325.815 91.4389 324.483 91.8324 323.347 92.58C322.211 93.3276 321.323 94.3956 320.796 95.6485C320.268 96.9015 320.124 98.2829 320.383 99.6175C320.642 100.952 321.292 102.18 322.249 103.145C323.207 104.11 324.43 104.769 325.763 105.038C327.096 105.307 328.479 105.174 329.736 104.657C330.993 104.139 332.068 103.259 332.825 102.13C333.581 101 333.985 99.6712 333.985 98.3117C333.985 96.5009 333.27 94.7635 331.994 93.478C330.718 92.1926 328.986 91.4635 327.175 91.4494Z" fill="#DFE1E5"/>
<path d="M250.502 92.6758C249.387 92.6758 248.296 93.0065 247.369 93.6261C246.441 94.2457 245.718 95.1263 245.292 96.1567C244.865 97.187 244.753 98.3208 244.971 99.4146C245.188 100.508 245.725 101.513 246.514 102.302C247.303 103.09 248.308 103.627 249.402 103.845C250.496 104.063 251.63 103.951 252.661 103.524C253.691 103.097 254.572 102.375 255.192 101.447C255.812 100.52 256.142 99.4298 256.142 98.3145C256.142 96.819 255.548 95.3848 254.49 94.3274C253.433 93.2699 251.998 92.6758 250.502 92.6758Z" fill="#414E67"/>
<path d="M28.7855 122.082C27.67 122.082 26.5796 122.413 25.6521 123.032C24.7246 123.652 24.0017 124.533 23.5748 125.563C23.148 126.593 23.0363 127.727 23.2539 128.821C23.4715 129.915 24.0087 130.919 24.7974 131.708C25.5862 132.497 26.5912 133.034 27.6852 133.251C28.7793 133.469 29.9133 133.357 30.9439 132.93C31.9744 132.504 32.8553 131.781 33.475 130.854C34.0948 129.926 34.4255 128.836 34.4255 127.721C34.4117 126.23 33.813 124.803 32.7583 123.749C31.7036 122.694 30.277 122.096 28.7855 122.082Z" fill="#414E67"/>
<path d="M53.475 122.082C52.3595 122.082 51.2691 122.413 50.3416 123.032C49.4141 123.652 48.6912 124.533 48.2643 125.563C47.8374 126.593 47.7257 127.727 47.9433 128.821C48.161 129.915 48.6981 130.919 49.4869 131.708C50.2757 132.497 51.2806 133.034 52.3747 133.251C53.4687 133.469 54.6027 133.357 55.6333 132.93C56.6639 132.504 57.5447 131.781 58.1645 130.854C58.7842 129.926 59.115 128.836 59.115 127.721C59.115 126.225 58.5208 124.791 57.4631 123.734C56.4054 122.676 54.9708 122.082 53.475 122.082Z" fill="#414E67"/>
<path d="M78.1625 122.082C77.047 122.082 75.9566 122.413 75.0291 123.032C74.1016 123.652 73.3787 124.533 72.9518 125.563C72.5249 126.593 72.4132 127.727 72.6308 128.821C72.8485 129.915 73.3856 130.919 74.1744 131.708C74.9632 132.497 75.9681 133.034 77.0622 133.251C78.1562 133.469 79.2902 133.357 80.3208 132.93C81.3514 132.504 82.2322 131.781 82.852 130.854C83.4717 129.926 83.8025 128.836 83.8025 127.721C83.8025 126.225 83.2083 124.791 82.1506 123.734C81.0928 122.676 79.6583 122.082 78.1625 122.082Z" fill="#414E67"/>
<path d="M102.851 122.082C101.355 122.082 99.9206 122.676 98.8629 123.734C97.8052 124.791 97.2109 126.225 97.2109 127.721C97.2109 129.216 97.8052 130.651 98.8629 131.708C99.9206 132.766 101.355 133.36 102.851 133.36C104.347 133.36 105.781 132.766 106.839 131.708C107.897 130.651 108.491 129.216 108.491 127.721C108.491 126.225 107.897 124.791 106.839 123.734C105.781 122.676 104.347 122.082 102.851 122.082Z" fill="#414E67"/>
<path d="M127.539 122.082C126.044 122.082 124.609 122.676 123.551 123.734C122.494 124.791 121.899 126.225 121.899 127.721C121.899 129.216 122.494 130.651 123.551 131.708C124.609 132.766 126.044 133.36 127.539 133.36C129.035 133.36 130.47 132.766 131.528 131.708C132.585 130.651 133.179 129.216 133.179 127.721C133.179 126.225 132.585 124.791 131.528 123.734C130.47 122.676 129.035 122.082 127.539 122.082Z" fill="#414E67"/>
<path d="M152.281 122.082C151.165 122.082 150.075 122.413 149.147 123.032C148.22 123.652 147.497 124.533 147.07 125.563C146.643 126.593 146.531 127.727 146.749 128.821C146.967 129.915 147.504 130.919 148.293 131.708C149.081 132.497 150.086 133.034 151.18 133.251C152.274 133.469 153.408 133.357 154.439 132.93C155.47 132.504 156.35 131.781 156.97 130.854C157.59 129.926 157.921 128.836 157.921 127.721C157.921 126.225 157.326 124.791 156.269 123.734C155.211 122.676 153.776 122.082 152.281 122.082Z" fill="#414E67"/>
<path d="M176.863 122.082C175.748 122.082 174.657 122.413 173.73 123.032C172.802 123.652 172.079 124.533 171.652 125.563C171.226 126.593 171.114 127.727 171.332 128.821C171.549 129.915 172.086 130.919 172.875 131.708C173.664 132.497 174.669 133.034 175.763 133.251C176.857 133.469 177.991 133.357 179.022 132.93C180.052 132.504 180.933 131.781 181.553 130.854C182.172 129.926 182.503 128.836 182.503 127.721C182.503 126.225 181.909 124.791 180.851 123.734C179.794 122.676 178.359 122.082 176.863 122.082Z" fill="#414E67"/>
<path d="M201.658 122.082C200.542 122.082 199.452 122.413 198.524 123.032C197.597 123.652 196.874 124.533 196.447 125.563C196.02 126.593 195.908 127.727 196.126 128.821C196.344 129.915 196.881 130.919 197.669 131.708C198.458 132.497 199.463 133.034 200.557 133.251C201.651 133.469 202.785 133.357 203.816 132.93C204.846 132.504 205.727 131.781 206.347 130.854C206.967 129.926 207.298 128.836 207.298 127.721C207.298 126.225 206.703 124.791 205.646 123.734C204.588 122.676 203.153 122.082 201.658 122.082Z" fill="#414E67"/>
<path d="M269.657 92.6758C268.542 92.6758 267.451 93.0065 266.524 93.6261C265.596 94.2457 264.873 95.1263 264.446 96.1567C264.02 97.187 263.908 98.3208 264.125 99.4146C264.343 100.508 264.88 101.513 265.669 102.302C266.458 103.09 267.463 103.627 268.557 103.845C269.651 104.063 270.785 103.951 271.815 103.524C272.846 103.097 273.727 102.375 274.347 101.447C274.966 100.52 275.297 99.4298 275.297 98.3145C275.297 96.819 274.703 95.3848 273.645 94.3274C272.587 93.2699 271.153 92.6758 269.657 92.6758Z" fill="#414E67"/>
<path d="M288.599 92.6758C287.103 92.6758 285.669 93.2699 284.611 94.3274C283.553 95.3848 282.959 96.819 282.959 98.3145C282.959 99.81 283.553 101.244 284.611 102.302C285.669 103.359 287.103 103.953 288.599 103.953C290.095 103.953 291.529 103.359 292.587 102.302C293.645 101.244 294.239 99.81 294.239 98.3145C294.239 96.819 293.645 95.3848 292.587 94.3274C291.529 93.2699 290.095 92.6758 288.599 92.6758Z" fill="#414E67"/>
<path d="M307.966 92.6758C306.47 92.6758 305.036 93.2699 303.978 94.3274C302.92 95.3848 302.326 96.819 302.326 98.3145C302.326 99.81 302.92 101.244 303.978 102.302C305.036 103.359 306.47 103.953 307.966 103.953C309.462 103.953 310.897 103.359 311.954 102.302C313.012 101.244 313.606 99.81 313.606 98.3145C313.606 96.819 313.012 95.3848 311.954 94.3274C310.897 93.2699 309.462 92.6758 307.966 92.6758Z" fill="#414E67"/>
<path d="M327.175 92.6758C326.06 92.6758 324.969 93.0065 324.042 93.6261C323.114 94.2457 322.391 95.1263 321.965 96.1567C321.538 97.187 321.426 98.3208 321.644 99.4146C321.861 100.508 322.398 101.513 323.187 102.302C323.976 103.09 324.981 103.627 326.075 103.845C327.169 104.063 328.303 103.951 329.334 103.524C330.364 103.097 331.245 102.375 331.865 101.447C332.484 100.52 332.815 99.4298 332.815 98.3145C332.801 96.8233 332.203 95.3971 331.148 94.3427C330.093 93.2882 328.667 92.6897 327.175 92.6758Z" fill="#414E67"/>
<path d="M245.608 97.5681C245.596 96.2567 246.07 94.9874 246.938 94.0039C246.279 94.5104 245.749 95.1638 245.389 95.9121C245.028 96.6603 244.848 97.4825 244.863 98.3128C244.856 99.0553 244.997 99.7918 245.277 100.479C245.558 101.166 245.974 101.791 246.499 102.316C247.024 102.841 247.648 103.256 248.336 103.537C249.023 103.818 249.76 103.959 250.503 103.952C251.333 103.966 252.156 103.786 252.904 103.426C253.652 103.066 254.306 102.535 254.812 101.877C253.829 102.744 252.559 103.218 251.248 103.207C249.756 103.193 248.33 102.594 247.275 101.54C246.22 100.485 245.621 99.0593 245.608 97.5681Z" fill="#263552"/>
<path d="M23.8916 126.974C23.8657 125.67 24.3202 124.401 25.1686 123.41C24.2553 124.14 23.5939 125.138 23.2776 126.263C22.9614 127.388 23.0062 128.584 23.4057 129.683C23.8052 130.781 24.5394 131.727 25.5047 132.386C26.47 133.045 27.6179 133.385 28.7867 133.358C29.6535 133.365 30.509 133.16 31.2786 132.762C32.0483 132.363 32.7089 131.782 33.203 131.07C32.2192 131.938 30.9497 132.411 29.638 132.4C28.1601 132.429 26.7298 131.877 25.6551 130.862C24.5804 129.847 23.9471 128.451 23.8916 126.974Z" fill="#263552"/>
<path d="M48.5792 126.974C48.568 125.663 49.0418 124.394 49.9094 123.41C49.2511 123.917 48.7206 124.57 48.3602 125.318C47.9999 126.067 47.8198 126.889 47.8343 127.719C47.8272 128.462 47.9682 129.198 48.2492 129.885C48.5301 130.573 48.9453 131.197 49.4704 131.722C49.9955 132.247 50.6201 132.662 51.3076 132.943C51.9951 133.224 52.7317 133.365 53.4743 133.358C54.3048 133.372 55.1272 133.192 55.8756 132.832C56.624 132.472 57.2776 131.941 57.7841 131.283C56.8004 132.151 55.5309 132.624 54.2192 132.613C52.7277 132.599 51.3012 132.001 50.2465 130.946C49.1918 129.892 48.5931 128.465 48.5792 126.974Z" fill="#263552"/>
<path d="M73.2672 126.974C73.256 125.663 73.7297 124.394 74.5974 123.41C73.9391 123.917 73.4086 124.57 73.0482 125.318C72.6879 126.067 72.5078 126.889 72.5223 127.719C72.5152 128.462 72.6562 129.198 72.9372 129.885C73.2181 130.573 73.6332 131.197 74.1584 131.722C74.6835 132.247 75.3081 132.662 75.9956 132.943C76.6831 133.224 77.4197 133.365 78.1623 133.358C78.9928 133.372 79.8152 133.192 80.5636 132.832C81.3119 132.472 81.9656 131.941 82.4721 131.283C81.4884 132.151 80.2189 132.624 78.9072 132.613C77.4157 132.599 75.9892 132.001 74.9345 130.946C73.8798 129.892 73.2811 128.465 73.2672 126.974Z" fill="#263552"/>
<path d="M98.0094 126.974C97.9835 125.67 98.4379 124.401 99.2864 123.41C98.6281 123.917 98.0975 124.57 97.7372 125.318C97.3769 126.067 97.1967 126.889 97.2113 127.719C97.2131 128.881 97.5741 130.014 98.2448 130.963C98.9154 131.913 99.863 132.631 100.958 133.021C102.053 133.412 103.242 133.454 104.361 133.143C105.481 132.832 106.478 132.182 107.214 131.283C106.209 132.115 104.953 132.583 103.649 132.613C102.154 132.613 100.719 132.019 99.6613 130.961C98.6036 129.904 98.0094 128.47 98.0094 126.974Z" fill="#263552"/>
<path d="M122.697 126.974C122.671 125.67 123.126 124.401 123.974 123.41C123.274 123.878 122.688 124.497 122.259 125.221C121.829 125.945 121.567 126.755 121.492 127.594C121.417 128.432 121.531 129.276 121.824 130.065C122.118 130.854 122.585 131.567 123.19 132.152C123.796 132.737 124.524 133.179 125.323 133.445C126.121 133.712 126.969 133.797 127.805 133.693C128.64 133.589 129.442 133.3 130.151 132.846C130.86 132.392 131.458 131.786 131.902 131.07C131.137 131.91 130.124 132.483 129.01 132.705C127.896 132.928 126.74 132.788 125.712 132.307C124.683 131.825 123.835 131.027 123.293 130.029C122.751 129.032 122.542 127.886 122.697 126.762V126.974Z" fill="#263552"/>
<path d="M147.386 126.974C147.36 125.67 147.815 124.401 148.663 123.41C147.781 124.155 147.149 125.152 146.851 126.267C146.554 127.382 146.606 128.561 147.001 129.646C147.395 130.731 148.113 131.668 149.057 132.332C150.002 132.996 151.127 133.354 152.281 133.358C153.112 133.372 153.934 133.192 154.683 132.832C155.431 132.472 156.085 131.941 156.591 131.283C155.607 132.151 154.338 132.624 153.026 132.613C151.53 132.613 150.096 132.019 149.038 130.961C147.98 129.904 147.386 128.47 147.386 126.974Z" fill="#263552"/>
<path d="M172.074 126.974C172.063 125.663 172.536 124.394 173.404 123.41C172.746 123.917 172.215 124.57 171.855 125.318C171.495 126.067 171.314 126.889 171.329 127.719C171.322 128.453 171.459 129.18 171.734 129.861C172.008 130.541 172.414 131.161 172.928 131.684C173.441 132.208 174.053 132.625 174.729 132.912C175.404 133.199 176.129 133.351 176.863 133.358C177.693 133.372 178.515 133.192 179.264 132.832C180.012 132.472 180.666 131.941 181.172 131.283C180.189 132.151 178.919 132.624 177.607 132.613C176.135 132.572 174.735 131.961 173.703 130.91C172.671 129.858 172.087 128.447 172.074 126.974Z" fill="#263552"/>
<path d="M196.762 126.974C196.751 125.663 197.225 124.394 198.093 123.41C197.434 123.917 196.904 124.57 196.543 125.318C196.183 126.067 196.003 126.889 196.017 127.719C196.019 128.881 196.38 130.014 197.051 130.963C197.722 131.913 198.669 132.631 199.764 133.021C200.859 133.412 202.048 133.454 203.168 133.143C204.288 132.832 205.284 132.182 206.02 131.283C205.001 132.126 203.725 132.595 202.402 132.613C200.911 132.599 199.484 132.001 198.43 130.946C197.375 129.892 196.776 128.466 196.762 126.974Z" fill="#263552"/>
<path d="M264.761 97.5681C264.75 96.2567 265.224 94.9874 266.092 94.0039C265.433 94.5104 264.903 95.1638 264.542 95.9121C264.182 96.6603 264.002 97.4825 264.016 98.3128C264.009 99.0553 264.15 99.7918 264.431 100.479C264.712 101.166 265.127 101.791 265.653 102.316C266.178 102.841 266.802 103.256 267.49 103.537C268.177 103.818 268.914 103.959 269.656 103.952C270.487 103.966 271.309 103.786 272.058 103.426C272.806 103.066 273.46 102.535 273.966 101.877C272.983 102.744 271.713 103.218 270.401 103.207C268.91 103.193 267.483 102.594 266.429 101.54C265.374 100.485 264.775 99.0593 264.761 97.5681Z" fill="#263552"/>
<path d="M283.97 97.568C283.944 96.2636 284.398 94.9952 285.247 94.0039C284.589 94.5103 284.058 95.1638 283.698 95.9121C283.337 96.6603 283.157 97.4825 283.172 98.3128C283.174 99.4749 283.535 100.608 284.205 101.557C284.876 102.506 285.823 103.225 286.918 103.615C288.013 104.005 289.202 104.048 290.322 103.737C291.442 103.425 292.438 102.776 293.175 101.877C292.156 102.72 290.879 103.189 289.557 103.207C288.07 103.193 286.649 102.593 285.603 101.537C284.557 100.481 283.97 99.0544 283.97 97.568Z" fill="#263552"/>
<path d="M303.124 97.5636C303.102 96.183 303.617 94.8476 304.561 93.8398C303.92 94.3285 303.392 94.9487 303.011 95.6586C302.63 96.3686 302.406 97.1519 302.354 97.9558C302.301 98.7597 302.422 99.5654 302.707 100.319C302.992 101.072 303.435 101.756 304.007 102.324C304.579 102.891 305.266 103.33 306.021 103.61C306.776 103.89 307.583 104.005 308.387 103.947C309.191 103.889 309.973 103.66 310.68 103.275C311.388 102.889 312.004 102.357 312.489 101.713C311.484 102.544 310.228 103.013 308.924 103.043C308.183 103.064 307.445 102.939 306.753 102.675C306.061 102.411 305.427 102.014 304.888 101.505C304.35 100.996 303.917 100.386 303.614 99.7097C303.311 99.0334 303.145 98.3042 303.124 97.5636Z" fill="#263552"/>
<path d="M322.279 97.5681C322.253 96.2636 322.708 94.9952 323.556 94.0039C322.643 94.7336 321.982 95.7313 321.665 96.8566C321.349 97.9818 321.394 99.1779 321.793 100.276C322.193 101.375 322.927 102.32 323.892 102.98C324.858 103.639 326.006 103.979 327.174 103.952C328.005 103.966 328.827 103.786 329.576 103.426C330.324 103.066 330.978 102.535 331.484 101.877C330.501 102.744 329.231 103.218 327.919 103.207C326.423 103.207 324.989 102.613 323.931 101.555C322.874 100.498 322.279 99.0636 322.279 97.5681Z" fill="#263552"/>
<path d="M247.257 124.585H325.472L330.953 115.223H247.257V124.585Z" fill="#C94C3B"/>
<path d="M247.257 142.726H316.054L321.535 133.363H247.257V142.726Z" fill="#F0AA44"/>
</svg>
