<svg width="377" height="124" viewBox="0 0 377 124" fill="none" xmlns="http://www.w3.org/2000/svg">
<g style="mix-blend-mode:multiply" opacity="0.65">
<path d="M324.674 7.60547H169.786V14.8933H159.783V7.60547H8.30078V85.4312H45.5462H40.6511V90.4316H35.3303V95.432H30.0095V100.432H56.6134V102.72H68.2126V95.698H69.4896V94.2085H92.1561V100.113C91.6773 99.6941 91.1608 99.3202 90.6131 98.9962C90.0965 98.7161 89.5634 98.4674 89.0169 98.2514H88.3251C87.926 98.1139 87.5169 98.0071 87.1014 97.9322C86.3941 97.8536 85.6803 97.8536 84.973 97.9322C84.1949 97.8487 83.4101 97.8487 82.632 97.9322C80.0178 98.4716 77.6697 99.896 75.9837 101.965C74.2978 104.034 73.3773 106.621 73.3773 109.29C73.3773 111.958 74.2978 114.545 75.9837 116.614C77.6697 118.683 80.0178 120.107 82.632 120.647C83.4101 120.73 84.1949 120.73 84.973 120.647C86.5086 120.65 88.0289 120.342 89.4425 119.743C91.5556 118.887 93.3613 117.413 94.6238 115.515C95.8863 113.617 96.5469 111.383 96.5192 109.103C96.5478 108.696 96.5478 108.287 96.5192 107.88H97.4769C97.4769 107.88 97.4769 107.88 97.4769 108.199C97.482 109.051 97.7368 109.883 98.2096 110.592C98.6824 111.301 99.3525 111.856 100.137 112.189C100.66 112.406 101.221 112.515 101.787 112.508C102.36 112.511 102.929 112.4 103.458 112.181C103.988 111.961 104.469 111.639 104.873 111.231C105.658 110.417 106.097 109.33 106.096 108.199C106.096 108.199 106.096 108.199 106.096 107.88H107.533C107.533 107.88 107.533 107.88 107.533 108.199C107.533 109.342 107.987 110.438 108.795 111.246C109.604 112.054 110.7 112.508 111.843 112.508C112.986 112.508 114.082 112.054 114.89 111.246C115.699 110.438 116.153 109.342 116.153 108.199C116.153 108.199 116.153 108.199 116.153 107.88H117.802C117.774 108.287 117.774 108.696 117.802 109.103C117.802 110.624 118.103 112.129 118.686 113.533C119.27 114.937 120.125 116.212 121.203 117.285C122.281 118.357 123.56 119.207 124.967 119.784C126.374 120.36 127.881 120.654 129.401 120.647C130.937 120.65 132.457 120.342 133.871 119.743C136.428 118.719 138.538 116.819 139.822 114.382C141.106 111.945 141.481 109.131 140.88 106.444C140.278 103.756 138.739 101.37 136.538 99.713C134.338 98.0561 131.619 97.2362 128.869 97.4003C128.162 97.3189 127.448 97.3189 126.741 97.4003H126.103L124.772 97.8258H124.134C123.54 98.0752 122.97 98.3778 122.431 98.7302V93.4106H144.246V102.188H156.005V84.6332H159.943V82.0266H169.946V84.6332H183.301V102.188H194.953V94.2085H218.897V100.113C218.418 99.6941 217.901 99.3202 217.354 98.9962C216.837 98.7161 216.304 98.4674 215.758 98.2514H215.066C214.667 98.1139 214.258 98.0071 213.842 97.9322C213.117 97.851 212.386 97.851 211.661 97.9322C210.125 97.9293 208.605 98.2369 207.191 98.8365C205.091 99.7105 203.297 101.188 202.037 103.082C200.778 104.976 200.108 107.201 200.114 109.476C200.11 112.541 201.315 115.484 203.467 117.668C204.552 118.699 205.814 119.528 207.191 120.115C208.605 120.715 210.125 121.022 211.661 121.019C213.187 121.048 214.704 120.769 216.121 120.2C217.538 119.631 218.825 118.782 219.908 117.705C220.99 116.629 221.844 115.345 222.42 113.931C222.996 112.517 223.282 111.002 223.26 109.476C223.289 109.068 223.289 108.66 223.26 108.252H225.016C225.016 108.252 225.016 108.252 225.016 108.571C225.016 109.714 225.47 110.81 226.278 111.618C227.086 112.426 228.183 112.88 229.326 112.88C230.469 112.88 231.565 112.426 232.373 111.618C233.181 110.81 233.635 109.714 233.635 108.571C233.635 108.571 233.635 108.571 233.635 108.252H235.072C235.072 108.252 235.072 108.252 235.072 108.571C235.19 109.638 235.698 110.624 236.498 111.341C237.298 112.057 238.335 112.453 239.408 112.453C240.482 112.453 241.518 112.057 242.318 111.341C243.119 110.624 243.626 109.638 243.745 108.571C243.768 108.466 243.768 108.357 243.745 108.252H245.447C245.419 108.66 245.419 109.068 245.447 109.476C245.42 111.755 246.08 113.99 247.343 115.888C248.605 117.786 250.411 119.259 252.524 120.115C253.948 120.71 255.477 121.017 257.02 121.017C258.564 121.017 260.092 120.71 261.516 120.115C263.629 119.259 265.435 117.786 266.698 115.888C267.96 113.99 268.621 111.755 268.593 109.476C268.674 107.836 268.404 106.199 267.802 104.672C267.199 103.145 266.278 101.764 265.1 100.622C263.922 99.479 262.513 98.6005 260.969 98.045C259.424 97.4895 257.779 97.2697 256.142 97.4003C255.453 97.3216 254.757 97.3216 254.067 97.4003H253.429L252.098 97.8258H251.407C250.835 98.086 250.284 98.3883 249.757 98.7302V93.4106H271.572V102.188H283.172V84.6332H296.527L303.976 92.8786L312.915 102.986H349.575L357.556 89.8996L358.461 88.3038L360.749 84.6332L370.645 68.4085L375.168 61.4398L375.54 60.9078L376.179 59.8439L341.7 24.3622L324.674 7.60547Z" fill="#A7ACB8"/>
</g>
<path d="M289.875 0V77.7725L306.37 96.1783H342.924L367.665 55.5898L312.648 0H289.875Z" fill="#218BB8"/>
<path d="M169.254 7.23438H149.194V75.2188H169.254V7.23438Z" fill="#202F4D"/>
<path d="M153.079 0H1.59668V77.7725H153.079V0Z" fill="#218BB8"/>
<path d="M153.079 61.6523H1.59668V77.7708H153.079V61.6523Z" fill="#E0E0E0"/>
<path d="M289.875 0H163.135V77.7725H289.875V0Z" fill="#218BB8"/>
<path d="M163.135 61.6523V77.7707H289.982L306.263 96.1765H320.31L289.769 61.6523H163.135Z" fill="#E0E0E0"/>
<g style="mix-blend-mode:multiply" opacity="0.45">
<path d="M153.079 69.8867H1.59668V77.7597H153.079V69.8867Z" fill="#B5B5B5"/>
</g>
<g style="mix-blend-mode:multiply" opacity="0.45">
<path d="M163.135 69.9453V77.7651H289.982L306.263 96.1709H320.31L297.059 69.9453H163.135Z" fill="#B5B5B5"/>
</g>
<path d="M153.079 0H1.59668V17.5015H153.079V0Z" fill="#F0AA44"/>
<path d="M289.875 0H163.135V17.5015H289.875V0Z" fill="#F0AA44"/>
<path d="M49.1641 95.3696H60.7634V86.539H137.542V95.3696H149.194V77.7617H49.1641V95.3696Z" fill="#202F4D"/>
<path d="M77.3634 89.7305C75.0693 89.7305 72.8267 90.4106 70.9192 91.6849C69.0117 92.9591 67.525 94.7703 66.6471 96.8893C65.7692 99.0083 65.5395 101.34 65.987 103.59C66.4346 105.839 67.5393 107.905 69.1615 109.527C70.7837 111.149 72.8505 112.254 75.1005 112.701C77.3506 113.149 79.6827 112.919 81.8022 112.041C83.9217 111.163 85.7333 109.677 87.0079 107.77C88.2824 105.863 88.9626 103.621 88.9626 101.327C88.9487 98.2558 87.7221 95.3143 85.5499 93.1425C83.3776 90.9707 80.4354 89.7445 77.3634 89.7305Z" fill="#202F4D"/>
<path d="M122.165 89.7305C119.871 89.7305 117.628 90.4106 115.72 91.6849C113.813 92.9591 112.326 94.7703 111.448 96.8893C110.57 99.0083 110.341 101.34 110.788 103.59C111.236 105.839 112.341 107.905 113.963 109.527C115.585 111.149 117.652 112.254 119.902 112.701C122.152 113.149 124.484 112.919 126.603 112.041C128.723 111.163 130.535 109.677 131.809 107.77C133.084 105.863 133.764 103.621 133.764 101.327C133.75 98.2558 132.523 95.3143 130.351 93.1425C128.179 90.9707 125.237 89.7445 122.165 89.7305Z" fill="#202F4D"/>
<path d="M94.8693 96.1292C94.0042 96.1187 93.1556 96.3655 92.4311 96.8384C91.7066 97.3112 91.1392 97.9888 90.8008 98.7848C90.4624 99.5809 90.3683 100.46 90.5306 101.309C90.6929 102.159 91.1042 102.941 91.7122 103.556C92.3202 104.172 93.0975 104.593 93.9452 104.765C94.793 104.938 95.6729 104.855 96.4733 104.526C97.2736 104.198 97.9582 103.639 98.44 102.92C98.9218 102.202 99.1791 101.356 99.1792 100.491C99.1793 99.3436 98.7269 98.242 97.9201 97.4255C97.1134 96.609 96.0172 96.1432 94.8693 96.1292Z" fill="#202F4D"/>
<path d="M104.765 96.1292C103.9 96.1187 103.052 96.3655 102.327 96.8384C101.603 97.3112 101.035 97.9888 100.697 98.7848C100.358 99.5809 100.264 100.46 100.427 101.309C100.589 102.159 101 102.941 101.608 103.556C102.216 104.172 102.994 104.593 103.841 104.765C104.689 104.938 105.569 104.855 106.369 104.526C107.17 104.198 107.854 103.639 108.336 102.92C108.818 102.202 109.075 101.356 109.075 100.491C109.075 99.3436 108.623 98.242 107.816 97.4255C107.009 96.609 105.913 96.1432 104.765 96.1292Z" fill="#202F4D"/>
<path d="M115.726 86.5469H84.7061V100.112H115.726V86.5469Z" fill="#202F4D"/>
<path d="M176.489 95.3696H188.088V86.539H264.867V95.3696H276.52V77.7617H176.489V95.3696Z" fill="#202F4D"/>
<path d="M204.69 89.7305C202.396 89.7305 200.153 90.4106 198.246 91.6849C196.338 92.9591 194.852 94.7703 193.974 96.8893C193.096 99.0083 192.866 101.34 193.314 103.59C193.761 105.839 194.866 107.905 196.488 109.527C198.11 111.149 200.177 112.254 202.427 112.701C204.677 113.149 207.01 112.919 209.129 112.041C211.248 111.163 213.06 109.677 214.335 107.77C215.609 105.863 216.289 103.621 216.289 101.327C216.275 98.2558 215.049 95.3143 212.877 93.1425C210.704 90.9707 207.762 89.7445 204.69 89.7305Z" fill="#202F4D"/>
<path d="M249.491 89.7305C247.197 89.7305 244.954 90.4106 243.047 91.6849C241.139 92.9591 239.652 94.7703 238.775 96.8893C237.897 99.0083 237.667 101.34 238.114 103.59C238.562 105.839 239.667 107.905 241.289 109.527C242.911 111.149 244.978 112.254 247.228 112.701C249.478 113.149 251.81 112.919 253.93 112.041C256.049 111.163 257.861 109.677 259.135 107.77C260.41 105.863 261.09 103.621 261.09 101.327C261.076 98.2558 259.85 95.3143 257.677 93.1425C255.505 90.9707 252.563 89.7445 249.491 89.7305Z" fill="#202F4D"/>
<path d="M77.3634 96.4414C76.3953 96.4414 75.4488 96.7284 74.6438 97.2662C73.8388 97.804 73.2114 98.5683 72.8409 99.4626C72.4704 100.357 72.3734 101.341 72.5623 102.29C72.7512 103.24 73.2174 104.112 73.902 104.796C74.5866 105.48 75.4588 105.947 76.4084 106.135C77.358 106.324 78.3422 106.227 79.2367 105.857C80.1312 105.486 80.8957 104.859 81.4336 104.054C81.9715 103.25 82.2585 102.303 82.2585 101.335C82.2585 100.037 81.7428 98.7926 80.8248 97.8748C79.9068 96.957 78.6617 96.4414 77.3634 96.4414Z" fill="#7F9087"/>
<path d="M122.165 96.4414C121.197 96.4414 120.251 96.7284 119.446 97.2662C118.641 97.804 118.013 98.5683 117.643 99.4626C117.272 100.357 117.175 101.341 117.364 102.29C117.553 103.24 118.019 104.112 118.704 104.796C119.388 105.48 120.261 105.947 121.21 106.135C122.16 106.324 123.144 106.227 124.038 105.857C124.933 105.486 125.697 104.859 126.235 104.054C126.773 103.25 127.06 102.303 127.06 101.335C127.06 100.037 126.544 98.7926 125.626 97.8748C124.708 96.957 123.463 96.4414 122.165 96.4414Z" fill="#7F9087"/>
<path d="M204.69 96.4414C203.722 96.4414 202.775 96.7284 201.97 97.2662C201.165 97.804 200.538 98.5683 200.168 99.4626C199.797 100.357 199.7 101.341 199.889 102.29C200.078 103.24 200.544 104.112 201.229 104.796C201.913 105.48 202.785 105.947 203.735 106.135C204.685 106.324 205.669 106.227 206.563 105.857C207.458 105.486 208.222 104.859 208.76 104.054C209.298 103.25 209.585 102.303 209.585 101.335C209.585 100.037 209.069 98.7926 208.151 97.8748C207.233 96.957 205.988 96.4414 204.69 96.4414Z" fill="#7F9087"/>
<path d="M249.491 96.4414C248.523 96.4414 247.576 96.7284 246.771 97.2662C245.966 97.804 245.339 98.5683 244.968 99.4626C244.598 100.357 244.501 101.341 244.69 102.29C244.879 103.24 245.345 104.112 246.029 104.796C246.714 105.48 247.586 105.947 248.536 106.135C249.485 106.324 250.47 106.227 251.364 105.857C252.259 105.486 253.023 104.859 253.561 104.054C254.099 103.25 254.386 102.303 254.386 101.335C254.386 100.037 253.87 98.7926 252.952 97.8748C252.034 96.957 250.789 96.4414 249.491 96.4414Z" fill="#7F9087"/>
<path d="M222.195 96.1292C221.33 96.1187 220.481 96.3655 219.757 96.8384C219.032 97.3112 218.465 97.9888 218.126 98.7848C217.788 99.5809 217.694 100.46 217.856 101.309C218.019 102.159 218.43 102.941 219.038 103.556C219.646 104.172 220.423 104.593 221.271 104.765C222.119 104.938 222.999 104.855 223.799 104.526C224.599 104.198 225.284 103.639 225.766 102.92C226.248 102.202 226.505 101.356 226.505 100.491C226.505 99.3436 226.053 98.242 225.246 97.4255C224.439 96.609 223.343 96.1432 222.195 96.1292Z" fill="#202F4D"/>
<path d="M232.092 96.1292C231.227 96.1187 230.378 96.3655 229.654 96.8384C228.929 97.3112 228.362 97.9888 228.023 98.7848C227.685 99.5809 227.591 100.46 227.753 101.309C227.916 102.159 228.327 102.941 228.935 103.556C229.543 104.172 230.32 104.593 231.168 104.765C232.016 104.938 232.896 104.855 233.696 104.526C234.496 104.198 235.181 103.639 235.663 102.92C236.145 102.202 236.402 101.356 236.402 100.491C236.402 99.3436 235.95 98.242 235.143 97.4255C234.336 96.609 233.24 96.1432 232.092 96.1292Z" fill="#202F4D"/>
<path d="M243.052 86.5469H212.032V100.112H243.052V86.5469Z" fill="#202F4D"/>
<path d="M300.464 26.375V54.7284H341.806L317.331 26.375H300.464Z" fill="#202F4D"/>
<path d="M317.383 77.7657H354.15L362.184 64.2539H317.383V77.7657Z" fill="#A62111"/>
<path d="M317.383 83.0857H350.904L352.926 79.7344H317.383V83.0857Z" fill="#E0E0E0"/>
<path d="M345.637 112.938H0V123.949H345.637V112.938Z" fill="#414E67"/>
<path d="M318.022 0H313.5H289.875V17.4483H317.81L362.717 63.6224L369.581 52.9832L335.049 17.4483L318.022 0Z" fill="#F0AA44"/>
<path d="M153.186 50.2656H1.59668V54.6809H153.186V50.2656Z" fill="#A62111"/>
<path d="M300.41 50.2656H162.975V54.6809H300.41V50.2656Z" fill="#A62111"/>
<path d="M153.186 26.375H1.59668V28.9816H153.186V26.375Z" fill="#EAEAEA"/>
<path d="M300.41 26.375H162.975V28.9816H300.41V26.375Z" fill="#EAEAEA"/>
<path d="M77.3641 34.832H38.7354V78.0272H77.3641V34.832Z" fill="#9097A6"/>
<path d="M74.3303 38.1953H41.8203V78.0391H74.3303V38.1953Z" fill="#A6ACB8"/>
<path d="M68.4781 41.75H47.6738V56.4853H68.4781V41.75Z" fill="#414E67"/>
<path d="M67.5736 78.0898H33.8398V83.0903H67.5736V78.0898Z" fill="#414E67"/>
<path d="M62.093 83.082H28.3594V88.0825H62.093V83.082Z" fill="#414E67"/>
<path d="M56.5598 88.0859H22.8262V93.0864H56.5598V88.0859Z" fill="#414E67"/>
<path d="M205.754 8.71707H195.113C193.603 8.6423 192.123 9.15428 190.982 10.1458C189.842 11.1374 189.129 12.5316 188.994 14.0367V17.122C189.129 18.627 189.842 20.0213 190.982 21.0128C192.123 22.0044 193.603 22.5164 195.113 22.4416H205.754C207.273 22.5306 208.766 22.0251 209.918 21.0321C211.07 20.0391 211.79 18.6367 211.926 17.122V14.0367C211.79 12.5219 211.07 11.1195 209.918 10.1266C208.766 9.13358 207.273 8.62806 205.754 8.71707Z" fill="#414E67"/>
<path d="M245.553 8.71691H234.646C233.133 8.62855 231.645 9.13571 230.502 10.1299C229.358 11.1241 228.649 12.5263 228.527 14.0365V17.1219C228.649 18.632 229.358 20.0342 230.502 21.0284C231.645 22.0226 233.133 22.5298 234.646 22.4415H245.553C247.066 22.5298 248.554 22.0226 249.697 21.0284C250.841 20.0342 251.55 18.632 251.672 17.1219V14.0365C251.55 12.5263 250.841 11.1241 249.697 10.1299C248.554 9.13571 247.066 8.62855 245.553 8.71691Z" fill="#414E67"/>
<path d="M285.352 8.71707H274.445C272.926 8.62806 271.433 9.13358 270.28 10.1266C269.128 11.1195 268.408 12.5219 268.272 14.0367V17.122C268.408 18.6367 269.128 20.0391 270.28 21.0321C271.433 22.0251 272.926 22.5306 274.445 22.4416H285.352C286.865 22.53 288.352 22.0228 289.496 21.0286C290.64 20.0344 291.349 18.6322 291.471 17.122V14.0367C291.349 12.5265 290.64 11.1243 289.496 10.1301C288.352 9.13587 286.865 8.62871 285.352 8.71707Z" fill="#414E67"/>
<path d="M41.342 8.71691H30.7004C29.1875 8.62855 27.7001 9.13571 26.5565 10.1299C25.413 11.1241 24.7041 12.5263 24.5815 14.0365V17.1219C24.7041 18.632 25.413 20.0342 26.5565 21.0284C27.7001 22.0226 29.1875 22.5298 30.7004 22.4415H41.342C42.8549 22.5298 44.3423 22.0226 45.4859 21.0284C46.6294 20.0342 47.3384 18.632 47.4609 17.1219V14.0365C47.3384 12.5263 46.6294 11.1241 45.4859 10.1299C44.3423 9.13571 42.8549 8.62855 41.342 8.71691Z" fill="#414E67"/>
<path d="M81.1416 8.71691H70.2341C68.7213 8.62855 67.2339 9.13571 66.0903 10.1299C64.9467 11.1241 64.2378 12.5263 64.1152 14.0365V17.1219C64.2378 18.632 64.9467 20.0342 66.0903 21.0284C67.2339 22.0226 68.7213 22.5298 70.2341 22.4415H81.1416C82.6545 22.5298 84.1419 22.0226 85.2854 21.0284C86.429 20.0342 87.1379 18.632 87.2605 17.1219V14.0365C87.1379 12.5263 86.429 11.1241 85.2854 10.1299C84.1419 9.13571 82.6545 8.62855 81.1416 8.71691Z" fill="#414E67"/>
<path d="M120.942 8.71707H110.3C108.782 8.62806 107.288 9.13358 106.136 10.1266C104.984 11.1195 104.264 12.5219 104.128 14.0367V17.122C104.264 18.6367 104.984 20.0391 106.136 21.0321C107.288 22.0251 108.782 22.5306 110.3 22.4416H120.942C122.451 22.5164 123.931 22.0044 125.072 21.0128C126.212 20.0213 126.925 18.627 127.06 17.122V14.0367C126.925 12.5316 126.212 11.1374 125.072 10.1458C123.931 9.15428 122.451 8.6423 120.942 8.71707Z" fill="#414E67"/>
<g style="mix-blend-mode:multiply" opacity="0.35">
<g style="mix-blend-mode:multiply" opacity="0.35">
<path d="M1.70312 77.7669H38.9485V78.086H33.6277V83.0865H28.307V88.0869H22.9862V93.0873H49.324V95.3747H60.9233V88.0869H62.2002V86.757H84.8667V92.6618C82.8145 90.9223 80.2146 89.9617 77.5241 89.9487C75.2299 89.9487 72.9874 90.6289 71.0799 91.9032C69.1724 93.1774 67.6857 94.9886 66.8078 97.1076C65.9298 99.2266 65.7001 101.558 66.1477 103.808C66.5953 106.057 67.7 108.124 69.3222 109.746C70.9443 111.367 73.0111 112.472 75.2612 112.919C77.5112 113.367 79.8434 113.137 81.9629 112.259C84.0824 111.382 85.894 109.895 87.1685 107.988C88.4431 106.081 89.1233 103.839 89.1233 101.545C89.1233 101.12 89.1233 100.748 89.1233 100.322H90.8792C90.8792 100.322 90.8792 100.322 90.8792 100.694C90.8792 101.837 91.3332 102.933 92.1415 103.741C92.9497 104.549 94.046 105.003 95.189 105.003C96.3321 105.003 97.4283 104.549 98.2365 103.741C99.0448 102.933 99.4989 101.837 99.4989 100.694C99.4989 100.694 99.4989 100.694 99.4989 100.322H100.882C100.882 100.322 100.882 100.322 100.882 100.694C100.882 101.837 101.336 102.933 102.145 103.741C102.953 104.549 104.049 105.003 105.192 105.003C106.335 105.003 107.431 104.549 108.24 103.741C109.048 102.933 109.502 101.837 109.502 100.694C109.502 100.694 109.502 100.694 109.502 100.322H111.151C111.151 100.748 111.151 101.12 111.151 101.545C111.151 103.839 111.832 106.081 113.106 107.988C114.381 109.895 116.192 111.382 118.312 112.259C120.431 113.137 122.763 113.367 125.013 112.919C127.264 112.472 129.33 111.367 130.952 109.746C132.575 108.124 133.679 106.057 134.127 103.808C134.575 101.558 134.345 99.2266 133.467 97.1076C132.589 94.9886 131.102 93.1774 129.195 91.9032C127.287 90.6289 125.045 89.9487 122.751 89.9487C120.474 89.9582 118.252 90.6432 116.366 91.917V86.757H138.128V95.5875H149.78V77.7669H153.717V75.2135H163.72V77.7669H177.076V95.3747H187.93V86.757H211.873V92.6618C209.821 90.9223 207.221 89.9617 204.531 89.9487C202.237 89.9487 199.994 90.6289 198.087 91.9032C196.179 93.1774 194.692 94.9886 193.814 97.1076C192.937 99.2266 192.707 101.558 193.154 103.808C193.602 106.057 194.707 108.124 196.329 109.746C197.951 111.367 200.018 112.472 202.268 112.919C204.518 113.367 206.85 113.137 208.97 112.259C211.089 111.382 212.901 109.895 214.175 107.988C215.45 106.081 216.13 103.839 216.13 101.545C216.156 101.138 216.156 100.729 216.13 100.322H217.939C217.939 100.322 217.939 100.322 217.939 100.694C218.058 101.761 218.565 102.747 219.365 103.463C220.166 104.179 221.202 104.575 222.276 104.575C223.349 104.575 224.385 104.179 225.186 103.463C225.986 102.747 226.494 101.761 226.612 100.694C226.644 100.572 226.644 100.444 226.612 100.322H228.049C228.049 100.322 228.049 100.322 228.049 100.694C228.049 101.837 228.503 102.933 229.311 103.741C230.119 104.549 231.215 105.003 232.358 105.003C233.501 105.003 234.598 104.549 235.406 103.741C236.214 102.933 236.668 101.837 236.668 100.694C236.668 100.694 236.668 100.694 236.668 100.322H238.318C238.318 100.748 238.318 101.12 238.318 101.545C238.318 103.839 238.998 106.081 240.273 107.988C241.547 109.895 243.359 111.382 245.478 112.259C247.598 113.137 249.93 113.367 252.18 112.919C254.43 112.472 256.497 111.367 258.119 109.746C259.741 108.124 260.846 106.057 261.293 103.808C261.741 101.558 261.511 99.2266 260.633 97.1076C259.755 94.9886 258.269 93.1774 256.361 91.9032C254.454 90.6289 252.211 89.9487 249.917 89.9487C247.641 89.9582 245.418 90.6432 243.532 91.917V86.757H265.294V95.5875H276.946V77.7669H290.301L297.697 86.0123L306.69 96.1195H343.35L351.331 83.0865L352.289 81.4906L364.473 61.5421L369.315 53.9883H1.70312V77.7669Z" fill="#C1C5C9"/>
</g>
</g>
</svg>
