<svg width="320" height="370" viewBox="0 0 320 370" fill="none" xmlns="http://www.w3.org/2000/svg">
<g clip-path="url(#clip0)">
<rect opacity="0.5" width="320" height="370" fill="#4AA29A"/>
<path d="M311.313 148.891H307.682V200.81H311.313V148.891Z" fill="#E49306"/>
<path d="M309.036 175.82H307.497V200.826H309.036V175.82Z" fill="#F5B400"/>
<path d="M249.454 219.322H226.126V228.154H249.454V219.322Z" fill="#E2421E"/>
<g style="mix-blend-mode:multiply">
<path d="M249.454 219.322H232.789V228.154H249.454V219.322Z" fill="#CCCCCC"/>
</g>
<path d="M242.237 219.322H218.909V228.154H242.237V219.322Z" fill="#E2421E"/>
<g style="mix-blend-mode:multiply">
<path d="M242.252 219.322H225.587V228.154H242.252V219.322Z" fill="#CCCCCC"/>
</g>
<path d="M249.423 219.322H226.095V228.154H249.423V219.322Z" fill="#E2421E"/>
<g style="mix-blend-mode:multiply">
<path d="M249.423 219.322H232.758V228.154H249.423V219.322Z" fill="#CCCCCC"/>
</g>
<path d="M256.686 219.322H233.358V228.154H256.686V219.322Z" fill="#4AA29A"/>
<g style="mix-blend-mode:multiply">
<path d="M256.686 219.322H240.021V228.154H256.686V219.322Z" fill="#CCCCCC"/>
</g>
<path d="M264.011 219.322H240.683V228.154H264.011V219.322Z" fill="#3F5CA8"/>
<g style="mix-blend-mode:multiply">
<path d="M264.011 219.322H247.346V228.154H264.011V219.322Z" fill="#CCCCCC"/>
</g>
<path d="M271.243 219.322H247.915V228.154H271.243V219.322Z" fill="#E2421E"/>
<g style="mix-blend-mode:multiply">
<path d="M271.243 219.322H254.578V228.154H271.243V219.322Z" fill="#CCCCCC"/>
</g>
<path d="M285.554 219.353H262.226V228.185H285.554V219.353Z" fill="#E2421E"/>
<g style="mix-blend-mode:multiply">
<path d="M285.554 219.353H268.889V228.185H285.554V219.353Z" fill="#CCCCCC"/>
</g>
<path d="M278.337 219.353H255.009V228.185H278.337V219.353Z" fill="#E2421E"/>
<g style="mix-blend-mode:multiply">
<path d="M278.337 219.353H261.672V228.185H278.337V219.353Z" fill="#CCCCCC"/>
</g>
<path d="M285.508 219.353H262.18V228.185H285.508V219.353Z" fill="#E2421E"/>
<g style="mix-blend-mode:multiply">
<path d="M285.523 219.353H268.858V228.185H285.523V219.353Z" fill="#CCCCCC"/>
</g>
<path d="M292.787 219.353H269.458V228.185H292.787V219.353Z" fill="#D75724"/>
<g style="mix-blend-mode:multiply">
<path d="M292.786 219.353H276.121V228.185H292.786V219.353Z" fill="#CCCCCC"/>
</g>
<path d="M300.111 219.353H276.783V228.185H300.111V219.353Z" fill="#3F5CA8"/>
<g style="mix-blend-mode:multiply">
<path d="M300.111 219.353H283.446V228.185H300.111V219.353Z" fill="#CCCCCC"/>
</g>
<path d="M307.343 219.353H284.015V228.185H307.343V219.353Z" fill="#E2421E"/>
<g style="mix-blend-mode:multiply">
<path d="M307.343 219.353H290.678V228.185H307.343V219.353Z" fill="#CCCCCC"/>
</g>
<path d="M321.747 219.353H298.418V228.185H321.747V219.353Z" fill="#E2421E"/>
<g style="mix-blend-mode:multiply">
<path d="M321.746 219.353H305.081V228.185H321.746V219.353Z" fill="#CCCCCC"/>
</g>
<path d="M314.544 219.353H291.216V228.185H314.544V219.353Z" fill="#E2421E"/>
<g style="mix-blend-mode:multiply">
<path d="M314.545 219.353H297.88V228.185H314.545V219.353Z" fill="#CCCCCC"/>
</g>
<path d="M321.716 219.353H298.388V228.185H321.716V219.353Z" fill="#E2421E"/>
<g style="mix-blend-mode:multiply">
<path d="M321.716 219.353H305.051V228.185H321.716V219.353Z" fill="#CCCCCC"/>
</g>
<path d="M328.979 219.353H305.651V228.185H328.979V219.353Z" fill="#4AA29A"/>
<g style="mix-blend-mode:multiply">
<path d="M328.979 219.353H312.314V228.185H328.979V219.353Z" fill="#CCCCCC"/>
</g>
<path d="M336.303 219.353H312.975V228.185H336.303V219.353Z" fill="#3F5CA8"/>
<g style="mix-blend-mode:multiply">
<path d="M336.303 219.353H319.638V228.185H336.303V219.353Z" fill="#CCCCCC"/>
</g>
<path d="M242.222 210.028H218.894V218.86H242.222V210.028Z" fill="#E2421E"/>
<g style="mix-blend-mode:multiply">
<path d="M242.222 210.028H225.557V218.86H242.222V210.028Z" fill="#CCCCCC"/>
</g>
<path d="M235.02 210.028H211.692V218.86H235.02V210.028Z" fill="#E2421E"/>
<g style="mix-blend-mode:multiply">
<path d="M235.02 210.028H218.355V218.86H235.02V210.028Z" fill="#CCCCCC"/>
</g>
<path d="M242.191 210.028H218.863V218.86H242.191V210.028Z" fill="#E2421E"/>
<g style="mix-blend-mode:multiply">
<path d="M242.191 210.028H225.526V218.86H242.191V210.028Z" fill="#CCCCCC"/>
</g>
<path d="M249.454 210.028H226.126V218.86H249.454V210.028Z" fill="#4AA29A"/>
<g style="mix-blend-mode:multiply">
<path d="M249.454 210.028H232.789V218.86H249.454V210.028Z" fill="#CCCCCC"/>
</g>
<path d="M256.779 210.028H233.451V218.86H256.779V210.028Z" fill="#3F5CA8"/>
<g style="mix-blend-mode:multiply">
<path d="M256.779 210.028H240.114V218.86H256.779V210.028Z" fill="#CCCCCC"/>
</g>
<path d="M264.011 210.028H240.683V218.86H264.011V210.028Z" fill="#E2421E"/>
<g style="mix-blend-mode:multiply">
<path d="M264.011 210.028H247.346V218.86H264.011V210.028Z" fill="#CCCCCC"/>
</g>
<path d="M278.322 210.043H254.994V218.876H278.322V210.043Z" fill="#E2421E"/>
<g style="mix-blend-mode:multiply">
<path d="M278.322 210.043H261.656V218.876H278.322V210.043Z" fill="#CCCCCC"/>
</g>
<path d="M271.105 210.043H247.777V218.876H271.105V210.043Z" fill="#E2421E"/>
<g style="mix-blend-mode:multiply">
<path d="M271.12 210.043H254.455V218.876H271.12V210.043Z" fill="#CCCCCC"/>
</g>
<path d="M278.291 210.043H254.963V218.876H278.291V210.043Z" fill="#E2421E"/>
<g style="mix-blend-mode:multiply">
<path d="M278.291 210.043H261.626V218.876H278.291V210.043Z" fill="#CCCCCC"/>
</g>
<path d="M285.554 210.043H262.226V218.876H285.554V210.043Z" fill="#223946"/>
<g style="mix-blend-mode:multiply">
<path d="M285.554 210.043H268.889V218.876H285.554V210.043Z" fill="#CCCCCC"/>
</g>
<path d="M292.879 210.043H269.551V218.876H292.879V210.043Z" fill="#7BBCCC"/>
<g style="mix-blend-mode:multiply">
<path d="M292.878 210.043H276.213V218.876H292.878V210.043Z" fill="#CCCCCC"/>
</g>
<path d="M300.111 210.043H276.783V218.876H300.111V210.043Z" fill="#E2421E"/>
<g style="mix-blend-mode:multiply">
<path d="M300.111 210.043H283.446V218.876H300.111V210.043Z" fill="#CCCCCC"/>
</g>
<path d="M314.514 210.043H291.186V218.876H314.514V210.043Z" fill="#E2421E"/>
<g style="mix-blend-mode:multiply">
<path d="M314.514 210.043H297.849V218.876H314.514V210.043Z" fill="#CCCCCC"/>
</g>
<path d="M307.313 210.043H283.985V218.876H307.313V210.043Z" fill="#E2421E"/>
<g style="mix-blend-mode:multiply">
<path d="M307.312 210.043H290.647V218.876H307.312V210.043Z" fill="#CCCCCC"/>
</g>
<path d="M314.483 210.043H291.155V218.876H314.483V210.043Z" fill="#E2421E"/>
<g style="mix-blend-mode:multiply">
<path d="M314.483 210.043H297.818V218.876H314.483V210.043Z" fill="#CCCCCC"/>
</g>
<path d="M321.747 210.043H298.418V218.876H321.747V210.043Z" fill="#223946"/>
<g style="mix-blend-mode:multiply">
<path d="M321.746 210.043H305.081V218.876H321.746V210.043Z" fill="#CCCCCC"/>
</g>
<path d="M329.071 210.043H305.743V218.876H329.071V210.043Z" fill="#CCCCCC"/>
<g style="mix-blend-mode:multiply">
<path d="M329.086 210.043H312.421V218.876H329.086V210.043Z" fill="#CCCCCC"/>
</g>
<path d="M336.303 210.043H312.975V218.876H336.303V210.043Z" fill="#E2421E"/>
<g style="mix-blend-mode:multiply">
<path d="M336.303 210.043H319.638V218.876H336.303V210.043Z" fill="#CCCCCC"/>
</g>
<path d="M242.222 200.672H218.894V209.505H242.222V200.672Z" fill="#E2421E"/>
<g style="mix-blend-mode:multiply">
<path d="M242.222 200.672H225.557V209.505H242.222V200.672Z" fill="#CCCCCC"/>
</g>
<path d="M235.02 200.672H211.692V209.505H235.02V200.672Z" fill="#E6E6DC"/>
<g style="mix-blend-mode:multiply">
<path d="M235.02 200.672H218.355V209.505H235.02V200.672Z" fill="#CCCCCC"/>
</g>
<path d="M242.191 200.672H218.863V209.505H242.191V200.672Z" fill="#E2421E"/>
<g style="mix-blend-mode:multiply">
<path d="M242.191 200.672H225.526V209.505H242.191V200.672Z" fill="#CCCCCC"/>
</g>
<path d="M292.879 200.703H269.551V209.535H292.879V200.703Z" fill="#7BBCCC"/>
<g style="mix-blend-mode:multiply">
<path d="M292.878 200.703H276.213V209.535H292.878V200.703Z" fill="#CCCCCC"/>
</g>
<path d="M300.111 200.703H276.783V209.535H300.111V200.703Z" fill="#E2421E"/>
<g style="mix-blend-mode:multiply">
<path d="M300.111 200.703H283.446V209.535H300.111V200.703Z" fill="#CCCCCC"/>
</g>
<path d="M314.514 200.703H291.186V209.535H314.514V200.703Z" fill="#E2421E"/>
<g style="mix-blend-mode:multiply">
<path d="M314.514 200.703H297.849V209.535H314.514V200.703Z" fill="#CCCCCC"/>
</g>
<path d="M307.313 200.703H283.985V209.535H307.313V200.703Z" fill="#E2421E"/>
<g style="mix-blend-mode:multiply">
<path d="M307.312 200.703H290.647V209.535H307.312V200.703Z" fill="#CCCCCC"/>
</g>
<path d="M314.483 200.703H291.155V209.535H314.483V200.703Z" fill="#7BBCCC"/>
<g style="mix-blend-mode:multiply">
<path d="M314.483 200.703H297.818V209.535H314.483V200.703Z" fill="#CCCCCC"/>
</g>
<path d="M321.747 200.703H298.418V209.535H321.747V200.703Z" fill="#CCCCCC"/>
<g style="mix-blend-mode:multiply">
<path d="M321.746 200.703H305.081V209.535H321.746V200.703Z" fill="#CCCCCC"/>
</g>
<path d="M336.303 200.703H312.975V209.535H336.303V200.703Z" fill="#7BBCCC"/>
<g style="mix-blend-mode:multiply">
<path d="M336.303 200.703H319.638V209.535H336.303V200.703Z" fill="#CCCCCC"/>
</g>
<path d="M242.222 191.439H218.894V200.272H242.222V191.439Z" fill="#E2421E"/>
<g style="mix-blend-mode:multiply">
<path d="M242.222 191.439H225.557V200.272H242.222V191.439Z" fill="#CCCCCC"/>
</g>
<path d="M235.02 191.439H211.692V200.272H235.02V191.439Z" fill="#E6E6DC"/>
<g style="mix-blend-mode:multiply">
<path d="M235.02 191.439H218.355V200.272H235.02V191.439Z" fill="#CCCCCC"/>
</g>
<path d="M242.191 191.439H218.863V200.272H242.191V191.439Z" fill="#E2421E"/>
<g style="mix-blend-mode:multiply">
<path d="M242.191 191.439H225.526V200.272H242.191V191.439Z" fill="#CCCCCC"/>
</g>
<path d="M300.111 191.47H276.783V200.303H300.111V191.47Z" fill="#E2421E"/>
<g style="mix-blend-mode:multiply">
<path d="M300.111 191.47H283.446V200.303H300.111V191.47Z" fill="#CCCCCC"/>
</g>
<path d="M307.313 191.47H283.985V200.303H307.313V191.47Z" fill="#223946"/>
<g style="mix-blend-mode:multiply">
<path d="M307.312 191.47H290.647V200.303H307.312V191.47Z" fill="#CCCCCC"/>
</g>
<path d="M235.051 182.068H211.723V190.901H235.051V182.068Z" fill="#E2421E"/>
<g style="mix-blend-mode:multiply">
<path d="M235.051 182.068H218.386V190.901H235.051V182.068Z" fill="#CCCCCC"/>
</g>
<path d="M235.051 172.773H211.723V181.606H235.051V172.773Z" fill="#E2421E"/>
<g style="mix-blend-mode:multiply">
<path d="M235.051 172.773H218.386V181.606H235.051V172.773Z" fill="#CCCCCC"/>
</g>
<path d="M330.807 129.772L311.067 148.02L312.634 149.715L332.374 131.467L330.807 129.772Z" fill="#E49306"/>
<path d="M287.647 147.537H284.015V214.459H287.647V147.537Z" fill="#F5B400"/>
<path d="M329.225 147.537H284.261V151H329.225V147.537Z" fill="#F5B400"/>
<path d="M309.236 111.191H304.419V123.117H309.236V111.191Z" fill="#F5B400"/>
<path d="M307.036 113.111L306.793 113.504L331.412 128.697L331.654 128.304L307.036 113.111Z" fill="#E49306"/>
<g style="mix-blend-mode:multiply">
<path d="M309.221 114.838L306.666 112.93L306.205 113.545L309.221 115.792V114.838Z" fill="#E6E6E6"/>
</g>
<path d="M307.436 118.501H306.082V149.846H307.436V118.501Z" fill="#F5B400"/>
<path d="M306.657 112.998L262.803 150.124L263.3 150.711L307.154 113.585L306.657 112.998Z" fill="#E49306"/>
<path d="M307.477 120.517L305.608 121.87L325.806 149.763L327.676 148.409L307.477 120.517Z" fill="#F5B400"/>
<path d="M260.918 153.754L258.194 151.03L262.457 148.261L263.642 151.03L260.918 153.754Z" fill="#F5B400"/>
<path d="M305.448 121.65L284.293 148.571L286.108 149.997L307.263 123.076L305.448 121.65Z" fill="#F5B400"/>
<path d="M325.578 153.692V151H288.262L288.201 150.938H285.493L285.554 151H251.332V153.692H288.447L309.175 173.02L310.436 171.681L291.155 153.692H325.578Z" fill="#E49306"/>
<path d="M255.948 151H251.332V153.693H255.948V151Z" fill="#F5B400"/>
<path d="M262.469 148.263L259.749 150.983L262.469 153.703L265.189 150.983L262.469 148.263Z" fill="#E49306"/>
<g style="mix-blend-mode:multiply">
<path d="M303.45 151L307.497 153.693H325.578V151H303.45Z" fill="#E6E6E6"/>
</g>
<path d="M309.036 170.235L307.497 168.896V153.693H309.036V170.235Z" fill="#F5B400"/>
<path d="M311.144 170.819H287.678V153.693H286.339V214.86H287.678V175.805H311.144V170.819Z" fill="#E49306"/>
<path d="M303.973 151.323H267.166V148.368H303.973V151.323ZM267.427 151.061H303.712V148.63H267.427V151.061Z" fill="#D75724"/>
<path d="M297.065 148.507H296.803V151.077H297.065V148.507Z" fill="#D75724"/>
<path d="M289.155 148.63H288.893V151.2H289.155V148.63Z" fill="#D75724"/>
<path d="M280.661 148.63H280.399V151.2H280.661V148.63Z" fill="#D75724"/>
<path d="M273.551 148.63H273.29V151.2H273.551V148.63Z" fill="#D75724"/>
<path d="M309.036 191.577H307.497V200.81H309.036V191.577Z" fill="#E49306"/>
<path d="M285.369 154.847H272.29V161.386H285.369V154.847Z" fill="#D75724"/>
<g style="mix-blend-mode:multiply">
<path d="M285.369 154.847H272.29V161.386H285.369V154.847Z" fill="#7BBCCC"/>
</g>
<path d="M281.338 161.386H272.29V154.847H280.753L281.338 158.309V161.386Z" fill="#D75724"/>
<path d="M280.045 158.971L272.351 159.74L271.136 154.847H279.599L280.045 158.971Z" fill="#D75724"/>
<path d="M280.753 158.309H272.49L271.72 155.047H280.184L280.753 158.309Z" fill="#7BBCCC"/>
<g style="mix-blend-mode:screen">
<path d="M271.72 155.047L272.49 158.309H273.259V155.047H271.72Z" fill="#7BBCCC"/>
</g>
<path d="M280.953 155.047L281.522 158.309H282.107V155.047H280.953Z" fill="#7BBCCC"/>
<path d="M279.091 180.237H255.763V189.069H279.091V180.237Z" fill="#E6E6E6"/>
<g style="mix-blend-mode:multiply">
<path d="M279.091 180.237H262.426V189.069H279.091V180.237Z" fill="#CCCCCC"/>
</g>
<path d="M267.304 179.283H259.795V180.237H267.304V179.283Z" fill="#223946"/>
<path d="M268.258 180.237H264.411V181.191H268.258V180.237Z" fill="#223946"/>
<g style="mix-blend-mode:multiply">
<path d="M268.258 180.237H264.411V181.191H268.258V180.237Z" fill="#CCCCCC"/>
</g>
<g style="mix-blend-mode:multiply">
<path d="M267.289 179.283H265.75V180.237H267.289V179.283Z" fill="#CCCCCC"/>
</g>
<path d="M277.306 179.283H269.797V180.237H277.306V179.283Z" fill="#223946"/>
<path d="M278.261 180.237H274.414V181.191H278.261V180.237Z" fill="#223946"/>
<g style="mix-blend-mode:multiply">
<path d="M278.261 180.237H274.414V181.191H278.261V180.237Z" fill="#CCCCCC"/>
</g>
<g style="mix-blend-mode:multiply">
<path d="M277.291 179.283H275.752V180.237H277.291V179.283Z" fill="#CCCCCC"/>
</g>
<path d="M273.059 179.667H267.289V180.236H273.059V179.667Z" fill="#223946"/>
<g style="mix-blend-mode:multiply">
<path d="M273.059 179.667H267.289V180.236H273.059V179.667Z" fill="#CCCCCC"/>
</g>
<path d="M262.057 154.077H261.749V179.467H262.057V154.077Z" fill="#223946"/>
<path d="M264.949 154.847H264.642V179.267H264.949V154.847Z" fill="#223946"/>
<path d="M274.952 154.077H274.644V179.267H274.952V154.077Z" fill="#223946"/>
<path d="M273.028 154.462H272.72V179.267H273.028V154.462Z" fill="#223946"/>
<path d="M286.339 153.693H258.056V154.847H286.339V153.693Z" fill="#223946"/>
<path d="M418.09 228.893H9.75659V236.864H418.09V228.893Z" fill="#F2F2F2"/>
<path d="M124.258 208.658H100.93V217.491H124.258V208.658Z" fill="#E2421E"/>
<g style="mix-blend-mode:multiply">
<path d="M124.258 208.658H107.593V217.491H124.258V208.658Z" fill="#CCCCCC"/>
</g>
<path d="M131.491 208.427H108.163V217.26H131.491V208.427Z" fill="#4AA29A"/>
<g style="mix-blend-mode:multiply">
<path d="M131.491 208.427H114.825V217.26H131.491V208.427Z" fill="#CCCCCC"/>
</g>
<path d="M138.831 208.427H115.503V217.26H138.831V208.427Z" fill="#E6E6E6"/>
<g style="mix-blend-mode:multiply">
<path d="M138.83 208.427H122.165V217.26H138.83V208.427Z" fill="#CCCCCC"/>
</g>
<path d="M146.047 208.427H122.719V217.26H146.047V208.427Z" fill="#E2421E"/>
<g style="mix-blend-mode:multiply">
<path d="M146.063 208.427H129.397V217.26H146.063V208.427Z" fill="#CCCCCC"/>
</g>
<path d="M154.496 208.458H131.167V217.291H154.496V208.458Z" fill="#7BBCCC"/>
<g style="mix-blend-mode:multiply">
<path d="M154.495 208.458H137.83V217.291H154.495V208.458Z" fill="#CCCCCC"/>
</g>
<path d="M124.242 199.164H100.914V207.996H124.242V199.164Z" fill="#E2421E"/>
<g style="mix-blend-mode:multiply">
<path d="M124.243 199.164H107.578V207.996H124.243V199.164Z" fill="#CCCCCC"/>
</g>
<path d="M131.475 199.164H108.147V207.996H131.475V199.164Z" fill="#E6E6E6"/>
<g style="mix-blend-mode:multiply">
<path d="M131.475 199.164H114.81V207.996H131.475V199.164Z" fill="#CCCCCC"/>
</g>
<path d="M124.289 189.777H100.961V198.61H124.289V189.777Z" fill="#E2421E"/>
<g style="mix-blend-mode:multiply">
<path d="M124.289 189.777H107.624V198.61H124.289V189.777Z" fill="#CCCCCC"/>
</g>
<path d="M131.521 189.777H108.193V198.61H131.521V189.777Z" fill="#7BBCCC"/>
<g style="mix-blend-mode:multiply">
<path d="M131.521 189.777H114.856V198.61H131.521V189.777Z" fill="#CCCCCC"/>
</g>
<path d="M138.8 199.164H115.472V207.996H138.8V199.164Z" fill="#7BBCCC"/>
<g style="mix-blend-mode:multiply">
<path d="M138.8 199.164H122.135V207.996H138.8V199.164Z" fill="#CCCCCC"/>
</g>
<path d="M146.032 199.164H122.704V207.996H146.032V199.164Z" fill="#E2421E"/>
<g style="mix-blend-mode:multiply">
<path d="M146.032 199.164H129.367V207.996H146.032V199.164Z" fill="#CCCCCC"/>
</g>
<path d="M105.47 198.902H62.0295L51.9812 203.195V219.614H115.518V203.195L105.47 198.902ZM63.399 204.334H61.8602V202.272H63.399V204.334ZM76.2017 204.334H74.663V202.272H76.2017V204.334ZM89.0199 204.334H87.4811V202.272H89.0199V204.334ZM101.838 204.334H100.299V202.272H101.838V204.334Z" fill="#D75724"/>
<g style="mix-blend-mode:multiply">
<path d="M114.071 217.337H115.518V203.195L105.469 198.902L114.071 203.195V217.337Z" fill="#CCCCCC"/>
</g>
<path d="M66.5998 208.72H63.4915L64.384 182.714H65.7381L66.5998 208.72Z" fill="#E6E6E6"/>
<path d="M66.7533 181.991H63.3525V182.714H66.7533V181.991Z" fill="#E6E6E6"/>
<path d="M63.876 182.622L64.4607 183.684H65.7071L66.1842 182.622H63.876Z" fill="#E6E6E6"/>
<g style="mix-blend-mode:multiply">
<path d="M65.4455 208.72H66.5996L65.7687 183.56L66.138 182.714H63.9221L64.1375 183.099H65.8302L65.4763 183.576L65.4455 208.72Z" fill="#CCCCCC"/>
</g>
<path d="M65.1838 173.497H64.8298V181.976H65.1838V173.497Z" fill="#E6E6E6"/>
<path d="M68.0305 182.299H62.1523V179.683H68.0305V182.299ZM62.4601 181.976H67.7228V179.975H62.4601V181.976Z" fill="#E6E6DC"/>
<path d="M66.7536 179.837H66.4458V181.991H66.7536V179.837Z" fill="#E6E6DC"/>
<path d="M63.6452 179.837H63.3374V182.345H63.6452V179.837Z" fill="#E6E6DC"/>
<path d="M65.676 176.836H64.2295V179.144H65.676V176.836Z" fill="#E6E6E6"/>
<path d="M65.3073 177.067H64.3379V178.929H65.3073V177.067Z" fill="#7BBCCC"/>
<path d="M248.9 221.8H222.017V166.603L238.267 166.588L248.9 221.8Z" fill="#333333"/>
<path d="M226.203 166.603H217.555V174.374H226.203V166.603Z" fill="#808080"/>
<path d="M198.089 153.97H197.627V174.866H198.089V153.97Z" fill="#E6E6DC"/>
<path d="M222.648 172.035H222.417V175.636H222.648V172.035Z" fill="white"/>
<path d="M218.478 172.266H218.247V175.866H218.478V172.266Z" fill="white"/>
<path d="M214.524 172.035H214.293V175.636H214.524V172.035Z" fill="white"/>
<path d="M210.646 172.266H210.415V175.866H210.646V172.266Z" fill="white"/>
<path d="M206.768 172.035H206.537V175.636H206.768V172.035Z" fill="white"/>
<path d="M202.89 172.035H202.66V175.636H202.89V172.035Z" fill="white"/>
<path d="M199.336 172.035H199.105V175.636H199.336V172.035Z" fill="white"/>
<path d="M195.15 172.035H194.919V175.636H195.15V172.035Z" fill="white"/>
<path d="M227.496 175.005H227.265V172.143H190.318V175.005H190.088V171.912H227.496V175.005Z" fill="white"/>
<path d="M233.235 174.497H227.419V171.912H232.635L233.235 174.497ZM227.65 174.282H232.928L232.404 172.173H227.557L227.65 174.282Z" fill="#808080"/>
<path d="M240.16 221.8H227.526L227.665 180.806L225.787 174.374H234.435L240.16 221.8Z" fill="#B2B2B2"/>
<path d="M190.21 207.55H185.333V205.057H190.21V207.55ZM185.594 207.35H190.087V205.273H185.594V207.35Z" fill="#E6E6DC"/>
<path d="M187.364 205.18H187.164V207.412H187.364V205.18Z" fill="#E6E6DC"/>
<path d="M188.78 205.18H188.58V207.412H188.78V205.18Z" fill="#E6E6DC"/>
<path d="M190.118 221.799H227.665V180.806L226.203 174.866L190.365 174.635L190.118 175.636L191.534 180.806H190.118V221.799Z" fill="#F2F2F2"/>
<path d="M234.651 207.581H227.634V205.057H234.651V207.581ZM227.865 207.35H234.42V205.319H227.865V207.35Z" fill="#E6E6DC"/>
<path d="M230.511 205.196H230.281V207.427H230.511V205.196Z" fill="#E6E6DC"/>
<path d="M232.558 205.196H232.328V207.427H232.558V205.196Z" fill="#E6E6DC"/>
<path d="M232.45 207.35H185.317V221.799H232.45V207.35Z" fill="#F2F2F2"/>
<g style="mix-blend-mode:multiply">
<path d="M232.466 221.799H185.44L200.659 213.351L232.466 209.381V221.799Z" fill="#CCCCCC"/>
</g>
<path d="M233.081 178.898H184.702V182.699H233.081V178.898Z" fill="#F2F2F2"/>
<path d="M224.141 183.822H223.433V185.099H224.141V183.822Z" fill="#333333"/>
<path d="M218.047 183.822H217.339V185.099H218.047V183.822Z" fill="#333333"/>
<path d="M211.938 183.822H211.23V185.099H211.938V183.822Z" fill="#333333"/>
<path d="M205.845 183.822H205.137V185.099H205.845V183.822Z" fill="#333333"/>
<path d="M199.736 183.822H199.028V185.099H199.736V183.822Z" fill="#333333"/>
<path d="M193.642 183.822H192.934V185.099H193.642V183.822Z" fill="#333333"/>
<path d="M224.08 191.593H223.372V192.87H224.08V191.593Z" fill="#333333"/>
<path d="M217.971 191.593H217.263V192.87H217.971V191.593Z" fill="#333333"/>
<path d="M211.877 191.593H211.169V192.87H211.877V191.593Z" fill="#333333"/>
<path d="M205.768 191.593H205.06V192.87H205.768V191.593Z" fill="#333333"/>
<path d="M199.674 191.593H198.966V192.87H199.674V191.593Z" fill="#333333"/>
<path d="M193.565 191.593H192.857V192.87H193.565V191.593Z" fill="#333333"/>
<path d="M223.848 199.625H223.14V200.903H223.848V199.625Z" fill="#333333"/>
<path d="M217.755 199.625H217.047V200.903H217.755V199.625Z" fill="#333333"/>
<path d="M211.646 199.625H210.938V200.903H211.646V199.625Z" fill="#333333"/>
<path d="M205.552 199.625H204.844V200.903H205.552V199.625Z" fill="#333333"/>
<path d="M199.443 199.625H198.736V200.903H199.443V199.625Z" fill="#333333"/>
<path d="M193.35 199.625H192.642V200.903H193.35V199.625Z" fill="#333333"/>
<path d="M223.71 207.381H223.002V208.658H223.71V207.381Z" fill="#333333"/>
<path d="M217.617 207.381H216.909V208.658H217.617V207.381Z" fill="#333333"/>
<path d="M211.507 207.381H210.8V208.658H211.507V207.381Z" fill="#333333"/>
<path d="M205.414 207.381H204.706V208.658H205.414V207.381Z" fill="#333333"/>
<path d="M199.305 207.381H198.597V208.658H199.305V207.381Z" fill="#333333"/>
<path d="M193.211 207.381H192.504V208.658H193.211V207.381Z" fill="#333333"/>
<path d="M223.71 214.705H223.002V215.983H223.71V214.705Z" fill="#333333"/>
<path d="M217.617 214.705H216.909V215.983H217.617V214.705Z" fill="#333333"/>
<path d="M211.507 214.705H210.8V215.983H211.507V214.705Z" fill="#333333"/>
<path d="M205.414 214.705H204.706V215.983H205.414V214.705Z" fill="#333333"/>
<path d="M199.305 214.705H198.597V215.983H199.305V214.705Z" fill="#333333"/>
<path d="M193.211 214.705H192.504V215.983H193.211V214.705Z" fill="#333333"/>
<path d="M223.002 180.806H226.495L225.095 175.636H221.602L223.002 180.806Z" fill="#7BBCCC"/>
<path d="M219.124 180.806H222.617L221.217 175.636H217.724L219.124 180.806Z" fill="#7BBCCC"/>
<path d="M215.246 180.806H218.755L217.339 175.636H213.846L215.246 180.806Z" fill="#7BBCCC"/>
<path d="M211.384 180.806H214.877L213.462 175.636H209.969L211.384 180.806Z" fill="#7BBCCC"/>
<path d="M207.507 180.806H211L209.6 175.636H206.091L207.507 180.806Z" fill="#7BBCCC"/>
<path d="M203.629 180.806H207.122L205.722 175.636H202.213L203.629 180.806Z" fill="#7BBCCC"/>
<path d="M199.751 180.806H203.244L201.844 175.636H198.351L199.751 180.806Z" fill="#7BBCCC"/>
<path d="M195.873 180.806H199.382L197.966 175.636H194.473L195.873 180.806Z" fill="#7BBCCC"/>
<path d="M192.011 180.806H195.504L194.089 175.636H190.595L192.011 180.806Z" fill="#7BBCCC"/>
<g style="mix-blend-mode:multiply">
<path d="M226.772 177.174L226.388 175.636H190.118L190.534 177.174H226.772Z" fill="#CCCCCC"/>
</g>
<path d="M227.542 174.374H188.687V175.636H227.542V174.374Z" fill="#D75724"/>
<path d="M235.297 207.35H232.45V221.799H235.297V207.35Z" fill="#999999"/>
<path d="M238.913 178.898H233.081V182.699H238.913V178.898Z" fill="#B2B2B2"/>
<path d="M252.362 212.351H235.297V221.799H252.362V212.351Z" fill="#B2B2B2"/>
<path d="M237.282 206.473V207.812C237.282 209.551 239.79 210.889 241.391 210.889H249.454C250.241 210.846 250.981 210.503 251.522 209.93C252.063 209.358 252.364 208.6 252.362 207.812V206.473H237.282Z" fill="#E2421E"/>
<path d="M249.1 209.258V208.027C249.1 206.488 248.238 205.119 247.177 205.119H241.021C239.975 205.119 239.113 206.427 239.113 208.027V209.258H249.1Z" fill="#F15723"/>
<path d="M238.237 206.473V207.812C238.236 208.222 238.319 208.629 238.478 209.008C238.637 209.386 238.871 209.729 239.165 210.016C239.459 210.302 239.807 210.527 240.19 210.678C240.572 210.828 240.981 210.9 241.391 210.889H251.455C251.865 210.9 252.274 210.828 252.656 210.678C253.038 210.527 253.387 210.302 253.681 210.016C253.975 209.729 254.208 209.386 254.368 209.008C254.527 208.629 254.609 208.222 254.609 207.812V206.473H238.237Z" fill="#F15723"/>
<path d="M229.85 217.598H227.572V221.799H229.85V217.598Z" fill="#E6E6E6"/>
<path d="M221.941 217.568H219.663V221.769H221.941V217.568Z" fill="#E6E6E6"/>
<path d="M214.031 217.537H211.753V221.738H214.031V217.537Z" fill="#E6E6E6"/>
<path d="M206.122 217.506H203.844V221.707H206.122V217.506Z" fill="#E6E6E6"/>
<path d="M198.212 217.475H195.935V221.676H198.212V217.475Z" fill="#E6E6E6"/>
<path d="M190.288 217.46H188.01V221.661H190.288V217.46Z" fill="#E6E6E6"/>
<path d="M182.378 217.429H180.101V221.63H182.378V217.429Z" fill="#E6E6E6"/>
<path d="M174.469 217.398H172.191V221.599H174.469V217.398Z" fill="#E6E6E6"/>
<path d="M166.56 217.368H164.282V221.569H166.56V217.368Z" fill="#E6E6E6"/>
<path d="M158.65 217.337H156.373V221.538H158.65V217.337Z" fill="#E6E6E6"/>
<path d="M150.741 217.321H148.463V221.522H150.741V217.321Z" fill="#E6E6E6"/>
<path d="M142.831 217.291H140.554V221.491H142.831V217.291Z" fill="#E6E6E6"/>
<path d="M134.907 217.26H132.629V221.461H134.907V217.26Z" fill="#E6E6E6"/>
<path d="M126.997 217.229H124.72V221.43H126.997V217.229Z" fill="#E6E6E6"/>
<path d="M237.282 219.168H121.519V219.476H237.282V219.168Z" fill="#F2F2F2"/>
<path d="M237.282 220.338H121.519V220.645H237.282V220.338Z" fill="#F2F2F2"/>
<path d="M266.811 212.351H250.423V216.214H266.811V212.351Z" fill="#B2B2B2"/>
<path d="M260.195 215.921H258.625V221.43H260.195V215.921Z" fill="#B2B2B2"/>
<path d="M250.993 217.598H236.913V226.554H250.993V217.598Z" fill="#223946"/>
<g style="mix-blend-mode:multiply">
<path d="M250.993 217.598H236.913V226.554H250.993V217.598Z" fill="#CCCCCC"/>
</g>
<path d="M270.643 221.43H124.75L103.669 207.719H44.9334C44.9334 207.719 58.5979 228.985 51.3656 232.863H43.9025C42.5598 232.863 41.2721 233.397 40.3227 234.346C39.3732 235.295 38.8398 236.583 38.8398 237.926C38.8398 239.268 39.3732 240.556 40.3227 241.506C41.2721 242.455 42.5598 242.988 43.9025 242.988H270.797C276.075 242.773 280.722 239.095 283.523 233.602V221.43H270.643Z" fill="#223946"/>
<path d="M71.5701 231.078C71.5701 231.078 59.9214 233.14 56.5361 233.14C47.7342 222.846 31.7924 219.168 29.915 207.704H71.5701V231.078Z" fill="#223946"/>
<path d="M283.523 233.602V230.155H53.3045C53.2049 230.723 52.9789 231.261 52.6433 231.73C52.3077 232.199 51.8711 232.586 51.3656 232.863H43.9025C42.5598 232.863 41.2721 233.397 40.3227 234.346C39.3732 235.296 38.8398 236.583 38.8398 237.926C38.8398 239.269 39.3732 240.556 40.3227 241.506C41.2721 242.455 42.5598 242.989 43.9025 242.989H270.797C276.075 242.773 280.722 239.095 283.523 233.602Z" fill="#D75724"/>
<path d="M90.9588 207.704L87.5119 205.119H29.4841L29.915 207.704H76.8019L77.2635 206.411H82.48L82.0338 207.704H90.9588Z" fill="#E6E6DC"/>
<g style="mix-blend-mode:multiply">
<path d="M270.643 221.43H124.751L103.669 207.719H90.9589L87.5274 205.057H42.6717C42.6717 205.057 62.2297 229.924 55.2128 234.294C52.8892 235.741 44.3028 234.294 44.3028 234.294C46.0724 235.725 45.0876 241.819 38.8555 237.926C38.8555 238.592 38.9869 239.252 39.2423 239.867C39.4977 240.482 39.872 241.041 40.3437 241.511C40.8155 241.981 41.3754 242.354 41.9914 242.608C42.6074 242.861 43.2673 242.991 43.9335 242.989H270.797C276.075 242.773 280.722 239.095 283.523 233.602V221.43H270.643ZM76.7559 223.908H71.5701L75.017 214.444H80.172L76.7559 223.908Z" fill="#CCCCCC"/>
</g>
<path d="M210.6 162.125H208.245V174.374H210.6V162.125Z" fill="#E6E6DC"/>
<path d="M217.17 160.078H201.675V160.894H217.17V160.078Z" fill="#E6E6DC"/>
<path d="M216.647 160.479L210.369 162.541H208.245L202.059 160.479H216.647Z" fill="#E6E6DC"/>
<path d="M215.801 155.755H211.4V156.801H215.801V155.755Z" fill="#E6E6DC"/>
<path d="M213.6 156.155L214.385 160.278H212.877L213.6 156.155Z" fill="#E6E6DC"/>
<path d="M206.168 159.663H203.968V160.248H206.168V159.663Z" fill="#E6E6DC"/>
<path d="M204.352 160.432C204.352 160.638 204.433 160.835 204.577 160.982C204.721 161.129 204.916 161.213 205.122 161.217C205.224 161.217 205.325 161.197 205.42 161.157C205.514 161.118 205.6 161.06 205.671 160.986C205.743 160.913 205.799 160.827 205.837 160.732C205.875 160.636 205.893 160.535 205.891 160.432V159.155C205.891 158.951 205.81 158.756 205.666 158.611C205.521 158.467 205.326 158.386 205.122 158.386C204.919 158.39 204.725 158.472 204.582 158.616C204.439 158.759 204.356 158.952 204.352 159.155V160.432Z" fill="#E6E6DC"/>
<path d="M210.923 160.432L209.953 150.569L210.923 160.432Z" fill="#E6E6DC"/>
<path d="M210.063 150.599L209.833 150.622L210.807 160.499L211.037 160.477L210.063 150.599Z" fill="#E6E6DC"/>
<path d="M209.954 150.615L208.415 160.479L209.954 150.615Z" fill="#E6E6DC"/>
<path d="M209.845 150.581L208.294 160.462L208.522 160.498L210.073 150.616L209.845 150.581Z" fill="#E6E6DC"/>
<path d="M210.23 153.477H208.261V153.985H210.23V153.477Z" fill="#E6E6DC"/>
<path d="M210.23 151.984H208.261V152.492H210.23V151.984Z" fill="#E6E6DC"/>
<path d="M210.415 155.047H208.261V155.554H210.415V155.047Z" fill="#E6E6DC"/>
<path d="M210.538 156.339H208.261V156.847H210.538V156.339Z" fill="#E6E6DC"/>
<path d="M210.707 157.755H208.261V158.263H210.707V157.755Z" fill="#E6E6DC"/>
<path d="M209.399 151.046H207.922V151.831H209.399V151.046Z" fill="#E6E6DC"/>
<g style="mix-blend-mode:multiply">
<path d="M210.6 174.374H209.477V162.125L210.6 162.54V174.374Z" fill="#E6E6DC"/>
</g>
<g style="mix-blend-mode:multiply">
<path d="M209.477 162.125L214.662 160.894H215.386L210.6 162.479L209.477 162.125Z" fill="#E6E6DC"/>
</g>
<path d="M209.43 208.658H186.102V217.491H209.43V208.658Z" fill="#E2421E"/>
<g style="mix-blend-mode:multiply">
<path d="M209.43 208.658H192.765V217.491H209.43V208.658Z" fill="#CCCCCC"/>
</g>
<path d="M209.43 199.164H186.102V207.996H209.43V199.164Z" fill="#E2421E"/>
<g style="mix-blend-mode:multiply">
<path d="M209.43 199.164H192.765V207.996H209.43V199.164Z" fill="#CCCCCC"/>
</g>
<path d="M185.44 208.612H162.112V217.445H185.44V208.612Z" fill="#E2421E"/>
<g style="mix-blend-mode:multiply">
<path d="M185.44 208.612H168.775V217.445H185.44V208.612Z" fill="#CCCCCC"/>
</g>
<path d="M192.673 208.658H169.345V217.491H192.673V208.658Z" fill="#E2421E"/>
<g style="mix-blend-mode:multiply">
<path d="M192.673 208.658H176.008V217.491H192.673V208.658Z" fill="#CCCCCC"/>
</g>
<path d="M185.44 199.318H162.112V208.15H185.44V199.318Z" fill="#E2421E"/>
<g style="mix-blend-mode:multiply">
<path d="M185.44 199.318H168.775V208.15H185.44V199.318Z" fill="#CCCCCC"/>
</g>
<path d="M216.662 208.658H193.334V217.491H216.662V208.658Z" fill="#7BBCCC"/>
<g style="mix-blend-mode:multiply">
<path d="M216.663 208.658H199.998V217.491H216.663V208.658Z" fill="#CCCCCC"/>
</g>
<path d="M223.987 208.658H200.659V217.491H223.987V208.658Z" fill="#7BBCCC"/>
<g style="mix-blend-mode:multiply">
<path d="M223.987 208.658H207.322V217.491H223.987V208.658Z" fill="#CCCCCC"/>
</g>
<path d="M231.219 208.658H207.891V217.491H231.219V208.658Z" fill="#E2421E"/>
<g style="mix-blend-mode:multiply">
<path d="M231.219 208.658H214.554V217.491H231.219V208.658Z" fill="#CCCCCC"/>
</g>
<path d="M418.662 236.987C417.076 236.988 415.512 236.616 414.095 235.903C412.679 235.189 411.45 234.153 410.506 232.879C409.56 234.152 408.329 235.186 406.911 235.899C405.494 236.611 403.93 236.982 402.343 236.982C400.757 236.982 399.192 236.611 397.775 235.899C396.357 235.186 395.126 234.152 394.18 232.879C393.232 234.152 391.999 235.186 390.581 235.899C389.162 236.611 387.596 236.982 386.009 236.982C384.421 236.982 382.856 236.611 381.437 235.899C380.018 235.186 378.786 234.152 377.838 232.879C376.891 234.152 375.66 235.186 374.243 235.899C372.826 236.611 371.261 236.982 369.675 236.982C368.088 236.982 366.524 236.611 365.106 235.899C363.689 235.186 362.458 234.152 361.511 232.879C360.565 234.152 359.334 235.186 357.916 235.899C356.499 236.611 354.934 236.982 353.348 236.982C351.762 236.982 350.197 236.611 348.78 235.899C347.362 235.186 346.131 234.152 345.185 232.879C344.238 234.152 343.007 235.186 341.59 235.899C340.172 236.611 338.608 236.982 337.021 236.982C335.435 236.982 333.871 236.611 332.453 235.899C331.036 235.186 329.805 234.152 328.858 232.879C327.912 234.152 326.681 235.186 325.263 235.899C323.846 236.611 322.281 236.982 320.695 236.982C319.108 236.982 317.544 236.611 316.127 235.899C314.709 235.186 313.478 234.152 312.532 232.879C311.585 234.152 310.354 235.186 308.937 235.899C307.519 236.611 305.955 236.982 304.368 236.982C302.782 236.982 301.217 236.611 299.8 235.899C298.383 235.186 297.151 234.152 296.205 232.879C295.259 234.152 294.028 235.186 292.61 235.899C291.193 236.611 289.628 236.982 288.042 236.982C286.455 236.982 284.891 236.611 283.473 235.899C282.056 235.186 280.825 234.152 279.879 232.879C278.932 234.152 277.701 235.186 276.284 235.899C274.866 236.611 273.302 236.982 271.715 236.982C270.129 236.982 268.564 236.611 267.147 235.899C265.729 235.186 264.498 234.152 263.552 232.879C262.604 234.152 261.371 235.186 259.953 235.899C258.534 236.611 256.969 236.982 255.381 236.982C253.793 236.982 252.228 236.611 250.809 235.899C249.391 235.186 248.158 234.152 247.21 232.879C246.264 234.152 245.033 235.186 243.615 235.899C242.198 236.611 240.633 236.982 239.047 236.982C237.46 236.982 235.896 236.611 234.478 235.899C233.061 235.186 231.83 234.152 230.883 232.879C229.937 234.152 228.706 235.186 227.289 235.899C225.871 236.611 224.307 236.982 222.72 236.982C221.134 236.982 219.569 236.611 218.152 235.899C216.734 235.186 215.503 234.152 214.557 232.879C213.61 234.152 212.379 235.186 210.962 235.899C209.544 236.611 207.98 236.982 206.394 236.982C204.807 236.982 203.243 236.611 201.825 235.899C200.408 235.186 199.177 234.152 198.23 232.879C197.284 234.152 196.053 235.186 194.635 235.899C193.218 236.611 191.654 236.982 190.067 236.982C188.481 236.982 186.916 236.611 185.499 235.899C184.081 235.186 182.85 234.152 181.904 232.879C180.957 234.152 179.726 235.186 178.309 235.899C176.891 236.611 175.327 236.982 173.74 236.982C172.154 236.982 170.59 236.611 169.172 235.899C167.755 235.186 166.524 234.152 165.577 232.879C164.631 234.152 163.4 235.186 161.982 235.899C160.565 236.611 159 236.982 157.414 236.982C155.827 236.982 154.263 236.611 152.846 235.899C151.428 235.186 150.197 234.152 149.251 232.879C148.304 234.152 147.073 235.186 145.656 235.899C144.238 236.611 142.674 236.982 141.087 236.982C139.501 236.982 137.936 236.611 136.519 235.899C135.102 235.186 133.871 234.152 132.924 232.879C131.976 234.152 130.744 235.186 129.325 235.899C127.906 236.611 126.341 236.982 124.753 236.982C123.166 236.982 121.6 236.611 120.181 235.899C118.763 235.186 117.53 234.152 116.582 232.879C115.636 234.152 114.405 235.186 112.987 235.899C111.57 236.611 110.005 236.982 108.419 236.982C106.832 236.982 105.268 236.611 103.851 235.899C102.433 235.186 101.202 234.152 100.256 232.879C99.3092 234.152 98.0781 235.186 96.6607 235.899C95.2432 236.611 93.6788 236.982 92.0923 236.982C90.5059 236.982 88.9415 236.611 87.524 235.899C86.1066 235.186 84.8755 234.152 83.9291 232.879C82.9827 234.152 81.7515 235.186 80.3341 235.899C78.9167 236.611 77.3522 236.982 75.7658 236.982C74.1793 236.982 72.6149 236.611 71.1975 235.899C69.78 235.186 68.5489 234.152 67.6025 232.879C66.6561 234.152 65.425 235.186 64.0076 235.899C62.5901 236.611 61.0257 236.982 59.4392 236.982C57.8528 236.982 56.2883 236.611 54.8709 235.899C53.4535 235.186 52.2223 234.152 51.2759 232.879C50.3295 234.152 49.0984 235.186 47.681 235.899C46.2636 236.611 44.6991 236.982 43.1127 236.982C41.5262 236.982 39.9618 236.611 38.5443 235.899C37.1269 235.186 35.8958 234.152 34.9494 232.879C34.003 234.152 32.7719 235.186 31.3544 235.899C29.937 236.611 28.3726 236.982 26.7861 236.982C25.1997 236.982 23.6352 236.611 22.2178 235.899C20.8003 235.186 19.5692 234.152 18.6228 232.879C17.6764 234.152 16.4453 235.186 15.0279 235.899C13.6105 236.611 12.046 236.982 10.4595 236.982C8.8731 236.982 7.30865 236.611 5.89122 235.899C4.47379 235.186 3.24268 234.152 2.29628 232.879C1.34825 234.152 0.11573 235.186 -1.30294 235.899C-2.72161 236.611 -4.28717 236.982 -5.8747 236.982C-7.46223 236.982 -9.02778 236.611 -10.4465 235.899C-11.8651 235.186 -13.0976 234.152 -14.0457 232.879C-14.9921 234.152 -16.2232 235.186 -17.6406 235.899C-19.058 236.611 -20.6225 236.982 -22.2089 236.982C-23.7954 236.982 -25.3598 236.611 -26.7773 235.899C-28.1947 235.186 -29.4258 234.152 -30.3722 232.879C-31.3186 234.152 -32.5497 235.186 -33.9672 235.899C-35.3846 236.611 -36.9491 236.982 -38.5355 236.982C-40.122 236.982 -41.6864 236.611 -43.1038 235.899C-44.5213 235.186 -45.7524 234.152 -46.6988 232.879L-47.1143 250.082L80.6053 242.388L418.662 236.987Z" fill="#4AA29A"/>
<path d="M124.776 236.987C123.19 236.988 121.626 236.616 120.21 235.903C118.793 235.189 117.564 234.153 116.621 232.879C115.674 234.152 114.443 235.186 113.026 235.899C111.608 236.611 110.044 236.982 108.457 236.982C106.871 236.982 105.306 236.611 103.889 235.899C102.472 235.186 101.24 234.152 100.294 232.879C99.346 234.152 98.1135 235.186 96.6949 235.899C95.2762 236.611 93.7106 236.982 92.123 236.982C90.5355 236.982 88.97 236.611 87.5513 235.899C86.1327 235.186 84.9001 234.152 83.9521 232.879C83.0057 234.152 81.7746 235.186 80.3572 235.899C78.9397 236.611 77.3752 236.982 75.7888 236.982C74.2024 236.982 72.6379 236.611 71.2205 235.899C69.803 235.186 68.5719 234.152 67.6255 232.879C66.6791 234.152 65.448 235.186 64.0306 235.899C62.6132 236.611 61.0487 236.982 59.4622 236.982C57.8758 236.982 56.3114 236.611 54.8939 235.899C53.4765 235.186 52.2454 234.152 51.299 232.879C50.3526 234.152 49.1215 235.186 47.704 235.899C46.2866 236.611 44.7221 236.982 43.1357 236.982C41.5493 236.982 39.9848 236.611 38.5674 235.899C37.1499 235.186 35.9188 234.152 34.9724 232.879C34.026 234.152 32.7949 235.186 31.3775 235.899C29.9601 236.611 28.3956 236.982 26.8091 236.982C25.2227 236.982 23.6582 236.611 22.2408 235.899C20.8234 235.186 19.5923 234.152 18.6459 232.879C17.6995 234.152 16.4684 235.186 15.0509 235.899C13.6335 236.611 12.069 236.982 10.4826 236.982C8.89615 236.982 7.3317 236.611 5.91425 235.899C4.49683 235.186 3.26572 234.152 2.31931 232.879C1.37289 234.152 0.141785 235.186 -1.27563 235.899C-2.69308 236.611 -4.25751 236.982 -5.84396 236.982C-7.43042 236.982 -8.99487 236.611 -10.4123 235.899C-11.8297 235.186 -13.0609 234.152 -14.0072 232.879C-14.9536 234.152 -16.1848 235.186 -17.6022 235.899C-19.0196 236.611 -20.5841 236.982 -22.1705 236.982C-23.757 236.982 -25.3214 236.611 -26.7389 235.899C-28.1563 235.186 -29.3874 234.152 -30.3338 232.879C-31.2818 234.152 -32.5143 235.186 -33.933 235.899C-35.3517 236.611 -36.9172 236.982 -38.5048 236.982C-40.0923 236.982 -41.6578 236.611 -43.0765 235.899C-44.4952 235.186 -45.7277 234.152 -46.6758 232.879C-47.6222 234.152 -48.8532 235.186 -50.2707 235.899C-51.6881 236.611 -53.2526 236.982 -54.839 236.982C-56.4255 236.982 -57.9899 236.611 -59.4073 235.899C-60.8248 235.186 -62.0559 234.152 -63.0023 232.879C-63.9487 234.152 -65.1798 235.186 -66.5973 235.899C-68.0147 236.611 -69.5791 236.982 -71.1656 236.982C-72.752 236.982 -74.3165 236.611 -75.7339 235.899C-77.1513 235.186 -78.3825 234.152 -79.3289 232.879C-80.2753 234.152 -81.5064 235.186 -82.9238 235.899C-84.3412 236.611 -85.9057 236.982 -87.4921 236.982C-89.0786 236.982 -90.643 236.611 -92.0605 235.899C-93.4779 235.186 -94.709 234.152 -95.6554 232.879C-96.6018 234.152 -97.8329 235.186 -99.2504 235.899C-100.668 236.611 -102.232 236.982 -103.819 236.982C-105.405 236.982 -106.97 236.611 -108.387 235.899C-109.804 235.186 -111.036 234.152 -111.982 232.879C-112.928 234.152 -114.16 235.186 -115.577 235.899C-116.994 236.611 -118.559 236.982 -120.145 236.982C-121.732 236.982 -123.296 236.611 -124.714 235.899C-126.131 235.186 -127.362 234.152 -128.309 232.879C-129.255 234.152 -130.486 235.186 -131.903 235.899C-133.321 236.611 -134.885 236.982 -136.472 236.982C-138.058 236.982 -139.623 236.611 -141.04 235.899C-142.458 235.186 -143.689 234.152 -144.635 232.879C-145.581 234.152 -146.813 235.186 -148.23 235.899C-149.647 236.611 -151.212 236.982 -152.798 236.982C-154.385 236.982 -155.949 236.611 -157.367 235.899C-158.784 235.186 -160.015 234.152 -160.962 232.879C-161.91 234.152 -163.142 235.186 -164.561 235.899C-165.98 236.611 -167.545 236.982 -169.133 236.982C-170.72 236.982 -172.286 236.611 -173.704 235.899C-175.123 235.186 -176.356 234.152 -177.304 232.879C-178.25 234.152 -179.481 235.186 -180.899 235.899C-182.316 236.611 -183.88 236.982 -185.467 236.982C-187.053 236.982 -188.618 236.611 -190.035 235.899C-191.453 235.186 -192.684 234.152 -193.63 232.879C-194.577 234.152 -195.808 235.186 -197.225 235.899C-198.643 236.611 -200.207 236.982 -201.793 236.982C-203.38 236.982 -204.944 236.611 -206.362 235.899C-207.779 235.186 -209.01 234.152 -209.957 232.879C-210.903 234.152 -212.134 235.186 -213.552 235.899C-214.969 236.611 -216.534 236.982 -218.12 236.982C-219.706 236.982 -221.271 236.611 -222.688 235.899C-224.106 235.186 -225.337 234.152 -226.283 232.879C-227.23 234.152 -228.461 235.186 -229.878 235.899C-231.296 236.611 -232.86 236.982 -234.447 236.982C-236.033 236.982 -237.597 236.611 -239.015 235.899C-240.432 235.186 -241.663 234.152 -242.61 232.879C-243.556 234.152 -244.787 235.186 -246.205 235.899C-247.622 236.611 -249.187 236.982 -250.773 236.982C-252.36 236.982 -253.924 236.611 -255.341 235.899C-256.759 235.186 -257.99 234.152 -258.936 232.879C-259.883 234.152 -261.114 235.186 -262.531 235.899C-263.949 236.611 -265.513 236.982 -267.1 236.982C-268.686 236.982 -270.251 236.611 -271.668 235.899C-273.085 235.186 -274.317 234.152 -275.263 232.879C-276.209 234.152 -277.44 235.186 -278.858 235.899C-280.275 236.611 -281.84 236.982 -283.426 236.982C-285.013 236.982 -286.577 236.611 -287.995 235.899C-289.412 235.186 -290.643 234.152 -291.589 232.879C-292.537 234.152 -293.77 235.186 -295.189 235.899C-296.607 236.611 -298.173 236.982 -299.76 236.982C-301.348 236.982 -302.914 236.611 -304.332 235.899C-305.751 235.186 -306.983 234.152 -307.931 232.879C-308.878 234.152 -310.109 235.186 -311.526 235.899C-312.944 236.611 -314.508 236.982 -316.095 236.982C-317.681 236.982 -319.246 236.611 -320.663 235.899C-322.08 235.186 -323.312 234.152 -324.258 232.879C-325.204 234.152 -326.435 235.186 -327.853 235.899C-329.27 236.611 -330.835 236.982 -332.421 236.982C-334.008 236.982 -335.572 236.611 -336.99 235.899C-338.407 235.186 -339.638 234.152 -340.585 232.879L-341 250.082L-213.552 251.959H-41.3232L124.776 236.987Z" fill="#4AA29A"/>
<path d="M35.5081 252.344L418.667 246.928V236.987C417.081 236.988 415.517 236.616 414.1 235.903C412.684 235.189 411.454 234.153 410.511 232.879C409.565 234.152 408.334 235.186 406.916 235.899C405.499 236.611 403.934 236.982 402.348 236.982C400.761 236.982 399.197 236.611 397.779 235.899C396.362 235.186 395.131 234.152 394.185 232.879C393.236 234.152 392.004 235.186 390.585 235.899C389.167 236.611 387.601 236.982 386.014 236.982C384.426 236.982 382.86 236.611 381.442 235.899C380.023 235.186 378.791 234.152 377.843 232.879C376.896 234.152 375.665 235.186 374.248 235.899C372.83 236.611 371.266 236.982 369.679 236.982C368.093 236.982 366.528 236.611 365.111 235.899C363.693 235.186 362.462 234.152 361.516 232.879C360.57 234.152 359.338 235.186 357.921 235.899C356.504 236.611 354.939 236.982 353.353 236.982C351.766 236.982 350.202 236.611 348.784 235.899C347.367 235.186 346.136 234.152 345.189 232.879C344.243 234.152 343.012 235.186 341.595 235.899C340.177 236.611 338.613 236.982 337.026 236.982C335.44 236.982 333.875 236.611 332.458 235.899C331.04 235.186 329.809 234.152 328.863 232.879C327.917 234.152 326.685 235.186 325.268 235.899C323.85 236.611 322.286 236.982 320.7 236.982C319.113 236.982 317.549 236.611 316.131 235.899C314.714 235.186 313.483 234.152 312.536 232.879C311.59 234.152 310.359 235.186 308.941 235.899C307.524 236.611 305.96 236.982 304.373 236.982C302.787 236.982 301.222 236.611 299.805 235.899C298.387 235.186 297.156 234.152 296.21 232.879C295.263 234.152 294.032 235.186 292.615 235.899C291.197 236.611 289.633 236.982 288.046 236.982C286.46 236.982 284.896 236.611 283.478 235.899C282.061 235.186 280.83 234.152 279.883 232.879C278.937 234.152 277.706 235.186 276.288 235.899C274.871 236.611 273.306 236.982 271.72 236.982C270.133 236.982 268.569 236.611 267.152 235.899C265.734 235.186 264.503 234.152 263.557 232.879C262.609 234.152 261.376 235.186 259.957 235.899C258.539 236.611 256.973 236.982 255.386 236.982C253.798 236.982 252.233 236.611 250.814 235.899C249.395 235.186 248.163 234.152 247.215 232.879C246.268 234.152 245.037 235.186 243.62 235.899C242.202 236.611 240.638 236.982 239.051 236.982C237.465 236.982 235.901 236.611 234.483 235.899C233.066 235.186 231.835 234.152 230.888 232.879C229.942 234.152 228.711 235.186 227.293 235.899C225.876 236.611 224.311 236.982 222.725 236.982C221.138 236.982 219.574 236.611 218.157 235.899C216.739 235.186 215.508 234.152 214.562 232.879C213.615 234.152 212.384 235.186 210.967 235.899C209.549 236.611 207.985 236.982 206.398 236.982C204.812 236.982 203.247 236.611 201.83 235.899C200.413 235.186 199.181 234.152 198.235 232.879C197.289 234.152 196.058 235.186 194.64 235.899C193.223 236.611 191.658 236.982 190.072 236.982C188.485 236.982 186.921 236.611 185.503 235.899C184.086 235.186 182.855 234.152 181.909 232.879C180.962 234.152 179.731 235.186 178.314 235.899C176.896 236.611 175.332 236.982 173.745 236.982C172.159 236.982 170.594 236.611 169.177 235.899C167.759 235.186 166.528 234.152 165.582 232.879C164.636 234.152 163.404 235.186 161.987 235.899C160.57 236.611 159.005 236.982 157.419 236.982C155.832 236.982 154.268 236.611 152.85 235.899C151.433 235.186 150.202 234.152 149.255 232.879C148.309 234.152 147.078 235.186 145.66 235.899C144.243 236.611 142.679 236.982 141.092 236.982C139.506 236.982 137.941 236.611 136.524 235.899C135.106 235.186 133.875 234.152 132.929 232.879C131.981 234.152 130.748 235.186 129.33 235.899C127.911 236.611 126.345 236.982 124.758 236.982C123.17 236.982 121.605 236.611 120.186 235.899C118.767 235.186 117.535 234.152 116.587 232.879C115.64 234.152 114.409 235.186 112.992 235.899C111.574 236.611 110.01 236.982 108.424 236.982C106.837 236.982 105.273 236.611 103.855 235.899C102.438 235.186 101.207 234.152 100.26 232.879C99.3139 234.152 98.0828 235.186 96.6654 235.899C95.2479 236.611 93.6835 236.982 92.097 236.982C90.5106 236.982 88.9461 236.611 87.5287 235.899C86.1113 235.186 84.8802 234.152 83.9338 232.879C82.9874 234.152 81.7562 235.186 80.3388 235.899C78.9214 236.611 77.3569 236.982 75.7705 236.982C74.184 236.982 72.6196 236.611 71.2022 235.899C69.7847 235.186 68.5536 234.152 67.6072 232.879C66.6608 234.152 65.4297 235.186 64.0123 235.899C62.5948 236.611 61.0304 236.982 59.4439 236.982C57.8575 236.982 56.293 236.611 54.8756 235.899C53.4582 235.186 52.2271 234.152 51.2806 232.879C50.2699 234.083 49.0239 235.069 47.6189 235.776C46.2139 236.482 44.6795 236.894 43.1097 236.987C41.9468 237.006 40.7915 236.797 39.709 236.372L35.5081 252.344Z" fill="#4AA29A"/>
<rect x="-250.225" y="242.989" width="828.012" height="104.011" fill="url(#paint0_linear)"/>
<path d="M234.508 298.119V297.227C234.508 296.819 234.346 296.427 234.058 296.139C233.769 295.85 233.378 295.688 232.97 295.688H200.809C200.401 295.688 200.009 295.85 199.721 296.139C199.432 296.427 199.27 296.819 199.27 297.227V298.119H234.508Z" fill="#223946"/>
<g style="mix-blend-mode:multiply">
<path d="M228.876 298.114V297.499C228.845 297.184 228.693 296.894 228.451 296.691C228.21 296.487 227.899 296.385 227.584 296.406H201.27C200.955 296.385 200.644 296.487 200.403 296.691C200.161 296.894 200.009 297.184 199.978 297.499V298.114H228.876Z" fill="#CCCCCC"/>
</g>
<path d="M209.718 286.654H204.763V295.825H209.718V286.654Z" fill="#223946"/>
<path d="M212.904 286.654H201.717V288.993H212.904V286.654Z" fill="#223946"/>
<path d="M225.691 286.654H220.736V295.825H225.691V286.654Z" fill="#223946"/>
<path d="M228.876 286.654H217.689V288.993H228.876V286.654Z" fill="#223946"/>
<g style="mix-blend-mode:multiply">
<path d="M209.718 288.974H205.825H204.763V290.282V295.652H205.825V290.282H209.718V288.974Z" fill="#CCCCCC"/>
</g>
<g style="mix-blend-mode:multiply">
<path d="M225.691 288.974H222.044H220.736V290.282V295.652H222.044V290.282H225.691V288.974Z" fill="#CCCCCC"/>
</g>
<g style="mix-blend-mode:multiply">
<path d="M203.502 286.654H201.717V288.993H203.502V286.654Z" fill="#CCCCCC"/>
</g>
<g style="mix-blend-mode:multiply">
<path d="M219.274 286.654H217.689V288.993H219.274V286.654Z" fill="#CCCCCC"/>
</g>
<path d="M190.114 311.519C191.064 312.79 192.297 313.821 193.716 314.532C195.134 315.242 196.699 315.612 198.285 315.612C199.872 315.612 201.436 315.242 202.855 314.532C204.273 313.821 205.506 312.79 206.456 311.519C207.406 312.787 208.639 313.816 210.056 314.524C211.473 315.233 213.035 315.602 214.619 315.602C216.204 315.602 217.766 315.233 219.183 314.524C220.6 313.816 221.832 312.787 222.783 311.519C223.731 312.79 224.963 313.821 226.38 314.532C227.797 315.242 229.361 315.612 230.946 315.612C232.531 315.612 234.095 315.242 235.512 314.532C236.929 313.821 238.161 312.79 239.109 311.519C240.058 312.79 241.289 313.821 242.707 314.532C244.124 315.242 245.687 315.612 247.273 315.612C248.858 315.612 250.421 315.242 251.839 314.532C253.256 313.821 254.487 312.79 255.436 311.519C256.384 312.79 257.616 313.821 259.033 314.532C260.45 315.242 262.014 315.612 263.599 315.612C265.184 315.612 266.748 315.242 268.165 314.532C269.582 313.821 270.814 312.79 271.762 311.519C272.711 312.79 273.942 313.821 275.36 314.532C276.777 315.242 278.34 315.612 279.926 315.612C281.511 315.612 283.074 315.242 284.492 314.532C285.909 313.821 287.141 312.79 288.089 311.519C289.037 312.79 290.269 313.821 291.686 314.532C293.103 315.242 294.667 315.612 296.252 315.612C297.838 315.612 299.401 315.242 300.818 314.532C302.235 313.821 303.467 312.79 304.415 311.519C305.364 312.79 306.596 313.821 308.013 314.532C309.43 315.242 310.993 315.612 312.579 315.612C314.164 315.612 315.728 315.242 317.145 314.532C318.562 313.821 319.794 312.79 320.742 311.519C321.692 312.79 322.925 313.821 324.344 314.532C325.762 315.242 327.327 315.612 328.913 315.612C330.499 315.612 332.064 315.242 333.482 314.532C334.901 313.821 336.134 312.79 337.084 311.519C338.032 312.79 339.264 313.821 340.681 314.532C342.098 315.242 343.662 315.612 345.247 315.612C346.833 315.612 348.396 315.242 349.813 314.532C351.23 313.821 352.462 312.79 353.41 311.519C354.359 312.79 355.591 313.821 357.008 314.532C358.425 315.242 359.988 315.612 361.574 315.612C363.159 315.612 364.723 315.242 366.14 314.532C367.557 313.821 368.789 312.79 369.737 311.519C370.685 312.79 371.917 313.821 373.334 314.532C374.752 315.242 376.315 315.612 377.9 315.612C379.486 315.612 381.049 315.242 382.466 314.532C383.884 313.821 385.115 312.79 386.064 311.519C387.012 312.79 388.244 313.821 389.661 314.532C391.078 315.242 392.642 315.612 394.227 315.612C395.812 315.612 397.376 315.242 398.793 314.532C400.21 313.821 401.442 312.79 402.39 311.519C403.338 312.79 404.57 313.821 405.987 314.532C407.405 315.242 408.968 315.612 410.553 315.612C412.139 315.612 413.702 315.242 415.119 314.532C416.537 313.821 417.768 312.79 418.717 311.519C419.665 312.79 420.897 313.821 422.314 314.532C423.731 315.242 425.295 315.612 426.88 315.612C428.465 315.612 430.029 315.242 431.446 314.532C432.863 313.821 434.095 312.79 435.043 311.519C435.992 312.79 437.223 313.821 438.641 314.532C440.058 315.242 441.621 315.612 443.207 315.612C444.792 315.612 446.355 315.242 447.773 314.532C449.19 313.821 450.422 312.79 451.37 311.519C452.32 312.79 453.553 313.821 454.971 314.532C456.39 315.242 457.954 315.612 459.541 315.612C461.127 315.612 462.692 315.242 464.11 314.532C465.529 313.821 466.762 312.79 467.712 311.519C468.66 312.79 469.892 313.821 471.309 314.532C472.726 315.242 474.29 315.612 475.875 315.612C477.46 315.612 479.024 315.242 480.441 314.532C481.858 313.821 483.09 312.79 484.038 311.519C484.909 312.696 486.024 313.669 487.307 314.373C488.59 315.077 490.011 315.495 491.471 315.597V297.87H186.59V314.489C187.976 313.781 189.181 312.765 190.114 311.519Z" fill="white"/>
<g style="mix-blend-mode:multiply">
<path d="M190.114 311.519C191.064 312.79 192.297 313.821 193.716 314.532C195.134 315.242 196.699 315.612 198.285 315.612C199.872 315.612 201.436 315.242 202.855 314.532C204.273 313.821 205.506 312.79 206.456 311.519C207.406 312.787 208.639 313.816 210.056 314.524C211.473 315.233 213.035 315.602 214.619 315.602C216.204 315.602 217.766 315.233 219.183 314.524C220.6 313.816 221.832 312.787 222.783 311.519C223.731 312.79 224.963 313.821 226.38 314.532C227.797 315.242 229.361 315.612 230.946 315.612C232.531 315.612 234.095 315.242 235.512 314.532C236.929 313.821 238.161 312.79 239.109 311.519L239.263 311.719V297.87H186.59V314.489C187.976 313.781 189.181 312.765 190.114 311.519Z" fill="#E6E6E6"/>
</g>
<g filter="url(#filter0_d)">
<path d="M193.471 99.1614C193.471 106.983 187.131 113.323 179.309 113.323C171.488 113.323 165.148 106.983 165.148 99.1614C165.148 91.3403 171.488 85 179.309 85C187.131 85 193.471 91.3403 193.471 99.1614Z" fill="white"/>
<path d="M169.744 102.39C169.744 108.427 164.85 113.321 158.813 113.321C152.776 113.321 147.882 108.427 147.882 102.39C147.882 96.353 152.776 91.459 158.813 91.459C164.85 91.459 169.744 96.353 169.744 102.39Z" fill="white"/>
<path d="M152.787 106.428C152.787 110.235 149.701 113.322 145.894 113.322C142.086 113.322 139 110.235 139 106.428C139 102.621 142.086 99.5345 145.894 99.5345C149.701 99.5345 152.787 102.621 152.787 106.428Z" fill="white"/>
<path d="M145.646 102.888H193.471L180.428 113.321H145.646V102.888Z" fill="white"/>
</g>
<g filter="url(#filter1_d)">
<path d="M73.5459 144.773C73.5459 152.932 66.9318 159.546 58.773 159.546C50.6141 159.546 44 152.932 44 144.773C44 136.614 50.6141 130 58.773 130C66.9318 130 73.5459 136.614 73.5459 144.773Z" fill="white"/>
<path d="M80.163 159.547C86.5375 159.547 91.7051 154.38 91.7051 148.005C91.7051 141.631 86.5375 136.463 80.163 136.463C73.7885 136.463 68.6209 141.631 68.6209 148.005L58.693 159.547H80.163Z" fill="white"/>
</g>
<g opacity="0.15" filter="url(#filter2_f)">
<path d="M270.076 291.38C263.105 278.504 261.432 276.983 263.11 273.133C265.408 267.859 274.096 265.004 282.515 266.756C290.934 268.507 295.896 274.203 293.598 279.476C291.92 283.326 289.31 283.956 273.209 292.032C272.154 292.559 270.534 292.222 270.076 291.38ZM276.62 280.283C280.128 281.013 283.748 279.824 284.706 277.626C285.663 275.429 283.596 273.056 280.088 272.326C276.58 271.596 272.96 272.786 272.002 274.983C271.045 277.18 273.112 279.553 276.62 280.283Z" fill="#404040"/>
</g>
<path d="M269.956 291.436C257.98 273.908 255.757 272.109 255.757 265.668C255.757 256.844 262.842 249.691 271.582 249.691C280.322 249.691 287.407 256.844 287.407 265.668C287.407 272.109 285.184 273.908 273.208 291.436C272.423 292.583 270.742 292.583 269.956 291.436ZM271.582 272.325C275.224 272.325 278.176 269.344 278.176 265.668C278.176 261.991 275.224 259.011 271.582 259.011C267.941 259.011 264.988 261.991 264.988 265.668C264.988 269.344 267.941 272.325 271.582 272.325Z" fill="#E2581D"/>
</g>
<defs>
<filter id="filter0_d" x="139" y="85" width="59.4708" height="36.3229" filterUnits="userSpaceOnUse" color-interpolation-filters="sRGB">
<feFlood flood-opacity="0" result="BackgroundImageFix"/>
<feColorMatrix in="SourceAlpha" type="matrix" values="0 0 0 0 0 0 0 0 0 0 0 0 0 0 0 0 0 0 127 0"/>
<feOffset dx="4" dy="7"/>
<feGaussianBlur stdDeviation="0.5"/>
<feColorMatrix type="matrix" values="0 0 0 0 0 0 0 0 0 0 0 0 0 0 0 0 0 0 0.15 0"/>
<feBlend mode="normal" in2="BackgroundImageFix" result="effect1_dropShadow"/>
<feBlend mode="normal" in="SourceGraphic" in2="effect1_dropShadow" result="shape"/>
</filter>
<filter id="filter1_d" x="44" y="130" width="52.7051" height="37.5474" filterUnits="userSpaceOnUse" color-interpolation-filters="sRGB">
<feFlood flood-opacity="0" result="BackgroundImageFix"/>
<feColorMatrix in="SourceAlpha" type="matrix" values="0 0 0 0 0 0 0 0 0 0 0 0 0 0 0 0 0 0 127 0"/>
<feOffset dx="4" dy="7"/>
<feGaussianBlur stdDeviation="0.5"/>
<feColorMatrix type="matrix" values="0 0 0 0 0 0 0 0 0 0 0 0 0 0 0 0 0 0 0.15 0"/>
<feBlend mode="normal" in2="BackgroundImageFix" result="effect1_dropShadow"/>
<feBlend mode="normal" in="SourceGraphic" in2="effect1_dropShadow" result="shape"/>
</filter>
<filter id="filter2_f" x="261.508" y="265.24" width="33.652" height="28.0446" filterUnits="userSpaceOnUse" color-interpolation-filters="sRGB">
<feFlood flood-opacity="0" result="BackgroundImageFix"/>
<feBlend mode="normal" in="SourceGraphic" in2="BackgroundImageFix" result="shape"/>
<feGaussianBlur stdDeviation="0.5" result="effect1_foregroundBlur"/>
</filter>
<linearGradient id="paint0_linear" x1="163.782" y1="251.391" x2="163.782" y2="308.945" gradientUnits="userSpaceOnUse">
<stop stop-color="#4AA29A"/>
<stop offset="1" stop-color="#4AA29A" stop-opacity="0"/>
</linearGradient>
<clipPath id="clip0">
<rect width="320" height="370" fill="white"/>
</clipPath>
</defs>
</svg>
