<svg width="768" height="695" viewBox="0 0 768 695" fill="none" xmlns="http://www.w3.org/2000/svg">
<g clip-path="url(#clip0)">
<rect opacity="0.5" width="768" height="695" fill="#4AA29A"/>
<path d="M612.657 266.056H606.23V330.354H612.657V266.056Z" fill="#E49306"/>
<path d="M539.454 267.391H533.027V359.276H539.454V267.391Z" fill="#E49306"/>
<path d="M535.424 315.049H532.7V359.303H535.424V315.049Z" fill="#F5B400"/>
<path d="M429.977 392.037H388.691V407.669H429.977V392.037Z" fill="#E2421E"/>
<g style="mix-blend-mode:multiply">
<path d="M429.977 392.037H400.483V407.669H429.977V392.037Z" fill="#CCCCCC"/>
</g>
<path d="M417.204 392.037H375.918V407.669H417.204V392.037Z" fill="#E2421E"/>
<g style="mix-blend-mode:multiply">
<path d="M417.231 392.037H387.738V407.669H417.231V392.037Z" fill="#CCCCCC"/>
</g>
<path d="M429.922 392.037H388.637V407.669H429.922V392.037Z" fill="#E2421E"/>
<g style="mix-blend-mode:multiply">
<path d="M429.922 392.037H400.429V407.669H429.922V392.037Z" fill="#CCCCCC"/>
</g>
<path d="M442.776 392.037H401.49V407.669H442.776V392.037Z" fill="#4AA29A"/>
<g style="mix-blend-mode:multiply">
<path d="M442.776 392.037H413.282V407.669H442.776V392.037Z" fill="#CCCCCC"/>
</g>
<path d="M455.739 392.037H414.454V407.669H455.739V392.037Z" fill="#3F5CA8"/>
<g style="mix-blend-mode:multiply">
<path d="M455.739 392.037H426.246V407.669H455.739V392.037Z" fill="#CCCCCC"/>
</g>
<path d="M468.539 392.037H427.253V407.669H468.539V392.037Z" fill="#E2421E"/>
<g style="mix-blend-mode:multiply">
<path d="M468.539 392.037H439.045V407.669H468.539V392.037Z" fill="#CCCCCC"/>
</g>
<path d="M493.866 392.092H452.581V407.724H493.866V392.092Z" fill="#E2421E"/>
<g style="mix-blend-mode:multiply">
<path d="M493.866 392.092H464.372V407.724H493.866V392.092Z" fill="#CCCCCC"/>
</g>
<path d="M481.094 392.092H439.808V407.724H481.094V392.092Z" fill="#E2421E"/>
<g style="mix-blend-mode:multiply">
<path d="M481.093 392.092H451.6V407.724H481.093V392.092Z" fill="#CCCCCC"/>
</g>
<path d="M493.784 392.092H452.499V407.724H493.784V392.092Z" fill="#E2421E"/>
<g style="mix-blend-mode:multiply">
<path d="M493.811 392.092H464.317V407.724H493.811V392.092Z" fill="#CCCCCC"/>
</g>
<path d="M506.666 392.092H465.38V407.724H506.666V392.092Z" fill="#D75724"/>
<g style="mix-blend-mode:multiply">
<path d="M506.666 392.092H477.172V407.724H506.666V392.092Z" fill="#CCCCCC"/>
</g>
<path d="M519.628 392.092H478.343V407.724H519.628V392.092Z" fill="#3F5CA8"/>
<g style="mix-blend-mode:multiply">
<path d="M519.629 392.092H490.135V407.724H519.629V392.092Z" fill="#CCCCCC"/>
</g>
<path d="M532.428 392.092H491.143V407.724H532.428V392.092Z" fill="#E2421E"/>
<g style="mix-blend-mode:multiply">
<path d="M532.428 392.092H502.935V407.724H532.428V392.092Z" fill="#CCCCCC"/>
</g>
<path d="M557.919 392.092H516.633V407.724H557.919V392.092Z" fill="#E2421E"/>
<g style="mix-blend-mode:multiply">
<path d="M557.918 392.092H528.425V407.724H557.918V392.092Z" fill="#CCCCCC"/>
</g>
<path d="M545.173 392.092H503.887V407.724H545.173V392.092Z" fill="#E2421E"/>
<g style="mix-blend-mode:multiply">
<path d="M545.173 392.092H515.679V407.724H545.173V392.092Z" fill="#CCCCCC"/>
</g>
<path d="M557.864 392.092H516.579V407.724H557.864V392.092Z" fill="#E2421E"/>
<g style="mix-blend-mode:multiply">
<path d="M557.864 392.092H528.37V407.724H557.864V392.092Z" fill="#CCCCCC"/>
</g>
<path d="M570.718 392.092H529.432V407.724H570.718V392.092Z" fill="#4AA29A"/>
<g style="mix-blend-mode:multiply">
<path d="M570.718 392.092H541.225V407.724H570.718V392.092Z" fill="#CCCCCC"/>
</g>
<path d="M583.681 392.092H542.396V407.724H583.681V392.092Z" fill="#3F5CA8"/>
<g style="mix-blend-mode:multiply">
<path d="M583.681 392.092H554.187V407.724H583.681V392.092Z" fill="#CCCCCC"/>
</g>
<path d="M596.48 392.092H555.195V407.724H596.48V392.092Z" fill="#E2421E"/>
<g style="mix-blend-mode:multiply">
<path d="M596.481 392.092H566.987V407.724H596.481V392.092Z" fill="#CCCCCC"/>
</g>
<path d="M622.162 392.092H580.876V407.724H622.162V392.092Z" fill="#E2421E"/>
<g style="mix-blend-mode:multiply">
<path d="M622.162 392.092H592.668V407.724H622.162V392.092Z" fill="#CCCCCC"/>
</g>
<path d="M609.416 392.092H568.131V407.724H609.416V392.092Z" fill="#E2421E"/>
<g style="mix-blend-mode:multiply">
<path d="M609.416 392.092H579.923V407.724H609.416V392.092Z" fill="#CCCCCC"/>
</g>
<path d="M622.107 392.092H580.822V407.724H622.107V392.092Z" fill="#E2421E"/>
<g style="mix-blend-mode:multiply">
<path d="M622.107 392.092H592.613V407.724H622.107V392.092Z" fill="#CCCCCC"/>
</g>
<path d="M634.961 392.092H593.676V407.724H634.961V392.092Z" fill="#4AA29A"/>
<g style="mix-blend-mode:multiply">
<path d="M634.961 392.092H605.468V407.724H634.961V392.092Z" fill="#CCCCCC"/>
</g>
<path d="M647.952 392.092H606.666V407.724H647.952V392.092Z" fill="#3F5CA8"/>
<g style="mix-blend-mode:multiply">
<path d="M647.951 392.092H618.458V407.724H647.951V392.092Z" fill="#CCCCCC"/>
</g>
<path d="M660.751 392.092H619.466V407.724H660.751V392.092Z" fill="#E2421E"/>
<g style="mix-blend-mode:multiply">
<path d="M660.751 392.092H631.258V407.724H660.751V392.092Z" fill="#CCCCCC"/>
</g>
<path d="M686.35 392.092H645.064V407.724H686.35V392.092Z" fill="#E2421E"/>
<g style="mix-blend-mode:multiply">
<path d="M686.351 392.092H656.857V407.724H686.351V392.092Z" fill="#CCCCCC"/>
</g>
<path d="M673.578 392.092H632.292V407.724H673.578V392.092Z" fill="#E2421E"/>
<g style="mix-blend-mode:multiply">
<path d="M673.605 392.092H644.112V407.724H673.605V392.092Z" fill="#CCCCCC"/>
</g>
<path d="M686.296 392.092H645.01V407.724H686.296V392.092Z" fill="#E2421E"/>
<g style="mix-blend-mode:multiply">
<path d="M686.296 392.092H656.802V407.724H686.296V392.092Z" fill="#CCCCCC"/>
</g>
<path d="M699.15 392.092H657.865V407.724H699.15V392.092Z" fill="#CCCCCC"/>
<g style="mix-blend-mode:multiply">
<path d="M699.15 392.092H669.656V407.724H699.15V392.092Z" fill="#CCCCCC"/>
</g>
<path d="M712.113 392.092H670.827V407.724H712.113V392.092Z" fill="#7BBCCC"/>
<g style="mix-blend-mode:multiply">
<path d="M712.113 392.092H682.62V407.724H712.113V392.092Z" fill="#CCCCCC"/>
</g>
<path d="M724.913 392.092H683.627V407.724H724.913V392.092Z" fill="#E2421E"/>
<g style="mix-blend-mode:multiply">
<path d="M724.913 392.092H695.419V407.724H724.913V392.092Z" fill="#CCCCCC"/>
</g>
<path d="M417.177 375.589H375.891V391.22H417.177V375.589Z" fill="#E2421E"/>
<g style="mix-blend-mode:multiply">
<path d="M417.177 375.589H387.683V391.22H417.177V375.589Z" fill="#CCCCCC"/>
</g>
<path d="M404.432 375.589H363.146V391.22H404.432V375.589Z" fill="#E2421E"/>
<g style="mix-blend-mode:multiply">
<path d="M404.432 375.589H374.938V391.22H404.432V375.589Z" fill="#CCCCCC"/>
</g>
<path d="M417.122 375.589H375.836V391.22H417.122V375.589Z" fill="#E2421E"/>
<g style="mix-blend-mode:multiply">
<path d="M417.123 375.589H387.629V391.22H417.123V375.589Z" fill="#CCCCCC"/>
</g>
<path d="M429.977 375.589H388.691V391.22H429.977V375.589Z" fill="#4AA29A"/>
<g style="mix-blend-mode:multiply">
<path d="M429.977 375.589H400.483V391.22H429.977V375.589Z" fill="#CCCCCC"/>
</g>
<path d="M442.94 375.589H401.654V391.22H442.94V375.589Z" fill="#3F5CA8"/>
<g style="mix-blend-mode:multiply">
<path d="M442.94 375.589H413.446V391.22H442.94V375.589Z" fill="#CCCCCC"/>
</g>
<path d="M455.739 375.589H414.454V391.22H455.739V375.589Z" fill="#E2421E"/>
<g style="mix-blend-mode:multiply">
<path d="M455.739 375.589H426.246V391.22H455.739V375.589Z" fill="#CCCCCC"/>
</g>
<path d="M481.066 375.616H439.781V391.248H481.066V375.616Z" fill="#E2421E"/>
<g style="mix-blend-mode:multiply">
<path d="M481.066 375.616H451.572V391.248H481.066V375.616Z" fill="#CCCCCC"/>
</g>
<path d="M468.294 375.616H427.008V391.248H468.294V375.616Z" fill="#E2421E"/>
<g style="mix-blend-mode:multiply">
<path d="M468.321 375.616H438.827V391.248H468.321V375.616Z" fill="#CCCCCC"/>
</g>
<path d="M481.012 375.616H439.726V391.248H481.012V375.616Z" fill="#E2421E"/>
<g style="mix-blend-mode:multiply">
<path d="M481.012 375.616H451.518V391.248H481.012V375.616Z" fill="#CCCCCC"/>
</g>
<path d="M493.866 375.616H452.581V391.248H493.866V375.616Z" fill="#223946"/>
<g style="mix-blend-mode:multiply">
<path d="M493.866 375.616H464.372V391.248H493.866V375.616Z" fill="#CCCCCC"/>
</g>
<path d="M506.829 375.616H465.543V391.248H506.829V375.616Z" fill="#7BBCCC"/>
<g style="mix-blend-mode:multiply">
<path d="M506.829 375.616H477.335V391.248H506.829V375.616Z" fill="#CCCCCC"/>
</g>
<path d="M519.628 375.616H478.343V391.248H519.628V375.616Z" fill="#E2421E"/>
<g style="mix-blend-mode:multiply">
<path d="M519.629 375.616H490.135V391.248H519.629V375.616Z" fill="#CCCCCC"/>
</g>
<path d="M545.119 375.616H503.833V391.248H545.119V375.616Z" fill="#E2421E"/>
<g style="mix-blend-mode:multiply">
<path d="M545.119 375.616H515.625V391.248H545.119V375.616Z" fill="#CCCCCC"/>
</g>
<path d="M532.374 375.616H491.088V391.248H532.374V375.616Z" fill="#E2421E"/>
<g style="mix-blend-mode:multiply">
<path d="M532.374 375.616H502.88V391.248H532.374V375.616Z" fill="#CCCCCC"/>
</g>
<path d="M545.064 375.616H503.779V391.248H545.064V375.616Z" fill="#E2421E"/>
<g style="mix-blend-mode:multiply">
<path d="M545.064 375.616H515.571V391.248H545.064V375.616Z" fill="#CCCCCC"/>
</g>
<path d="M557.919 375.616H516.633V391.248H557.919V375.616Z" fill="#223946"/>
<g style="mix-blend-mode:multiply">
<path d="M557.918 375.616H528.425V391.248H557.918V375.616Z" fill="#CCCCCC"/>
</g>
<path d="M570.882 375.616H529.596V391.248H570.882V375.616Z" fill="#CCCCCC"/>
<g style="mix-blend-mode:multiply">
<path d="M570.909 375.616H541.415V391.248H570.909V375.616Z" fill="#CCCCCC"/>
</g>
<path d="M583.681 375.616H542.396V391.248H583.681V375.616Z" fill="#E2421E"/>
<g style="mix-blend-mode:multiply">
<path d="M583.681 375.616H554.187V391.248H583.681V375.616Z" fill="#CCCCCC"/>
</g>
<path d="M609.389 375.616H568.104V391.248H609.389V375.616Z" fill="#E2421E"/>
<g style="mix-blend-mode:multiply">
<path d="M609.389 375.616H579.896V391.248H609.389V375.616Z" fill="#CCCCCC"/>
</g>
<path d="M596.617 375.616H555.332V391.248H596.617V375.616Z" fill="#E2421E"/>
<g style="mix-blend-mode:multiply">
<path d="M596.617 375.616H567.123V391.248H596.617V375.616Z" fill="#CCCCCC"/>
</g>
<path d="M609.307 375.616H568.022V391.248H609.307V375.616Z" fill="#E2421E"/>
<g style="mix-blend-mode:multiply">
<path d="M609.307 375.616H579.814V391.248H609.307V375.616Z" fill="#CCCCCC"/>
</g>
<path d="M622.162 375.616H580.876V391.248H622.162V375.616Z" fill="#223946"/>
<g style="mix-blend-mode:multiply">
<path d="M622.162 375.616H592.668V391.248H622.162V375.616Z" fill="#CCCCCC"/>
</g>
<path d="M635.152 375.616H593.866V391.248H635.152V375.616Z" fill="#223946"/>
<g style="mix-blend-mode:multiply">
<path d="M635.152 375.616H605.658V391.248H635.152V375.616Z" fill="#CCCCCC"/>
</g>
<path d="M647.952 375.616H606.666V391.248H647.952V375.616Z" fill="#E2421E"/>
<g style="mix-blend-mode:multiply">
<path d="M647.951 375.616H618.458V391.248H647.951V375.616Z" fill="#CCCCCC"/>
</g>
<path d="M673.551 375.616H632.265V391.248H673.551V375.616Z" fill="#E2421E"/>
<g style="mix-blend-mode:multiply">
<path d="M673.551 375.616H644.057V391.248H673.551V375.616Z" fill="#CCCCCC"/>
</g>
<path d="M660.806 375.616H619.52V391.248H660.806V375.616Z" fill="#CCCCCC"/>
<g style="mix-blend-mode:multiply">
<path d="M660.806 375.616H631.312V391.248H660.806V375.616Z" fill="#CCCCCC"/>
</g>
<path d="M686.35 375.616H645.064V391.248H686.35V375.616Z" fill="#223946"/>
<g style="mix-blend-mode:multiply">
<path d="M686.351 375.616H656.857V391.248H686.351V375.616Z" fill="#CCCCCC"/>
</g>
<path d="M699.314 375.616H658.028V391.248H699.314V375.616Z" fill="#223946"/>
<g style="mix-blend-mode:multiply">
<path d="M699.313 375.616H669.82V391.248H699.313V375.616Z" fill="#CCCCCC"/>
</g>
<path d="M712.113 375.616H670.827V391.248H712.113V375.616Z" fill="#E2421E"/>
<g style="mix-blend-mode:multiply">
<path d="M712.113 375.616H682.62V391.248H712.113V375.616Z" fill="#CCCCCC"/>
</g>
<path d="M417.177 359.031H375.891V374.663H417.177V359.031Z" fill="#E2421E"/>
<g style="mix-blend-mode:multiply">
<path d="M417.177 359.031H387.683V374.663H417.177V359.031Z" fill="#CCCCCC"/>
</g>
<path d="M404.432 359.031H363.146V374.663H404.432V359.031Z" fill="#E6E6DC"/>
<g style="mix-blend-mode:multiply">
<path d="M404.432 359.031H374.938V374.663H404.432V359.031Z" fill="#CCCCCC"/>
</g>
<path d="M417.122 359.031H375.836V374.663H417.122V359.031Z" fill="#E2421E"/>
<g style="mix-blend-mode:multiply">
<path d="M417.123 359.031H387.629V374.663H417.123V359.031Z" fill="#CCCCCC"/>
</g>
<path d="M506.829 359.085H465.543V374.717H506.829V359.085Z" fill="#7BBCCC"/>
<g style="mix-blend-mode:multiply">
<path d="M506.829 359.085H477.335V374.717H506.829V359.085Z" fill="#CCCCCC"/>
</g>
<path d="M519.628 359.085H478.343V374.717H519.628V359.085Z" fill="#E2421E"/>
<g style="mix-blend-mode:multiply">
<path d="M519.629 359.085H490.135V374.717H519.629V359.085Z" fill="#CCCCCC"/>
</g>
<path d="M545.119 359.085H503.833V374.717H545.119V359.085Z" fill="#E2421E"/>
<g style="mix-blend-mode:multiply">
<path d="M545.119 359.085H515.625V374.717H545.119V359.085Z" fill="#CCCCCC"/>
</g>
<path d="M532.374 359.085H491.088V374.717H532.374V359.085Z" fill="#E2421E"/>
<g style="mix-blend-mode:multiply">
<path d="M532.374 359.085H502.88V374.717H532.374V359.085Z" fill="#CCCCCC"/>
</g>
<path d="M545.064 359.085H503.779V374.717H545.064V359.085Z" fill="#7BBCCC"/>
<g style="mix-blend-mode:multiply">
<path d="M545.064 359.085H515.571V374.717H545.064V359.085Z" fill="#CCCCCC"/>
</g>
<path d="M557.919 359.085H516.633V374.717H557.919V359.085Z" fill="#CCCCCC"/>
<g style="mix-blend-mode:multiply">
<path d="M557.918 359.085H528.425V374.717H557.918V359.085Z" fill="#CCCCCC"/>
</g>
<path d="M583.681 359.085H542.396V374.717H583.681V359.085Z" fill="#7BBCCC"/>
<g style="mix-blend-mode:multiply">
<path d="M583.681 359.085H554.187V374.717H583.681V359.085Z" fill="#CCCCCC"/>
</g>
<path d="M609.389 359.085H568.104V374.717H609.389V359.085Z" fill="#E2421E"/>
<g style="mix-blend-mode:multiply">
<path d="M609.389 359.085H579.896V374.717H609.389V359.085Z" fill="#CCCCCC"/>
</g>
<path d="M596.617 359.085H555.332V374.717H596.617V359.085Z" fill="#E2421E"/>
<g style="mix-blend-mode:multiply">
<path d="M596.617 359.085H567.123V374.717H596.617V359.085Z" fill="#CCCCCC"/>
</g>
<path d="M622.162 359.085H580.876V374.717H622.162V359.085Z" fill="#CCCCCC"/>
<g style="mix-blend-mode:multiply">
<path d="M622.162 359.085H592.668V374.717H622.162V359.085Z" fill="#CCCCCC"/>
</g>
<path d="M635.152 359.085H593.866V374.717H635.152V359.085Z" fill="#7BBCCC"/>
<g style="mix-blend-mode:multiply">
<path d="M635.152 359.085H605.658V374.717H635.152V359.085Z" fill="#CCCCCC"/>
</g>
<path d="M647.952 359.085H606.666V374.717H647.952V359.085Z" fill="#E2421E"/>
<g style="mix-blend-mode:multiply">
<path d="M647.951 359.085H618.458V374.717H647.951V359.085Z" fill="#CCCCCC"/>
</g>
<path d="M673.551 359.085H632.265V374.717H673.551V359.085Z" fill="#E2421E"/>
<g style="mix-blend-mode:multiply">
<path d="M673.551 359.085H644.057V374.717H673.551V359.085Z" fill="#CCCCCC"/>
</g>
<path d="M660.806 359.085H619.52V374.717H660.806V359.085Z" fill="#E2421E"/>
<g style="mix-blend-mode:multiply">
<path d="M660.806 359.085H631.312V374.717H660.806V359.085Z" fill="#CCCCCC"/>
</g>
<path d="M686.35 359.085H645.064V374.717H686.35V359.085Z" fill="#7BBCCC"/>
<g style="mix-blend-mode:multiply">
<path d="M686.351 359.085H656.857V374.717H686.351V359.085Z" fill="#CCCCCC"/>
</g>
<path d="M699.314 359.085H658.028V374.717H699.314V359.085Z" fill="#E2421E"/>
<g style="mix-blend-mode:multiply">
<path d="M699.313 359.085H669.82V374.717H699.313V359.085Z" fill="#CCCCCC"/>
</g>
<path d="M712.113 359.085H670.827V374.717H712.113V359.085Z" fill="#7BBCCC"/>
<g style="mix-blend-mode:multiply">
<path d="M712.113 359.085H682.62V374.717H712.113V359.085Z" fill="#CCCCCC"/>
</g>
<path d="M417.177 342.691H375.891V358.323H417.177V342.691Z" fill="#E2421E"/>
<g style="mix-blend-mode:multiply">
<path d="M417.177 342.691H387.683V358.323H417.177V342.691Z" fill="#CCCCCC"/>
</g>
<path d="M404.432 342.691H363.146V358.323H404.432V342.691Z" fill="#E6E6DC"/>
<g style="mix-blend-mode:multiply">
<path d="M404.432 342.691H374.938V358.323H404.432V342.691Z" fill="#CCCCCC"/>
</g>
<path d="M417.122 342.691H375.836V358.323H417.122V342.691Z" fill="#E2421E"/>
<g style="mix-blend-mode:multiply">
<path d="M417.123 342.691H387.629V358.323H417.123V342.691Z" fill="#CCCCCC"/>
</g>
<path d="M519.628 342.745H478.343V358.377H519.628V342.745Z" fill="#E2421E"/>
<g style="mix-blend-mode:multiply">
<path d="M519.629 342.745H490.135V358.377H519.629V342.745Z" fill="#CCCCCC"/>
</g>
<path d="M532.374 342.745H491.088V358.377H532.374V342.745Z" fill="#223946"/>
<g style="mix-blend-mode:multiply">
<path d="M532.374 342.745H502.88V358.377H532.374V342.745Z" fill="#CCCCCC"/>
</g>
<path d="M609.389 342.745H568.104V358.377H609.389V342.745Z" fill="#E2421E"/>
<g style="mix-blend-mode:multiply">
<path d="M609.389 342.745H579.896V358.377H609.389V342.745Z" fill="#CCCCCC"/>
</g>
<path d="M596.617 342.745H555.332V358.377H596.617V342.745Z" fill="#7BBCCC"/>
<g style="mix-blend-mode:multiply">
<path d="M596.617 342.745H567.123V358.377H596.617V342.745Z" fill="#CCCCCC"/>
</g>
<path d="M634.961 326.106H593.676V341.738H634.961V326.106Z" fill="#CCCCCC"/>
<g style="mix-blend-mode:multiply">
<path d="M634.961 326.106H605.468V341.738H634.961V326.106Z" fill="#CCCCCC"/>
</g>
<path d="M635.152 342.745H593.866V358.377H635.152V342.745Z" fill="#223946"/>
<g style="mix-blend-mode:multiply">
<path d="M635.152 342.745H605.658V358.377H635.152V342.745Z" fill="#CCCCCC"/>
</g>
<path d="M647.952 342.745H606.666V358.377H647.952V342.745Z" fill="#E2421E"/>
<g style="mix-blend-mode:multiply">
<path d="M647.951 342.745H618.458V358.377H647.951V342.745Z" fill="#CCCCCC"/>
</g>
<path d="M699.314 342.745H658.028V358.377H699.314V342.745Z" fill="#223946"/>
<g style="mix-blend-mode:multiply">
<path d="M699.313 342.745H669.82V358.377H699.313V342.745Z" fill="#CCCCCC"/>
</g>
<path d="M404.486 326.106H363.201V341.738H404.486V326.106Z" fill="#E2421E"/>
<g style="mix-blend-mode:multiply">
<path d="M404.486 326.106H374.993V341.738H404.486V326.106Z" fill="#CCCCCC"/>
</g>
<path d="M404.486 309.657H363.201V325.289H404.486V309.657Z" fill="#E2421E"/>
<g style="mix-blend-mode:multiply">
<path d="M404.486 309.657H374.993V325.289H404.486V309.657Z" fill="#CCCCCC"/>
</g>
<path d="M650.485 270.795H571.154V275.561H650.485V270.795Z" fill="#E49306"/>
<g style="mix-blend-mode:multiply">
<path d="M606.231 270.795H571.154V275.561H606.231V270.795Z" fill="#E6E6E6"/>
</g>
<path d="M576.628 234.711H574.231V270.114H576.628V234.711Z" fill="#E49306"/>
<path d="M576.745 233.608L573.973 236.608L608.915 268.897L611.687 265.896L576.745 233.608Z" fill="#E49306"/>
<path d="M573.955 233.553L539.018 265.848L541.791 268.848L576.727 236.553L573.955 233.553Z" fill="#E49306"/>
<path d="M612.711 306.198H564.699V315.049H612.711V306.198Z" fill="#F5B400"/>
<path d="M612.685 264.994H565.026V270.768H612.685V264.994Z" fill="#F5B400"/>
<path d="M497.57 264.994H491.143V383.432H497.57V264.994Z" fill="#F5B400"/>
<path d="M571.154 264.994H564.727V383.432H571.154V264.994Z" fill="#F5B400"/>
<path d="M571.154 264.994H491.578V271.122H571.154V264.994Z" fill="#F5B400"/>
<path d="M535.777 200.669H527.253V221.775H535.777V200.669Z" fill="#F5B400"/>
<path d="M531.884 204.067L531.455 204.763L575.024 231.651L575.453 230.955L531.884 204.067Z" fill="#E49306"/>
<g style="mix-blend-mode:multiply">
<path d="M535.75 207.124L531.23 203.747L530.413 204.836L535.75 208.812V207.124Z" fill="#E6E6E6"/>
</g>
<path d="M569.188 266.854L566.975 269.258L609.874 308.747L612.087 306.342L569.188 266.854Z" fill="#F5B400"/>
<path d="M532.591 213.605H530.195V269.079H532.591V213.605Z" fill="#F5B400"/>
<path d="M531.214 203.867L453.602 269.571L454.482 270.61L532.094 204.907L531.214 203.867Z" fill="#E49306"/>
<path d="M532.666 217.173L529.357 219.569L565.104 268.934L568.412 266.538L532.666 217.173Z" fill="#F5B400"/>
<path d="M450.265 275.996L445.445 271.176L452.989 266.274L455.086 271.176L450.265 275.996Z" fill="#F5B400"/>
<path d="M529.073 219.18L491.634 266.824L494.846 269.348L532.285 221.704L529.073 219.18Z" fill="#F5B400"/>
<path d="M577.962 226.868H573.196V239.449H577.962V226.868Z" fill="#E49306"/>
<path d="M564.7 275.887V271.122H498.659L498.55 271.013H493.757L493.866 271.122H433.299V275.887H498.986L535.669 310.092L537.902 307.723L503.779 275.887H564.7Z" fill="#E49306"/>
<path d="M441.469 271.122H433.299V275.888H441.469V271.122Z" fill="#F5B400"/>
<path d="M453.01 266.279L448.196 271.093L453.01 275.907L457.825 271.093L453.01 266.279Z" fill="#E49306"/>
<g style="mix-blend-mode:multiply">
<path d="M525.538 271.122L532.7 275.888H564.699V271.122H525.538Z" fill="#E6E6E6"/>
</g>
<path d="M610.343 326.078H612.739V315.185V265.348H567.423V268.752L566.987 269.215L567.423 269.597V383.432H571.154V315.049H610.315L610.343 326.078ZM610.343 270.795V304.7L573.469 270.795H610.343ZM571.181 307.56V273.11L608.6 307.56H571.181Z" fill="#E49306"/>
<path d="M535.424 305.163L532.7 302.794V275.888H535.424V305.163Z" fill="#F5B400"/>
<g style="mix-blend-mode:multiply">
<path d="M650.457 270.795H612.685V275.561H650.457V270.795Z" fill="#F2F2F2"/>
</g>
<path d="M650.321 270.958H612.521V265.839H650.321V270.958ZM612.875 270.604H649.94V266.193H612.875V270.604Z" fill="#D75724"/>
<path d="M643.24 266.029H642.886V270.577H643.24V266.029Z" fill="#D75724"/>
<path d="M635.151 266.247H634.797V270.795H635.151V266.247Z" fill="#D75724"/>
<path d="M626.437 266.247H626.083V270.795H626.437V266.247Z" fill="#D75724"/>
<path d="M619.139 266.247H618.785V270.795H619.139V266.247Z" fill="#D75724"/>
<path d="M539.154 306.198H497.624V275.888H495.254V384.14H497.624V315.022H539.154V306.198Z" fill="#E49306"/>
<path d="M526.464 271.694H461.322V266.465H526.464V271.694ZM461.785 271.231H526.001V266.928H461.785V271.231Z" fill="#D75724"/>
<path d="M514.237 266.71H513.774V271.258H514.237V266.71Z" fill="#D75724"/>
<path d="M500.239 266.928H499.776V271.476H500.239V266.928Z" fill="#D75724"/>
<path d="M485.206 266.928H484.743V271.476H485.206V266.928Z" fill="#D75724"/>
<path d="M472.624 266.928H472.161V271.476H472.624V266.928Z" fill="#D75724"/>
<path d="M535.424 342.936H532.7V359.276H535.424V342.936Z" fill="#E49306"/>
<path d="M493.539 277.93H470.391V289.504H493.539V277.93Z" fill="#D75724"/>
<g style="mix-blend-mode:multiply">
<path d="M493.539 277.93H470.391V289.504H493.539V277.93Z" fill="#7BBCCC"/>
</g>
<path d="M486.404 289.504H470.391V277.93H485.369L486.404 284.058V289.504Z" fill="#D75724"/>
<path d="M484.116 285.229L470.5 286.59L468.348 277.93H483.326L484.116 285.229Z" fill="#D75724"/>
<path d="M485.369 284.057H470.744L469.383 278.284H484.361L485.369 284.057Z" fill="#7BBCCC"/>
<g style="mix-blend-mode:screen">
<path d="M469.383 278.284L470.744 284.057H472.106V278.284H469.383Z" fill="#7BBCCC"/>
</g>
<path d="M485.723 278.284L486.731 284.057H487.765V278.284H485.723Z" fill="#7BBCCC"/>
<path d="M482.428 322.865H441.142V338.497H482.428V322.865Z" fill="#E6E6E6"/>
<g style="mix-blend-mode:multiply">
<path d="M482.428 322.865H452.935V338.497H482.428V322.865Z" fill="#CCCCCC"/>
</g>
<path d="M461.567 321.177H448.277V322.865H461.567V321.177Z" fill="#223946"/>
<path d="M463.255 322.865H456.447V324.553H463.255V322.865Z" fill="#223946"/>
<g style="mix-blend-mode:multiply">
<path d="M463.255 322.865H456.447V324.553H463.255V322.865Z" fill="#CCCCCC"/>
</g>
<g style="mix-blend-mode:multiply">
<path d="M461.54 321.177H458.817V322.865H461.54V321.177Z" fill="#CCCCCC"/>
</g>
<path d="M479.269 321.177H465.979V322.865H479.269V321.177Z" fill="#223946"/>
<path d="M480.957 322.865H474.149V324.553H480.957V322.865Z" fill="#223946"/>
<g style="mix-blend-mode:multiply">
<path d="M480.957 322.865H474.149V324.553H480.957V322.865Z" fill="#CCCCCC"/>
</g>
<g style="mix-blend-mode:multiply">
<path d="M479.241 321.177H476.518V322.865H479.241V321.177Z" fill="#CCCCCC"/>
</g>
<path d="M471.752 321.857H461.54V322.865H471.752V321.857Z" fill="#223946"/>
<g style="mix-blend-mode:multiply">
<path d="M471.752 321.857H461.54V322.865H471.752V321.857Z" fill="#CCCCCC"/>
</g>
<path d="M452.28 276.568H451.736V321.503H452.28V276.568Z" fill="#223946"/>
<path d="M457.401 277.93H456.856V321.149H457.401V277.93Z" fill="#223946"/>
<path d="M475.102 276.568H474.557V321.149H475.102V276.568Z" fill="#223946"/>
<path d="M471.697 277.249H471.153V321.149H471.697V277.249Z" fill="#223946"/>
<path d="M495.255 275.888H445.2V277.93H495.255V275.888Z" fill="#223946"/>
<path d="M728.426 408.976H5.76392V423.083H728.426V408.976Z" fill="#F2F2F2"/>
<path d="M208.407 373.165H167.121V388.797H208.407V373.165Z" fill="#E2421E"/>
<g style="mix-blend-mode:multiply">
<path d="M208.407 373.165H178.913V388.797H208.407V373.165Z" fill="#CCCCCC"/>
</g>
<path d="M221.207 372.756H179.921V388.388H221.207V372.756Z" fill="#4AA29A"/>
<g style="mix-blend-mode:multiply">
<path d="M221.207 372.756H191.713V388.388H221.207V372.756Z" fill="#CCCCCC"/>
</g>
<path d="M234.197 372.756H192.911V388.388H234.197V372.756Z" fill="#E6E6E6"/>
<g style="mix-blend-mode:multiply">
<path d="M234.196 372.756H204.703V388.388H234.196V372.756Z" fill="#CCCCCC"/>
</g>
<path d="M246.969 372.756H205.684V388.388H246.969V372.756Z" fill="#E2421E"/>
<g style="mix-blend-mode:multiply">
<path d="M246.996 372.756H217.502V388.388H246.996V372.756Z" fill="#CCCCCC"/>
</g>
<path d="M261.92 372.811H220.635V388.443H261.92V372.811Z" fill="#7BBCCC"/>
<g style="mix-blend-mode:multiply">
<path d="M261.92 372.811H232.427V388.443H261.92V372.811Z" fill="#CCCCCC"/>
</g>
<path d="M208.379 356.362H167.094V371.994H208.379V356.362Z" fill="#E2421E"/>
<g style="mix-blend-mode:multiply">
<path d="M208.38 356.362H178.886V371.994H208.38V356.362Z" fill="#CCCCCC"/>
</g>
<path d="M221.179 356.362H179.894V371.994H221.179V356.362Z" fill="#E6E6E6"/>
<g style="mix-blend-mode:multiply">
<path d="M221.179 356.362H191.686V371.994H221.179V356.362Z" fill="#CCCCCC"/>
</g>
<path d="M208.461 339.75H167.176V355.381H208.461V339.75Z" fill="#E2421E"/>
<g style="mix-blend-mode:multiply">
<path d="M208.461 339.75H178.968V355.381H208.461V339.75Z" fill="#CCCCCC"/>
</g>
<path d="M221.261 339.75H179.975V355.381H221.261V339.75Z" fill="#7BBCCC"/>
<g style="mix-blend-mode:multiply">
<path d="M221.261 339.75H191.767V355.381H221.261V339.75Z" fill="#CCCCCC"/>
</g>
<path d="M234.142 356.362H192.857V371.994H234.142V356.362Z" fill="#7BBCCC"/>
<g style="mix-blend-mode:multiply">
<path d="M234.142 356.362H204.648V371.994H234.142V356.362Z" fill="#CCCCCC"/>
</g>
<path d="M246.942 356.362H205.656V371.994H246.942V356.362Z" fill="#E2421E"/>
<g style="mix-blend-mode:multiply">
<path d="M246.942 356.362H217.448V371.994H246.942V356.362Z" fill="#CCCCCC"/>
</g>
<path d="M175.155 355.899H98.2755L80.4922 363.497V392.555H192.938V363.497L175.155 355.899ZM100.699 365.512H97.9759V361.863H100.699V365.512ZM123.357 365.512H120.634V361.863H123.357V365.512ZM146.043 365.512H143.319V361.863H146.043V365.512ZM168.728 365.512H166.005V361.863H168.728V365.512Z" fill="#D75724"/>
<g style="mix-blend-mode:multiply">
<path d="M190.378 388.524H192.938V363.497L175.155 355.899L190.378 363.497V388.524Z" fill="#CCCCCC"/>
</g>
<path d="M106.364 373.274H100.863L102.442 327.25H104.839L106.364 373.274Z" fill="#E6E6E6"/>
<path d="M106.636 325.97H100.617V327.25H106.636V325.97Z" fill="#E6E6E6"/>
<path d="M101.543 327.086L102.578 328.966H104.784L105.628 327.086H101.543Z" fill="#E6E6E6"/>
<g style="mix-blend-mode:multiply">
<path d="M104.321 373.274H106.364L104.893 328.747L105.547 327.25H101.625L102.007 327.93H105.002L104.376 328.775L104.321 373.274Z" fill="#CCCCCC"/>
</g>
<path d="M103.858 310.937H103.232V325.942H103.858V310.937Z" fill="#E6E6E6"/>
<path d="M108.897 326.514H98.4934V321.885H108.897V326.514ZM99.0381 325.942H108.352V322.402H99.0381V325.942Z" fill="#E6E6DC"/>
<path d="M106.636 322.157H106.092V325.969H106.636V322.157Z" fill="#E6E6DC"/>
<path d="M101.135 322.157H100.59V326.596H101.135V322.157Z" fill="#E6E6DC"/>
<path d="M104.729 316.846H102.169V320.931H104.729V316.846Z" fill="#E6E6E6"/>
<path d="M104.076 317.255H102.361V320.55H104.076V317.255Z" fill="#7BBCCC"/>
<path d="M428.996 396.422H381.42V298.736L410.178 298.709L428.996 396.422Z" fill="#333333"/>
<path d="M388.827 298.736H373.522V312.489H388.827V298.736Z" fill="#808080"/>
<path d="M339.072 276.378H338.255V313.361H339.072V276.378Z" fill="#E6E6DC"/>
<path d="M382.536 308.35H382.128V314.722H382.536V308.35Z" fill="white"/>
<path d="M375.156 308.758H374.747V315.131H375.156V308.758Z" fill="white"/>
<path d="M368.157 308.35H367.749V314.722H368.157V308.35Z" fill="white"/>
<path d="M361.294 308.758H360.886V315.131H361.294V308.758Z" fill="white"/>
<path d="M354.431 308.35H354.023V314.722H354.431V308.35Z" fill="white"/>
<path d="M347.569 308.35H347.161V314.722H347.569V308.35Z" fill="white"/>
<path d="M341.278 308.35H340.869V314.722H341.278V308.35Z" fill="white"/>
<path d="M333.87 308.35H333.462V314.722H333.87V308.35Z" fill="white"/>
<path d="M391.115 313.606H390.706V308.54H325.319V313.606H324.911V308.132H391.115V313.606Z" fill="white"/>
<path d="M401.273 312.707H390.979V308.132H400.211L401.273 312.707ZM391.387 312.326H400.728L399.802 308.595H391.224L391.387 312.326Z" fill="#808080"/>
<path d="M413.528 396.422H391.169L391.414 323.873L388.092 312.489H403.397L413.528 396.422Z" fill="#B2B2B2"/>
<path d="M325.128 371.204H316.495V366.792H325.128V371.204ZM316.958 370.85H324.91V367.174H316.958V370.85Z" fill="#E6E6DC"/>
<path d="M320.09 367.01H319.736V370.959H320.09V367.01Z" fill="#E6E6DC"/>
<path d="M322.596 367.01H322.242V370.959H322.596V367.01Z" fill="#E6E6DC"/>
<path d="M324.965 396.422H391.415V323.872L388.827 313.36L325.401 312.952L324.965 314.722L327.471 323.872H324.965V396.422Z" fill="#F2F2F2"/>
<path d="M403.778 371.258H391.36V366.792H403.778V371.258ZM391.768 370.85H403.37V367.255H391.768V370.85Z" fill="#E6E6DC"/>
<path d="M396.452 367.037H396.044V370.986H396.452V367.037Z" fill="#E6E6DC"/>
<path d="M400.074 367.037H399.666V370.986H400.074V367.037Z" fill="#E6E6DC"/>
<path d="M399.884 370.85H316.469V396.422H399.884V370.85Z" fill="#F2F2F2"/>
<g style="mix-blend-mode:multiply">
<path d="M399.911 396.422H316.686L343.62 381.471L399.911 374.445V396.422Z" fill="#CCCCCC"/>
</g>
<path d="M401.001 320.496H315.379V327.222H401.001V320.496Z" fill="#F2F2F2"/>
<path d="M385.178 329.21H383.925V331.471H385.178V329.21Z" fill="#333333"/>
<path d="M374.393 329.21H373.141V331.471H374.393V329.21Z" fill="#333333"/>
<path d="M363.582 329.21H362.329V331.471H363.582V329.21Z" fill="#333333"/>
<path d="M352.798 329.21H351.545V331.471H352.798V329.21Z" fill="#333333"/>
<path d="M341.986 329.21H340.733V331.471H341.986V329.21Z" fill="#333333"/>
<path d="M331.201 329.21H329.948V331.471H331.201V329.21Z" fill="#333333"/>
<path d="M385.069 342.963H383.816V345.224H385.069V342.963Z" fill="#333333"/>
<path d="M374.258 342.963H373.005V345.224H374.258V342.963Z" fill="#333333"/>
<path d="M363.473 342.963H362.22V345.224H363.473V342.963Z" fill="#333333"/>
<path d="M352.661 342.963H351.409V345.224H352.661V342.963Z" fill="#333333"/>
<path d="M341.877 342.963H340.624V345.224H341.877V342.963Z" fill="#333333"/>
<path d="M331.065 342.963H329.812V345.224H331.065V342.963Z" fill="#333333"/>
<path d="M384.66 357.179H383.407V359.439H384.66V357.179Z" fill="#333333"/>
<path d="M373.876 357.179H372.623V359.439H373.876V357.179Z" fill="#333333"/>
<path d="M363.064 357.179H361.812V359.439H363.064V357.179Z" fill="#333333"/>
<path d="M352.28 357.179H351.027V359.439H352.28V357.179Z" fill="#333333"/>
<path d="M341.468 357.179H340.216V359.439H341.468V357.179Z" fill="#333333"/>
<path d="M330.684 357.179H329.432V359.439H330.684V357.179Z" fill="#333333"/>
<path d="M384.415 370.905H383.163V373.165H384.415V370.905Z" fill="#333333"/>
<path d="M373.631 370.905H372.379V373.165H373.631V370.905Z" fill="#333333"/>
<path d="M362.819 370.905H361.566V373.165H362.819V370.905Z" fill="#333333"/>
<path d="M352.035 370.905H350.782V373.165H352.035V370.905Z" fill="#333333"/>
<path d="M341.224 370.905H339.971V373.165H341.224V370.905Z" fill="#333333"/>
<path d="M330.439 370.905H329.186V373.165H330.439V370.905Z" fill="#333333"/>
<path d="M384.415 383.867H383.163V386.128H384.415V383.867Z" fill="#333333"/>
<path d="M373.631 383.867H372.379V386.128H373.631V383.867Z" fill="#333333"/>
<path d="M362.819 383.867H361.566V386.128H362.819V383.867Z" fill="#333333"/>
<path d="M352.035 383.867H350.782V386.128H352.035V383.867Z" fill="#333333"/>
<path d="M341.224 383.867H339.971V386.128H341.224V383.867Z" fill="#333333"/>
<path d="M330.439 383.867H329.186V386.128H330.439V383.867Z" fill="#333333"/>
<path d="M383.163 323.873H389.344L386.866 314.722H380.684L383.163 323.873Z" fill="#7BBCCC"/>
<path d="M376.3 323.873H382.482L380.003 314.722H373.822L376.3 323.873Z" fill="#7BBCCC"/>
<path d="M369.437 323.873H375.646L373.14 314.722H366.958L369.437 323.873Z" fill="#7BBCCC"/>
<path d="M362.602 323.873H368.784L366.278 314.722H360.096L362.602 323.873Z" fill="#7BBCCC"/>
<path d="M355.739 323.873H361.921L359.443 314.722H353.233L355.739 323.873Z" fill="#7BBCCC"/>
<path d="M348.876 323.873H355.058L352.58 314.722H346.37L348.876 323.873Z" fill="#7BBCCC"/>
<path d="M342.013 323.873H348.195L345.717 314.722H339.535L342.013 323.873Z" fill="#7BBCCC"/>
<path d="M335.15 323.873H341.36L338.854 314.722H332.672L335.15 323.873Z" fill="#7BBCCC"/>
<path d="M328.315 323.873H334.497L331.991 314.722H325.809L328.315 323.873Z" fill="#7BBCCC"/>
<g style="mix-blend-mode:multiply">
<path d="M389.835 317.445L389.154 314.722H324.965L325.701 317.445H389.835Z" fill="#CCCCCC"/>
</g>
<path d="M391.196 312.489H322.432V314.722H391.196V312.489Z" fill="#D75724"/>
<path d="M404.922 370.85H399.884V396.422H404.922V370.85Z" fill="#999999"/>
<path d="M411.322 320.496H401V327.222H411.322V320.496Z" fill="#B2B2B2"/>
<path d="M435.124 379.701H404.922V396.422H435.124V379.701Z" fill="#B2B2B2"/>
<path d="M408.435 369.298V371.667C408.435 374.744 412.874 377.114 415.707 377.114H429.977C431.369 377.037 432.678 376.429 433.636 375.416C434.593 374.403 435.126 373.061 435.124 371.667V369.298H408.435Z" fill="#E2421E"/>
<path d="M429.35 374.227V372.048C429.35 369.325 427.825 366.901 425.946 366.901H415.053C413.201 366.901 411.676 369.216 411.676 372.048V374.227H429.35Z" fill="#F15723"/>
<path d="M410.124 369.298V371.667C410.124 372.394 410.269 373.113 410.551 373.783C410.833 374.453 411.247 375.06 411.767 375.567C412.287 376.075 412.904 376.473 413.58 376.739C414.257 377.004 414.98 377.132 415.707 377.114H433.517C434.244 377.132 434.967 377.004 435.643 376.739C436.32 376.473 436.937 376.075 437.457 375.567C437.977 375.06 438.391 374.453 438.673 373.783C438.955 373.113 439.1 372.394 439.1 371.667V369.298H410.124Z" fill="#F15723"/>
<path d="M395.282 388.987H391.251V396.422H395.282V388.987Z" fill="#E6E6E6"/>
<path d="M381.283 388.933H377.253V396.368H381.283V388.933Z" fill="#E6E6E6"/>
<path d="M367.285 388.878H363.255V396.313H367.285V388.878Z" fill="#E6E6E6"/>
<path d="M353.288 388.824H349.257V396.259H353.288V388.824Z" fill="#E6E6E6"/>
<path d="M339.29 388.769H335.259V396.204H339.29V388.769Z" fill="#E6E6E6"/>
<path d="M325.265 388.742H321.234V396.177H325.265V388.742Z" fill="#E6E6E6"/>
<path d="M311.267 388.688H307.236V396.123H311.267V388.688Z" fill="#E6E6E6"/>
<path d="M297.269 388.633H293.239V396.068H297.269V388.633Z" fill="#E6E6E6"/>
<path d="M283.271 388.579H279.241V396.014H283.271V388.579Z" fill="#E6E6E6"/>
<path d="M269.273 388.524H265.242V395.959H269.273V388.524Z" fill="#E6E6E6"/>
<path d="M255.275 388.497H251.245V395.932H255.275V388.497Z" fill="#E6E6E6"/>
<path d="M241.277 388.442H237.247V395.877H241.277V388.442Z" fill="#E6E6E6"/>
<path d="M227.252 388.388H223.222V395.823H227.252V388.388Z" fill="#E6E6E6"/>
<path d="M213.255 388.334H209.224V395.769H213.255V388.334Z" fill="#E6E6E6"/>
<path d="M408.435 391.765H203.559V392.31H408.435V391.765Z" fill="#F2F2F2"/>
<path d="M408.435 393.835H203.559V394.38H408.435V393.835Z" fill="#F2F2F2"/>
<path d="M460.696 379.701H431.692V386.536H460.696V379.701Z" fill="#B2B2B2"/>
<path d="M448.986 386.019H446.208V395.769H448.986V386.019Z" fill="#B2B2B2"/>
<path d="M432.7 388.987H407.782V404.837H432.7V388.987Z" fill="#223946"/>
<g style="mix-blend-mode:multiply">
<path d="M432.7 388.987H407.782V404.837H432.7V388.987Z" fill="#CCCCCC"/>
</g>
<path d="M467.477 395.768H209.278L171.969 371.503H68.0192C68.0192 371.503 92.2024 409.14 79.4027 416.003H66.1946C63.8183 416.003 61.5394 416.947 59.8591 418.627C58.1788 420.307 57.2349 422.586 57.2349 424.962C57.2349 427.339 58.1788 429.618 59.8591 431.298C61.5394 432.978 63.8183 433.922 66.1946 433.922H467.749C477.09 433.541 485.314 427.032 490.271 417.31V395.768H467.477Z" fill="#223946"/>
<path d="M115.16 412.844C115.16 412.844 94.5448 416.493 88.5535 416.493C72.9761 398.274 44.7624 391.765 41.4399 371.476H115.16V412.844Z" fill="#223946"/>
<path d="M490.271 417.31V411.21H82.8341C82.6579 412.215 82.258 413.167 81.6641 413.997C81.0701 414.827 80.2973 415.512 79.4027 416.003H66.1946C63.8183 416.003 61.5394 416.947 59.8591 418.627C58.1788 420.307 57.2349 422.586 57.2349 424.963C57.2349 427.339 58.1788 429.618 59.8591 431.298C61.5394 432.978 63.8183 433.922 66.1946 433.922H467.749C477.09 433.541 485.314 427.032 490.271 417.31Z" fill="#D75724"/>
<path d="M149.474 371.476L143.374 366.901H40.6772L41.4398 371.476H124.42L125.237 369.189H134.469L133.679 371.476H149.474Z" fill="#E6E6DC"/>
<g style="mix-blend-mode:multiply">
<path d="M467.477 395.768H209.278L171.968 371.504H149.474L143.401 366.792H64.0158C64.0158 366.792 98.6293 410.801 86.2109 418.535C82.0987 421.095 66.9025 418.535 66.9025 418.535C70.0344 421.068 68.2914 431.852 57.262 424.962C57.262 426.141 57.4946 427.309 57.9466 428.398C58.3986 429.486 59.061 430.475 59.8958 431.308C60.7307 432.14 61.7216 432.799 62.8118 433.248C63.902 433.697 65.07 433.926 66.2489 433.922H467.749C477.09 433.541 485.314 427.032 490.271 417.31V395.768H467.477ZM124.337 400.153H115.16L121.26 383.405H130.383L124.337 400.153Z" fill="#CCCCCC"/>
</g>
<path d="M361.213 290.811H357.046V312.489H361.213V290.811Z" fill="#E6E6DC"/>
<path d="M372.841 287.189H345.417V288.633H372.841V287.189Z" fill="#E6E6DC"/>
<path d="M371.915 287.898L360.804 291.547H357.046L346.098 287.898H371.915Z" fill="#E6E6DC"/>
<path d="M370.418 279.537H362.629V281.388H370.418V279.537Z" fill="#E6E6DC"/>
<path d="M366.523 280.245L367.912 287.543H365.243L366.523 280.245Z" fill="#E6E6DC"/>
<path d="M353.37 286.454H349.475V287.489H353.37V286.454Z" fill="#E6E6DC"/>
<path d="M350.156 287.816C350.156 288.18 350.299 288.529 350.553 288.788C350.808 289.048 351.154 289.198 351.518 289.205C351.699 289.205 351.878 289.169 352.045 289.099C352.212 289.028 352.364 288.926 352.49 288.796C352.617 288.667 352.717 288.514 352.784 288.345C352.851 288.177 352.883 287.997 352.88 287.816V285.556C352.88 285.194 352.736 284.848 352.481 284.593C352.225 284.337 351.879 284.194 351.518 284.194C351.159 284.201 350.817 284.347 350.563 284.6C350.309 284.854 350.163 285.197 350.156 285.556V287.816Z" fill="#E6E6DC"/>
<path d="M361.785 287.816L360.069 270.359L361.785 287.816Z" fill="#E6E6DC"/>
<path d="M360.263 270.413L359.856 270.453L361.58 287.934L361.986 287.894L360.263 270.413Z" fill="#E6E6DC"/>
<path d="M360.069 270.441L357.346 287.897L360.069 270.441Z" fill="#E6E6DC"/>
<path d="M359.878 270.38L357.133 287.868L357.536 287.931L360.281 270.443L359.878 270.38Z" fill="#E6E6DC"/>
<path d="M360.559 275.506H357.073V276.405H360.559V275.506Z" fill="#E6E6DC"/>
<path d="M360.559 272.865H357.073V273.763H360.559V272.865Z" fill="#E6E6DC"/>
<path d="M360.886 278.284H357.073V279.183H360.886V278.284Z" fill="#E6E6DC"/>
<path d="M361.104 280.572H357.073V281.47H361.104V280.572Z" fill="#E6E6DC"/>
<path d="M361.403 283.077H357.073V283.976H361.403V283.077Z" fill="#E6E6DC"/>
<path d="M359.088 271.203H356.474V272.592H359.088V271.203Z" fill="#E6E6DC"/>
<g style="mix-blend-mode:multiply">
<path d="M361.213 312.489H359.225V290.811L361.213 291.547V312.489Z" fill="#E6E6DC"/>
</g>
<g style="mix-blend-mode:multiply">
<path d="M359.225 290.812L368.402 288.633H369.682L361.213 291.438L359.225 290.812Z" fill="#E6E6DC"/>
</g>
<path d="M359.143 373.165H317.857V388.797H359.143V373.165Z" fill="#E2421E"/>
<g style="mix-blend-mode:multiply">
<path d="M359.143 373.165H329.649V388.797H359.143V373.165Z" fill="#CCCCCC"/>
</g>
<path d="M359.143 356.362H317.857V371.994H359.143V356.362Z" fill="#E2421E"/>
<g style="mix-blend-mode:multiply">
<path d="M359.143 356.362H329.649V371.994H359.143V356.362Z" fill="#CCCCCC"/>
</g>
<path d="M316.686 373.083H275.4V388.715H316.686V373.083Z" fill="#E2421E"/>
<g style="mix-blend-mode:multiply">
<path d="M316.686 373.083H287.193V388.715H316.686V373.083Z" fill="#CCCCCC"/>
</g>
<path d="M329.486 373.165H288.2V388.797H329.486V373.165Z" fill="#E2421E"/>
<g style="mix-blend-mode:multiply">
<path d="M329.486 373.165H299.992V388.797H329.486V373.165Z" fill="#CCCCCC"/>
</g>
<path d="M316.686 356.634H275.4V372.266H316.686V356.634Z" fill="#E2421E"/>
<g style="mix-blend-mode:multiply">
<path d="M316.686 356.634H287.193V372.266H316.686V356.634Z" fill="#CCCCCC"/>
</g>
<path d="M371.942 373.165H330.657V388.797H371.942V373.165Z" fill="#7BBCCC"/>
<g style="mix-blend-mode:multiply">
<path d="M371.942 373.165H342.449V388.797H371.942V373.165Z" fill="#CCCCCC"/>
</g>
<path d="M384.905 373.165H343.62V388.797H384.905V373.165Z" fill="#7BBCCC"/>
<g style="mix-blend-mode:multiply">
<path d="M384.905 373.165H355.412V388.797H384.905V373.165Z" fill="#CCCCCC"/>
</g>
<path d="M397.705 373.165H356.419V388.797H397.705V373.165Z" fill="#E2421E"/>
<g style="mix-blend-mode:multiply">
<path d="M397.705 373.165H368.211V388.797H397.705V373.165Z" fill="#CCCCCC"/>
</g>
<path d="M729.438 423.301C726.631 423.302 723.863 422.645 721.356 421.382C718.849 420.119 716.674 418.286 715.004 416.03C713.329 418.283 711.15 420.113 708.642 421.374C706.133 422.636 703.365 423.292 700.557 423.292C697.749 423.292 694.98 422.636 692.472 421.374C689.963 420.113 687.785 418.283 686.11 416.03C684.432 418.283 682.251 420.114 679.74 421.375C677.229 422.636 674.458 423.292 671.649 423.292C668.839 423.292 666.069 422.636 663.558 421.375C661.047 420.114 658.866 418.283 657.188 416.03C655.513 418.283 653.334 420.113 650.826 421.374C648.317 422.636 645.548 423.292 642.741 423.292C639.933 423.292 637.164 422.636 634.656 421.374C632.147 420.113 629.968 418.283 628.293 416.03C626.619 418.283 624.44 420.113 621.931 421.374C619.423 422.636 616.654 423.292 613.846 423.292C611.039 423.292 608.27 422.636 605.761 421.374C603.253 420.113 601.074 418.283 599.399 416.03C597.724 418.283 595.545 420.113 593.037 421.374C590.528 422.636 587.759 423.292 584.952 423.292C582.144 423.292 579.375 422.636 576.867 421.374C574.358 420.113 572.179 418.283 570.505 416.03C568.83 418.283 566.651 420.113 564.142 421.374C561.634 422.636 558.865 423.292 556.057 423.292C553.25 423.292 550.481 422.636 547.972 421.374C545.464 420.113 543.285 418.283 541.61 416.03C539.935 418.283 537.756 420.113 535.248 421.374C532.739 422.636 529.97 423.292 527.163 423.292C524.355 423.292 521.586 422.636 519.078 421.374C516.569 420.113 514.39 418.283 512.716 416.03C511.041 418.283 508.862 420.113 506.353 421.374C503.845 422.636 501.076 423.292 498.268 423.292C495.461 423.292 492.692 422.636 490.183 421.374C487.675 420.113 485.496 418.283 483.821 416.03C482.146 418.283 479.967 420.113 477.459 421.374C474.95 422.636 472.181 423.292 469.374 423.292C466.566 423.292 463.797 422.636 461.289 421.374C458.78 420.113 456.601 418.283 454.927 416.03C453.249 418.283 451.067 420.114 448.557 421.375C446.046 422.636 443.275 423.292 440.466 423.292C437.656 423.292 434.885 422.636 432.375 421.375C429.864 420.114 427.683 418.283 426.005 416.03C424.33 418.283 422.151 420.113 419.643 421.374C417.134 422.636 414.365 423.292 411.558 423.292C408.75 423.292 405.981 422.636 403.473 421.374C400.964 420.113 398.785 418.283 397.11 416.03C395.435 418.283 393.257 420.113 390.748 421.374C388.239 422.636 385.471 423.292 382.663 423.292C379.855 423.292 377.087 422.636 374.578 421.374C372.07 420.113 369.891 418.283 368.216 416.03C366.541 418.283 364.362 420.113 361.854 421.374C359.345 422.636 356.576 423.292 353.769 423.292C350.961 423.292 348.192 422.636 345.684 421.374C343.175 420.113 340.996 418.283 339.321 416.03C337.646 418.283 335.468 420.113 332.959 421.374C330.451 422.636 327.682 423.292 324.874 423.292C322.066 423.292 319.298 422.636 316.789 421.374C314.281 420.113 312.102 418.283 310.427 416.03C308.752 418.283 306.573 420.113 304.065 421.374C301.556 422.636 298.787 423.292 295.98 423.292C293.172 423.292 290.403 422.636 287.895 421.374C285.386 420.113 283.207 418.283 281.532 416.03C279.857 418.283 277.679 420.113 275.17 421.374C272.662 422.636 269.893 423.292 267.085 423.292C264.277 423.292 261.509 422.636 259 421.374C256.492 420.113 254.313 418.283 252.638 416.03C250.963 418.283 248.784 420.113 246.276 421.374C243.767 422.636 240.998 423.292 238.191 423.292C235.383 423.292 232.614 422.636 230.106 421.374C227.597 420.113 225.418 418.283 223.743 416.03C222.066 418.283 219.884 420.114 217.374 421.375C214.863 422.636 212.092 423.292 209.283 423.292C206.473 423.292 203.702 422.636 201.192 421.375C198.681 420.114 196.499 418.283 194.822 416.03C193.147 418.283 190.968 420.113 188.459 421.374C185.951 422.636 183.182 423.292 180.374 423.292C177.567 423.292 174.798 422.636 172.289 421.374C169.781 420.113 167.602 418.283 165.927 416.03C164.252 418.283 162.073 420.113 159.565 421.374C157.056 422.636 154.288 423.292 151.48 423.292C148.672 423.292 145.904 422.636 143.395 421.374C140.886 420.113 138.708 418.283 137.033 416.03C135.358 418.283 133.179 420.113 130.67 421.374C128.162 422.636 125.393 423.292 122.585 423.292C119.778 423.292 117.009 422.636 114.501 421.374C111.992 420.113 109.813 418.283 108.138 416.03C106.463 418.283 104.284 420.113 101.776 421.374C99.2674 422.636 96.4986 423.292 93.691 423.292C90.8833 423.292 88.1146 422.636 85.606 421.374C83.0975 420.113 80.9186 418.283 79.2437 416.03C77.5688 418.283 75.39 420.113 72.8814 421.374C70.3729 422.636 67.6041 423.292 64.7965 423.292C61.9888 423.292 59.2201 422.636 56.7115 421.374C54.203 420.113 52.0242 418.283 50.3492 416.03C48.6743 418.283 46.4955 420.113 43.987 421.374C41.4784 422.636 38.7097 423.292 35.902 423.292C33.0943 423.292 30.3256 422.636 27.817 421.374C25.3085 420.113 23.1297 418.283 21.4547 416.03C19.7798 418.283 17.601 420.113 15.0925 421.374C12.5839 422.636 9.81516 423.292 7.00749 423.292C4.19982 423.292 1.43108 422.636 -1.07747 421.374C-3.58601 420.113 -5.76482 418.283 -7.43974 416.03C-9.11755 418.283 -11.2988 420.114 -13.8096 421.375C-16.3203 422.636 -19.091 423.292 -21.9006 423.292C-24.7102 423.292 -27.4809 422.636 -29.9916 421.375C-32.5024 420.114 -34.6837 418.283 -36.3615 416.03C-38.0364 418.283 -40.2152 420.113 -42.7237 421.374C-45.2323 422.636 -48.001 423.292 -50.8087 423.292C-53.6164 423.292 -56.3851 422.636 -58.8937 421.374C-61.4022 420.113 -63.581 418.283 -65.256 416.03C-66.9309 418.283 -69.1097 420.113 -71.6182 421.374C-74.1268 422.636 -76.8955 423.292 -79.7032 423.292C-82.5109 423.292 -85.2796 422.636 -87.7882 421.374C-90.2967 420.113 -92.4755 418.283 -94.1504 416.03L-94.8857 446.477L131.15 432.86L729.438 423.301Z" fill="#4AA29A"/>
<path d="M209.324 423.301C206.517 423.302 203.749 422.645 201.242 421.382C198.735 420.119 196.559 418.286 194.89 416.03C193.215 418.283 191.036 420.113 188.528 421.374C186.019 422.636 183.25 423.292 180.443 423.292C177.635 423.292 174.866 422.636 172.358 421.374C169.849 420.113 167.67 418.283 165.995 416.03C164.318 418.283 162.136 420.114 159.626 421.375C157.115 422.636 154.344 423.292 151.535 423.292C148.725 423.292 145.954 422.636 143.444 421.375C140.933 420.114 138.752 418.283 137.074 416.03C135.399 418.283 133.22 420.113 130.711 421.374C128.203 422.636 125.434 423.292 122.626 423.292C119.819 423.292 117.05 422.636 114.541 421.374C112.033 420.113 109.854 418.283 108.179 416.03C106.504 418.283 104.325 420.113 101.817 421.374C99.3083 422.636 96.5396 423.292 93.7319 423.292C90.9243 423.292 88.1555 422.636 85.647 421.374C83.1384 420.113 80.9597 418.283 79.2847 416.03C77.6097 418.283 75.431 420.113 72.9224 421.374C70.4139 422.636 67.6451 423.292 64.8375 423.292C62.0298 423.292 59.261 422.636 56.7525 421.374C54.244 420.113 52.0651 418.283 50.3902 416.03C48.7153 418.283 46.5365 420.113 44.028 421.374C41.5194 422.636 38.7506 423.292 35.9429 423.292C33.1353 423.292 30.3666 422.636 27.858 421.374C25.3494 420.113 23.1707 418.283 21.4957 416.03C19.8208 418.283 17.642 420.113 15.1334 421.374C12.6249 422.636 9.85614 423.292 7.04846 423.292C4.24078 423.292 1.47205 422.636 -1.0365 421.374C-3.54504 420.113 -5.72382 418.283 -7.39874 416.03C-9.07367 418.283 -11.2525 420.113 -13.761 421.374C-16.2696 422.636 -19.0383 423.292 -21.846 423.292C-24.6537 423.292 -27.4224 422.636 -29.931 421.374C-32.4396 420.113 -34.6183 418.283 -36.2932 416.03C-37.9682 418.283 -40.147 420.113 -42.6555 421.374C-45.1641 422.636 -47.9329 423.292 -50.7405 423.292C-53.5482 423.292 -56.3169 422.636 -58.8255 421.374C-61.334 420.113 -63.5128 418.283 -65.1877 416.03C-66.8655 418.283 -69.0468 420.114 -71.5576 421.375C-74.0683 422.636 -76.839 423.292 -79.6486 423.292C-82.4582 423.292 -85.2289 422.636 -87.7396 421.375C-90.2504 420.114 -92.4317 418.283 -94.1095 416.03C-95.7844 418.283 -97.9632 420.113 -100.472 421.374C-102.98 422.636 -105.749 423.292 -108.557 423.292C-111.364 423.292 -114.133 422.636 -116.642 421.374C-119.15 420.113 -121.329 418.283 -123.004 416.03C-124.679 418.283 -126.858 420.113 -129.366 421.374C-131.875 422.636 -134.644 423.292 -137.451 423.292C-140.259 423.292 -143.028 422.636 -145.536 421.374C-148.045 420.113 -150.224 418.283 -151.898 416.03C-153.573 418.283 -155.752 420.113 -158.261 421.374C-160.769 422.636 -163.538 423.292 -166.346 423.292C-169.153 423.292 -171.922 422.636 -174.431 421.374C-176.939 420.113 -179.118 418.283 -180.793 416.03C-182.468 418.283 -184.647 420.113 -187.155 421.374C-189.664 422.636 -192.433 423.292 -195.24 423.292C-198.048 423.292 -200.817 422.636 -203.325 421.374C-205.834 420.113 -208.012 418.283 -209.687 416.03C-211.362 418.283 -213.541 420.113 -216.05 421.374C-218.558 422.636 -221.327 423.292 -224.135 423.292C-226.942 423.292 -229.711 422.636 -232.22 421.374C-234.728 420.113 -236.907 418.283 -238.582 416.03C-240.257 418.283 -242.436 420.113 -244.944 421.374C-247.453 422.636 -250.221 423.292 -253.029 423.292C-255.837 423.292 -258.606 422.636 -261.114 421.374C-263.623 420.113 -265.801 418.283 -267.476 416.03C-269.151 418.283 -271.33 420.113 -273.839 421.374C-276.347 422.636 -279.116 423.292 -281.924 423.292C-284.731 423.292 -287.5 422.636 -290.009 421.374C-292.517 420.113 -294.696 418.283 -296.371 416.03C-298.049 418.283 -300.23 420.114 -302.741 421.375C-305.251 422.636 -308.022 423.292 -310.832 423.292C-313.641 423.292 -316.412 422.636 -318.923 421.375C-321.434 420.114 -323.615 418.283 -325.293 416.03C-326.967 418.283 -329.146 420.113 -331.655 421.374C-334.163 422.636 -336.932 423.292 -339.74 423.292C-342.547 423.292 -345.316 422.636 -347.825 421.374C-350.333 420.113 -352.512 418.283 -354.187 416.03C-355.862 418.283 -358.041 420.113 -360.549 421.374C-363.058 422.636 -365.827 423.292 -368.634 423.292C-371.442 423.292 -374.211 422.636 -376.719 421.374C-379.228 420.113 -381.407 418.283 -383.082 416.03C-384.756 418.283 -386.935 420.113 -389.444 421.374C-391.952 422.636 -394.721 423.292 -397.529 423.292C-400.336 423.292 -403.105 422.636 -405.614 421.374C-408.122 420.113 -410.301 418.283 -411.976 416.03C-413.651 418.283 -415.83 420.113 -418.338 421.374C-420.847 422.636 -423.616 423.292 -426.423 423.292C-429.231 423.292 -432 422.636 -434.508 421.374C-437.017 420.113 -439.196 418.283 -440.871 416.03C-442.545 418.283 -444.724 420.113 -447.233 421.374C-449.741 422.636 -452.51 423.292 -455.318 423.292C-458.125 423.292 -460.894 422.636 -463.403 421.374C-465.911 420.113 -468.09 418.283 -469.765 416.03C-471.44 418.283 -473.619 420.113 -476.127 421.374C-478.636 422.636 -481.405 423.292 -484.212 423.292C-487.02 423.292 -489.789 422.636 -492.297 421.374C-494.806 420.113 -496.985 418.283 -498.66 416.03C-500.334 418.283 -502.513 420.113 -505.022 421.374C-507.53 422.636 -510.299 423.292 -513.107 423.292C-515.914 423.292 -518.683 422.636 -521.192 421.374C-523.7 420.113 -525.879 418.283 -527.554 416.03C-529.232 418.283 -531.413 420.114 -533.924 421.375C-536.435 422.636 -539.205 423.292 -542.015 423.292C-544.824 423.292 -547.595 422.636 -550.106 421.375C-552.617 420.114 -554.798 418.283 -556.476 416.03C-558.151 418.283 -560.329 420.113 -562.838 421.374C-565.347 422.636 -568.115 423.292 -570.923 423.292C-573.731 423.292 -576.499 422.636 -579.008 421.374C-581.516 420.113 -583.695 418.283 -585.37 416.03C-587.045 418.283 -589.224 420.113 -591.732 421.374C-594.241 422.636 -597.01 423.292 -599.817 423.292C-602.625 423.292 -605.394 422.636 -607.902 421.374C-610.411 420.113 -612.59 418.283 -614.265 416.03L-615 446.477L-389.444 449.798H-84.6366L209.324 423.301Z" fill="#4AA29A"/>
<path d="M51.3384 450.48L729.447 440.894V423.301C726.64 423.302 723.872 422.645 721.365 421.382C718.858 420.119 716.682 418.286 715.013 416.03C713.338 418.283 711.159 420.113 708.651 421.374C706.142 422.636 703.373 423.292 700.566 423.292C697.758 423.292 694.989 422.636 692.481 421.374C689.972 420.113 687.793 418.283 686.118 416.03C684.441 418.283 682.259 420.114 679.749 421.375C677.238 422.636 674.467 423.292 671.658 423.292C668.848 423.292 666.077 422.636 663.567 421.375C661.056 420.114 658.875 418.283 657.197 416.03C655.522 418.283 653.343 420.113 650.834 421.374C648.326 422.636 645.557 423.292 642.75 423.292C639.942 423.292 637.173 422.636 634.664 421.374C632.156 420.113 629.977 418.283 628.302 416.03C626.627 418.283 624.448 420.113 621.94 421.374C619.431 422.636 616.663 423.292 613.855 423.292C611.047 423.292 608.279 422.636 605.77 421.374C603.261 420.113 601.083 418.283 599.408 416.03C597.733 418.283 595.554 420.113 593.045 421.374C590.537 422.636 587.768 423.292 584.961 423.292C582.153 423.292 579.384 422.636 576.876 421.374C574.367 420.113 572.188 418.283 570.513 416.03C568.838 418.283 566.659 420.113 564.151 421.374C561.642 422.636 558.874 423.292 556.066 423.292C553.258 423.292 550.49 422.636 547.981 421.374C545.472 420.113 543.294 418.283 541.619 416.03C539.944 418.283 537.765 420.113 535.256 421.374C532.748 422.636 529.979 423.292 527.172 423.292C524.364 423.292 521.595 422.636 519.087 421.374C516.578 420.113 514.399 418.283 512.724 416.03C511.049 418.283 508.871 420.113 506.362 421.374C503.853 422.636 501.085 423.292 498.277 423.292C495.469 423.292 492.701 422.636 490.192 421.374C487.683 420.113 485.505 418.283 483.83 416.03C482.155 418.283 479.976 420.113 477.467 421.374C474.959 422.636 472.19 423.292 469.383 423.292C466.575 423.292 463.806 422.636 461.298 421.374C458.789 420.113 456.61 418.283 454.935 416.03C453.258 418.283 451.076 420.114 448.565 421.375C446.055 422.636 443.284 423.292 440.474 423.292C437.665 423.292 434.894 422.636 432.383 421.375C429.873 420.114 427.691 418.283 426.014 416.03C424.339 418.283 422.16 420.113 419.651 421.374C417.143 422.636 414.374 423.292 411.566 423.292C408.759 423.292 405.99 422.636 403.481 421.374C400.973 420.113 398.794 418.283 397.119 416.03C395.444 418.283 393.265 420.113 390.757 421.374C388.248 422.636 385.479 423.292 382.672 423.292C379.864 423.292 377.095 422.636 374.587 421.374C372.078 420.113 369.9 418.283 368.225 416.03C366.55 418.283 364.371 420.113 361.862 421.374C359.354 422.636 356.585 423.292 353.777 423.292C350.97 423.292 348.201 422.636 345.692 421.374C343.184 420.113 341.005 418.283 339.33 416.03C337.655 418.283 335.476 420.113 332.968 421.374C330.459 422.636 327.691 423.292 324.883 423.292C322.075 423.292 319.306 422.636 316.798 421.374C314.289 420.113 312.111 418.283 310.436 416.03C308.761 418.283 306.582 420.113 304.073 421.374C301.565 422.636 298.796 423.292 295.988 423.292C293.181 423.292 290.412 422.636 287.903 421.374C285.395 420.113 283.216 418.283 281.541 416.03C279.866 418.283 277.687 420.113 275.179 421.374C272.67 422.636 269.902 423.292 267.094 423.292C264.286 423.292 261.517 422.636 259.009 421.374C256.5 420.113 254.322 418.283 252.647 416.03C250.972 418.283 248.793 420.113 246.284 421.374C243.776 422.636 241.007 423.292 238.199 423.292C235.392 423.292 232.623 422.636 230.114 421.374C227.606 420.113 225.427 418.283 223.752 416.03C222.074 418.283 219.893 420.114 217.382 421.375C214.872 422.636 212.101 423.292 209.291 423.292C206.482 423.292 203.711 422.636 201.2 421.375C198.69 420.114 196.508 418.283 194.83 416.03C193.156 418.283 190.977 420.113 188.468 421.374C185.96 422.636 183.191 423.292 180.383 423.292C177.576 423.292 174.807 422.636 172.298 421.374C169.79 420.113 167.611 418.283 165.936 416.03C164.261 418.283 162.082 420.113 159.574 421.374C157.065 422.636 154.296 423.292 151.489 423.292C148.681 423.292 145.912 422.636 143.404 421.374C140.895 420.113 138.716 418.283 137.041 416.03C135.367 418.283 133.188 420.113 130.679 421.374C128.171 422.636 125.402 423.292 122.594 423.292C119.787 423.292 117.018 422.636 114.509 421.374C112.001 420.113 109.822 418.283 108.147 416.03C106.472 418.283 104.293 420.113 101.785 421.374C99.2761 422.636 96.5074 423.292 93.6997 423.292C90.892 423.292 88.1233 422.636 85.6148 421.374C83.1062 420.113 80.9274 418.283 79.2525 416.03C77.4637 418.162 75.2585 419.907 72.772 421.157C70.2855 422.407 67.5699 423.137 64.7916 423.301C62.7336 423.334 60.6889 422.964 58.7731 422.212L51.3384 450.48Z" fill="#4AA29A"/>
<path d="M686.351 450.48L1364.46 440.894V423.301C1361.65 423.302 1358.88 422.645 1356.38 421.382C1353.87 420.119 1351.69 418.286 1350.03 416.03C1348.35 418.283 1346.17 420.113 1343.66 421.374C1341.15 422.636 1338.39 423.292 1335.58 423.292C1332.77 423.292 1330 422.636 1327.49 421.374C1324.98 420.113 1322.81 418.283 1321.13 416.03C1319.45 418.283 1317.27 420.114 1314.76 421.375C1312.25 422.636 1309.48 423.292 1306.67 423.292C1303.86 423.292 1301.09 422.636 1298.58 421.375C1296.07 420.114 1293.89 418.283 1292.21 416.03C1290.53 418.283 1288.36 420.113 1285.85 421.374C1283.34 422.636 1280.57 423.292 1277.76 423.292C1274.95 423.292 1272.19 422.636 1269.68 421.374C1267.17 420.113 1264.99 418.283 1263.31 416.03C1261.64 418.283 1259.46 420.113 1256.95 421.374C1254.44 422.636 1251.67 423.292 1248.87 423.292C1246.06 423.292 1243.29 422.636 1240.78 421.374C1238.27 420.113 1236.09 418.283 1234.42 416.03C1232.74 418.283 1230.57 420.113 1228.06 421.374C1225.55 422.636 1222.78 423.292 1219.97 423.292C1217.17 423.292 1214.4 422.636 1211.89 421.374C1209.38 420.113 1207.2 418.283 1205.53 416.03C1203.85 418.283 1201.67 420.113 1199.16 421.374C1196.65 422.636 1193.89 423.292 1191.08 423.292C1188.27 423.292 1185.5 422.636 1182.99 421.374C1180.48 420.113 1178.31 418.283 1176.63 416.03C1174.96 418.283 1172.78 420.113 1170.27 421.374C1167.76 422.636 1164.99 423.292 1162.18 423.292C1159.38 423.292 1156.61 422.636 1154.1 421.374C1151.59 420.113 1149.41 418.283 1147.74 416.03C1146.06 418.283 1143.88 420.113 1141.37 421.374C1138.87 422.636 1136.1 423.292 1133.29 423.292C1130.48 423.292 1127.71 422.636 1125.2 421.374C1122.7 420.113 1120.52 418.283 1118.84 416.03C1117.17 418.283 1114.99 420.113 1112.48 421.374C1109.97 422.636 1107.2 423.292 1104.39 423.292C1101.59 423.292 1098.82 422.636 1096.31 421.374C1093.8 420.113 1091.62 418.283 1089.95 416.03C1088.27 418.283 1086.09 420.114 1083.58 421.375C1081.07 422.636 1078.3 423.292 1075.49 423.292C1072.68 423.292 1069.91 422.636 1067.4 421.375C1064.88 420.114 1062.7 418.283 1061.03 416.03C1059.35 418.283 1057.17 420.113 1054.66 421.374C1052.15 422.636 1049.39 423.292 1046.58 423.292C1043.77 423.292 1041 422.636 1038.49 421.374C1035.99 420.113 1033.81 418.283 1032.13 416.03C1030.46 418.283 1028.28 420.113 1025.77 421.374C1023.26 422.636 1020.49 423.292 1017.68 423.292C1014.88 423.292 1012.11 422.636 1009.6 421.374C1007.09 420.113 1004.91 418.283 1003.24 416.03C1001.56 418.283 999.383 420.113 996.875 421.374C994.366 422.636 991.597 423.292 988.79 423.292C985.982 423.292 983.213 422.636 980.705 421.374C978.196 420.113 976.017 418.283 974.342 416.03C972.667 418.283 970.489 420.113 967.98 421.374C965.471 422.636 962.703 423.292 959.895 423.292C957.087 423.292 954.319 422.636 951.81 421.374C949.302 420.113 947.123 418.283 945.448 416.03C943.773 418.283 941.594 420.113 939.086 421.374C936.577 422.636 933.808 423.292 931.001 423.292C928.193 423.292 925.424 422.636 922.916 421.374C920.407 420.113 918.228 418.283 916.553 416.03C914.878 418.283 912.7 420.113 910.191 421.374C907.682 422.636 904.914 423.292 902.106 423.292C899.298 423.292 896.53 422.636 894.021 421.374C891.513 420.113 889.334 418.283 887.659 416.03C885.984 418.283 883.805 420.113 881.297 421.374C878.788 422.636 876.019 423.292 873.212 423.292C870.404 423.292 867.635 422.636 865.127 421.374C862.618 420.113 860.439 418.283 858.764 416.03C857.087 418.283 854.905 420.114 852.395 421.375C849.884 422.636 847.113 423.292 844.303 423.292C841.494 423.292 838.723 422.636 836.212 421.375C833.702 420.114 831.52 418.283 829.843 416.03C828.168 418.283 825.989 420.113 823.48 421.374C820.972 422.636 818.203 423.292 815.395 423.292C812.588 423.292 809.819 422.636 807.31 421.374C804.802 420.113 802.623 418.283 800.948 416.03C799.273 418.283 797.094 420.113 794.586 421.374C792.077 422.636 789.309 423.292 786.501 423.292C783.693 423.292 780.924 422.636 778.416 421.374C775.907 420.113 773.729 418.283 772.054 416.03C770.379 418.283 768.2 420.113 765.691 421.374C763.183 422.636 760.414 423.292 757.606 423.292C754.799 423.292 752.03 422.636 749.521 421.374C747.013 420.113 744.834 418.283 743.159 416.03C741.484 418.283 739.305 420.113 736.797 421.374C734.288 422.636 731.52 423.292 728.712 423.292C725.904 423.292 723.136 422.636 720.627 421.374C718.118 420.113 715.94 418.283 714.265 416.03C712.476 418.162 710.271 419.907 707.784 421.157C705.298 422.407 702.582 423.137 699.804 423.301C697.746 423.334 695.701 422.964 693.785 422.212L686.351 450.48Z" fill="#4AA29A"/>
<rect x="-454.347" y="433.922" width="1465.4" height="184.078" fill="url(#paint0_linear)"/>
<path d="M561.037 527.952V526.373C561.037 525.65 560.75 524.958 560.239 524.447C559.729 523.936 559.036 523.649 558.314 523.649H501.396C500.674 523.649 499.981 523.936 499.47 524.447C498.96 524.958 498.673 525.65 498.673 526.373V527.952H561.037Z" fill="#223946"/>
<g style="mix-blend-mode:multiply">
<path d="M551.069 527.943V526.854C551.014 526.297 550.744 525.785 550.317 525.424C549.89 525.063 549.34 524.882 548.782 524.92H502.213C501.655 524.882 501.104 525.063 500.677 525.424C500.25 525.785 499.981 526.297 499.925 526.854V527.943H551.069Z" fill="#CCCCCC"/>
</g>
<path d="M517.164 507.661H508.395V523.892H517.164V507.661Z" fill="#223946"/>
<path d="M522.801 507.661H503.003V511.8H522.801V507.661Z" fill="#223946"/>
<path d="M545.432 507.661H536.663V523.892H545.432V507.661Z" fill="#223946"/>
<path d="M551.07 507.661H531.271V511.8H551.07V507.661Z" fill="#223946"/>
<g style="mix-blend-mode:multiply">
<path d="M517.164 511.767H510.274H508.395V514.082V523.586H510.274V514.082H517.164V511.767Z" fill="#CCCCCC"/>
</g>
<g style="mix-blend-mode:multiply">
<path d="M545.432 511.767H538.978H536.663V514.082V523.586H538.978V514.082H545.432V511.767Z" fill="#CCCCCC"/>
</g>
<g style="mix-blend-mode:multiply">
<path d="M506.162 507.661H503.003V511.8H506.162V507.661Z" fill="#CCCCCC"/>
</g>
<g style="mix-blend-mode:multiply">
<path d="M534.076 507.661H531.271V511.8H534.076V507.661Z" fill="#CCCCCC"/>
</g>
<path d="M482.469 551.667C484.15 553.916 486.333 555.741 488.843 556.999C491.353 558.256 494.122 558.911 496.93 558.911C499.738 558.911 502.507 558.256 505.017 556.999C507.527 555.741 509.71 553.916 511.391 551.667C513.073 553.91 515.254 555.731 517.761 556.986C520.269 558.24 523.034 558.893 525.838 558.893C528.642 558.893 531.407 558.24 533.915 556.986C536.422 555.731 538.604 553.91 540.285 551.667C541.964 553.915 544.144 555.741 546.652 556.999C549.16 558.256 551.927 558.911 554.733 558.911C557.538 558.911 560.305 558.256 562.813 556.999C565.321 555.741 567.501 553.915 569.18 551.667C570.858 553.915 573.038 555.741 575.546 556.999C578.054 558.256 580.821 558.911 583.627 558.911C586.433 558.911 589.2 558.256 591.708 556.999C594.216 555.741 596.396 553.915 598.074 551.667C599.753 553.915 601.933 555.741 604.441 556.999C606.949 558.256 609.716 558.911 612.522 558.911C615.327 558.911 618.094 558.256 620.602 556.999C623.11 555.741 625.29 553.915 626.969 551.667C628.647 553.915 630.827 555.741 633.335 556.999C635.843 558.256 638.61 558.911 641.416 558.911C644.222 558.911 646.989 558.256 649.497 556.999C652.005 555.741 654.185 553.915 655.863 551.667C657.542 553.915 659.722 555.741 662.23 556.999C664.738 558.256 667.505 558.911 670.311 558.911C673.116 558.911 675.883 558.256 678.391 556.999C680.899 555.741 683.079 553.915 684.758 551.667C686.436 553.915 688.616 555.741 691.124 556.999C693.632 558.256 696.399 558.911 699.205 558.911C702.011 558.911 704.778 558.256 707.286 556.999C709.794 555.741 711.974 553.915 713.652 551.667C715.333 553.916 717.516 555.741 720.026 556.999C722.536 558.256 725.305 558.911 728.113 558.911C730.921 558.911 733.69 558.256 736.2 556.999C738.71 555.741 740.893 553.916 742.574 551.667C744.252 553.915 746.432 555.741 748.94 556.999C751.448 558.256 754.215 558.911 757.021 558.911C759.827 558.911 762.594 558.256 765.102 556.999C767.61 555.741 769.79 553.915 771.468 551.667C773.147 553.915 775.327 555.741 777.835 556.999C780.343 558.256 783.11 558.911 785.916 558.911C788.721 558.911 791.488 558.256 793.997 556.999C796.505 555.741 798.685 553.915 800.363 551.667C802.041 553.915 804.221 555.741 806.729 556.999C809.237 558.256 812.004 558.911 814.81 558.911C817.616 558.911 820.383 558.256 822.891 556.999C825.399 555.741 827.579 553.915 829.257 551.667C830.936 553.915 833.116 555.741 835.624 556.999C838.132 558.256 840.899 558.911 843.705 558.911C846.51 558.911 849.277 558.256 851.786 556.999C854.294 555.741 856.474 553.915 858.152 551.667C859.83 553.915 862.01 555.741 864.518 556.999C867.026 558.256 869.793 558.911 872.599 558.911C875.405 558.911 878.172 558.256 880.68 556.999C883.188 555.741 885.368 553.915 887.046 551.667C888.725 553.915 890.905 555.741 893.413 556.999C895.921 558.256 898.688 558.911 901.494 558.911C904.299 558.911 907.066 558.256 909.575 556.999C912.083 555.741 914.263 553.915 915.941 551.667C917.619 553.915 919.799 555.741 922.307 556.999C924.815 558.256 927.582 558.911 930.388 558.911C933.194 558.911 935.961 558.256 938.469 556.999C940.977 555.741 943.157 553.915 944.835 551.667C946.517 553.916 948.699 555.741 951.209 556.999C953.72 558.256 956.489 558.911 959.296 558.911C962.104 558.911 964.873 558.256 967.383 556.999C969.893 555.741 972.076 553.916 973.757 551.667C975.435 553.915 977.615 555.741 980.124 556.999C982.632 558.256 985.399 558.911 988.204 558.911C991.01 558.911 993.777 558.256 996.285 556.999C998.793 555.741 1000.97 553.915 1002.65 551.667C1004.19 553.749 1006.17 555.472 1008.44 556.718C1010.71 557.964 1013.22 558.703 1015.81 558.884V527.511H476.233V556.923C478.685 555.669 480.818 553.872 482.469 551.667Z" fill="white"/>
<g style="mix-blend-mode:multiply">
<path d="M482.469 551.667C484.15 553.916 486.333 555.741 488.843 556.999C491.353 558.256 494.122 558.911 496.93 558.911C499.738 558.911 502.507 558.256 505.017 556.999C507.527 555.741 509.71 553.916 511.391 551.667C513.073 553.91 515.254 555.731 517.761 556.986C520.269 558.24 523.034 558.893 525.838 558.893C528.642 558.893 531.407 558.24 533.915 556.986C536.422 555.731 538.604 553.91 540.285 551.667C541.964 553.915 544.144 555.741 546.652 556.999C549.16 558.256 551.927 558.911 554.733 558.911C557.538 558.911 560.305 558.256 562.813 556.999C565.321 555.741 567.501 553.915 569.18 551.667L569.452 552.021V527.511H476.233V556.923C478.685 555.669 480.818 553.872 482.469 551.667Z" fill="#E6E6E6"/>
</g>
<g filter="url(#filter0_d)">
<path d="M379.268 201.656C379.268 215.498 368.047 226.719 354.205 226.719C340.364 226.719 329.143 215.498 329.143 201.656C329.143 187.815 340.364 176.594 354.205 176.594C368.047 176.594 379.268 187.815 379.268 201.656Z" fill="white"/>
<path d="M337.277 207.371C337.277 218.055 328.615 226.716 317.931 226.716C307.247 226.716 298.585 218.055 298.585 207.371C298.585 196.686 307.247 188.025 317.931 188.025C328.615 188.025 337.277 196.686 337.277 207.371Z" fill="white"/>
<path d="M307.267 214.517C307.267 221.255 301.804 226.717 295.067 226.717C288.329 226.717 282.866 221.255 282.866 214.517C282.866 207.779 288.329 202.317 295.067 202.317C301.804 202.317 307.267 207.779 307.267 214.517Z" fill="white"/>
<path d="M294.628 208.252H379.268L356.185 226.716H294.628V208.252Z" fill="white"/>
</g>
<g filter="url(#filter1_d)">
<path d="M215.538 249.359C215.538 263.798 203.832 275.504 189.393 275.504C174.953 275.504 163.248 263.798 163.248 249.359C163.248 234.919 174.953 223.214 189.393 223.214C203.832 223.214 215.538 234.919 215.538 249.359Z" fill="white"/>
<path d="M227.249 275.506C238.53 275.506 247.676 266.361 247.676 255.079C247.676 243.798 238.53 234.652 227.249 234.652C215.967 234.652 206.822 243.798 206.822 255.079L189.251 275.506H227.249Z" fill="white"/>
</g>
<g opacity="0.15" filter="url(#filter2_f)">
<path d="M607.598 525.913C595.261 503.125 592.301 500.434 595.27 493.62C599.337 484.287 614.713 479.234 629.613 482.334C644.513 485.434 653.294 495.513 649.227 504.847C646.258 511.661 641.639 512.775 613.143 527.067C611.275 528.001 608.41 527.404 607.598 525.913ZM619.18 506.275C625.388 507.567 631.795 505.461 633.49 501.572C635.184 497.683 631.525 493.484 625.317 492.192C619.109 490.9 612.702 493.006 611.008 496.895C609.313 500.784 612.972 504.983 619.18 506.275Z" fill="#404040"/>
</g>
<path d="M607.385 526.014C586.191 494.993 582.257 491.809 582.257 480.409C582.257 464.792 594.796 452.133 610.263 452.133C625.731 452.133 638.27 464.792 638.27 480.409C638.27 491.809 634.336 494.993 613.142 526.014C611.751 528.042 608.776 528.042 607.385 526.014ZM610.263 492.19C616.708 492.19 621.933 486.915 621.933 480.409C621.933 473.902 616.708 468.627 610.263 468.627C603.819 468.627 598.594 473.902 598.594 480.409C598.594 486.915 603.819 492.19 610.263 492.19Z" fill="#E2581D"/>
</g>
<defs>
<filter id="filter0_d" x="282.866" y="176.594" width="101.402" height="58.1254" filterUnits="userSpaceOnUse" color-interpolation-filters="sRGB">
<feFlood flood-opacity="0" result="BackgroundImageFix"/>
<feColorMatrix in="SourceAlpha" type="matrix" values="0 0 0 0 0 0 0 0 0 0 0 0 0 0 0 0 0 0 127 0"/>
<feOffset dx="4" dy="7"/>
<feGaussianBlur stdDeviation="0.5"/>
<feColorMatrix type="matrix" values="0 0 0 0 0 0 0 0 0 0 0 0 0 0 0 0 0 0 0.15 0"/>
<feBlend mode="normal" in2="BackgroundImageFix" result="effect1_dropShadow"/>
<feBlend mode="normal" in="SourceGraphic" in2="effect1_dropShadow" result="shape"/>
</filter>
<filter id="filter1_d" x="163.248" y="223.214" width="89.4278" height="60.2926" filterUnits="userSpaceOnUse" color-interpolation-filters="sRGB">
<feFlood flood-opacity="0" result="BackgroundImageFix"/>
<feColorMatrix in="SourceAlpha" type="matrix" values="0 0 0 0 0 0 0 0 0 0 0 0 0 0 0 0 0 0 127 0"/>
<feOffset dx="4" dy="7"/>
<feGaussianBlur stdDeviation="0.5"/>
<feColorMatrix type="matrix" values="0 0 0 0 0 0 0 0 0 0 0 0 0 0 0 0 0 0 0.15 0"/>
<feBlend mode="normal" in2="BackgroundImageFix" result="effect1_dropShadow"/>
<feBlend mode="normal" in="SourceGraphic" in2="effect1_dropShadow" result="shape"/>
</filter>
<filter id="filter2_f" x="593.204" y="480.421" width="58.0173" height="48.0933" filterUnits="userSpaceOnUse" color-interpolation-filters="sRGB">
<feFlood flood-opacity="0" result="BackgroundImageFix"/>
<feBlend mode="normal" in="SourceGraphic" in2="BackgroundImageFix" result="shape"/>
<feGaussianBlur stdDeviation="0.5" result="effect1_foregroundBlur"/>
</filter>
<linearGradient id="paint0_linear" x1="278.355" y1="448.792" x2="278.355" y2="550.651" gradientUnits="userSpaceOnUse">
<stop stop-color="#4AA29A"/>
<stop offset="1" stop-color="#4AA29A" stop-opacity="0"/>
</linearGradient>
<clipPath id="clip0">
<rect width="768" height="695" fill="white"/>
</clipPath>
</defs>
</svg>
