<svg width="1920" height="703" viewBox="0 0 1920 703" fill="none" xmlns="http://www.w3.org/2000/svg">
<g clip-path="url(#clip0)">
<rect opacity="0.5" width="1920" height="703" fill="#4AA29A"/>
<path d="M1324.83 240.231H1315.23V336.285H1324.83V240.231Z" fill="#E49306"/>
<path d="M1215.47 242.224H1205.87V379.491H1215.47V242.224Z" fill="#E49306"/>
<path d="M1209.45 313.421H1205.38V379.532H1209.45V313.421Z" fill="#F5B400"/>
<path d="M1051.92 428.434H990.247V451.787H1051.92V428.434Z" fill="#E2421E"/>
<g style="mix-blend-mode:multiply">
<path d="M1051.92 428.434H1007.86V451.787H1051.92V428.434Z" fill="#CCCCCC"/>
</g>
<path d="M1032.84 428.434H971.166V451.787H1032.84V428.434Z" fill="#E2421E"/>
<g style="mix-blend-mode:multiply">
<path d="M1032.88 428.434H988.822V451.787H1032.88V428.434Z" fill="#CCCCCC"/>
</g>
<path d="M1051.84 428.434H990.165V451.787H1051.84V428.434Z" fill="#E2421E"/>
<g style="mix-blend-mode:multiply">
<path d="M1051.84 428.434H1007.78V451.787H1051.84V428.434Z" fill="#CCCCCC"/>
</g>
<path d="M1071.04 428.434H1009.37V451.787H1071.04V428.434Z" fill="#4AA29A"/>
<g style="mix-blend-mode:multiply">
<path d="M1071.04 428.434H1026.98V451.787H1071.04V428.434Z" fill="#CCCCCC"/>
</g>
<path d="M1090.41 428.434H1028.73V451.787H1090.41V428.434Z" fill="#3F5CA8"/>
<g style="mix-blend-mode:multiply">
<path d="M1090.41 428.434H1046.35V451.787H1090.41V428.434Z" fill="#CCCCCC"/>
</g>
<path d="M1109.53 428.434H1047.85V451.787H1109.53V428.434Z" fill="#E2421E"/>
<g style="mix-blend-mode:multiply">
<path d="M1109.53 428.434H1065.47V451.787H1109.53V428.434Z" fill="#CCCCCC"/>
</g>
<path d="M1147.37 428.516H1085.69V451.868H1147.37V428.516Z" fill="#E2421E"/>
<g style="mix-blend-mode:multiply">
<path d="M1147.37 428.516H1103.31V451.868H1147.37V428.516Z" fill="#CCCCCC"/>
</g>
<path d="M1128.29 428.516H1066.61V451.868H1128.29V428.516Z" fill="#E2421E"/>
<g style="mix-blend-mode:multiply">
<path d="M1128.29 428.516H1084.23V451.868H1128.29V428.516Z" fill="#CCCCCC"/>
</g>
<path d="M1147.25 428.516H1085.57V451.868H1147.25V428.516Z" fill="#E2421E"/>
<g style="mix-blend-mode:multiply">
<path d="M1147.29 428.516H1103.23V451.868H1147.29V428.516Z" fill="#CCCCCC"/>
</g>
<path d="M1166.49 428.516H1104.81V451.868H1166.49V428.516Z" fill="#D75724"/>
<g style="mix-blend-mode:multiply">
<path d="M1166.49 428.516H1122.43V451.868H1166.49V428.516Z" fill="#CCCCCC"/>
</g>
<path d="M1185.85 428.516H1124.18V451.868H1185.85V428.516Z" fill="#3F5CA8"/>
<g style="mix-blend-mode:multiply">
<path d="M1185.85 428.516H1141.79V451.868H1185.85V428.516Z" fill="#CCCCCC"/>
</g>
<path d="M1204.98 428.516H1143.3V451.868H1204.98V428.516Z" fill="#E2421E"/>
<g style="mix-blend-mode:multiply">
<path d="M1204.98 428.516H1160.92V451.868H1204.98V428.516Z" fill="#CCCCCC"/>
</g>
<path d="M1243.06 428.516H1181.38V451.868H1243.06V428.516Z" fill="#E2421E"/>
<g style="mix-blend-mode:multiply">
<path d="M1243.06 428.516H1199V451.868H1243.06V428.516Z" fill="#CCCCCC"/>
</g>
<path d="M1224.02 428.516H1162.34V451.868H1224.02V428.516Z" fill="#E2421E"/>
<g style="mix-blend-mode:multiply">
<path d="M1224.02 428.516H1179.95V451.868H1224.02V428.516Z" fill="#CCCCCC"/>
</g>
<path d="M1242.97 428.516H1181.3V451.868H1242.97V428.516Z" fill="#E2421E"/>
<g style="mix-blend-mode:multiply">
<path d="M1242.97 428.516H1198.91V451.868H1242.97V428.516Z" fill="#CCCCCC"/>
</g>
<path d="M1262.18 428.516H1200.5V451.868H1262.18V428.516Z" fill="#4AA29A"/>
<g style="mix-blend-mode:multiply">
<path d="M1262.18 428.516H1218.12V451.868H1262.18V428.516Z" fill="#CCCCCC"/>
</g>
<path d="M1281.54 428.516H1219.87V451.868H1281.54V428.516Z" fill="#3F5CA8"/>
<g style="mix-blend-mode:multiply">
<path d="M1281.54 428.516H1237.48V451.868H1281.54V428.516Z" fill="#CCCCCC"/>
</g>
<path d="M1300.66 428.516H1238.99V451.868H1300.66V428.516Z" fill="#E2421E"/>
<g style="mix-blend-mode:multiply">
<path d="M1300.66 428.516H1256.6V451.868H1300.66V428.516Z" fill="#CCCCCC"/>
</g>
<path d="M1339.03 428.516H1277.35V451.868H1339.03V428.516Z" fill="#E2421E"/>
<g style="mix-blend-mode:multiply">
<path d="M1339.03 428.516H1294.97V451.868H1339.03V428.516Z" fill="#CCCCCC"/>
</g>
<path d="M1319.99 428.516H1258.31V451.868H1319.99V428.516Z" fill="#E2421E"/>
<g style="mix-blend-mode:multiply">
<path d="M1319.99 428.516H1275.93V451.868H1319.99V428.516Z" fill="#CCCCCC"/>
</g>
<path d="M1338.95 428.516H1277.27V451.868H1338.95V428.516Z" fill="#E2421E"/>
<g style="mix-blend-mode:multiply">
<path d="M1338.95 428.516H1294.89V451.868H1338.95V428.516Z" fill="#CCCCCC"/>
</g>
<path d="M1358.15 428.516H1296.47V451.868H1358.15V428.516Z" fill="#4AA29A"/>
<g style="mix-blend-mode:multiply">
<path d="M1358.15 428.516H1314.09V451.868H1358.15V428.516Z" fill="#CCCCCC"/>
</g>
<path d="M1377.56 428.516H1315.88V451.868H1377.56V428.516Z" fill="#3F5CA8"/>
<g style="mix-blend-mode:multiply">
<path d="M1377.56 428.516H1333.5V451.868H1377.56V428.516Z" fill="#CCCCCC"/>
</g>
<path d="M1396.68 428.516H1335V451.868H1396.68V428.516Z" fill="#E2421E"/>
<g style="mix-blend-mode:multiply">
<path d="M1396.68 428.516H1352.62V451.868H1396.68V428.516Z" fill="#CCCCCC"/>
</g>
<path d="M1434.92 428.516H1373.24V451.868H1434.92V428.516Z" fill="#E2421E"/>
<g style="mix-blend-mode:multiply">
<path d="M1434.92 428.516H1390.86V451.868H1434.92V428.516Z" fill="#CCCCCC"/>
</g>
<path d="M1415.84 428.516H1354.16V451.868H1415.84V428.516Z" fill="#E2421E"/>
<g style="mix-blend-mode:multiply">
<path d="M1415.88 428.516H1371.82V451.868H1415.88V428.516Z" fill="#CCCCCC"/>
</g>
<path d="M1434.84 428.516H1373.16V451.868H1434.84V428.516Z" fill="#E2421E"/>
<g style="mix-blend-mode:multiply">
<path d="M1434.84 428.516H1390.78V451.868H1434.84V428.516Z" fill="#CCCCCC"/>
</g>
<path d="M1454.04 428.516H1392.37V451.868H1454.04V428.516Z" fill="#CCCCCC"/>
<g style="mix-blend-mode:multiply">
<path d="M1454.04 428.516H1409.98V451.868H1454.04V428.516Z" fill="#CCCCCC"/>
</g>
<path d="M1473.41 428.516H1411.73V451.868H1473.41V428.516Z" fill="#7BBCCC"/>
<g style="mix-blend-mode:multiply">
<path d="M1473.41 428.516H1429.35V451.868H1473.41V428.516Z" fill="#CCCCCC"/>
</g>
<path d="M1492.53 428.516H1430.85V451.868H1492.53V428.516Z" fill="#E2421E"/>
<g style="mix-blend-mode:multiply">
<path d="M1492.53 428.516H1448.47V451.868H1492.53V428.516Z" fill="#CCCCCC"/>
</g>
<path d="M1032.8 403.861H971.125V427.213H1032.8V403.861Z" fill="#E2421E"/>
<g style="mix-blend-mode:multiply">
<path d="M1032.8 403.861H988.741V427.213H1032.8V403.861Z" fill="#CCCCCC"/>
</g>
<path d="M1013.76 403.861H952.085V427.213H1013.76V403.861Z" fill="#E2421E"/>
<g style="mix-blend-mode:multiply">
<path d="M1013.76 403.861H969.701V427.213H1013.76V403.861Z" fill="#CCCCCC"/>
</g>
<path d="M1032.72 403.861H971.043V427.213H1032.72V403.861Z" fill="#E2421E"/>
<g style="mix-blend-mode:multiply">
<path d="M1032.72 403.861H988.66V427.213H1032.72V403.861Z" fill="#CCCCCC"/>
</g>
<path d="M1051.92 403.861H990.247V427.213H1051.92V403.861Z" fill="#4AA29A"/>
<g style="mix-blend-mode:multiply">
<path d="M1051.92 403.861H1007.86V427.213H1051.92V403.861Z" fill="#CCCCCC"/>
</g>
<path d="M1071.29 403.861H1009.61V427.213H1071.29V403.861Z" fill="#3F5CA8"/>
<g style="mix-blend-mode:multiply">
<path d="M1071.29 403.861H1027.23V427.213H1071.29V403.861Z" fill="#CCCCCC"/>
</g>
<path d="M1090.41 403.861H1028.73V427.213H1090.41V403.861Z" fill="#E2421E"/>
<g style="mix-blend-mode:multiply">
<path d="M1090.41 403.861H1046.35V427.213H1090.41V403.861Z" fill="#CCCCCC"/>
</g>
<path d="M1128.25 403.902H1066.57V427.254H1128.25V403.902Z" fill="#E2421E"/>
<g style="mix-blend-mode:multiply">
<path d="M1128.25 403.902H1084.19V427.254H1128.25V403.902Z" fill="#CCCCCC"/>
</g>
<path d="M1109.17 403.902H1047.49V427.254H1109.17V403.902Z" fill="#E2421E"/>
<g style="mix-blend-mode:multiply">
<path d="M1109.21 403.902H1065.15V427.254H1109.21V403.902Z" fill="#CCCCCC"/>
</g>
<path d="M1128.16 403.902H1066.49V427.254H1128.16V403.902Z" fill="#E2421E"/>
<g style="mix-blend-mode:multiply">
<path d="M1128.16 403.902H1084.1V427.254H1128.16V403.902Z" fill="#CCCCCC"/>
</g>
<path d="M1147.37 403.902H1085.69V427.254H1147.37V403.902Z" fill="#223946"/>
<g style="mix-blend-mode:multiply">
<path d="M1147.37 403.902H1103.31V427.254H1147.37V403.902Z" fill="#CCCCCC"/>
</g>
<path d="M1166.73 403.902H1105.06V427.254H1166.73V403.902Z" fill="#7BBCCC"/>
<g style="mix-blend-mode:multiply">
<path d="M1166.73 403.902H1122.67V427.254H1166.73V403.902Z" fill="#CCCCCC"/>
</g>
<path d="M1185.85 403.902H1124.18V427.254H1185.85V403.902Z" fill="#E2421E"/>
<g style="mix-blend-mode:multiply">
<path d="M1185.85 403.902H1141.79V427.254H1185.85V403.902Z" fill="#CCCCCC"/>
</g>
<path d="M1223.93 403.902H1162.26V427.254H1223.93V403.902Z" fill="#E2421E"/>
<g style="mix-blend-mode:multiply">
<path d="M1223.93 403.902H1179.87V427.254H1223.93V403.902Z" fill="#CCCCCC"/>
</g>
<path d="M1204.89 403.902H1143.22V427.254H1204.89V403.902Z" fill="#E2421E"/>
<g style="mix-blend-mode:multiply">
<path d="M1204.89 403.902H1160.83V427.254H1204.89V403.902Z" fill="#CCCCCC"/>
</g>
<path d="M1223.85 403.902H1162.18V427.254H1223.85V403.902Z" fill="#E2421E"/>
<g style="mix-blend-mode:multiply">
<path d="M1223.85 403.902H1179.79V427.254H1223.85V403.902Z" fill="#CCCCCC"/>
</g>
<path d="M1243.06 403.902H1181.38V427.254H1243.06V403.902Z" fill="#223946"/>
<g style="mix-blend-mode:multiply">
<path d="M1243.06 403.902H1199V427.254H1243.06V403.902Z" fill="#CCCCCC"/>
</g>
<path d="M1262.42 403.902H1200.74V427.254H1262.42V403.902Z" fill="#CCCCCC"/>
<g style="mix-blend-mode:multiply">
<path d="M1262.46 403.902H1218.4V427.254H1262.46V403.902Z" fill="#CCCCCC"/>
</g>
<path d="M1281.54 403.902H1219.87V427.254H1281.54V403.902Z" fill="#E2421E"/>
<g style="mix-blend-mode:multiply">
<path d="M1281.54 403.902H1237.48V427.254H1281.54V403.902Z" fill="#CCCCCC"/>
</g>
<path d="M1319.95 403.902H1258.27V427.254H1319.95V403.902Z" fill="#E2421E"/>
<g style="mix-blend-mode:multiply">
<path d="M1319.95 403.902H1275.89V427.254H1319.95V403.902Z" fill="#CCCCCC"/>
</g>
<path d="M1300.87 403.902H1239.19V427.254H1300.87V403.902Z" fill="#E2421E"/>
<g style="mix-blend-mode:multiply">
<path d="M1300.87 403.902H1256.81V427.254H1300.87V403.902Z" fill="#CCCCCC"/>
</g>
<path d="M1319.83 403.902H1258.15V427.254H1319.83V403.902Z" fill="#E2421E"/>
<g style="mix-blend-mode:multiply">
<path d="M1319.83 403.902H1275.77V427.254H1319.83V403.902Z" fill="#CCCCCC"/>
</g>
<path d="M1339.03 403.902H1277.35V427.254H1339.03V403.902Z" fill="#223946"/>
<g style="mix-blend-mode:multiply">
<path d="M1339.03 403.902H1294.97V427.254H1339.03V403.902Z" fill="#CCCCCC"/>
</g>
<path d="M1358.44 403.902H1296.76V427.254H1358.44V403.902Z" fill="#223946"/>
<g style="mix-blend-mode:multiply">
<path d="M1358.44 403.902H1314.37V427.254H1358.44V403.902Z" fill="#CCCCCC"/>
</g>
<path d="M1377.56 403.902H1315.88V427.254H1377.56V403.902Z" fill="#E2421E"/>
<g style="mix-blend-mode:multiply">
<path d="M1377.56 403.902H1333.5V427.254H1377.56V403.902Z" fill="#CCCCCC"/>
</g>
<path d="M1415.8 403.902H1354.12V427.254H1415.8V403.902Z" fill="#E2421E"/>
<g style="mix-blend-mode:multiply">
<path d="M1415.8 403.902H1371.74V427.254H1415.8V403.902Z" fill="#CCCCCC"/>
</g>
<path d="M1396.76 403.902H1335.08V427.254H1396.76V403.902Z" fill="#CCCCCC"/>
<g style="mix-blend-mode:multiply">
<path d="M1396.76 403.902H1352.7V427.254H1396.76V403.902Z" fill="#CCCCCC"/>
</g>
<path d="M1434.92 403.902H1373.24V427.254H1434.92V403.902Z" fill="#223946"/>
<g style="mix-blend-mode:multiply">
<path d="M1434.92 403.902H1390.86V427.254H1434.92V403.902Z" fill="#CCCCCC"/>
</g>
<path d="M1454.29 403.902H1392.61V427.254H1454.29V403.902Z" fill="#223946"/>
<g style="mix-blend-mode:multiply">
<path d="M1454.29 403.902H1410.23V427.254H1454.29V403.902Z" fill="#CCCCCC"/>
</g>
<path d="M1473.41 403.902H1411.73V427.254H1473.41V403.902Z" fill="#E2421E"/>
<g style="mix-blend-mode:multiply">
<path d="M1473.41 403.902H1429.35V427.254H1473.41V403.902Z" fill="#CCCCCC"/>
</g>
<path d="M1032.8 379.125H971.125V402.478H1032.8V379.125Z" fill="#E2421E"/>
<g style="mix-blend-mode:multiply">
<path d="M1032.8 379.125H988.741V402.478H1032.8V379.125Z" fill="#CCCCCC"/>
</g>
<path d="M1013.76 379.125H952.085V402.478H1013.76V379.125Z" fill="#E6E6DC"/>
<g style="mix-blend-mode:multiply">
<path d="M1013.76 379.125H969.701V402.478H1013.76V379.125Z" fill="#CCCCCC"/>
</g>
<path d="M1032.72 379.125H971.043V402.478H1032.72V379.125Z" fill="#E2421E"/>
<g style="mix-blend-mode:multiply">
<path d="M1032.72 379.125H988.66V402.478H1032.72V379.125Z" fill="#CCCCCC"/>
</g>
<path d="M1166.73 379.207H1105.06V402.559H1166.73V379.207Z" fill="#7BBCCC"/>
<g style="mix-blend-mode:multiply">
<path d="M1166.73 379.207H1122.67V402.559H1166.73V379.207Z" fill="#CCCCCC"/>
</g>
<path d="M1185.85 379.207H1124.18V402.559H1185.85V379.207Z" fill="#E2421E"/>
<g style="mix-blend-mode:multiply">
<path d="M1185.85 379.207H1141.79V402.559H1185.85V379.207Z" fill="#CCCCCC"/>
</g>
<path d="M1223.93 379.207H1162.26V402.559H1223.93V379.207Z" fill="#E2421E"/>
<g style="mix-blend-mode:multiply">
<path d="M1223.93 379.207H1179.87V402.559H1223.93V379.207Z" fill="#CCCCCC"/>
</g>
<path d="M1204.89 379.207H1143.22V402.559H1204.89V379.207Z" fill="#E2421E"/>
<g style="mix-blend-mode:multiply">
<path d="M1204.89 379.207H1160.83V402.559H1204.89V379.207Z" fill="#CCCCCC"/>
</g>
<path d="M1223.85 379.207H1162.18V402.559H1223.85V379.207Z" fill="#7BBCCC"/>
<g style="mix-blend-mode:multiply">
<path d="M1223.85 379.207H1179.79V402.559H1223.85V379.207Z" fill="#CCCCCC"/>
</g>
<path d="M1243.06 379.207H1181.38V402.559H1243.06V379.207Z" fill="#CCCCCC"/>
<g style="mix-blend-mode:multiply">
<path d="M1243.06 379.207H1199V402.559H1243.06V379.207Z" fill="#CCCCCC"/>
</g>
<path d="M1281.54 379.207H1219.87V402.559H1281.54V379.207Z" fill="#7BBCCC"/>
<g style="mix-blend-mode:multiply">
<path d="M1281.54 379.207H1237.48V402.559H1281.54V379.207Z" fill="#CCCCCC"/>
</g>
<path d="M1319.95 379.207H1258.27V402.559H1319.95V379.207Z" fill="#E2421E"/>
<g style="mix-blend-mode:multiply">
<path d="M1319.95 379.207H1275.89V402.559H1319.95V379.207Z" fill="#CCCCCC"/>
</g>
<path d="M1300.87 379.207H1239.19V402.559H1300.87V379.207Z" fill="#E2421E"/>
<g style="mix-blend-mode:multiply">
<path d="M1300.87 379.207H1256.81V402.559H1300.87V379.207Z" fill="#CCCCCC"/>
</g>
<path d="M1339.03 379.207H1277.35V402.559H1339.03V379.207Z" fill="#CCCCCC"/>
<g style="mix-blend-mode:multiply">
<path d="M1339.03 379.207H1294.97V402.559H1339.03V379.207Z" fill="#CCCCCC"/>
</g>
<path d="M1358.44 379.207H1296.76V402.559H1358.44V379.207Z" fill="#7BBCCC"/>
<g style="mix-blend-mode:multiply">
<path d="M1358.44 379.207H1314.37V402.559H1358.44V379.207Z" fill="#CCCCCC"/>
</g>
<path d="M1377.56 379.207H1315.88V402.559H1377.56V379.207Z" fill="#E2421E"/>
<g style="mix-blend-mode:multiply">
<path d="M1377.56 379.207H1333.5V402.559H1377.56V379.207Z" fill="#CCCCCC"/>
</g>
<path d="M1415.8 379.207H1354.12V402.559H1415.8V379.207Z" fill="#E2421E"/>
<g style="mix-blend-mode:multiply">
<path d="M1415.8 379.207H1371.74V402.559H1415.8V379.207Z" fill="#CCCCCC"/>
</g>
<path d="M1396.76 379.207H1335.08V402.559H1396.76V379.207Z" fill="#E2421E"/>
<g style="mix-blend-mode:multiply">
<path d="M1396.76 379.207H1352.7V402.559H1396.76V379.207Z" fill="#CCCCCC"/>
</g>
<path d="M1434.92 379.207H1373.24V402.559H1434.92V379.207Z" fill="#7BBCCC"/>
<g style="mix-blend-mode:multiply">
<path d="M1434.92 379.207H1390.86V402.559H1434.92V379.207Z" fill="#CCCCCC"/>
</g>
<path d="M1454.29 379.207H1392.61V402.559H1454.29V379.207Z" fill="#E2421E"/>
<g style="mix-blend-mode:multiply">
<path d="M1454.29 379.207H1410.23V402.559H1454.29V379.207Z" fill="#CCCCCC"/>
</g>
<path d="M1473.41 379.207H1411.73V402.559H1473.41V379.207Z" fill="#7BBCCC"/>
<g style="mix-blend-mode:multiply">
<path d="M1473.41 379.207H1429.35V402.559H1473.41V379.207Z" fill="#CCCCCC"/>
</g>
<path d="M1032.8 354.715H971.125V378.067H1032.8V354.715Z" fill="#E2421E"/>
<g style="mix-blend-mode:multiply">
<path d="M1032.8 354.715H988.741V378.067H1032.8V354.715Z" fill="#CCCCCC"/>
</g>
<path d="M1013.76 354.715H952.085V378.067H1013.76V354.715Z" fill="#E6E6DC"/>
<g style="mix-blend-mode:multiply">
<path d="M1013.76 354.715H969.701V378.067H1013.76V354.715Z" fill="#CCCCCC"/>
</g>
<path d="M1032.72 354.715H971.043V378.067H1032.72V354.715Z" fill="#E2421E"/>
<g style="mix-blend-mode:multiply">
<path d="M1032.72 354.715H988.66V378.067H1032.72V354.715Z" fill="#CCCCCC"/>
</g>
<path d="M1185.85 354.797H1124.18V378.149H1185.85V354.797Z" fill="#E2421E"/>
<g style="mix-blend-mode:multiply">
<path d="M1185.85 354.797H1141.79V378.149H1185.85V354.797Z" fill="#CCCCCC"/>
</g>
<path d="M1204.89 354.797H1143.22V378.149H1204.89V354.797Z" fill="#223946"/>
<g style="mix-blend-mode:multiply">
<path d="M1204.89 354.797H1160.83V378.149H1204.89V354.797Z" fill="#CCCCCC"/>
</g>
<path d="M1319.95 354.797H1258.27V378.149H1319.95V354.797Z" fill="#E2421E"/>
<g style="mix-blend-mode:multiply">
<path d="M1319.95 354.797H1275.89V378.149H1319.95V354.797Z" fill="#CCCCCC"/>
</g>
<path d="M1300.87 354.797H1239.19V378.149H1300.87V354.797Z" fill="#7BBCCC"/>
<g style="mix-blend-mode:multiply">
<path d="M1300.87 354.797H1256.81V378.149H1300.87V354.797Z" fill="#CCCCCC"/>
</g>
<path d="M1358.15 329.939H1296.47V353.291H1358.15V329.939Z" fill="#CCCCCC"/>
<g style="mix-blend-mode:multiply">
<path d="M1358.15 329.939H1314.09V353.291H1358.15V329.939Z" fill="#CCCCCC"/>
</g>
<path d="M1358.44 354.797H1296.76V378.149H1358.44V354.797Z" fill="#223946"/>
<g style="mix-blend-mode:multiply">
<path d="M1358.44 354.797H1314.37V378.149H1358.44V354.797Z" fill="#CCCCCC"/>
</g>
<path d="M1377.56 354.797H1315.88V378.149H1377.56V354.797Z" fill="#E2421E"/>
<g style="mix-blend-mode:multiply">
<path d="M1377.56 354.797H1333.5V378.149H1377.56V354.797Z" fill="#CCCCCC"/>
</g>
<path d="M1454.29 354.797H1392.61V378.149H1454.29V354.797Z" fill="#223946"/>
<g style="mix-blend-mode:multiply">
<path d="M1454.29 354.797H1410.23V378.149H1454.29V354.797Z" fill="#CCCCCC"/>
</g>
<path d="M1013.84 329.939H952.166V353.291H1013.84V329.939Z" fill="#E2421E"/>
<g style="mix-blend-mode:multiply">
<path d="M1013.84 329.939H969.782V353.291H1013.84V329.939Z" fill="#CCCCCC"/>
</g>
<path d="M1013.84 305.365H952.166V328.718H1013.84V305.365Z" fill="#E2421E"/>
<g style="mix-blend-mode:multiply">
<path d="M1013.84 305.365H969.782V328.718H1013.84V305.365Z" fill="#CCCCCC"/>
</g>
<path d="M1381.34 247.309H1262.83V254.429H1381.34V247.309Z" fill="#E49306"/>
<g style="mix-blend-mode:multiply">
<path d="M1315.23 247.309H1262.83V254.429H1315.23V247.309Z" fill="#E6E6E6"/>
</g>
<path d="M1271.01 193.403H1267.43V246.292H1271.01V193.403Z" fill="#E49306"/>
<path d="M1271.18 191.755L1267.04 196.237L1319.24 244.474L1323.38 239.992L1271.18 191.755Z" fill="#E49306"/>
<path d="M1267.01 191.674L1214.82 239.92L1218.96 244.401L1271.15 196.155L1267.01 191.674Z" fill="#E49306"/>
<path d="M1324.91 300.198H1253.19V313.421H1324.91V300.198Z" fill="#F5B400"/>
<path d="M1324.87 238.644H1253.67V247.269H1324.87V238.644Z" fill="#F5B400"/>
<path d="M1152.9 238.644H1143.3V415.578H1152.9V238.644Z" fill="#F5B400"/>
<path d="M1262.83 238.644H1253.23V415.578H1262.83V238.644Z" fill="#F5B400"/>
<path d="M1262.83 238.644H1143.95V247.798H1262.83V238.644Z" fill="#F5B400"/>
<path d="M1209.98 142.549H1197.25V174.079H1209.98V142.549Z" fill="#F5B400"/>
<path d="M1204.16 147.625L1203.52 148.664L1268.61 188.832L1269.25 187.793L1204.16 147.625Z" fill="#E49306"/>
<g style="mix-blend-mode:multiply">
<path d="M1209.94 152.191L1203.19 147.146L1201.96 148.773L1209.94 154.713V152.191Z" fill="#E6E6E6"/>
</g>
<path d="M1259.89 241.422L1256.59 245.014L1320.67 304.006L1323.98 300.414L1259.89 241.422Z" fill="#F5B400"/>
<path d="M1205.22 161.874H1201.64V244.747H1205.22V161.874Z" fill="#F5B400"/>
<path d="M1203.16 147.326L1087.22 245.481L1088.53 247.034L1204.48 148.879L1203.16 147.326Z" fill="#E49306"/>
<path d="M1205.33 167.204L1200.39 170.783L1253.79 244.529L1258.73 240.95L1205.33 167.204Z" fill="#F5B400"/>
<path d="M1082.23 255.08L1075.03 247.879L1086.3 240.556L1089.43 247.879L1082.23 255.08Z" fill="#F5B400"/>
<path d="M1199.96 170.202L1144.03 241.378L1148.83 245.148L1204.76 173.972L1199.96 170.202Z" fill="#F5B400"/>
<path d="M1273 181.687H1265.88V200.482H1273V181.687Z" fill="#E49306"/>
<path d="M1253.19 254.917V247.797H1154.53L1154.36 247.635H1147.2L1147.37 247.797H1056.89V254.917H1155.02L1209.82 306.016L1213.15 302.476L1162.18 254.917H1253.19Z" fill="#E49306"/>
<path d="M1069.09 247.798H1056.89V254.917H1069.09V247.798Z" fill="#F5B400"/>
<path d="M1086.33 240.563L1079.14 247.755L1086.33 254.946L1093.53 247.755L1086.33 240.563Z" fill="#E49306"/>
<g style="mix-blend-mode:multiply">
<path d="M1194.68 247.798L1205.38 254.917H1253.19V247.798H1194.68Z" fill="#E6E6E6"/>
</g>
<path d="M1321.37 329.898H1324.95V313.624V239.173H1257.25V244.258L1256.6 244.95L1257.25 245.519V415.578H1262.83V313.421H1321.33L1321.37 329.898ZM1321.37 247.309V297.961L1266.29 247.309H1321.37ZM1262.87 302.233V250.768L1318.77 302.233H1262.87Z" fill="#E49306"/>
<path d="M1209.45 298.653L1205.38 295.113V254.917H1209.45V298.653Z" fill="#F5B400"/>
<g style="mix-blend-mode:multiply">
<path d="M1381.3 247.309H1324.87V254.429H1381.3V247.309Z" fill="#F2F2F2"/>
</g>
<path d="M1381.1 247.554H1324.63V239.905H1381.1V247.554ZM1325.16 247.025H1380.53V240.434H1325.16V247.025Z" fill="#D75724"/>
<path d="M1370.52 240.19H1369.99V246.984H1370.52V240.19Z" fill="#D75724"/>
<path d="M1358.43 240.515H1357.91V247.309H1358.43V240.515Z" fill="#D75724"/>
<path d="M1345.42 240.515H1344.89V247.309H1345.42V240.515Z" fill="#D75724"/>
<path d="M1334.51 240.515H1333.98V247.309H1334.51V240.515Z" fill="#D75724"/>
<path d="M1215.02 300.199H1152.98V254.917H1149.44V416.636H1152.98V313.38H1215.02V300.199Z" fill="#E49306"/>
<path d="M1196.07 248.652H1098.75V240.841H1196.07V248.652ZM1099.44 247.961H1195.37V241.533H1099.44V247.961Z" fill="#D75724"/>
<path d="M1177.8 241.207H1177.11V248.001H1177.8V241.207Z" fill="#D75724"/>
<path d="M1156.89 241.532H1156.2V248.326H1156.89V241.532Z" fill="#D75724"/>
<path d="M1134.43 241.532H1133.74V248.326H1134.43V241.532Z" fill="#D75724"/>
<path d="M1115.63 241.532H1114.94V248.326H1115.63V241.532Z" fill="#D75724"/>
<path d="M1209.45 355.081H1205.38V379.491H1209.45V355.081Z" fill="#E49306"/>
<path d="M1146.88 257.969H1112.3V275.259H1146.88V257.969Z" fill="#D75724"/>
<g style="mix-blend-mode:multiply">
<path d="M1146.88 257.969H1112.3V275.259H1146.88V257.969Z" fill="#7BBCCC"/>
</g>
<path d="M1136.22 275.259H1112.3V257.969H1134.67L1136.22 267.122V275.259Z" fill="#D75724"/>
<path d="M1132.8 268.872L1112.46 270.906L1109.25 257.969H1131.62L1132.8 268.872Z" fill="#D75724"/>
<path d="M1134.67 267.123H1112.83L1110.79 258.498H1133.17L1134.67 267.123Z" fill="#7BBCCC"/>
<g style="mix-blend-mode:screen">
<path d="M1110.79 258.498L1112.83 267.123H1114.86V258.498H1110.79Z" fill="#7BBCCC"/>
</g>
<path d="M1135.2 258.498L1136.71 267.123H1138.25V258.498H1135.2Z" fill="#7BBCCC"/>
<path d="M1130.28 325.097H1068.6V348.449H1130.28V325.097Z" fill="#E6E6E6"/>
<g style="mix-blend-mode:multiply">
<path d="M1130.28 325.097H1086.22V348.449H1130.28V325.097Z" fill="#CCCCCC"/>
</g>
<path d="M1099.12 322.575H1079.26V325.097H1099.12V322.575Z" fill="#223946"/>
<path d="M1101.64 325.097H1091.47V327.619H1101.64V325.097Z" fill="#223946"/>
<g style="mix-blend-mode:multiply">
<path d="M1101.64 325.097H1091.47V327.619H1101.64V325.097Z" fill="#CCCCCC"/>
</g>
<g style="mix-blend-mode:multiply">
<path d="M1099.08 322.575H1095.01V325.097H1099.08V322.575Z" fill="#CCCCCC"/>
</g>
<path d="M1125.56 322.575H1105.71V325.097H1125.56V322.575Z" fill="#223946"/>
<path d="M1128.08 325.097H1117.91V327.619H1128.08V325.097Z" fill="#223946"/>
<g style="mix-blend-mode:multiply">
<path d="M1128.08 325.097H1117.91V327.619H1128.08V325.097Z" fill="#CCCCCC"/>
</g>
<g style="mix-blend-mode:multiply">
<path d="M1125.52 322.575H1121.45V325.097H1125.52V322.575Z" fill="#CCCCCC"/>
</g>
<path d="M1114.33 323.592H1099.08V325.097H1114.33V323.592Z" fill="#223946"/>
<g style="mix-blend-mode:multiply">
<path d="M1114.33 323.592H1099.08V325.097H1114.33V323.592Z" fill="#CCCCCC"/>
</g>
<path d="M1085.24 255.934H1084.43V323.063H1085.24V255.934Z" fill="#223946"/>
<path d="M1092.89 257.969H1092.08V322.534H1092.89V257.969Z" fill="#223946"/>
<path d="M1119.34 255.934H1118.52V322.534H1119.34V255.934Z" fill="#223946"/>
<path d="M1114.25 256.952H1113.44V322.534H1114.25V256.952Z" fill="#223946"/>
<path d="M1149.44 254.917H1074.67V257.969H1149.44V254.917Z" fill="#223946"/>
<path d="M1497.78 453.739H418.191V474.813H1497.78V453.739Z" fill="#F2F2F2"/>
<path d="M720.919 400.24H659.243V423.593H720.919V400.24Z" fill="#E2421E"/>
<g style="mix-blend-mode:multiply">
<path d="M720.92 400.24H676.859V423.593H720.92V400.24Z" fill="#CCCCCC"/>
</g>
<path d="M740.041 399.63H678.364V422.982H740.041V399.63Z" fill="#4AA29A"/>
<g style="mix-blend-mode:multiply">
<path d="M740.041 399.63H695.98V422.982H740.041V399.63Z" fill="#CCCCCC"/>
</g>
<path d="M759.447 399.63H697.771V422.982H759.447V399.63Z" fill="#E6E6E6"/>
<g style="mix-blend-mode:multiply">
<path d="M759.447 399.63H715.386V422.982H759.447V399.63Z" fill="#CCCCCC"/>
</g>
<path d="M778.528 399.63H716.851V422.982H778.528V399.63Z" fill="#E2421E"/>
<g style="mix-blend-mode:multiply">
<path d="M778.568 399.63H734.508V422.982H778.568V399.63Z" fill="#CCCCCC"/>
</g>
<path d="M800.863 399.711H739.187V423.064H800.863V399.711Z" fill="#7BBCCC"/>
<g style="mix-blend-mode:multiply">
<path d="M800.863 399.711H756.803V423.064H800.863V399.711Z" fill="#CCCCCC"/>
</g>
<path d="M720.878 375.138H659.202V398.491H720.878V375.138Z" fill="#E2421E"/>
<g style="mix-blend-mode:multiply">
<path d="M720.879 375.138H676.818V398.491H720.879V375.138Z" fill="#CCCCCC"/>
</g>
<path d="M740 375.138H678.324V398.491H740V375.138Z" fill="#E6E6E6"/>
<g style="mix-blend-mode:multiply">
<path d="M740 375.138H695.939V398.491H740V375.138Z" fill="#CCCCCC"/>
</g>
<path d="M721.001 350.321H659.324V373.673H721.001V350.321Z" fill="#E2421E"/>
<g style="mix-blend-mode:multiply">
<path d="M721.001 350.321H676.94V373.673H721.001V350.321Z" fill="#CCCCCC"/>
</g>
<path d="M740.122 350.321H678.446V373.673H740.122V350.321Z" fill="#7BBCCC"/>
<g style="mix-blend-mode:multiply">
<path d="M740.122 350.321H696.062V373.673H740.122V350.321Z" fill="#CCCCCC"/>
</g>
<path d="M759.366 375.138H697.689V398.491H759.366V375.138Z" fill="#7BBCCC"/>
<g style="mix-blend-mode:multiply">
<path d="M759.365 375.138H715.305V398.491H759.365V375.138Z" fill="#CCCCCC"/>
</g>
<path d="M778.487 375.138H716.81V398.491H778.487V375.138Z" fill="#E2421E"/>
<g style="mix-blend-mode:multiply">
<path d="M778.487 375.138H734.427V398.491H778.487V375.138Z" fill="#CCCCCC"/>
</g>
<path d="M671.245 374.446H556.394L529.828 385.797V429.207H697.811V385.797L671.245 374.446ZM560.015 388.808H555.947V383.356H560.015V388.808ZM593.864 388.808H589.795V383.356H593.864V388.808ZM627.753 388.808H623.685V383.356H627.753V388.808ZM661.643 388.808H657.575V383.356H661.643V388.808Z" fill="#D75724"/>
<g style="mix-blend-mode:multiply">
<path d="M693.987 423.186H697.811V385.797L671.245 374.446L693.987 385.797V423.186Z" fill="#CCCCCC"/>
</g>
<path d="M568.477 400.403H560.259L562.619 331.647H566.199L568.477 400.403Z" fill="#E6E6E6"/>
<path d="M568.884 329.735H559.893V331.647H568.884V329.735Z" fill="#E6E6E6"/>
<path d="M561.276 331.403L562.822 334.211H566.117L567.379 331.403H561.276Z" fill="#E6E6E6"/>
<g style="mix-blend-mode:multiply">
<path d="M565.426 400.403H568.477L566.28 333.885L567.257 331.647H561.398L561.968 332.664H566.443L565.507 333.925L565.426 400.403Z" fill="#CCCCCC"/>
</g>
<path d="M564.734 307.278H563.798V329.694H564.734V307.278Z" fill="#E6E6E6"/>
<path d="M572.261 330.549H556.719V323.632H572.261V330.549ZM557.533 329.694H571.447V324.405H557.533V329.694Z" fill="#E6E6DC"/>
<path d="M568.884 324.039H568.07V329.735H568.884V324.039Z" fill="#E6E6DC"/>
<path d="M560.666 324.039H559.852V330.671H560.666V324.039Z" fill="#E6E6DC"/>
<path d="M566.036 316.106H562.212V322.209H566.036V316.106Z" fill="#E6E6E6"/>
<path d="M565.06 316.716H562.497V321.639H565.06V316.716Z" fill="#7BBCCC"/>
<path d="M1050.46 434.984H979.384V289.051L1022.35 289.01L1050.46 434.984Z" fill="#333333"/>
<path d="M990.45 289.051H967.585V309.596H990.45V289.051Z" fill="#808080"/>
<path d="M916.121 255.65H914.9V310.899H916.121V255.65Z" fill="#E6E6DC"/>
<path d="M981.052 303.413H980.442V312.933H981.052V303.413Z" fill="white"/>
<path d="M970.026 304.023H969.416V313.543H970.026V304.023Z" fill="white"/>
<path d="M959.571 303.413H958.96V312.933H959.571V303.413Z" fill="white"/>
<path d="M949.318 304.023H948.708V313.543H949.318V304.023Z" fill="white"/>
<path d="M939.066 303.413H938.456V312.933H939.066V303.413Z" fill="white"/>
<path d="M928.814 303.413H928.204V312.933H928.814V303.413Z" fill="white"/>
<path d="M919.416 303.413H918.806V312.933H919.416V303.413Z" fill="white"/>
<path d="M908.35 303.413H907.74V312.933H908.35V303.413Z" fill="white"/>
<path d="M993.867 311.264H993.257V303.697H895.575V311.264H894.965V303.087H993.867V311.264Z" fill="white"/>
<path d="M1009.04 309.922H993.664V303.087H1007.46L1009.04 309.922ZM994.274 309.352H1008.23L1006.85 303.779H994.03L994.274 309.352Z" fill="#808080"/>
<path d="M1027.35 434.984H993.948L994.315 326.603L989.351 309.597H1012.22L1027.35 434.984Z" fill="#B2B2B2"/>
<path d="M895.29 397.311H882.394V390.72H895.29V397.311ZM883.085 396.782H894.965V391.29H883.085V396.782Z" fill="#E6E6DC"/>
<path d="M887.764 391.045H887.235V396.944H887.764V391.045Z" fill="#E6E6DC"/>
<path d="M891.507 391.045H890.978V396.944H891.507V391.045Z" fill="#E6E6DC"/>
<path d="M895.046 434.984H994.315V326.602L990.45 310.898L895.697 310.288L895.046 312.933L898.789 326.602H895.046V434.984Z" fill="#F2F2F2"/>
<path d="M1012.79 397.392H994.234V390.72H1012.79V397.392ZM994.844 396.782H1012.18V391.412H994.844V396.782Z" fill="#E6E6DC"/>
<path d="M1001.84 391.086H1001.23V396.985H1001.84V391.086Z" fill="#E6E6DC"/>
<path d="M1007.25 391.086H1006.64V396.985H1007.25V391.086Z" fill="#E6E6DC"/>
<path d="M1006.97 396.782H882.353V434.984H1006.97V396.782Z" fill="#F2F2F2"/>
<g style="mix-blend-mode:multiply">
<path d="M1007.01 434.984H882.678L922.915 412.649L1007.01 402.152V434.984Z" fill="#CCCCCC"/>
</g>
<path d="M1008.64 321.558H880.726V331.607H1008.64V321.558Z" fill="#F2F2F2"/>
<path d="M984.998 334.576H983.127V337.953H984.998V334.576Z" fill="#333333"/>
<path d="M968.887 334.576H967.016V337.953H968.887V334.576Z" fill="#333333"/>
<path d="M952.736 334.576H950.864V337.953H952.736V334.576Z" fill="#333333"/>
<path d="M936.625 334.576H934.754V337.953H936.625V334.576Z" fill="#333333"/>
<path d="M920.473 334.576H918.602V337.953H920.473V334.576Z" fill="#333333"/>
<path d="M904.363 334.576H902.491V337.953H904.363V334.576Z" fill="#333333"/>
<path d="M984.836 355.122H982.964V358.498H984.836V355.122Z" fill="#333333"/>
<path d="M968.684 355.122H966.813V358.498H968.684V355.122Z" fill="#333333"/>
<path d="M952.573 355.122H950.702V358.498H952.573V355.122Z" fill="#333333"/>
<path d="M936.422 355.122H934.55V358.498H936.422V355.122Z" fill="#333333"/>
<path d="M920.311 355.122H918.44V358.498H920.311V355.122Z" fill="#333333"/>
<path d="M904.159 355.122H902.288V358.498H904.159V355.122Z" fill="#333333"/>
<path d="M984.225 376.359H982.354V379.735H984.225V376.359Z" fill="#333333"/>
<path d="M968.114 376.359H966.243V379.735H968.114V376.359Z" fill="#333333"/>
<path d="M951.963 376.359H950.091V379.735H951.963V376.359Z" fill="#333333"/>
<path d="M935.852 376.359H933.981V379.735H935.852V376.359Z" fill="#333333"/>
<path d="M919.701 376.359H917.829V379.735H919.701V376.359Z" fill="#333333"/>
<path d="M903.59 376.359H901.719V379.735H903.59V376.359Z" fill="#333333"/>
<path d="M983.859 396.864H981.988V400.24H983.859V396.864Z" fill="#333333"/>
<path d="M967.749 396.864H965.877V400.24H967.749V396.864Z" fill="#333333"/>
<path d="M951.597 396.864H949.725V400.24H951.597V396.864Z" fill="#333333"/>
<path d="M935.486 396.864H933.615V400.24H935.486V396.864Z" fill="#333333"/>
<path d="M919.335 396.864H917.463V400.24H919.335V396.864Z" fill="#333333"/>
<path d="M903.223 396.864H901.352V400.24H903.223V396.864Z" fill="#333333"/>
<path d="M983.859 416.229H981.988V419.606H983.859V416.229Z" fill="#333333"/>
<path d="M967.749 416.229H965.877V419.606H967.749V416.229Z" fill="#333333"/>
<path d="M951.597 416.229H949.725V419.606H951.597V416.229Z" fill="#333333"/>
<path d="M935.486 416.229H933.615V419.606H935.486V416.229Z" fill="#333333"/>
<path d="M919.335 416.229H917.463V419.606H919.335V416.229Z" fill="#333333"/>
<path d="M903.223 416.229H901.352V419.606H903.223V416.229Z" fill="#333333"/>
<path d="M981.988 326.602H991.223L987.521 312.933H978.285L981.988 326.602Z" fill="#7BBCCC"/>
<path d="M971.735 326.602H980.97L977.268 312.933H968.033L971.735 326.602Z" fill="#7BBCCC"/>
<path d="M961.483 326.602H970.759L967.016 312.933H957.781L961.483 326.602Z" fill="#7BBCCC"/>
<path d="M951.271 326.602H960.507L956.764 312.933H947.529L951.271 326.602Z" fill="#7BBCCC"/>
<path d="M941.019 326.602H950.254L946.552 312.933H937.276L941.019 326.602Z" fill="#7BBCCC"/>
<path d="M930.767 326.602H940.002L936.3 312.933H927.024L930.767 326.602Z" fill="#7BBCCC"/>
<path d="M920.514 326.602H929.75L926.047 312.933H916.812L920.514 326.602Z" fill="#7BBCCC"/>
<path d="M910.262 326.602H919.538L915.795 312.933H906.56L910.262 326.602Z" fill="#7BBCCC"/>
<path d="M900.05 326.602H909.286L905.543 312.933H896.307L900.05 326.602Z" fill="#7BBCCC"/>
<g style="mix-blend-mode:multiply">
<path d="M991.955 317.001L990.938 312.933H895.046L896.145 317.001H991.955Z" fill="#CCCCCC"/>
</g>
<path d="M993.989 309.597H891.263V312.933H993.989V309.597Z" fill="#D75724"/>
<path d="M1014.49 396.782H1006.97V434.984H1014.49V396.782Z" fill="#999999"/>
<path d="M1024.05 321.558H1008.64V331.607H1024.05V321.558Z" fill="#B2B2B2"/>
<path d="M1059.61 410.004H1014.49V434.984H1059.61V410.004Z" fill="#B2B2B2"/>
<path d="M1019.74 394.463V398.003C1019.74 402.6 1026.37 406.139 1030.61 406.139H1051.92C1054 406.025 1055.96 405.117 1057.39 403.604C1058.82 402.09 1059.62 400.085 1059.61 398.003V394.463H1019.74Z" fill="#E2421E"/>
<path d="M1050.99 401.827V398.572C1050.99 394.504 1048.71 390.883 1045.9 390.883H1029.63C1026.86 390.883 1024.58 394.341 1024.58 398.572V401.827H1050.99Z" fill="#F15723"/>
<path d="M1022.26 394.463V398.003C1022.26 399.089 1022.48 400.163 1022.9 401.164C1023.32 402.165 1023.94 403.071 1024.72 403.829C1025.5 404.588 1026.42 405.183 1027.43 405.579C1028.44 405.976 1029.52 406.167 1030.61 406.139H1057.21C1058.3 406.167 1059.38 405.976 1060.39 405.579C1061.4 405.183 1062.32 404.588 1063.1 403.829C1063.88 403.071 1064.49 402.165 1064.91 401.164C1065.34 400.163 1065.55 399.089 1065.55 398.003V394.463H1022.26Z" fill="#F15723"/>
<path d="M1000.09 423.877H994.071V434.984H1000.09V423.877Z" fill="#E6E6E6"/>
<path d="M979.18 423.796H973.159V434.903H979.18V423.796Z" fill="#E6E6E6"/>
<path d="M958.269 423.715H952.248V434.821H958.269V423.715Z" fill="#E6E6E6"/>
<path d="M937.357 423.633H931.336V434.74H937.357V423.633Z" fill="#E6E6E6"/>
<path d="M916.446 423.552H910.425V434.658H916.446V423.552Z" fill="#E6E6E6"/>
<path d="M895.494 423.511H889.473V434.618H895.494V423.511Z" fill="#E6E6E6"/>
<path d="M874.582 423.43H868.561V434.537H874.582V423.43Z" fill="#E6E6E6"/>
<path d="M853.671 423.348H847.65V434.455H853.671V423.348Z" fill="#E6E6E6"/>
<path d="M832.759 423.267H826.738V434.374H832.759V423.267Z" fill="#E6E6E6"/>
<path d="M811.848 423.186H805.826V434.292H811.848V423.186Z" fill="#E6E6E6"/>
<path d="M790.936 423.145H784.915V434.252H790.936V423.145Z" fill="#E6E6E6"/>
<path d="M770.025 423.063H764.004V434.17H770.025V423.063Z" fill="#E6E6E6"/>
<path d="M749.073 422.983H743.052V434.089H749.073V422.983Z" fill="#E6E6E6"/>
<path d="M728.161 422.901H722.14V434.008H728.161V422.901Z" fill="#E6E6E6"/>
<path d="M1019.74 428.027H713.677V428.841H1019.74V428.027Z" fill="#F2F2F2"/>
<path d="M1019.74 431.119H713.677V431.933H1019.74V431.119Z" fill="#F2F2F2"/>
<path d="M1097.81 410.004H1054.49V420.216H1097.81V410.004Z" fill="#B2B2B2"/>
<path d="M1080.32 419.443H1076.17V434.008H1080.32V419.443Z" fill="#B2B2B2"/>
<path d="M1055.99 423.877H1018.77V447.555H1055.99V423.877Z" fill="#223946"/>
<g style="mix-blend-mode:multiply">
<path d="M1055.99 423.877H1018.77V447.555H1055.99V423.877Z" fill="#CCCCCC"/>
</g>
<path d="M1107.94 434.008H722.221L666.484 397.758H511.194C511.194 397.758 547.322 453.983 528.2 464.236H508.468C504.919 464.236 501.514 465.646 499.004 468.156C496.494 470.666 495.083 474.071 495.083 477.621C495.083 481.171 496.494 484.575 499.004 487.085C501.514 489.595 504.919 491.006 508.468 491.006H1108.35C1122.31 490.436 1134.59 480.713 1142 466.189V434.008H1107.94Z" fill="#223946"/>
<path d="M581.618 459.516C581.618 459.516 550.821 464.968 541.87 464.968C518.599 437.751 476.45 428.027 471.487 397.718H581.618V459.516Z" fill="#223946"/>
<path d="M1142 466.189V457.076H533.326C533.063 458.577 532.466 460 531.578 461.239C530.691 462.479 529.537 463.503 528.2 464.236H508.468C504.919 464.236 501.514 465.646 499.004 468.156C496.494 470.667 495.083 474.071 495.083 477.621C495.083 481.171 496.494 484.575 499.004 487.086C501.514 489.596 504.919 491.006 508.468 491.006H1108.35C1122.31 490.436 1134.59 480.713 1142 466.189Z" fill="#D75724"/>
<path d="M632.88 397.718L623.767 390.883H470.348L471.487 397.718H595.451L596.671 394.3H610.463L609.283 397.718H632.88Z" fill="#E6E6DC"/>
<g style="mix-blend-mode:multiply">
<path d="M1107.94 434.008H722.221L666.484 397.758H632.88L623.807 390.72H505.214C505.214 390.72 556.923 456.465 538.371 468.019C532.228 471.844 509.526 468.019 509.526 468.019C514.205 471.803 511.601 487.914 495.124 477.621C495.124 479.382 495.472 481.126 496.147 482.752C496.822 484.379 497.812 485.856 499.059 487.1C500.306 488.343 501.786 489.328 503.415 489.999C505.044 490.669 506.789 491.011 508.55 491.006H1108.35C1122.31 490.436 1134.59 480.713 1142 466.189V434.008H1107.94ZM595.328 440.558H581.618L590.731 415.537H604.36L595.328 440.558Z" fill="#CCCCCC"/>
</g>
<path d="M949.196 277.212H942.972V309.596H949.196V277.212Z" fill="#E6E6DC"/>
<path d="M966.569 271.801H925.6V273.958H966.569V271.801Z" fill="#E6E6DC"/>
<path d="M965.185 272.859L948.586 278.311H942.972L926.617 272.859H965.185Z" fill="#E6E6DC"/>
<path d="M962.948 260.369H951.312V263.135H962.948V260.369Z" fill="#E6E6DC"/>
<path d="M957.13 261.427L959.205 272.33H955.218L957.13 261.427Z" fill="#E6E6DC"/>
<path d="M937.48 270.703H931.662V272.249H937.48V270.703Z" fill="#E6E6DC"/>
<path d="M932.679 272.737C932.679 273.28 932.892 273.802 933.272 274.19C933.653 274.578 934.17 274.801 934.713 274.812C934.984 274.812 935.252 274.758 935.501 274.653C935.751 274.549 935.977 274.395 936.166 274.202C936.356 274.009 936.505 273.78 936.604 273.528C936.704 273.277 936.753 273.008 936.747 272.737V269.36C936.747 268.821 936.533 268.303 936.152 267.922C935.77 267.54 935.253 267.326 934.713 267.326C934.177 267.337 933.666 267.554 933.286 267.933C932.907 268.313 932.689 268.824 932.679 269.36V272.737Z" fill="#E6E6DC"/>
<path d="M950.051 272.737L947.488 246.658L950.051 272.737Z" fill="#E6E6DC"/>
<path d="M947.778 246.74L947.171 246.799L949.745 272.914L950.352 272.854L947.778 246.74Z" fill="#E6E6DC"/>
<path d="M947.488 246.781L943.419 272.859L947.488 246.781Z" fill="#E6E6DC"/>
<path d="M947.202 246.69L943.102 272.814L943.705 272.909L947.805 246.784L947.202 246.69Z" fill="#E6E6DC"/>
<path d="M948.22 254.348H943.012V255.69H948.22V254.348Z" fill="#E6E6DC"/>
<path d="M948.22 250.402H943.012V251.744H948.22V250.402Z" fill="#E6E6DC"/>
<path d="M948.708 258.498H943.012V259.84H948.708V258.498Z" fill="#E6E6DC"/>
<path d="M949.033 261.915H943.012V263.258H949.033V261.915Z" fill="#E6E6DC"/>
<path d="M949.481 265.658H943.012V267.001H949.481V265.658Z" fill="#E6E6DC"/>
<path d="M946.023 247.92H942.117V249.995H946.023V247.92Z" fill="#E6E6DC"/>
<g style="mix-blend-mode:multiply">
<path d="M949.196 309.596H946.227V277.212L949.196 278.311V309.596Z" fill="#E6E6DC"/>
</g>
<g style="mix-blend-mode:multiply">
<path d="M946.227 277.212L959.937 273.958H961.849L949.196 278.148L946.227 277.212Z" fill="#E6E6DC"/>
</g>
<path d="M946.105 400.24H884.428V423.593H946.105V400.24Z" fill="#E2421E"/>
<g style="mix-blend-mode:multiply">
<path d="M946.104 400.24H902.044V423.593H946.104V400.24Z" fill="#CCCCCC"/>
</g>
<path d="M946.105 375.138H884.428V398.491H946.105V375.138Z" fill="#E2421E"/>
<g style="mix-blend-mode:multiply">
<path d="M946.104 375.138H902.044V398.491H946.104V375.138Z" fill="#CCCCCC"/>
</g>
<path d="M882.678 400.118H821.002V423.471H882.678V400.118Z" fill="#E2421E"/>
<g style="mix-blend-mode:multiply">
<path d="M882.679 400.118H838.618V423.471H882.679V400.118Z" fill="#CCCCCC"/>
</g>
<path d="M901.8 400.24H840.123V423.593H901.8V400.24Z" fill="#E2421E"/>
<g style="mix-blend-mode:multiply">
<path d="M901.8 400.24H857.739V423.593H901.8V400.24Z" fill="#CCCCCC"/>
</g>
<path d="M882.678 375.545H821.002V398.898H882.678V375.545Z" fill="#E2421E"/>
<g style="mix-blend-mode:multiply">
<path d="M882.679 375.545H838.618V398.898H882.679V375.545Z" fill="#CCCCCC"/>
</g>
<path d="M965.226 400.24H903.549V423.593H965.226V400.24Z" fill="#7BBCCC"/>
<g style="mix-blend-mode:multiply">
<path d="M965.226 400.24H921.165V423.593H965.226V400.24Z" fill="#CCCCCC"/>
</g>
<path d="M984.591 400.24H922.915V423.593H984.591V400.24Z" fill="#7BBCCC"/>
<g style="mix-blend-mode:multiply">
<path d="M984.591 400.24H940.531V423.593H984.591V400.24Z" fill="#CCCCCC"/>
</g>
<path d="M1003.71 400.24H942.036V423.593H1003.71V400.24Z" fill="#E2421E"/>
<g style="mix-blend-mode:multiply">
<path d="M1003.71 400.24H959.652V423.593H1003.71V400.24Z" fill="#CCCCCC"/>
</g>
<path d="M1499.29 475.139C1495.1 475.141 1490.96 474.159 1487.22 472.272C1483.47 470.386 1480.22 467.647 1477.73 464.276C1475.22 467.643 1471.97 470.377 1468.22 472.261C1464.47 474.145 1460.34 475.126 1456.14 475.126C1451.95 475.126 1447.81 474.145 1444.07 472.261C1440.32 470.377 1437.06 467.643 1434.56 464.276C1432.05 467.643 1428.8 470.377 1425.05 472.261C1421.29 474.145 1417.16 475.126 1412.96 475.126C1408.76 475.126 1404.62 474.145 1400.87 472.261C1397.12 470.377 1393.86 467.643 1391.35 464.276C1388.85 467.643 1385.6 470.377 1381.85 472.261C1378.1 474.145 1373.97 475.126 1369.77 475.126C1365.58 475.126 1361.44 474.145 1357.69 472.261C1353.95 470.377 1350.69 467.643 1348.19 464.276C1345.69 467.643 1342.43 470.377 1338.68 472.261C1334.94 474.145 1330.8 475.126 1326.61 475.126C1322.41 475.126 1318.28 474.145 1314.53 472.261C1310.78 470.377 1307.53 467.643 1305.02 464.276C1302.52 467.643 1299.27 470.377 1295.52 472.261C1291.77 474.145 1287.64 475.126 1283.44 475.126C1279.25 475.126 1275.11 474.145 1271.36 472.261C1267.62 470.377 1264.36 467.643 1261.86 464.276C1259.36 467.643 1256.1 470.377 1252.35 472.261C1248.61 474.145 1244.47 475.126 1240.28 475.126C1236.08 475.126 1231.94 474.145 1228.2 472.261C1224.45 470.377 1221.19 467.643 1218.69 464.276C1216.19 467.643 1212.94 470.377 1209.19 472.261C1205.44 474.145 1201.3 475.126 1197.11 475.126C1192.92 475.126 1188.78 474.145 1185.03 472.261C1181.28 470.377 1178.03 467.643 1175.53 464.276C1173.02 467.643 1169.77 470.377 1166.02 472.261C1162.27 474.145 1158.14 475.126 1153.94 475.126C1149.75 475.126 1145.61 474.145 1141.87 472.261C1138.12 470.377 1134.86 467.643 1132.36 464.276C1129.86 467.643 1126.6 470.377 1122.86 472.261C1119.11 474.145 1114.97 475.126 1110.78 475.126C1106.58 475.126 1102.45 474.145 1098.7 472.261C1094.95 470.377 1091.7 467.643 1089.2 464.276C1086.69 467.643 1083.43 470.377 1079.68 472.261C1075.93 474.145 1071.79 475.126 1067.59 475.126C1063.4 475.126 1059.26 474.145 1055.51 472.261C1051.75 470.377 1048.5 467.643 1045.99 464.276C1043.49 467.643 1040.23 470.377 1036.49 472.261C1032.74 474.145 1028.6 475.126 1024.41 475.126C1020.21 475.126 1016.08 474.145 1012.33 472.261C1008.58 470.377 1005.33 467.643 1002.82 464.276C1000.32 467.643 997.067 470.377 993.32 472.261C989.572 474.145 985.436 475.126 981.241 475.126C977.047 475.126 972.911 474.145 969.163 472.261C965.416 470.377 962.161 467.643 959.659 464.276C957.156 467.643 953.901 470.377 950.154 472.261C946.406 474.145 942.27 475.126 938.076 475.126C933.881 475.126 929.745 474.145 925.998 472.261C922.25 470.377 918.995 467.643 916.493 464.276C913.991 467.643 910.736 470.377 906.988 472.261C903.241 474.145 899.105 475.126 894.91 475.126C890.716 475.126 886.58 474.145 882.832 472.261C879.085 470.377 875.83 467.643 873.328 464.276C870.825 467.643 867.57 470.377 863.823 472.261C860.075 474.145 855.939 475.126 851.745 475.126C847.55 475.126 843.414 474.145 839.667 472.261C835.919 470.377 832.664 467.643 830.162 464.276C827.66 467.643 824.405 470.377 820.657 472.261C816.91 474.145 812.774 475.126 808.579 475.126C804.385 475.126 800.249 474.145 796.501 472.261C792.754 470.377 789.499 467.643 786.996 464.276C784.494 467.643 781.239 470.377 777.492 472.261C773.744 474.145 769.608 475.126 765.414 475.126C761.219 475.126 757.083 474.145 753.336 472.261C749.588 470.377 746.333 467.643 743.831 464.276C741.324 467.643 738.066 470.377 734.315 472.261C730.564 474.145 726.425 475.126 722.228 475.126C718.031 475.126 713.891 474.145 710.141 472.261C706.39 470.377 703.131 467.643 700.625 464.276C698.123 467.643 694.868 470.377 691.12 472.261C687.373 474.145 683.236 475.126 679.042 475.126C674.848 475.126 670.711 474.145 666.964 472.261C663.216 470.377 659.961 467.643 657.459 464.276C654.957 467.643 651.702 470.377 647.955 472.261C644.207 474.145 640.071 475.126 635.876 475.126C631.682 475.126 627.546 474.145 623.798 472.261C620.051 470.377 616.796 467.643 614.294 464.276C611.791 467.643 608.536 470.377 604.789 472.261C601.041 474.145 596.905 475.126 592.711 475.126C588.516 475.126 584.38 474.145 580.633 472.261C576.885 470.377 573.63 467.643 571.128 464.276C568.626 467.643 565.371 470.377 561.623 472.261C557.876 474.145 553.74 475.126 549.545 475.126C545.351 475.126 541.215 474.145 537.467 472.261C533.72 470.377 530.465 467.643 527.962 464.276C525.46 467.643 522.205 470.377 518.458 472.261C514.71 474.145 510.574 475.126 506.38 475.126C502.185 475.126 498.049 474.145 494.302 472.261C490.554 470.377 487.299 467.643 484.797 464.276C482.295 467.643 479.04 470.377 475.292 472.261C471.545 474.145 467.409 475.126 463.214 475.126C459.02 475.126 454.884 474.145 451.136 472.261C447.389 470.377 444.134 467.643 441.631 464.276C439.129 467.643 435.874 470.377 432.127 472.261C428.379 474.145 424.243 475.126 420.049 475.126C415.854 475.126 411.718 474.145 407.97 472.261C404.223 470.377 400.968 467.643 398.466 464.276C395.959 467.643 392.701 470.377 388.95 472.261C385.199 474.145 381.06 475.126 376.863 475.126C372.666 475.126 368.526 474.145 364.776 472.261C361.025 470.377 357.766 467.643 355.26 464.276C352.757 467.643 349.503 470.377 345.755 472.261C342.007 474.145 337.871 475.126 333.677 475.126C329.482 475.126 325.346 474.145 321.599 472.261C317.851 470.377 314.596 467.643 312.094 464.276C309.592 467.643 306.337 470.377 302.589 472.261C298.842 474.145 294.706 475.126 290.511 475.126C286.317 475.126 282.181 474.145 278.433 472.261C274.686 470.377 271.431 467.643 268.929 464.276L267.83 509.761L605.506 489.419L1499.29 475.139Z" fill="#4AA29A"/>
<path d="M722.289 475.139C718.096 475.141 713.961 474.159 710.216 472.272C706.471 470.386 703.221 467.647 700.726 464.276C698.224 467.643 694.969 470.377 691.222 472.261C687.474 474.145 683.338 475.126 679.144 475.126C674.949 475.126 670.813 474.145 667.066 472.261C663.318 470.377 660.063 467.643 657.561 464.276C655.055 467.643 651.796 470.377 648.045 472.261C644.294 474.145 640.155 475.126 635.958 475.126C631.761 475.126 627.622 474.145 623.871 472.261C620.12 470.377 616.861 467.643 614.355 464.276C611.853 467.643 608.598 470.377 604.85 472.261C601.103 474.145 596.966 475.126 592.772 475.126C588.578 475.126 584.441 474.145 580.694 472.261C576.946 470.377 573.691 467.643 571.189 464.276C568.687 467.643 565.432 470.377 561.685 472.261C557.937 474.145 553.801 475.126 549.606 475.126C545.412 475.126 541.276 474.145 537.528 472.261C533.781 470.377 530.526 467.643 528.024 464.276C525.521 467.643 522.267 470.377 518.519 472.261C514.771 474.145 510.635 475.126 506.441 475.126C502.246 475.126 498.11 474.145 494.363 472.261C490.615 470.377 487.36 467.643 484.858 464.276C482.356 467.643 479.101 470.377 475.353 472.261C471.606 474.145 467.47 475.126 463.275 475.126C459.081 475.126 454.945 474.145 451.197 472.261C447.45 470.377 444.195 467.643 441.693 464.276C439.19 467.643 435.935 470.377 432.188 472.261C428.44 474.145 424.304 475.126 420.11 475.126C415.915 475.126 411.779 474.145 408.032 472.261C404.284 470.377 401.029 467.643 398.527 464.276C396.025 467.643 392.77 470.377 389.022 472.261C385.275 474.145 381.139 475.126 376.944 475.126C372.75 475.126 368.614 474.145 364.866 472.261C361.118 470.377 357.864 467.643 355.361 464.276C352.859 467.643 349.604 470.377 345.857 472.261C342.109 474.145 337.973 475.126 333.779 475.126C329.584 475.126 325.448 474.145 321.701 472.261C317.953 470.377 314.698 467.643 312.196 464.276C309.689 467.643 306.431 470.377 302.68 472.261C298.929 474.145 294.79 475.126 290.593 475.126C286.396 475.126 282.256 474.145 278.506 472.261C274.755 470.377 271.496 467.643 268.99 464.276C266.487 467.643 263.233 470.377 259.485 472.261C255.738 474.145 251.601 475.126 247.407 475.126C243.212 475.126 239.076 474.145 235.329 472.261C231.581 470.377 228.326 467.643 225.824 464.276C223.322 467.643 220.067 470.377 216.319 472.261C212.572 474.145 208.436 475.126 204.241 475.126C200.047 475.126 195.911 474.145 192.163 472.261C188.416 470.377 185.161 467.643 182.659 464.276C180.156 467.643 176.902 470.377 173.154 472.261C169.406 474.145 165.27 475.126 161.076 475.126C156.881 475.126 152.745 474.145 148.998 472.261C145.25 470.377 141.995 467.643 139.493 464.276C136.991 467.643 133.736 470.377 129.988 472.261C126.241 474.145 122.105 475.126 117.91 475.126C113.716 475.126 109.58 474.145 105.832 472.261C102.085 470.377 98.8297 467.643 96.3275 464.276C93.8253 467.643 90.5704 470.377 86.8228 472.261C83.0753 474.145 78.9391 475.126 74.7447 475.126C70.5503 475.126 66.4142 474.145 62.6666 472.261C58.919 470.377 55.6642 467.643 53.162 464.276C50.6598 467.643 47.4049 470.377 43.6573 472.261C39.9098 474.145 35.7736 475.126 31.5792 475.126C27.3848 475.126 23.2486 474.145 19.5011 472.261C15.7535 470.377 12.4986 467.643 9.99643 464.276C7.49423 467.643 4.23935 470.377 0.491821 472.261C-3.25571 474.145 -7.39194 475.126 -11.5863 475.126C-15.7807 475.126 -19.917 474.145 -23.6645 472.261C-27.412 470.377 -30.667 467.643 -33.1691 464.276C-35.6756 467.643 -38.9342 470.377 -42.685 472.261C-46.4358 474.145 -50.575 475.126 -54.7722 475.126C-58.9695 475.126 -63.1086 474.145 -66.8594 472.261C-70.6102 470.377 -73.8689 467.643 -76.3753 464.276C-78.8775 467.643 -82.1324 470.377 -85.88 472.261C-89.6275 474.145 -93.7637 475.126 -97.9581 475.126C-102.152 475.126 -106.289 474.145 -110.036 472.261C-113.784 470.377 -117.039 467.643 -119.541 464.276C-122.043 467.643 -125.298 470.377 -129.046 472.261C-132.793 474.145 -136.929 475.126 -141.124 475.126C-145.318 475.126 -149.454 474.145 -153.202 472.261C-156.949 470.377 -160.204 467.643 -162.706 464.276C-165.209 467.643 -168.464 470.377 -172.211 472.261C-175.959 474.145 -180.095 475.126 -184.289 475.126C-188.484 475.126 -192.62 474.145 -196.367 472.261C-200.115 470.377 -203.37 467.643 -205.872 464.276C-208.374 467.643 -211.629 470.377 -215.377 472.261C-219.124 474.145 -223.26 475.126 -227.455 475.126C-231.649 475.126 -235.785 474.145 -239.533 472.261C-243.28 470.377 -246.535 467.643 -249.038 464.276C-251.54 467.643 -254.795 470.377 -258.542 472.261C-262.29 474.145 -266.426 475.126 -270.62 475.126C-274.815 475.126 -278.951 474.145 -282.698 472.261C-286.446 470.377 -289.701 467.643 -292.203 464.276C-294.705 467.643 -297.96 470.377 -301.708 472.261C-305.455 474.145 -309.591 475.126 -313.786 475.126C-317.98 475.126 -322.116 474.145 -325.864 472.261C-329.612 470.377 -332.866 467.643 -335.369 464.276C-337.871 467.643 -341.126 470.377 -344.873 472.261C-348.621 474.145 -352.757 475.126 -356.951 475.126C-361.146 475.126 -365.282 474.145 -369.03 472.261C-372.777 470.377 -376.032 467.643 -378.534 464.276C-381.041 467.643 -384.299 470.377 -388.05 472.261C-391.801 474.145 -395.94 475.126 -400.137 475.126C-404.335 475.126 -408.474 474.145 -412.224 472.261C-415.975 470.377 -419.234 467.643 -421.74 464.276C-424.243 467.643 -427.497 470.377 -431.245 472.261C-434.993 474.145 -439.129 475.126 -443.323 475.126C-447.518 475.126 -451.654 474.145 -455.401 472.261C-459.149 470.377 -462.404 467.643 -464.906 464.276C-467.408 467.643 -470.663 470.377 -474.411 472.261C-478.158 474.145 -482.294 475.126 -486.489 475.126C-490.683 475.126 -494.819 474.145 -498.567 472.261C-502.314 470.377 -505.569 467.643 -508.071 464.276L-509.17 509.761L-172.211 514.723H283.141L722.289 475.139Z" fill="#4AA29A"/>
<path d="M486.274 515.741L1499.3 501.421V475.139C1495.11 475.141 1490.97 474.159 1487.23 472.272C1483.48 470.386 1480.23 467.647 1477.74 464.276C1475.24 467.643 1471.98 470.377 1468.23 472.261C1464.49 474.145 1460.35 475.126 1456.16 475.126C1451.96 475.126 1447.83 474.145 1444.08 472.261C1440.33 470.377 1437.08 467.643 1434.57 464.276C1432.07 467.643 1428.81 470.377 1425.06 472.261C1421.31 474.145 1417.17 475.126 1412.97 475.126C1408.77 475.126 1404.63 474.145 1400.88 472.261C1397.13 470.377 1393.87 467.643 1391.37 464.276C1388.87 467.643 1385.61 470.377 1381.86 472.261C1378.12 474.145 1373.98 475.126 1369.78 475.126C1365.59 475.126 1361.45 474.145 1357.71 472.261C1353.96 470.377 1350.7 467.643 1348.2 464.276C1345.7 467.643 1342.44 470.377 1338.7 472.261C1334.95 474.145 1330.81 475.126 1326.62 475.126C1322.42 475.126 1318.29 474.145 1314.54 472.261C1310.79 470.377 1307.54 467.643 1305.04 464.276C1302.53 467.643 1299.28 470.377 1295.53 472.261C1291.78 474.145 1287.65 475.126 1283.45 475.126C1279.26 475.126 1275.12 474.145 1271.38 472.261C1267.63 470.377 1264.37 467.643 1261.87 464.276C1259.37 467.643 1256.11 470.377 1252.37 472.261C1248.62 474.145 1244.48 475.126 1240.29 475.126C1236.09 475.126 1231.96 474.145 1228.21 472.261C1224.46 470.377 1221.21 467.643 1218.71 464.276C1216.2 467.643 1212.95 470.377 1209.2 472.261C1205.45 474.145 1201.32 475.126 1197.12 475.126C1192.93 475.126 1188.79 474.145 1185.04 472.261C1181.3 470.377 1178.04 467.643 1175.54 464.276C1173.04 467.643 1169.78 470.377 1166.04 472.261C1162.29 474.145 1158.15 475.126 1153.96 475.126C1149.76 475.126 1145.63 474.145 1141.88 472.261C1138.13 470.377 1134.88 467.643 1132.37 464.276C1129.87 467.643 1126.62 470.377 1122.87 472.261C1119.12 474.145 1114.99 475.126 1110.79 475.126C1106.6 475.126 1102.46 474.145 1098.71 472.261C1094.97 470.377 1091.71 467.643 1089.21 464.276C1086.7 467.643 1083.44 470.377 1079.69 472.261C1075.94 474.145 1071.8 475.126 1067.61 475.126C1063.41 475.126 1059.27 474.145 1055.52 472.261C1051.77 470.377 1048.51 467.643 1046 464.276C1043.5 467.643 1040.25 470.377 1036.5 472.261C1032.75 474.145 1028.61 475.126 1024.42 475.126C1020.23 475.126 1016.09 474.145 1012.34 472.261C1008.59 470.377 1005.34 467.643 1002.84 464.276C1000.33 467.643 997.08 470.377 993.332 472.261C989.585 474.145 985.449 475.126 981.254 475.126C977.06 475.126 972.924 474.145 969.176 472.261C965.429 470.377 962.174 467.643 959.672 464.276C957.169 467.643 953.914 470.377 950.167 472.261C946.419 474.145 942.283 475.126 938.089 475.126C933.894 475.126 929.758 474.145 926.011 472.261C922.263 470.377 919.008 467.643 916.506 464.276C914.004 467.643 910.749 470.377 907.001 472.261C903.254 474.145 899.118 475.126 894.923 475.126C890.729 475.126 886.593 474.145 882.845 472.261C879.098 470.377 875.843 467.643 873.34 464.276C870.838 467.643 867.583 470.377 863.836 472.261C860.088 474.145 855.952 475.126 851.758 475.126C847.563 475.126 843.427 474.145 839.679 472.261C835.932 470.377 832.677 467.643 830.175 464.276C827.673 467.643 824.418 470.377 820.67 472.261C816.923 474.145 812.786 475.126 808.592 475.126C804.398 475.126 800.261 474.145 796.514 472.261C792.766 470.377 789.511 467.643 787.009 464.276C784.507 467.643 781.252 470.377 777.505 472.261C773.757 474.145 769.621 475.126 765.427 475.126C761.232 475.126 757.096 474.145 753.348 472.261C749.601 470.377 746.346 467.643 743.844 464.276C741.337 467.643 738.079 470.377 734.328 472.261C730.577 474.145 726.438 475.126 722.241 475.126C718.043 475.126 713.904 474.145 710.153 472.261C706.403 470.377 703.144 467.643 700.638 464.276C698.135 467.643 694.88 470.377 691.133 472.261C687.385 474.145 683.249 475.126 679.055 475.126C674.86 475.126 670.724 474.145 666.977 472.261C663.229 470.377 659.974 467.643 657.472 464.276C654.97 467.643 651.715 470.377 647.967 472.261C644.22 474.145 640.084 475.126 635.889 475.126C631.695 475.126 627.559 474.145 623.811 472.261C620.064 470.377 616.809 467.643 614.306 464.276C611.804 467.643 608.549 470.377 604.802 472.261C601.054 474.145 596.918 475.126 592.724 475.126C588.529 475.126 584.393 474.145 580.646 472.261C576.898 470.377 573.643 467.643 571.141 464.276C568.639 467.643 565.384 470.377 561.636 472.261C557.889 474.145 553.753 475.126 549.558 475.126C545.364 475.126 541.228 474.145 537.48 472.261C533.732 470.377 530.478 467.643 527.975 464.276C525.303 467.462 522.009 470.068 518.294 471.936C514.579 473.803 510.523 474.893 506.372 475.139C503.298 475.189 500.243 474.636 497.381 473.512L486.274 515.741Z" fill="#4AA29A"/>
<path d="M1434.92 515.741L2447.95 501.421V475.139C2443.75 475.141 2439.62 474.159 2435.87 472.272C2432.13 470.386 2428.88 467.647 2426.39 464.276C2423.88 467.643 2420.63 470.377 2416.88 472.261C2413.13 474.145 2409 475.126 2404.8 475.126C2400.61 475.126 2396.47 474.145 2392.72 472.261C2388.98 470.377 2385.72 467.643 2383.22 464.276C2380.71 467.643 2377.45 470.377 2373.7 472.261C2369.95 474.145 2365.81 475.126 2361.62 475.126C2357.42 475.126 2353.28 474.145 2349.53 472.261C2345.78 470.377 2342.52 467.643 2340.01 464.276C2337.51 467.643 2334.26 470.377 2330.51 472.261C2326.76 474.145 2322.63 475.126 2318.43 475.126C2314.24 475.126 2310.1 474.145 2306.35 472.261C2302.61 470.377 2299.35 467.643 2296.85 464.276C2294.35 467.643 2291.09 470.377 2287.34 472.261C2283.6 474.145 2279.46 475.126 2275.27 475.126C2271.07 475.126 2266.93 474.145 2263.19 472.261C2259.44 470.377 2256.18 467.643 2253.68 464.276C2251.18 467.643 2247.93 470.377 2244.18 472.261C2240.43 474.145 2236.29 475.126 2232.1 475.126C2227.91 475.126 2223.77 474.145 2220.02 472.261C2216.27 470.377 2213.02 467.643 2210.52 464.276C2208.02 467.643 2204.76 470.377 2201.01 472.261C2197.27 474.145 2193.13 475.126 2188.93 475.126C2184.74 475.126 2180.6 474.145 2176.86 472.261C2173.11 470.377 2169.85 467.643 2167.35 464.276C2164.85 467.643 2161.59 470.377 2157.85 472.261C2154.1 474.145 2149.96 475.126 2145.77 475.126C2141.57 475.126 2137.44 474.145 2133.69 472.261C2129.94 470.377 2126.69 467.643 2124.19 464.276C2121.68 467.643 2118.43 470.377 2114.68 472.261C2110.93 474.145 2106.8 475.126 2102.6 475.126C2098.41 475.126 2094.27 474.145 2090.53 472.261C2086.78 470.377 2083.52 467.643 2081.02 464.276C2078.52 467.643 2075.26 470.377 2071.52 472.261C2067.77 474.145 2063.63 475.126 2059.44 475.126C2055.24 475.126 2051.11 474.145 2047.36 472.261C2043.61 470.377 2040.36 467.643 2037.86 464.276C2035.35 467.643 2032.09 470.377 2028.34 472.261C2024.59 474.145 2020.45 475.126 2016.25 475.126C2012.05 475.126 2007.92 474.145 2004.16 472.261C2000.41 470.377 1997.16 467.643 1994.65 464.276C1992.15 467.643 1988.89 470.377 1985.14 472.261C1981.4 474.145 1977.26 475.126 1973.07 475.126C1968.87 475.126 1964.74 474.145 1960.99 472.261C1957.24 470.377 1953.99 467.643 1951.48 464.276C1948.98 467.643 1945.73 470.377 1941.98 472.261C1938.23 474.145 1934.09 475.126 1929.9 475.126C1925.71 475.126 1921.57 474.145 1917.82 472.261C1914.07 470.377 1910.82 467.643 1908.32 464.276C1905.82 467.643 1902.56 470.377 1898.81 472.261C1895.07 474.145 1890.93 475.126 1886.73 475.126C1882.54 475.126 1878.4 474.145 1874.66 472.261C1870.91 470.377 1867.65 467.643 1865.15 464.276C1862.65 467.643 1859.4 470.377 1855.65 472.261C1851.9 474.145 1847.76 475.126 1843.57 475.126C1839.38 475.126 1835.24 474.145 1831.49 472.261C1827.74 470.377 1824.49 467.643 1821.99 464.276C1819.48 467.643 1816.23 470.377 1812.48 472.261C1808.73 474.145 1804.6 475.126 1800.4 475.126C1796.21 475.126 1792.07 474.145 1788.33 472.261C1784.58 470.377 1781.32 467.643 1778.82 464.276C1776.32 467.643 1773.06 470.377 1769.32 472.261C1765.57 474.145 1761.43 475.126 1757.24 475.126C1753.04 475.126 1748.91 474.145 1745.16 472.261C1741.41 470.377 1738.16 467.643 1735.66 464.276C1733.15 467.643 1729.9 470.377 1726.15 472.261C1722.4 474.145 1718.27 475.126 1714.07 475.126C1709.88 475.126 1705.74 474.145 1701.99 472.261C1698.25 470.377 1694.99 467.643 1692.49 464.276C1689.98 467.643 1686.72 470.377 1682.97 472.261C1679.22 474.145 1675.08 475.126 1670.89 475.126C1666.69 475.126 1662.55 474.145 1658.8 472.261C1655.05 470.377 1651.79 467.643 1649.28 464.276C1646.78 467.643 1643.53 470.377 1639.78 472.261C1636.03 474.145 1631.9 475.126 1627.7 475.126C1623.51 475.126 1619.37 474.145 1615.62 472.261C1611.88 470.377 1608.62 467.643 1606.12 464.276C1603.62 467.643 1600.36 470.377 1596.61 472.261C1592.87 474.145 1588.73 475.126 1584.54 475.126C1580.34 475.126 1576.2 474.145 1572.46 472.261C1568.71 470.377 1565.45 467.643 1562.95 464.276C1560.45 467.643 1557.2 470.377 1553.45 472.261C1549.7 474.145 1545.56 475.126 1541.37 475.126C1537.18 475.126 1533.04 474.145 1529.29 472.261C1525.54 470.377 1522.29 467.643 1519.79 464.276C1517.28 467.643 1514.03 470.377 1510.28 472.261C1506.53 474.145 1502.4 475.126 1498.2 475.126C1494.01 475.126 1489.87 474.145 1486.13 472.261C1482.38 470.377 1479.12 467.643 1476.62 464.276C1473.95 467.462 1470.65 470.068 1466.94 471.936C1463.23 473.803 1459.17 474.893 1455.02 475.139C1451.94 475.189 1448.89 474.636 1446.03 473.512L1434.92 515.741Z" fill="#4AA29A"/>
<rect x="-269.17" y="491.006" width="2189.17" height="274.994" fill="url(#paint0_linear)"/>
<path d="M1247.71 631.477V629.118C1247.71 628.039 1247.29 627.004 1246.52 626.241C1245.76 625.478 1244.72 625.049 1243.65 625.049H1158.62C1157.54 625.049 1156.5 625.478 1155.74 626.241C1154.98 627.004 1154.55 628.039 1154.55 629.118V631.477H1247.71Z" fill="#223946"/>
<g style="mix-blend-mode:multiply">
<path d="M1232.82 631.464V629.837C1232.74 629.005 1232.34 628.239 1231.7 627.7C1231.06 627.161 1230.24 626.891 1229.41 626.948H1159.84C1159 626.891 1158.18 627.161 1157.54 627.7C1156.91 628.239 1156.5 629.005 1156.42 629.837V631.464H1232.82Z" fill="#CCCCCC"/>
</g>
<path d="M1182.17 601.164H1169.07V625.411H1182.17V601.164Z" fill="#223946"/>
<path d="M1190.59 601.164H1161.02V607.348H1190.59V601.164Z" fill="#223946"/>
<path d="M1224.4 601.164H1211.3V625.411H1224.4V601.164Z" fill="#223946"/>
<path d="M1232.82 601.164H1203.25V607.348H1232.82V601.164Z" fill="#223946"/>
<g style="mix-blend-mode:multiply">
<path d="M1182.17 607.298H1171.88H1169.07V610.756V624.955H1171.88V610.756H1182.17V607.298Z" fill="#CCCCCC"/>
</g>
<g style="mix-blend-mode:multiply">
<path d="M1224.4 607.298H1214.76H1211.3V610.756V624.955H1214.76V610.756H1224.4V607.298Z" fill="#CCCCCC"/>
</g>
<g style="mix-blend-mode:multiply">
<path d="M1165.74 601.164H1161.02V607.348H1165.74V601.164Z" fill="#CCCCCC"/>
</g>
<g style="mix-blend-mode:multiply">
<path d="M1207.44 601.164H1203.25V607.348H1207.44V601.164Z" fill="#CCCCCC"/>
</g>
<path d="M1130.34 666.905C1132.85 670.264 1136.11 672.991 1139.86 674.87C1143.61 676.749 1147.75 677.727 1151.94 677.727C1156.14 677.727 1160.28 676.749 1164.03 674.87C1167.78 672.991 1171.04 670.264 1173.55 666.905C1176.06 670.256 1179.32 672.977 1183.06 674.85C1186.81 676.724 1190.94 677.7 1195.13 677.7C1199.32 677.7 1203.45 676.724 1207.2 674.85C1210.94 672.977 1214.2 670.256 1216.71 666.905C1219.22 670.264 1222.48 672.991 1226.22 674.87C1229.97 676.749 1234.1 677.727 1238.3 677.727C1242.49 677.727 1246.62 676.749 1250.37 674.87C1254.11 672.991 1257.37 670.264 1259.88 666.905C1262.39 670.264 1265.64 672.991 1269.39 674.87C1273.14 676.749 1277.27 677.727 1281.46 677.727C1285.65 677.727 1289.79 676.749 1293.53 674.87C1297.28 672.991 1300.54 670.264 1303.04 666.905C1305.55 670.264 1308.81 672.991 1312.56 674.87C1316.3 676.749 1320.44 677.727 1324.63 677.727C1328.82 677.727 1332.95 676.749 1336.7 674.87C1340.45 672.991 1343.7 670.264 1346.21 666.905C1348.72 670.264 1351.97 672.991 1355.72 674.87C1359.47 676.749 1363.6 677.727 1367.79 677.727C1371.98 677.727 1376.12 676.749 1379.86 674.87C1383.61 672.991 1386.87 670.264 1389.38 666.905C1391.88 670.264 1395.14 672.991 1398.89 674.87C1402.63 676.749 1406.77 677.727 1410.96 677.727C1415.15 677.727 1419.28 676.749 1423.03 674.87C1426.78 672.991 1430.03 670.264 1432.54 666.905C1435.05 670.264 1438.3 672.991 1442.05 674.87C1445.8 676.749 1449.93 677.727 1454.12 677.727C1458.32 677.727 1462.45 676.749 1466.2 674.87C1469.94 672.991 1473.2 670.264 1475.71 666.905C1478.22 670.264 1481.48 672.991 1485.23 674.87C1488.98 676.749 1493.12 677.727 1497.31 677.727C1501.5 677.727 1505.64 676.749 1509.39 674.87C1513.14 672.991 1516.4 670.264 1518.91 666.905C1521.42 670.264 1524.68 672.991 1528.42 674.87C1532.17 676.749 1536.3 677.727 1540.5 677.727C1544.69 677.727 1548.82 676.749 1552.57 674.87C1556.31 672.991 1559.57 670.264 1562.08 666.905C1564.59 670.264 1567.84 672.991 1571.59 674.87C1575.34 676.749 1579.47 677.727 1583.66 677.727C1587.85 677.727 1591.99 676.749 1595.73 674.87C1599.48 672.991 1602.74 670.264 1605.24 666.905C1607.75 670.264 1611.01 672.991 1614.75 674.87C1618.5 676.749 1622.64 677.727 1626.83 677.727C1631.02 677.727 1635.15 676.749 1638.9 674.87C1642.65 672.991 1645.9 670.264 1648.41 666.905C1650.92 670.264 1654.17 672.991 1657.92 674.87C1661.67 676.749 1665.8 677.727 1669.99 677.727C1674.18 677.727 1678.32 676.749 1682.06 674.87C1685.81 672.991 1689.07 670.264 1691.57 666.905C1694.08 670.264 1697.34 672.991 1701.09 674.87C1704.83 676.749 1708.97 677.727 1713.16 677.727C1717.35 677.727 1721.48 676.749 1725.23 674.87C1728.98 672.991 1732.23 670.264 1734.74 666.905C1737.25 670.264 1740.5 672.991 1744.25 674.87C1748 676.749 1752.13 677.727 1756.32 677.727C1760.51 677.727 1764.65 676.749 1768.4 674.87C1772.14 672.991 1775.4 670.264 1777.91 666.905C1780.41 670.264 1783.67 672.991 1787.42 674.87C1791.16 676.749 1795.3 677.727 1799.49 677.727C1803.68 677.727 1807.81 676.749 1811.56 674.87C1815.31 672.991 1818.56 670.264 1821.07 666.905C1823.58 670.264 1826.84 672.991 1830.59 674.87C1834.34 676.749 1838.48 677.727 1842.67 677.727C1846.87 677.727 1851.01 676.749 1854.76 674.87C1858.51 672.991 1861.77 670.264 1864.28 666.905C1866.79 670.264 1870.04 672.991 1873.79 674.87C1877.54 676.749 1881.67 677.727 1885.86 677.727C1890.05 677.727 1894.19 676.749 1897.93 674.87C1901.68 672.991 1904.94 670.264 1907.44 666.905C1909.75 670.015 1912.69 672.59 1916.09 674.451C1919.48 676.312 1923.23 677.416 1927.09 677.686V630.818H1121.02V674.757C1124.69 672.884 1127.88 670.198 1130.34 666.905Z" fill="white"/>
<g style="mix-blend-mode:multiply">
<path d="M1130.34 666.905C1132.85 670.264 1136.11 672.991 1139.86 674.87C1143.61 676.749 1147.75 677.727 1151.94 677.727C1156.14 677.727 1160.28 676.749 1164.03 674.87C1167.78 672.991 1171.04 670.264 1173.55 666.905C1176.06 670.256 1179.32 672.977 1183.06 674.85C1186.81 676.724 1190.94 677.7 1195.13 677.7C1199.32 677.7 1203.45 676.724 1207.2 674.85C1210.94 672.977 1214.2 670.256 1216.71 666.905C1219.22 670.264 1222.48 672.991 1226.22 674.87C1229.97 676.749 1234.1 677.727 1238.3 677.727C1242.49 677.727 1246.62 676.749 1250.37 674.87C1254.11 672.991 1257.37 670.264 1259.88 666.905L1260.29 667.434V630.818H1121.02V674.757C1124.69 672.884 1127.88 670.198 1130.34 666.905Z" fill="#E6E6E6"/>
</g>
<g filter="url(#filter0_d)">
<path d="M976.17 144.023C976.17 164.701 959.407 181.464 938.728 181.464C918.05 181.464 901.287 164.701 901.287 144.023C901.287 123.345 918.05 106.582 938.728 106.582C959.407 106.582 976.17 123.345 976.17 144.023Z" fill="white"/>
<path d="M913.439 152.559C913.439 168.521 900.5 181.46 884.538 181.46C868.577 181.46 855.638 168.521 855.638 152.559C855.638 136.598 868.577 123.659 884.538 123.659C900.5 123.659 913.439 136.598 913.439 152.559Z" fill="white"/>
<path d="M868.607 163.235C868.607 173.301 860.447 181.461 850.381 181.461C840.315 181.461 832.155 173.301 832.155 163.235C832.155 153.169 840.315 145.009 850.381 145.009C860.447 145.009 868.607 153.169 868.607 163.235Z" fill="white"/>
<path d="M849.726 153.876H976.17L941.686 181.46H849.726V153.876Z" fill="white"/>
</g>
<g filter="url(#filter1_d)">
<path d="M731.572 215.286C731.572 236.857 714.085 254.344 692.514 254.344C670.943 254.344 653.456 236.857 653.456 215.286C653.456 193.715 670.943 176.228 692.514 176.228C714.085 176.228 731.572 193.715 731.572 215.286Z" fill="white"/>
<path d="M749.067 254.348C765.921 254.348 779.583 240.685 779.583 223.832C779.583 206.978 765.921 193.316 749.067 193.316C732.214 193.316 718.551 206.978 718.551 223.832L692.303 254.348H749.067Z" fill="white"/>
</g>
<g opacity="0.15" filter="url(#filter2_f)">
<path d="M1317.27 628.432C1298.84 594.388 1294.42 590.368 1298.86 580.189C1304.93 566.245 1327.9 558.697 1350.16 563.328C1372.42 567.959 1385.54 583.017 1379.46 596.96C1375.03 607.139 1368.13 608.804 1325.56 630.155C1322.77 631.55 1318.48 630.659 1317.27 628.432ZM1334.57 599.094C1343.85 601.023 1353.42 597.878 1355.95 592.068C1358.48 586.259 1353.02 579.985 1343.74 578.055C1334.47 576.125 1324.9 579.271 1322.37 585.08C1319.83 590.89 1325.3 597.164 1334.57 599.094Z" fill="#404040"/>
</g>
<path d="M1316.95 628.581C1285.29 582.239 1279.42 577.483 1279.42 560.452C1279.42 537.122 1298.15 518.21 1321.25 518.21C1344.36 518.21 1363.09 537.122 1363.09 560.452C1363.09 577.483 1357.22 582.239 1325.55 628.581C1323.48 631.612 1319.03 631.612 1316.95 628.581ZM1321.25 578.052C1330.88 578.052 1338.69 570.172 1338.69 560.452C1338.69 550.731 1330.88 542.851 1321.25 542.851C1311.63 542.851 1303.82 550.731 1303.82 560.452C1303.82 570.172 1311.63 578.052 1321.25 578.052Z" fill="#E2581D"/>
</g>
<defs>
<filter id="filter0_d" x="832.155" y="106.582" width="149.015" height="82.8825" filterUnits="userSpaceOnUse" color-interpolation-filters="sRGB">
<feFlood flood-opacity="0" result="BackgroundImageFix"/>
<feColorMatrix in="SourceAlpha" type="matrix" values="0 0 0 0 0 0 0 0 0 0 0 0 0 0 0 0 0 0 127 0"/>
<feOffset dx="4" dy="7"/>
<feGaussianBlur stdDeviation="0.5"/>
<feColorMatrix type="matrix" values="0 0 0 0 0 0 0 0 0 0 0 0 0 0 0 0 0 0 0.15 0"/>
<feBlend mode="normal" in2="BackgroundImageFix" result="effect1_dropShadow"/>
<feBlend mode="normal" in="SourceGraphic" in2="effect1_dropShadow" result="shape"/>
</filter>
<filter id="filter1_d" x="653.456" y="176.228" width="131.127" height="86.12" filterUnits="userSpaceOnUse" color-interpolation-filters="sRGB">
<feFlood flood-opacity="0" result="BackgroundImageFix"/>
<feColorMatrix in="SourceAlpha" type="matrix" values="0 0 0 0 0 0 0 0 0 0 0 0 0 0 0 0 0 0 127 0"/>
<feOffset dx="4" dy="7"/>
<feGaussianBlur stdDeviation="0.5"/>
<feColorMatrix type="matrix" values="0 0 0 0 0 0 0 0 0 0 0 0 0 0 0 0 0 0 0.15 0"/>
<feBlend mode="normal" in2="BackgroundImageFix" result="effect1_dropShadow"/>
<feBlend mode="normal" in="SourceGraphic" in2="effect1_dropShadow" result="shape"/>
</filter>
<filter id="filter2_f" x="1296.26" y="560.964" width="85.6843" height="70.859" filterUnits="userSpaceOnUse" color-interpolation-filters="sRGB">
<feFlood flood-opacity="0" result="BackgroundImageFix"/>
<feBlend mode="normal" in="SourceGraphic" in2="BackgroundImageFix" result="shape"/>
<feGaussianBlur stdDeviation="0.5" result="effect1_foregroundBlur"/>
</filter>
<linearGradient id="paint0_linear" x1="825.415" y1="513.22" x2="825.415" y2="665.387" gradientUnits="userSpaceOnUse">
<stop stop-color="#4AA29A"/>
<stop offset="1" stop-color="#4AA29A" stop-opacity="0"/>
</linearGradient>
<clipPath id="clip0">
<rect width="1920" height="703" fill="white"/>
</clipPath>
</defs>
</svg>
